0
SECTION
2
HEADER
9
$INSUNITS
70
4
9
$ACADVER
1
AC1014
9
$HANDSEED
5
FFFF
0
ENDSEC
0
SECTION
2
TABLES
0
TABLE
2
VPORT
5
8
100
AcDbSymbolTable
0
ENDTAB
0
TABLE
2
LTYPE
5
5
100
AcDbSymbolTable
0
LTYPE
5
14
100
AcDbSymbolTableRecord
100
AcDbLinetypeTableRecord
2
BYBLOCK
70
0
0
LTYPE
5
15
100
AcDbSymbolTableRecord
100
AcDbLinetypeTableRecord
2
BYLAYER
70
0
0
ENDTAB
0
TABLE
2
LAYER
5
2
100
AcDbSymbolTable
70
2
0
LAYER
5
50
100
AcDbSymbolTableRecord
100
AcDbLayerTableRecord
2
0
70
0
6
CONTINUOUS
0
ENDTAB
0
TABLE
2
STYLE
5
3
100
AcDbSymbolTable
70
1
0
STYLE
5
11
100
AcDbSymbolTableRecord
100
AcDbTextStyleTableRecord
2
STANDARD
70
0
0
ENDTAB
0
TABLE
2
VIEW
5
6
100
AcDbSymbolTable
70
0
0
ENDTAB
0
TABLE
2
UCS
5
7
100
AcDbSymbolTable
70
0
0
ENDTAB
0
TABLE
2
APPID
5
9
100
AcDbSymbolTable
70
2
0
APPID
5
12
100
AcDbSymbolTableRecord
100
AcDbRegAppTableRecord
2
ACAD
70
0
0
ENDTAB
0
TABLE
2
DIMSTYLE
5
A
100
AcDbSymbolTable
70
1
0
ENDTAB
0
TABLE
2
BLOCK_RECORD
5
1
100
AcDbSymbolTable
70
1
0
BLOCK_RECORD
5
1F
100
AcDbSymbolTableRecord
100
AcDbBlockTableRecord
2
*MODEL_SPACE
0
BLOCK_RECORD
5
1B
100
AcDbSymbolTableRecord
100
AcDbBlockTableRecord
2
*PAPER_SPACE
0
ENDTAB
0
ENDSEC
0
SECTION
2
BLOCKS
0
BLOCK
5
20
100
AcDbEntity
100
AcDbBlockBegin
2
*MODEL_SPACE
0
ENDBLK
5
21
100
AcDbEntity
100
AcDbBlockEnd
0
BLOCK
5
1C
100
AcDbEntity
100
AcDbBlockBegin
2
*PAPER_SPACE
0
ENDBLK
5
1D
100
AcDbEntity
100
AcDbBlockEnd
0
ENDSEC
0
SECTION
2
ENTITIES
0
LWPOLYLINE
5
100
100
AcDbEntity
8
0
100
AcDbPolyline
90
38
70
1
43
0.0
10
535.34939718605858
20
119.52921341932914
42
-0.40178258378564075
10
535.06218164098402
20
119.82894089173075
10
535.06218164098345
20
120.49212186979291
42
0.41421356237315227
10
534.06218164098402
20
121.49212186979291
10
528.407381640984
20
121.49212186979392
42
0.41421356237310542
10
527.407381640984
20
120.49212186979291
10
527.40738164098411
20
119.83012184465193
42
-0.41421356237309503
10
527.10738164098404
20
119.53012184465192
10
510.486182505621
20
119.53012184465192
42
-0.41421356237309503
10
510.18618250562099
20
119.83012184465193
10
510.18618250562099
20
120.49212186979291
42
0.41421356237309503
10
509.18618250562105
20
121.49212186979292
10
503.53138250562102
20
121.49212186979291
42
0.41421356237310542
10
502.53138250562102
20
120.49212186979291
10
502.53138250562102
20
120.03012184465193
42
-0.41421356237309503
10
502.03138250562108
20
119.53012184465193
10
500.87680233630704
20
119.53012184465192
42
0.41421356237310025
10
499.87680233630704
20
118.53012184465192
10
499.87680233630675
20
106.53012184465693
42
0.41421356237315227
10
500.87680233630704
20
105.53012184465658
10
502.03138250562108
20
105.53012184465689
42
-0.41421356237309503
10
502.53138250562102
20
105.03012184465692
10
502.53138250562102
20
104.56812181951092
42
0.41421356237315227
10
503.53138250562102
20
103.56812181951092
10
509.18618250562105
20
103.56812181951044
42
0.41421356237309503
10
510.18618250562105
20
104.56812181951092
10
510.18618250562099
20
105.23012184465692
42
-0.41421356237309503
10
510.486182505621
20
105.53012184465693
10
527.10738164098404
20
105.53012184465693
42
-0.41421356237309503
10
527.40738164098411
20
105.23012184465692
10
527.407381640984
20
104.56812181950993
42
0.41421356237315227
10
528.407381640984
20
103.56812181950993
10
534.06218164098402
20
103.56812181950991
42
0.41421356237309503
10
535.06218164098402
20
104.56812181950993
10
535.06218164098402
20
105.23130279758334
42
-0.40178258378564075
10
535.34939718605858
20
105.53103026998497
42
0.4017825837856524
10
536.30678233630715
20
106.53012184465703
10
536.30678233630704
20
118.53012184465713
42
0.40178258378565157
0
LWPOLYLINE
5
101
100
AcDbEntity
8
0
100
AcDbPolyline
90
8
70
1
43
0.0
10
275.14555233630711
20
38.567621844652216
10
276.64555233630699
20
38.567621844652216
42
-0.41421356237310897
10
277.39555233630711
20
37.817621844652223
10
277.39555233630716
20
25.317621844652216
42
-0.41421356237307422
10
276.64555233630711
20
24.567621844652212
10
275.14555233630716
20
24.567621844652194
42
-0.41421356237306034
10
274.39555233630711
20
25.317621844652205
10
274.39555233630705
20
37.817621844652223
42
-0.4142135623730257
0
LWPOLYLINE
5
102
100
AcDbEntity
8
0
100
AcDbPolyline
90
8
70
1
43
0.0
10
356.10805233630708
20
38.567621844652216
10
357.60805233630691
20
38.567621844652216
42
-0.41421356237310897
10
358.35805233630708
20
37.817621844652223
10
358.35805233630708
20
25.317621844652216
42
-0.41421356237307422
10
357.60805233630708
20
24.567621844652212
10
356.10805233630714
20
24.56762184465223
42
-0.41421356237307422
10
355.35805233630708
20
25.317621844652205
10
355.35805233630703
20
37.817621844652223
42
-0.4142135623730257
0
LWPOLYLINE
5
103
100
AcDbEntity
8
0
100
AcDbPolyline
90
8
70
1
43
0.0
10
437.07055233630706
20
38.567621844652216
10
438.57055233630689
20
38.567621844652216
42
-0.41421356237310897
10
439.32055233630706
20
37.817621844652223
10
439.32055233630706
20
25.317621844652216
42
-0.41421356237307422
10
438.57055233630706
20
24.567621844652212
10
437.07055233630712
20
24.56762184465223
42
-0.41421356237307422
10
436.32055233630706
20
25.317621844652205
10
436.320552336307
20
37.817621844652223
42
-0.4142135623730257
0
LWPOLYLINE
5
104
100
AcDbEntity
8
0
100
AcDbPolyline
90
8
70
1
43
0.0
10
518.03305233630704
20
38.567621844652216
10
519.53305233630681
20
38.567621844652216
42
-0.41421356237310897
10
520.28305233630704
20
37.817621844652223
10
520.28305233630704
20
25.317621844652216
42
-0.41421356237307422
10
519.53305233630704
20
24.567621844652212
10
518.03305233630704
20
24.56762184465223
42
-0.41421356237307422
10
517.28305233630704
20
25.317621844652205
10
517.28305233630704
20
37.817621844652223
42
-0.4142135623730257
0
LWPOLYLINE
5
105
100
AcDbEntity
8
0
100
AcDbPolyline
90
8
70
1
43
0.0
10
271.73930233630705
20
44.973871844656692
42
-0.41421356237306034
10
272.48930233630699
20
44.223871844656713
10
272.48930233630699
20
42.72387184465672
42
-0.41421356237307771
10
271.73930233630699
20
41.973871844656742
10
256.23930233630716
20
41.973871844656628
42
-0.41421356237304996
10
255.48930233630705
20
42.723871844656614
10
255.48930233630702
20
44.223871844656635
42
-0.41421356237304996
10
256.23930233630716
20
44.973871844656664
0
LWPOLYLINE
5
106
100
AcDbEntity
8
0
100
AcDbPolyline
90
8
70
1
43
0.0
10
314.60180233630695
20
41.97387184465331
10
280.05180233630705
20
41.97387184465321
42
-0.4142135623730222
10
279.30180233630699
20
42.723871844653196
10
279.30180233630699
20
44.223871844653218
42
-0.4142135623730222
10
280.05180233630705
20
44.973871844653203
10
314.601802336307
20
44.973871844653274
42
-0.41421356237306034
10
315.35180233630695
20
44.223871844653296
10
315.35180233630695
20
42.723871844653303
42
-0.41421356237307771
0
LWPOLYLINE
5
107
100
AcDbEntity
8
0
100
AcDbPolyline
90
8
70
1
43
0.0
10
395.56430233630692
20
41.973871844653971
10
361.01430233630703
20
41.973871844653871
42
-0.4142135623730222
10
360.26430233630697
20
42.723871844653857
10
360.26430233630697
20
44.223871844653871
42
-0.4142135623730222
10
361.01430233630703
20
44.973871844653857
10
395.56430233630692
20
44.973871844653928
42
-0.41421356237307422
10
396.31430233630692
20
44.223871844653956
10
396.31430233630692
20
42.723871844653956
42
-0.41421356237307771
0
LWPOLYLINE
5
108
100
AcDbEntity
8
0
100
AcDbPolyline
90
8
70
1
43
0.0
10
353.45180233630697
20
44.223871844653296
10
353.45180233630697
20
42.723871844653303
42
-0.41421356237307771
10
352.70180233630697
20
41.97387184465331
10
318.15180233630707
20
41.97387184465321
42
-0.4142135623730222
10
317.40180233630701
20
42.723871844653196
10
317.40180233630701
20
44.223871844653218
42
-0.4142135623730222
10
318.15180233630707
20
44.97387184465321
10
352.70180233630697
20
44.973871844653274
42
-0.41421356237307422
0
LWPOLYLINE
5
109
100
AcDbEntity
8
0
100
AcDbPolyline
90
8
70
1
43
0.0
10
434.41430233630695
20
44.223871844653956
10
434.41430233630695
20
42.723871844653956
42
-0.41421356237307771
10
433.66430233630695
20
41.973871844653971
10
399.11430233630705
20
41.973871844653871
42
-0.4142135623730222
10
398.36430233630699
20
42.723871844653857
10
398.36430233630699
20
44.223871844653871
42
-0.4142135623730222
10
399.11430233630705
20
44.973871844653871
10
433.66430233630695
20
44.973871844653928
42
-0.41421356237307422
0
LWPOLYLINE
5
110
100
AcDbEntity
8
0
100
AcDbPolyline
90
8
70
1
43
0.0
10
269.98930233630699
20
38.567621844651477
42
-0.41421356237310542
10
270.98930233630705
20
37.567621844651498
10
270.98930233630711
20
25.567621844652688
42
-0.41421356237312756
10
269.98930233630699
20
24.567621844652567
10
257.98930233630801
20
24.567621844652685
42
-0.41421356237310281
10
256.98930233630801
20
25.567621844652688
10
256.98930233630722
20
37.56762184465169
42
-0.41421356237306511
10
257.98930233630699
20
38.567621844651413
0
LWPOLYLINE
5
111
100
AcDbEntity
8
0
100
AcDbPolyline
90
8
70
1
43
0.0
10
496.9605523363071
20
119.53012184465224
10
497.66055233630703
20
119.53012184465224
42
-0.41421356237309503
10
498.41055233630703
20
118.78012184465221
10
498.41055233630709
20
106.28012184465233
42
-0.41421356237312978
10
497.66055233630698
20
105.53012184465224
10
496.9605523363071
20
105.53012184465217
42
-0.41421356237309503
10
496.21055233630699
20
106.28012184465227
10
496.21055233630699
20
118.78012184465214
42
-0.41421356237313667
0
LWPOLYLINE
5
112
100
AcDbEntity
8
0
100
AcDbPolyline
90
48
70
1
43
0.0
10
331.4393023363055
20
63.323015063469953
42
-0.19891236737967544
10
331.58574894571223
20
63.676568454063236
10
331.89285572689892
20
63.983675235249791
42
-0.19891236737965903
10
332.24640911749219
20
64.130121844656458
10
339.35719555511895
20
64.130121844655847
42
0.19891236737964818
10
339.71074894571223
20
64.27656845406257
10
340.81785572689887
20
65.383675235248987
42
0.19891236737983004
10
340.96430233630554
20
65.737228625842249
10
340.96430233630684
20
82.373015063469239
42
-0.19891236737967219
10
341.11074894571357
20
82.726568454062516
10
341.4178557269002
20
83.033675235249063
42
-0.19891236737963192
10
341.77140911749342
20
83.180121844655758
10
353.64469555512028
20
83.180121844655559
42
0.19891236737968196
10
353.99824894571361
20
83.326568454062226
10
355.10535572690014
20
84.433675235248714
42
0.19891236738001464
10
355.25180233630692
20
84.787228625841934
10
355.25180233630817
20
101.42301506347374
42
-0.19891236737967877
10
355.39824894571495
20
101.77656845406703
10
355.70535572690147
20
102.08367523525354
42
-0.19891236737965143
10
356.05890911749475
20
102.23012184466026
10
363.02680233630815
20
102.23012184465983
42
0.41421356237299795
10
363.77680233630826
20
102.98012184465978
10
363.77680233630826
20
103.0301218446599
42
0.41421356237301876
10
363.02680233630826
20
103.78012184466002
10
355.30890911749475
20
103.7801218446605
42
0.19891236737966456
10
354.95535572690142
20
103.63367523525376
10
353.84824894571477
20
102.5265684540673
42
0.19891236737982215
10
353.70180233630811
20
102.17301506347405
10
353.70180233630708
20
85.537228625842246
42
-0.1989123673796265
10
353.5553557269003
20
85.183675235249027
10
353.24824894571356
20
84.876568454062422
42
-0.19891236737963838
10
352.89469555512034
20
84.730121844655727
10
341.02140911749336
20
84.730121844655883
42
0.19891236737961007
10
340.66785572690014
20
84.583675235249274
10
339.56074894571344
20
83.476568454062757
42
0.19891236737983414
10
339.41430233630678
20
83.123015063469495
10
339.41430233630558
20
66.487228625842619
42
-0.19891236737967544
10
339.2678557268988
20
66.133675235249342
10
338.96074894571228
20
65.826568454062894
42
-0.19891236737967438
10
338.60719555511901
20
65.680121844656142
10
331.49640911749202
20
65.680121844656639
42
0.1989123673797113
10
331.14285572689874
20
65.53367523524993
10
330.0357489457121
20
64.426568454063457
42
0.19891236737988038
10
329.88930233630532
20
64.073015063470223
10
329.88930233630464
20
53.13012184466109
42
0.41421356237297713
10
330.63930233630452
20
52.380121844661076
10
330.68930233630454
20
52.380121844661033
42
0.41421356237311585
10
331.43930233630471
20
53.13012184466097
0
LWPOLYLINE
5
113
100
AcDbEntity
8
0
100
AcDbPolyline
90
12
70
1
43
0.0
10
396.03617733630699
20
141.08012184465193
10
336.72992733630684
20
141.08012184465198
42
-0.99999999999999989
10
336.72992733630701
20
143.0801218446519
10
361.883052336307
20
143.08012184465196
42
0.41421356237309503
10
363.383052336307
20
144.58012184465193
10
363.383052336307
20
145.5738718446519
42
-0.41421356237308116
10
364.88305233630706
20
147.0738718446519
10
367.883052336307
20
147.07387184465188
42
-0.41421356237309159
10
369.383052336307
20
145.5738718446519
10
369.383052336307
20
144.58012184465193
42
0.41421356237309503
10
370.883052336307
20
143.0801218446519
10
396.03617733630699
20
143.08012184465193
42
-0.99999999999999989
0
LWPOLYLINE
5
114
100
AcDbEntity
8
0
100
AcDbPolyline
90
4
70
1
43
0.0
10
291.07680233630703
20
145.08012184465193
42
-0.99999999999999989
10
291.07680233630703
20
147.08012184465196
10
360.38305233630717
20
147.08012184465196
42
-0.99999999999999989
10
360.383052336307
20
145.08012184465193
0
LWPOLYLINE
5
115
100
AcDbEntity
8
0
100
AcDbPolyline
90
4
70
1
43
0.0
10
372.38305233630689
20
145.08012184465193
42
-0.99999999999999989
10
372.38305233630706
20
147.08012184465196
10
441.68930233630704
20
147.08012184465196
42
-0.99999999999999989
10
441.68930233630704
20
145.08012184465193
0
LWPOLYLINE
5
116
100
AcDbEntity
8
0
100
AcDbPolyline
90
4
70
1
43
0.0
10
314.72992733630701
20
22.067621844651512
42
-0.99999999999999989
10
314.72992733630701
20
20.067621844651519
10
261.08583574216999
20
20.067621844651931
42
-0.99999999999999989
10
261.08583574216999
20
22.067621844651889
0
LWPOLYLINE
5
117
100
AcDbEntity
8
0
100
AcDbPolyline
90
4
70
1
43
0.0
10
418.03617733630693
20
22.067621844650812
10
489.18930233630709
20
22.067621844650272
42
-0.99999999999999989
10
489.18930233630698
20
20.067621844650155
10
418.03617733630693
20
20.067621844650617
42
-0.99999999999999989
0
LWPOLYLINE
5
118
100
AcDbEntity
8
0
100
AcDbPolyline
90
4
70
1
43
0.0
10
372.38305233630706
20
18.067621844651015
10
441.68930233630704
20
18.067621844650404
42
-0.99999999999999989
10
441.68930233630704
20
16.067621844650425
10
372.38305233630689
20
16.067621844651015
42
-0.99999999999999989
0
LWPOLYLINE
5
119
100
AcDbEntity
8
0
100
AcDbPolyline
90
4
70
1
43
0.0
10
453.68930233630698
20
18.067621844650311
10
522.68930233630715
20
18.067621844649707
42
-0.99999999999999989
10
522.68930233630704
20
16.067621844649722
10
453.68930233630687
20
16.067621844650514
42
-0.99999999999999989
0
LWPOLYLINE
5
120
100
AcDbEntity
8
0
100
AcDbPolyline
90
4
70
1
43
0.0
10
360.383052336307
20
18.067621844651175
10
291.07680233630703
20
18.067621844651708
42
0.99999999999999989
10
291.07680233630703
20
16.067621844651715
10
360.383052336307
20
16.067621844651175
42
0.99999999999999989
0
LWPOLYLINE
5
121
100
AcDbEntity
8
0
100
AcDbPolyline
90
8
70
1
43
0.0
10
299.85180233630774
20
99.480121844655912
42
-0.41421356237312101
10
300.85180233630803
20
100.48012184465625
10
312.851802336307
20
100.48012184465705
42
-0.41421356237304818
10
313.851802336307
20
99.48012184465702
10
313.85180233630911
20
87.480121844657418
42
-0.41421356237309503
10
312.85180233630803
20
86.480121844656338
10
300.851802336307
20
86.480121844655713
42
-0.41421356237307944
10
299.851802336307
20
87.480121844655713
0
LWPOLYLINE
5
122
100
AcDbEntity
8
0
100
AcDbPolyline
90
8
70
1
43
0.0
10
355.71430233630701
20
67.430121844650415
10
343.71430233630701
20
67.430121844650387
42
-0.41421356237309764
10
342.71430233630701
20
68.430121844650415
10
342.71430233630599
20
80.430121844650216
42
-0.41421356237310025
10
343.71430233630798
20
81.430121844652206
10
355.71430233630707
20
81.430121844652277
42
-0.41421356237312623
10
356.71430233630701
20
80.430121844652234
10
356.71430233630866
20
68.430121844652021
42
-0.41421356237304563
0
LWPOLYLINE
5
123
100
AcDbEntity
8
0
100
AcDbPolyline
90
8
70
1
43
0.0
10
247.17680233630693
20
68.43012184465212
42
-0.41421356237309764
10
246.17680233630699
20
67.430121844652177
10
234.17680233630702
20
67.430121844652206
42
-0.41421356237307422
10
233.17680233630699
20
68.43012184465222
10
233.17680233630688
20
80.43012184465212
42
-0.41421356237307944
10
234.17680233630702
20
81.430121844652191
10
246.17680233630699
20
81.430121844652263
42
-0.41421356237310025
10
247.17680233630702
20
80.430121844652234
0
LWPOLYLINE
5
124
100
AcDbEntity
8
0
100
AcDbPolyline
90
8
70
1
43
0.0
10
228.12680233630689
20
68.43012184465212
42
-0.41421356237311846
10
227.12680233630704
20
67.430121844652234
10
215.12680233630704
20
67.430121844652092
42
-0.41421356237310802
10
214.12680233630698
20
68.43012184465212
10
214.12680233630704
20
80.430121844652234
42
-0.41421356237307944
10
215.12680233630704
20
81.430121844652191
10
227.12680233630704
20
81.43012184465222
42
-0.41421356237304818
10
228.12680233630701
20
80.430121844652234
0
LWPOLYLINE
5
125
100
AcDbEntity
8
0
100
AcDbPolyline
90
8
70
1
43
0.0
10
317.61430233630801
20
67.430121844650458
10
305.61430233630699
20
67.430121844650529
42
-0.41421356237310542
10
304.61430233630699
20
68.430121844650515
10
304.61430233630597
20
80.430121844650117
42
-0.41421356237312101
10
305.61430233630801
20
81.430121844652206
10
317.61430233630801
20
81.430121844652191
42
-0.41421356237307944
10
318.61430233630801
20
80.430121844652234
10
318.61430233630932
20
68.430121844651822
42
-0.41421356237310802
0
LWPOLYLINE
5
126
100
AcDbEntity
8
0
100
AcDbPolyline
90
8
70
1
43
0.0
10
296.08930233630701
20
62.380121844652095
10
308.08930233630701
20
62.380121844652038
42
-0.41421356237310802
10
309.08930233630701
20
61.380121844652116
10
309.08930233630929
20
49.380121844657516
42
-0.4142135623730846
10
308.08930233630798
20
48.380121844656188
10
296.08930233630701
20
48.380121844655875
42
-0.414213562373069
10
295.08930233630741
20
49.380121844655413
10
295.08930233630485
20
61.380121844649913
42
-0.41421356237309503
0
LWPOLYLINE
5
127
100
AcDbEntity
8
0
100
AcDbPolyline
90
8
70
1
43
0.0
10
315.13930233630703
20
62.380121844652095
10
327.13930233630708
20
62.380121844652187
42
-0.41421356237315227
10
328.13930233630708
20
61.380121844652116
10
328.13930233630913
20
49.380121844657523
42
-0.414213562373069
10
327.13930233630799
20
48.380121844656287
10
315.13930233630703
20
48.380121844655989
42
-0.41421356237310542
10
314.13930233630737
20
49.380121844655619
10
314.13930233630504
20
61.380121844650013
42
-0.41421356237314444
0
LWPOLYLINE
5
128
100
AcDbEntity
8
0
100
AcDbPolyline
90
8
70
1
43
0.0
10
324.66430233630803
20
81.430121844652206
10
336.66430233630808
20
81.430121844652234
42
-0.41421356237309503
10
337.66430233630808
20
80.430121844652234
10
337.66430233630962
20
68.430121844651921
42
-0.41421356237312362
10
336.66430233630808
20
67.430121844650415
10
324.66430233630706
20
67.430121844650415
42
-0.41421356237305079
10
323.664302336307
20
68.430121844650415
10
323.66430233630604
20
80.430121844650245
42
-0.4142135623730846
0
LWPOLYLINE
5
129
100
AcDbEntity
8
0
100
AcDbPolyline
90
8
70
1
43
0.0
10
399.86430233630711
20
80.430121844651012
42
-0.41421356237339679
10
400.86430233630898
20
81.430121844652035
10
412.86430233630711
20
81.430121844652277
42
-0.4142135623730846
10
413.86430233630705
20
80.430121844652234
10
413.86430233630699
20
68.430121844652021
42
-0.41421356237311063
10
412.86430233630705
20
67.430121844652007
10
400.86430233630807
20
67.4301218446505
42
-0.4142135623734462
10
399.86430233630699
20
68.430121844650515
0
LWPOLYLINE
5
130
100
AcDbEntity
8
0
100
AcDbPolyline
90
8
70
1
43
0.0
10
418.91430233630683
20
80.430121844651921
42
-0.41421356237346962
10
419.91430233630808
20
81.430121844652149
10
431.91430233630803
20
81.430121844651495
42
-0.41421356237312101
10
432.91430233630729
20
80.430121844652319
10
432.91430233630808
20
68.430121844652021
42
-0.41421356237308982
10
431.91430233630803
20
67.430121844652064
10
419.91430233630808
20
67.430121844650856
42
-0.41421356237339679
10
418.91430233630723
20
68.430121844650614
0
LWPOLYLINE
5
131
100
AcDbEntity
8
0
100
AcDbPolyline
90
8
70
1
43
0.0
10
438.96430233630701
20
81.43012184465222
10
450.96430233630701
20
81.430121844652277
42
-0.41421356237310542
10
451.96430233630707
20
80.430121844652234
10
451.96430233630724
20
68.43012184465212
42
-0.41421356237316787
10
450.96430233630707
20
67.430121844652021
10
438.96430233630701
20
67.430121844652149
42
-0.41421356237308204
10
437.96430233630701
20
68.43012184465212
10
437.96430233630679
20
80.430121844652007
42
-0.41421356237301177
0
LWPOLYLINE
5
132
100
AcDbEntity
8
0
100
AcDbPolyline
90
8
70
1
43
0.0
10
495.11430233630705
20
124.58012184465191
10
511.49428233630704
20
124.58012184465191
42
0.4142135623730222
10
512.49428233630692
20
125.58012184465191
10
512.49428233630715
20
137.58012184465193
42
0.4142135623730222
10
511.49428233630704
20
138.58012184465198
10
495.11430233630705
20
138.58012184465193
42
0.4142135623730222
10
494.11430233630711
20
137.58012184465193
10
494.11430233630705
20
125.58012184465191
42
0.41421356237307944
0
LWPOLYLINE
5
133
100
AcDbEntity
8
0
100
AcDbPolyline
90
8
70
1
43
0.0
10
429.43930233630704
20
62.380121844652109
10
441.43930233630698
20
62.380121844652237
42
-0.41421356237309764
10
442.43930233630698
20
61.380121844652216
10
442.43930233630834
20
49.380121844657111
42
-0.41421356237311063
10
441.43930233630806
20
48.380121844656728
10
429.43930233630704
20
48.380121844656536
42
-0.41421356237307683
10
428.43930233630709
20
49.380121844656415
10
428.43930233630516
20
61.380121844650319
42
-0.4142135623730378
0
LWPOLYLINE
5
134
100
AcDbEntity
8
0
100
AcDbPolyline
90
8
70
1
43
0.0
10
334.18930233630698
20
62.380121844652095
10
346.18930233630698
20
62.380121844652045
42
-0.41421356237307683
10
347.18930233630709
20
61.380121844652024
10
347.18930233630891
20
49.380121844657332
42
-0.414213562373069
10
346.189302336308
20
48.38012184465633
10
334.18930233630698
20
48.380121844656102
42
-0.41421356237308204
10
333.18930233630732
20
49.380121844655712
10
333.1893023363051
20
61.380121844650205
42
-0.41421356237313667
0
LWPOLYLINE
5
135
100
AcDbEntity
8
0
100
AcDbPolyline
90
8
70
1
43
0.0
10
518.92680233630699
20
80.430121844652234
42
-0.41421356237310542
10
519.92680233630699
20
81.430121844652234
10
531.92680233630711
20
81.430121844652277
42
-0.4142135623730846
10
532.92680233630699
20
80.430121844652234
10
532.92680233630711
20
68.43012184465222
42
-0.41421356237307683
10
531.92680233630699
20
67.43012184465222
10
519.92680233630699
20
67.430121844652263
42
-0.41421356237307683
10
518.92680233630699
20
68.43012184465222
0
LWPOLYLINE
5
136
100
AcDbEntity
8
0
100
AcDbPolyline
90
8
70
1
43
0.0
10
523.68930233630704
20
61.380121844652116
42
-0.41421356237308204
10
524.68930233630704
20
62.380121844652116
10
536.68930233630704
20
62.380121844652123
42
-0.41421356237305079
10
537.68930233630704
20
61.380121844652116
10
537.68930233630704
20
49.380121844657012
42
-0.41421356237315227
10
536.68930233630704
20
48.380121844656962
10
524.68930233630704
20
48.38012184465704
42
-0.41421356237308204
10
523.68930233630704
20
49.380121844657012
0
LWPOLYLINE
5
137
100
AcDbEntity
8
0
100
AcDbPolyline
90
8
70
1
43
0.0
10
384.28930233630808
20
48.380121844656387
10
372.289302336307
20
48.38012184465633
42
-0.41421356237308204
10
371.28930233630729
20
49.380121844656017
10
371.28930233630513
20
61.380121844650205
42
-0.4142135623730534
10
372.289302336307
20
62.380121844652109
10
384.289302336307
20
62.380121844652045
42
-0.41421356237307683
10
385.28930233630712
20
61.380121844652024
10
385.28930233630911
20
49.380121844657324
42
-0.41421356237312362
0
LWPOLYLINE
5
138
100
AcDbEntity
8
0
100
AcDbPolyline
90
8
70
1
43
0.0
10
403.33930233630804
20
48.380121844656578
10
391.33930233630707
20
48.380121844656266
42
-0.41421356237304563
10
390.33930233630718
20
49.380121844656117
10
390.33930233630514
20
61.380121844650205
42
-0.4142135623730846
10
391.33930233630707
20
62.380121844652109
10
403.33930233630701
20
62.380121844652159
42
-0.41421356237308204
10
404.33930233630713
20
61.380121844652116
10
404.33930233630866
20
49.380121844657211
42
-0.41421356237309243
0
LWPOLYLINE
5
139
100
AcDbEntity
8
0
100
AcDbPolyline
90
8
70
1
43
0.0
10
537.68930233630704
20
37.567621844652315
10
537.68930233630704
20
25.567621844652415
42
-0.41421356237310025
10
536.68930233630704
20
24.567621844652422
10
524.68930233630704
20
24.567621844652464
42
-0.41421356237307555
10
523.68930233630704
20
25.567621844652415
10
523.68930233630715
20
37.567621844652315
42
-0.41421356237315093
10
524.68930233630704
20
38.567621844652322
10
536.68930233630704
20
38.567621844652273
42
-0.41421356237310025
0
LWPOLYLINE
5
140
100
AcDbEntity
8
0
100
AcDbPolyline
90
8
70
1
43
0.0
10
481.82680233630708
20
38.567621844652095
10
493.82680233630703
20
38.567621844652088
42
-0.41421356237308332
10
494.82680233630703
20
37.567621844652109
10
494.8268023363072
20
25.567621844652511
42
-0.41421356237302998
10
493.82680233630703
20
24.567621844652411
10
481.82680233630708
20
24.567621844652358
42
-0.41421356237302348
10
480.82680233630703
20
25.567621844652415
10
480.82680233630725
20
37.567621844652216
42
-0.41421356237311585
0
LWPOLYLINE
5
141
100
AcDbEntity
8
0
100
AcDbPolyline
90
8
70
1
43
0.0
10
500.87680233630704
20
38.567621844652166
10
512.87680233630704
20
38.567621844652088
42
-0.41421356237308332
10
513.87680233630704
20
37.567621844652109
10
513.87680233630715
20
25.567621844652511
42
-0.41421356237302998
10
512.87680233630704
20
24.567621844652415
10
500.87680233630704
20
24.567621844652358
42
-0.4142135623730287
10
499.87680233630704
20
25.567621844652429
10
499.87680233630715
20
37.567621844652216
42
-0.41421356237309892
0
LWPOLYLINE
5
142
100
AcDbEntity
8
0
100
AcDbPolyline
90
8
70
1
43
0.0
10
443.72680233630706
20
38.567621844651939
10
455.726802336307
20
38.567621844651974
42
-0.41421356237308204
10
456.726802336307
20
37.56762184465201
10
456.72680233630706
20
25.567621844652514
42
-0.41421356237306639
10
455.726802336307
20
24.567621844652408
10
443.72680233630706
20
24.567621844652358
42
-0.41421356237302348
10
442.726802336307
20
25.567621844652415
10
442.72680233630717
20
37.567621844652109
42
-0.41421356237308071
0
LWPOLYLINE
5
143
100
AcDbEntity
8
0
100
AcDbPolyline
90
8
70
1
43
0.0
10
462.77680233630701
20
38.56762184465201
10
474.77680233630804
20
38.567621844651072
42
-0.41421356237309892
10
475.77680233630701
20
37.567621844652109
10
475.77680233630713
20
25.567621844652511
42
-0.41421356237302998
10
474.77680233630701
20
24.567621844652411
10
462.77680233630701
20
24.567621844652358
42
-0.41421356237302348
10
461.77680233630701
20
25.567621844652415
10
461.77680233630718
20
37.567621844652216
42
-0.41421356237308204
0
LWPOLYLINE
5
144
100
AcDbEntity
8
0
100
AcDbPolyline
90
8
70
1
43
0.0
10
400.86430233630699
20
38.567621844651818
10
412.86430233630705
20
38.567621844651853
42
-0.41421356237311974
10
413.86430233630705
20
37.567621844651896
10
413.86430233630722
20
25.567621844652592
42
-0.41421356237302998
10
412.86430233630705
20
24.567621844652482
10
400.86430233630699
20
24.567621844652546
42
-0.41421356237309892
10
399.86430233630699
20
25.567621844652571
10
399.86430233630711
20
37.567621844651995
42
-0.41421356237316659
0
LWPOLYLINE
5
145
100
AcDbEntity
8
0
100
AcDbPolyline
90
8
70
1
43
0.0
10
419.914302336307
20
38.567621844651896
10
431.91430233630706
20
38.56762184465196
42
-0.41421356237311063
10
432.91430233630706
20
37.567621844651896
10
432.91430233630712
20
25.567621844652596
42
-0.41421356237306639
10
431.91430233630706
20
24.567621844652486
10
419.914302336307
20
24.567621844652546
42
-0.41421356237309892
10
418.914302336307
20
25.567621844652571
10
418.91430233630723
20
37.567621844652095
42
-0.41421356237309115
0
LWPOLYLINE
5
146
100
AcDbEntity
8
0
100
AcDbPolyline
90
8
70
1
43
0.0
10
362.76430233630708
20
38.567621844651669
10
374.76430233630703
20
38.567621844651669
42
-0.41421356237308332
10
375.76430233630703
20
37.56762184465169
10
375.76430233630708
20
25.567621844652493
42
-0.41421356237308332
10
374.76430233630703
20
24.567621844652479
10
362.76430233630708
20
24.567621844652439
42
-0.41421356237303908
10
361.76430233630703
20
25.567621844652546
10
361.76430233630708
20
37.56762184465169
42
-0.41421356237309892
0
LWPOLYLINE
5
147
100
AcDbEntity
8
0
100
AcDbPolyline
90
8
70
1
43
0.0
10
381.81430233630704
20
38.56762184465174
10
393.81430233630704
20
38.567621844651669
42
-0.41421356237308332
10
394.81430233630704
20
37.56762184465169
10
394.81430233630709
20
25.567621844652493
42
-0.41421356237308332
10
393.81430233630704
20
24.567621844652479
10
381.81430233630704
20
24.567621844652439
42
-0.41421356237304691
10
380.81430233630704
20
25.567621844652571
10
380.81430233630715
20
37.567621844651796
42
-0.41421356237309892
0
LWPOLYLINE
5
148
100
AcDbEntity
8
0
100
AcDbPolyline
90
8
70
1
43
0.0
10
319.90180233630701
20
38.567621844651391
10
331.90180233630707
20
38.567621844651427
42
-0.41421356237309243
10
332.90180233630713
20
37.567621844651356
10
332.9018023363073
20
25.567621844652511
42
-0.41421356237302998
10
331.90180233630707
20
24.567621844652393
10
319.90180233630701
20
24.567621844652471
42
-0.41421356237311324
10
318.90180233630707
20
25.567621844652439
10
318.90180233630713
20
37.567621844651512
42
-0.41421356237309631
0
LWPOLYLINE
5
149
100
AcDbEntity
8
0
100
AcDbPolyline
90
8
70
1
43
0.0
10
338.95180233630703
20
38.567621844651462
10
350.95180233630708
20
38.567621844651455
42
-0.41421356237307555
10
351.95180233630708
20
37.567621844651512
10
351.95180233630714
20
25.567621844652415
42
-0.41421356237308332
10
350.95180233630708
20
24.567621844652393
10
338.95180233630703
20
24.567621844652439
42
-0.41421356237309892
10
337.95180233630703
20
25.567621844652464
10
337.95180233630697
20
37.567621844651512
42
-0.41421356237309892
0
LWPOLYLINE
5
150
100
AcDbEntity
8
0
100
AcDbPolyline
90
8
70
1
43
0.0
10
312.85180233630706
20
24.56762184465239
10
300.851802336307
20
24.567621844652471
42
-0.41421356237310542
10
299.85180233630706
20
25.567621844652415
10
299.85180233630712
20
37.567621844651413
42
-0.41421356237309631
10
300.851802336307
20
38.567621844651313
10
312.85180233630706
20
38.567621844651264
42
-0.41421356237311713
10
313.851802336307
20
37.567621844651285
10
313.85180233630712
20
25.567621844652511
42
-0.41421356237312756
0
LWPOLYLINE
5
151
100
AcDbEntity
8
0
100
AcDbPolyline
90
8
70
1
43
0.0
10
516.54428233630699
20
86.480121844657077
42
-0.41421356237307422
10
515.54428233630699
20
87.48012184465702
10
515.54428233630711
20
99.48012184465712
42
-0.41421356237307422
10
516.54428233630699
20
100.48012184465692
10
535.30678233630715
20
100.48012184465711
42
-0.4142135623730222
10
536.30678233630704
20
99.48012184465712
10
536.30678233630715
20
87.48012184465702
42
-0.4142135623730222
10
535.30678233630715
20
86.480121844656978
0
LWPOLYLINE
5
152
100
AcDbEntity
8
0
100
AcDbPolyline
90
8
70
1
43
0.0
10
535.30678233630715
20
138.58012184465198
42
-0.4142135623730222
10
536.30678233630715
20
137.58012184465193
10
536.30678233630704
20
125.58012184465191
42
-0.4142135623730222
10
535.30678233630715
20
124.58012184465191
10
518.92680233630699
20
124.58012184465193
42
-0.4142135623730222
10
517.92680233630699
20
125.58012184465191
10
517.92680233630699
20
137.58012184465193
42
-0.4142135623730222
10
518.92680233630699
20
138.58012184465193
0
LWPOLYLINE
5
153
100
AcDbEntity
8
0
100
AcDbPolyline
90
8
70
1
43
0.0
10
246.17680233630699
20
24.567621844652386
10
234.17680233630702
20
24.5676218446524
42
-0.41421356237307422
10
233.17680233630699
20
25.567621844652415
10
233.17680233630725
20
37.567621844651313
42
-0.41421356237310936
10
234.17680233630702
20
38.567621844651136
10
246.17680233630699
20
38.5676218446511
42
-0.41421356237310675
10
247.17680233630702
20
37.567621844651114
10
247.17680233630713
20
25.567621844652514
42
-0.41421356237313534
0
LWPOLYLINE
5
154
100
AcDbEntity
8
0
100
AcDbPolyline
90
8
70
1
43
0.0
10
227.12680233630704
20
24.567621844652379
10
215.12680233630704
20
24.567621844652471
42
-0.41421356237310542
10
214.12680233630707
20
25.567621844652415
10
214.12680233630721
20
37.567621844651214
42
-0.41421356237309764
10
215.12680233630704
20
38.567621844651057
10
227.12680233630704
20
38.5676218446512
42
-0.41421356237307555
10
228.12680233630712
20
37.567621844651114
10
228.12680233630715
20
25.567621844652511
42
-0.41421356237309892
0
LWPOLYLINE
5
155
100
AcDbEntity
8
0
100
AcDbPolyline
90
8
70
1
43
0.0
10
281.80180233630699
20
38.567621844651235
10
293.80180233630705
20
38.567621844651264
42
-0.41421356237310675
10
294.80180233630699
20
37.567621844651313
10
294.80180233630711
20
25.567621844652511
42
-0.41421356237312756
10
293.80180233630705
20
24.56762184465239
10
281.80180233630801
20
24.567621844652507
42
-0.41421356237310281
10
280.80180233630807
20
25.567621844652511
10
280.80180233630722
20
37.567621844651512
42
-0.41421356237306511
0
LWPOLYLINE
5
156
100
AcDbEntity
8
0
100
AcDbPolyline
90
8
70
1
43
0.0
10
410.38930233630708
20
62.380121844652109
10
422.38930233630703
20
62.380121844652159
42
-0.41421356237308204
10
423.38930233630714
20
61.380121844652116
10
423.38930233630867
20
49.380121844657211
42
-0.41421356237304563
10
422.38930233630805
20
48.380121844656578
10
410.38930233630708
20
48.380121844656458
42
-0.41421356237305079
10
409.3893023363072
20
49.380121844656315
10
409.38930233630521
20
61.380121844650205
42
-0.41421356237310281
0
LWPOLYLINE
5
157
100
AcDbEntity
8
0
100
AcDbPolyline
90
8
70
1
43
0.0
10
505.63930233630708
20
62.380121844652116
10
517.63930233630708
20
62.380121844652052
42
-0.41421356237305079
10
518.63930233630697
20
61.380121844652116
10
518.63930233630731
20
49.380121844657111
42
-0.41421356237304563
10
517.63930233630708
20
48.380121844656912
10
505.63930233630708
20
48.38012184465704
42
-0.41421356237308204
10
504.63930233630708
20
49.380121844657012
10
504.6393023363072
20
61.380121844652216
42
-0.41421356237315227
0
LWPOLYLINE
5
158
100
AcDbEntity
8
0
100
AcDbPolyline
90
8
70
1
43
0.0
10
233.17680233630693
20
61.380121844652216
42
-0.41421356237307161
10
234.17680233630702
20
62.38012184465228
10
246.17680233630699
20
62.380121844652237
42
-0.41421356237309764
10
247.17680233630702
20
61.380121844652216
10
247.17680233630574
20
49.380121844656813
42
-0.41421356237309764
10
246.17680233630699
20
48.380121844658063
10
234.17680233630702
20
48.38012184465672
42
-0.41421356237308721
10
233.17680233630688
20
49.380121844656813
0
LWPOLYLINE
5
159
100
AcDbEntity
8
0
100
AcDbPolyline
90
8
70
1
43
0.0
10
214.12680233630695
20
61.380121844652116
42
-0.41421356237310025
10
215.12680233630704
20
62.380121844652223
10
227.12680233630704
20
62.380121844652187
42
-0.41421356237308204
10
228.12680233630704
20
61.380121844652216
10
228.12680233630559
20
49.380121844656713
42
-0.41421356237309764
10
227.12680233630704
20
48.380121844658134
10
215.12680233630704
20
48.380121844656955
42
-0.41421356237310802
10
214.12680233630695
20
49.380121844657012
0
LWPOLYLINE
5
160
100
AcDbEntity
8
0
100
AcDbPolyline
90
8
70
1
43
0.0
10
352.23930233630659
20
61.380121844650013
42
-0.41421356237311063
10
353.23930233630699
20
62.380121844650446
10
365.23930233630801
20
62.380121844651143
42
-0.41421356237311846
10
366.23930233630711
20
61.380121844652116
10
366.23930233630892
20
49.380121844657324
42
-0.41421356237309243
10
365.23930233630801
20
48.380121844656387
10
353.23930233630699
20
48.380121844656323
42
-0.41421356237308982
10
352.23930233630733
20
49.380121844655818
0
LWPOLYLINE
5
161
100
AcDbEntity
8
0
100
AcDbPolyline
90
8
70
1
43
0.0
10
486.58930233630707
20
62.380121844652116
10
498.58930233630804
20
62.380121844651242
42
-0.41421356237309764
10
499.58930233630701
20
61.380121844652216
10
499.58930233630718
20
49.380121844657012
42
-0.41421356237309764
10
498.58930233630701
20
48.38012184465682
10
486.58930233630707
20
48.380121844656834
42
-0.41421356237307683
10
485.58930233630713
20
49.380121844656713
10
485.58930233630713
20
61.380121844652116
42
-0.41421356237310802
0
LWPOLYLINE
5
162
100
AcDbEntity
8
0
100
AcDbPolyline
90
8
70
1
43
0.0
10
508.11430233630699
20
67.430121844652177
10
496.11430233630807
20
67.430121844651154
42
-0.41421356237308204
10
495.11430233630705
20
68.43012184465212
10
495.11430233630813
20
80.430121844652234
42
-0.41421356237314705
10
496.11430233630807
20
81.43012184465222
10
508.11430233630699
20
81.430121844652234
42
-0.41421356237309503
10
509.11430233630705
20
80.430121844652234
10
509.11430233630711
20
68.43012184465222
42
-0.41421356237304563
0
LWPOLYLINE
5
163
100
AcDbEntity
8
0
100
AcDbPolyline
90
8
70
1
43
0.0
10
467.53930233630706
20
62.380121844652116
10
479.53930233630808
20
62.380121844651867
42
-0.41421356237309764
10
480.539302336307
20
61.380121844652905
10
480.53930233630723
20
49.380121844657111
42
-0.41421356237309764
10
479.539302336307
20
48.38012184465687
10
467.53930233630706
20
48.380121844656834
42
-0.41421356237307683
10
466.53930233630712
20
49.380121844656713
10
466.53930233630683
20
61.38012184465191
42
-0.41421356237308204
0
LWPOLYLINE
5
164
100
AcDbEntity
8
0
100
AcDbPolyline
90
8
70
1
43
0.0
10
489.06430233630704
20
67.43012184465212
10
477.06430233630698
20
67.430121844652177
42
-0.41421356237305079
10
476.06430233630704
20
68.43012184465212
10
476.06430233630692
20
80.430121844652234
42
-0.41421356237307944
10
477.06430233630698
20
81.43012184465222
10
489.06430233630704
20
81.430121844652234
42
-0.41421356237309503
10
490.06430233630704
20
80.430121844652234
10
490.06430233630704
20
68.43012184465212
42
-0.41421356237309764
0
LWPOLYLINE
5
165
100
AcDbEntity
8
0
100
AcDbPolyline
90
8
70
1
43
0.0
10
448.48930233630705
20
62.380121844652116
10
460.48930233630699
20
62.380121844652237
42
-0.41421356237309764
10
461.48930233630699
20
61.380121844652216
10
461.48930233630858
20
49.380121844657111
42
-0.41421356237304302
10
460.48930233630807
20
48.380121844656621
10
448.48930233630705
20
48.380121844656685
42
-0.41421356237308204
10
447.48930233630716
20
49.380121844656514
10
447.48930233630688
20
61.38012184465191
42
-0.41421356237306384
0
LWPOLYLINE
5
166
100
AcDbEntity
8
0
100
AcDbPolyline
90
8
70
1
43
0.0
10
470.01430233630708
20
67.43012184465212
10
458.01430233630703
20
67.430121844652163
42
-0.41421356237311846
10
457.01430233630703
20
68.43012184465212
10
457.01430233630697
20
80.43012184465212
42
-0.41421356237301177
10
458.01430233630703
20
81.43012184465222
10
470.01430233630708
20
81.430121844652319
42
-0.41421356237311585
10
471.01430233630708
20
80.430121844652234
10
471.01430233630714
20
68.43012184465212
42
-0.41421356237311846
0
LWPOLYLINE
5
167
100
AcDbEntity
8
0
100
AcDbPolyline
90
8
70
1
43
0.0
10
380.81430233630698
20
80.430121844651012
42
-0.41421356237345924
10
381.81430233630908
20
81.430121844652064
10
393.81430233630709
20
81.430121844652277
42
-0.4142135623730846
10
394.81430233630704
20
80.430121844652234
10
394.81430233630732
20
68.430121844651211
42
-0.4142135623730222
10
393.814302336308
20
67.430121844651907
10
381.81430233630795
20
67.430121844650529
42
-0.41421356237331353
10
380.81430233630698
20
68.430121844650515
0
LWPOLYLINE
5
168
100
AcDbEntity
8
0
100
AcDbPolyline
90
8
70
1
43
0.0
10
361.76430233630776
20
80.430121844650216
42
-0.41421356237310025
10
362.76430233630799
20
81.430121844650444
10
374.76430233630708
20
81.430121844652277
42
-0.41421356237312623
10
375.76430233630703
20
80.430121844652234
10
375.76430233630964
20
68.430121844652021
42
-0.41421356237314705
10
374.76430233630799
20
67.430121844650316
10
362.76430233630708
20
67.430121844650387
42
-0.41421356237309764
10
361.76430233630703
20
68.430121844650415
0
LWPOLYLINE
5
169
100
AcDbEntity
8
0
100
AcDbPolyline
90
8
70
1
43
0.0
10
282.18432233630699
20
137.58012184465193
42
-0.41421356237307944
10
283.18432233630699
20
138.58012184465198
10
299.56430233630698
20
138.58012184465196
42
-0.41421356237307944
10
300.56430233630698
20
137.58012184465193
10
300.56430233630698
20
125.58012184465191
42
-0.41421356237307422
10
299.56430233630698
20
124.58012184465191
10
283.18432233630699
20
124.58012184465193
42
-0.41421356237310542
10
282.18432233630699
20
125.58012184465191
0
LWPOLYLINE
5
170
100
AcDbEntity
8
0
100
AcDbPolyline
90
8
70
1
43
0.0
10
258.37182233630693
20
137.58012184465193
42
-0.41421356237307944
10
259.37182233630699
20
138.58012184465198
10
275.75180233630704
20
138.5801218446519
42
-0.41421356237305862
10
276.75180233630698
20
137.58012184465193
10
276.75180233630698
20
125.58012184465191
42
-0.41421356237307422
10
275.75180233630698
20
124.58012184465191
10
259.37182233630699
20
124.58012184465188
42
-0.41421356237310025
10
258.37182233630699
20
125.58012184465191
0
LWPOLYLINE
5
171
100
AcDbEntity
8
0
100
AcDbPolyline
90
8
70
1
43
0.0
10
233.17680233630705
20
137.58012184465193
42
-0.41421356237305862
10
234.17680233630702
20
138.58012184465193
10
246.17680233630699
20
138.58012184465196
42
-0.41421356237307944
10
247.17680233630705
20
137.58012184465193
10
247.17680233630702
20
125.58012184465191
42
-0.41421356237308982
10
246.17680233630699
20
124.58012184465191
10
234.17680233630702
20
124.58012184465184
42
-0.41421356237304818
10
233.17680233630696
20
125.58012184465191
0
LWPOLYLINE
5
172
100
AcDbEntity
8
0
100
AcDbPolyline
90
8
70
1
43
0.0
10
214.12680233630704
20
137.58012184465193
42
-0.41421356237308982
10
215.12680233630704
20
138.58012184465193
10
227.12680233630704
20
138.5801218446523
42
-0.41421356237304818
10
228.12680233630741
20
137.58012184465193
10
228.12680233630701
20
125.58012184465191
42
-0.41421356237305862
10
227.12680233630704
20
124.58012184465191
10
215.12680233630704
20
124.58012184465196
42
-0.41421356237307944
10
214.12680233630707
20
125.58012184465191
0
LWPOLYLINE
5
173
100
AcDbEntity
8
0
100
AcDbPolyline
90
8
70
1
43
0.0
10
196.07680233630703
20
38.567621844650979
10
208.07680233630703
20
38.567621844651036
42
-0.41421356237309892
10
209.07680233630691
20
37.567621844651114
10
209.07680233630711
20
25.567621844652415
42
-0.41421356237308332
10
208.07680233630703
20
24.567621844652379
10
196.07680233630703
20
24.567621844652436
42
-0.41421356237310542
10
195.07680233630703
20
25.567621844652415
10
195.07680233630708
20
37.567621844651015
42
-0.41421356237309892
0
LWPOLYLINE
5
174
100
AcDbEntity
8
0
100
AcDbPolyline
90
8
70
1
43
0.0
10
490.35180233630706
20
99.48012184465712
42
-0.41421356237309503
10
491.35180233630706
20
100.48012184465713
10
503.35180233630706
20
100.48012184465718
42
-0.4142135623730846
10
504.35180233630706
20
99.48012184465712
10
504.35180233630706
20
87.48012184465702
42
-0.41421356237315227
10
503.351802336307
20
86.480121844656978
10
491.35180233630706
20
86.480121844657006
42
-0.41421356237309503
10
490.35180233630706
20
87.48012184465702
0
LWPOLYLINE
5
175
100
AcDbEntity
8
0
100
AcDbPolyline
90
8
70
1
43
0.0
10
471.30180233630705
20
99.48012184465702
42
-0.41421356237310542
10
472.30180233630705
20
100.48012184465706
10
484.30180233630711
20
100.48012184465718
42
-0.4142135623730846
10
485.30180233630699
20
99.48012184465712
10
485.30180233630699
20
87.480121844657106
42
-0.41421356237310542
10
484.30180233630699
20
86.48012184465702
10
472.30180233630705
20
86.480121844657006
42
-0.41421356237309503
10
471.30180233630705
20
87.48012184465702
0
LWPOLYLINE
5
176
100
AcDbEntity
8
0
100
AcDbPolyline
90
8
70
1
43
0.0
10
452.25180233630704
20
99.480121844656935
42
-0.41421356237310542
10
453.25180233630704
20
100.48012184465698
10
465.25180233630704
20
100.48012184465718
42
-0.4142135623730846
10
466.25180233630704
20
99.48012184465712
10
466.25180233630738
20
87.480121844657106
42
-0.41421356237312101
10
465.25180233630698
20
86.480121844656821
10
453.25180233630704
20
86.480121844656821
42
-0.41421356237309503
10
452.25180233630704
20
87.480121844656821
0
LWPOLYLINE
5
177
100
AcDbEntity
8
0
100
AcDbPolyline
90
8
70
1
43
0.0
10
433.20180233630686
20
99.480121844656708
42
-0.41421356237304302
10
434.20180233630703
20
100.48012184465684
10
446.20180233630708
20
100.48012184465713
42
-0.41421356237309503
10
447.20180233630708
20
99.48012184465712
10
447.20180233630731
20
87.480121844657106
42
-0.41421356237310025
10
446.20180233630708
20
86.480121844656864
10
434.20180233630703
20
86.480121844656765
42
-0.41421356237309503
10
433.20180233630708
20
87.480121844656708
0
LWPOLYLINE
5
178
100
AcDbEntity
8
0
100
AcDbPolyline
90
8
70
1
43
0.0
10
414.15180233630781
20
99.480121844656708
42
-0.41421356237307422
10
415.15180233630804
20
100.48012184465688
10
427.15180233630701
20
100.48012184465713
42
-0.41421356237309503
10
428.15180233630707
20
99.48012184465712
10
428.15180233630736
20
87.480121844657134
42
-0.41421356237311585
10
427.15180233630701
20
86.480121844656779
10
415.15180233630701
20
86.480121844656566
42
-0.41421356237309503
10
414.15180233630707
20
87.480121844656509
0
LWPOLYLINE
5
179
100
AcDbEntity
8
0
100
AcDbPolyline
90
8
70
1
43
0.0
10
395.10180233630791
20
99.480121844656523
42
-0.4142135623730534
10
396.10180233630808
20
100.48012184465668
10
408.10180233630706
20
100.48012184465713
42
-0.41421356237309503
10
409.10180233630706
20
99.48012184465712
10
409.10180233630746
20
87.480121844657219
42
-0.41421356237311585
10
408.10180233630706
20
86.480121844656722
10
396.101802336307
20
86.480121844656452
42
-0.41421356237309503
10
395.10180233630706
20
87.480121844656395
0
LWPOLYLINE
5
180
100
AcDbEntity
8
0
100
AcDbPolyline
90
8
70
1
43
0.0
10
376.05180233630784
20
99.480121844656409
42
-0.41421356237310025
10
377.05180233630807
20
100.48012184465664
10
389.05180233630699
20
100.48012184465713
42
-0.41421356237309503
10
390.05180233630705
20
99.48012184465712
10
390.05180233630767
20
87.480121844657219
42
-0.41421356237311063
10
389.05180233630699
20
86.480121844656679
10
377.05180233630699
20
86.480121844656296
42
-0.41421356237309503
10
376.05180233630699
20
87.48012184465631
0
LWPOLYLINE
5
181
100
AcDbEntity
8
0
100
AcDbPolyline
90
8
70
1
43
0.0
10
357.00180233630783
20
99.480121844656324
42
-0.41421356237310542
10
358.00180233630806
20
100.48012184465657
10
370.00180233630704
20
100.48012184465713
42
-0.41421356237309503
10
371.00180233630704
20
99.48012184465712
10
371.00180233630863
20
87.480121844657219
42
-0.41421356237312623
10
370.001802336308
20
86.480121844656566
10
358.00180233630698
20
86.480121844656196
42
-0.41421356237309503
10
357.00180233630698
20
87.48012184465621
0
LWPOLYLINE
5
182
100
AcDbEntity
8
0
100
AcDbPolyline
90
8
70
1
43
0.0
10
337.95180233630782
20
99.480121844656239
42
-0.41421356237310542
10
338.95180233630805
20
100.48012184465648
10
350.95180233630714
20
100.48012184465699
42
-0.4142135623730846
10
351.95180233630703
20
99.48012184465702
10
351.95180233630884
20
87.480121844657333
42
-0.41421356237312623
10
350.95180233630799
20
86.48012184465648
10
338.95180233630697
20
86.480121844655969
42
-0.4142135623730846
10
337.95180233630703
20
87.480121844656011
0
LWPOLYLINE
5
183
100
AcDbEntity
8
0
100
AcDbPolyline
90
8
70
1
43
0.0
10
318.90180233630696
20
99.480121844655912
42
-0.41421356237308982
10
319.90180233630701
20
100.48012184465597
10
331.90180233630906
20
100.48012184465698
42
-0.41421356237319906
10
332.90180233631105
20
99.480121844654619
10
332.9018023363094
20
87.480121844654718
42
-0.41421356237297535
10
331.90180233631003
20
86.48012184465577
10
319.90180233630701
20
86.480121844655827
42
-0.41421356237307944
10
318.90180233630701
20
87.480121844655812
0
LWPOLYLINE
5
184
100
AcDbEntity
8
0
100
AcDbPolyline
90
8
70
1
43
0.0
10
228.12680233630701
20
106.53012184465693
42
-0.41421356237305862
10
227.12680233630704
20
105.53012184465692
10
215.12680233630704
20
105.53012184465679
42
-0.41421356237307944
10
214.12680233630687
20
106.53012184465693
10
214.12680233630704
20
118.53012184465192
42
-0.41421356237308982
10
215.12680233630704
20
119.53012184465189
10
227.12680233630704
20
119.53012184465211
42
-0.41421356237304818
10
228.12680233630721
20
118.53012184465192
0
LWPOLYLINE
5
185
100
AcDbEntity
8
0
100
AcDbPolyline
90
8
70
1
43
0.0
10
310.37680233630698
20
119.53012184465192
10
322.37680233630698
20
119.53012184465221
42
-0.41421356237309503
10
323.37680233630726
20
118.53012184465192
10
323.37680233630806
20
106.53012184465793
42
-0.41421356237308982
10
322.37680233630698
20
105.53012184465686
10
310.37680233630698
20
105.53012184465669
42
-0.41421356237304818
10
309.37680233630675
20
106.53012184465693
10
309.37680233630704
20
118.53012184465192
42
-0.41421356237305862
0
LWPOLYLINE
5
186
100
AcDbEntity
8
0
100
AcDbPolyline
90
8
70
1
43
0.0
10
329.42680233630705
20
119.53012184465192
10
341.42680233630699
20
119.53012184465214
42
-0.41421356237309503
10
342.42680233630722
20
118.53012184465192
10
342.42680233630807
20
106.53012184465793
42
-0.41421356237308982
10
341.42680233630699
20
105.53012184465686
10
329.42680233630705
20
105.53012184465658
42
-0.41421356237315227
10
328.42680233630676
20
106.53012184465693
10
328.42680233630711
20
118.53012184465192
42
-0.41421356237315227
0
LWPOLYLINE
5
187
100
AcDbEntity
8
0
100
AcDbPolyline
90
8
70
1
43
0.0
10
348.47680233630706
20
119.53012184465192
10
360.476802336307
20
119.5301218446522
42
-0.41421356237315227
10
361.47680233630723
20
118.53012184465192
10
361.47680233630808
20
106.53012184465793
42
-0.41421356237308982
10
360.476802336307
20
105.53012184465686
10
348.47680233630706
20
105.53012184465658
42
-0.41421356237315227
10
347.47680233630672
20
106.53012184465693
10
347.47680233630712
20
118.53012184465192
42
-0.41421356237310542
0
LWPOLYLINE
5
188
100
AcDbEntity
8
0
100
AcDbPolyline
90
8
70
1
43
0.0
10
367.52680233630707
20
119.53012184465192
10
379.52680233630701
20
119.5301218446522
42
-0.41421356237315227
10
380.52680233630724
20
118.53012184465192
10
380.52680233630809
20
106.53012184465793
42
-0.41421356237308982
10
379.52680233630701
20
105.53012184465686
10
367.52680233630707
20
105.53012184465658
42
-0.41421356237315227
10
366.52680233630679
20
106.53012184465693
10
366.52680233630701
20
118.53012184465192
42
-0.41421356237312101
0
LWPOLYLINE
5
189
100
AcDbEntity
8
0
100
AcDbPolyline
90
8
70
1
43
0.0
10
386.57680233630708
20
119.53012184465193
10
398.57680233630703
20
119.5301218446522
42
-0.41421356237315227
10
399.57680233630725
20
118.53012184465192
10
399.57680233630811
20
106.53012184465693
42
-0.41421356237276724
10
398.57680233630703
20
105.53012184465686
10
386.57680233630708
20
105.53012184465658
42
-0.41421356237315227
10
385.57680233630674
20
106.53012184465693
10
385.57680233630697
20
118.53012184465192
42
-0.41421356237312101
0
LWPOLYLINE
5
190
100
AcDbEntity
8
0
100
AcDbPolyline
90
8
70
1
43
0.0
10
405.62680233630704
20
119.53012184465193
10
417.62680233630704
20
119.53012184465211
42
-0.41421356237315227
10
418.62680233630721
20
118.53012184465192
10
418.62680233630715
20
106.53012184465693
42
-0.41421356237309503
10
417.62680233630704
20
105.53012184465686
10
405.62680233630704
20
105.53012184465658
42
-0.41421356237315227
10
404.6268023363067
20
106.53012184465693
10
404.62680233630698
20
118.53012184465192
42
-0.41421356237310025
0
LWPOLYLINE
5
191
100
AcDbEntity
8
0
100
AcDbPolyline
90
8
70
1
43
0.0
10
424.67680233630699
20
119.53012184465193
10
436.67680233630705
20
119.53012184465211
42
-0.41421356237315227
10
437.67680233630722
20
118.53012184465192
10
437.67680233630711
20
106.53012184465693
42
-0.41421356237309503
10
436.67680233630705
20
105.53012184465686
10
424.67680233630699
20
105.53012184465658
42
-0.41421356237315227
10
423.67680233630671
20
106.53012184465693
10
423.67680233630699
20
118.53012184465192
42
-0.41421356237310025
0
LWPOLYLINE
5
192
100
AcDbEntity
8
0
100
AcDbPolyline
90
8
70
1
43
0.0
10
443.72680233630706
20
119.53012184465193
10
455.72680233630706
20
119.53012184465211
42
-0.41421356237315227
10
456.72680233630723
20
118.53012184465192
10
456.72680233630717
20
106.53012184465693
42
-0.41421356237308982
10
455.72680233630706
20
105.53012184465686
10
443.72680233630706
20
105.53012184465658
42
-0.41421356237315227
10
442.72680233630672
20
106.53012184465693
10
442.726802336307
20
118.53012184465192
42
-0.41421356237310025
0
LWPOLYLINE
5
193
100
AcDbEntity
8
0
100
AcDbPolyline
90
8
70
1
43
0.0
10
462.77680233630701
20
119.53012184465193
10
474.77680233630707
20
119.53012184465211
42
-0.41421356237315227
10
475.77680233630724
20
118.53012184465192
10
475.77680233630713
20
106.53012184465693
42
-0.41421356237308982
10
474.77680233630707
20
105.53012184465686
10
462.77680233630701
20
105.53012184465658
42
-0.41421356237315227
10
461.77680233630673
20
106.53012184465693
10
461.77680233630701
20
118.53012184465192
42
-0.41421356237310025
0
LWPOLYLINE
5
194
100
AcDbEntity
8
0
100
AcDbPolyline
90
8
70
1
43
0.0
10
494.82680233630708
20
106.53012184465693
42
-0.41421356237310542
10
493.82680233630708
20
105.53012184465688
10
481.82680233630708
20
105.53012184465658
42
-0.41421356237315227
10
480.82680233630674
20
106.53012184465693
10
480.82680233630703
20
118.53012184465192
42
-0.41421356237310025
10
481.82680233630708
20
119.53012184465193
10
493.82680233630708
20
119.53012184465211
42
-0.41421356237315227
10
494.82680233630725
20
118.53012184465192
0
LWPOLYLINE
5
195
100
AcDbEntity
8
0
100
AcDbPolyline
90
36
70
1
43
0.0
10
257.24890274631309
20
62.679466492731009
42
-0.40494331022301372
10
256.95842735463498
20
62.379617727790553
42
0.40494331022228319
10
255.99017604904401
20
61.380121844655818
10
255.99017604904404
20
49.380121844656216
42
0.40494331022228347
10
256.95842735463498
20
48.380625961521382
42
-0.40494331022301622
10
257.24890274631309
20
48.080777196580925
10
257.24890274631298
20
47.41812181950921
42
0.41421356237310542
10
258.24890274631298
20
46.418121819509238
10
263.903702746313
20
46.418121819509217
42
0.41421356237310542
10
264.903702746313
20
47.41812181950921
10
264.903702746313
20
48.080121844655316
42
-0.41421356237309503
10
265.20370274631307
20
48.380121844655307
10
281.824901881676
20
48.380121844656323
42
-0.41421356237309503
10
282.12490188167601
20
48.080121844656311
10
282.12490188167601
20
47.41812181950921
42
0.41421356237310542
10
283.12490188167601
20
46.418121819509238
10
288.77970188167598
20
46.418121819509217
42
0.41421356237307422
10
289.77970188167598
20
47.41812181950921
10
289.77970188167603
20
48.080777196580925
42
-0.4049433102220138
10
290.07017727335301
20
48.380625961521346
42
0.40494331022258417
10
291.03842857894506
20
49.380121844656216
10
291.038428578945
20
61.380121844655818
42
0.40494331022258317
10
290.07017727335301
20
62.379617727790588
42
-0.40494331022201407
10
289.77970188167598
20
62.679466492731009
10
289.77970188167598
20
63.342121869793615
42
0.41421356237308721
10
288.77970188167598
20
64.342121869793601
10
283.12490188167601
20
64.342121869792308
42
0.41421356237310542
10
282.12490188167601
20
63.342121869793516
10
282.12490188167601
20
62.680121844650515
42
-0.41421356237309503
10
281.824901881676
20
62.380121844650525
10
265.20370274631307
20
62.380121844650404
42
-0.41421356237309503
10
264.903702746313
20
62.680121844650415
10
264.903702746313
20
63.342121869793516
42
0.41421356237310542
10
263.903702746313
20
64.342121869793502
10
258.24890274631298
20
64.342121869792308
42
0.41421356237310542
10
257.24890274631298
20
63.342121869793516
0
LWPOLYLINE
5
196
100
AcDbEntity
8
0
100
AcDbPolyline
90
8
70
1
43
0.0
10
405.03617733630705
20
23.06762184465164
10
409.03617733630705
20
23.067621844651626
42
-0.41421356237309503
10
410.03617733630705
20
22.067621844651612
10
410.03617733630705
20
21.067621844651612
42
-0.41421356237309503
10
409.03617733630705
20
20.067621844651605
10
405.03617733630705
20
20.067621844651597
42
-0.41421356237312495
10
404.03617733630705
20
21.067621844651715
10
404.03617733630711
20
22.067621844651711
42
-0.41421356237309503
0
LWPOLYLINE
5
197
100
AcDbEntity
8
0
100
AcDbPolyline
90
8
70
1
43
0.0
10
497.18930233630692
20
21.067621844650716
10
497.18930233630687
20
22.06762184465061
42
-0.41421356237309503
10
498.18930233630692
20
23.067621844650667
10
502.18930233630692
20
23.067621844650624
42
-0.41421356237312362
10
503.18930233630692
20
22.06762184465051
10
503.18930233630692
20
21.067621844650613
42
-0.41421356237309503
10
502.18930233630692
20
20.067621844650581
10
498.18930233630692
20
20.067621844650599
42
-0.41421356237312495
0
LWPOLYLINE
5
198
100
AcDbEntity
8
0
100
AcDbPolyline
90
8
70
1
43
0.0
10
323.72992733630701
20
23.067621844652759
10
327.72992733630701
20
23.067621844652724
42
-0.41421356237309503
10
328.72992733630701
20
22.067621844652709
10
328.72992733630696
20
21.06762184465261
42
-0.41421356237309503
10
327.72992733630701
20
20.067621844652667
10
323.72992733630713
20
20.067621844652695
42
-0.41421356237312623
10
322.72992733630701
20
21.067621844652816
10
322.72992733630701
20
22.067621844652709
42
-0.41421356237309503
0
LWPOLYLINE
5
199
100
AcDbEntity
8
0
100
AcDbPolyline
90
8
70
1
43
0.0
10
502.18930233630704
20
142.08012184465193
10
502.18930233630704
20
141.08012184465193
42
-0.41421356237309503
10
501.18930233630698
20
140.08012184465193
10
497.18930233630704
20
140.08012184465193
42
-0.41421356237309503
10
496.18930233630698
20
141.08012184465193
10
496.18930233630698
20
142.08012184465193
42
-0.41421356237309503
10
497.18930233630704
20
143.08012184465193
10
501.18930233630698
20
143.08012184465196
42
-0.41421356237309503
0
LWPOLYLINE
5
200
100
AcDbEntity
8
0
100
AcDbPolyline
90
12
70
1
43
0.0
10
361.883052336307
20
20.0676218446512
42
-0.41421356237309503
10
363.383052336307
20
18.567621844651214
10
363.383052336307
20
17.573871844652217
42
0.41421356237306084
10
364.88305233630695
20
16.073871844652192
10
367.883052336307
20
16.073871844652114
42
0.41421356237307511
10
369.383052336307
20
17.573871844652217
10
369.383052336307
20
18.567621844651015
42
-0.41421356237309503
10
370.883052336307
20
20.067621844651015
10
396.03617733630699
20
20.067621844650837
42
0.99999999999999989
10
396.03617733630699
20
22.067621844650915
10
336.72992733630701
20
22.067621844651399
42
0.99999999999999989
10
336.72992733630684
20
20.067621844651416
0
LWPOLYLINE
5
201
100
AcDbEntity
8
0
100
AcDbPolyline
90
4
70
1
43
0.0
10
453.68930233630687
20
145.08012184465193
42
-0.99999999999999989
10
453.68930233630698
20
147.08012184465196
10
522.68930233630715
20
147.08012184465196
42
-0.99999999999999989
10
522.68930233630704
20
145.08012184465193
0
LWPOLYLINE
5
202
100
AcDbEntity
8
0
100
AcDbPolyline
90
8
70
1
43
0.0
10
196.07680233630703
20
62.380121844652081
10
208.07680233630703
20
62.380121844652365
42
-0.41421356237309764
10
209.07680233630697
20
61.380121844652408
10
209.07680233630543
20
49.380121844656614
42
-0.41421356237307422
10
208.07680233630703
20
48.380121844658206
10
196.07680233630703
20
48.380121844657026
42
-0.41421356237310802
10
195.07680233630703
20
49.380121844657012
10
195.07680233630714
20
61.380121844652216
42
-0.41421356237307161
0
LWPOLYLINE
5
203
100
AcDbEntity
8
0
100
AcDbPolyline
90
8
70
1
43
0.0
10
196.07680233630703
20
81.430121844652191
10
208.07680233630697
20
81.43012184465222
42
-0.41421356237305862
10
209.076802336307
20
80.430121844652234
10
209.07680233630714
20
68.430121844652319
42
-0.41421356237309764
10
208.07680233630703
20
67.430121844652177
10
196.07680233630703
20
67.430121844652135
42
-0.41421356237310802
10
195.07680233630703
20
68.43012184465212
10
195.07680233630703
20
80.430121844652234
42
-0.41421356237307944
0
LWPOLYLINE
5
204
100
AcDbEntity
8
0
100
AcDbPolyline
90
8
70
1
43
0.0
10
196.07680233630703
20
138.58012184465235
10
208.07680233630697
20
138.58012184465196
42
-0.41421356237305862
10
209.07680233630703
20
137.58012184465193
10
209.076802336307
20
125.58012184465191
42
-0.41421356237305862
10
208.07680233630703
20
124.58012184465191
10
196.07680233630703
20
124.58012184465191
42
-0.41421356237307944
10
195.07680233630703
20
125.58012184465191
10
195.07680233630657
20
137.58012184465193
42
-0.41421356237308982
0
LWPOLYLINE
5
205
100
AcDbEntity
8
0
100
AcDbPolyline
90
4
70
1
43
0.0
10
210.07680233630703
20
147.08012184465173
10
279.07680233630703
20
147.08012184465196
42
-0.99999999999999989
10
279.07680233630703
20
145.08012184465193
10
210.07680233630703
20
145.08012184465215
42
-0.99999999999999989
0
LWPOLYLINE
5
206
100
AcDbEntity
8
0
100
AcDbPolyline
90
4
70
1
43
0.0
10
488.18930233630704
20
143.08012184465193
10
418.03617733630699
20
143.08012184465187
42
0.99999999999999989
10
418.03617733630699
20
141.08012184465193
10
488.18930233630704
20
141.08012184465193
42
0.99999999999999989
0
LWPOLYLINE
5
207
100
AcDbEntity
8
0
100
AcDbPolyline
90
8
70
1
43
0.0
10
410.03617733630705
20
141.08012184465193
42
-0.41421356237309503
10
409.03617733630705
20
140.0801218446519
10
405.03617733630705
20
140.08012184465193
42
-0.41421356237309503
10
404.03617733630705
20
141.08012184465193
10
404.03617733630705
20
142.08012184465193
42
-0.41421356237309503
10
405.03617733630705
20
143.08012184465193
10
409.03617733630705
20
143.08012184465096
42
-0.41421356237338641
10
410.03617733630705
20
142.08012184465193
0
LWPOLYLINE
5
208
100
AcDbEntity
8
0
100
AcDbPolyline
90
8
70
1
43
0.0
10
323.72992733630701
20
140.08012184465193
42
-0.41421356237309503
10
322.72992733630701
20
141.08012184465193
10
322.72992733630701
20
142.08012184465193
42
-0.41421356237309503
10
323.72992733630701
20
143.08012184465193
10
327.72992733630701
20
143.08012184465196
42
-0.41421356237309503
10
328.72992733630701
20
142.08012184465193
10
328.72992733630701
20
141.08012184465193
42
-0.41421356237309503
10
327.72992733630701
20
140.08012184465193
0
LWPOLYLINE
5
209
100
AcDbEntity
8
0
100
AcDbPolyline
90
8
70
1
43
0.0
10
228.576802336307
20
140.0801218446519
42
-0.41421356237309503
10
227.57680233630694
20
141.08012184465193
10
227.57680233630703
20
142.08012184465193
42
-0.41421356237309503
10
228.576802336307
20
143.08012184465193
10
232.57680233630697
20
143.08012184465196
42
-0.41421356237309503
10
233.576802336307
20
142.08012184465193
10
233.576802336307
20
141.08012184465193
42
-0.41421356237309503
10
232.57680233630697
20
140.08012184465193
0
LWPOLYLINE
5
210
100
AcDbEntity
8
0
100
AcDbPolyline
90
32
70
1
43
0.0
10
296.23718164098398
20
103.56812181950991
10
290.28238164098406
20
103.56812181951092
42
-0.41421356237305862
10
289.282381640984
20
104.56812181951092
10
289.282381640984
20
105.23012184465692
42
0.41421356237309503
10
288.98238164098404
20
105.53012184465751
10
272.361182505621
20
105.53012184465693
42
0.41421356237309503
10
272.06118250562099
20
105.23012184465692
10
272.06118250562201
20
104.56812181951092
42
-0.41421356237305862
10
271.06118250562099
20
103.56812181950991
10
265.40638250562102
20
103.56812181951092
42
-0.41421356237307944
10
264.40638250562102
20
104.56812181951092
10
264.40638250562102
20
105.23012184465692
42
0.41421356237309503
10
264.10638250562101
20
105.5301218446576
10
256.98930233894498
20
105.53012184465697
42
-0.41421356237308982
10
255.98930233894504
20
106.53012184465693
10
255.98930233895001
20
118.53012184465692
42
-0.41421356237308982
10
256.98930233894498
20
119.53012184465192
10
264.10638250562101
20
119.5301218446569
42
0.41421356237309503
10
264.40638250562102
20
119.83012184465692
10
264.40638250562006
20
120.49212186979291
42
-0.41421356237308982
10
265.40638250562102
20
121.49212186979392
10
271.06118250562099
20
121.49212186979291
42
-0.41421356237304818
10
272.06118250562099
20
120.49212186979291
10
272.06118250562099
20
119.83012184465193
42
0.41421356237309503
10
272.361182505621
20
119.53012184465192
10
288.98238164098404
20
119.53012184465192
42
0.41421356237309503
10
289.28238164098406
20
119.83012184465193
10
289.28238164098303
20
120.49212186979291
42
-0.41421356237305862
10
290.282381640984
20
121.49212186979392
10
296.23718164098398
20
121.49212186979298
42
-0.41421356237308982
10
297.23718164098398
20
120.49212186979291
10
297.237181640985
20
104.56812181951092
42
-0.41421356237308982
0
LWPOLYLINE
5
211
100
AcDbEntity
8
0
100
AcDbPolyline
90
39
70
1
43
0.0
10
292.667181772486
20
100.48012184465696
42
-0.41421356237309503
10
292.16718177248606
20
100.98012184465694
10
292.167181772486
20
101.44212186979493
42
0.41421356237307944
10
291.16718177248606
20
102.44212186979493
10
285.51238177248598
20
102.44212186979493
42
0.41421356237308982
10
284.51238177248598
20
101.44212186979493
10
284.51238177248604
20
100.78012184465692
42
-0.41421356237309503
10
284.21238177248603
20
100.48012184465691
10
267.59118263712298
20
100.48012184465691
42
-0.41421356237309503
10
267.29118263712297
20
100.78012184465692
10
267.29118263712297
20
101.44212186979493
42
0.41421356237307944
10
266.29118263712303
20
102.44212186979493
10
260.37068029826003
20
102.44212186979493
42
0.41421356237308982
10
259.37068029826003
20
101.44212186979493
10
259.37068029826298
20
69.51501524502531
42
0.41421356237304563
10
260.37068029826298
20
68.515015245025396
10
261.13311978214898
20
68.515015245025509
42
-0.30412134600310942
10
261.82684087678814
20
68.050060930579036
42
0.30412134600314317
10
262.75180233630698
20
67.430121844650458
10
274.75180233630698
20
67.430121844650415
42
0.41421356237307422
10
275.75180233630698
20
68.43012184465222
10
275.75180233630698
20
80.680146258725102
42
0.41421356237310197
10
275.00180233630704
20
81.430146258725117
10
274.12054623281
20
81.430146258725031
42
-0.41421356237309503
10
273.37054623281
20
82.180146258725017
10
273.37054623281
20
85.480146258726108
42
-0.41216838217417362
10
274.36355856211799
20
86.480121844657347
10
284.219881640984
20
86.48012184465631
42
-0.41421356237309503
10
284.51988164098401
20
86.180121844656298
10
284.51988164098401
20
85.518121819520815
42
0.41421356237307944
10
285.51988164098401
20
84.518121819520815
10
291.167181772486
20
84.518121819520815
42
0.41421356237308982
10
292.167181772486
20
85.518121819520815
10
292.167181772486
20
85.980121844657717
42
-0.41421356237309503
10
292.667181772486
20
86.480121844657717
10
293.80180233630801
20
86.480121844657788
42
0.41421356237309503
10
294.80180233630767
20
87.480121844657418
10
294.80180233630699
20
99.48012184465702
42
0.41421356237304818
10
293.80180233630705
20
100.48012184465705
0
LWPOLYLINE
5
212
100
AcDbEntity
8
0
100
AcDbPolyline
90
8
70
1
43
0.0
10
246.17680233630699
20
105.53012184465217
10
234.17680233630702
20
105.53012184465224
42
-0.41421356237307422
10
233.17680233630705
20
106.53012184465223
10
233.17680233630696
20
118.53012184465213
42
-0.41421356237307944
10
234.17680233630702
20
119.53012184465221
10
246.17680233630699
20
119.53012184465217
42
-0.41421356237309503
10
247.17680233630693
20
118.53012184465223
10
247.17680233630693
20
106.53012184465211
42
-0.41421356237309503
0
LWPOLYLINE
5
213
100
AcDbEntity
8
0
100
AcDbPolyline
90
8
70
1
43
0.0
10
246.17680233630699
20
86.48012184465216
10
234.17680233630702
20
86.480121844652231
42
-0.41421356237307422
10
233.17680233630705
20
87.480121844652217
10
233.17680233630696
20
99.480121844652118
42
-0.41421356237307944
10
234.17680233630702
20
100.4801218446522
10
246.17680233630699
20
100.4801218446522
42
-0.41421356237309503
10
247.17680233630699
20
99.480121844652217
10
247.17680233630693
20
87.480121844652103
42
-0.41421356237309503
0
LWPOLYLINE
5
214
100
AcDbEntity
8
0
100
AcDbPolyline
90
8
70
1
43
0.0
10
208.07680233630703
20
105.53012184465238
10
196.07680233630703
20
105.53012184465214
42
-0.41421356237310542
10
195.07680233630703
20
106.53012184465211
10
195.07680233630694
20
118.53012184465223
42
-0.41421356237307422
10
196.07680233630703
20
119.5301218446523
10
208.07680233630703
20
119.53012184465229
42
-0.41421356237309503
10
209.07680233630708
20
118.53012184465223
10
209.07680233630697
20
106.53012184465233
42
-0.41421356237309503
0
LWPOLYLINE
5
215
100
AcDbEntity
8
0
100
AcDbPolyline
90
8
70
1
43
0.0
10
227.12680233630704
20
86.480121844652231
10
215.12680233630704
20
86.480121844652132
42
-0.41421356237310542
10
214.12680233630704
20
87.480121844652103
10
214.12680233630704
20
99.480121844652217
42
-0.41421356237307422
10
215.12680233630704
20
100.48012184465222
10
227.12680233630704
20
100.48012184465227
42
-0.41421356237307422
10
228.12680233630709
20
99.480121844652217
10
228.12680233630692
20
87.480121844652103
42
-0.41421356237310542
0
LWPOLYLINE
5
216
100
AcDbEntity
8
0
100
AcDbPolyline
90
4
70
1
43
0.0
10
238.576802336307
20
143.08012184465193
10
314.72992733630701
20
143.08012184465193
42
-0.99999999999999989
10
314.72992733630701
20
141.08012184465193
10
238.576802336307
20
141.08012184465193
42
-0.99999999999999989
0
LWPOLYLINE
5
217
100
AcDbEntity
8
0
100
AcDbPolyline
90
48
70
1
43
0.0
10
448.14469555512039
20
102.23012184465696
42
-0.19891236737962545
10
448.49824894571361
20
102.08367523525028
10
448.80535572690019
20
101.77656845406362
42
-0.19891236737965154
10
448.95180233630691
20
101.42301506347039
10
448.95180233630703
20
84.787228625838623
42
0.19891236738003312
10
449.09824894571375
20
84.43367523524536
10
450.20535572690022
20
83.326568454058815
42
0.19891236737969495
10
450.5589091174935
20
83.180121844652106
10
452.90719555512032
20
83.180121844652149
42
-0.19891236737966458
10
453.26074894571366
20
83.033675235245411
10
453.56785572690023
20
82.72656845405885
42
-0.19891236737965801
10
453.71430233630696
20
82.373015063465544
10
453.7143023363069
20
65.737228625838583
42
0.19891236737983542
10
453.86074894571368
20
65.38367523524532
10
454.96785572690021
20
64.276568454058761
42
0.19891236737964166
10
455.32140911749354
20
64.130121844652052
10
462.43219555512036
20
64.13012184465218
42
-0.1989123673796678
10
462.78574894571364
20
63.983675235245443
10
463.09285572690021
20
63.676568454058852
42
-0.19891236737965801
10
463.23930233630699
20
63.323015063465547
10
463.23930233630699
20
53.130121844656628
42
0.41421356237310897
10
463.98930233630711
20
52.380121844656635
10
464.03930233630712
20
52.380121844656671
42
0.41421356237298751
10
464.78930233630706
20
53.130121844656635
10
464.78930233630712
20
64.07301506346576
42
0.1989123673798969
10
464.64285572690039
20
64.426568454059094
10
463.53574894571381
20
65.533675235245582
42
0.19891236737971454
10
463.18219555512053
20
65.680121844652291
10
456.07140911749366
20
65.680121844652291
42
-0.19891236737966123
10
455.71785572690038
20
65.826568454059014
10
455.41074894571375
20
66.133675235245605
42
-0.1989123673796678
10
455.26430233630697
20
66.487228625838924
10
455.26430233630708
20
83.123015063465715
42
0.19891236737984608
10
455.11785572690036
20
83.476568454058992
10
454.01074894571377
20
84.583675235245508
42
0.19891236737967538
10
453.6571955551205
20
84.730121844652217
10
451.30890911749356
20
84.73012184465226
42
-0.19891236737967105
10
450.95535572690028
20
84.876568454058997
10
450.6482489457137
20
85.18367523524563
42
-0.19891236737966447
10
450.50180233630698
20
85.537228625838893
10
450.50180233630704
20
102.17301506347061
42
0.19891236737983414
10
450.35535572690037
20
102.52656845406386
10
449.24824894571378
20
103.63367523525044
42
0.19891236737966456
10
448.89469555512051
20
103.78012184465717
10
441.17680233630699
20
103.78012184465717
42
0.4142135623730257
10
440.42680233630699
20
103.03012184465717
10
440.42680233630699
20
102.98012184465706
42
0.41421356237299095
10
441.17680233630699
20
102.23012184465702
0
LWPOLYLINE
5
218
100
AcDbEntity
8
0
100
AcDbPolyline
90
8
70
1
43
0.0
10
471.30180233630705
20
124.58012184465191
10
487.68178233630698
20
124.58012184465197
42
0.41421356237307422
10
488.68178233630709
20
125.58012184465191
10
488.68178233630704
20
137.58012184465193
42
0.41421356237307422
10
487.68178233630698
20
138.58012184465187
10
471.30180233630705
20
138.58012184465193
42
0.41421356237307422
10
470.30180233630693
20
137.58012184465193
10
470.30180233630699
20
125.58012184465191
42
0.41421356237307944
0
LWPOLYLINE
5
219
100
AcDbEntity
8
0
100
AcDbPolyline
90
8
70
1
43
0.0
10
446.88555207330302
20
139.28012184465692
10
446.88555207330302
20
123.58012184465193
42
-0.41421356237309503
10
445.88555207330302
20
122.58012184465193
10
442.88555207330307
20
122.5801218446519
42
-0.41421356237309503
10
441.88555207330302
20
123.58012184465193
10
441.88555207330302
20
139.28012184465692
42
-0.41421356237309503
10
442.88555207330307
20
140.28012184465692
10
445.88555207330302
20
140.28012184465692
42
-0.41421356237309503
0
LWPOLYLINE
5
220
100
AcDbEntity
8
0
100
AcDbPolyline
90
8
70
1
43
0.0
10
464.88555207330307
20
139.28012184465692
10
464.88555207330302
20
123.58012184465193
42
-0.41421356237310542
10
463.88555207330307
20
122.58012184465193
10
449.88555207330307
20
122.5801218446519
42
-0.41421356237309503
10
448.88555207330307
20
123.58012184465193
10
448.88555207330307
20
139.28012184465692
42
-0.41421356237309503
10
449.88555207330307
20
140.28012184465692
10
463.88555207330313
20
140.28012184465697
42
-0.4142135623730846
0
LWPOLYLINE
5
221
100
AcDbEntity
8
0
100
AcDbPolyline
90
8
70
1
43
0.0
10
417.269682336306
20
125.57964184480392
10
417.269682336306
20
137.5796418446489
42
0.4142135623730222
10
416.26968233630606
20
138.57964184464896
10
390.33930233630707
20
138.5796418446489
42
0.41421356237309503
10
389.33930233630701
20
137.5796418446489
10
389.33930233630701
20
125.57964184480392
42
0.41421356237307422
10
390.33930233630707
20
124.57964184480397
10
416.26968233630606
20
124.57964184480392
42
0.4142135623730222
0
LWPOLYLINE
5
222
100
AcDbEntity
8
0
100
AcDbPolyline
90
8
70
1
43
0.0
10
324.37680233630704
20
125.58012184465191
10
324.37680233630704
20
137.58012184465193
42
0.41421356237307422
10
323.37680233630698
20
138.58012184465187
10
304.61430233630699
20
138.58012184465196
42
0.41421356237308982
10
303.61430233630699
20
137.58012184465193
10
303.61430233630699
20
125.58012184465191
42
0.41421356237310542
10
304.61430233630699
20
124.58012184465193
10
323.37680233630698
20
124.58012184465191
42
0.41421356237307944
0
LWPOLYLINE
5
223
100
AcDbEntity
8
0
100
AcDbPolyline
90
8
70
1
43
0.0
10
420.29555233630697
20
127.580121844652
10
420.29555233630708
20
135.58012184465187
42
-0.41421356237305862
10
421.29555233630708
20
136.5801218446519
10
437.67553233630701
20
136.58012184465193
42
-0.41421356237313145
10
438.67553233630701
20
135.58012184465193
10
438.67553233630701
20
127.580121844652
42
-0.4142135623730846
10
437.6755323363069
20
126.58012184465191
10
421.29555233630703
20
126.5801218446519
42
-0.41421356237305862
0
LWPOLYLINE
5
224
100
AcDbEntity
8
0
100
AcDbPolyline
90
8
70
1
43
0.0
10
367.93345233630617
20
127.58012184465193
10
367.93345233630617
20
135.58012184465179
42
-0.41421356237305862
10
368.93345233630623
20
136.58012184465193
10
385.31343233630616
20
136.58012184465196
42
-0.41421356237313667
10
386.31343233630622
20
135.58012184465187
10
386.31343233630616
20
127.58012184465196
42
-0.41421356237308982
10
385.31343233630605
20
126.58012184465191
10
368.93345233630617
20
126.58012184465193
42
-0.41421356237313145
0
LWPOLYLINE
5
225
100
AcDbEntity
8
0
100
AcDbPolyline
90
8
70
1
43
0.0
10
350.75430250562198
20
123.57997356909392
10
350.75430250562192
20
139.27997356909393
42
-0.41421356237309503
10
351.75430250562204
20
140.27997356909401
10
362.75430250562209
20
140.2799735690939
42
-0.4142135623730846
10
363.75430250562198
20
139.27997356909393
10
363.75430250562204
20
123.57997356909392
42
-0.41421356237310542
10
362.75430250562204
20
122.57997356909391
10
351.75430250562204
20
122.57997356909391
42
-0.41421356237309503
0
LWPOLYLINE
5
226
100
AcDbEntity
8
0
100
AcDbPolyline
90
24
70
1
43
0.0
10
327.42680233630699
20
137.58012184465193
10
327.42680233630699
20
125.58012184465191
42
0.4142135623730222
10
328.42680233630699
20
124.58012184465187
10
336.37690250562201
20
124.5801218446519
42
-0.4142135623730222
10
336.87690250562196
20
124.08012184465191
10
336.87690250562196
20
123.58012184464691
42
0.41421356237309503
10
337.87690250562201
20
122.5801218446469
10
342.53170250562198
20
122.58012184464691
42
0.41421356237309503
10
343.53170250562198
20
123.58012184464691
10
343.53170250562198
20
124.08012184465191
42
-0.41421356237310542
10
344.03170250562198
20
124.58012184465191
10
344.80678233630698
20
124.58012184465191
42
0.41421356237307944
10
345.80678233630704
20
125.58012184465191
10
345.80678233630698
20
137.58012184465193
42
0.4142135623730222
10
344.80678233630698
20
138.58012184465198
10
344.03170250562198
20
138.5801218446519
42
-0.4142135623730534
10
343.53170250562198
20
139.08012184465193
10
343.53170250562192
20
139.28012184465692
42
0.41421356237315227
10
342.53170250562198
20
140.28012184465692
10
337.87690250562201
20
140.28012184465692
42
0.41421356237315227
10
336.87690250562207
20
139.28012184465692
10
336.87690250562196
20
139.08012184465193
42
-0.4142135623730534
10
336.37690250562201
20
138.58012184465193
10
328.42680233630699
20
138.58012184465193
42
0.4142135623730222
0
LWPOLYLINE
5
227
100
AcDbEntity
8
0
100
AcDbPolyline
90
8
70
1
43
0.0
10
538.43930233630692
20
44.973871844654589
42
-0.41421356237307422
10
539.18930233630692
20
44.22387184465461
10
539.18930233630692
20
42.723871844654617
42
-0.41421356237307771
10
538.43930233630692
20
41.973871844654632
10
522.93930233630715
20
41.973871844654525
42
-0.41421356237304996
10
522.18930233630704
20
42.723871844654511
10
522.18930233630692
20
44.223871844654532
42
-0.41421356237304996
10
522.93930233630715
20
44.97387184465456
0
LWPOLYLINE
5
228
100
AcDbEntity
8
0
100
AcDbPolyline
90
8
70
1
43
0.0
10
238.40180233630687
20
41.973871844654632
10
203.85180233630695
20
41.97387184465456
42
-0.4142135623730222
10
203.10180233630695
20
42.723871844654511
10
203.10180233630692
20
44.223871844654532
42
-0.4142135623730222
10
203.85180233630695
20
44.973871844654518
10
238.40180233630687
20
44.973871844654553
42
-0.41421356237306034
10
239.15180233630684
20
44.22387184465461
10
239.1518023363069
20
42.723871844654617
42
-0.41421356237307771
0
LWPOLYLINE
5
229
100
AcDbEntity
8
0
100
AcDbPolyline
90
8
70
1
43
0.0
10
515.37680233630692
20
44.22387184465461
10
515.37680233630692
20
42.723871844654617
42
-0.41421356237307771
10
514.62680233630692
20
41.973871844654624
10
480.07680233630703
20
41.973871844654525
42
-0.4142135623730222
10
479.32680233630697
20
42.723871844654511
10
479.32680233630697
20
44.223871844654532
42
-0.4142135623730222
10
480.07680233630703
20
44.973871844654525
10
514.62680233630692
20
44.973871844654589
42
-0.41421356237307422
0
LWPOLYLINE
5
230
100
AcDbEntity
8
0
100
AcDbPolyline
90
8
70
1
43
0.0
10
476.5268023363069
20
41.973871844654624
10
441.976802336307
20
41.973871844654525
42
-0.4142135623730222
10
441.22680233630695
20
42.723871844654511
10
441.22680233630695
20
44.223871844654532
42
-0.4142135623730222
10
441.976802336307
20
44.973871844654518
10
476.5268023363069
20
44.973871844654589
42
-0.41421356237307422
10
477.2768023363069
20
44.22387184465461
10
477.2768023363069
20
42.723871844654617
42
-0.41421356237307771
0
LWPOLYLINE
5
231
100
AcDbEntity
8
0
100
AcDbPolyline
90
8
70
1
43
0.0
10
298.56430233630806
20
67.430121844650458
10
286.56430233630704
20
67.430121844652206
42
-0.41421356237310802
10
285.56430233630698
20
68.430121844652191
10
285.5643023363059
20
80.430121844650117
42
-0.41421356237310542
10
286.564302336308
20
81.430121844652206
10
298.56430233630698
20
81.43012184465222
42
-0.41421356237304818
10
299.56430233630698
20
80.430121844652234
10
299.56430233630931
20
68.430121844651822
42
-0.41421356237310802
0
LWPOLYLINE
5
232
100
AcDbEntity
8
0
100
AcDbPolyline
90
8
70
1
43
0.0
10
282.02055233630699
20
80.680121844652234
10
282.02055233630705
20
68.18012184465222
42
-0.41421356237307422
10
281.27055233630699
20
67.43012184465222
10
279.77055233630711
20
67.430121844652277
42
-0.41421356237306034
10
279.02055233630711
20
68.180121844652206
10
279.02055233630699
20
80.680121844652234
42
-0.4142135623730257
10
279.77055233630699
20
81.43012184465222
10
281.27055233630699
20
81.430121844652191
42
-0.41421356237308116
0
LWPOLYLINE
5
233
100
AcDbEntity
8
0
100
AcDbPolyline
90
8
70
1
43
0.0
10
304.71055233630699
20
118.78012184465226
10
304.71055233630705
20
106.28012184465223
42
-0.41421356237306733
10
303.96055233630699
20
105.53012184465224
10
302.46055233630705
20
105.53012184465223
42
-0.41421356237306034
10
301.71055233630705
20
106.28012184465223
10
301.71055233630699
20
118.78012184465226
42
-0.4142135623730257
10
302.46055233630705
20
119.53012184465224
10
303.96055233630699
20
119.53012184465221
42
-0.41421356237308116
0
LWPOLYLINE
5
234
100
AcDbEntity
8
0
100
AcDbPolyline
90
8
70
1
43
0.0
10
511.71055233630705
20
99.730121844652245
10
511.7105523363071
20
87.230121844652217
42
-0.41421356237306733
10
510.96055233630699
20
86.480121844652231
10
509.4605523363071
20
86.480121844652245
42
-0.41421356237307422
10
508.71055233630705
20
87.230121844652217
10
508.71055233630699
20
99.730121844652245
42
-0.4142135623730257
10
509.46055233630705
20
100.48012184465223
10
510.96055233630693
20
100.48012184465223
42
-0.41421356237310897
0
LWPOLYLINE
5
235
100
AcDbEntity
8
0
100
AcDbPolyline
90
8
70
1
43
0.0
10
513.27055233630699
20
81.43012184465222
10
514.77055233630699
20
81.43012184465222
42
-0.41421356237310897
10
515.52055233630699
20
80.680121844652234
10
515.52055233630699
20
68.18012184465222
42
-0.41421356237307422
10
514.77055233630699
20
67.43012184465222
10
513.27055233630711
20
67.430121844652234
42
-0.41421356237307422
10
512.52055233630711
20
68.180121844652206
10
512.52055233630699
20
80.680121844652234
42
-0.4142135623730257
0
LWPOLYLINE
5
236
100
AcDbEntity
8
0
100
AcDbPolyline
90
20
70
1
43
0.0
10
253.58348919219696
20
58.090360191165203
42
-0.081600137566081504
10
253.68862178223179
20
58.730264479539599
10
256.85916974627213
20
68.118806039911362
42
0.081600137602629408
10
256.96430233630701
20
68.75871032857637
10
256.96430233630707
20
80.680121844652234
42
0.41421356237310197
10
256.21430233630701
20
81.430121844652206
10
254.71430233630699
20
81.43012184465222
42
0.41421356237312279
10
253.96430233630699
20
80.680121844652234
10
253.96430233630699
20
68.758710328576399
42
-0.08160013760262709
10
253.85916974627219
20
68.118806039911377
10
250.68862178270987
20
58.730264480955498
42
0.08160013760274433
10
250.58348919267499
20
58.090360192290305
10
250.58348919267496
20
49.380121844656514
10
250.58305233630699
20
36.56762184465255
10
250.58305233630699
20
27.317621844652514
42
0.41421356237309503
10
251.33305233630693
20
26.567621844652521
10
252.83305233630702
20
26.567621844652507
42
0.41421356237307422
10
253.58305233630702
20
27.317621844652514
10
253.58305233630699
20
36.567621844652514
10
253.5834891909312
20
49.380070700496439
0
LWPOLYLINE
5
237
100
AcDbEntity
8
0
100
AcDbPolyline
90
16
70
1
43
0.0
10
254.87944492634173
20
105.65374566707199
42
-0.081600137602657039
10
254.77431233630696
20
106.29364995573674
10
254.77431233630705
20
136.83012184465193
42
0.41421356237310197
10
254.02431233630708
20
137.5801218446519
10
252.52431233630699
20
137.58012184465196
42
0.41421356237309503
10
251.77431233630699
20
136.83012184465196
10
251.77431233630702
20
106.2936499557366
42
0.081600137602658662
10
251.87944492634188
20
105.65374566707143
10
253.85916974627213
20
99.791437649397224
42
-0.081600137602687667
10
253.96430233630699
20
99.151533360732202
10
253.96430233630696
20
87.230121844652132
42
0.41421356237312279
10
254.71430233630699
20
86.480121844652146
10
256.21430233630701
20
86.480121844652146
42
0.41421356237312279
10
256.96430233630701
20
87.230121844652132
10
256.96430233630713
20
99.151533360732017
42
0.081600137602630449
10
256.85916974627224
20
99.791437649397039
0
LWPOLYLINE
5
238
100
AcDbEntity
8
0
100
AcDbPolyline
90
8
70
1
43
0.0
10
252.02055233630699
20
99.680121844647715
10
252.02055233630711
20
68.180121844647758
42
-0.41421356237308116
10
251.27055233630699
20
67.430121844647715
10
249.77055233630722
20
67.430121844647729
42
-0.41421356237311241
10
249.02055233630719
20
68.180121844647744
10
249.02055233630699
20
99.680121844647715
42
-0.4142135623730257
10
249.77055233630699
20
100.43012184464772
10
251.27055233630699
20
100.43012184464769
42
-0.41421356237308116
0
LWPOLYLINE
5
239
100
AcDbEntity
8
0
100
AcDbPolyline
90
12
70
1
43
0.0
10
215.07680233630703
20
16.067621844652308
10
279.07680233630703
20
16.067621844651818
42
0.99999999999999989
10
279.07680233630703
20
18.067621844651814
10
258.08583574216999
20
18.067621844651899
42
-0.41421356237309503
10
257.08583574216999
20
19.067621844651914
10
257.08583574217005
20
21.567621844657118
42
0.41421356237309437
10
255.08583574216999
20
23.567621844657101
10
249.09119093044501
20
23.567621844657115
42
0.41421356237309503
10
247.09119093044504
20
21.567621844657111
10
247.09119093044504
20
19.067621844652116
42
-0.41421356237309503
10
246.09119093044501
20
18.067621844652116
10
215.07680233630703
20
18.067621844652308
42
0.99999999999999989
0
LWPOLYLINE
5
240
100
AcDbEntity
8
0
100
AcDbPolyline
90
4
70
1
43
0.0
10
239.08583574217002
20
22.067621844651551
10
243.22992733630707
20
22.067621844651519
42
-0.99999999999999989
10
243.22992733630707
20
20.067621844651509
10
239.08583574217002
20
20.067621844652269
42
-0.99999999999999989
0
LWPOLYLINE
5
241
100
AcDbEntity
8
0
100
AcDbPolyline
90
8
70
1
43
0.0
10
232.62680233630701
20
20.067621844653871
10
228.576802336307
20
20.067621844653871
42
-0.41421356237308593
10
227.57680233630703
20
21.067621844653889
10
227.57680233630697
20
22.067621844653861
42
-0.41421356237309631
10
228.57680233630705
20
23.067621844653956
10
232.62680233630701
20
23.067621844653786
42
-0.41421356237309503
10
233.62680233630698
20
22.067621844653807
10
233.62680233630695
20
21.067621844653811
42
-0.41421356237309503
0
ARC
5
242
100
AcDbEntity
8
0
100
AcDbCircle
10
536.77508877393416
20
23.067621844649789
30
0
40
1.0000000000000009
210
-0
220
0
230
1
100
AcDbArc
50
270
51
315.00000000000119
0
LINE
5
243
100
AcDbEntity
8
0
100
AcDbLine
10
536.77508877393416
20
22.067621844649786
30
0
11
511.18930233630698
21
22.06762184464997
31
1.2068918969884963e-28
0
ARC
5
244
100
AcDbEntity
8
0
100
AcDbCircle
10
511.18930233630692
20
21.06762184464991
30
3.1474477226045696e-46
40
1.0000000000000586
210
3.4863055959841272e-32
220
-1.2068918969884255e-28
230
1
100
AcDbArc
50
89.999999999996746
51
269.99999999999676
0
LINE
5
245
100
AcDbEntity
8
0
100
AcDbLine
10
511.18930233630687
20
20.06762184464991
30
3.4863055968422878e-32
11
527.68930233630704
21
20.067621844649825
31
-7.8809034908229039e-29
0
ARC
5
246
100
AcDbEntity
8
0
100
AcDbCircle
10
527.68930233630704
20
19.067621844649761
30
0
40
1.0000000000000142
210
0
220
-0
230
1
100
AcDbArc
50
0
51
90
0
LINE
5
247
100
AcDbEntity
8
0
100
AcDbLine
10
528.68930233630704
20
19.067621844649764
30
0
11
528.68930233630704
21
15.638836108931217
31
-1.8855144498209835e-15
0
LINE
5
248
100
AcDbEntity
8
0
100
AcDbLine
10
204.076802336307
20
19.067621844652439
30
0
11
204.076802336307
21
15.638836108933811
31
-1.8855144498210273e-15
0
ARC
5
249
100
AcDbEntity
8
0
100
AcDbCircle
10
205.07680233630703
20
19.067621844652436
30
0
40
1.0000000000000009
210
0
220
-0
230
1
100
AcDbArc
50
90
51
180
0
LINE
5
250
100
AcDbEntity
8
0
100
AcDbLine
10
220.57680233630703
20
20.067621844652287
30
0
11
205.07680233630703
21
20.067621844652436
31
0
0
ARC
5
251
100
AcDbEntity
8
0
100
AcDbCircle
10
220.57680233630705
20
21.067621844652308
30
0
40
1.0000000000000231
210
0
220
0
230
1
100
AcDbArc
50
-90.000000000001634
51
89.99999999999838
0
LINE
5
252
100
AcDbEntity
8
0
100
AcDbLine
10
195.99101589867999
20
22.067621844652571
30
0
11
220.57680233630708
21
22.067621844652304
31
0
0
ARC
5
253
100
AcDbEntity
8
0
100
AcDbCircle
10
195.99101589867999
20
23.067621844652507
30
0
40
1.0000000000000073
210
0
220
0
230
1
100
AcDbArc
50
224.99999999999767
51
270
0
LINE
5
254
100
AcDbEntity
8
0
100
AcDbLine
10
192.86969555512087
20
24.774728625838893
30
0
11
195.28390911749341
21
22.360515063465982
31
0
0
ARC
5
255
100
AcDbEntity
8
0
100
AcDbCircle
10
193.57680233630703
20
25.48183540702551
30
0
40
1.0000000000000142
210
2.2775388885375387e-32
220
9.4338749646437031e-33
230
1
100
AcDbArc
50
180
51
225.0000000000187
0
LINE
5
256
100
AcDbEntity
8
0
100
AcDbLine
10
192.57680233630703
20
25.48183540702551
30
2.277538888537571e-32
11
192.57680233630703
21
82.565908282278968
31
1.3627382384777659e-14
0
ARC
5
257
100
AcDbEntity
8
0
100
AcDbCircle
10
193.57680233630705
20
82.565908282278968
30
0
40
0.999999999999998
210
0
220
0
230
1
100
AcDbArc
50
134.99999999999943
51
180
0
LINE
5
258
100
AcDbEntity
8
0
100
AcDbLine
10
192.86969555512053
20
83.273015063465508
30
0
11
195.78390911749358
21
86.187228625838671
31
1.9366115827771333e-14
0
ARC
5
259
100
AcDbEntity
8
0
100
AcDbCircle
10
196.49101589868019
20
85.480121844652132
30
0
40
0.99999999999999645
210
0
220
0
230
1
100
AcDbArc
50
90.000000000003254
51
135.0000000000029
0
LINE
5
260
100
AcDbEntity
8
0
100
AcDbLine
10
196.49101589868013
20
86.480121844652132
30
0
11
208.07680233630703
21
86.480121844652373
31
1.265229288908632e-28
0
ARC
5
261
100
AcDbEntity
8
0
100
AcDbCircle
10
208.07680233630703
20
87.480121844652317
30
0
40
0.99999999999994316
210
0
220
1.2652292889087038e-28
230
1
100
AcDbArc
50
-90
51
0
0
LINE
5
262
100
AcDbEntity
8
0
100
AcDbLine
10
209.07680233630697
20
87.480121844652317
30
0
11
209.07680233630708
21
99.480121844652217
31
6.5988881026157237e-15
0
ARC
5
263
100
AcDbEntity
8
0
100
AcDbCircle
10
208.07680233630703
20
99.480121844652217
30
0
40
1.0000000000000497
210
-6.5988881026153955e-15
220
-0
230
1
100
AcDbArc
50
0
51
90
0
LINE
5
264
100
AcDbEntity
8
0
100
AcDbLine
10
208.07680233630703
20
100.48012184465223
30
0
11
196.49101589868002
21
100.48012184465229
31
3.9538454633981901e-29
0
ARC
5
265
100
AcDbEntity
8
0
100
AcDbCircle
10
196.49101589868002
20
101.48012184465227
30
0
40
0.99999999999998546
210
0
220
0
230
1
100
AcDbArc
50
225.00000000000057
51
270
0
LINE
5
266
100
AcDbEntity
8
0
100
AcDbLine
10
195.78390911749349
20
100.77301506346573
30
0
11
192.86969555512047
21
103.68722862583886
31
1.6025474337687899e-15
0
ARC
5
267
100
AcDbEntity
8
0
100
AcDbCircle
10
193.57680233630703
20
104.39433540702538
30
0
40
0.99999999999997868
210
0
220
0
230
1
100
AcDbArc
50
180
51
224.99999999999883
0
LINE
5
268
100
AcDbEntity
8
0
100
AcDbLine
10
192.57680233630705
20
104.39433540702538
30
0
11
192.57680233630703
21
137.66590828227891
31
5.327138061495171e-16
0
ARC
5
269
100
AcDbEntity
8
0
100
AcDbCircle
10
193.57680233630703
20
137.66590828227891
30
0
40
0.999999999999998
210
0
220
0
230
1
100
AcDbArc
50
134.9999999999597
51
180
0
LINE
5
270
100
AcDbEntity
8
0
100
AcDbLine
10
195.28390911749335
20
140.78722862583871
30
-1.7763568394002505e-14
11
192.86969555512098
21
138.37301506346594
31
0
0
ARC
5
271
100
AcDbEntity
8
0
100
AcDbCircle
10
195.9910158986801
20
140.08012184465196
30
0
40
0.99999999999999645
210
3.7735499858574145e-32
220
-9.1101555541503453e-32
230
1
100
AcDbArc
50
90
51
135
0
LINE
5
272
100
AcDbEntity
8
0
100
AcDbLine
10
195.9910158986801
20
141.08012184465193
30
9.1101555541503135e-32
11
222.57680233630703
21
141.08012184465193
31
-1.0674619993195735e-30
0
ARC
5
273
100
AcDbEntity
8
0
100
AcDbCircle
10
222.57680233630703
20
142.08012184465193
30
0
40
0.99999999999999645
210
0
220
-1.0674619993195772e-30
230
1
100
AcDbArc
50
-90
51
90
0
LINE
5
274
100
AcDbEntity
8
0
100
AcDbLine
10
222.57680233630703
20
143.08012184465196
30
0
11
205.07680233630703
21
143.08012184465193
31
7.0265308991024881e-31
0
ARC
5
275
100
AcDbEntity
8
0
100
AcDbCircle
10
205.07680233630703
20
144.08012184465193
30
0
40
0.99999999999997868
210
0
220
0
230
1
100
AcDbArc
50
180
51
270
0
LINE
5
276
100
AcDbEntity
8
0
100
AcDbLine
10
204.07680233630703
20
144.08012184465193
30
0
11
204.076802336307
21
147.5089075803709
31
-1.5878053944181282e-14
0
LINE
5
277
100
AcDbEntity
8
0
100
AcDbLine
10
528.68930233630704
20
147.5089075803709
30
1.7763568394002505e-14
11
528.68930233630704
21
144.08012184465196
31
1.5878053944181292e-14
0
ARC
5
278
100
AcDbEntity
8
0
100
AcDbCircle
10
527.68930233630704
20
144.08012184465196
30
0
40
1.0000000000000142
210
3.4863055968422222e-32
220
-3.4863055968419244e-32
230
1
100
AcDbArc
50
-90
51
0
0
LINE
5
279
100
AcDbEntity
8
0
100
AcDbLine
10
510.18930233630704
20
143.0801218446519
30
0
11
527.68930233630704
21
143.08012184465193
31
-3.4863055968419742e-32
0
ARC
5
280
100
AcDbEntity
8
0
100
AcDbCircle
10
510.18930233630698
20
142.08012184465193
30
6.8422776578360209e-48
40
0.99999999999996092
210
3.4863055968416759e-32
220
-2.4703268388178937e-45
230
1
100
AcDbArc
50
89.999999999996746
51
269.99999999999676
0
LINE
5
281
100
AcDbEntity
8
0
100
AcDbLine
10
536.77508877393404
20
141.08012184465201
30
0
11
510.18930233630692
21
141.08012184465193
31
3.486305596842226e-32
0
ARC
5
282
100
AcDbEntity
8
0
100
AcDbCircle
10
536.77508877393404
20
140.08012184465196
30
0
40
1.0000000000000107
210
0
220
-0
230
1
100
AcDbArc
50
44.999999999998849
51
90
0
LINE
5
283
100
AcDbEntity
8
0
100
AcDbLine
10
539.8964091174937
20
138.3730150634656
30
0
11
537.4821955551206
21
140.78722862583848
31
0
0
ARC
5
284
100
AcDbEntity
8
0
100
AcDbCircle
10
539.18930233630704
20
137.66590828227891
30
0
40
1.0000000000000142
210
2.2775388885375346e-32
220
9.4338749646438482e-33
230
1
100
AcDbArc
50
0
51
45.000000000001151
0
LINE
5
285
100
AcDbEntity
8
0
100
AcDbLine
10
540.18930233630704
20
137.66590828227891
30
-2.2775388885375672e-32
11
540.18930233630704
21
83.43012184465222
31
-1.2061088760936235e-14
0
LINE
5
286
100
AcDbEntity
8
0
100
AcDbLine
10
540.18930233630704
20
83.43012184465222
30
-1.2061088760936235e-14
11
536.92680233630699
21
80.167621844652146
31
1.5969495691103801e-14
0
LINE
5
287
100
AcDbEntity
8
0
100
AcDbLine
10
536.92680233630699
20
80.167621844652146
30
1.5969495691103801e-14
11
536.92680233630699
21
68.692621844652251
31
-6.3101867481262777e-15
0
LINE
5
288
100
AcDbEntity
8
0
100
AcDbLine
10
536.92680233630699
20
68.692621844652251
30
-6.3101867481262777e-15
11
540.18930233630704
21
65.430121844652234
31
-1.7940727028986835e-15
0
LINE
5
289
100
AcDbEntity
8
0
100
AcDbLine
10
540.18930233630704
20
65.430121844652234
30
-1.7940727028986835e-15
11
540.18930233630704
21
25.481835407022714
31
-4.2042876137608722e-15
0
ARC
5
290
100
AcDbEntity
8
0
100
AcDbCircle
10
539.18930233630704
20
25.481835407022714
30
0
40
1.0000000000000169
210
2.2775388885374982e-32
220
-9.4338749646441041e-33
230
1
100
AcDbArc
50
-44.999999999981583
51
0
0
LINE
5
291
100
AcDbEntity
8
0
100
AcDbLine
10
537.48219555512071
20
22.360515063463264
30
0
11
539.89640911749382
21
24.774728625836389
31
-2.277538888537874e-32
0
LINE
5
292
100
AcDbEntity
8
0
100
AcDbLine
10
528.68930233630704
20
14.067621844649778
30
0
11
528.68930233630704
21
15.638836108931217
31
-1.8855144498209835e-15
0
LINE
5
293
100
AcDbEntity
8
0
100
AcDbLine
10
528.68930233630704
20
149.08012184465196
30
0
11
528.68930233630704
21
147.5089075803709
31
1.7763568394002505e-14
0
ARC
5
294
100
AcDbEntity
8
0
100
AcDbCircle
10
241.34251204432115
20
14.067621844652084
30
0
40
1.0000000000000009
210
-0
220
0
230
1
100
AcDbArc
50
270
51
314.99999999999676
0
LINE
5
295
100
AcDbEntity
8
0
100
AcDbLine
10
242.18551134241289
20
13.496407580370679
30
0
11
242.04961882550765
21
13.360515063465508
31
0
0
LINE
5
296
100
AcDbEntity
8
0
100
AcDbLine
10
242.64596815125574
20
13.956864389213557
30
0
11
242.18551134241289
21
13.496407580370679
31
0
0
ARC
5
297
100
AcDbEntity
8
0
100
AcDbCircle
10
262.82359262828317
20
14.067621844651914
30
0
40
1.0000000000000011
210
0
220
0
230
1
100
AcDbArc
50
225.00000000000213
51
270
0
LINE
5
298
100
AcDbEntity
8
0
100
AcDbLine
10
262.11648584709667
20
13.360515063465364
30
0
11
261.98059333019154
21
13.496407580370436
31
-1.7688840101249217e-14
0
ARC
5
299
100
AcDbEntity
8
0
100
AcDbCircle
10
527.68930233630704
20
14.067621844649814
30
0
40
1.0000000000000009
210
3.4863055968422835e-32
220
-3.4863055968419096e-32
230
1
100
AcDbArc
50
270
51
325.16505642990847
0
LINE
5
300
100
AcDbEntity
8
0
100
AcDbLine
10
262.82359262828317
20
13.067621844651915
30
0
11
527.68930233630704
21
13.067621844649812
31
-3.4863055968419123e-32
0
LINE
5
301
100
AcDbEntity
8
0
100
AcDbLine
10
261.98059333019154
20
13.496407580370436
30
-1.7688840101249217e-14
11
261.5201365213473
21
13.956864389214692
31
2.5320857980421048e-16
0
SPLINE
5
302
100
AcDbEntity
8
0
100
AcDbSpline
70
0
71
3
72
12
73
8
74
0
42
0.000000001
43
0.0000000001
44
0.0000000001
40
0.98935238105805112
40
0.98935238105805112
40
0.98935238105805112
40
0.98935238105805112
40
1.0553519943098675
40
1.0553519943098675
40
1.1213516075616838
40
1.1213516075616838
40
1.1408606871659051
40
1.1408606871659051
40
1.1408606871659051
40
1.1408606871659051
10
244.06018171362888
20
14.542650826840459
30
0
10
243.84018300278944
20
14.542650826840458
30
0
10
243.60395237672506
20
14.503976318278749
30
0
10
243.16281311433028
20
14.345335514334936
30
0
10
242.95798253475013
20
14.225340478106151
30
0
10
242.74248370621893
20
14.048544702371856
30
0
10
242.69303489684614
20
14.003931134803942
30
0
10
242.64596815125574
20
13.956864389213548
30
0
0
SPLINE
5
303
100
AcDbEntity
8
0
100
AcDbSpline
70
0
71
3
72
12
73
8
74
0
42
0.000000001
43
0.0000000001
44
0.0000000001
40
0.8378440749506294
40
0.8378440749506294
40
0.8378440749506294
40
0.8378440749506294
40
0.85735315455477479
40
0.85735315455477479
40
0.92335276780662479
40
0.92335276780662479
40
0.98935238105847478
40
0.98935238105847478
40
0.98935238105847478
40
0.98935238105847478
10
261.5201365213473
20
13.956864389214676
30
0
10
261.47306977575704
20
14.003931134804928
30
0
10
261.42362096638442
20
14.048544702372666
30
0
10
261.20812213785342
20
14.225340478106965
30
0
10
261.00329155827325
20
14.34533551433586
30
0
10
260.56215229587826
20
14.503976318279834
30
0
10
260.32592166981374
20
14.542650826841593
30
0
10
260.10592295897419
20
14.542650826841593
30
0
0
LINE
5
304
100
AcDbEntity
8
0
100
AcDbLine
10
260.10592295897419
20
14.542650826841591
30
0
11
244.06018171362888
21
14.542650826840459
31
0
0
SPLINE
5
305
100
AcDbEntity
8
0
100
AcDbSpline
70
0
71
3
72
10
73
6
74
0
42
0.000000001
43
0.0000000001
44
0.0000000001
40
-0.2039051557770262
40
-0.2039051557770262
40
-0.2039051557770262
40
-0.2039051557770262
40
-0.16273754711888327
40
-0.16273754711888327
40
-0.13596918539621708
40
-0.13596918539621708
40
-0.13596918539621708
40
-0.13596918539621708
10
204.07680233630703
20
14.067621844652365
30
0
10
204.07680233630703
20
13.93824453244167
30
0
10
204.10310224530221
20
13.809207926010385
30
0
10
204.17788400570606
20
13.622388556986692
30
0
10
204.2151157400032
20
13.555157770376207
30
0
10
204.25600134685737
20
13.496407580371088
30
0
0
LINE
5
306
100
AcDbEntity
8
0
100
AcDbLine
10
204.07680233630703
20
14.067621844652365
30
0
11
204.076802336307
21
15.638836108933811
31
-1.8855144498210273e-15
0
SPLINE
5
307
100
AcDbEntity
8
0
100
AcDbSpline
70
0
71
3
72
10
73
6
74
0
42
0.000000001
43
0.0000000001
44
0.0000000001
40
-0.577045234936992
40
-0.577045234936992
40
-0.577045234936992
40
-0.577045234936992
40
-0.55027687321431473
40
-0.55027687321431473
40
-0.50910926455617378
40
-0.50910926455617378
40
-0.50910926455617378
40
-0.50910926455617378
10
528.51010332575675
20
13.496407580368412
30
0
10
528.55098893261084
20
13.555157770373562
30
0
10
528.588220666908
20
13.622388556984085
30
0
10
528.66300242731188
20
13.809207926007819
30
0
10
528.68930233630704
20
13.938244532439079
30
0
10
528.68930233630704
20
14.067621844649768
30
0
0
LINE
5
308
100
AcDbEntity
8
0
100
AcDbLine
10
205.07680233630703
20
13.067621844652299
30
0
11
241.34251204432115
21
13.067621844652084
31
0
0
LINE
5
309
100
AcDbEntity
8
0
100
AcDbLine
10
204.076802336307
20
147.5089075803709
30
-1.5878053944181282e-14
11
204.076802336307
21
149.08012184465196
31
8.6402225960215425e-16
0
SPLINE
5
310
100
AcDbEntity
8
0
100
AcDbSpline
70
0
71
3
72
10
73
6
74
0
42
0.000000001
43
0.0000000001
44
0.0000000001
40
-0.20390515577702523
40
-0.20390515577702523
40
-0.20390515577702523
40
-0.20390515577702523
40
-0.16273754711888233
40
-0.16273754711888233
40
-0.13596918539617561
40
-0.13596918539617561
40
-0.13596918539617561
40
-0.13596918539617561
10
528.68930233630704
20
149.08012184465196
30
0
10
528.68930233630704
20
149.20949915686262
30
0
10
528.66300242731188
20
149.33853576329395
30
0
10
528.58822066690789
20
149.52535513231774
30
0
10
528.55098893261084
20
149.59258591892831
30
0
10
528.51010332575652
20
149.65133610893352
30
0
0
ARC
5
311
100
AcDbEntity
8
0
100
AcDbCircle
10
527.68930233630704
20
149.08012184465193
30
0
40
1.000000000000014
210
-4.9703386478018549e-33
220
7.1420815885012439e-33
230
1
100
AcDbArc
50
34.83494357011476
51
90
0
LINE
5
312
100
AcDbEntity
8
0
100
AcDbLine
10
205.07680233630703
20
150.08012184465193
30
0
11
527.68930233630704
21
150.08012184465196
31
-3.4863055968422243e-32
0
ARC
5
313
100
AcDbEntity
8
0
100
AcDbCircle
10
205.07680233630703
20
149.08012184465193
30
0
40
0.99999999999999645
210
6.9726111936841969e-32
220
-0
230
1
100
AcDbArc
50
90
51
145.16505642985138
0
SPLINE
5
314
100
AcDbEntity
8
0
100
AcDbSpline
70
0
71
3
72
10
73
6
74
0
42
0.000000001
43
0.0000000001
44
0.0000000001
40
-0.57704523493704907
40
-0.57704523493704907
40
-0.57704523493704907
40
-0.57704523493704907
40
-0.55027687321431284
40
-0.55027687321431284
40
-0.50910926455616656
40
-0.50910926455616656
40
-0.50910926455616656
40
-0.50910926455616656
10
204.25600134685766
20
149.65133610893369
30
0
10
204.21511574000337
20
149.59258591892848
30
0
10
204.17788400570615
20
149.52535513231786
30
0
10
204.10310224530221
20
149.33853576329395
30
0
10
204.07680233630703
20
149.20949915686262
30
0
10
204.07680233630703
20
149.08012184465193
30
0
0
ARC
5
315
100
AcDbEntity
8
0
100
AcDbCircle
10
205.07680233630703
20
14.067621844652415
30
0
40
0.9999999999999809
210
0
220
0
230
1
100
AcDbArc
50
214.83494357009673
51
270
0
ENDSEC
0
SECTION
2
OBJECTS
0
DICTIONARY
5
C
100
AcDbDictionary
3
ACAD_GROUP
350
D
3
ACAD_MLINESTYLE
350
17
0
DICTIONARY
5
D
100
AcDbDictionary
0
DICTIONARY
5
1A
330
C
100
AcDbDictionary
0
DICTIONARY
5
17
100
AcDbDictionary
0
ENDSEC
0
EOF
