0
SECTION
2
HEADER
9
$INSUNITS
70
4
9
$ACADVER
1
AC1014
9
$HANDSEED
5
FFFF
0
ENDSEC
0
SECTION
2
TABLES
0
TABLE
2
VPORT
5
8
100
AcDbSymbolTable
0
ENDTAB
0
TABLE
2
LTYPE
5
5
100
AcDbSymbolTable
0
LTYPE
5
14
100
AcDbSymbolTableRecord
100
AcDbLinetypeTableRecord
2
BYBLOCK
70
0
0
LTYPE
5
15
100
AcDbSymbolTableRecord
100
AcDbLinetypeTableRecord
2
BYLAYER
70
0
0
ENDTAB
0
TABLE
2
LAYER
5
2
100
AcDbSymbolTable
70
2
0
LAYER
5
50
100
AcDbSymbolTableRecord
100
AcDbLayerTableRecord
2
0
70
0
6
CONTINUOUS
0
ENDTAB
0
TABLE
2
STYLE
5
3
100
AcDbSymbolTable
70
1
0
STYLE
5
11
100
AcDbSymbolTableRecord
100
AcDbTextStyleTableRecord
2
STANDARD
70
0
0
ENDTAB
0
TABLE
2
VIEW
5
6
100
AcDbSymbolTable
70
0
0
ENDTAB
0
TABLE
2
UCS
5
7
100
AcDbSymbolTable
70
0
0
ENDTAB
0
TABLE
2
APPID
5
9
100
AcDbSymbolTable
70
2
0
APPID
5
12
100
AcDbSymbolTableRecord
100
AcDbRegAppTableRecord
2
ACAD
70
0
0
ENDTAB
0
TABLE
2
DIMSTYLE
5
A
100
AcDbSymbolTable
70
1
0
ENDTAB
0
TABLE
2
BLOCK_RECORD
5
1
100
AcDbSymbolTable
70
1
0
BLOCK_RECORD
5
1F
100
AcDbSymbolTableRecord
100
AcDbBlockTableRecord
2
*MODEL_SPACE
0
BLOCK_RECORD
5
1B
100
AcDbSymbolTableRecord
100
AcDbBlockTableRecord
2
*PAPER_SPACE
0
ENDTAB
0
ENDSEC
0
SECTION
2
BLOCKS
0
BLOCK
5
20
100
AcDbEntity
100
AcDbBlockBegin
2
*MODEL_SPACE
0
ENDBLK
5
21
100
AcDbEntity
100
AcDbBlockEnd
0
BLOCK
5
1C
100
AcDbEntity
100
AcDbBlockBegin
2
*PAPER_SPACE
0
ENDBLK
5
1D
100
AcDbEntity
100
AcDbBlockEnd
0
ENDSEC
0
SECTION
2
ENTITIES
0
LWPOLYLINE
5
100
100
AcDbEntity
8
0
100
AcDbPolyline
90
4
70
1
43
0.0
10
-18.000650057843707
20
-96.108501522379925
10
-23.000650057843743
20
-96.108501522379925
42
0.99999999999999989
10
-23.000650057843778
20
-101.60850152237992
10
-18.000650057843743
20
-101.60850152237992
42
0.99999999999999989
0
LWPOLYLINE
5
101
100
AcDbEntity
8
0
100
AcDbPolyline
90
4
70
1
43
0.0
10
-325.40064999570262
20
-96.108501522379939
10
-330.40064999570262
20
-96.108501522379939
42
0.99999999999999989
10
-330.40064999570262
20
-101.60850152237991
10
-325.40064999570262
20
-101.60850152237991
42
0.99999999999999989
0
LWPOLYLINE
5
102
100
AcDbEntity
8
0
100
AcDbPolyline
90
8
70
1
43
0.0
10
-49.656499995702525
20
-54.883101530548899
10
-36.257199995702521
20
-54.883101530548899
42
0.41421356237309503
10
-35.957199995702524
20
-54.583101530548888
10
-35.957199995702524
20
-41.183801530548898
42
0.41421356237309076
10
-36.257199995702514
20
-40.883801530548894
10
-49.656499995702525
20
-40.883801530548894
42
0.41421356237309503
10
-49.956499995702529
20
-41.183801530548898
10
-49.956499995702529
20
-54.583101530548895
42
0.41421356237309503
0
CIRCLE
5
103
100
AcDbEntity
8
0
100
AcDbCircle
10
-174.20065005784375
20
-98.858501522379925
30
1.5109651219390843e-23
40
2.7499999999999858
210
-1.5407439555097887e-33
220
1.0339757656912846e-25
230
1
0
LWPOLYLINE
5
104
100
AcDbEntity
8
0
100
AcDbPolyline
90
8
70
1
43
0.0
10
-30.300899995702526
20
-19.832801530548902
10
-36.800399995702527
20
-19.832801530548902
42
0.41421356237309503
10
-37.300399995702513
20
-20.332801530548892
10
-37.300399995702527
20
-35.333001530548898
42
0.41421356237309503
10
-36.800399995702527
20
-35.833001530548891
10
-30.300899995702526
20
-35.833001530548898
42
0.41421356237309503
10
-29.800899995702537
20
-35.333001530548898
10
-29.80089999570253
20
-20.332801530548892
42
0.41421356237309503
0
LWPOLYLINE
5
105
100
AcDbEntity
8
0
100
AcDbPolyline
90
8
70
1
43
0.0
10
-6.2507999957025318
20
-19.832801530548902
10
-12.750399995702519
20
-19.832801530548902
42
0.41421356237309503
10
-13.250399995702525
20
-20.332801530548892
10
-13.250399995702518
20
-35.333001530548898
42
0.4142135623730937
10
-12.750399995702519
20
-35.833001530548891
10
-6.2507999957025309
20
-35.833001530548898
42
0.41421356237309503
10
-5.750799995702522
20
-35.333001530548898
10
-5.75079999570253
20
-20.332801530548892
42
0.4142135623730957
0
LWPOLYLINE
5
106
100
AcDbEntity
8
0
100
AcDbPolyline
90
8
70
1
43
0.0
10
-251.51999999570253
20
-76.982801530548926
10
-258.01899999570259
20
-76.982801530548926
42
0.41421356237309503
10
-258.51899999570259
20
-77.482801530548912
10
-258.51899999570259
20
-92.483101530548879
42
0.41421356237309503
10
-258.01899999570259
20
-92.983101530548879
10
-251.51999999570253
20
-92.983101530548879
42
0.41421356237309503
10
-251.01999999570253
20
-92.483101530548879
10
-251.01999999570253
20
-77.482801530548898
42
0.41421356237309503
0
LWPOLYLINE
5
107
100
AcDbEntity
8
0
100
AcDbPolyline
90
8
70
1
43
0.0
10
-275.56999999570252
20
-76.982801530548926
10
-282.0689999957026
20
-76.982801530548926
42
0.41421356237309503
10
-282.5689999957026
20
-77.482801530548912
10
-282.5689999957026
20
-92.483101530548865
42
0.41421356237309503
10
-282.0689999957026
20
-92.983101530548907
10
-275.56999999570252
20
-92.983101530548879
42
0.41421356237309503
10
-275.06999999570252
20
-92.483101530548879
10
-275.06999999570252
20
-77.482801530548898
42
0.41421356237309503
0
LWPOLYLINE
5
108
100
AcDbEntity
8
0
100
AcDbPolyline
90
8
70
1
43
0.0
10
-273.18699999570254
20
-38.882801530548889
10
-279.68799999570257
20
-38.882801530548889
42
0.41421356237309503
10
-280.18799999570257
20
-39.382801530548896
10
-280.18799999570257
20
-54.383101530548899
42
0.41421356237309503
10
-279.68799999570257
20
-54.883101530548899
10
-273.18699999570254
20
-54.883101530548906
42
0.41421356237309503
10
-272.68699999570254
20
-54.383101530548913
10
-272.68699999570254
20
-39.382801530548889
42
0.41421356237309503
0
LWPOLYLINE
5
109
100
AcDbEntity
8
0
100
AcDbPolyline
90
8
70
1
43
0.0
10
-255.63799999570256
20
-54.883101530548899
10
-249.13699999570255
20
-54.883101530548899
42
0.41421356237309503
10
-248.63699999570255
20
-54.383101530548913
10
-248.63699999570255
20
-39.382801530548889
42
0.41421356237309503
10
-249.13699999570255
20
-38.882801530548896
10
-255.63799999570256
20
-38.882801530548896
42
0.41421356237309503
10
-256.13799999570256
20
-39.382801530548896
10
-256.13799999570256
20
-54.383101530548899
42
0.41421356237309503
0
LWPOLYLINE
5
110
100
AcDbEntity
8
0
100
AcDbPolyline
90
8
70
1
43
0.0
10
-268.42599999570251
20
-19.832801530548895
10
-274.92499999570259
20
-19.832801530548895
42
0.41421356237309503
10
-275.42499999570259
20
-20.332801530548892
10
-275.42499999570259
20
-35.333001530548898
42
0.41421356237309503
10
-274.92499999570259
20
-35.833001530548891
10
-268.42599999570251
20
-35.833001530548898
42
0.41421356237309503
10
-267.92599999570251
20
-35.333001530548898
10
-267.92599999570251
20
-20.332801530548892
42
0.41421356237309503
0
LWPOLYLINE
5
111
100
AcDbEntity
8
0
100
AcDbPolyline
90
8
70
1
43
0.0
10
-244.37599999570253
20
-19.832801530548895
10
-250.87599999570256
20
-19.832801530548895
42
0.41421356237309503
10
-251.37599999570256
20
-20.332801530548892
10
-251.37599999570256
20
-35.333001530548898
42
0.41421356237309503
10
-250.87599999570256
20
-35.833001530548891
10
-244.37599999570253
20
-35.833001530548898
42
0.41421356237309503
10
-243.87599999570253
20
-35.333001530548898
10
-243.87599999570253
20
-20.332801530548892
42
0.41421356237309503
0
CIRCLE
5
112
100
AcDbEntity
8
0
100
AcDbCircle
10
-9.540367326773131
20
-98.858501522379925
30
1.5109651219390843e-23
40
2.1099999999999994
210
-1.5407439555097887e-33
220
1.0339757656912846e-25
230
1
0
CIRCLE
5
113
100
AcDbEntity
8
0
100
AcDbCircle
10
-338.23199999570249
20
-28.83340153054883
30
-1.4339610316697108e-24
40
2.1099999999999852
210
7.206475993393864e-58
220
-1.0339757656912846e-25
230
1
0
CIRCLE
5
114
100
AcDbEntity
8
0
100
AcDbCircle
10
-297.23199999570249
20
-51.893502473062014
30
-1.4339610316697108e-24
40
2.1099999999999852
210
-2.6291740160735067e-57
220
-1.0339757656912846e-25
230
1
0
CIRCLE
5
115
100
AcDbEntity
8
0
100
AcDbCircle
10
-119.15699999570252
20
-111.73300153054889
30
-1.4339610316697108e-24
40
2.1100000000000025
210
-4.0704692220223253e-57
220
1.0339757656912848e-25
230
1
0
CIRCLE
5
116
100
AcDbEntity
8
0
100
AcDbCircle
10
-338.23199999570249
20
-98.858551530548894
30
-1.4339610316697108e-24
40
2.1099999999999852
210
4.0704692171261715e-57
220
-1.0339757656912846e-25
230
1
0
CIRCLE
5
117
100
AcDbEntity
8
0
100
AcDbCircle
10
-204.88199999570256
20
-111.73300153054889
30
-1.4339610316697108e-24
40
2.1099999999999852
210
4.0704692171261715e-57
220
-1.0339757656912846e-25
230
1
0
LWPOLYLINE
5
118
100
AcDbEntity
8
0
100
AcDbPolyline
90
8
70
1
43
0.0
10
-271.11299999570252
20
-54.883101530548906
42
-0.41421356237309503
10
-271.41299999570253
20
-54.583101530548895
10
-271.41299999570253
20
-41.183801530548898
42
-0.41421356237309503
10
-271.11299999570252
20
-40.883801530548894
10
-257.71199999570263
20
-40.883801530548887
42
-0.41421356237309503
10
-257.41199999570262
20
-41.183801530548898
10
-257.41199999570262
20
-54.583101530548888
42
-0.41421356237309503
10
-257.71199999570263
20
-54.883101530548892
0
LWPOLYLINE
5
119
100
AcDbEntity
8
0
100
AcDbPolyline
90
8
70
1
43
0.0
10
-183.00699999570256
20
-54.883101530548899
10
-169.60699999570255
20
-54.883101530548899
42
0.41421356237309503
10
-169.30699999570254
20
-54.583101530548888
10
-169.30699999570254
20
-41.183801530548898
42
0.41421356237309503
10
-169.60699999570255
20
-40.883801530548894
10
-183.00699999570256
20
-40.883801530548894
42
0.41421356237309503
10
-183.30699999570257
20
-41.183801530548898
10
-183.30699999570257
20
-54.583101530548895
42
0.41421356237309503
0
LWPOLYLINE
5
120
100
AcDbEntity
8
0
100
AcDbPolyline
90
8
70
1
43
0.0
10
-202.05699999570254
20
-54.883101530548899
10
-188.65699999570253
20
-54.883101530548899
42
0.41421356237309503
10
-188.35699999570252
20
-54.583101530548888
10
-188.35699999570252
20
-41.183801530548898
42
0.41421356237309503
10
-188.65699999570253
20
-40.883801530548894
10
-202.05699999570254
20
-40.883801530548894
42
0.41421356237309503
10
-202.35699999570255
20
-41.183801530548898
10
-202.35699999570255
20
-54.583101530548895
42
0.41421356237309503
0
LWPOLYLINE
5
121
100
AcDbEntity
8
0
100
AcDbPolyline
90
8
70
1
43
0.0
10
-221.10699999570255
20
-54.883101530548899
10
-207.70699999570257
20
-54.883101530548899
42
0.41421356237309503
10
-207.40699999570256
20
-54.583101530548888
10
-207.40699999570256
20
-41.183801530548898
42
0.41421356237309503
10
-207.70699999570257
20
-40.883801530548894
10
-221.10699999570255
20
-40.883801530548894
42
0.41421356237309503
10
-221.40699999570256
20
-41.183801530548898
10
-221.40699999570256
20
-54.583101530548895
42
0.41421356237309503
0
LWPOLYLINE
5
122
100
AcDbEntity
8
0
100
AcDbPolyline
90
8
70
1
43
0.0
10
-240.15699999570251
20
-54.883101530548899
10
-226.75699999570256
20
-54.883101530548899
42
0.41421356237309503
10
-226.45699999570255
20
-54.583101530548888
10
-226.45699999570255
20
-41.183801530548898
42
0.41421356237309503
10
-226.75699999570256
20
-40.883801530548894
10
-240.15699999570251
20
-40.883801530548894
42
0.41421356237309503
10
-240.45699999570252
20
-41.183801530548898
10
-240.45699999570252
20
-54.583101530548895
42
0.41421356237309503
0
LWPOLYLINE
5
123
100
AcDbEntity
8
0
100
AcDbPolyline
90
8
70
1
43
0.0
10
-163.95699999570255
20
-54.883101530548906
42
-0.41421356237309503
10
-164.25699999570256
20
-54.583101530548895
10
-164.25699999570256
20
-41.183801530548898
42
-0.41421356237309503
10
-163.95699999570255
20
-40.883801530548894
10
-150.55699999570254
20
-40.883801530548908
42
-0.41421356237309503
10
-150.25699999570256
20
-41.183801530548898
10
-150.25699999570253
20
-54.583101530548888
42
-0.41421356237309503
10
-150.55699999570254
20
-54.883101530548892
0
LWPOLYLINE
5
124
100
AcDbEntity
8
0
100
AcDbPolyline
90
8
70
1
43
0.0
10
-325.58199999570252
20
-35.83300153054892
42
-0.41421356237309503
10
-326.18199999570254
20
-35.233001530548897
10
-326.18199999570254
20
-22.433601530548898
42
-0.41421356237309503
10
-325.58199999570252
20
-21.833601530548897
10
-312.78199999570256
20
-21.833601530548911
42
-0.41421356237307771
10
-312.1819999957026
20
-22.433601530548898
10
-312.18199999570254
20
-35.233001530548897
42
-0.41421356237309503
10
-312.78199999570256
20
-35.833001530548898
0
LWPOLYLINE
5
125
100
AcDbEntity
8
0
100
AcDbPolyline
90
8
70
1
43
0.0
10
-266.34999999570249
20
-35.833001530548913
42
-0.41421356237309503
10
-266.6499999957025
20
-35.533001530548901
10
-266.6499999957025
20
-22.133601530548894
42
-0.41421356237309503
10
-266.34999999570249
20
-21.833601530548897
10
-252.94999999570254
20
-21.833601530548883
42
-0.41421356237309503
10
-252.64999999570253
20
-22.133601530548894
10
-252.64999999570253
20
-35.533001530548901
42
-0.41421356237309503
10
-252.94999999570254
20
-35.833001530548898
0
LWPOLYLINE
5
126
100
AcDbEntity
8
0
100
AcDbPolyline
90
8
70
1
43
0.0
10
-273.49399999570255
20
-92.983101530548907
42
-0.41421356237309503
10
-273.79399999570256
20
-92.683101530548896
10
-273.79399999570256
20
-79.283801530548899
42
-0.41421356237309503
10
-273.49399999570255
20
-78.983801530548902
10
-260.09499999570255
20
-78.983801530548888
42
-0.41421356237309503
10
-259.79499999570254
20
-79.283801530548899
10
-259.7949999957026
20
-92.683101530548896
42
-0.41421356237309503
10
-260.09499999570255
20
-92.983101530548879
0
LWPOLYLINE
5
127
100
AcDbEntity
8
0
100
AcDbPolyline
90
8
70
1
43
0.0
10
-206.81899999570254
20
-92.983101530548879
10
-193.41999999570254
20
-92.983101530548879
42
0.41421356237309503
10
-193.11999999570253
20
-92.683101530548896
10
-193.11999999570253
20
-79.283801530548899
42
0.41421356237309503
10
-193.41999999570254
20
-78.983801530548902
10
-206.81899999570254
20
-78.983801530548902
42
0.41421356237309503
10
-207.11899999570255
20
-79.283801530548899
10
-207.11899999570255
20
-92.683101530548896
42
0.41421356237309503
0
LWPOLYLINE
5
128
100
AcDbEntity
8
0
100
AcDbPolyline
90
8
70
1
43
0.0
10
-225.86899999570252
20
-92.983101530548879
10
-212.46999999570252
20
-92.983101530548879
42
0.41421356237309503
10
-212.16999999570251
20
-92.683101530548896
10
-212.16999999570251
20
-79.283801530548899
42
0.41421356237309503
10
-212.46999999570252
20
-78.983801530548902
10
-225.86899999570252
20
-78.983801530548902
42
0.41421356237309503
10
-226.16899999570253
20
-79.283801530548899
10
-226.16899999570253
20
-92.683101530548896
42
0.41421356237309503
0
LWPOLYLINE
5
129
100
AcDbEntity
8
0
100
AcDbPolyline
90
8
70
1
43
0.0
10
-244.91899999570253
20
-92.983101530548879
10
-231.51999999570253
20
-92.983101530548879
42
0.41421356237309503
10
-231.21999999570252
20
-92.683101530548896
10
-231.21999999570252
20
-79.283801530548899
42
0.41421356237309503
10
-231.51999999570253
20
-78.983801530548902
10
-244.91899999570253
20
-78.983801530548902
42
0.41421356237309503
10
-245.21899999570255
20
-79.283801530548899
10
-245.21899999570255
20
-92.683101530548896
42
0.41421356237309503
0
LWPOLYLINE
5
130
100
AcDbEntity
8
0
100
AcDbPolyline
90
8
70
1
43
0.0
10
-59.181499995702509
20
-35.833001530548898
10
-45.78219999570252
20
-35.833001530548898
42
0.41421356237309503
10
-45.482199995702516
20
-35.533001530548901
10
-45.482199995702516
20
-22.133601530548894
42
0.41421356237309503
10
-45.78219999570252
20
-21.833601530548897
10
-59.181499995702524
20
-21.833601530548897
42
0.41421356237309503
10
-59.481499995702521
20
-22.133601530548894
10
-59.481499995702514
20
-35.533001530548901
42
0.41421356237309503
0
LWPOLYLINE
5
131
100
AcDbEntity
8
0
100
AcDbPolyline
90
8
70
1
43
0.0
10
-78.231499995702507
20
-35.833001530548898
10
-64.832199995702538
20
-35.833001530548898
42
0.41421356237309503
10
-64.532199995702527
20
-35.533001530548901
10
-64.532199995702527
20
-22.133601530548894
42
0.41421356237309503
10
-64.832199995702538
20
-21.833601530548897
10
-78.231499995702507
20
-21.833601530548897
42
0.41421356237309503
10
-78.531499995702518
20
-22.133601530548894
10
-78.531499995702504
20
-35.533001530548901
42
0.41421356237309503
0
LWPOLYLINE
5
132
100
AcDbEntity
8
0
100
AcDbPolyline
90
8
70
1
43
0.0
10
-97.281499995702518
20
-35.833001530548898
10
-83.882199995702535
20
-35.833001530548898
42
0.41421356237309503
10
-83.582199995702538
20
-35.533001530548901
10
-83.582199995702538
20
-22.133601530548894
42
0.41421356237309503
10
-83.882199995702535
20
-21.833601530548897
10
-97.281499995702546
20
-21.833601530548897
42
0.41421356237309503
10
-97.581499995702529
20
-22.133601530548894
10
-97.581499995702515
20
-35.533001530548901
42
0.41421356237309503
0
LWPOLYLINE
5
133
100
AcDbEntity
8
0
100
AcDbPolyline
90
8
70
1
43
0.0
10
-116.33199999570255
20
-35.833001530548898
10
-102.93199999570254
20
-35.833001530548898
42
0.41421356237309503
10
-102.63199999570254
20
-35.533001530548901
10
-102.63199999570256
20
-22.133601530548894
42
0.41421356237309503
10
-102.93199999570255
20
-21.833601530548897
10
-116.33199999570255
20
-21.833601530548897
42
0.41421356237309503
10
-116.63199999570254
20
-22.133601530548894
10
-116.63199999570254
20
-35.533001530548901
42
0.41421356237309503
0
LWPOLYLINE
5
134
100
AcDbEntity
8
0
100
AcDbPolyline
90
8
70
1
43
0.0
10
-135.38199999570256
20
-35.833001530548898
10
-121.98199999570252
20
-35.833001530548898
42
0.41421356237309503
10
-121.68199999570254
20
-35.533001530548901
10
-121.68199999570254
20
-22.133601530548894
42
0.41421356237309503
10
-121.98199999570252
20
-21.833601530548897
10
-135.38199999570256
20
-21.833601530548897
42
0.41421356237309503
10
-135.68199999570257
20
-22.133601530548894
10
-135.68199999570257
20
-35.533001530548901
42
0.41421356237309503
0
LWPOLYLINE
5
135
100
AcDbEntity
8
0
100
AcDbPolyline
90
8
70
1
43
0.0
10
-154.43199999570254
20
-35.833001530548898
10
-141.03199999570253
20
-35.833001530548898
42
0.41421356237309503
10
-140.73199999570252
20
-35.533001530548901
10
-140.73199999570255
20
-22.133601530548894
42
0.41421356237309503
10
-141.03199999570253
20
-21.833601530548897
10
-154.43199999570254
20
-21.833601530548897
42
0.41421356237309503
10
-154.73199999570252
20
-22.133601530548894
10
-154.73199999570252
20
-35.533001530548901
42
0.41421356237309503
0
LWPOLYLINE
5
136
100
AcDbEntity
8
0
100
AcDbPolyline
90
8
70
1
43
0.0
10
-173.48199999570255
20
-35.833001530548898
10
-160.08199999570255
20
-35.833001530548898
42
0.41421356237309503
10
-159.78199999570253
20
-35.533001530548901
10
-159.78199999570256
20
-22.133601530548894
42
0.41421356237309503
10
-160.08199999570255
20
-21.833601530548897
10
-173.48199999570255
20
-21.833601530548897
42
0.41421356237309503
10
-173.78199999570256
20
-22.133601530548894
10
-173.78199999570256
20
-35.533001530548901
42
0.41421356237309503
0
LWPOLYLINE
5
137
100
AcDbEntity
8
0
100
AcDbPolyline
90
8
70
1
43
0.0
10
-179.13199999570253
20
-21.833601530548897
10
-192.53199999570253
20
-21.833601530548897
42
0.41421356237309503
10
-192.83199999570255
20
-22.133601530548894
10
-192.83199999570255
20
-35.533001530548901
42
0.41421356237309503
10
-192.53199999570253
20
-35.833001530548898
10
-179.13199999570253
20
-35.833001530548898
42
0.41421356237309503
10
-178.83199999570252
20
-35.533001530548901
10
-178.83199999570252
20
-22.133601530548894
42
0.41421356237309503
0
LWPOLYLINE
5
138
100
AcDbEntity
8
0
100
AcDbPolyline
90
8
70
1
43
0.0
10
-211.58199999570255
20
-35.833001530548898
10
-198.18199999570257
20
-35.833001530548898
42
0.41421356237309503
10
-197.88199999570256
20
-35.533001530548901
10
-197.88199999570256
20
-22.133601530548894
42
0.41421356237309503
10
-198.18199999570257
20
-21.833601530548897
10
-211.58199999570255
20
-21.833601530548897
42
0.41421356237309503
10
-211.88199999570256
20
-22.133601530548894
10
-211.88199999570256
20
-35.533001530548901
42
0.41421356237309503
0
LWPOLYLINE
5
139
100
AcDbEntity
8
0
100
AcDbPolyline
90
8
70
1
43
0.0
10
-230.63199999570256
20
-35.833001530548898
10
-217.23199999570258
20
-35.833001530548898
42
0.41421356237309503
10
-216.93199999570257
20
-35.533001530548901
10
-216.93199999570257
20
-22.133601530548894
42
0.41421356237309503
10
-217.23199999570258
20
-21.833601530548897
10
-230.63199999570256
20
-21.833601530548897
42
0.41421356237309503
10
-230.93199999570257
20
-22.133601530548894
10
-230.93199999570257
20
-35.533001530548901
42
0.41421356237309503
0
LWPOLYLINE
5
140
100
AcDbEntity
8
0
100
AcDbPolyline
90
8
70
1
43
0.0
10
-187.76899999570253
20
-92.983101530548907
42
-0.41421356237309503
10
-188.06899999570254
20
-92.683101530548896
10
-188.06899999570254
20
-79.283801530548899
42
-0.41421356237309503
10
-187.76899999570253
20
-78.983801530548902
10
-174.36999999570253
20
-78.983801530548888
42
-0.41421356237309503
10
-174.06999999570252
20
-79.283801530548899
10
-174.06999999570252
20
-92.683101530548896
42
-0.41421356237309503
10
-174.36999999570253
20
-92.983101530548879
0
LWPOLYLINE
5
141
100
AcDbEntity
8
0
100
AcDbPolyline
90
8
70
1
43
0.0
10
-331.23199999570249
20
-118.43300153054889
10
-331.23199999570249
20
-105.03400153054889
42
0.41421356237309503
10
-331.53199999570245
20
-104.73400153054889
10
-344.93199999570243
20
-104.73400153054889
42
0.41421356237309503
10
-345.23199999570244
20
-105.03400153054889
10
-345.23199999570244
20
-118.43300153054889
42
0.41421356237309503
10
-344.93199999570243
20
-118.73300153054888
10
-331.53199999570245
20
-118.73300153054888
42
0.41421356237309503
0
LWPOLYLINE
5
142
100
AcDbEntity
8
0
100
AcDbPolyline
90
8
70
1
43
0.0
10
-312.18199999570254
20
-118.43300153054889
10
-312.18199999570254
20
-105.03400153054889
42
0.41421356237306034
10
-312.48199999570255
20
-104.73400153054889
10
-325.88199999570247
20
-104.73400153054889
42
0.41421356237309503
10
-326.18199999570254
20
-105.03400153054889
10
-326.18199999570254
20
-118.43300153054889
42
0.41421356237309503
10
-325.88199999570247
20
-118.73300153054888
10
-312.48199999570255
20
-118.73300153054888
42
0.41421356237309503
0
LWPOLYLINE
5
143
100
AcDbEntity
8
0
100
AcDbPolyline
90
8
70
1
43
0.0
10
-283.3189999957026
20
-105.03400153054889
10
-283.3189999957026
20
-118.43300153054889
42
0.41421356237309503
10
-283.01899999570259
20
-118.73300153054888
10
-269.61999999570259
20
-118.73300153054888
42
0.41421356237309503
10
-269.31999999570257
20
-118.43300153054889
10
-269.31999999570257
20
-105.03400153054889
42
0.41421356237309503
10
-269.61999999570259
20
-104.73400153054889
10
-283.01899999570259
20
-104.73400153054889
42
0.41421356237309503
0
LWPOLYLINE
5
144
100
AcDbEntity
8
0
100
AcDbPolyline
90
8
70
1
43
0.0
10
-312.18199999570254
20
-73.633101530548885
10
-312.18199999570254
20
-60.233801530548902
42
0.41421356237306034
10
-312.48199999570255
20
-59.933801530548898
10
-325.88199999570247
20
-59.933801530548891
42
0.41421356237309503
10
-326.18199999570254
20
-60.233801530548888
10
-326.18199999570254
20
-73.633101530548885
42
0.41421356237309503
10
-325.88199999570247
20
-73.933101530548896
10
-312.48199999570255
20
-73.933101530548882
42
0.41421356237309503
0
LWPOLYLINE
5
145
100
AcDbEntity
8
0
100
AcDbPolyline
90
8
70
1
43
0.0
10
-245.21899999570255
20
-105.03400153054889
10
-245.21899999570255
20
-118.43300153054889
42
0.41421356237309503
10
-244.91899999570253
20
-118.73300153054888
10
-231.51999999570253
20
-118.73300153054888
42
0.41421356237309503
10
-231.21999999570252
20
-118.43300153054889
10
-231.21999999570252
20
-105.03400153054889
42
0.41421356237309503
10
-231.51999999570253
20
-104.73400153054889
10
-244.91899999570253
20
-104.73400153054889
42
0.41421356237309503
0
LWPOLYLINE
5
146
100
AcDbEntity
8
0
100
AcDbPolyline
90
8
70
1
43
0.0
10
-159.49399999570255
20
-105.03400153054889
10
-159.49399999570255
20
-118.43300153054889
42
0.41421356237309503
10
-159.19399999570254
20
-118.73300153054888
10
-145.79499999570254
20
-118.73300153054888
42
0.41421356237309503
10
-145.49499999570256
20
-118.43300153054889
10
-145.49499999570256
20
-105.03400153054889
42
0.41421356237309503
10
-145.79499999570257
20
-104.73400153054889
10
-159.19399999570254
20
-104.73400153054889
42
0.41421356237309503
0
LWPOLYLINE
5
147
100
AcDbEntity
8
0
100
AcDbPolyline
90
8
70
1
43
0.0
10
-169.01899999570253
20
-79.283801530548899
10
-169.01899999570253
20
-92.683101530548896
42
0.41421356237309503
10
-168.71899999570252
20
-92.983101530548879
10
-155.31999999570255
20
-92.983101530548879
42
0.41421356237309503
10
-155.01999999570256
20
-92.683101530548896
10
-155.01999999570256
20
-79.283801530548899
42
0.41421356237309503
10
-155.31999999570257
20
-78.983801530548902
10
-168.71899999570252
20
-78.983801530548902
42
0.41421356237309503
0
LWPOLYLINE
5
148
100
AcDbEntity
8
0
100
AcDbPolyline
90
8
70
1
43
0.0
10
-140.44399999570254
20
-60.233801530548888
10
-140.44399999570254
20
-73.633101530548885
42
0.41421356237309503
10
-140.14399999570253
20
-73.933101530548896
10
-126.74499999570253
20
-73.933101530548882
42
0.41421356237309503
10
-126.44499999570255
20
-73.633101530548885
10
-126.44499999570256
20
-60.233801530548902
42
0.41421356237309503
10
-126.74499999570256
20
-59.933801530548898
10
-140.14399999570253
20
-59.933801530548891
42
0.41421356237309503
0
LWPOLYLINE
5
149
100
AcDbEntity
8
0
100
AcDbPolyline
90
8
70
1
43
0.0
10
-92.818999995702541
20
-105.03400153054889
10
-92.818999995702541
20
-118.43300153054889
42
0.41421356237311241
10
-92.518999995702501
20
-118.73300153054888
10
-79.119699995702518
20
-118.73300153054888
42
0.41421356237309503
10
-78.819699995702507
20
-118.43300153054889
10
-78.819699995702507
20
-105.03400153054889
42
0.41421356237311241
10
-79.119699995702533
20
-104.73400153054889
10
-92.518999995702544
20
-104.73400153054889
42
0.41421356237309503
0
LWPOLYLINE
5
150
100
AcDbEntity
8
0
100
AcDbPolyline
90
8
70
1
43
0.0
10
-121.39399999570253
20
-60.233801530548888
10
-121.39399999570253
20
-73.633101530548885
42
0.41421356237309503
10
-121.09399999570255
20
-73.933101530548896
10
-107.69499999570252
20
-73.933101530548882
42
0.41421356237309503
10
-107.39499999570253
20
-73.633101530548885
10
-107.39499999570255
20
-60.233801530548902
42
0.41421356237309503
10
-107.69499999570255
20
-59.933801530548898
10
-121.09399999570255
20
-59.933801530548891
42
0.41421356237309503
0
LWPOLYLINE
5
151
100
AcDbEntity
8
0
100
AcDbPolyline
90
8
70
1
43
0.0
10
-130.91899999570251
20
-79.283801530548899
10
-130.91899999570251
20
-92.683101530548896
42
0.41421356237309503
10
-130.6189999957025
20
-92.983101530548879
10
-117.21799999570253
20
-92.983101530548879
42
0.41421356237309503
10
-116.91799999570253
20
-92.683101530548896
10
-116.91799999570256
20
-79.283801530548899
42
0.41421356237309503
10
-117.21799999570254
20
-78.983801530548902
10
-130.61899999570252
20
-78.983801530548902
42
0.41421356237309503
0
LWPOLYLINE
5
152
100
AcDbEntity
8
0
100
AcDbPolyline
90
8
70
1
43
0.0
10
-145.20699999570252
20
-41.183801530548898
10
-145.20699999570252
20
-54.583101530548895
42
0.41421356237309503
10
-144.90699999570253
20
-54.883101530548899
10
-131.50699999570253
20
-54.883101530548892
42
0.41421356237309503
10
-131.20699999570252
20
-54.583101530548888
10
-131.20699999570255
20
-41.183801530548898
42
0.41421356237309503
10
-131.50699999570253
20
-40.883801530548894
10
-144.90699999570253
20
-40.883801530548894
42
0.41421356237309503
0
LWPOLYLINE
5
153
100
AcDbEntity
8
0
100
AcDbPolyline
90
8
70
1
43
0.0
10
-111.86899999570255
20
-105.03400153054889
10
-111.86899999570255
20
-118.43300153054889
42
0.41421356237309503
10
-111.56899999570254
20
-118.73300153054888
10
-98.16829999570254
20
-118.73300153054888
42
0.41421356237309503
10
-97.868299995702557
20
-118.43300153054889
10
-97.868299995702571
20
-105.03400153054889
42
0.41421356237309503
10
-98.168299995702569
20
-104.73400153054889
10
-111.56899999570255
20
-104.73400153054889
42
0.41421356237309503
0
LWPOLYLINE
5
154
100
AcDbEntity
8
0
100
AcDbPolyline
90
8
70
1
43
0.0
10
-92.818999995702541
20
-79.283801530548899
10
-92.818999995702541
20
-92.683101530548896
42
0.41421356237309503
10
-92.518999995702529
20
-92.983101530548879
10
-79.119699995702518
20
-92.983101530548879
42
0.41421356237309503
10
-78.819699995702521
20
-92.683101530548896
10
-78.819699995702521
20
-79.283801530548899
42
0.41421356237310375
10
-79.119699995702533
20
-78.983801530548902
10
-92.518999995702544
20
-78.983801530548902
42
0.41421356237309503
0
LWPOLYLINE
5
155
100
AcDbEntity
8
0
100
AcDbPolyline
90
8
70
1
43
0.0
10
-59.769699995702517
20
-118.43300153054889
10
-59.769699995702517
20
-105.03400153054889
42
0.41421356237309503
10
-60.069699995702521
20
-104.73400153054889
10
-73.468999995702504
20
-104.73400153054889
42
0.41421356237309503
10
-73.768999995702501
20
-105.03400153054889
10
-73.768999995702501
20
-118.43300153054889
42
0.41421356237309503
10
-73.46899999570249
20
-118.73300153054888
10
-60.069699995702521
20
-118.73300153054888
42
0.41421356237309503
0
LWPOLYLINE
5
156
100
AcDbEntity
8
0
100
AcDbPolyline
90
8
70
1
43
0.0
10
-88.056499995702524
20
-41.183801530548898
10
-88.056499995702524
20
-54.583101530548895
42
0.41421356237309503
10
-87.756499995702512
20
-54.883101530548899
10
-74.357199995702516
20
-54.883101530548892
42
0.41421356237309503
10
-74.057199995702518
20
-54.583101530548888
10
-74.057199995702518
20
-41.183801530548898
42
0.41421356237310375
10
-74.35719999570253
20
-40.883801530548894
10
-87.756499995702541
20
-40.883801530548894
42
0.41421356237309503
0
LWPOLYLINE
5
157
100
AcDbEntity
8
0
100
AcDbPolyline
90
8
70
1
43
0.0
10
-64.243999995702524
20
-60.233801530548888
10
-64.243999995702524
20
-73.633101530548885
42
0.41421356237309503
10
-63.943999995702512
20
-73.933101530548896
10
-50.54469999570253
20
-73.933101530548882
42
0.41421356237309503
10
-50.244699995702533
20
-73.633101530548885
10
-50.24469999570254
20
-60.233801530548902
42
0.41421356237309503
10
-50.544699995702544
20
-59.933801530548898
10
-63.943999995702526
20
-59.933801530548891
42
0.41421356237309503
0
LWPOLYLINE
5
158
100
AcDbEntity
8
0
100
AcDbPolyline
90
8
70
1
43
0.0
10
-16.619199995702523
20
-79.283801530548899
10
-16.619199995702523
20
-92.683101530548896
42
0.41421356237309503
10
-16.319199995702522
20
-92.983101530548879
10
-2.9196499957025228
20
-92.983101530548879
42
0.41421356237309503
10
-2.6196499957025225
20
-92.683101530548896
10
-2.619649995702523
20
-79.283801530548899
42
0.41421356237309398
10
-2.9196499957025224
20
-78.983801530548902
10
-16.319199995702522
20
-78.983801530548902
42
0.41421356237309503
0
LWPOLYLINE
5
159
100
AcDbEntity
8
0
100
AcDbPolyline
90
8
70
1
43
0.0
10
-2.6196499957025217
20
-118.43300153054889
10
-2.6196499957025221
20
-105.03400153054889
42
0.41421356237309503
10
-2.9196499957025224
20
-104.73400153054889
10
-16.319199995702522
20
-104.73400153054889
42
0.41421356237309503
10
-16.619199995702523
20
-105.03400153054889
10
-16.619199995702523
20
-118.43300153054889
42
0.41421356237309503
10
-16.319199995702522
20
-118.73300153054888
10
-2.9196499957025219
20
-118.73300153054888
42
0.41421356237309503
0
LWPOLYLINE
5
160
100
AcDbEntity
8
0
100
AcDbPolyline
90
4
70
1
43
0.0
10
-317.90065005784368
20
-100.35850152237992
10
-184.20065005784375
20
-100.35850152237992
42
0.99999999999999989
10
-184.20065005784375
20
-97.358501522379925
10
-317.90065005784368
20
-97.358501522379925
42
0.99999999999999989
0
LWPOLYLINE
5
161
100
AcDbEntity
8
0
100
AcDbPolyline
90
4
70
1
43
0.0
10
-164.20065005784375
20
-100.35850152237992
10
-30.50065005784376
20
-100.35850152237992
42
0.99999999999999989
10
-30.500650057843774
20
-97.358501522379925
10
-164.20065005784375
20
-97.358501522379925
42
0.99999999999999989
0
LWPOLYLINE
5
162
100
AcDbEntity
8
0
100
AcDbPolyline
90
8
70
1
43
0.0
10
-40.719699995702513
20
-118.43300153054889
10
-40.719699995702513
20
-105.03400153054889
42
0.41421356237309503
10
-41.019699995702524
20
-104.73400153054889
10
-54.418999995702507
20
-104.73400153054889
42
0.41421356237309503
10
-54.718999995702511
20
-105.03400153054889
10
-54.718999995702504
20
-118.43300153054889
42
0.41421356237309503
10
-54.418999995702499
20
-118.73300153054888
10
-41.019699995702517
20
-118.73300153054888
42
0.41421356237309503
0
LWPOLYLINE
5
163
100
AcDbEntity
8
0
100
AcDbPolyline
90
8
70
1
43
0.0
10
-149.96899999570252
20
-79.283801530548899
10
-149.96899999570252
20
-92.683101530548896
42
0.41421356237309503
10
-149.66899999570251
20
-92.983101530548879
10
-136.26999999570253
20
-92.983101530548879
42
0.41421356237309503
10
-135.96999999570255
20
-92.683101530548896
10
-135.96999999570255
20
-79.283801530548899
42
0.41421356237309503
10
-136.26999999570256
20
-78.983801530548902
10
-149.66899999570253
20
-78.983801530548902
42
0.41421356237309503
0
LWPOLYLINE
5
164
100
AcDbEntity
8
0
100
AcDbPolyline
90
8
70
1
43
0.0
10
-264.26899999570259
20
-105.03400153054889
10
-264.26899999570259
20
-118.43300153054889
42
0.41421356237309503
10
-263.96899999570257
20
-118.73300153054888
10
-250.56999999570255
20
-118.73300153054888
42
0.41421356237309503
10
-250.26999999570253
20
-118.43300153054889
10
-250.26999999570253
20
-105.03400153054889
42
0.41421356237309503
10
-250.56999999570255
20
-104.73400153054889
10
-263.96899999570257
20
-104.73400153054889
42
0.41421356237309503
0
LWPOLYLINE
5
165
100
AcDbEntity
8
0
100
AcDbPolyline
90
8
70
1
43
0.0
10
-264.55699999570254
20
-73.633101530548885
10
-264.55699999570254
20
-60.233801530548902
42
0.41421356237309503
10
-264.85699999570261
20
-59.933801530548898
10
-278.25699999570253
20
-59.933801530548891
42
0.41421356237309503
10
-278.55699999570254
20
-60.233801530548888
10
-278.55699999570254
20
-73.633101530548885
42
0.41421356237309503
10
-278.25699999570253
20
-73.933101530548896
10
-264.85699999570261
20
-73.933101530548882
42
0.41421356237309503
0
LWPOLYLINE
5
166
100
AcDbEntity
8
0
100
AcDbPolyline
90
8
70
1
43
0.0
10
-307.13199999570253
20
-60.233801530548888
10
-307.13199999570253
20
-73.633101530548885
42
0.41421356237309503
10
-306.83199999570252
20
-73.933101530548896
10
-293.43199999570254
20
-73.933101530548882
42
0.41421356237309503
10
-293.13199999570253
20
-73.633101530548885
10
-293.13199999570253
20
-60.233801530548902
42
0.41421356237309503
10
-293.43199999570254
20
-59.933801530548898
10
-306.83199999570252
20
-59.933801530548891
42
0.41421356237309503
0
LWPOLYLINE
5
167
100
AcDbEntity
8
0
100
AcDbPolyline
90
8
70
1
43
0.0
10
-69.006499995702526
20
-41.183801530548898
10
-69.006499995702526
20
-54.583101530548895
42
0.41421356237309503
10
-68.706499995702515
20
-54.883101530548899
10
-55.307199995702526
20
-54.883101530548892
42
0.41421356237309503
10
-55.007199995702521
20
-54.583101530548888
10
-55.007199995702521
20
-41.183801530548898
42
0.41421356237309503
10
-55.307199995702526
20
-40.883801530548894
10
-68.706499995702529
20
-40.883801530548894
42
0.41421356237309503
0
LWPOLYLINE
5
168
100
AcDbEntity
8
0
100
AcDbPolyline
90
8
70
1
43
0.0
10
-69.29469999570253
20
-73.633101530548885
10
-69.29469999570253
20
-60.233801530548902
42
0.41421356237310375
10
-69.594699995702541
20
-59.933801530548898
10
-82.993999995702538
20
-59.933801530548891
42
0.41421356237309503
10
-83.293999995702535
20
-60.233801530548888
10
-83.293999995702507
20
-73.633101530548885
42
0.41421356237309503
10
-82.993999995702524
20
-73.933101530548896
10
-69.594699995702541
20
-73.933101530548882
42
0.41421356237309503
0
LWPOLYLINE
5
169
100
AcDbEntity
8
0
100
AcDbPolyline
90
8
70
1
43
0.0
10
-21.381699995702522
20
-60.233801530548888
10
-21.381699995702522
20
-73.633101530548885
42
0.41421356237309503
10
-21.081699995702525
20
-73.933101530548896
10
-7.6821599957025253
20
-73.933101530548882
42
0.41421356237309614
10
-7.3821599957025246
20
-73.633101530548885
10
-7.3821599957025255
20
-60.233801530548902
42
0.41421356237309398
10
-7.6821599957025244
20
-59.933801530548898
10
-21.081699995702525
20
-59.933801530548891
42
0.41421356237309503
0
LWPOLYLINE
5
170
100
AcDbEntity
8
0
100
AcDbPolyline
90
8
70
1
43
0.0
10
-54.718999995702518
20
-79.283801530548899
10
-54.718999995702518
20
-92.683101530548896
42
0.41421356237309503
10
-54.418999995702507
20
-92.983101530548879
10
-41.019699995702524
20
-92.983101530548879
42
0.41421356237309503
10
-40.719699995702527
20
-92.683101530548896
10
-40.719699995702534
20
-79.283801530548899
42
0.41421356237309503
10
-41.019699995702538
20
-78.983801530548902
10
-54.418999995702521
20
-78.983801530548902
42
0.41421356237309503
0
LWPOLYLINE
5
171
100
AcDbEntity
8
0
100
AcDbPolyline
90
8
70
1
43
0.0
10
-59.769699995702524
20
-92.683101530548896
10
-59.769699995702524
20
-79.283801530548899
42
0.41421356237309503
10
-60.069699995702528
20
-78.983801530548902
10
-73.468999995702518
20
-78.983801530548902
42
0.41421356237309503
10
-73.768999995702515
20
-79.283801530548899
10
-73.768999995702501
20
-92.683101530548896
42
0.41421356237309503
10
-73.468999995702504
20
-92.983101530548879
10
-60.069699995702528
20
-92.983101530548879
42
0.41421356237309503
0
LWPOLYLINE
5
172
100
AcDbEntity
8
0
100
AcDbPolyline
90
8
70
1
43
0.0
10
-21.669699995702523
20
-92.683101530548896
10
-21.669699995702523
20
-79.283801530548899
42
0.41421356237309503
10
-21.969699995702516
20
-78.983801530548902
10
-35.368999995702531
20
-78.983801530548902
42
0.41421356237309503
10
-35.668999995702528
20
-79.283801530548899
10
-35.668999995702528
20
-92.683101530548896
42
0.41421356237309503
10
-35.368999995702531
20
-92.983101530548879
10
-21.96969999570252
20
-92.983101530548879
42
0.41421356237309503
0
LWPOLYLINE
5
173
100
AcDbEntity
8
0
100
AcDbPolyline
90
8
70
1
43
0.0
10
-31.194699995702525
20
-73.633101530548885
10
-31.194699995702525
20
-60.233801530548902
42
0.41421356237309503
10
-31.494699995702522
20
-59.933801530548898
10
-44.893999995702522
20
-59.933801530548891
42
0.41421356237309503
10
-45.193999995702526
20
-60.233801530548888
10
-45.193999995702526
20
-73.633101530548885
42
0.41421356237309503
10
-44.893999995702522
20
-73.933101530548896
10
-31.494699995702522
20
-73.933101530548882
42
0.41421356237309503
0
LWPOLYLINE
5
174
100
AcDbEntity
8
0
100
AcDbPolyline
90
8
70
1
43
0.0
10
-107.10699999570255
20
-41.183801530548898
10
-107.10699999570255
20
-54.583101530548895
42
0.41421356237309503
10
-106.80699999570254
20
-54.883101530548899
10
-93.407199995702541
20
-54.883101530548892
42
0.41421356237309503
10
-93.107199995702544
20
-54.583101530548888
10
-93.107199995702544
20
-41.183801530548898
42
0.41421356237309503
10
-93.407199995702541
20
-40.883801530548894
10
-106.80699999570257
20
-40.883801530548894
42
0.41421356237309503
0
LWPOLYLINE
5
175
100
AcDbEntity
8
0
100
AcDbPolyline
90
8
70
1
43
0.0
10
-102.34399999570255
20
-60.233801530548888
10
-102.34399999570255
20
-73.633101530548885
42
0.41421356237309503
10
-102.04399999570253
20
-73.933101530548896
10
-88.644699995702538
20
-73.933101530548882
42
0.41421356237309503
10
-88.344699995702541
20
-73.633101530548885
10
-88.344699995702541
20
-60.233801530548902
42
0.41421356237309503
10
-88.644699995702538
20
-59.933801530548898
10
-102.04399999570255
20
-59.933801530548891
42
0.41421356237309503
0
LWPOLYLINE
5
176
100
AcDbEntity
8
0
100
AcDbPolyline
90
8
70
1
43
0.0
10
-97.868299995702557
20
-92.683101530548896
10
-97.868299995702557
20
-79.283801530548899
42
0.41421356237309503
10
-98.168299995702569
20
-78.983801530548902
10
-111.56899999570255
20
-78.983801530548902
42
0.41421356237309503
10
-111.86899999570255
20
-79.283801530548899
10
-111.86899999570252
20
-92.683101530548896
42
0.41421356237309503
10
-111.56899999570254
20
-92.983101530548879
10
-98.16829999570254
20
-92.983101530548879
42
0.41421356237309503
0
LWPOLYLINE
5
177
100
AcDbEntity
8
0
100
AcDbPolyline
90
8
70
1
43
0.0
10
-112.15699999570255
20
-54.583101530548888
10
-112.15699999570255
20
-41.183801530548898
42
0.41421356237309503
10
-112.45699999570256
20
-40.883801530548894
10
-125.85699999570255
20
-40.883801530548894
42
0.41421356237309503
10
-126.15699999570255
20
-41.183801530548898
10
-126.15699999570255
20
-54.583101530548895
42
0.41421356237309503
10
-125.85699999570255
20
-54.883101530548899
10
-112.45699999570255
20
-54.883101530548892
42
0.41421356237309503
0
LWPOLYLINE
5
178
100
AcDbEntity
8
0
100
AcDbPolyline
90
8
70
1
43
0.0
10
-145.49499999570256
20
-73.633101530548885
10
-145.49499999570256
20
-60.233801530548902
42
0.41421356237309503
10
-145.79499999570257
20
-59.933801530548898
10
-159.19399999570254
20
-59.933801530548891
42
0.41421356237309503
10
-159.49399999570255
20
-60.233801530548888
10
-159.49399999570252
20
-73.633101530548885
42
0.41421356237309503
10
-159.19399999570254
20
-73.933101530548896
10
-145.79499999570254
20
-73.933101530548882
42
0.41421356237309503
0
LWPOLYLINE
5
179
100
AcDbEntity
8
0
100
AcDbPolyline
90
8
70
1
43
0.0
10
-140.44399999570254
20
-105.03400153054889
10
-140.44399999570254
20
-118.43300153054889
42
0.41421356237309503
10
-140.14399999570253
20
-118.73300153054888
10
-126.74499999570253
20
-118.73300153054888
42
0.41421356237309503
10
-126.44499999570255
20
-118.43300153054889
10
-126.44499999570256
20
-105.03400153054889
42
0.41421356237309503
10
-126.74499999570256
20
-104.73400153054889
10
-140.14399999570253
20
-104.73400153054889
42
0.41421356237309503
0
LWPOLYLINE
5
180
100
AcDbEntity
8
0
100
AcDbPolyline
90
8
70
1
43
0.0
10
-178.54399999570256
20
-105.03400153054889
10
-178.54399999570256
20
-118.43300153054889
42
0.41421356237309503
10
-178.24399999570255
20
-118.73300153054888
10
-164.84499999570255
20
-118.73300153054888
42
0.41421356237309503
10
-164.54499999570254
20
-118.43300153054889
10
-164.54499999570254
20
-105.03400153054889
42
0.41421356237309503
10
-164.84499999570255
20
-104.73400153054889
10
-178.24399999570255
20
-104.73400153054889
42
0.41421356237309503
0
LWPOLYLINE
5
181
100
AcDbEntity
8
0
100
AcDbPolyline
90
8
70
1
43
0.0
10
-178.54399999570256
20
-60.233801530548888
10
-178.54399999570256
20
-73.633101530548885
42
0.41421356237309503
10
-178.24399999570255
20
-73.933101530548896
10
-164.84499999570255
20
-73.933101530548882
42
0.41421356237309503
10
-164.54499999570254
20
-73.633101530548885
10
-164.54499999570254
20
-60.233801530548902
42
0.41421356237309503
10
-164.84499999570255
20
-59.933801530548898
10
-178.24399999570255
20
-59.933801530548891
42
0.41421356237309503
0
LWPOLYLINE
5
182
100
AcDbEntity
8
0
100
AcDbPolyline
90
8
70
1
43
0.0
10
-226.16899999570253
20
-105.03400153054889
10
-226.16899999570253
20
-118.43300153054889
42
0.41421356237309503
10
-225.86899999570252
20
-118.73300153054888
10
-212.46999999570252
20
-118.73300153054888
42
0.41421356237309503
10
-212.16999999570251
20
-118.43300153054889
10
-212.16999999570251
20
-105.03400153054889
42
0.41421356237309503
10
-212.46999999570252
20
-104.73400153054889
10
-225.86899999570252
20
-104.73400153054889
42
0.41421356237309503
0
LWPOLYLINE
5
183
100
AcDbEntity
8
0
100
AcDbPolyline
90
8
70
1
43
0.0
10
-197.59399999570257
20
-105.03400153054889
10
-197.59399999570257
20
-118.43300153054889
42
0.41421356237309503
10
-197.29399999570256
20
-118.73300153054888
10
-183.89499999570256
20
-118.73300153054888
42
0.41421356237309503
10
-183.59499999570255
20
-118.43300153054889
10
-183.59499999570255
20
-105.03400153054889
42
0.41421356237309503
10
-183.89499999570256
20
-104.73400153054889
10
-197.29399999570256
20
-104.73400153054889
42
0.41421356237309503
0
LWPOLYLINE
5
184
100
AcDbEntity
8
0
100
AcDbPolyline
90
8
70
1
43
0.0
10
-240.74499999570253
20
-73.633101530548885
10
-240.74499999570253
20
-60.233801530548902
42
0.41421356237309503
10
-241.04499999570254
20
-59.933801530548898
10
-254.44399999570254
20
-59.933801530548891
42
0.41421356237309503
10
-254.74399999570255
20
-60.233801530548888
10
-254.74399999570255
20
-73.633101530548885
42
0.41421356237309503
10
-254.44399999570254
20
-73.933101530548896
10
-241.04499999570254
20
-73.933101530548882
42
0.41421356237309503
0
LWPOLYLINE
5
185
100
AcDbEntity
8
0
100
AcDbPolyline
90
8
70
1
43
0.0
10
-235.69399999570254
20
-60.233801530548888
10
-235.69399999570254
20
-73.633101530548885
42
0.41421356237309503
10
-235.39399999570253
20
-73.933101530548896
10
-221.99499999570253
20
-73.933101530548882
42
0.41421356237309503
10
-221.69499999570252
20
-73.633101530548885
10
-221.69499999570252
20
-60.233801530548902
42
0.41421356237309503
10
-221.99499999570253
20
-59.933801530548898
10
-235.39399999570253
20
-59.933801530548891
42
0.41421356237309503
0
LWPOLYLINE
5
186
100
AcDbEntity
8
0
100
AcDbPolyline
90
8
70
1
43
0.0
10
-197.59399999570257
20
-60.233801530548888
10
-197.59399999570257
20
-73.633101530548885
42
0.41421356237309503
10
-197.29399999570256
20
-73.933101530548896
10
-183.89499999570256
20
-73.933101530548882
42
0.41421356237309503
10
-183.59499999570255
20
-73.633101530548885
10
-183.59499999570255
20
-60.233801530548902
42
0.41421356237309503
10
-183.89499999570256
20
-59.933801530548898
10
-197.29399999570256
20
-59.933801530548891
42
0.41421356237309503
0
LWPOLYLINE
5
187
100
AcDbEntity
8
0
100
AcDbPolyline
90
8
70
1
43
0.0
10
-216.64399999570253
20
-60.233801530548888
10
-216.64399999570253
20
-73.633101530548885
42
0.41421356237309503
10
-216.34399999570252
20
-73.933101530548896
10
-202.94499999570257
20
-73.933101530548882
42
0.41421356237309503
10
-202.64499999570256
20
-73.633101530548885
10
-202.64499999570256
20
-60.233801530548902
42
0.41421356237309503
10
-202.94499999570257
20
-59.933801530548898
10
-216.34399999570252
20
-59.933801530548891
42
0.41421356237309503
0
LWPOLYLINE
5
188
100
AcDbEntity
8
0
100
AcDbPolyline
90
8
70
1
43
0.0
10
-345.23199999570244
20
-60.233801530548888
10
-345.23199999570244
20
-73.633101530548885
42
0.41421356237309503
10
-344.93199999570243
20
-73.933101530548896
10
-331.53199999570245
20
-73.933101530548882
42
0.41421356237309503
10
-331.23199999570249
20
-73.633101530548885
10
-331.23199999570249
20
-60.233801530548902
42
0.41421356237309503
10
-331.53199999570245
20
-59.933801530548898
10
-344.93199999570243
20
-59.933801530548891
42
0.41421356237309503
0
LWPOLYLINE
5
189
100
AcDbEntity
8
0
100
AcDbPolyline
90
8
70
1
43
0.0
10
-307.13199999570253
20
-79.283801530548899
10
-307.13199999570253
20
-92.683101530548896
42
0.41421356237309503
10
-306.83199999570252
20
-92.983101530548879
10
-293.43199999570254
20
-92.983101530548879
42
0.41421356237309503
10
-293.13199999570253
20
-92.683101530548896
10
-293.13199999570253
20
-79.283801530548899
42
0.41421356237309503
10
-293.43199999570254
20
-78.983801530548902
10
-306.83199999570252
20
-78.983801530548902
42
0.41421356237309503
0
LWPOLYLINE
5
190
100
AcDbEntity
8
0
100
AcDbPolyline
90
8
70
1
43
0.0
10
-312.18199999570254
20
-92.683101530548896
10
-312.18199999570254
20
-79.283801530548899
42
0.41421356237306034
10
-312.48199999570255
20
-78.983801530548902
10
-325.88199999570247
20
-78.983801530548902
42
0.41421356237309503
10
-326.18199999570254
20
-79.283801530548899
10
-326.18199999570254
20
-92.683101530548896
42
0.41421356237309503
10
-325.88199999570247
20
-92.983101530548879
10
-312.48199999570255
20
-92.983101530548879
42
0.41421356237309503
0
LWPOLYLINE
5
191
100
AcDbEntity
8
0
100
AcDbPolyline
90
8
70
1
43
0.0
10
-293.13199999570253
20
-118.43300153054889
10
-293.13199999570253
20
-105.03400153054889
42
0.41421356237309503
10
-293.43199999570254
20
-104.73400153054889
10
-306.83199999570252
20
-104.73400153054889
42
0.41421356237309503
10
-307.13199999570253
20
-105.03400153054889
10
-307.13199999570253
20
-118.43300153054889
42
0.41421356237309503
10
-306.83199999570252
20
-118.73300153054888
10
-293.43199999570254
20
-118.73300153054888
42
0.41421356237309503
0
LWPOLYLINE
5
192
100
AcDbEntity
8
0
100
AcDbPolyline
90
8
70
1
43
0.0
10
-331.23199999570249
20
-92.683101530548896
10
-331.23199999570249
20
-79.283801530548899
42
0.41421356237309503
10
-331.53199999570245
20
-78.983801530548902
10
-344.93199999570243
20
-78.983801530548902
42
0.41421356237309503
10
-345.23199999570244
20
-79.283801530548899
10
-345.23199999570244
20
-92.683101530548896
42
0.41421356237309503
10
-344.93199999570243
20
-92.983101530548879
10
-331.53199999570245
20
-92.983101530548879
42
0.41421356237309503
0
CIRCLE
5
193
100
AcDbEntity
8
0
100
AcDbCircle
10
-171.68699999570259
20
-11.258213030548934
30
6.3399049971285836e-25
40
2.1099999999999852
210
7.206475993393864e-58
220
-1.0339757656912846e-25
230
1
0
LINE
5
194
100
AcDbEntity
8
0
100
AcDbLine
10
-233.0129999957025
20
-2.7840526822130247
30
1.1700261686721606e-25
11
-217.23192292886688
21
-2.7840526822130025
31
1.1700261686721606e-25
0
ARC
5
195
100
AcDbEntity
8
0
100
AcDbCircle
10
-217.23192292886688
20
-3.0840492957379895
30
1.1700261686721606e-25
40
0.30000000000001137
210
7.6529580131656445e-40
220
1.0339757656912846e-25
230
1
100
AcDbArc
50
0
51
90
0
LINE
5
196
100
AcDbEntity
8
0
100
AcDbLine
10
-216.93192292886687
20
-3.0840492957379917
30
1.1700261686721606e-25
11
-216.93192292886687
21
-16.483101530548932
31
-3.9998526597842623e-25
0
ARC
5
197
100
AcDbEntity
8
0
100
AcDbCircle
10
-217.23192292886688
20
-16.483101530548932
30
6.3399049971285836e-25
40
0.30000000000000027
210
-5.9788734321018649e-42
220
1.0339757656912846e-25
230
1
100
AcDbArc
50
-90
51
0
0
LINE
5
198
100
AcDbEntity
8
0
100
AcDbLine
10
-217.23192292886688
20
-16.783101530548933
30
6.6500977268359697e-25
11
-233.0129999957025
21
-16.783101530548898
31
6.3399049971285836e-25
0
ARC
5
199
100
AcDbEntity
8
0
100
AcDbCircle
10
-233.0129999957025
20
-16.483101530548939
30
6.3399049971285836e-25
40
0.30000000000001137
210
0
220
1.0339757656912846e-25
230
1
100
AcDbArc
50
180
51
270
0
LINE
5
200
100
AcDbEntity
8
0
100
AcDbLine
10
-233.31299999570251
20
-16.483101530548939
30
6.3399049971285836e-25
11
-233.31299999570251
21
-3.0840492957379939
31
6.3399049971285836e-25
0
ARC
5
201
100
AcDbEntity
8
0
100
AcDbCircle
10
-233.0129999957025
20
-3.0840492957379939
30
-3.9998526597842623e-25
40
0.29999661352496931
210
-1.5407439495309156e-33
220
-1.7233123960001382e-24
230
1
100
AcDbArc
50
90
51
180
0
LWPOLYLINE
5
202
100
AcDbEntity
8
0
100
AcDbPolyline
90
8
70
1
43
0.0
10
-5.3006726210052824
20
-40.884049257255377
10
-23.462899995702525
20
-40.884049257255377
42
0.41421356237309936
10
-23.762899995702522
20
-41.184049257255367
10
-23.762899995702522
20
-54.583101530548895
42
0.41421356237309076
10
-23.462899995702529
20
-54.883101530548899
10
-5.300672621005285
20
-54.883101530548892
42
0.41421356237309614
10
-5.0006726210052852
20
-54.583101530548888
10
-5.0006726210052843
20
-41.184049257255367
42
0.41421356237309287
0
LWPOLYLINE
5
203
100
AcDbEntity
8
0
100
AcDbPolyline
90
8
70
1
43
0.0
10
-14.825899995702528
20
-21.833601530548897
10
-28.225399995702531
20
-21.833601530548897
42
0.41421356237309503
10
-28.525399995702529
20
-22.133601530548894
10
-28.525399995702536
20
-35.533001530548901
42
0.41421356237309936
10
-28.225399995702531
20
-35.833001530548898
10
-14.825899995702525
20
-35.833001530548898
42
0.41421356237309503
10
-14.525899995702527
20
-35.533001530548901
10
-14.525899995702527
20
-22.133601530548894
42
0.41421356237309503
0
CIRCLE
5
204
100
AcDbEntity
8
0
100
AcDbCircle
10
-25.097547515884372
20
-9.7835754239255532
30
6.3399049971285836e-25
40
2.1099999999999985
210
-1.5407439555097887e-33
220
1.0339757656912846e-25
230
1
0
LWPOLYLINE
5
205
100
AcDbEntity
8
0
100
AcDbPolyline
90
8
70
1
43
0.0
10
-5.3009099957025274
20
-2.7836415305488966
10
-21.081922928866724
20
-2.7836415305488966
42
0.41421356237309614
10
-21.381922928866732
20
-3.0836415305488973
10
-21.381922928866729
20
-16.483101530548883
42
0.41421356237309287
10
-21.081922928866735
20
-16.783101530548894
10
-5.300909995702531
20
-16.78310153054888
42
0.41421356237310153
10
-5.0009099957025258
20
-16.483101530548883
10
-5.0009099957025267
20
-3.0836415305488964
42
0.41421356237309503
0
LWPOLYLINE
5
206
100
AcDbEntity
8
0
100
AcDbPolyline
90
8
70
1
43
0.0
10
-29.111999995702519
20
-2.7836415305488966
10
-44.894422928866732
20
-2.7836415305488966
42
0.41421356237309614
10
-45.194422928866729
20
-3.0836415305488973
10
-45.194422928866736
20
-16.483101530548893
42
0.41421356237309503
10
-44.894422928866732
20
-16.783101530548898
10
-29.111999995702526
20
-16.783101530548887
42
0.41421356237309503
10
-28.811999995702525
20
-16.483101530548886
10
-28.811999995702525
20
-3.0836415305488964
42
0.41421356237309076
0
LWPOLYLINE
5
207
100
AcDbEntity
8
0
100
AcDbPolyline
90
8
70
1
43
0.0
10
-52.925999995702533
20
-2.7836415305488966
10
-68.706922928866746
20
-2.7836415305488966
42
0.41421356237309614
10
-69.006922928866743
20
-3.0836415305488973
10
-69.006922928866757
20
-16.483101530548897
42
0.41421356237309503
10
-68.706922928866746
20
-16.783101530548894
10
-52.925999995702533
20
-16.78310153054889
42
0.41421356237309503
10
-52.625999995702529
20
-16.483101530548893
10
-52.625999995702529
20
-3.0836415305488964
42
0.41421356237309503
0
LINE
5
208
100
AcDbEntity
8
0
100
AcDbLine
10
-124.06199999570255
20
-3.0840492957379659
30
1.1700261686721606e-25
11
-124.06199999570255
21
-16.483101530548907
31
1.1700261686721606e-25
0
ARC
5
209
100
AcDbEntity
8
0
100
AcDbCircle
10
-124.36199999570255
20
-16.483101530548907
30
6.3399049971285836e-25
40
0.30000000000000027
210
1.5684022270638583e-50
220
1.0339757656912846e-25
230
1
100
AcDbArc
50
-90
51
0
0
LINE
5
210
100
AcDbEntity
8
0
100
AcDbLine
10
-124.36199999570255
20
-16.783101530548908
30
6.6500977268359697e-25
11
-149.66942292886682
21
-16.783101530548898
31
6.3399049971285836e-25
0
ARC
5
211
100
AcDbEntity
8
0
100
AcDbCircle
10
-149.66942292886682
20
-16.483101530548915
30
6.3399049971285836e-25
40
0.29999999999999361
210
0
220
0
230
1
100
AcDbArc
50
180
51
270
0
LINE
5
212
100
AcDbEntity
8
0
100
AcDbLine
10
-149.96942292886681
20
-16.483101530548915
30
6.3399049971285836e-25
11
-149.96942292886678
21
-3.0840492957379739
31
6.3399049971285836e-25
0
ARC
5
213
100
AcDbEntity
8
0
100
AcDbCircle
10
-149.66942292886682
20
-3.084049295737973
30
-3.9998526597842623e-25
40
0.30000000000000027
210
5.9788734634699083e-42
220
1.0339757656912846e-25
230
1
100
AcDbArc
50
90
51
180
0
LINE
5
214
100
AcDbEntity
8
0
100
AcDbLine
10
-149.66942292886682
20
-2.7840492957379723
30
-4.3100453894916484e-25
11
-124.36199999570255
21
-2.7840513738022601
31
1.1700261686721606e-25
0
ARC
5
215
100
AcDbEntity
8
0
100
AcDbCircle
10
-124.36199999570255
20
-3.0840492957379659
30
1.1700261686721606e-25
40
0.29999999999999361
210
-0
220
1.0339757656912846e-25
230
1
100
AcDbArc
50
0
51
90
0
LWPOLYLINE
5
216
100
AcDbEntity
8
0
100
AcDbPolyline
90
8
70
1
43
0.0
10
-331.83199999570252
20
-2.7836415305488735
42
-0.41421356237309503
10
-331.23199999570249
20
-3.3836415305488954
10
-331.23199999570249
20
-16.183101530548896
42
-0.41421356237309503
10
-331.83199999570252
20
-16.783101530548898
10
-344.63199999570242
20
-16.783101530548919
42
-0.41421356237309503
10
-345.23199999570244
20
-16.183101530548896
10
-345.23199999570244
20
-3.3836415305488976
42
-0.41421356237309503
10
-344.63199999570242
20
-2.7836415305488975
0
LWPOLYLINE
5
217
100
AcDbEntity
8
0
100
AcDbPolyline
90
8
70
1
43
0.0
10
-312.78199999570256
20
-2.7836415305489091
42
-0.41421356237309453
10
-312.1819999957026
20
-3.3836415305488954
10
-312.18199999570254
20
-16.183101530548896
42
-0.41421356237309503
10
-312.78199999570256
20
-16.783101530548898
10
-325.58199999570252
20
-16.783101530548919
42
-0.41421356237309503
10
-326.18199999570254
20
-16.183101530548896
10
-326.18199999570254
20
-3.3836415305488976
42
-0.41421356237309503
10
-325.58199999570252
20
-2.7836415305488975
0
LWPOLYLINE
5
218
100
AcDbEntity
8
0
100
AcDbPolyline
90
8
70
1
43
0.0
10
-293.73199999570255
20
-2.7836415305489091
42
-0.41421356237309503
10
-293.13199999570259
20
-3.3836415305488954
10
-293.13199999570253
20
-16.183101530548896
42
-0.41421356237309503
10
-293.73199999570255
20
-16.783101530548898
10
-306.53199999570251
20
-16.783101530548883
42
-0.41421356237309503
10
-307.13199999570247
20
-16.183101530548896
10
-307.13199999570253
20
-3.3836415305488976
42
-0.41421356237309503
10
-306.53199999570256
20
-2.7836415305488975
0
LWPOLYLINE
5
219
100
AcDbEntity
8
0
100
AcDbPolyline
90
8
70
1
43
0.0
10
-347.55899999570249
20
1.4143054694511004
10
-0.58008459570249027
20
1.4143054694510984
42
-0.41421356237308959
10
1.419915404297474
20
-0.58569453054889919
10
1.419915404297476
20
-124.34250153054884
42
-0.4142135623730866
10
-0.58008459570245918
20
-126.34250153054884
10
-347.55899999570249
20
-126.34250153054882
42
-0.41421356237310802
10
-349.55899999570249
20
-124.34250153054884
10
-349.55899999570255
20
-0.58569453054889986
42
-0.4142135623731053
0
LWPOLYLINE
5
220
100
AcDbEntity
8
0
100
AcDbPolyline
90
8
70
1
43
0.0
10
-190.68799999570251
20
-1.0827715305488939
10
-190.68799999570251
20
-16.483101530548929
42
0.41421356237309503
10
-190.3879999957025
20
-16.783101530548894
10
-176.98699999570255
20
-16.783101530548926
42
0.41421356237309725
10
-176.68699999570254
20
-16.483101530548922
10
-176.68699999570254
20
-1.0827715305488941
42
0.41421356237309304
10
-176.98699999570255
20
-0.78277153054889581
10
-190.3879999957025
20
-0.78277153054889603
42
0.41421356237309287
0
LWPOLYLINE
5
221
100
AcDbEntity
8
0
100
AcDbPolyline
90
8
70
1
43
0.0
10
-209.19999999570254
20
-16.783101530548898
10
-193.41899999570256
20
-16.783101530548898
42
0.41421356237309503
10
-193.11899999570255
20
-16.483101530548929
10
-193.11899999570255
20
-3.0836415305488973
42
0.41421356237309614
10
-193.41899999570256
20
-2.7836415305488948
10
-209.19999999570254
20
-2.7836415305488957
42
0.41421356237309614
10
-209.49999999570255
20
-3.0836415305488973
10
-209.49999999570255
20
-16.483101530548932
42
0.41421356237309503
0
LINE
5
222
100
AcDbEntity
8
0
100
AcDbLine
10
-256.82499999570257
20
-2.7840530670398813
30
-3.9998526597842623e-25
11
-241.04442292886691
21
-2.7840530670398769
31
-3.9998526597842623e-25
0
ARC
5
223
100
AcDbEntity
8
0
100
AcDbCircle
10
-241.04442292886691
20
-3.0840492957379957
30
-3.9998526597842623e-25
40
0.30000000000001137
210
1.9132395032914111e-40
220
1.0339757656912846e-25
230
1
100
AcDbArc
50
0
51
90
0
LINE
5
224
100
AcDbEntity
8
0
100
AcDbLine
10
-240.7444229288669
20
-3.0840492957379961
30
-3.9998526597842623e-25
11
-240.74442292886692
21
-16.483101530548939
31
-3.9998526597842623e-25
0
ARC
5
225
100
AcDbEntity
8
0
100
AcDbCircle
10
-241.04442292886691
20
-16.483101530548939
30
6.3399049971285836e-25
40
0.30000000000000027
210
1.5407439435520417e-33
220
1.0339757656912846e-25
230
1
100
AcDbArc
50
-90
51
0
0
LINE
5
226
100
AcDbEntity
8
0
100
AcDbLine
10
-241.04442292886691
20
-16.78310153054894
30
6.6500977268359697e-25
11
-256.82499999570257
21
-16.783101530548898
31
6.3399049971285836e-25
0
ARC
5
227
100
AcDbEntity
8
0
100
AcDbCircle
10
-256.82499999570257
20
-16.483101530548943
30
-1.4339610316697108e-24
40
0.30000000000001137
210
0
220
1.0339757656912846e-25
230
1
100
AcDbArc
50
180
51
270
0
LINE
5
228
100
AcDbEntity
8
0
100
AcDbLine
10
-257.12499999570258
20
-16.483101530548943
30
-1.4339610316697108e-24
11
-257.12499999570252
21
-3.0840492957380006
31
-1.4339610316697108e-24
0
ARC
5
229
100
AcDbEntity
8
0
100
AcDbCircle
10
-256.82499999570257
20
-3.0840492957379997
30
1.1700261686721606e-25
40
0.29999622869811837
210
-1.5407439495309156e-33
220
1.7233146066175364e-24
230
1
100
AcDbArc
50
90
51
180
0
LINE
5
230
100
AcDbEntity
8
0
100
AcDbLine
10
-264.55692292886704
20
-3.0840492957380006
30
6.3399049971285836e-25
11
-264.55692292886704
21
-16.483101530548943
31
6.3399049971285836e-25
0
ARC
5
231
100
AcDbEntity
8
0
100
AcDbCircle
10
-264.85692292886699
20
-16.483101530548943
30
-1.4339610316697108e-24
40
0.30000000000000027
210
1.5684022270638583e-50
220
1.0339757656912846e-25
230
1
100
AcDbArc
50
-90
51
0
0
LINE
5
232
100
AcDbEntity
8
0
100
AcDbLine
10
-264.85692292886699
20
-16.783101530548944
30
-1.4029417586989722e-24
11
-280.63799999570256
21
-16.783101530548898
31
6.3399049971285836e-25
0
ARC
5
233
100
AcDbEntity
8
0
100
AcDbCircle
10
-280.63799999570256
20
-16.48310153054895
30
-1.4339610316697108e-24
40
0.30000000000001137
210
0
220
1.0339757656912846e-25
230
1
100
AcDbArc
50
180
51
270
0
LINE
5
234
100
AcDbEntity
8
0
100
AcDbLine
10
-280.93799999570257
20
-16.48310153054895
30
-1.4339610316697108e-24
11
-280.93799999570257
21
-3.084049295738005
31
-1.4339610316697108e-24
0
ARC
5
235
100
AcDbEntity
8
0
100
AcDbCircle
10
-280.63799999570256
20
-3.084049295738005
30
1.1700261686721606e-25
40
0.30000000000000027
210
-1.5407439495309156e-33
220
1.0339757656912838e-25
230
1
100
AcDbArc
50
90
51
180
0
LINE
5
236
100
AcDbEntity
8
0
100
AcDbLine
10
-280.63799999570256
20
-2.7840492957380047
30
8.5983343896477521e-26
11
-264.85692292886699
21
-2.784053451866495
31
-3.9998526597842623e-25
0
ARC
5
237
100
AcDbEntity
8
0
100
AcDbCircle
10
-264.85692292886699
20
-3.0840492957380015
30
6.3399049971285836e-25
40
0.29999999999997584
210
-3.8264790065832766e-40
220
1.0339757656912848e-25
230
1
100
AcDbArc
50
0
51
90
0
LWPOLYLINE
5
238
100
AcDbEntity
8
0
100
AcDbPolyline
90
8
70
1
43
0.0
10
-90.138099995702532
20
-16.783101530548894
10
-76.986999995702533
20
-16.783101530548894
42
0.41421356237309503
10
-76.686999995702536
20
-16.483101530548897
10
-76.686999995702521
20
-1.0827715305488983
42
0.4142135623731048
10
-76.986999995702533
20
-0.78277153054889581
10
-90.138099995702547
20
-0.78277153054889603
42
0.41421356237309287
10
-90.438099995702544
20
-1.0827715305488939
10
-90.438099995702544
20
-16.4831015305489
42
0.41421356237311241
0
ENDSEC
0
SECTION
2
OBJECTS
0
DICTIONARY
5
C
100
AcDbDictionary
3
ACAD_GROUP
350
D
3
ACAD_MLINESTYLE
350
17
0
DICTIONARY
5
D
100
AcDbDictionary
0
DICTIONARY
5
1A
330
C
100
AcDbDictionary
0
DICTIONARY
5
17
100
AcDbDictionary
0
ENDSEC
0
EOF
