0
SECTION
2
HEADER
9
$INSUNITS
70
4
9
$ACADVER
1
AC1014
9
$HANDSEED
5
FFFF
0
ENDSEC
0
SECTION
2
TABLES
0
TABLE
2
VPORT
5
8
100
AcDbSymbolTable
0
ENDTAB
0
TABLE
2
LTYPE
5
5
100
AcDbSymbolTable
0
LTYPE
5
14
100
AcDbSymbolTableRecord
100
AcDbLinetypeTableRecord
2
BYBLOCK
70
0
0
LTYPE
5
15
100
AcDbSymbolTableRecord
100
AcDbLinetypeTableRecord
2
BYLAYER
70
0
0
ENDTAB
0
TABLE
2
LAYER
5
2
100
AcDbSymbolTable
70
2
0
LAYER
5
50
100
AcDbSymbolTableRecord
100
AcDbLayerTableRecord
2
0
70
0
6
CONTINUOUS
0
ENDTAB
0
TABLE
2
STYLE
5
3
100
AcDbSymbolTable
70
1
0
STYLE
5
11
100
AcDbSymbolTableRecord
100
AcDbTextStyleTableRecord
2
STANDARD
70
0
0
ENDTAB
0
TABLE
2
VIEW
5
6
100
AcDbSymbolTable
70
0
0
ENDTAB
0
TABLE
2
UCS
5
7
100
AcDbSymbolTable
70
0
0
ENDTAB
0
TABLE
2
APPID
5
9
100
AcDbSymbolTable
70
2
0
APPID
5
12
100
AcDbSymbolTableRecord
100
AcDbRegAppTableRecord
2
ACAD
70
0
0
ENDTAB
0
TABLE
2
DIMSTYLE
5
A
100
AcDbSymbolTable
70
1
0
ENDTAB
0
TABLE
2
BLOCK_RECORD
5
1
100
AcDbSymbolTable
70
1
0
BLOCK_RECORD
5
1F
100
AcDbSymbolTableRecord
100
AcDbBlockTableRecord
2
*MODEL_SPACE
0
BLOCK_RECORD
5
1B
100
AcDbSymbolTableRecord
100
AcDbBlockTableRecord
2
*PAPER_SPACE
0
ENDTAB
0
ENDSEC
0
SECTION
2
BLOCKS
0
BLOCK
5
20
100
AcDbEntity
100
AcDbBlockBegin
2
*MODEL_SPACE
0
ENDBLK
5
21
100
AcDbEntity
100
AcDbBlockEnd
0
BLOCK
5
1C
100
AcDbEntity
100
AcDbBlockBegin
2
*PAPER_SPACE
0
ENDBLK
5
1D
100
AcDbEntity
100
AcDbBlockEnd
0
ENDSEC
0
SECTION
2
ENTITIES
0
LWPOLYLINE
5
100
100
AcDbEntity
8
0
100
AcDbPolyline
90
17
70
1
43
0.0
10
-44.594422928866742
20
-16.783101530548898
10
-39.300399995702513
20
-16.783101530548919
42
-0.41421356237309243
10
-38.300399995702534
20
-17.783101530548898
10
-38.300399995702513
20
-37.333001530548898
42
0.4142135623730937
10
-37.300399995702513
20
-38.333001530548898
10
-24.762899995702533
20
-38.333001530548913
42
-0.41421356237309764
10
-23.762899995702533
20
-39.333001530548906
10
-23.762899995702522
20
-54.28310153054889
42
0.41421356237309287
10
-23.162899995702524
20
-54.883101530548899
10
-5.6006726210052911
20
-54.883101530548892
42
0.41421356237309825
10
-5.0006726210052861
20
-54.28310153054889
10
-5.0006726210052879
20
-3.3836415305488963
10
-5.0009099957025267
20
-3.3836415305488963
42
0.42505412964276634
10
-5.62302677563145
20
-2.7840492957379581
10
-44.594422928866734
20
-2.7840492957379577
42
0.41421356237309992
10
-45.194422928866729
20
-3.3840492957379587
10
-45.194422928866736
20
-16.183101530548896
42
0.41421356237309503
0
LINE
5
101
100
AcDbEntity
8
0
100
AcDbLine
10
-52.625999995702529
20
-3.3840513738022726
30
-3.9998526597842623e-25
11
-52.625999995702529
21
-16.1831015305489
31
-3.9998526597842623e-25
0
ARC
5
102
100
AcDbEntity
8
0
100
AcDbCircle
10
-53.225999995702537
20
-16.1831015305489
30
-1.4339610316697108e-24
40
0.60000000000000053
210
-5.9788734321018674e-42
220
1.0339757656912846e-25
230
1
100
AcDbArc
50
-90
51
0
0
LINE
5
103
100
AcDbEntity
8
0
100
AcDbLine
10
-53.225999995702537
20
-16.783101530548901
30
-1.3719224857282336e-24
11
-68.406922928866749
21
-16.783101530548905
31
6.3399049971285836e-25
0
ARC
5
104
100
AcDbEntity
8
0
100
AcDbCircle
10
-68.406922928866749
20
-16.1831015305489
30
-1.4339610316697108e-24
40
0.59999999999999609
210
1.5407436340855622e-33
220
1.0339757656912846e-25
230
1
100
AcDbArc
50
180
51
270
0
LINE
5
105
100
AcDbEntity
8
0
100
AcDbLine
10
-69.006922928866743
20
-16.183101530548903
30
-1.4339610307452644e-24
11
-69.006922928866729
21
-3.3840513738022748
31
-1.4339610316697108e-24
0
ARC
5
106
100
AcDbEntity
8
0
100
AcDbCircle
10
-68.406922928866749
20
-3.3840513738022726
30
-3.9998526597842623e-25
40
0.59999999999999998
210
1.5407439435520417e-33
220
1.0339757656912846e-25
230
1
100
AcDbArc
50
90
51
180
0
LINE
5
107
100
AcDbEntity
8
0
100
AcDbLine
10
-68.406922928866749
20
-2.7840513738022725
30
-4.6202381191990327e-25
11
-53.225999995702516
21
-2.7840500653913836
31
1.1700261686721606e-25
0
ARC
5
108
100
AcDbEntity
8
0
100
AcDbCircle
10
-53.225999995702537
20
-3.3840513738022731
30
-3.9998526597842623e-25
40
0.60000000000000497
210
-9.566197516457339e-41
220
1.0339757656912846e-25
230
1
100
AcDbArc
50
0
51
89.999999999997954
0
LWPOLYLINE
5
109
100
AcDbEntity
8
0
100
AcDbPolyline
90
32
70
1
43
0.0
10
1.419915404297474
20
-0.58569453054889919
10
1.419915404297476
20
-124.34250153054884
42
-0.4142135623730866
10
-0.58008459570245918
20
-126.34250153054884
10
-347.55899999570249
20
-126.34250153054882
42
-0.41421356237310802
10
-349.55899999570249
20
-124.34250153054884
10
-349.55899999570255
20
-0.58569453054889986
42
-0.4142135623731053
10
-347.55899999570249
20
1.4143054694511004
10
-204.99999999570258
20
1.4143054694510759
42
-0.41421356237310542
10
-203.99999999570255
20
0.41430546945109725
10
-203.99999999570252
20
-1.7836415305488982
42
-0.41421356237310503
10
-204.99999999570258
20
-2.7836415305488966
10
-208.89999999570256
20
-2.7836415305488975
42
0.41421356237309503
10
-209.49999999570255
20
-3.3836415305488976
10
-209.49999999570255
20
-16.183101530548896
42
0.41421356237309503
10
-208.89999999570256
20
-16.783101530548898
10
-204.99999999570258
20
-16.783101530548919
42
-0.41421356237310542
10
-203.99999999570255
20
-17.783101530548898
10
-203.99999999570252
20
-18.53310153054894
42
0.41421356237309503
10
-202.9999999957025
20
-19.533101530548937
10
-176.43699999570256
20
-19.53310153054894
42
0.41421356237309503
10
-175.43699999570254
20
-18.53310153054894
10
-175.43699999570254
20
-1.2356945305489013
42
-0.41421356237307383
10
-174.43699999570254
20
-0.23569453054890527
10
-92.810174477867506
20
-0.23569453054890888
42
-0.41421356237309437
10
-91.810174477867506
20
-1.2356945305489031
10
-91.810174477867506
20
-18.933101530548946
42
0.4142135623731048
10
-91.210174477867483
20
-19.533101530548937
10
-76.186999995702521
20
-19.53310153054894
42
0.41421356237309503
10
-75.186999995702521
20
-18.53310153054894
10
-75.186999995702536
20
0.41430546945109692
42
-0.4142135623730957
10
-74.186999995702536
20
1.4143054694511004
10
-0.58008459570249071
20
1.4143054694510984
42
-0.41421356237308965
0
LWPOLYLINE
5
110
100
AcDbEntity
8
0
100
AcDbPolyline
90
8
70
1
43
0.0
10
-124.06199999570255
20
-16.183101530548896
10
-124.06199999570255
20
-3.3840513738022731
42
0.41421356237309503
10
-124.66199999570257
20
-2.7840513738022743
10
-149.36942292886678
20
-2.7840513738022725
42
0.41421356237309614
10
-149.96942292886678
20
-3.3840513738022748
10
-149.96942292886681
20
-16.183101530548896
42
0.41421356237309503
10
-149.36942292886681
20
-16.783101530548898
10
-124.66199999570253
20
-16.783101530548898
42
0.41421356237309503
0
LWPOLYLINE
5
111
100
AcDbEntity
8
0
100
AcDbPolyline
90
28
70
1
43
0.0
10
-242.3759999957025
20
-19.832801530548867
10
-241.34442292886689
20
-19.832801530548863
42
0.41421356237309398
10
-240.74442292886692
20
-19.232801530548866
10
-240.7444229288669
20
-3.3840530670399005
42
0.41421356237309453
10
-241.34442292886689
20
-2.7840530670399044
10
-280.33799999570255
20
-2.7840530670399017
42
0.41421356237309559
10
-280.93799999570257
20
-3.3840530670399027
10
-280.93799999570257
20
-16.28310153054888
42
-0.41421356237302481
10
-281.43799999570257
20
-16.783101530548876
10
-282.71942277493622
20
-16.78310153054888
42
0.41421356237309503
10
-283.31942277493619
20
-17.383101530548881
10
-283.31942231314417
20
-96.35850152237991
42
0.41421356237309503
10
-282.31942231314412
20
-97.358501522379896
10
-251.26942231314419
20
-97.358501522379896
42
0.41421356237309503
10
-250.26942231314422
20
-96.35850152237991
10
-250.26942231314416
20
-74.433101530548896
42
-0.4142135623730222
10
-249.76942231314416
20
-73.933101530548896
10
-241.34499999570252
20
-73.933101530548896
42
0.41421356237309503
10
-240.74499999570253
20
-73.333101530548902
10
-240.74499999570259
20
-60.533801530548892
42
0.41421356237309503
10
-241.34499999570255
20
-59.933801530548898
10
-247.13699999570252
20
-59.933801530548934
42
-0.4142135623730222
10
-247.63699999570252
20
-59.433801530548905
10
-247.63699999570252
20
-39.882801530548896
42
-0.41421356237307422
10
-246.63699999570252
20
-38.882801530548896
10
-243.87599999570253
20
-38.882801530548896
42
0.41421356237309503
10
-242.8759999957025
20
-37.882801530548896
10
-242.87599999570247
20
-20.332801530548863
42
-0.4142135623730222
0
LINE
5
112
100
AcDbEntity
8
0
100
AcDbLine
10
-233.31299999570251
20
-16.1831015305489
30
-1.4339610316697108e-24
11
-233.31299999570251
21
-3.3840530670399027
31
-1.4339610316697108e-24
0
ARC
5
113
100
AcDbEntity
8
0
100
AcDbCircle
10
-232.71299999570255
20
-3.3840530670399014
30
1.1700261686721606e-25
40
0.59999999999999998
210
5.9788734634699083e-42
220
1.0339757656912846e-25
230
1
100
AcDbArc
50
90
51
180
0
LINE
5
114
100
AcDbEntity
8
0
100
AcDbLine
10
-232.71299999570255
20
-2.7840530670399017
30
5.496407092573899e-26
11
-217.53192292886683
21
-2.7840526822130407
31
-3.9998526597842623e-25
0
ARC
5
115
100
AcDbEntity
8
0
100
AcDbCircle
10
-217.53192292886683
20
-3.3840530670399014
30
1.1700261686721606e-25
40
0.59999999999998721
210
-1.5407441602264485e-33
220
1.0339757656912846e-25
230
1
100
AcDbArc
50
0
51
90
0
LINE
5
116
100
AcDbEntity
8
0
100
AcDbLine
10
-216.93192292886687
20
-3.3840530670399005
30
1.1700261779166245e-25
11
-216.93192292886687
21
-16.1831015305489
31
1.1700261686721606e-25
0
ARC
5
117
100
AcDbEntity
8
0
100
AcDbCircle
10
-217.53192292886683
20
-16.1831015305489
30
-1.4339610316697108e-24
40
0.60000000000000053
210
-1.5407439495309156e-33
220
1.0339757656912846e-25
230
1
100
AcDbArc
50
-90
51
0
0
LINE
5
118
100
AcDbEntity
8
0
100
AcDbLine
10
-217.53192292886683
20
-16.783101530548901
30
-1.3719224857282336e-24
11
-232.71299999570255
21
-16.783101530548905
31
6.3399049971285836e-25
0
ARC
5
119
100
AcDbEntity
8
0
100
AcDbCircle
10
-232.71299999570255
20
-16.1831015305489
30
-1.4339610316697108e-24
40
0.59999999999998721
210
0
220
1.0339757656912846e-25
230
1
100
AcDbArc
50
180
51
270
0
LWPOLYLINE
5
120
100
AcDbEntity
8
0
100
AcDbPolyline
90
8
70
1
43
0.0
10
-293.73199999570255
20
-2.7836415305488966
10
-306.53199999570256
20
-2.7836415305488966
42
0.41421356237309453
10
-307.13199999570253
20
-3.3836415305488954
10
-307.13199999570247
20
-16.183101530548896
42
0.41421356237309503
10
-306.53199999570251
20
-16.783101530548898
10
-293.73199999570255
20
-16.783101530548898
42
0.41421356237309503
10
-293.13199999570253
20
-16.183101530548896
10
-293.13199999570259
20
-3.3836415305488954
42
0.41421356237309453
0
LWPOLYLINE
5
121
100
AcDbEntity
8
0
100
AcDbPolyline
90
8
70
1
43
0.0
10
-345.23199999570244
20
-3.3836415305488954
10
-345.23199999570244
20
-16.183101530548896
42
0.41421356237309503
10
-344.63199999570247
20
-16.783101530548898
10
-331.83199999570252
20
-16.783101530548898
42
0.41421356237309503
10
-331.23199999570249
20
-16.183101530548896
10
-331.23199999570249
20
-3.3836415305488963
42
0.41421356237309503
10
-331.83199999570252
20
-2.7836415305488966
10
-344.63199999570242
20
-2.7836415305488966
42
0.41421356237309453
0
LWPOLYLINE
5
122
100
AcDbEntity
8
0
100
AcDbPolyline
90
8
70
1
43
0.0
10
-312.18199999570254
20
-16.183101530548896
10
-312.18199999570254
20
-3.3836415305488954
42
0.41421356237307771
10
-312.78199999570251
20
-2.7836415305488966
10
-325.58199999570252
20
-2.7836415305488953
42
0.41421356237309503
10
-326.18199999570254
20
-3.3836415305488954
10
-326.18199999570254
20
-16.183101530548896
42
0.41421356237309503
10
-325.58199999570252
20
-16.783101530548898
10
-312.78199999570256
20
-16.783101530548898
42
0.41421356237309503
0
LWPOLYLINE
5
123
100
AcDbEntity
8
0
100
AcDbPolyline
90
8
70
1
43
0.0
10
-312.78199999570256
20
-21.833601530548897
10
-325.58199999570252
20
-21.833601530548897
42
0.41421356237309503
10
-326.18199999570254
20
-22.433601530548898
10
-326.18199999570254
20
-35.233001530548897
42
0.41421356237309503
10
-325.58199999570252
20
-35.833001530548898
10
-312.78199999570256
20
-35.833001530548898
42
0.41421356237309503
10
-312.18199999570254
20
-35.233001530548897
10
-312.1819999957026
20
-22.433601530548898
42
0.41421356237307771
0
LWPOLYLINE
5
124
100
AcDbEntity
8
0
100
AcDbPolyline
90
8
70
1
43
0.0
10
-45.482199995702516
20
-35.233001530548897
10
-45.482199995702516
20
-22.433601530548898
42
0.41421356237309503
10
-46.082199995702517
20
-21.833601530548897
10
-58.881499995702519
20
-21.833601530548897
42
0.41421356237309503
10
-59.481499995702521
20
-22.433601530548898
10
-59.481499995702535
20
-35.233001530548897
42
0.41421356237309503
10
-58.881499995702534
20
-35.833001530548898
10
-46.082199995702517
20
-35.833001530548898
42
0.41421356237309503
0
LWPOLYLINE
5
125
100
AcDbEntity
8
0
100
AcDbPolyline
90
8
70
1
43
0.0
10
-198.48199999570258
20
-21.833601530548897
10
-211.28199999570259
20
-21.833601530548897
42
0.41421356237309503
10
-211.88199999570256
20
-22.433601530548898
10
-211.88199999570256
20
-35.233001530548897
42
0.41421356237309503
10
-211.28199999570256
20
-35.833001530548898
10
-198.48199999570255
20
-35.833001530548898
42
0.41421356237309503
10
-197.88199999570256
20
-35.233001530548897
10
-197.88199999570259
20
-22.433601530548898
42
0.41421356237309503
0
LWPOLYLINE
5
126
100
AcDbEntity
8
0
100
AcDbPolyline
90
8
70
1
43
0.0
10
-179.43199999570251
20
-21.833601530548897
10
-192.23199999570258
20
-21.833601530548897
42
0.41421356237309503
10
-192.83199999570255
20
-22.433601530548898
10
-192.83199999570255
20
-35.233001530548897
42
0.41421356237309503
10
-192.23199999570255
20
-35.833001530548898
10
-179.43199999570251
20
-35.833001530548898
42
0.41421356237309503
10
-178.83199999570252
20
-35.233001530548897
10
-178.83199999570252
20
-22.433601530548898
42
0.41421356237309503
0
LWPOLYLINE
5
127
100
AcDbEntity
8
0
100
AcDbPolyline
90
8
70
1
43
0.0
10
-160.38199999570256
20
-21.833601530548897
10
-173.18199999570257
20
-21.833601530548897
42
0.41421356237309503
10
-173.78199999570256
20
-22.433601530548898
10
-173.78199999570256
20
-35.233001530548897
42
0.41421356237309503
10
-173.18199999570257
20
-35.833001530548898
10
-160.38199999570253
20
-35.833001530548898
42
0.41421356237309503
10
-159.78199999570253
20
-35.233001530548897
10
-159.78199999570256
20
-22.433601530548898
42
0.41421356237309503
0
LWPOLYLINE
5
128
100
AcDbEntity
8
0
100
AcDbPolyline
90
8
70
1
43
0.0
10
-141.33199999570255
20
-21.833601530548897
10
-154.13199999570256
20
-21.833601530548897
42
0.41421356237309503
10
-154.73199999570252
20
-22.433601530548898
10
-154.73199999570252
20
-35.233001530548897
42
0.41421356237309503
10
-154.13199999570253
20
-35.833001530548898
10
-141.33199999570255
20
-35.833001530548898
42
0.41421356237309503
10
-140.73199999570252
20
-35.233001530548897
10
-140.73199999570255
20
-22.433601530548898
42
0.41421356237309503
0
LWPOLYLINE
5
129
100
AcDbEntity
8
0
100
AcDbPolyline
90
8
70
1
43
0.0
10
-122.28199999570253
20
-21.833601530548897
10
-135.08199999570255
20
-21.833601530548897
42
0.41421356237309503
10
-135.68199999570257
20
-22.433601530548898
10
-135.68199999570257
20
-35.233001530548897
42
0.41421356237309503
10
-135.08199999570255
20
-35.833001530548898
10
-122.28199999570253
20
-35.833001530548898
42
0.41421356237309503
10
-121.68199999570254
20
-35.233001530548897
10
-121.68199999570254
20
-22.433601530548898
42
0.41421356237309503
0
LWPOLYLINE
5
130
100
AcDbEntity
8
0
100
AcDbPolyline
90
8
70
1
43
0.0
10
-103.23199999570252
20
-21.833601530548897
10
-116.03199999570253
20
-21.833601530548897
42
0.41421356237309503
10
-116.63199999570254
20
-22.433601530548898
10
-116.63199999570254
20
-35.233001530548897
42
0.41421356237309503
10
-116.03199999570253
20
-35.833001530548898
10
-103.23199999570255
20
-35.833001530548898
42
0.41421356237309503
10
-102.63199999570254
20
-35.233001530548897
10
-102.63199999570253
20
-22.433601530548898
42
0.41421356237309503
0
LWPOLYLINE
5
131
100
AcDbEntity
8
0
100
AcDbPolyline
90
8
70
1
43
0.0
10
-84.182199995702547
20
-21.833601530548897
10
-96.981499995702507
20
-21.833601530548897
42
0.41421356237309503
10
-97.581499995702529
20
-22.433601530548898
10
-97.581499995702529
20
-35.233001530548897
42
0.41421356237309503
10
-96.981499995702535
20
-35.833001530548898
10
-84.182199995702547
20
-35.833001530548898
42
0.41421356237309503
10
-83.582199995702538
20
-35.233001530548897
10
-83.582199995702538
20
-22.433601530548898
42
0.41421356237309503
0
LWPOLYLINE
5
132
100
AcDbEntity
8
0
100
AcDbPolyline
90
8
70
1
43
0.0
10
-65.132199995702521
20
-21.833601530548897
10
-77.931499995702524
20
-21.833601530548897
42
0.41421356237309503
10
-78.531499995702518
20
-22.433601530548898
10
-78.531499995702504
20
-35.233001530548897
42
0.41421356237309503
10
-77.931499995702509
20
-35.833001530548898
10
-65.132199995702521
20
-35.833001530548898
42
0.41421356237309503
10
-64.532199995702527
20
-35.233001530548897
10
-64.532199995702527
20
-22.433601530548898
42
0.41421356237309503
0
LWPOLYLINE
5
133
100
AcDbEntity
8
0
100
AcDbPolyline
90
8
70
1
43
0.0
10
-216.93199999570257
20
-35.233001530548897
10
-216.93199999570257
20
-22.433601530548898
42
0.41421356237309503
10
-217.53199999570259
20
-21.833601530548897
10
-230.33199999570257
20
-21.833601530548897
42
0.41421356237309503
10
-230.93199999570257
20
-22.433601530548898
10
-230.93199999570257
20
-35.233001530548897
42
0.41421356237309503
10
-230.33199999570257
20
-35.833001530548898
10
-217.53199999570256
20
-35.833001530548898
42
0.41421356237309503
0
LWPOLYLINE
5
134
100
AcDbEntity
8
0
100
AcDbPolyline
90
8
70
1
43
0.0
10
-35.957199995702524
20
-54.28310153054889
10
-35.957199995702524
20
-41.483801530548888
42
0.41421356237309287
10
-36.557199995702511
20
-40.883801530548894
10
-49.356499995702514
20
-40.883801530548894
42
0.41421356237309503
10
-49.956499995702529
20
-41.483801530548888
10
-49.956499995702529
20
-54.28310153054889
42
0.41421356237309503
10
-49.356499995702528
20
-54.883101530548899
10
-36.557199995702526
20
-54.883101530548892
42
0.41421356237309503
0
LWPOLYLINE
5
135
100
AcDbEntity
8
0
100
AcDbPolyline
90
8
70
1
43
0.0
10
-208.00699999570256
20
-40.883801530548894
10
-220.80699999570257
20
-40.883801530548894
42
0.41421356237309503
10
-221.40699999570256
20
-41.483801530548888
10
-221.40699999570256
20
-54.28310153054889
42
0.41421356237309503
10
-220.80699999570257
20
-54.883101530548899
10
-208.00699999570256
20
-54.883101530548892
42
0.41421356237309503
10
-207.40699999570256
20
-54.28310153054889
10
-207.40699999570256
20
-41.483801530548888
42
0.41421356237309503
0
LWPOLYLINE
5
136
100
AcDbEntity
8
0
100
AcDbPolyline
90
8
70
1
43
0.0
10
-188.95699999570252
20
-40.883801530548894
10
-201.75699999570256
20
-40.883801530548894
42
0.41421356237309503
10
-202.35699999570255
20
-41.483801530548888
10
-202.35699999570255
20
-54.28310153054889
42
0.41421356237309503
10
-201.75699999570256
20
-54.883101530548899
10
-188.95699999570252
20
-54.883101530548892
42
0.41421356237309503
10
-188.35699999570252
20
-54.28310153054889
10
-188.35699999570252
20
-41.483801530548888
42
0.41421356237309503
0
LWPOLYLINE
5
137
100
AcDbEntity
8
0
100
AcDbPolyline
90
8
70
1
43
0.0
10
-169.90699999570253
20
-40.883801530548894
10
-182.70699999570257
20
-40.883801530548894
42
0.41421356237309503
10
-183.30699999570257
20
-41.483801530548888
10
-183.30699999570257
20
-54.28310153054889
42
0.41421356237309503
10
-182.70699999570257
20
-54.883101530548899
10
-169.90699999570253
20
-54.883101530548892
42
0.41421356237309503
10
-169.30699999570254
20
-54.28310153054889
10
-169.30699999570254
20
-41.483801530548888
42
0.41421356237309503
0
LWPOLYLINE
5
138
100
AcDbEntity
8
0
100
AcDbPolyline
90
8
70
1
43
0.0
10
-150.85699999570252
20
-40.883801530548894
10
-163.65699999570256
20
-40.883801530548894
42
0.41421356237309503
10
-164.25699999570256
20
-41.483801530548888
10
-164.25699999570256
20
-54.28310153054889
42
0.41421356237309503
10
-163.65699999570256
20
-54.883101530548899
10
-150.85699999570255
20
-54.883101530548892
42
0.41421356237309503
10
-150.25699999570253
20
-54.28310153054889
10
-150.25699999570253
20
-41.483801530548888
42
0.41421356237309503
0
LWPOLYLINE
5
139
100
AcDbEntity
8
0
100
AcDbPolyline
90
8
70
1
43
0.0
10
-131.80699999570251
20
-40.883801530548894
10
-144.60699999570252
20
-40.883801530548894
42
0.41421356237309503
10
-145.20699999570252
20
-41.483801530548888
10
-145.20699999570252
20
-54.28310153054889
42
0.41421356237309503
10
-144.60699999570252
20
-54.883101530548899
10
-131.80699999570254
20
-54.883101530548892
42
0.41421356237309503
10
-131.20699999570252
20
-54.28310153054889
10
-131.20699999570252
20
-41.483801530548888
42
0.41421356237309503
0
LWPOLYLINE
5
140
100
AcDbEntity
8
0
100
AcDbPolyline
90
8
70
1
43
0.0
10
-112.75699999570257
20
-40.883801530548894
10
-125.55699999570257
20
-40.883801530548894
42
0.41421356237309503
10
-126.15699999570255
20
-41.483801530548888
10
-126.15699999570255
20
-54.28310153054889
42
0.41421356237309503
10
-125.55699999570254
20
-54.883101530548899
10
-112.75699999570256
20
-54.883101530548892
42
0.41421356237309503
10
-112.15699999570255
20
-54.28310153054889
10
-112.15699999570256
20
-41.483801530548888
42
0.41421356237309503
0
LWPOLYLINE
5
141
100
AcDbEntity
8
0
100
AcDbPolyline
90
8
70
1
43
0.0
10
-93.707199995702553
20
-40.883801530548894
10
-106.50699999570257
20
-40.883801530548894
42
0.41421356237309503
10
-107.10699999570255
20
-41.483801530548888
10
-107.10699999570255
20
-54.28310153054889
42
0.41421356237309503
10
-106.50699999570256
20
-54.883101530548899
10
-93.707199995702553
20
-54.883101530548892
42
0.41421356237309503
10
-93.107199995702544
20
-54.28310153054889
10
-93.107199995702544
20
-41.483801530548888
42
0.41421356237309503
0
LWPOLYLINE
5
142
100
AcDbEntity
8
0
100
AcDbPolyline
90
8
70
1
43
0.0
10
-74.657199995702527
20
-40.883801530548894
10
-87.456499995702544
20
-40.883801530548894
42
0.41421356237309503
10
-88.056499995702524
20
-41.483801530548888
10
-88.056499995702524
20
-54.28310153054889
42
0.41421356237310375
10
-87.456499995702501
20
-54.883101530548899
10
-74.657199995702513
20
-54.883101530548892
42
0.41421356237309503
10
-74.057199995702518
20
-54.28310153054889
10
-74.057199995702533
20
-41.483801530548888
42
0.41421356237309936
0
LWPOLYLINE
5
143
100
AcDbEntity
8
0
100
AcDbPolyline
90
8
70
1
43
0.0
10
-55.607199995702523
20
-40.883801530548894
10
-68.406499995702518
20
-40.883801530548894
42
0.41421356237309503
10
-69.006499995702526
20
-41.483801530548888
10
-69.006499995702526
20
-54.28310153054889
42
0.41421356237309503
10
-68.406499995702532
20
-54.883101530548899
10
-55.607199995702523
20
-54.883101530548892
42
0.41421356237309503
10
-55.007199995702521
20
-54.28310153054889
10
-55.007199995702521
20
-41.483801530548888
42
0.41421356237309503
0
LWPOLYLINE
5
144
100
AcDbEntity
8
0
100
AcDbPolyline
90
8
70
1
43
0.0
10
-226.45699999570255
20
-54.28310153054889
10
-226.45699999570255
20
-41.483801530548888
42
0.41421356237309503
10
-227.05699999570254
20
-40.883801530548894
10
-239.85699999570255
20
-40.883801530548894
42
0.41421356237309503
10
-240.45699999570252
20
-41.483801530548888
10
-240.45699999570252
20
-54.28310153054889
42
0.41421356237309503
10
-239.85699999570255
20
-54.883101530548899
10
-227.05699999570254
20
-54.883101530548892
42
0.41421356237309503
0
LWPOLYLINE
5
145
100
AcDbEntity
8
0
100
AcDbPolyline
90
8
70
1
43
0.0
10
-345.23199999570244
20
-60.533801530548899
10
-345.23199999570244
20
-73.333101530548902
42
0.41421356237309503
10
-344.63199999570242
20
-73.933101530548896
10
-331.83199999570252
20
-73.933101530548896
42
0.41421356237309503
10
-331.23199999570249
20
-73.333101530548902
10
-331.23199999570249
20
-60.533801530548892
42
0.41421356237309503
10
-331.83199999570252
20
-59.933801530548898
10
-344.63199999570242
20
-59.933801530548905
42
0.41421356237309503
0
LWPOLYLINE
5
146
100
AcDbEntity
8
0
100
AcDbPolyline
90
8
70
1
43
0.0
10
-44.593999995702525
20
-73.933101530548896
10
-31.794699995702523
20
-73.933101530548896
42
0.41421356237309503
10
-31.194699995702525
20
-73.333101530548902
10
-31.194699995702543
20
-60.533801530548892
42
0.41421356237309503
10
-31.794699995702544
20
-59.933801530548898
10
-44.593999995702546
20
-59.933801530548898
42
0.41421356237309503
10
-45.193999995702526
20
-60.533801530548892
10
-45.193999995702526
20
-73.333101530548902
42
0.41421356237309503
0
LWPOLYLINE
5
147
100
AcDbEntity
8
0
100
AcDbPolyline
90
8
70
1
43
0.0
10
-63.643999995702529
20
-73.933101530548896
10
-50.844699995702527
20
-73.933101530548896
42
0.41421356237309503
10
-50.244699995702533
20
-73.333101530548902
10
-50.24469999570254
20
-60.533801530548892
42
0.41421356237309503
10
-50.844699995702534
20
-59.933801530548898
10
-63.643999995702536
20
-59.933801530548898
42
0.41421356237309503
10
-64.243999995702524
20
-60.533801530548892
10
-64.243999995702524
20
-73.333101530548902
42
0.41421356237309503
0
LWPOLYLINE
5
148
100
AcDbEntity
8
0
100
AcDbPolyline
90
8
70
1
43
0.0
10
-82.693999995702512
20
-73.933101530548896
10
-69.894699995702524
20
-73.933101530548896
42
0.41421356237309503
10
-69.29469999570253
20
-73.333101530548902
10
-69.294699995702516
20
-60.533801530548892
42
0.41421356237309936
10
-69.894699995702524
20
-59.933801530548898
10
-82.693999995702512
20
-59.933801530548898
42
0.41421356237309503
10
-83.293999995702535
20
-60.533801530548892
10
-83.293999995702535
20
-73.333101530548902
42
0.41421356237310375
0
LWPOLYLINE
5
149
100
AcDbEntity
8
0
100
AcDbPolyline
90
8
70
1
43
0.0
10
-101.74399999570254
20
-73.933101530548896
10
-88.94469999570255
20
-73.933101530548896
42
0.41421356237309503
10
-88.344699995702541
20
-73.333101530548902
10
-88.344699995702527
20
-60.533801530548892
42
0.41421356237309503
10
-88.944699995702535
20
-59.933801530548898
10
-101.74399999570252
20
-59.933801530548898
42
0.41421356237309503
10
-102.34399999570255
20
-60.533801530548892
10
-102.34399999570255
20
-73.333101530548902
42
0.41421356237309503
0
LWPOLYLINE
5
150
100
AcDbEntity
8
0
100
AcDbPolyline
90
8
70
1
43
0.0
10
-120.79399999570253
20
-73.933101530548896
10
-107.99499999570253
20
-73.933101530548896
42
0.41421356237309503
10
-107.39499999570253
20
-73.333101530548902
10
-107.39499999570255
20
-60.533801530548892
42
0.41421356237309503
10
-107.99499999570256
20
-59.933801530548898
10
-120.79399999570253
20
-59.933801530548898
42
0.41421356237309503
10
-121.39399999570253
20
-60.533801530548892
10
-121.39399999570253
20
-73.333101530548902
42
0.41421356237309503
0
LWPOLYLINE
5
151
100
AcDbEntity
8
0
100
AcDbPolyline
90
8
70
1
43
0.0
10
-139.84399999570252
20
-73.933101530548896
10
-127.04499999570254
20
-73.933101530548896
42
0.41421356237309503
10
-126.44499999570255
20
-73.333101530548902
10
-126.44499999570256
20
-60.533801530548892
42
0.41421356237309503
10
-127.04499999570257
20
-59.933801530548898
10
-139.84399999570255
20
-59.933801530548898
42
0.41421356237309503
10
-140.44399999570254
20
-60.533801530548892
10
-140.44399999570254
20
-73.333101530548902
42
0.41421356237309503
0
LWPOLYLINE
5
152
100
AcDbEntity
8
0
100
AcDbPolyline
90
8
70
1
43
0.0
10
-158.89399999570253
20
-73.933101530548896
10
-146.09499999570255
20
-73.933101530548896
42
0.41421356237309503
10
-145.49499999570256
20
-73.333101530548902
10
-145.49499999570256
20
-60.533801530548892
42
0.41421356237309503
10
-146.09499999570258
20
-59.933801530548898
10
-158.89399999570256
20
-59.933801530548898
42
0.41421356237309503
10
-159.49399999570255
20
-60.533801530548892
10
-159.49399999570255
20
-73.333101530548902
42
0.41421356237309503
0
LWPOLYLINE
5
153
100
AcDbEntity
8
0
100
AcDbPolyline
90
8
70
1
43
0.0
10
-177.94399999570257
20
-73.933101530548896
10
-165.14499999570251
20
-73.933101530548896
42
0.41421356237309503
10
-164.54499999570254
20
-73.333101530548902
10
-164.54499999570254
20
-60.533801530548892
42
0.41421356237309503
10
-165.14499999570251
20
-59.933801530548898
10
-177.94399999570257
20
-59.933801530548898
42
0.41421356237309503
10
-178.54399999570256
20
-60.533801530548892
10
-178.54399999570256
20
-73.333101530548902
42
0.41421356237309503
0
LWPOLYLINE
5
154
100
AcDbEntity
8
0
100
AcDbPolyline
90
8
70
1
43
0.0
10
-196.99399999570258
20
-73.933101530548896
10
-184.19499999570252
20
-73.933101530548896
42
0.41421356237309503
10
-183.59499999570255
20
-73.333101530548902
10
-183.59499999570255
20
-60.533801530548892
42
0.41421356237309503
10
-184.19499999570252
20
-59.933801530548898
10
-196.99399999570258
20
-59.933801530548898
42
0.41421356237309503
10
-197.59399999570257
20
-60.533801530548892
10
-197.59399999570257
20
-73.333101530548902
42
0.41421356237309503
0
LWPOLYLINE
5
155
100
AcDbEntity
8
0
100
AcDbPolyline
90
8
70
1
43
0.0
10
-216.04399999570256
20
-73.933101530548896
10
-203.24499999570253
20
-73.933101530548896
42
0.41421356237309503
10
-202.64499999570256
20
-73.333101530548902
10
-202.64499999570256
20
-60.533801530548892
42
0.41421356237309503
10
-203.24499999570253
20
-59.933801530548898
10
-216.04399999570251
20
-59.933801530548898
42
0.41421356237309503
10
-216.64399999570253
20
-60.533801530548892
10
-216.64399999570253
20
-73.333101530548902
42
0.41421356237309503
0
LWPOLYLINE
5
156
100
AcDbEntity
8
0
100
AcDbPolyline
90
8
70
1
43
0.0
10
-235.09399999570257
20
-73.933101530548896
10
-222.29499999570251
20
-73.933101530548896
42
0.41421356237309503
10
-221.69499999570252
20
-73.333101530548902
10
-221.69499999570257
20
-60.533801530548892
42
0.41421356237309503
10
-222.29499999570254
20
-59.933801530548898
10
-235.09399999570252
20
-59.933801530548898
42
0.41421356237309503
10
-235.69399999570254
20
-60.533801530548892
10
-235.69399999570254
20
-73.333101530548902
42
0.41421356237309503
0
LWPOLYLINE
5
157
100
AcDbEntity
8
0
100
AcDbPolyline
90
8
70
1
43
0.0
10
-306.53199999570256
20
-73.933101530548896
10
-293.73199999570255
20
-73.933101530548896
42
0.41421356237309503
10
-293.13199999570253
20
-73.333101530548902
10
-293.13199999570253
20
-60.533801530548892
42
0.41421356237309503
10
-293.73199999570249
20
-59.933801530548898
10
-306.53199999570251
20
-59.933801530548898
42
0.41421356237309503
10
-307.13199999570253
20
-60.533801530548892
10
-307.13199999570253
20
-73.333101530548902
42
0.41421356237309503
0
LWPOLYLINE
5
158
100
AcDbEntity
8
0
100
AcDbPolyline
90
8
70
1
43
0.0
10
-325.58199999570252
20
-73.933101530548896
10
-312.78199999570256
20
-73.933101530548896
42
0.41421356237309503
10
-312.18199999570254
20
-73.333101530548902
10
-312.18199999570254
20
-60.533801530548892
42
0.41421356237307771
10
-312.78199999570245
20
-59.933801530548898
10
-325.58199999570252
20
-59.933801530548898
42
0.41421356237309503
10
-326.18199999570254
20
-60.533801530548892
10
-326.18199999570254
20
-73.333101530548902
42
0.41421356237309503
0
LWPOLYLINE
5
159
100
AcDbEntity
8
0
100
AcDbPolyline
90
8
70
1
43
0.0
10
-21.381699995702522
20
-60.533801530548892
10
-21.381699995702522
20
-73.333101530548902
42
0.41421356237309503
10
-20.781699995702525
20
-73.933101530548896
10
-7.9821599957025233
20
-73.933101530548896
42
0.41421356237309503
10
-7.3821599957025246
20
-73.333101530548902
10
-7.382159995702489
20
-60.533801530548892
42
0.41421356237309398
10
-7.9821599957024869
20
-59.933801530548898
10
-20.781699995702525
20
-59.933801530548898
42
0.41421356237309503
0
LWPOLYLINE
5
160
100
AcDbEntity
8
0
100
AcDbPolyline
90
8
70
1
43
0.0
10
-3.2196499957025226
20
-78.983801530548902
10
-16.019199995702522
20
-78.983801530548902
42
0.41421356237309503
10
-16.619199995702523
20
-79.583801530548897
10
-16.61919999570252
20
-92.383101530548885
42
0.41421356237309503
10
-16.019199995702522
20
-92.983101530548879
10
-3.2196499957025098
20
-92.983101530548879
42
0.41421356237309503
10
-2.6196499957025225
20
-92.383101530548885
10
-2.6196499957025239
20
-79.583801530548897
42
0.41421356237309453
0
LWPOLYLINE
5
161
100
AcDbEntity
8
0
100
AcDbPolyline
90
8
70
1
43
0.0
10
-21.669699995702523
20
-92.383101530548885
10
-21.669699995702523
20
-79.583801530548897
42
0.41421356237309503
10
-22.269699995702524
20
-78.983801530548902
10
-35.068999995702526
20
-78.983801530548902
42
0.41421356237309503
10
-35.668999995702528
20
-79.583801530548897
10
-35.668999995702542
20
-92.383101530548885
42
0.41421356237309503
10
-35.068999995702541
20
-92.983101530548879
10
-22.269699995702538
20
-92.983101530548879
42
0.41421356237309503
0
LWPOLYLINE
5
162
100
AcDbEntity
8
0
100
AcDbPolyline
90
8
70
1
43
0.0
10
-40.719699995702527
20
-92.383101530548885
10
-40.719699995702527
20
-79.583801530548897
42
0.41421356237309503
10
-41.319699995702521
20
-78.983801530548902
10
-54.118999995702524
20
-78.983801530548902
42
0.41421356237309503
10
-54.718999995702518
20
-79.583801530548897
10
-54.718999995702532
20
-92.383101530548885
42
0.41421356237309503
10
-54.118999995702531
20
-92.983101530548879
10
-41.319699995702528
20
-92.983101530548879
42
0.41421356237309503
0
LWPOLYLINE
5
163
100
AcDbEntity
8
0
100
AcDbPolyline
90
8
70
1
43
0.0
10
-59.769699995702524
20
-92.383101530548885
10
-59.769699995702524
20
-79.583801530548897
42
0.41421356237309503
10
-60.369699995702526
20
-78.983801530548902
10
-73.168999995702521
20
-78.983801530548902
42
0.41421356237309503
10
-73.768999995702515
20
-79.583801530548897
10
-73.768999995702501
20
-92.383101530548885
42
0.41421356237309503
10
-73.168999995702507
20
-92.983101530548879
10
-60.36969999570254
20
-92.983101530548879
42
0.41421356237309503
0
LWPOLYLINE
5
164
100
AcDbEntity
8
0
100
AcDbPolyline
90
8
70
1
43
0.0
10
-78.819699995702521
20
-92.383101530548885
10
-78.819699995702521
20
-79.583801530548897
42
0.41421356237309936
10
-79.41969999570253
20
-78.983801530548902
10
-92.218999995702532
20
-78.983801530548902
42
0.41421356237309503
10
-92.818999995702541
20
-79.583801530548897
10
-92.818999995702512
20
-92.383101530548885
42
0.41421356237309503
10
-92.218999995702518
20
-92.983101530548879
10
-79.419699995702501
20
-92.983101530548879
42
0.41421356237309503
0
LWPOLYLINE
5
165
100
AcDbEntity
8
0
100
AcDbPolyline
90
8
70
1
43
0.0
10
-97.868299995702557
20
-92.383101530548885
10
-97.868299995702557
20
-79.583801530548897
42
0.41421356237309503
10
-98.468299995702552
20
-78.983801530548902
10
-111.26899999570254
20
-78.983801530548902
42
0.41421356237309503
10
-111.86899999570255
20
-79.583801530548897
10
-111.86899999570252
20
-92.383101530548885
42
0.41421356237309503
10
-111.26899999570253
20
-92.983101530548879
10
-98.46829999570258
20
-92.983101530548879
42
0.41421356237309503
0
LWPOLYLINE
5
166
100
AcDbEntity
8
0
100
AcDbPolyline
90
8
70
1
43
0.0
10
-116.91799999570253
20
-92.383101530548885
10
-116.91799999570253
20
-79.583801530548897
42
0.41421356237309503
10
-117.51799999570254
20
-78.983801530548902
10
-130.31899999570251
20
-78.983801530548902
42
0.41421356237309503
10
-130.91899999570251
20
-79.583801530548897
10
-130.91899999570253
20
-92.383101530548885
42
0.41421356237309503
10
-130.31899999570254
20
-92.983101530548879
10
-117.51799999570255
20
-92.983101530548879
42
0.41421356237309503
0
LWPOLYLINE
5
167
100
AcDbEntity
8
0
100
AcDbPolyline
90
8
70
1
43
0.0
10
-135.96999999570255
20
-92.383101530548885
10
-135.96999999570255
20
-79.583801530548897
42
0.41421356237309503
10
-136.56999999570255
20
-78.983801530548902
10
-149.36899999570252
20
-78.983801530548902
42
0.41421356237309503
10
-149.96899999570252
20
-79.583801530548897
10
-149.96899999570255
20
-92.383101530548885
42
0.41421356237309503
10
-149.36899999570255
20
-92.983101530548879
10
-136.56999999570257
20
-92.983101530548879
42
0.41421356237309503
0
LWPOLYLINE
5
168
100
AcDbEntity
8
0
100
AcDbPolyline
90
8
70
1
43
0.0
10
-155.01999999570256
20
-92.383101530548885
10
-155.01999999570256
20
-79.583801530548897
42
0.41421356237309503
10
-155.61999999570256
20
-78.983801530548902
10
-168.41899999570256
20
-78.983801530548902
42
0.41421356237309503
10
-169.01899999570253
20
-79.583801530548897
10
-169.01899999570253
20
-92.383101530548885
42
0.41421356237309503
10
-168.41899999570256
20
-92.983101530548879
10
-155.61999999570259
20
-92.983101530548879
42
0.41421356237309503
0
LWPOLYLINE
5
169
100
AcDbEntity
8
0
100
AcDbPolyline
90
8
70
1
43
0.0
10
-174.06999999570252
20
-92.383101530548885
10
-174.06999999570252
20
-79.583801530548897
42
0.41421356237309503
10
-174.66999999570251
20
-78.983801530548902
10
-187.46899999570257
20
-78.983801530548902
42
0.41421356237309503
10
-188.06899999570254
20
-79.583801530548897
10
-188.06899999570254
20
-92.383101530548885
42
0.41421356237309503
10
-187.46899999570257
20
-92.983101530548879
10
-174.66999999570251
20
-92.983101530548879
42
0.41421356237309503
0
LWPOLYLINE
5
170
100
AcDbEntity
8
0
100
AcDbPolyline
90
8
70
1
43
0.0
10
-193.11999999570253
20
-92.383101530548885
10
-193.11999999570253
20
-79.583801530548897
42
0.41421356237309503
10
-193.71999999570252
20
-78.983801530548902
10
-206.51899999570259
20
-78.983801530548902
42
0.41421356237309503
10
-207.11899999570255
20
-79.583801530548897
10
-207.11899999570255
20
-92.383101530548885
42
0.41421356237309503
10
-206.51899999570259
20
-92.983101530548879
10
-193.71999999570252
20
-92.983101530548879
42
0.41421356237309503
0
LWPOLYLINE
5
171
100
AcDbEntity
8
0
100
AcDbPolyline
90
8
70
1
43
0.0
10
-212.16999999570251
20
-92.383101530548885
10
-212.16999999570251
20
-79.583801530548897
42
0.41421356237309503
10
-212.76999999570251
20
-78.983801530548902
10
-225.56899999570254
20
-78.983801530548902
42
0.41421356237309503
10
-226.16899999570253
20
-79.583801530548897
10
-226.16899999570256
20
-92.383101530548885
42
0.41421356237309503
10
-225.5689999957026
20
-92.983101530548879
10
-212.76999999570248
20
-92.983101530548879
42
0.41421356237309503
0
LWPOLYLINE
5
172
100
AcDbEntity
8
0
100
AcDbPolyline
90
8
70
1
43
0.0
10
-231.21999999570252
20
-92.383101530548885
10
-231.21999999570252
20
-79.583801530548897
42
0.41421356237309503
10
-231.81999999570252
20
-78.983801530548902
10
-244.61899999570255
20
-78.983801530548902
42
0.41421356237309503
10
-245.21899999570255
20
-79.583801530548897
10
-245.21899999570257
20
-92.383101530548885
42
0.41421356237309503
10
-244.61899999570261
20
-92.983101530548879
10
-231.81999999570249
20
-92.983101530548879
42
0.41421356237309503
0
LWPOLYLINE
5
173
100
AcDbEntity
8
0
100
AcDbPolyline
90
8
70
1
43
0.0
10
-293.13199999570253
20
-92.383101530548885
10
-293.13199999570253
20
-79.583801530548897
42
0.41421356237309503
10
-293.73199999570255
20
-78.983801530548902
10
-306.53199999570256
20
-78.983801530548902
42
0.41421356237309503
10
-307.13199999570253
20
-79.583801530548897
10
-307.13199999570259
20
-92.383101530548885
42
0.41421356237309503
10
-306.53199999570256
20
-92.983101530548879
10
-293.73199999570255
20
-92.983101530548879
42
0.41421356237309503
0
LWPOLYLINE
5
174
100
AcDbEntity
8
0
100
AcDbPolyline
90
8
70
1
43
0.0
10
-331.83199999570252
20
-78.983801530548902
10
-344.63199999570242
20
-78.983801530548902
42
0.41421356237309503
10
-345.23199999570244
20
-79.583801530548911
10
-345.23199999570244
20
-92.383101530548885
42
0.41421356237309503
10
-344.63199999570242
20
-92.983101530548879
10
-331.83199999570252
20
-92.983101530548879
42
0.41421356237309503
10
-331.23199999570249
20
-92.383101530548885
10
-331.23199999570249
20
-79.583801530548897
42
0.41421356237309503
0
LWPOLYLINE
5
175
100
AcDbEntity
8
0
100
AcDbPolyline
90
8
70
1
43
0.0
10
-312.78199999570245
20
-78.983801530548902
10
-325.58199999570252
20
-78.983801530548902
42
0.41421356237309503
10
-326.18199999570254
20
-79.583801530548897
10
-326.18199999570254
20
-92.383101530548885
42
0.41421356237309503
10
-325.58199999570252
20
-92.983101530548879
10
-312.78199999570256
20
-92.983101530548879
42
0.41421356237309503
10
-312.18199999570254
20
-92.383101530548885
10
-312.18199999570254
20
-79.583801530548897
42
0.41421356237307771
0
LWPOLYLINE
5
176
100
AcDbEntity
8
0
100
AcDbPolyline
90
8
70
1
43
0.0
10
-345.23199999570244
20
-105.3340015305489
10
-345.23199999570244
20
-118.13300153054888
42
0.41421356237309503
10
-344.63199999570242
20
-118.73300153054888
10
-331.83199999570252
20
-118.73300153054888
42
0.41421356237309503
10
-331.23199999570249
20
-118.13300153054888
10
-331.23199999570249
20
-105.3340015305489
42
0.41421356237309503
10
-331.83199999570252
20
-104.73400153054889
10
-344.63199999570242
20
-104.73400153054889
42
0.41421356237309503
0
LWPOLYLINE
5
177
100
AcDbEntity
8
0
100
AcDbPolyline
90
8
70
1
43
0.0
10
-326.18199999570254
20
-105.3340015305489
10
-326.18199999570254
20
-118.13300153054888
42
0.41421356237309503
10
-325.58199999570252
20
-118.73300153054888
10
-312.78199999570256
20
-118.73300153054888
42
0.41421356237309503
10
-312.18199999570254
20
-118.13300153054888
10
-312.1819999957026
20
-105.3340015305489
42
0.41421356237307771
10
-312.78199999570256
20
-104.73400153054889
10
-325.58199999570252
20
-104.73400153054889
42
0.41421356237309503
0
LWPOLYLINE
5
178
100
AcDbEntity
8
0
100
AcDbPolyline
90
8
70
1
43
0.0
10
-307.13199999570253
20
-105.3340015305489
10
-307.13199999570253
20
-118.13300153054888
42
0.41421356237309503
10
-306.53199999570256
20
-118.73300153054888
10
-293.73199999570255
20
-118.73300153054888
42
0.41421356237309503
10
-293.13199999570253
20
-118.13300153054888
10
-293.13199999570259
20
-105.3340015305489
42
0.41421356237309503
10
-293.73199999570255
20
-104.73400153054889
10
-306.53199999570256
20
-104.73400153054889
42
0.41421356237309503
0
LWPOLYLINE
5
179
100
AcDbEntity
8
0
100
AcDbPolyline
90
8
70
1
43
0.0
10
-283.3189999957026
20
-105.3340015305489
10
-283.3189999957026
20
-118.13300153054888
42
0.41421356237309503
10
-282.71899999570257
20
-118.73300153054888
10
-269.91999999570254
20
-118.73300153054888
42
0.41421356237309503
10
-269.31999999570257
20
-118.13300153054888
10
-269.31999999570257
20
-105.3340015305489
42
0.41421356237309503
10
-269.91999999570254
20
-104.73400153054889
10
-282.71899999570263
20
-104.73400153054889
42
0.41421356237309503
0
LWPOLYLINE
5
180
100
AcDbEntity
8
0
100
AcDbPolyline
90
8
70
1
43
0.0
10
-264.26899999570259
20
-105.3340015305489
10
-264.26899999570259
20
-118.13300153054888
42
0.41421356237309503
10
-263.66899999570256
20
-118.73300153054888
10
-250.86999999570253
20
-118.73300153054888
42
0.41421356237309503
10
-250.26999999570253
20
-118.13300153054888
10
-250.26999999570253
20
-105.3340015305489
42
0.41421356237309503
10
-250.86999999570253
20
-104.73400153054889
10
-263.66899999570256
20
-104.73400153054889
42
0.41421356237309503
0
LWPOLYLINE
5
181
100
AcDbEntity
8
0
100
AcDbPolyline
90
8
70
1
43
0.0
10
-245.21899999570255
20
-105.3340015305489
10
-245.21899999570255
20
-118.13300153054888
42
0.41421356237309503
10
-244.61899999570255
20
-118.73300153054888
10
-231.81999999570252
20
-118.73300153054888
42
0.41421356237309503
10
-231.21999999570252
20
-118.13300153054888
10
-231.21999999570252
20
-105.3340015305489
42
0.41421356237309503
10
-231.81999999570252
20
-104.73400153054889
10
-244.61899999570255
20
-104.73400153054889
42
0.41421356237309503
0
LWPOLYLINE
5
182
100
AcDbEntity
8
0
100
AcDbPolyline
90
8
70
1
43
0.0
10
-226.16899999570253
20
-105.3340015305489
10
-226.16899999570253
20
-118.13300153054888
42
0.41421356237309503
10
-225.56899999570254
20
-118.73300153054888
10
-212.76999999570251
20
-118.73300153054888
42
0.41421356237309503
10
-212.16999999570251
20
-118.13300153054888
10
-212.16999999570251
20
-105.3340015305489
42
0.41421356237309503
10
-212.76999999570251
20
-104.73400153054889
10
-225.56899999570254
20
-104.73400153054889
42
0.41421356237309503
0
LWPOLYLINE
5
183
100
AcDbEntity
8
0
100
AcDbPolyline
90
8
70
1
43
0.0
10
-197.59399999570257
20
-105.3340015305489
10
-197.59399999570257
20
-118.13300153054888
42
0.41421356237309503
10
-196.99399999570258
20
-118.73300153054888
10
-184.19499999570252
20
-118.73300153054888
42
0.41421356237309503
10
-183.59499999570255
20
-118.13300153054888
10
-183.59499999570255
20
-105.3340015305489
42
0.41421356237309503
10
-184.19499999570252
20
-104.73400153054889
10
-196.99399999570258
20
-104.73400153054889
42
0.41421356237309503
0
LWPOLYLINE
5
184
100
AcDbEntity
8
0
100
AcDbPolyline
90
8
70
1
43
0.0
10
-178.54399999570256
20
-105.3340015305489
10
-178.54399999570256
20
-118.13300153054888
42
0.41421356237309503
10
-177.94399999570257
20
-118.73300153054888
10
-165.14499999570251
20
-118.73300153054888
42
0.41421356237309503
10
-164.54499999570254
20
-118.13300153054888
10
-164.54499999570254
20
-105.3340015305489
42
0.41421356237309503
10
-165.14499999570251
20
-104.73400153054889
10
-177.94399999570257
20
-104.73400153054889
42
0.41421356237309503
0
LWPOLYLINE
5
185
100
AcDbEntity
8
0
100
AcDbPolyline
90
8
70
1
43
0.0
10
-159.49399999570255
20
-105.3340015305489
10
-159.49399999570255
20
-118.13300153054888
42
0.41421356237309503
10
-158.89399999570253
20
-118.73300153054888
10
-146.09499999570255
20
-118.73300153054888
42
0.41421356237309503
10
-145.49499999570256
20
-118.13300153054888
10
-145.49499999570256
20
-105.3340015305489
42
0.41421356237309503
10
-146.09499999570258
20
-104.73400153054889
10
-158.89399999570256
20
-104.73400153054889
42
0.41421356237309503
0
LWPOLYLINE
5
186
100
AcDbEntity
8
0
100
AcDbPolyline
90
8
70
1
43
0.0
10
-140.44399999570254
20
-105.3340015305489
10
-140.44399999570254
20
-118.13300153054888
42
0.41421356237309503
10
-139.84399999570252
20
-118.73300153054888
10
-127.04499999570254
20
-118.73300153054888
42
0.41421356237309503
10
-126.44499999570255
20
-118.13300153054888
10
-126.44499999570256
20
-105.3340015305489
42
0.41421356237309503
10
-127.04499999570257
20
-104.73400153054889
10
-139.84399999570255
20
-104.73400153054889
42
0.41421356237309503
0
LWPOLYLINE
5
187
100
AcDbEntity
8
0
100
AcDbPolyline
90
8
70
1
43
0.0
10
-111.86899999570255
20
-105.3340015305489
10
-111.86899999570255
20
-118.13300153054888
42
0.41421356237309503
10
-111.26899999570254
20
-118.73300153054888
10
-98.468299995702552
20
-118.73300153054888
42
0.41421356237309503
10
-97.868299995702557
20
-118.13300153054888
10
-97.868299995702557
20
-105.3340015305489
42
0.41421356237309503
10
-98.468299995702552
20
-104.73400153054889
10
-111.26899999570254
20
-104.73400153054889
42
0.41421356237309503
0
LWPOLYLINE
5
188
100
AcDbEntity
8
0
100
AcDbPolyline
90
8
70
1
43
0.0
10
-92.818999995702541
20
-105.3340015305489
10
-92.818999995702541
20
-118.13300153054888
42
0.41421356237310375
10
-92.218999995702518
20
-118.73300153054888
10
-79.419699995702501
20
-118.73300153054888
42
0.41421356237309503
10
-78.819699995702507
20
-118.13300153054888
10
-78.819699995702507
20
-105.3340015305489
42
0.41421356237310375
10
-79.41969999570253
20
-104.73400153054889
10
-92.218999995702532
20
-104.73400153054889
42
0.41421356237309503
0
LWPOLYLINE
5
189
100
AcDbEntity
8
0
100
AcDbPolyline
90
8
70
1
43
0.0
10
-73.768999995702501
20
-105.3340015305489
10
-73.768999995702501
20
-118.13300153054888
42
0.41421356237309503
10
-73.168999995702507
20
-118.73300153054888
10
-60.369699995702518
20
-118.73300153054888
42
0.41421356237309503
10
-59.769699995702517
20
-118.13300153054888
10
-59.769699995702517
20
-105.3340015305489
42
0.41421356237309503
10
-60.369699995702518
20
-104.73400153054889
10
-73.168999995702521
20
-104.73400153054889
42
0.41421356237309503
0
LWPOLYLINE
5
190
100
AcDbEntity
8
0
100
AcDbPolyline
90
8
70
1
43
0.0
10
-54.718999995702511
20
-105.3340015305489
10
-54.718999995702511
20
-118.13300153054888
42
0.41421356237309503
10
-54.118999995702524
20
-118.73300153054888
10
-41.319699995702514
20
-118.73300153054888
42
0.41421356237309503
10
-40.719699995702513
20
-118.13300153054888
10
-40.719699995702513
20
-105.3340015305489
42
0.41421356237309503
10
-41.319699995702514
20
-104.73400153054889
10
-54.118999995702509
20
-104.73400153054889
42
0.41421356237309503
0
LWPOLYLINE
5
191
100
AcDbEntity
8
0
100
AcDbPolyline
90
8
70
1
43
0.0
10
-3.2196499957025226
20
-104.73400153054889
10
-16.019199995702522
20
-104.73400153054889
42
0.41421356237309503
10
-16.619199995702523
20
-105.3340015305489
10
-16.619199995702523
20
-118.13300153054888
42
0.41421356237309503
10
-16.019199995702522
20
-118.73300153054888
10
-3.2196499957025222
20
-118.73300153054888
42
0.41421356237309503
10
-2.6196499957025217
20
-118.13300153054888
10
-2.6196499957025221
20
-105.3340015305489
42
0.41421356237309531
0
LWPOLYLINE
5
192
100
AcDbEntity
8
0
100
AcDbPolyline
90
4
70
1
43
0.0
10
-317.90065005784368
20
-100.35850152237992
42
-0.99999999999999989
10
-317.90065005784368
20
-97.358501522379925
10
-287.81942231314429
20
-97.358501522379953
42
-0.99999999999999989
10
-287.81942231314417
20
-100.35850152237992
0
LWPOLYLINE
5
193
100
AcDbEntity
8
0
100
AcDbPolyline
90
4
70
1
43
0.0
10
-330.40064999570262
20
-101.60850152237991
10
-325.40064999570262
20
-101.60850152237991
42
0.99999999999999989
10
-325.40064999570262
20
-96.108501522379939
10
-330.40064999570262
20
-96.108501522379939
42
0.99999999999999989
0
LWPOLYLINE
5
194
100
AcDbEntity
8
0
100
AcDbPolyline
90
4
70
1
43
0.0
10
-184.20065005784375
20
-97.358501522379925
42
-0.99999999999999989
10
-184.20065005784375
20
-100.35850152237992
10
-245.76942231314274
20
-100.35850152237853
42
-0.99999999999999989
10
-245.76942231314564
20
-97.358501522379896
0
LWPOLYLINE
5
195
100
AcDbEntity
8
0
100
AcDbPolyline
90
4
70
1
43
0.0
10
-164.20065005784375
20
-100.35850152237992
10
-30.50065005784376
20
-100.35850152237992
42
0.99999999999999989
10
-30.500650057843774
20
-97.358501522379925
10
-164.20065005784375
20
-97.358501522379925
42
0.99999999999999989
0
CIRCLE
5
196
100
AcDbEntity
8
0
100
AcDbCircle
10
-174.20065005784375
20
-98.858501522379925
30
1.5109651219390843e-23
40
2.7499999999999858
210
-1.5407439555097887e-33
220
1.0339757656912846e-25
230
1
0
LWPOLYLINE
5
197
100
AcDbEntity
8
0
100
AcDbPolyline
90
4
70
1
43
0.0
10
-23.000650057843764
20
-101.60850152237992
10
-18.00065005784375
20
-101.60850152237992
42
0.99999999999999989
10
-18.000650057843728
20
-96.108501522379925
10
-23.00065005784375
20
-96.108501522379925
42
0.99999999999999989
0
ENDSEC
0
SECTION
2
OBJECTS
0
DICTIONARY
5
C
100
AcDbDictionary
3
ACAD_GROUP
350
D
3
ACAD_MLINESTYLE
350
17
0
DICTIONARY
5
D
100
AcDbDictionary
0
DICTIONARY
5
1A
330
C
100
AcDbDictionary
0
DICTIONARY
5
17
100
AcDbDictionary
0
ENDSEC
0
EOF
