  0
SECTION
  2
HEADER
  9
$ACADVER
  1
AC1027
  9
$ACADMAINTVER
 70
   125
  9
$DWGCODEPAGE
  3
ANSI_1252
  9
$LASTSAVEDBY
  1
User
  9
$REQUIREDVERSIONS
160
                 0
  9
$INSBASE
 10
0.0
 20
0.0
 30
0.0
  9
$EXTMIN
 10
57.31901799999906
 20
131.270307
 30
0.0
  9
$EXTMAX
 10
359.4158147022263
 20
360.6670974196552
 30
0.0
  9
$LIMMIN
 10
0.0
 20
0.0
  9
$LIMMAX
 10
420.0
 20
297.0
  9
$ORTHOMODE
 70
     0
  9
$REGENMODE
 70
     1
  9
$FILLMODE
 70
     1
  9
$QTEXTMODE
 70
     0
  9
$MIRRTEXT
 70
     0
  9
$LTSCALE
 40
0.75
  9
$ATTMODE
 70
     1
  9
$TEXTSIZE
 40
3.5
  9
$TRACEWID
 40
1.0
  9
$TEXTSTYLE
  7
Standard
  9
$CLAYER
  8
0
  9
$CELTYPE
  6
ByLayer
  9
$CECOLOR
 62
   256
  9
$CELTSCALE
 40
1.0
  9
$DISPSILH
 70
     0
  9
$DIMSCALE
 40
1.0
  9
$DIMASZ
 40
3.5
  9
$DIMEXO
 40
2.1
  9
$DIMDLI
 40
10.5
  9
$DIMRND
 40
0.0
  9
$DIMDLE
 40
0.0
  9
$DIMEXE
 40
2.1
  9
$DIMTP
 40
0.1
  9
$DIMTM
 40
0.1
  9
$DIMTXT
 40
3.5
  9
$DIMCEN
 40
0.0
  9
$DIMTSZ
 40
0.0
  9
$DIMTOL
 70
     0
  9
$DIMLIM
 70
     0
  9
$DIMTIH
 70
     0
  9
$DIMTOH
 70
     0
  9
$DIMSE1
 70
     0
  9
$DIMSE2
 70
     0
  9
$DIMTAD
 70
     1
  9
$DIMZIN
 70
    12
  9
$DIMBLK
  1

  9
$DIMASO
 70
     1
  9
$DIMSHO
 70
     1
  9
$DIMPOST
  1

  9
$DIMAPOST
  1

  9
$DIMALT
 70
     0
  9
$DIMALTD
 70
     2
  9
$DIMALTF
 40
0.03937
  9
$DIMLFAC
 40
1.0
  9
$DIMTOFL
 70
     1
  9
$DIMTVP
 40
0.0
  9
$DIMTIX
 70
     0
  9
$DIMSOXD
 70
     0
  9
$DIMSAH
 70
     0
  9
$DIMBLK1
  1

  9
$DIMBLK2
  1

  9
$DIMSTYLE
  2
Dim-ISO-25
  9
$DIMCLRD
 70
     0
  9
$DIMCLRE
 70
     0
  9
$DIMCLRT
 70
     0
  9
$DIMTFAC
 40
0.714286
  9
$DIMGAP
 40
1.399999999999999
  9
$DIMJUST
 70
     0
  9
$DIMSD1
 70
     0
  9
$DIMSD2
 70
     0
  9
$DIMTOLJ
 70
     0
  9
$DIMTZIN
 70
    12
  9
$DIMALTZ
 70
    12
  9
$DIMALTTZ
 70
    12
  9
$DIMUPT
 70
     0
  9
$DIMDEC
 70
     2
  9
$DIMTDEC
 70
     2
  9
$DIMALTU
 70
     2
  9
$DIMALTTD
 70
     4
  9
$DIMTXSTY
  7
Standard
  9
$DIMAUNIT
 70
     0
  9
$DIMADEC
 70
     2
  9
$DIMALTRND
 40
0.0
  9
$DIMAZIN
 70
     3
  9
$DIMDSEP
 70
    46
  9
$DIMATFIT
 70
     3
  9
$DIMFRAC
 70
     0
  9
$DIMLDRBLK
  1

  9
$DIMLUNIT
 70
     2
  9
$DIMLWD
 70
    -2
  9
$DIMLWE
 70
    -2
  9
$DIMTMOVE
 70
     0
  9
$DIMFXL
 40
1.0
  9
$DIMFXLON
 70
     0
  9
$DIMJOGANG
 40
0.7853979999999999
  9
$DIMTFILL
 70
     0
  9
$DIMTFILLCLR
 70
     0
  9
$DIMARCSYM
 70
     0
  9
$DIMLTYPE
  6

  9
$DIMLTEX1
  6

  9
$DIMLTEX2
  6

  9
$DIMTXTDIRECTION
 70
     0
  9
$LUNITS
 70
     2
  9
$LUPREC
 70
     4
  9
$SKETCHINC
 40
1.0
  9
$FILLETRAD
 40
1.0
  9
$AUNITS
 70
     0
  9
$AUPREC
 70
     0
  9
$MENU
  1
.
  9
$ELEVATION
 40
0.0
  9
$PELEVATION
 40
0.0
  9
$THICKNESS
 40
0.0
  9
$LIMCHECK
 70
     0
  9
$CHAMFERA
 40
0.0
  9
$CHAMFERB
 40
0.0
  9
$CHAMFERC
 40
0.0
  9
$CHAMFERD
 40
0.0
  9
$SKPOLY
 70
     0
  9
$TDCREATE
 40
2460433.159768518
  9
$TDUCREATE
 40
2460432.868101852
  9
$TDUPDATE
 40
2460886.728738426
  9
$TDUUPDATE
 40
2460886.437071760
  9
$TDINDWG
 40
0.0067592593
  9
$TDUSRTIMER
 40
0.0067592593
  9
$USRTIMER
 70
     1
  9
$ANGBASE
 50
0.0
  9
$ANGDIR
 70
     0
  9
$PDMODE
 70
     0
  9
$PDSIZE
 40
0.0
  9
$PLINEWID
 40
0.0
  9
$SPLFRAME
 70
     0
  9
$SPLINETYPE
 70
     6
  9
$SPLINESEGS
 70
     8
  9
$HANDSEED
  5
FA3
  9
$SURFTAB1
 70
     6
  9
$SURFTAB2
 70
     6
  9
$SURFTYPE
 70
     6
  9
$SURFU
 70
     6
  9
$SURFV
 70
     6
  9
$UCSBASE
  2

  9
$UCSNAME
  2

  9
$UCSORG
 10
0.0
 20
0.0
 30
0.0
  9
$UCSXDIR
 10
1.0
 20
0.0
 30
0.0
  9
$UCSYDIR
 10
0.0
 20
1.0
 30
0.0
  9
$UCSORTHOREF
  2

  9
$UCSORTHOVIEW
 70
     0
  9
$UCSORGTOP
 10
0.0
 20
0.0
 30
0.0
  9
$UCSORGBOTTOM
 10
0.0
 20
0.0
 30
0.0
  9
$UCSORGLEFT
 10
0.0
 20
0.0
 30
0.0
  9
$UCSORGRIGHT
 10
0.0
 20
0.0
 30
0.0
  9
$UCSORGFRONT
 10
0.0
 20
0.0
 30
0.0
  9
$UCSORGBACK
 10
0.0
 20
0.0
 30
0.0
  9
$PUCSBASE
  2

  9
$PUCSNAME
  2

  9
$PUCSORG
 10
0.0
 20
0.0
 30
0.0
  9
$PUCSXDIR
 10
1.0
 20
0.0
 30
0.0
  9
$PUCSYDIR
 10
0.0
 20
1.0
 30
0.0
  9
$PUCSORTHOREF
  2

  9
$PUCSORTHOVIEW
 70
     0
  9
$PUCSORGTOP
 10
0.0
 20
0.0
 30
0.0
  9
$PUCSORGBOTTOM
 10
0.0
 20
0.0
 30
0.0
  9
$PUCSORGLEFT
 10
0.0
 20
0.0
 30
0.0
  9
$PUCSORGRIGHT
 10
0.0
 20
0.0
 30
0.0
  9
$PUCSORGFRONT
 10
0.0
 20
0.0
 30
0.0
  9
$PUCSORGBACK
 10
0.0
 20
0.0
 30
0.0
  9
$USERI1
 70
     0
  9
$USERI2
 70
     0
  9
$USERI3
 70
     0
  9
$USERI4
 70
     0
  9
$USERI5
 70
     0
  9
$USERR1
 40
0.0
  9
$USERR2
 40
0.0
  9
$USERR3
 40
0.0
  9
$USERR4
 40
0.0
  9
$USERR5
 40
0.0
  9
$WORLDVIEW
 70
     1
  9
$SHADEDGE
 70
     3
  9
$SHADEDIF
 70
    70
  9
$TILEMODE
 70
     1
  9
$MAXACTVP
 70
    64
  9
$PINSBASE
 10
0.0
 20
0.0
 30
0.0
  9
$PLIMCHECK
 70
     0
  9
$PEXTMIN
 10
1.000000000000000E+20
 20
1.000000000000000E+20
 30
1.000000000000000E+20
  9
$PEXTMAX
 10
-1.000000000000000E+20
 20
-1.000000000000000E+20
 30
-1.000000000000000E+20
  9
$PLIMMIN
 10
0.0
 20
0.0
  9
$PLIMMAX
 10
12.0
 20
9.0
  9
$UNITMODE
 70
     0
  9
$VISRETAIN
 70
     1
  9
$PLINEGEN
 70
     0
  9
$PSLTSCALE
 70
     1
  9
$TREEDEPTH
 70
  3020
  9
$CMLSTYLE
  2
Standard
  9
$CMLJUST
 70
     0
  9
$CMLSCALE
 40
20.0
  9
$PROXYGRAPHICS
 70
     1
  9
$MEASUREMENT
 70
     1
  9
$CELWEIGHT
370
    -1
  9
$ENDCAPS
280
     0
  9
$JOINSTYLE
280
     0
  9
$LWDISPLAY
290
     0
  9
$INSUNITS
 70
     4
  9
$HYPERLINKBASE
  1

  9
$STYLESHEET
  1

  9
$XEDIT
290
     1
  9
$CEPSNTYPE
380
     0
  9
$PSTYLEMODE
290
     1
  9
$FINGERPRINTGUID
  2
{2A7DD4B6-7179-A648-B9DB-11D9B90B4906}
  9
$VERSIONGUID
  2
{B718DA35-2B71-1F4F-960A-9501DBD8957A}
  9
$EXTNAMES
290
     1
  9
$PSVPSCALE
 40
0.0
  9
$OLESTARTUP
290
     0
  9
$SORTENTS
280
   127
  9
$INDEXCTL
280
     0
  9
$HIDETEXT
280
     1
  9
$XCLIPFRAME
280
     0
  9
$HALOGAP
280
     0
  9
$OBSCOLOR
 70
   257
  9
$OBSLTYPE
280
     0
  9
$INTERSECTIONDISPLAY
280
     0
  9
$INTERSECTIONCOLOR
 70
   257
  9
$DIMASSOC
280
     2
  9
$PROJECTNAME
  1

  9
$CAMERADISPLAY
290
     0
  9
$LENSLENGTH
 40
50.0
  9
$CAMERAHEIGHT
 40
0.0
  9
$STEPSPERSEC
 40
2.0
  9
$STEPSIZE
 40
6.0
  9
$3DDWFPREC
 40
2.0
  9
$PSOLWIDTH
 40
5.0
  9
$PSOLHEIGHT
 40
80.0
  9
$LOFTANG1
 40
1.570795999999999
  9
$LOFTANG2
 40
1.570795999999999
  9
$LOFTMAG1
 40
0.0
  9
$LOFTMAG2
 40
0.0
  9
$LOFTPARAM
 70
     7
  9
$LOFTNORMALS
280
     1
  9
$LATITUDE
 40
37.795
  9
$LONGITUDE
 40
-122.394
  9
$NORTHDIRECTION
 40
0.0
  9
$TIMEZONE
 70
 -8000
  9
$LIGHTGLYPHDISPLAY
280
     1
  9
$TILEMODELIGHTSYNCH
280
     1
  9
$CMATERIAL
347
11
  9
$SOLIDHIST
280
     0
  9
$SHOWHIST
280
     1
  9
$DWFFRAME
280
     2
  9
$DGNFRAME
280
     0
  9
$REALWORLDSCALE
290
     1
  9
$INTERFERECOLOR
 62
     1
  9
$INTERFEREOBJVS
345
33
  9
$INTERFEREVPVS
346
30
  9
$CSHADOW
280
     0
  9
$SHADOWPLANELOCATION
 40
0.0
  0
ENDSEC
  0
SECTION
  2
CLASSES
  0
CLASS
  1
ACDBDICTIONARYWDFLT
  2
AcDbDictionaryWithDefault
  3
ObjectDBX Classes
 90
        0
 91
        1
280
     0
281
     0
  0
CLASS
  1
MATERIAL
  2
AcDbMaterial
  3
ObjectDBX Classes
 90
     1153
 91
        3
280
     0
281
     0
  0
CLASS
  1
VISUALSTYLE
  2
AcDbVisualStyle
  3
ObjectDBX Classes
 90
     4095
 91
       24
280
     0
281
     0
  0
CLASS
  1
SCALE
  2
AcDbScale
  3
ObjectDBX Classes
 90
     1153
 91
       33
280
     0
281
     0
  0
CLASS
  1
TABLESTYLE
  2
AcDbTableStyle
  3
ObjectDBX Classes
 90
     4095
 91
        1
280
     0
281
     0
  0
CLASS
  1
MLEADERSTYLE
  2
AcDbMLeaderStyle
  3
ACDB_MLEADERSTYLE_CLASS
 90
     4095
 91
        1
280
     0
281
     0
  0
CLASS
  1
ACDBSECTIONVIEWSTYLE
  2
AcDbSectionViewStyle
  3
ObjectDBX Classes
 90
     1025
 91
        2
280
     0
281
     0
  0
CLASS
  1
ACDBDETAILVIEWSTYLE
  2
AcDbDetailViewStyle
  3
ObjectDBX Classes
 90
     1025
 91
        2
280
     0
281
     0
  0
CLASS
  1
ACMESCOPE
  2
AcMeScope
  3
AcMeServices
 90
     1024
 91
        0
280
     0
281
     0
  0
CLASS
  1
ACMECOMMANDHISTORY
  2
AcMeCommandHistory
  3
AcMeServices
 90
     1024
 91
        0
280
     0
281
     0
  0
CLASS
  1
ACIMSYSVARMAN
  2
AcImSysVarManager
  3
AcMeServices
 90
     1024
 91
        0
280
     0
281
     0
  0
CLASS
  1
ACIMINTSYSVAR
  2
AcImIntSysVar
  3
AcMeServices
 90
     1024
 91
        0
280
     0
281
     0
  0
CLASS
  1
ACMESTATEMGR
  2
AcMeStateMgr
  3
AcMeServices
 90
     1024
 91
        0
280
     0
281
     0
  0
CLASS
  1
ACGREFMASTER
  2
AcGrefMaster
  3
AcAttribServices
 90
     1024
 91
        0
280
     0
281
     0
  0
CLASS
  1
SORTENTSTABLE
  2
AcDbSortentsTable
  3
ObjectDBX Classes
 90
        0
 91
        3
280
     0
281
     0
  0
CLASS
  1
DICTIONARYVAR
  2
AcDbDictionaryVar
  3
ObjectDBX Classes
 90
        0
 91
        6
280
     0
281
     0
  0
CLASS
  1
CELLSTYLEMAP
  2
AcDbCellStyleMap
  3
ObjectDBX Classes
 90
     1152
 91
        1
280
     0
281
     0
  0
CLASS
  1
EXACXREFPANELOBJECT
  2
ExAcXREFPanelObject
  3
EXAC_ESW
 90
     1025
 91
        0
280
     0
281
     0
  0
CLASS
  1
NPOCOLLECTION
  2
AcDbImpNonPersistentObjectsCollection
  3
ObjectDBX Classes
 90
     1153
 91
        0
280
     0
281
     0
  0
CLASS
  1
DIMASSOC
  2
AcDbDimAssoc
  3
"AcDbDimAssoc|Product Desc:     AcDim ARX App For Dimension|Company:          Autodesk, Inc.|WEB Address:      www.autodesk.com"
 90
        0
 91
        0
280
     0
281
     0
  0
ENDSEC
  0
SECTION
  2
TABLES
  0
TABLE
  2
VPORT
  5
8
330
0
100
AcDbSymbolTable
 70
     1
1001
ACAD
1000
DbSaveVer
1071
      205
  0
VPORT
  5
57
330
8
100
AcDbSymbolTableRecord
100
AcDbViewportTableRecord
  2
*Active
 70
     0
 10
0.0
 20
0.0
 11
1.0
 21
1.0
 12
236.7153520339905
 22
193.6834177517207
 13
0.0
 23
0.0
 14
0.5
 24
0.5
 15
0.0
 25
0.0
 16
0.0
 26
0.0
 36
1.0
 17
0.0
 27
0.0
 37
0.0
 40
252.4686961144971
 41
2.302663438256658
 42
50.0
 43
0.0
 44
0.0
 50
0.0
 51
0.0
 71
     0
 72
 20000
 73
     1
 74
     0
 75
     0
 76
     0
 77
     0
 78
     0
281
     0
 65
     1
110
0.0
120
0.0
130
0.0
111
1.0
121
0.0
131
0.0
112
0.0
122
1.0
132
0.0
 79
     0
146
0.0
348
2F
 60
     3
 61
     5
292
     1
282
     1
141
0.0
142
0.0
 63
   250
421
  3355443
1001
ACAD_NAV_VCDISPLAY
1070
     3
  0
ENDTAB
  0
TABLE
  2
LTYPE
  5
5
330
0
100
AcDbSymbolTable
 70
    15
  0
LTYPE
  5
5B
330
5
100
AcDbSymbolTableRecord
100
AcDbLinetypeTableRecord
  2
ByBlock
 70
     0
  3

 72
    65
 73
     0
 40
0.0
  0
LTYPE
  5
5C
330
5
100
AcDbSymbolTableRecord
100
AcDbLinetypeTableRecord
  2
ByLayer
 70
     0
  3

 72
    65
 73
     0
 40
0.0
  0
LTYPE
  5
5D
330
5
100
AcDbSymbolTableRecord
100
AcDbLinetypeTableRecord
  2
Continuous
 70
     0
  3
Solid line
 72
    65
 73
     0
 40
0.0
  0
LTYPE
  5
81
330
5
100
AcDbSymbolTableRecord
100
AcDbLinetypeTableRecord
  2
HIDDEN
 70
     0
  3
Hidden __ __ __ __ __ __ __ __ __ __ __ __ __ _
 72
    65
 73
     2
 40
9.525
 49
6.349999999999999
 74
     0
 49
-3.174999999999999
 74
     0
  0
LTYPE
  5
82
330
5
100
AcDbSymbolTableRecord
100
AcDbLinetypeTableRecord
  2
PHANTOM2
 70
     0
  3
Phantom (.5x) ___ _ _ ___ _ _ ___ _ _ ___ _ _
 72
    65
 73
     6
 40
31.75
 49
15.875
 74
     0
 49
-3.174999999999999
 74
     0
 49
3.174999999999999
 74
     0
 49
-3.174999999999999
 74
     0
 49
3.174999999999999
 74
     0
 49
-3.174999999999999
 74
     0
  0
LTYPE
  5
83
330
5
100
AcDbSymbolTableRecord
100
AcDbLinetypeTableRecord
  2
CENTER
 70
     0
  3
Center ____ _ ____ _ ____ _ ____ _ ____ _ ____
 72
    65
 73
     4
 40
50.8
 49
31.75
 74
     0
 49
-6.349999999999999
 74
     0
 49
6.349999999999999
 74
     0
 49
-6.349999999999999
 74
     0
  0
LTYPE
  5
96
330
5
100
AcDbSymbolTableRecord
100
AcDbLinetypeTableRecord
  2
AM_ISO02W050
 70
     0
  3
__ __ __ __ __ __ __ __ __ __ __ __ __ __ __
 72
    65
 73
     2
 40
7.5
 49
6.0
 74
     0
 49
-1.5
 74
     0
  0
LTYPE
  5
97
330
5
100
AcDbSymbolTableRecord
100
AcDbLinetypeTableRecord
  2
AM_ISO08W050
 70
     0
  3
____ . ____ . ____ . ____ . ____ . ____ . ____
 72
    65
 73
     4
 40
18.0
 49
12.0
 74
     0
 49
-1.5
 74
     0
 49
3.0
 74
     0
 49
-1.5
 74
     0
  0
LTYPE
  5
98
330
5
100
AcDbSymbolTableRecord
100
AcDbLinetypeTableRecord
  2
AM_ISO09W050
 70
     0
  3
_____ . . _____ . . _____ . . ____ .. ____
 72
    65
 73
     6
 40
22.5
 49
12.0
 74
     0
 49
-1.5
 74
     0
 49
3.0
 74
     0
 49
-1.5
 74
     0
 49
3.0
 74
     0
 49
-1.5
 74
     0
  0
LTYPE
  5
99
330
5
100
AcDbSymbolTableRecord
100
AcDbLinetypeTableRecord
  2
Amconstr
 70
     0
  3
_______________________
 72
    65
 73
     2
 40
9999.0
 49
9999.0
 74
     0
 49
0.0
 74
     0
  0
LTYPE
  5
9A
330
5
100
AcDbSymbolTableRecord
100
AcDbLinetypeTableRecord
  2
AM_ISO08W050x2
 70
     0
  3
__ . __ . __ . __ . __ . __
 72
    65
 73
     4
 40
9.0
 49
6.0
 74
     0
 49
-0.75
 74
     0
 49
1.5
 74
     0
 49
-0.75
 74
     0
  0
LTYPE
  5
9B
330
5
100
AcDbSymbolTableRecord
100
AcDbLinetypeTableRecord
  2
AM_ISO02W050x2
 70
     0
  3
 _ _ _ _ _ _ _ _ _ _ _ _
 72
    65
 73
     2
 40
3.75
 49
3.0
 74
     0
 49
-0.75
 74
     0
  0
LTYPE
  5
9C
330
5
100
AcDbSymbolTableRecord
100
AcDbLinetypeTableRecord
  2
Amzigzag
 70
     0
  3
/\/-/\/-/\/-/\/-/\/-/\/
 72
    65
 73
     2
 40
11.0001
 49
0.0001
 74
     4
 75
   136
340
93
 46
0.04
 50
0.0
 44
0.0
 45
0.0
 49
-11.0
 74
     0
  0
LTYPE
  5
9D
330
5
100
AcDbSymbolTableRecord
100
AcDbLinetypeTableRecord
  2
ACISOWELD
 70
     0
  3
_ _ _ _ _
 72
    65
 73
     2
 40
2.0
 49
2.0
 74
     0
 49
-1.0
 74
     0
  0
LTYPE
  5
9E
330
5
100
AcDbSymbolTableRecord
100
AcDbLinetypeTableRecord
  2
ACISOTGL
 70
     0
  3
_ _ _ _ _
 72
    65
 73
     2
 40
3.0
 49
2.0
 74
     0
 49
-1.0
 74
     0
  0
LTYPE
  5
9F
330
5
100
AcDbSymbolTableRecord
100
AcDbLinetypeTableRecord
  2
ACISOTGB
 70
     0
  3
__ . . __ . .
 72
    65
 73
     6
 40
9.0
 49
4.0
 74
     0
 49
-1.0
 74
     0
 49
1.0
 74
     0
 49
-1.0
 74
     0
 49
1.0
 74
     0
 49
-1.0
 74
     0
  0
ENDTAB
  0
TABLE
  2
LAYER
  5
2
102
{ACAD_XDICTIONARY
360
754
102
}
330
0
100
AcDbSymbolTable
 70
     6
  0
LAYER
  5
54
330
2
100
AcDbSymbolTableRecord
100
AcDbLayerTableRecord
  2
0
 70
     0
 62
     7
  6
Continuous
370
    -3
390
F
347
21
348
0
1001
AcAecLayerStandard
1000

1000

  0
LAYER
  5
79
330
2
100
AcDbSymbolTableRecord
100
AcDbLayerTableRecord
  2
Defpoints
 70
     0
 62
     7
  6
Continuous
290
     0
370
    -3
390
F
347
21
348
0
1001
AcAecLayerStandard
1000

1000

  0
LAYER
  5
BB
330
2
100
AcDbSymbolTableRecord
100
AcDbLayerTableRecord
  2
Reference
 70
     0
 62
     7
  6
PHANTOM2
370
    25
390
F
347
21
348
0
  0
LAYER
  5
3A5
330
2
100
AcDbSymbolTableRecord
100
AcDbLayerTableRecord
  2
BORDER
 70
     0
 62
     7
  6
Continuous
370
    25
390
F
347
21
348
0
1001
AcAecLayerStandard
1000

1000

1001
AcCmTransparency
1071
        0
  0
LAYER
  5
3EB
330
2
100
AcDbSymbolTableRecord
100
AcDbLayerTableRecord
  2
TITLEBLOCK
 70
     0
 62
     7
  6
Continuous
370
    35
390
F
347
21
348
0
1001
AcAecLayerStandard
1000

1000

1001
AcCmTransparency
1071
        0
  0
LAYER
  5
F08
102
{ACAD_XDICTIONARY
360
F09
102
}
330
2
100
AcDbSymbolTableRecord
100
AcDbLayerTableRecord
  2
LAYER_2
 70
     0
 62
     7
  6
Continuous
370
    -3
390
F
347
21
348
0
  0
ENDTAB
  0
TABLE
  2
STYLE
  5
3
330
0
100
AcDbSymbolTable
 70
     5
  0
STYLE
  5
55
330
3
100
AcDbSymbolTableRecord
100
AcDbTextStyleTableRecord
  2
Standard
 70
     0
 40
0.0
 41
1.0
 50
0.0
 71
     0
 42
3.5
  3
arial.ttf
  4

1001
ACAD
1000
Arial
1071
       34
  0
STYLE
  5
5A
330
3
100
AcDbSymbolTableRecord
100
AcDbTextStyleTableRecord
  2
Annotative
 70
     0
 40
0.0
 41
1.0
 50
0.0
 71
     0
 42
0.2
  3
txt
  4

1001
AcadAnnotative
1000
AnnotativeData
1002
{
1070
     1
1070
     1
1002
}
  0
STYLE
  5
92
330
3
100
AcDbSymbolTableRecord
100
AcDbTextStyleTableRecord
  2
FusionTitle
 70
     0
 40
0.0
 41
1.0
 50
0.0
 71
     0
 42
2.5
  3
arial.ttf
  4

1001
ACAD
1000
Arial
1071
       34
  0
STYLE
  5
93
330
3
100
AcDbSymbolTableRecord
100
AcDbTextStyleTableRecord
  2

 70
     1
 40
0.0
 41
1.0
 50
0.0
 71
     0
 42
10.0
  3
genltshp.shx
  4

  0
STYLE
  5
94
330
3
100
AcDbSymbolTableRecord
100
AcDbTextStyleTableRecord
  2
ACISOGDT
 70
     0
 40
0.0
 41
1.0
 50
0.0
 71
     0
 42
10.0
  3
amgdt.shx
  4

  0
ENDTAB
  0
TABLE
  2
VIEW
  5
6
330
0
100
AcDbSymbolTable
 70
     0
  0
ENDTAB
  0
TABLE
  2
UCS
  5
7
330
0
100
AcDbSymbolTable
 70
     0
  0
ENDTAB
  0
TABLE
  2
APPID
  5
9
330
0
100
AcDbSymbolTable
 70
    21
  0
APPID
  5
56
330
9
100
AcDbSymbolTableRecord
100
AcDbRegAppTableRecord
  2
ACAD
 70
     0
  0
APPID
  5
5E
330
9
100
AcDbSymbolTableRecord
100
AcDbRegAppTableRecord
  2
AcadAnnotative
 70
     0
  0
APPID
  5
78
330
9
100
AcDbSymbolTableRecord
100
AcDbRegAppTableRecord
  2
ACAD_PSEXT
 70
     0
  0
APPID
  5
7A
330
9
100
AcDbSymbolTableRecord
100
AcDbRegAppTableRecord
  2
MCAD_NO_VIS
 70
     0
  0
APPID
  5
7B
330
9
100
AcDbSymbolTableRecord
100
AcDbRegAppTableRecord
  2
ACAD_TEMP_GRAPHIC
 70
     0
  0
APPID
  5
84
330
9
100
AcDbSymbolTableRecord
100
AcDbRegAppTableRecord
  2
ACAD_DSTYLE_DIMJAG
 70
     0
  0
APPID
  5
85
330
9
100
AcDbSymbolTableRecord
100
AcDbRegAppTableRecord
  2
ACAD_DSTYLE_DIMTALN
 70
     0
  0
APPID
  5
86
330
9
100
AcDbSymbolTableRecord
100
AcDbRegAppTableRecord
  2
ACAD_NAV_VCDISPLAY
 70
     0
  0
APPID
  5
87
330
9
100
AcDbSymbolTableRecord
100
AcDbRegAppTableRecord
  2
AcAecLayerStandard
 70
     0
  0
APPID
  5
88
330
9
100
AcDbSymbolTableRecord
100
AcDbRegAppTableRecord
  2
AcCmTransparency
 70
     0
  0
APPID
  5
89
330
9
100
AcDbSymbolTableRecord
100
AcDbRegAppTableRecord
  2
AcDbDynamicBlockGUID
 70
     0
  0
APPID
  5
8A
330
9
100
AcDbSymbolTableRecord
100
AcDbRegAppTableRecord
  2
ACAD_DSTYLE_DIMBREAK
 70
     0
  0
APPID
  5
8B
330
9
100
AcDbSymbolTableRecord
100
AcDbRegAppTableRecord
  2
FUSIONTITLEBLOCK
 70
     0
  0
APPID
  5
8C
330
9
100
AcDbSymbolTableRecord
100
AcDbRegAppTableRecord
  2
FUSIONCURRENTTITLEBLOCK
 70
     0
  0
APPID
  5
8D
330
9
100
AcDbSymbolTableRecord
100
AcDbRegAppTableRecord
  2
AcSynergy
 70
     0
  0
APPID
  5
8E
330
9
100
AcDbSymbolTableRecord
100
AcDbRegAppTableRecord
  2
GENIUS_GENSCREG_15
 70
     0
  0
APPID
  5
8F
330
9
100
AcDbSymbolTableRecord
100
AcDbRegAppTableRecord
  2
GENIUS_GENOBJ-N-SDF_13
 70
     0
  0
APPID
  5
90
330
9
100
AcDbSymbolTableRecord
100
AcDbRegAppTableRecord
  2
GENIUS_GENODEF_13
 70
     0
  0
APPID
  5
91
330
9
100
AcDbSymbolTableRecord
100
AcDbRegAppTableRecord
  2
ACATTRIBSERVICES
 70
     0
  0
APPID
  5
738
330
9
100
AcDbSymbolTableRecord
100
AcDbRegAppTableRecord
  2
ACAD_EXEMPT_FROM_CAD_STANDARDS
 70
     0
  0
APPID
  5
73F
330
9
100
AcDbSymbolTableRecord
100
AcDbRegAppTableRecord
  2
Acad_TC
 70
     0
  0
ENDTAB
  0
TABLE
  2
DIMSTYLE
  5
A
330
0
100
AcDbSymbolTable
 70
     5
100
AcDbDimStyleTable
 71
     1
340
A3
  0
DIMSTYLE
105
58
330
A
100
AcDbSymbolTableRecord
100
AcDbDimStyleTableRecord
  2
Standard
 70
     0
 41
3.5
 42
2.1
 43
10.5
 44
2.1
 78
    12
 79
     3
140
3.5
143
0.03937
146
0.714286
147
1.399999999999999
179
     2
271
     2
272
     2
284
    12
340
55
  0
DIMSTYLE
105
59
330
A
100
AcDbSymbolTableRecord
100
AcDbDimStyleTableRecord
  2
Annotative
 70
     0
 40
0.0
 41
3.5
 42
2.1
 43
10.5
 44
2.1
 73
     0
 74
     0
 77
     1
 78
    12
 79
     3
140
3.5
141
2.5
143
0.03937
146
0.714286
147
1.399999999999999
171
     3
172
     1
179
     2
271
     2
272
     2
274
     3
278
    44
283
     0
284
    12
340
55
1001
AcadAnnotative
1000
AnnotativeData
1002
{
1070
     1
1070
     1
1002
}
  0
DIMSTYLE
105
A2
330
A
100
AcDbSymbolTableRecord
100
AcDbDimStyleTableRecord
  2
ISO-25
 70
     0
  4
in
 41
3.5
 42
2.1
 43
10.5
 44
2.1
 47
0.1
 48
0.1
 73
     0
 74
     0
 77
     1
 78
    12
 79
     3
140
3.5
141
0.0
143
0.03937
146
0.714286
147
1.399999999999999
171
     4
172
     1
176
   256
177
   256
178
   256
179
     2
271
     2
272
     2
274
     4
283
     0
284
    12
285
     8
340
55
1001
ACAD_DSTYLE_DIMJAG
1070
   388
1040
1.5
1001
ACAD_DSTYLE_DIMTALN
1070
   392
1070
     1
1001
ACAD_DSTYLE_DIMBREAK
1070
   391
1040
3.5
  0
DIMSTYLE
105
A3
330
A
100
AcDbSymbolTableRecord
100
AcDbDimStyleTableRecord
  2
Dim-ISO-25
 70
     0
 41
3.5
 42
2.1
 43
10.5
 44
2.1
 47
0.1
 48
0.1
 73
     0
 74
     0
 77
     1
 78
    12
 79
     3
140
3.5
141
0.0
143
0.03937
146
0.714286
147
1.399999999999999
172
     1
179
     2
271
     2
272
     2
274
     4
283
     0
284
    12
285
    12
286
    12
340
55
1001
ACAD_DSTYLE_DIMJAG
1070
   388
1040
1.5
1001
ACAD_DSTYLE_DIMTALN
1070
   392
1070
     1
1001
ACAD_DSTYLE_DIMBREAK
1070
   391
1040
3.5
  0
ENDTAB
  0
TABLE
  2
BLOCK_RECORD
  5
1
330
0
100
AcDbSymbolTable
 70
     6
  0
BLOCK_RECORD
  5
70
102
{ACAD_XDICTIONARY
360
B4
102
}
330
1
100
AcDbSymbolTableRecord
100
AcDbBlockTableRecord
  2
*Model_Space
340
73
 70
     0
280
     1
281
     0
  0
BLOCK_RECORD
  5
6C
330
1
100
AcDbSymbolTableRecord
100
AcDbBlockTableRecord
  2
*Paper_Space
340
6F
 70
     0
280
     1
281
     0
  0
BLOCK_RECORD
  5
74
330
1
100
AcDbSymbolTableRecord
100
AcDbBlockTableRecord
  2
*Paper_Space0
340
77
 70
     0
280
     1
281
     0
  0
BLOCK_RECORD
  5
3A6
102
{ACAD_XDICTIONARY
360
3A7
102
}
330
1
100
AcDbSymbolTableRecord
100
AcDbBlockTableRecord
  2
ISO_A3_SHEET
340
0
310
2800000020000000200000000100080000000000000400000000000000000000000000000000000000000000000080000080000000808000800000008000800080800000C0C0C000C0DCC000F0CAA6000020400000206000002080000020A0000020C0000020E00000400000004020000040400000406000004080000040A0
310
000040C0000040E00000600000006020000060400000606000006080000060A0000060C0000060E00000800000008020000080400000806000008080000080A0000080C0000080E00000A0000000A0200000A0400000A0600000A0800000A0A00000A0C00000A0E00000C0000000C0200000C0400000C0600000C0800000C0
310
A00000C0C00000C0E00000E0000000E0200000E0400000E0600000E0800000E0A00000E0C00000E0E00040000000400020004000400040006000400080004000A0004000C0004000E00040200000402020004020400040206000402080004020A0004020C0004020E000404000004040200040404000404060004040800040
310
40A0004040C0004040E00040600000406020004060400040606000406080004060A0004060C0004060E00040800000408020004080400040806000408080004080A0004080C0004080E00040A0000040A0200040A0400040A0600040A0800040A0A00040A0C00040A0E00040C0000040C0200040C0400040C0600040C08000
310
40C0A00040C0C00040C0E00040E0000040E0200040E0400040E0600040E0800040E0A00040E0C00040E0E00080000000800020008000400080006000800080008000A0008000C0008000E00080200000802020008020400080206000802080008020A0008020C0008020E00080400000804020008040400080406000804080
310
008040A0008040C0008040E00080600000806020008060400080606000806080008060A0008060C0008060E00080800000808020008080400080806000808080008080A0008080C0008080E00080A0000080A0200080A0400080A0600080A0800080A0A00080A0C00080A0E00080C0000080C0200080C0400080C0600080C0
310
800080C0A00080C0C00080C0E00080E0000080E0200080E0400080E0600080E0800080E0A00080E0C00080E0E000C0000000C0002000C0004000C0006000C0008000C000A000C000C000C000E000C0200000C0202000C0204000C0206000C0208000C020A000C020C000C020E000C0400000C0402000C0404000C0406000C0
310
408000C040A000C040C000C040E000C0600000C0602000C0604000C0606000C0608000C060A000C060C000C060E000C0800000C0802000C0804000C0806000C0808000C080A000C080C000C080E000C0A00000C0A02000C0A04000C0A06000C0A08000C0A0A000C0A0C000C0A0E000C0C00000C0C02000C0C04000C0C06000
310
C0C08000C0C0A000F0FBFF00A4A0A000808080000000FF0000FF000000FFFF00FF000000FF00FF00FFFF0000FFFFFF0049494949494949494949494949494949494949494949494949494949494949494949494949494949494949494949494949494949494949494949494949494949494949494949494949494949494949
310
494949494949494949494949494949494949494949494949494949494949494949494949494949494949494949494949494949494949494949494949494949494949494949494949494949494949494949494949494949494949494949494949494949494949494949494949494949494949FFFFFFFFFFFFFFFFFFFFFFFFFF
310
FFFFFFFFFFFFFFFFFFFFFFFFFFFFFFFFFF4949FF49FF494949494949494949494949FF494949494949494949494949FFFF49494949FF49494949494949494949494949494949494949494949494949FF49494949FFFF49494949494949494949494949494949494949494949494949FF4949494949FF494949494949494949
310
49494949494949494949494949494949FF4949494949FF49494949494949494949494949494949494949494949494949FF49494949FFFF49494949494949494949494949494949494949494949494949FF4949494949FF49494949494949494949494949494949494949494949494949FF4949494949FF4949494949494949
310
4949494949494949494949494949494949FF4949494949FF49494949494949494949494949494949494949494949494949FF49494949FFFF49494949494949494949494949494949494949494949494949FF4949494949FF49494949494949494949494949494949494949494949494949FF4949494949FF49494949494949
310
494949494949494949494949494949494949FF49494949FFFF49494949494949494949494949494949494949494949494949FF4949494949FF49494949494949494949494949494949494949494949494949FF4949494949FF49494949494949494949494949494949494949494949494949FF49494949FFFF494949494949
310
49494949494949494949494949494949494949FF4949494949FF49494949494949494949494949494949494949494949494949FF494949FF49FF494949494949494949494949FF494949494949494949494949FFFF4949FFFFFFFFFFFFFFFFFFFFFFFFFFFFFFFFFFFFFFFFFFFFFFFFFFFFFFFFFFFF49494949494949494949
310
49494949494949494949494949494949494949494949494949494949494949494949494949494949494949494949494949494949494949494949494949494949494949494949494949494949494949494949494949494949494949494949494949494949494949494949494949494949494949494949494949494949494949
310
4949494949494949494949494949494949494949494949494949494949494949494949494949494949494949494949494949494949494949
 70
     4
280
     1
281
     0
1001
AcDbDynamicBlockGUID
1000
{B4874B5E-8040-BF49-A9B6-B81412F7B0AC}
  0
BLOCK_RECORD
  5
3EC
102
{ACAD_XDICTIONARY
360
3ED
102
}
330
1
100
AcDbSymbolTableRecord
100
AcDbBlockTableRecord
  2
ISO_TITLEBLOCK
340
0
310
2800000020000000200000000100080000000000000400000000000000000000000000000000000000000000000080000080000000808000800000008000800080800000C0C0C000C0DCC000F0CAA6000020400000206000002080000020A0000020C0000020E00000400000004020000040400000406000004080000040A0
310
000040C0000040E00000600000006020000060400000606000006080000060A0000060C0000060E00000800000008020000080400000806000008080000080A0000080C0000080E00000A0000000A0200000A0400000A0600000A0800000A0A00000A0C00000A0E00000C0000000C0200000C0400000C0600000C0800000C0
310
A00000C0C00000C0E00000E0000000E0200000E0400000E0600000E0800000E0A00000E0C00000E0E00040000000400020004000400040006000400080004000A0004000C0004000E00040200000402020004020400040206000402080004020A0004020C0004020E000404000004040200040404000404060004040800040
310
40A0004040C0004040E00040600000406020004060400040606000406080004060A0004060C0004060E00040800000408020004080400040806000408080004080A0004080C0004080E00040A0000040A0200040A0400040A0600040A0800040A0A00040A0C00040A0E00040C0000040C0200040C0400040C0600040C08000
310
40C0A00040C0C00040C0E00040E0000040E0200040E0400040E0600040E0800040E0A00040E0C00040E0E00080000000800020008000400080006000800080008000A0008000C0008000E00080200000802020008020400080206000802080008020A0008020C0008020E00080400000804020008040400080406000804080
310
008040A0008040C0008040E00080600000806020008060400080606000806080008060A0008060C0008060E00080800000808020008080400080806000808080008080A0008080C0008080E00080A0000080A0200080A0400080A0600080A0800080A0A00080A0C00080A0E00080C0000080C0200080C0400080C0600080C0
310
800080C0A00080C0C00080C0E00080E0000080E0200080E0400080E0600080E0800080E0A00080E0C00080E0E000C0000000C0002000C0004000C0006000C0008000C000A000C000C000C000E000C0200000C0202000C0204000C0206000C0208000C020A000C020C000C020E000C0400000C0402000C0404000C0406000C0
310
408000C040A000C040C000C040E000C0600000C0602000C0604000C0606000C0608000C060A000C060C000C060E000C0800000C0802000C0804000C0806000C0808000C080A000C080C000C080E000C0A00000C0A02000C0A04000C0A06000C0A08000C0A0A000C0A0C000C0A0E000C0C00000C0C02000C0C04000C0C06000
310
C0C08000C0C0A000F0FBFF00A4A0A000808080000000FF0000FF000000FFFF00FF000000FF00FF00FFFF0000FFFFFF0049494949494949494949494949494949494949494949494949494949494949494949494949494949494949494949494949494949494949494949494949494949494949494949494949494949494949
310
49494949494949494949494949494949494949494949494949494949494949494949494949494949494949494949494949494949494949494949494949494949494949494949494949494949494949494949494949494949494949494949494949494949494949494949494949494949494949494949494949494949494949
310
49494949494949494949494949494949494949494949494949494949494949494949494949494949494949494949494949494949494949494949494949494949494949494949494949494949494949494949494949494949494949494949494949494949494949494949494949494949494949494949494949494949494949
310
49494949494949494949494949494949494949494949494949494949494949494949494949494949494949494949494949494949FFFFFFFFFFFFFFFFFFFFFFFFFFFFFFFFFFFFFFFFFFFFFFFFFFFFFF4949494949FF4949494949494949FFFFFFFFFF49494949FFFFFFFFFFFFFFFFFFFF49494949FF4949494949494949FFFF
310
FFFFFF494949FFFFFFFFFFFFFFFFFFFF4949494949FF4949494949494949FFFFFFFFFF494949FFFFFFFFFFFFFFFFFFFF4949494949FF4949494949494949FFFFFFFFFFFFFFFFFFFFFFFFFFFFFFFFFFFF4949494949FFFFFFFFFFFFFFFFFFFFFFFFFFFFFFFFFFFFFFFFFFFFFFFFFFFFFF4949494949FFFFFF49FFFFFFFFFFFF
310
FFFFFFFFFFFFFFFFFFFFFFFFFFFFFFFFFFFFFFFF4949FFFFFFFFFFFFFFFFFFFFFFFFFFFFFFFFFFFFFFFFFFFFFFFFFFFFFF494949494949494949494949494949494949494949494949494949494949494949494949494949494949494949494949494949494949494949494949494949494949494949494949494949494949
310
49494949494949494949494949494949494949494949494949494949494949494949494949494949494949494949494949494949494949494949494949494949494949494949494949494949494949494949494949494949494949494949494949494949494949494949494949494949494949494949494949494949494949
310
49494949494949494949494949494949494949494949494949494949494949494949494949494949494949494949494949494949494949494949494949494949494949494949494949494949494949494949494949494949494949494949494949494949494949494949494949494949494949494949494949494949494949
310
4949494949494949494949494949494949494949494949494949494949494949494949494949494949494949494949494949494949494949
 70
     4
280
     1
281
     0
1001
AcDbDynamicBlockGUID
1000
{BCD52D05-323A-B54A-8A21-1B84008CF9CB}
1001
FUSIONTITLEBLOCK
1000
TitleBlock
  0
ENDTAB
  0
ENDSEC
  0
SECTION
  2
BLOCKS
  0
BLOCK
  5
71
330
70
100
AcDbEntity
  8
0
100
AcDbBlockBegin
  2
*Model_Space
 70
     0
 10
0.0
 20
0.0
 30
0.0
  3
*Model_Space
  1

  0
ENDBLK
  5
72
330
70
100
AcDbEntity
  8
0
100
AcDbBlockEnd
  0
BLOCK
  5
6D
330
6C
100
AcDbEntity
 67
     1
  8
0
100
AcDbBlockBegin
  2
*Paper_Space
 70
     0
 10
0.0
 20
0.0
 30
0.0
  3
*Paper_Space
  1

  0
ENDBLK
  5
6E
330
6C
100
AcDbEntity
 67
     1
  8
0
100
AcDbBlockEnd
  0
BLOCK
  5
75
330
74
100
AcDbEntity
 67
     1
  8
0
100
AcDbBlockBegin
  2
*Paper_Space0
 70
     0
 10
0.0
 20
0.0
 30
0.0
  3
*Paper_Space0
  1

  0
ENDBLK
  5
76
330
74
100
AcDbEntity
 67
     1
  8
0
100
AcDbBlockEnd
  0
BLOCK
  5
3A8
330
3A6
100
AcDbEntity
  8
0
100
AcDbBlockBegin
  2
ISO_A3_SHEET
 70
     0
 10
0.0
 20
0.0
 30
0.0
  3
ISO_A3_SHEET
  1

  0
LINE
  5
3A9
330
3A6
100
AcDbEntity
  8
Defpoints
100
AcDbLine
 10
0.0
 20
0.0
 30
0.0
 11
15.0
 21
0.0
 31
0.0
  0
LINE
  5
3AA
330
3A6
100
AcDbEntity
  8
Defpoints
100
AcDbLine
 10
405.0
 20
0.0
 30
0.0
 11
420.0
 21
0.0
 31
0.0
  0
LINE
  5
3AB
330
3A6
100
AcDbEntity
  8
BORDER
100
AcDbLine
 10
20.0
 20
10.0
 30
0.0
 11
410.0
 21
10.0
 31
0.0
  0
LINE
  5
3AC
330
3A6
100
AcDbEntity
  8
Defpoints
100
AcDbLine
 10
420.0
 20
0.0
 30
0.0
 11
420.0
 21
15.0
 31
0.0
  0
LINE
  5
3AD
330
3A6
100
AcDbEntity
  8
Defpoints
100
AcDbLine
 10
420.0
 20
282.0
 30
0.0
 11
420.0
 21
297.0
 31
0.0
  0
LINE
  5
3AE
330
3A6
100
AcDbEntity
  8
Defpoints
100
AcDbLine
 10
420.0
 20
297.0
 30
0.0
 11
405.0
 21
297.0
 31
0.0
  0
LINE
  5
3AF
330
3A6
100
AcDbEntity
  8
Defpoints
100
AcDbLine
 10
15.0
 20
297.0
 30
0.0
 11
0.0
 21
297.0
 31
0.0
  0
LINE
  5
3B0
330
3A6
100
AcDbEntity
  8
BORDER
100
AcDbLine
 10
410.0
 20
287.0
 30
0.0
 11
20.0
 21
287.0
 31
0.0
  0
LINE
  5
3B1
330
3A6
100
AcDbEntity
  8
Defpoints
100
AcDbLine
 10
0.0
 20
297.0
 30
0.0
 11
0.0
 21
282.0
 31
0.0
  0
LINE
  5
3B2
330
3A6
100
AcDbEntity
  8
Defpoints
100
AcDbLine
 10
0.0
 20
15.0
 30
0.0
 11
0.0
 21
0.0
 31
0.0
  0
LINE
  5
3B3
330
3A6
100
AcDbEntity
  8
BORDER
100
AcDbLine
 10
20.0
 20
287.0
 30
0.0
 11
20.0
 21
10.0
 31
0.0
  0
LINE
  5
3B4
330
3A6
100
AcDbEntity
  8
BORDER
100
AcDbLine
 10
410.0
 20
287.0
 30
0.0
 11
410.0
 21
10.0
 31
0.0
  0
LINE
  5
3B5
330
3A6
100
AcDbEntity
  8
BORDER
100
AcDbLine
 10
215.0
 20
5.0
 30
0.0
 11
215.0
 21
15.0
 31
0.0
  0
LINE
  5
3B6
330
3A6
100
AcDbEntity
  8
BORDER
100
AcDbLine
 10
215.0
 20
292.0
 30
0.0
 11
215.0
 21
282.0
 31
0.0
  0
LINE
  5
3B7
330
3A6
100
AcDbEntity
  8
BORDER
100
AcDbLine
 10
265.0
 20
292.0
 30
0.0
 11
265.0
 21
287.0
 31
0.0
  0
LINE
  5
3B8
330
3A6
100
AcDbEntity
  8
BORDER
100
AcDbLine
 10
315.0
 20
292.0
 30
0.0
 11
315.0
 21
287.0
 31
0.0
  0
LINE
  5
3B9
330
3A6
100
AcDbEntity
  8
BORDER
100
AcDbLine
 10
365.0
 20
292.0
 30
0.0
 11
365.0
 21
287.0
 31
0.0
  0
LINE
  5
3BA
330
3A6
100
AcDbEntity
  8
BORDER
100
AcDbLine
 10
165.0
 20
292.0
 30
0.0
 11
165.0
 21
287.0
 31
0.0
  0
LINE
  5
3BB
330
3A6
100
AcDbEntity
  8
BORDER
100
AcDbLine
 10
115.0
 20
292.0
 30
0.0
 11
115.0
 21
287.0
 31
0.0
  0
LINE
  5
3BC
330
3A6
100
AcDbEntity
  8
BORDER
100
AcDbLine
 10
65.0
 20
292.0
 30
0.0
 11
65.0
 21
287.0
 31
0.0
  0
LINE
  5
3BD
330
3A6
100
AcDbEntity
  8
BORDER
100
AcDbLine
 10
15.0
 20
148.5
 30
0.0
 11
25.0
 21
148.5
 31
0.0
  0
LINE
  5
3BE
330
3A6
100
AcDbEntity
  8
BORDER
100
AcDbLine
 10
15.0
 20
100.66667
 30
0.0
 11
20.0
 21
100.66667
 31
0.0
  0
LINE
  5
3BF
330
3A6
100
AcDbEntity
  8
BORDER
100
AcDbLine
 10
15.0
 20
52.83333999999999
 30
0.0
 11
20.0
 21
52.83333999999999
 31
0.0
  0
LINE
  5
3C0
330
3A6
100
AcDbEntity
  8
BORDER
100
AcDbLine
 10
15.0
 20
196.33333
 30
0.0
 11
20.0
 21
196.33333
 31
0.0
  0
LINE
  5
3C1
330
3A6
100
AcDbEntity
  8
BORDER
100
AcDbLine
 10
15.0
 20
244.16666
 30
0.0
 11
20.0
 21
244.16666
 31
0.0
  0
LINE
  5
3C2
330
3A6
100
AcDbEntity
  8
BORDER
100
AcDbLine
 10
415.0
 20
148.5
 30
0.0
 11
405.0
 21
148.5
 31
0.0
  0
LINE
  5
3C3
330
3A6
100
AcDbEntity
  8
BORDER
100
AcDbLine
 10
265.0
 20
5.0
 30
0.0
 11
265.0
 21
10.0
 31
0.0
  0
LINE
  5
3C4
330
3A6
100
AcDbEntity
  8
BORDER
100
AcDbLine
 10
315.0
 20
5.0
 30
0.0
 11
315.0
 21
10.0
 31
0.0
  0
LINE
  5
3C5
330
3A6
100
AcDbEntity
  8
BORDER
100
AcDbLine
 10
365.0
 20
5.0
 30
0.0
 11
365.0
 21
10.0
 31
0.0
  0
LINE
  5
3C6
330
3A6
100
AcDbEntity
  8
BORDER
100
AcDbLine
 10
165.0
 20
5.0
 30
0.0
 11
165.0
 21
10.0
 31
0.0
  0
LINE
  5
3C7
330
3A6
100
AcDbEntity
  8
BORDER
100
AcDbLine
 10
115.0
 20
5.0
 30
0.0
 11
115.0
 21
10.0
 31
0.0
  0
LINE
  5
3C8
330
3A6
100
AcDbEntity
  8
BORDER
100
AcDbLine
 10
65.0
 20
5.0
 30
0.0
 11
65.0
 21
10.0
 31
0.0
  0
LINE
  5
3C9
330
3A6
100
AcDbEntity
  8
BORDER
100
AcDbLine
 10
415.0
 20
100.66667
 30
0.0
 11
410.0
 21
100.66667
 31
0.0
  0
LINE
  5
3CA
330
3A6
100
AcDbEntity
  8
BORDER
100
AcDbLine
 10
415.0
 20
52.83333999999999
 30
0.0
 11
410.0
 21
52.83333999999999
 31
0.0
  0
LINE
  5
3CB
330
3A6
100
AcDbEntity
  8
BORDER
100
AcDbLine
 10
415.0
 20
196.33333
 30
0.0
 11
410.0
 21
196.33333
 31
0.0
  0
LINE
  5
3CC
330
3A6
100
AcDbEntity
  8
BORDER
100
AcDbLine
 10
415.0
 20
244.16666
 30
0.0
 11
410.0
 21
244.16666
 31
0.0
  0
TEXT
  5
3CD
330
3A6
100
AcDbEntity
  8
BORDER
100
AcDbText
 10
39.02881991814462
 20
288.2448840381992
 30
0.0
 40
2.5
  1
1
  7
FusionTitle
 72
     4
 11
40.0
 21
289.5
 31
0.0
100
AcDbText
  0
TEXT
  5
3CE
330
3A6
100
AcDbEntity
  8
BORDER
100
AcDbText
 10
16.33526603001364
 20
266.83333
 30
0.0
 40
2.5
  1
A
  7
FusionTitle
 72
     4
 11
17.5
 21
268.08333
 31
0.0
100
AcDbText
  0
TEXT
  5
3CF
330
3A6
100
AcDbEntity
  8
BORDER
100
AcDbText
 10
89.0288199181446
 20
288.2448840381992
 30
0.0
 40
2.5
  1
2
  7
FusionTitle
 72
     4
 11
90.0
 21
289.5
 31
0.0
100
AcDbText
  0
TEXT
  5
3D0
330
3A6
100
AcDbEntity
  8
BORDER
100
AcDbText
 10
139.0288199181446
 20
288.2670532060028
 30
0.0
 40
2.5
  1
3
  7
FusionTitle
 72
     4
 11
140.0
 21
289.5
 31
0.0
100
AcDbText
  0
TEXT
  5
3D1
330
3A6
100
AcDbEntity
  8
BORDER
100
AcDbText
 10
189.0288199181446
 20
288.25
 30
0.0
 40
2.5
  1
4
  7
FusionTitle
 72
     4
 11
190.0
 21
289.5
 31
0.0
100
AcDbText
  0
TEXT
  5
3D2
330
3A6
100
AcDbEntity
  8
BORDER
100
AcDbText
 10
239.0288199181446
 20
288.2883697135061
 30
0.0
 40
2.5
  1
5
  7
FusionTitle
 72
     4
 11
240.0
 21
289.5
 31
0.0
100
AcDbText
  0
TEXT
  5
3D3
330
3A6
100
AcDbEntity
  8
BORDER
100
AcDbText
 10
289.0288199181446
 20
288.2662005457026
 30
0.0
 40
2.5
  1
6
  7
FusionTitle
 72
     4
 11
290.0
 21
289.5
 31
0.0
100
AcDbText
  0
TEXT
  5
3D4
330
3A6
100
AcDbEntity
  8
BORDER
100
AcDbText
 10
339.0288199181446
 20
288.2662005457026
 30
0.0
 40
2.5
  1
7
  7
FusionTitle
 72
     4
 11
340.0
 21
289.5
 31
0.0
100
AcDbText
  0
TEXT
  5
3D5
330
3A6
100
AcDbEntity
  8
BORDER
100
AcDbText
 10
389.0288199181446
 20
288.2662005457026
 30
0.0
 40
2.5
  1
8
  7
FusionTitle
 72
     4
 11
390.0
 21
289.5
 31
0.0
100
AcDbText
  0
TEXT
  5
3D6
330
3A6
100
AcDbEntity
  8
BORDER
100
AcDbText
 10
39.02881991814462
 20
6.244884038199181
 30
0.0
 40
2.5
  1
1
  7
FusionTitle
 72
     4
 11
40.0
 21
7.5
 31
0.0
100
AcDbText
  0
TEXT
  5
3D7
330
3A6
100
AcDbEntity
  8
BORDER
100
AcDbText
 10
89.0288199181446
 20
6.244884038199181
 30
0.0
 40
2.5
  1
2
  7
FusionTitle
 72
     4
 11
90.0
 21
7.5
 31
0.0
100
AcDbText
  0
TEXT
  5
3D8
330
3A6
100
AcDbEntity
  8
BORDER
100
AcDbText
 10
139.0288199181446
 20
6.267053206002728
 30
0.0
 40
2.5
  1
3
  7
FusionTitle
 72
     4
 11
140.0
 21
7.5
 31
0.0
100
AcDbText
  0
TEXT
  5
3D9
330
3A6
100
AcDbEntity
  8
BORDER
100
AcDbText
 10
189.0288199181446
 20
6.25
 30
0.0
 40
2.5
  1
4
  7
FusionTitle
 72
     4
 11
190.0
 21
7.5
 31
0.0
100
AcDbText
  0
TEXT
  5
3DA
330
3A6
100
AcDbEntity
  8
BORDER
100
AcDbText
 10
239.0288199181446
 20
6.288369713506138
 30
0.0
 40
2.5
  1
5
  7
FusionTitle
 72
     4
 11
240.0
 21
7.5
 31
0.0
100
AcDbText
  0
TEXT
  5
3DB
330
3A6
100
AcDbEntity
  8
BORDER
100
AcDbText
 10
289.0288199181446
 20
6.266200545702591
 30
0.0
 40
2.5
  1
6
  7
FusionTitle
 72
     4
 11
290.0
 21
7.5
 31
0.0
100
AcDbText
  0
TEXT
  5
3DC
330
3A6
100
AcDbEntity
  8
BORDER
100
AcDbText
 10
339.0288199181446
 20
6.266200545702591
 30
0.0
 40
2.5
  1
7
  7
FusionTitle
 72
     4
 11
340.0
 21
7.5
 31
0.0
100
AcDbText
  0
TEXT
  5
3DD
330
3A6
100
AcDbEntity
  8
BORDER
100
AcDbText
 10
389.0288199181446
 20
6.266200545702591
 30
0.0
 40
2.5
  1
8
  7
FusionTitle
 72
     4
 11
390.0
 21
7.5
 31
0.0
100
AcDbText
  0
TEXT
  5
3DE
330
3A6
100
AcDbEntity
  8
BORDER
100
AcDbText
 10
16.33526603001364
 20
219.0
 30
0.0
 40
2.5
  1
B
  7
FusionTitle
 72
     4
 11
17.5
 21
220.25
 31
0.0
100
AcDbText
  0
TEXT
  5
3DF
330
3A6
100
AcDbEntity
  8
BORDER
100
AcDbText
 10
16.23891541609823
 20
171.16667
 30
0.0
 40
2.5
  1
C
  7
FusionTitle
 72
     4
 11
17.5
 21
172.41667
 31
0.0
100
AcDbText
  0
TEXT
  5
3E0
330
3A6
100
AcDbEntity
  8
BORDER
100
AcDbText
 10
16.23891541609823
 20
123.33334
 30
0.0
 40
2.5
  1
D
  7
FusionTitle
 72
     4
 11
17.5
 21
124.58334
 31
0.0
100
AcDbText
  0
TEXT
  5
3E1
330
3A6
100
AcDbEntity
  8
BORDER
100
AcDbText
 10
16.33526603001364
 20
75.50001
 30
0.0
 40
2.5
  1
E
  7
FusionTitle
 72
     4
 11
17.5
 21
76.75001
 31
0.0
100
AcDbText
  0
TEXT
  5
3E2
330
3A6
100
AcDbEntity
  8
BORDER
100
AcDbText
 10
16.43332196452933
 20
27.66668
 30
0.0
 40
2.5
  1
F
  7
FusionTitle
 72
     4
 11
17.5
 21
28.91668
 31
0.0
100
AcDbText
  0
TEXT
  5
3E3
330
3A6
100
AcDbEntity
  8
BORDER
100
AcDbText
 10
411.3352660300136
 20
266.83333
 30
0.0
 40
2.5
  1
A
  7
FusionTitle
 72
     4
 11
412.5
 21
268.08333
 31
0.0
100
AcDbText
  0
TEXT
  5
3E4
330
3A6
100
AcDbEntity
  8
BORDER
100
AcDbText
 10
411.3352660300136
 20
219.0
 30
0.0
 40
2.5
  1
B
  7
FusionTitle
 72
     4
 11
412.5
 21
220.25
 31
0.0
100
AcDbText
  0
TEXT
  5
3E5
330
3A6
100
AcDbEntity
  8
BORDER
100
AcDbText
 10
411.2389154160982
 20
171.16667
 30
0.0
 40
2.5
  1
C
  7
FusionTitle
 72
     4
 11
412.5
 21
172.41667
 31
0.0
100
AcDbText
  0
TEXT
  5
3E6
330
3A6
100
AcDbEntity
  8
BORDER
100
AcDbText
 10
411.2389154160982
 20
123.33334
 30
0.0
 40
2.5
  1
D
  7
FusionTitle
 72
     4
 11
412.5
 21
124.58334
 31
0.0
100
AcDbText
  0
TEXT
  5
3E7
330
3A6
100
AcDbEntity
  8
BORDER
100
AcDbText
 10
411.3352660300136
 20
75.50001
 30
0.0
 40
2.5
  1
E
  7
FusionTitle
 72
     4
 11
412.5
 21
76.75001
 31
0.0
100
AcDbText
  0
TEXT
  5
3E8
330
3A6
100
AcDbEntity
  8
BORDER
100
AcDbText
 10
411.4333219645293
 20
27.66668
 30
0.0
 40
2.5
  1
F
  7
FusionTitle
 72
     4
 11
412.5
 21
28.91668
 31
0.0
100
AcDbText
  0
ENDBLK
  5
3E9
330
3A6
100
AcDbEntity
  8
0
100
AcDbBlockEnd
  0
BLOCK
  5
3EF
330
3EC
100
AcDbEntity
  8
0
100
AcDbBlockBegin
  2
ISO_TITLEBLOCK
 70
     2
 10
0.0
 20
0.0
 30
0.0
  3
ISO_TITLEBLOCK
  1

  0
LINE
  5
3F0
330
3EC
100
AcDbEntity
  8
TITLEBLOCK
100
AcDbLine
 10
-180.0
 20
0.0
 30
0.0
 11
0.0
 21
0.0
 31
0.0
  0
LINE
  5
3F1
330
3EC
100
AcDbEntity
  8
TITLEBLOCK
100
AcDbLine
 10
-61.0
 20
10.0
 30
0.0
 11
0.0
 21
10.0
 31
0.0
  0
LINE
  5
3F2
330
3EC
100
AcDbEntity
  8
TITLEBLOCK
100
AcDbLine
 10
-122.0
 20
27.0
 30
0.0
 11
0.0
 21
27.0
 31
0.0
  0
LINE
  5
3F3
330
3EC
100
AcDbEntity
  8
TITLEBLOCK
100
AcDbLine
 10
-180.0
 20
37.0
 30
0.0
 11
0.0
 21
37.0
 31
0.0
  0
LINE
  5
3F4
330
3EC
100
AcDbEntity
  8
TITLEBLOCK
100
AcDbLine
 10
0.0
 20
0.0
 30
0.0
 11
0.0
 21
47.0
 31
0.0
  0
LINE
  5
3F5
330
3EC
100
AcDbEntity
  8
TITLEBLOCK
100
AcDbLine
 10
-15.0
 20
0.0
 30
0.0
 11
-15.0
 21
10.0
 31
0.0
  0
LINE
  5
3F6
330
3EC
100
AcDbEntity
  8
TITLEBLOCK
100
AcDbLine
 10
-51.0
 20
0.0
 30
0.0
 11
-51.0
 21
10.0
 31
0.0
  0
LINE
  5
3F7
330
3EC
100
AcDbEntity
  8
TITLEBLOCK
100
AcDbLine
 10
-61.0
 20
0.0
 30
0.0
 11
-61.0
 21
47.0
 31
0.0
  0
LINE
  5
3F8
330
3EC
100
AcDbEntity
  8
TITLEBLOCK
100
AcDbLine
 10
-122.0
 20
0.0
 30
0.0
 11
-122.0
 21
47.0
 31
0.0
  0
LINE
  5
3F9
330
3EC
100
AcDbEntity
  8
TITLEBLOCK
100
AcDbLine
 10
-156.0
 20
37.0
 30
0.0
 11
-156.0
 21
47.0
 31
0.0
  0
LINE
  5
3FA
330
3EC
100
AcDbEntity
  8
TITLEBLOCK
100
AcDbLine
 10
0.0
 20
47.0
 30
0.0
 11
-180.0
 21
47.0
 31
0.0
  0
LINE
  5
3FB
330
3EC
100
AcDbEntity
  8
TITLEBLOCK
100
AcDbLine
 10
-180.0
 20
47.0
 30
0.0
 11
-180.0
 21
0.0
 31
0.0
  0
TEXT
  5
3FC
330
3EC
100
AcDbEntity
  8
TITLEBLOCK
100
AcDbText
 10
-179.0
 20
44.2
 30
0.0
 40
1.8
  1
Dept.
  7
FusionTitle
 11
-179.0
 21
46.0
 31
0.0
100
AcDbText
 73
     3
  0
TEXT
  5
3FD
330
3EC
100
AcDbEntity
  8
TITLEBLOCK
100
AcDbText
 10
-155.0
 20
44.2
 30
0.0
 40
1.8
  1
Technical reference
  7
FusionTitle
 11
-155.0
 21
46.0
 31
0.0
100
AcDbText
 73
     3
  0
TEXT
  5
3FE
330
3EC
100
AcDbEntity
  8
TITLEBLOCK
100
AcDbText
 10
-121.0
 20
44.2
 30
0.0
 40
1.8
  1
Created by
  7
FusionTitle
 11
-121.0
 21
46.0
 31
0.0
100
AcDbText
 73
     3
  0
TEXT
  5
3FF
330
3EC
100
AcDbEntity
  8
TITLEBLOCK
100
AcDbText
 10
-60.0
 20
44.2
 30
0.0
 40
1.8
  1
Approved by
  7
FusionTitle
 11
-60.0
 21
46.0
 31
0.0
100
AcDbText
 73
     3
  0
TEXT
  5
400
330
3EC
100
AcDbEntity
  8
TITLEBLOCK
100
AcDbText
 10
-121.0
 20
34.2
 30
0.0
 40
1.8
  1
Document type
  7
FusionTitle
 11
-121.0
 21
36.0
 31
0.0
100
AcDbText
 73
     3
  0
TEXT
  5
401
330
3EC
100
AcDbEntity
  8
TITLEBLOCK
100
AcDbText
 10
-60.0
 20
34.2
 30
0.0
 40
1.8
  1
Document status
  7
FusionTitle
 11
-60.0
 21
36.0
 31
0.0
100
AcDbText
 73
     3
  0
TEXT
  5
402
330
3EC
100
AcDbEntity
  8
TITLEBLOCK
100
AcDbText
 10
-121.0
 20
24.2
 30
0.0
 40
1.8
  1
Title
  7
FusionTitle
 11
-121.0
 21
26.0
 31
0.0
100
AcDbText
 73
     3
  0
TEXT
  5
403
330
3EC
100
AcDbEntity
  8
TITLEBLOCK
100
AcDbText
 10
-60.0
 20
24.2
 30
0.0
 40
1.8
  1
DWG No.
  7
FusionTitle
 11
-60.0
 21
26.0
 31
0.0
100
AcDbText
 73
     3
  0
TEXT
  5
404
330
3EC
100
AcDbEntity
  8
TITLEBLOCK
100
AcDbText
 10
-60.0
 20
7.2
 30
0.0
 40
1.8
  1
Rev.
  7
FusionTitle
 11
-60.0
 21
9.0
 31
0.0
100
AcDbText
 73
     3
  0
TEXT
  5
405
330
3EC
100
AcDbEntity
  8
TITLEBLOCK
100
AcDbText
 10
-50.0
 20
7.2
 30
0.0
 40
1.8
  1
Date of issue
  7
FusionTitle
 11
-50.0
 21
9.0
 31
0.0
100
AcDbText
 73
     3
  0
TEXT
  5
406
330
3EC
100
AcDbEntity
  8
TITLEBLOCK
100
AcDbText
 10
-14.0
 20
7.2
 30
0.0
 40
1.8
  1
Sheet
  7
FusionTitle
 11
-14.0
 21
9.0
 31
0.0
100
AcDbText
 73
     3
  0
ATTDEF
  5
407
102
{ACAD_XDICTIONARY
360
408
102
}
330
3EC
100
AcDbEntity
  8
TITLEBLOCK
100
AcDbText
 10
-50.0
 20
1.5
 30
0.0
 40
3.5
  1

  7
FusionTitle
 11
-50.0
 21
5.0
 31
0.0
100
AcDbAttributeDefinition
280
     0
  3
Date of issue
  2
DATE_OF_ISSUE
 70
     0
 74
     3
280
     1
  0
ATTDEF
  5
409
102
{ACAD_XDICTIONARY
360
40A
102
}
330
3EC
100
AcDbEntity
  8
TITLEBLOCK
100
AcDbText
 10
-56.0
 20
1.349999999999999
 30
0.0
 40
3.5
  1

  7
FusionTitle
 72
     1
 11
-56.0
 21
4.849999999999999
 31
0.0
100
AcDbAttributeDefinition
280
     0
  3
Revision
  2
REV
 70
     0
 74
     3
280
     1
  0
ATTDEF
  5
40B
102
{ACAD_XDICTIONARY
360
40C
102
}
330
3EC
100
AcDbEntity
  8
TITLEBLOCK
100
AcDbText
 10
-121.0
 20
1.5
 30
0.0
 40
5.0
  1

  7
FusionTitle
 11
-121.0
 21
6.5
 31
0.0
100
AcDbAttributeDefinition
280
     0
  3
3rd Title
  2
TITLE_3
 70
     0
 74
     3
280
     1
  0
ATTDEF
  5
40D
102
{ACAD_XDICTIONARY
360
40E
102
}
330
3EC
100
AcDbEntity
  8
TITLEBLOCK
100
AcDbText
 10
-60.0
 20
28.5
 30
0.0
 40
3.5
  1

  7
FusionTitle
 11
-60.0
 21
32.0
 31
0.0
100
AcDbAttributeDefinition
280
     0
  3
Document status
  2
DOCUMENT_STATUS
 70
     0
 74
     3
280
     1
  0
ATTDEF
  5
40F
102
{ACAD_XDICTIONARY
360
410
102
}
330
3EC
100
AcDbEntity
  8
TITLEBLOCK
100
AcDbText
 10
-121.0
 20
28.5
 30
0.0
 40
3.5
  1

  7
FusionTitle
 11
-121.0
 21
32.0
 31
0.0
100
AcDbAttributeDefinition
280
     0
  3
Document type
  2
DOCUMENT_TYPE
 70
     0
 74
     3
280
     1
  0
ATTDEF
  5
411
102
{ACAD_XDICTIONARY
360
412
102
}
330
3EC
100
AcDbEntity
  8
TITLEBLOCK
100
AcDbText
 10
-0.992838
 20
38.5
 30
0.0
 40
3.5
  1

  7
FusionTitle
 72
     2
 11
-0.9928379999999998
 21
42.0
 31
0.0
100
AcDbAttributeDefinition
280
     0
  3
Approved date
  2
APPROVED_DATE
 70
     0
 74
     3
280
     1
  0
ATTDEF
  5
413
102
{ACAD_XDICTIONARY
360
414
102
}
330
3EC
100
AcDbEntity
  8
TITLEBLOCK
100
AcDbText
 10
-62.0
 20
38.5
 30
0.0
 40
3.5
  1

  7
FusionTitle
 72
     2
 11
-62.0
 21
42.0
 31
0.0
100
AcDbAttributeDefinition
280
     0
  3
Created date
  2
CREATED_DATE
 70
     0
 74
     3
280
     1
  0
ATTDEF
  5
415
102
{ACAD_XDICTIONARY
360
416
102
}
330
3EC
100
AcDbEntity
  8
TITLEBLOCK
100
AcDbText
 10
-7.5
 20
1.349999999999999
 30
0.0
 40
3.5
  1

  7
FusionTitle
 72
     1
 11
-7.5
 21
4.849999999999999
 31
0.0
100
AcDbAttributeDefinition
280
     0
  3
Sheet
  2
SHEET
 70
     0
 74
     3
280
     1
  0
ATTDEF
  5
417
102
{ACAD_XDICTIONARY
360
418
102
}
330
3EC
100
AcDbEntity
  8
TITLEBLOCK
100
AcDbText
 10
-121.0
 20
9.0
 30
0.0
 40
5.0
  1

  7
FusionTitle
 11
-121.0
 21
14.0
 31
0.0
100
AcDbAttributeDefinition
280
     0
  3
2nd Title
  2
TITLE_2
 70
     0
 74
     3
280
     1
  0
ATTDEF
  5
419
102
{ACAD_XDICTIONARY
360
41A
102
}
330
3EC
100
AcDbEntity
  8
TITLEBLOCK
100
AcDbText
 10
-30.5
 20
14.751432
 30
0.0
 40
5.0
  1

  7
FusionTitle
 72
     1
 11
-30.5
 21
19.751432
 31
0.0
100
AcDbAttributeDefinition
280
     0
  3
Drawing number
  2
DRAWING_NUMBER
 70
     0
 74
     3
280
     1
  0
ATTDEF
  5
41B
102
{ACAD_XDICTIONARY
360
41C
102
}
330
3EC
100
AcDbEntity
  8
TITLEBLOCK
100
AcDbText
 10
-121.0
 20
16.5
 30
0.0
 40
5.0
  1

  7
FusionTitle
 11
-121.0
 21
21.5
 31
0.0
100
AcDbAttributeDefinition
280
     0
  3
1st Title
  2
TITLE_1
 70
     0
 74
     3
280
     1
  0
ATTDEF
  5
41D
102
{ACAD_XDICTIONARY
360
41E
102
}
330
3EC
100
AcDbEntity
  8
TITLEBLOCK
100
AcDbText
 10
-60.0
 20
38.5
 30
0.0
 40
3.5
  1

  7
FusionTitle
 11
-60.0
 21
42.0
 31
0.0
100
AcDbAttributeDefinition
280
     0
  3
Approved by
  2
APPROVED_BY
 70
     0
 74
     3
280
     1
  0
ATTDEF
  5
41F
102
{ACAD_XDICTIONARY
360
420
102
}
330
3EC
100
AcDbEntity
  8
TITLEBLOCK
100
AcDbText
 10
-121.0
 20
38.5
 30
0.0
 40
3.5
  1

  7
FusionTitle
 11
-121.0
 21
42.0
 31
0.0
100
AcDbAttributeDefinition
280
     0
  3
Created by
  2
CREATED_BY
 70
     0
 74
     3
280
     1
  0
ATTDEF
  5
421
102
{ACAD_XDICTIONARY
360
422
102
}
330
3EC
100
AcDbEntity
  8
TITLEBLOCK
100
AcDbText
 10
-155.0
 20
38.5
 30
0.0
 40
3.5
  1

  7
FusionTitle
 11
-155.0
 21
42.0
 31
0.0
100
AcDbAttributeDefinition
280
     0
  3
Technical reference
  2
TECHNICAL_REFERENCE
 70
     0
 74
     3
280
     1
  0
ATTDEF
  5
423
102
{ACAD_XDICTIONARY
360
424
102
}
330
3EC
100
AcDbEntity
  8
TITLEBLOCK
100
AcDbText
 10
-179.0
 20
38.5
 30
0.0
 40
3.5
  1

  7
FusionTitle
 11
-179.0
 21
42.0
 31
0.0
100
AcDbAttributeDefinition
280
     0
  3
Department
  2
DEPT
 70
     0
 74
     3
280
     1
  0
ENDBLK
  5
425
330
3EC
100
AcDbEntity
  8
0
100
AcDbBlockEnd
  0
ENDSEC
  0
SECTION
  2
ENTITIES
  0
ARC
  5
438
330
70
100
AcDbEntity
  8
Reference
100
AcDbCircle
 10
-85.83831399999999
 20
132.821911
 30
0.0
 40
0.999999999999934
210
0.0
220
0.0
230
-1.0
100
AcDbArc
 50
270.0
 51
0.0
  0
LINE
  5
439
330
70
100
AcDbEntity
  8
Reference
100
AcDbLine
 10
84.83831399999999
 20
132.821911
 30
0.0
 11
84.83831399999999
 21
133.821911
 31
0.0
  0
ARC
  5
43A
330
70
100
AcDbEntity
  8
Reference
100
AcDbCircle
 10
-85.83831399999999
 20
133.821911
 30
0.0
 40
1.000000000000137
210
0.0
220
0.0
230
-1.0
100
AcDbArc
 50
0.0
 51
90.0
  0
LINE
  5
43B
330
70
100
AcDbEntity
  8
Reference
100
AcDbLine
 10
85.83831399999999
 20
134.821911
 30
0.0
 11
101.588314
 21
134.821911
 31
0.0
  0
ARC
  5
43C
330
70
100
AcDbEntity
  8
Reference
100
AcDbCircle
 10
-101.588314
 20
135.571911
 30
0.0
 40
0.7500000000002061
210
0.0
220
0.0
230
-1.0
100
AcDbArc
 50
90.0
 51
270.000515
  0
ARC
  5
43E
330
70
100
AcDbEntity
  8
Reference
100
AcDbCircle
 10
69.711771
 20
135.321911
 30
0.0
 40
0.9999999999999968
100
AcDbArc
 50
90.00000099999999
 51
180.0
  0
LINE
  5
43F
330
70
100
AcDbEntity
  8
Reference
100
AcDbLine
 10
68.711771
 20
132.270307
 30
0.0
 11
68.711771
 21
135.321911
 31
0.0
  0
ARC
  5
440
330
70
100
AcDbEntity
  8
Reference
100
AcDbCircle
 10
67.711771
 20
132.270307
 30
0.0
 40
0.9999999999999964
100
AcDbArc
 50
270.0
 51
0.0
  0
LINE
  5
441
330
70
100
AcDbEntity
  8
Reference
100
AcDbLine
 10
66.31177099999999
 20
131.270307
 30
0.0
 11
67.711771
 21
131.270307
 31
0.0
  0
ARC
  5
442
330
70
100
AcDbEntity
  8
Reference
100
AcDbCircle
 10
66.31177099999999
 20
132.270307
 30
0.0
 40
0.9999999999999964
100
AcDbArc
 50
180.0
 51
270.0
  0
LINE
  5
443
330
70
100
AcDbEntity
  8
Reference
100
AcDbLine
 10
65.31177099999999
 20
135.321911
 30
0.0
 11
65.31177099999999
 21
132.270307
 31
0.0
  0
ARC
  5
444
330
70
100
AcDbEntity
  8
Reference
100
AcDbCircle
 10
64.31177099999999
 20
135.321911
 30
0.0
 40
0.9999999999999964
100
AcDbArc
 50
0.0
 51
90.0
  0
ARC
  5
445
330
70
100
AcDbEntity
  8
Reference
100
AcDbCircle
 10
-124.838314
 20
132.821911
 30
0.0
 40
0.9999999999998188
210
0.0
220
0.0
230
-1.0
100
AcDbArc
 50
180.0
 51
270.0
  0
LINE
  5
446
330
70
100
AcDbEntity
  8
Reference
100
AcDbLine
 10
125.838314
 20
133.821911
 30
0.0
 11
125.838314
 21
132.821911
 31
0.0
  0
ARC
  5
447
330
70
100
AcDbEntity
  8
Reference
100
AcDbCircle
 10
-124.838314
 20
133.821911
 30
0.0
 40
0.9999999999998896
210
0.0
220
0.0
230
-1.0
100
AcDbArc
 50
90.0
 51
180.0
  0
LINE
  5
448
330
70
100
AcDbEntity
  8
Reference
100
AcDbLine
 10
109.088314
 20
134.821911
 30
0.0
 11
124.838314
 21
134.821911
 31
0.0
  0
ARC
  5
449
330
70
100
AcDbEntity
  8
Reference
100
AcDbCircle
 10
109.088314
 20
135.571911
 30
0.0
 40
0.7499999999999401
100
AcDbArc
 50
89.99963800000001
 51
270.0
  0
ARC
  5
44B
330
70
100
AcDbEntity
  8
Reference
100
AcDbCircle
 10
150.13306
 20
135.321911
 30
0.0
 40
1.000000000000452
100
AcDbArc
 50
0.0
 51
90.0
  0
LINE
  5
44C
330
70
100
AcDbEntity
  8
Reference
100
AcDbLine
 10
151.13306
 20
135.321911
 30
0.0
 11
151.13306
 21
132.270308
 31
0.0
  0
ARC
  5
44D
330
70
100
AcDbEntity
  8
Reference
100
AcDbCircle
 10
152.13306
 20
132.270308
 30
0.0
 40
0.9999999999990903
100
AcDbArc
 50
180.0
 51
270.0
  0
LINE
  5
44E
330
70
100
AcDbEntity
  8
Reference
100
AcDbLine
 10
152.13306
 20
131.270308
 30
0.0
 11
153.53306
 21
131.270308
 31
0.0
  0
ARC
  5
44F
330
70
100
AcDbEntity
  8
Reference
100
AcDbCircle
 10
153.53306
 20
132.270308
 30
0.0
 40
0.9999999999999964
100
AcDbArc
 50
270.0
 51
0.0
  0
LINE
  5
450
330
70
100
AcDbEntity
  8
Reference
100
AcDbLine
 10
154.53306
 20
132.270308
 30
0.0
 11
154.53306
 21
135.321911
 31
0.0
  0
ARC
  5
451
330
70
100
AcDbEntity
  8
Reference
100
AcDbCircle
 10
155.53306
 20
135.321911
 30
0.0
 40
0.9999999999999964
100
AcDbArc
 50
90.0
 51
180.0
  0
ARC
  5
453
330
70
100
AcDbEntity
  8
Reference
100
AcDbCircle
 10
196.57644
 20
135.571911
 30
0.0
 40
0.7499999999926411
100
AcDbArc
 50
269.999743
 51
89.99974300000001
  0
LINE
  5
454
330
70
100
AcDbEntity
  8
Reference
100
AcDbLine
 10
180.826443
 20
134.821911
 30
0.0
 11
196.576443
 21
134.821911
 31
0.0
  0
ARC
  5
455
330
70
100
AcDbEntity
  8
Reference
100
AcDbCircle
 10
-180.826443
 20
133.821911
 30
0.0
 40
1.000000000000137
210
0.0
220
0.0
230
-1.0
100
AcDbArc
 50
0.0
 51
90.0
  0
LINE
  5
456
330
70
100
AcDbEntity
  8
Reference
100
AcDbLine
 10
179.826443
 20
132.821911
 30
0.0
 11
179.826443
 21
133.821911
 31
0.0
  0
ARC
  5
457
330
70
100
AcDbEntity
  8
Reference
100
AcDbCircle
 10
-101.588316
 20
233.418512
 30
0.0
 40
0.7499999999963915
210
0.0
220
0.0
230
-1.0
100
AcDbArc
 50
90.00018100000001
 51
270.000181
  0
ARC
  5
459
330
70
100
AcDbEntity
  8
Reference
100
AcDbCircle
 10
69.71177199999999
 20
233.668513
 30
0.0
 40
1.000000933147088
100
AcDbArc
 50
180.000022
 51
269.999947
  0
LINE
  5
45A
330
70
100
AcDbEntity
  8
Reference
100
AcDbLine
 10
68.711771
 20
233.668512
 30
0.0
 11
68.711771
 21
236.720115
 31
0.0
  0
ARC
  5
45B
330
70
100
AcDbEntity
  8
Reference
100
AcDbCircle
 10
67.711771
 20
236.720115
 30
0.0
 40
0.9999999999999964
100
AcDbArc
 50
0.0
 51
90.0
  0
LINE
  5
45C
330
70
100
AcDbEntity
  8
Reference
100
AcDbLine
 10
67.711771
 20
237.720115
 30
0.0
 11
66.31177099999999
 21
237.720115
 31
0.0
  0
ARC
  5
45D
330
70
100
AcDbEntity
  8
Reference
100
AcDbCircle
 10
66.31177099999999
 20
236.720115
 30
0.0
 40
0.9999999999998363
100
AcDbArc
 50
90.0
 51
180.0
  0
LINE
  5
45E
330
70
100
AcDbEntity
  8
Reference
100
AcDbLine
 10
65.31177099999999
 20
236.720115
 30
0.0
 11
65.31177099999999
 21
233.668512
 31
0.0
  0
ARC
  5
45F
330
70
100
AcDbEntity
  8
Reference
100
AcDbCircle
 10
64.31177099999999
 20
233.668512
 30
0.0
 40
1.000000000000013
100
AcDbArc
 50
270.0
 51
0.0
  0
LINE
  5
460
330
70
100
AcDbEntity
  8
Reference
100
AcDbLine
 10
64.31177099999999
 20
232.668512
 30
0.0
 11
58.319018
 21
232.668512
 31
0.0
  0
ARC
  5
461
330
70
100
AcDbEntity
  8
Reference
100
AcDbCircle
 10
58.319018
 20
231.668512
 30
0.0
 40
1.000000000000937
100
AcDbArc
 50
90.0
 51
180.0
  0
ARC
  5
463
330
70
100
AcDbEntity
  8
Reference
100
AcDbCircle
 10
58.319018
 20
137.321911
 30
0.0
 40
0.9999999999994278
100
AcDbArc
 50
180.0
 51
270.0
  0
LINE
  5
464
330
70
100
AcDbEntity
  8
Reference
100
AcDbLine
 10
58.319018
 20
136.321911
 30
0.0
 11
64.312816
 21
136.321911
 31
0.0
  0
LINE
  5
465
330
70
100
AcDbEntity
  8
Reference
100
AcDbLine
 10
85.83831399999999
 20
234.168512
 30
0.0
 11
101.588314
 21
234.168512
 31
0.0
  0
ARC
  5
466
330
70
100
AcDbEntity
  8
Reference
100
AcDbCircle
 10
85.83831399999999
 20
235.168512
 30
0.0
 40
1.000000000000137
100
AcDbArc
 50
180.0
 51
270.0
  0
LINE
  5
467
330
70
100
AcDbEntity
  8
Reference
100
AcDbLine
 10
84.83831399999999
 20
236.168512
 30
0.0
 11
84.83831399999999
 21
235.168512
 31
0.0
  0
ARC
  5
468
330
70
100
AcDbEntity
  8
Reference
100
AcDbCircle
 10
85.83831399999999
 20
236.168512
 30
0.0
 40
1.000000000000155
100
AcDbArc
 50
90.0
 51
180.0
  0
ARC
  5
46A
330
70
100
AcDbEntity
  8
Reference
100
AcDbCircle
 10
124.838314
 20
236.168512
 30
0.0
 40
0.9999999999996411
100
AcDbArc
 50
0.0
 51
90.0
  0
LINE
  5
46B
330
70
100
AcDbEntity
  8
Reference
100
AcDbLine
 10
125.838314
 20
235.168512
 30
0.0
 11
125.838314
 21
236.168512
 31
0.0
  0
ARC
  5
46C
330
70
100
AcDbEntity
  8
Reference
100
AcDbCircle
 10
124.838314
 20
235.168512
 30
0.0
 40
0.9999999999998363
100
AcDbArc
 50
270.0
 51
360.0
  0
LINE
  5
46D
330
70
100
AcDbEntity
  8
Reference
100
AcDbLine
 10
109.088314
 20
234.168512
 30
0.0
 11
124.838314
 21
234.168512
 31
0.0
  0
ARC
  5
46E
330
70
100
AcDbEntity
  8
Reference
100
AcDbCircle
 10
-109.088314
 20
233.418512
 30
0.0
 40
0.7499999999997533
210
0.0
220
0.0
230
-1.0
100
AcDbArc
 50
270.000515
 51
90.0
  0
ARC
  5
470
330
70
100
AcDbEntity
  8
Reference
100
AcDbCircle
 10
150.13306
 20
233.668512
 30
0.0
 40
1.000000000000439
100
AcDbArc
 50
270.0
 51
0.0
  0
LINE
  5
471
330
70
100
AcDbEntity
  8
Reference
100
AcDbLine
 10
151.13306
 20
236.720115
 30
0.0
 11
151.13306
 21
233.668512
 31
0.0
  0
ARC
  5
472
330
70
100
AcDbEntity
  8
Reference
100
AcDbCircle
 10
152.13306
 20
236.720115
 30
0.0
 40
0.9999999999990903
100
AcDbArc
 50
90.0
 51
180.0
  0
LINE
  5
473
330
70
100
AcDbEntity
  8
Reference
100
AcDbLine
 10
153.53306
 20
237.720115
 30
0.0
 11
152.13306
 21
237.720115
 31
0.0
  0
ARC
  5
474
330
70
100
AcDbEntity
  8
Reference
100
AcDbCircle
 10
153.53306
 20
236.720115
 30
0.0
 40
1.0
100
AcDbArc
 50
0.0
 51
90.0
  0
LINE
  5
475
330
70
100
AcDbEntity
  8
Reference
100
AcDbLine
 10
154.53306
 20
233.668512
 30
0.0
 11
154.53306
 21
236.720115
 31
0.0
  0
ARC
  5
476
330
70
100
AcDbEntity
  8
Reference
100
AcDbCircle
 10
155.53306
 20
233.668512
 30
0.0
 40
1.0
100
AcDbArc
 50
180.0
 51
270.0
  0
ARC
  5
478
330
70
100
AcDbEntity
  8
Reference
100
AcDbCircle
 10
-196.576446
 20
233.418512
 30
0.0
 40
0.7499999999963915
210
0.0
220
0.0
230
-1.0
100
AcDbArc
 50
90.00018100000001
 51
270.000182
  0
LINE
  5
479
330
70
100
AcDbEntity
  8
Reference
100
AcDbLine
 10
180.826443
 20
234.168512
 30
0.0
 11
196.576443
 21
234.168512
 31
0.0
  0
ARC
  5
47A
330
70
100
AcDbEntity
  8
Reference
100
AcDbCircle
 10
180.826443
 20
235.168512
 30
0.0
 40
1.000000000000133
100
AcDbArc
 50
180.0
 51
270.0
  0
LINE
  5
47B
330
70
100
AcDbEntity
  8
Reference
100
AcDbLine
 10
179.826443
 20
236.220115
 30
0.0
 11
179.826443
 21
235.168512
 31
0.0
  0
ARC
  5
47C
330
70
100
AcDbEntity
  8
Reference
100
AcDbCircle
 10
180.826443
 20
236.220115
 30
0.0
 40
0.9999999999989483
100
AcDbArc
 50
90.0
 51
180.0
  0
ARC
  5
47E
330
70
100
AcDbEntity
  8
Reference
100
AcDbCircle
 10
219.826443
 20
236.220115
 30
0.0
 40
0.9999999999992235
100
AcDbArc
 50
0.0
 51
90.0
  0
LINE
  5
47F
330
70
100
AcDbEntity
  8
Reference
100
AcDbLine
 10
220.826443
 20
235.168512
 30
0.0
 11
220.826443
 21
236.220115
 31
0.0
  0
ARC
  5
480
330
70
100
AcDbEntity
  8
Reference
100
AcDbCircle
 10
219.826443
 20
235.168512
 30
0.0
 40
0.9999999999994102
100
AcDbArc
 50
270.0
 51
0.0
  0
LINE
  5
481
330
70
100
AcDbEntity
  8
Reference
100
AcDbLine
 10
204.076443
 20
234.168512
 30
0.0
 11
219.826443
 21
234.168512
 31
0.0
  0
ARC
  5
482
330
70
100
AcDbEntity
  8
Reference
100
AcDbCircle
 10
-204.076443
 20
233.418512
 30
0.0
 40
0.7499999999997533
210
0.0
220
0.0
230
-1.0
100
AcDbArc
 50
270.000515
 51
90.0
  0
ARC
  5
484
330
70
100
AcDbEntity
  8
Reference
100
AcDbCircle
 10
245.121188
 20
233.668512
 30
0.0
 40
1.000000000000013
100
AcDbArc
 50
270.0
 51
0.0
  0
LINE
  5
485
330
70
100
AcDbEntity
  8
Reference
100
AcDbLine
 10
246.121188
 20
236.720115
 30
0.0
 11
246.121188
 21
233.668512
 31
0.0
  0
ARC
  5
486
330
70
100
AcDbEntity
  8
Reference
100
AcDbCircle
 10
247.121188
 20
236.720115
 30
0.0
 40
1.000000000000049
100
AcDbArc
 50
90.0
 51
180.0
  0
LINE
  5
487
330
70
100
AcDbEntity
  8
Reference
100
AcDbLine
 10
248.521188
 20
237.720115
 30
0.0
 11
247.121188
 21
237.720115
 31
0.0
  0
ARC
  5
488
330
70
100
AcDbEntity
  8
Reference
100
AcDbCircle
 10
248.521188
 20
236.720115
 30
0.0
 40
0.9999999999999964
100
AcDbArc
 50
0.0
 51
90.0
  0
LINE
  5
489
330
70
100
AcDbEntity
  8
Reference
100
AcDbLine
 10
249.521188
 20
233.668512
 30
0.0
 11
249.521188
 21
236.720115
 31
0.0
  0
ARC
  5
48A
330
70
100
AcDbEntity
  8
Reference
100
AcDbCircle
 10
250.521188
 20
233.668512
 30
0.0
 40
0.9999999999997656
100
AcDbArc
 50
180.0
 51
270.0
  0
ARC
  5
48C
330
70
100
AcDbEntity
  8
Reference
100
AcDbCircle
 10
-291.564575
 20
233.418512
 30
0.0
 40
0.7499999999963559
210
0.0
220
0.0
230
-1.0
100
AcDbArc
 50
90.00018100000001
 51
270.00018
  0
LINE
  5
48D
330
70
100
AcDbEntity
  8
Reference
100
AcDbLine
 10
275.814573
 20
234.168512
 30
0.0
 11
291.564573
 21
234.168512
 31
0.0
  0
ARC
  5
48E
330
70
100
AcDbEntity
  8
Reference
100
AcDbCircle
 10
275.814573
 20
235.168512
 30
0.0
 40
0.9999999999996768
100
AcDbArc
 50
180.0
 51
270.0
  0
LINE
  5
48F
330
70
100
AcDbEntity
  8
Reference
100
AcDbLine
 10
274.814573
 20
236.220115
 30
0.0
 11
274.814573
 21
235.168512
 31
0.0
  0
ARC
  5
490
330
70
100
AcDbEntity
  8
Reference
100
AcDbCircle
 10
275.814573
 20
236.220115
 30
0.0
 40
0.9999999999993391
100
AcDbArc
 50
90.0
 51
180.0
  0
ARC
  5
492
330
70
100
AcDbEntity
  8
Reference
100
AcDbCircle
 10
314.814573
 20
236.220115
 30
0.0
 40
1.000000000000528
100
AcDbArc
 50
0.0
 51
90.0
  0
LINE
  5
493
330
70
100
AcDbEntity
  8
Reference
100
AcDbLine
 10
315.814573
 20
235.168512
 30
0.0
 11
315.814573
 21
236.220115
 31
0.0
  0
ARC
  5
494
330
70
100
AcDbEntity
  8
Reference
100
AcDbCircle
 10
314.814573
 20
235.168512
 30
0.0
 40
0.9999999999991615
100
AcDbArc
 50
270.0
 51
0.0
  0
LINE
  5
495
330
70
100
AcDbEntity
  8
Reference
100
AcDbLine
 10
299.064573
 20
234.168512
 30
0.0
 11
314.814573
 21
234.168512
 31
0.0
  0
ARC
  5
496
330
70
100
AcDbEntity
  8
Reference
100
AcDbCircle
 10
-299.064573
 20
233.418512
 30
0.0
 40
0.7499999999997533
210
0.0
220
0.0
230
-1.0
100
AcDbArc
 50
270.000515
 51
90.0
  0
ARC
  5
498
330
70
100
AcDbEntity
  8
Reference
100
AcDbCircle
 10
330.942476
 20
233.668512
 30
0.0
 40
1.000000000000439
100
AcDbArc
 50
270.0
 51
0.0
  0
LINE
  5
499
330
70
100
AcDbEntity
  8
Reference
100
AcDbLine
 10
331.942476
 20
236.720115
 30
0.0
 11
331.942476
 21
233.668512
 31
0.0
  0
ARC
  5
49A
330
70
100
AcDbEntity
  8
Reference
100
AcDbCircle
 10
332.942476
 20
236.720115
 30
0.0
 40
1.000000000000049
100
AcDbArc
 50
90.0
 51
180.0
  0
LINE
  5
49B
330
70
100
AcDbEntity
  8
Reference
100
AcDbLine
 10
334.342476
 20
237.720115
 30
0.0
 11
332.942476
 21
237.720115
 31
0.0
  0
ARC
  5
49C
330
70
100
AcDbEntity
  8
Reference
100
AcDbCircle
 10
334.342476
 20
236.720115
 30
0.0
 40
1.000000000000013
100
AcDbArc
 50
0.0
 51
90.0
  0
LINE
  5
49D
330
70
100
AcDbEntity
  8
Reference
100
AcDbLine
 10
335.342476
 20
233.668512
 30
0.0
 11
335.342476
 21
236.720115
 31
0.0
  0
ARC
  5
49E
330
70
100
AcDbEntity
  8
Reference
100
AcDbCircle
 10
336.342477
 20
233.668513
 30
0.0
 40
1.000000974087536
100
AcDbArc
 50
180.000023
 51
269.999939
  0
LINE
  5
49F
330
70
100
AcDbEntity
  8
Reference
100
AcDbLine
 10
336.342477
 20
232.668512
 30
0.0
 11
342.219018
 21
232.668512
 31
0.0
  0
ARC
  5
4A0
330
70
100
AcDbEntity
  8
Reference
100
AcDbCircle
 10
-342.219018
 20
231.668512
 30
0.0
 40
1.000000000000728
210
0.0
220
0.0
230
-1.0
100
AcDbArc
 50
90.00000599999999
 51
180.000036
  0
ARC
  5
4A2
330
70
100
AcDbEntity
  8
Reference
100
AcDbCircle
 10
-342.218959
 20
137.321911
 30
0.0
 40
0.9999999999989338
210
0.0
220
0.0
230
-1.0
100
AcDbArc
 50
180.000036
 51
269.999994
  0
LINE
  5
4A3
330
70
100
AcDbEntity
  8
Reference
100
AcDbLine
 10
342.218959
 20
136.321911
 30
0.0
 11
336.342476
 21
136.321911
 31
0.0
  0
ARC
  5
4A4
330
70
100
AcDbEntity
  8
Reference
100
AcDbCircle
 10
336.342476
 20
135.321911
 30
0.0
 40
0.9999999999990862
100
AcDbArc
 50
90.00000599999999
 51
180.0
  0
LINE
  5
4A5
330
70
100
AcDbEntity
  8
Reference
100
AcDbLine
 10
335.342476
 20
132.270307
 30
0.0
 11
335.342476
 21
135.321911
 31
0.0
  0
ARC
  5
4A6
330
70
100
AcDbEntity
  8
Reference
100
AcDbCircle
 10
334.342476
 20
132.270307
 30
0.0
 40
0.9999999999999964
100
AcDbArc
 50
270.0
 51
0.0
  0
LINE
  5
4A7
330
70
100
AcDbEntity
  8
Reference
100
AcDbLine
 10
332.942476
 20
131.270307
 30
0.0
 11
334.342476
 21
131.270307
 31
0.0
  0
ARC
  5
4A8
330
70
100
AcDbEntity
  8
Reference
100
AcDbCircle
 10
332.942476
 20
132.270307
 30
0.0
 40
1.000000000000013
100
AcDbArc
 50
180.0
 51
270.0
  0
LINE
  5
4A9
330
70
100
AcDbEntity
  8
Reference
100
AcDbLine
 10
331.942476
 20
135.321911
 30
0.0
 11
331.942476
 21
132.270307
 31
0.0
  0
ARC
  5
4AA
330
70
100
AcDbEntity
  8
Reference
100
AcDbCircle
 10
330.942476
 20
135.321911
 30
0.0
 40
1.000000000000439
100
AcDbArc
 50
0.0
 51
90.0
  0
ARC
  5
4AB
330
70
100
AcDbEntity
  8
Reference
100
AcDbCircle
 10
180.826443
 20
132.770308
 30
0.0
 40
0.9999999999988061
100
AcDbArc
 50
180.0
 51
270.0
  0
ARC
  5
4AD
330
70
100
AcDbEntity
  8
Reference
100
AcDbCircle
 10
219.826443
 20
132.770308
 30
0.0
 40
0.9999999999994102
100
AcDbArc
 50
270.0
 51
0.0
  0
LINE
  5
4AE
330
70
100
AcDbEntity
  8
Reference
100
AcDbLine
 10
204.076443
 20
134.821911
 30
0.0
 11
219.826443
 21
134.821911
 31
0.0
  0
ARC
  5
4AF
330
70
100
AcDbEntity
  8
Reference
100
AcDbCircle
 10
-219.826443
 20
133.821911
 30
0.0
 40
0.9999999999993923
210
0.0
220
0.0
230
-1.0
100
AcDbArc
 50
90.0
 51
180.0
  0
LINE
  5
4B0
330
70
100
AcDbEntity
  8
Reference
100
AcDbLine
 10
220.826443
 20
133.821911
 30
0.0
 11
220.826443
 21
132.821911
 31
0.0
  0
ARC
  5
4B1
330
70
100
AcDbEntity
  8
Reference
100
AcDbCircle
 10
204.076443
 20
135.571911
 30
0.0
 40
0.7499999999999401
100
AcDbArc
 50
89.99963800000001
 51
270.0
  0
ARC
  5
4B3
330
70
100
AcDbEntity
  8
Reference
100
AcDbCircle
 10
245.121188
 20
135.321911
 30
0.0
 40
0.9999999999999964
100
AcDbArc
 50
0.0
 51
90.0
  0
LINE
  5
4B4
330
70
100
AcDbEntity
  8
Reference
100
AcDbLine
 10
246.121188
 20
135.321911
 30
0.0
 11
246.121188
 21
132.270307
 31
0.0
  0
ARC
  5
4B5
330
70
100
AcDbEntity
  8
Reference
100
AcDbCircle
 10
247.121188
 20
132.270307
 30
0.0
 40
0.9999999999999964
100
AcDbArc
 50
180.0
 51
270.0
  0
LINE
  5
4B6
330
70
100
AcDbEntity
  8
Reference
100
AcDbLine
 10
247.121188
 20
131.270307
 30
0.0
 11
248.521188
 21
131.270307
 31
0.0
  0
ARC
  5
4B7
330
70
100
AcDbEntity
  8
Reference
100
AcDbCircle
 10
248.521188
 20
132.270307
 30
0.0
 40
0.9999999999993214
100
AcDbArc
 50
270.0
 51
0.0
  0
LINE
  5
4B8
330
70
100
AcDbEntity
  8
Reference
100
AcDbLine
 10
249.521188
 20
132.270307
 30
0.0
 11
249.521188
 21
135.321911
 31
0.0
  0
ARC
  5
4B9
330
70
100
AcDbEntity
  8
Reference
100
AcDbCircle
 10
250.521188
 20
135.321911
 30
0.0
 40
0.9999999999995432
100
AcDbArc
 50
90.0
 51
180.0
  0
ARC
  5
4BB
330
70
100
AcDbEntity
  8
Reference
100
AcDbCircle
 10
291.564569
 20
135.571911
 30
0.0
 40
0.7499999999926411
100
AcDbArc
 50
269.999743
 51
89.99974300000001
  0
LINE
  5
4BC
330
70
100
AcDbEntity
  8
Reference
100
AcDbLine
 10
275.814573
 20
134.821911
 30
0.0
 11
291.564573
 21
134.821911
 31
0.0
  0
ARC
  5
4BD
330
70
100
AcDbEntity
  8
Reference
100
AcDbCircle
 10
-275.814573
 20
133.821911
 30
0.0
 40
0.9999999999995523
210
0.0
220
0.0
230
-1.0
100
AcDbArc
 50
0.0
 51
90.0
  0
LINE
  5
4BE
330
70
100
AcDbEntity
  8
Reference
100
AcDbLine
 10
274.814573
 20
132.770308
 30
0.0
 11
274.814573
 21
133.821911
 31
0.0
  0
ARC
  5
4BF
330
70
100
AcDbEntity
  8
Reference
100
AcDbCircle
 10
-275.814573
 20
132.770308
 30
0.0
 40
0.9999999999993214
210
0.0
220
0.0
230
-1.0
100
AcDbArc
 50
270.0
 51
0.0
  0
ARC
  5
4C1
330
70
100
AcDbEntity
  8
Reference
100
AcDbCircle
 10
-314.814573
 20
132.770308
 30
0.0
 40
1.000000000000564
210
0.0
220
0.0
230
-1.0
100
AcDbArc
 50
180.0
 51
270.0
  0
LINE
  5
4C2
330
70
100
AcDbEntity
  8
Reference
100
AcDbLine
 10
299.064573
 20
134.821911
 30
0.0
 11
314.814573
 21
134.821911
 31
0.0
  0
ARC
  5
4C3
330
70
100
AcDbEntity
  8
Reference
100
AcDbCircle
 10
-314.814573
 20
133.821911
 30
0.0
 40
0.9999999999992059
210
0.0
220
0.0
230
-1.0
100
AcDbArc
 50
90.0
 51
180.0
  0
LINE
  5
4C4
330
70
100
AcDbEntity
  8
Reference
100
AcDbLine
 10
315.814573
 20
133.821911
 30
0.0
 11
315.814573
 21
132.821911
 31
0.0
  0
ARC
  5
4C5
330
70
100
AcDbEntity
  8
Reference
100
AcDbCircle
 10
299.064573
 20
135.571911
 30
0.0
 40
0.7499999999999401
100
AcDbArc
 50
89.99963800000001
 51
270.0
  0
CIRCLE
  5
4C7
330
70
100
AcDbEntity
  8
Reference
100
AcDbCircle
 10
67.011769
 20
133.32191
 30
0.0
 40
0.9999999999999964
  0
CIRCLE
  5
4C8
330
70
100
AcDbEntity
  8
Reference
100
AcDbCircle
 10
152.833058
 20
235.668512
 30
0.0
 40
1.0
  0
CIRCLE
  5
4C9
330
70
100
AcDbEntity
  8
Reference
100
AcDbCircle
 10
247.821186
 20
133.32191
 30
0.0
 40
0.9999999999999964
  0
CIRCLE
  5
4CA
330
70
100
AcDbEntity
  8
Reference
100
AcDbCircle
 10
333.642473
 20
235.668512
 30
0.0
 40
1.000000000000013
  0
CIRCLE
  5
4CB
330
70
100
AcDbEntity
  8
Reference
100
AcDbCircle
 10
152.833058
 20
133.321911
 30
0.0
 40
1.0
  0
CIRCLE
  5
4CC
330
70
100
AcDbEntity
  8
Reference
100
AcDbCircle
 10
67.011769
 20
235.668512
 30
0.0
 40
0.9999999999999964
  0
CIRCLE
  5
4CD
330
70
100
AcDbEntity
  8
Reference
100
AcDbCircle
 10
333.642473
 20
133.32191
 30
0.0
 40
1.000000000000013
  0
CIRCLE
  5
4CE
330
70
100
AcDbEntity
  8
Reference
100
AcDbCircle
 10
247.821186
 20
235.668512
 30
0.0
 40
0.9999999999999964
  0
LINE
  5
524
330
70
100
AcDbEntity
  8
Reference
100
AcDbLine
 10
59.91990600000001
 20
229.621433
 30
0.0
 11
73.91887800000001
 21
229.6217983970235
 31
0.0
  0
LINE
  5
740
330
70
100
AcDbEntity
  8
0
100
AcDbLine
 10
57.31901799999906
 20
231.668512
 30
0.0
 11
57.39505160000004
 21
173.0709843
 31
0.0
  0
LINE
  5
741
330
70
100
AcDbEntity
  8
0
100
AcDbLine
 10
69.71177199999999
 20
232.6685120668529
 30
0.0
 11
101.5883136307155
 21
232.6685120000074
 31
0.0
  0
LINE
  5
742
330
70
100
AcDbEntity
  8
0
100
AcDbLine
 10
85.83831399999999
 20
237.1685120000002
 30
0.0
 11
124.838314
 21
237.1685119999996
 31
0.0
  0
LINE
  5
743
330
70
100
AcDbEntity
  8
0
100
AcDbLine
 10
109.0883072586657
 20
232.6685120000306
 30
0.0
 11
150.13306
 21
232.6685119999996
 31
0.0
  0
LINE
  5
744
330
70
100
AcDbEntity
  8
0
100
AcDbLine
 10
155.53306
 20
232.668512
 30
0.0
 11
196.5764436176256
 21
232.6685120000074
 31
0.0
  0
LINE
  5
745
330
70
100
AcDbEntity
  8
0
100
AcDbLine
 10
204.0778043823743
 20
232.6685119999926
 30
0.0
 11
245.1211879999998
 21
232.668512
 31
0.0
  0
LINE
  5
746
330
70
100
AcDbEntity
  8
0
100
AcDbLine
 10
250.5211890261799
 20
232.668512
 30
0.0
 11
291.5645726438055
 21
232.6685120000074
 31
0.0
  0
LINE
  5
747
330
70
100
AcDbEntity
  8
0
100
AcDbLine
 10
289.8990923823744
 20
232.6685119999922
 30
0.0
 11
330.9424759999999
 21
232.6685119999996
 31
0.0
  0
LINE
  5
748
330
70
100
AcDbEntity
  8
0
100
AcDbLine
 10
250.5211887464966
 20
136.3219109999777
 30
0.0
 11
291.5645723641221
 21
136.3219109999851
 31
0.0
  0
LINE
  5
749
330
70
100
AcDbEntity
  8
0
100
AcDbLine
 10
299.0645777385689
 20
136.3219109999849
 30
0.0
 11
330.942476
 21
136.3219110000004
 31
0.0
  0
LINE
  5
74A
330
70
100
AcDbEntity
  8
0
100
AcDbLine
 10
204.0778043823744
 20
136.3219109999926
 30
0.0
 11
245.121188
 21
136.321911
 31
0.0
  0
LINE
  5
74B
330
70
100
AcDbEntity
  8
0
100
AcDbLine
 10
155.5330597464965
 20
136.3219109999777
 30
0.0
 11
196.5764433641221
 21
136.3219109999851
 31
0.0
  0
LINE
  5
74C
330
70
100
AcDbEntity
  8
0
100
AcDbLine
 10
109.0896763823744
 20
136.321910999993
 30
0.0
 11
150.13306
 21
136.3219110000004
 31
0.0
  0
LINE
  5
74D
330
70
100
AcDbEntity
  8
0
100
AcDbLine
 10
69.711771
 20
136.321911
 30
0.0
 11
101.588314
 21
136.3219110000002
 31
0.0
  0
LINE
  5
74E
330
70
100
AcDbEntity
  8
0
100
AcDbLine
 10
343.2190180000005
 20
231.6685113716815
 30
0.0
 11
343.1449670000002
 21
173.0709843
 31
0.0
  0
LINE
  5
74F
330
70
100
AcDbEntity
  8
0
100
AcDbLine
 10
180.826443
 20
237.2201149999997
 30
0.0
 11
219.826443
 21
237.2201149999992
 31
0.0
  0
LINE
  5
750
330
70
100
AcDbEntity
  8
0
100
AcDbLine
 10
275.814573
 20
237.2201150000011
 30
0.0
 11
314.814573
 21
237.2201150000005
 31
0.0
  0
LINE
  5
751
330
70
100
AcDbEntity
  8
0
100
AcDbLine
 10
275.814573
 20
131.7703079999999
 30
0.0
 11
314.814573
 21
131.7703079999994
 31
0.0
  0
LINE
  5
752
330
70
100
AcDbEntity
  8
0
100
AcDbLine
 10
180.826443
 20
131.7703080000011
 30
0.0
 11
219.826443
 21
131.7703080000006
 31
0.0
  0
LINE
  5
753
330
70
100
AcDbEntity
  8
0
100
AcDbLine
 10
85.83831399999999
 20
131.8219110000007
 30
0.0
 11
124.838314
 21
131.8219110000002
 31
0.0
  0
LINE
  5
EF9
330
70
100
AcDbEntity
  8
0
100
AcDbLine
 10
343.1449670000002
 20
173.0709843
 30
0.0
 11
343.2189589999989
 21
137.321911
 31
0.0
  0
LINE
  5
EFA
330
70
100
AcDbEntity
  8
0
100
AcDbLine
 10
57.39505160000004
 20
173.0709843
 30
0.0
 11
57.31901800000058
 21
137.321911
 31
0.0
  0
LWPOLYLINE
  5
F54
330
70
100
AcDbEntity
  8
LAYER_2
100
AcDbPolyline
 90
        4
 70
     1
 43
0.0
 10
79.01939199999997
 20
215.7216156985116
 10
79.01939199999997
 20
229.6216156985117
 10
92.91939199999999
 20
229.6216156985117
 10
92.91939199999999
 20
215.7216156985116
  0
LWPOLYLINE
  5
F55
330
70
100
AcDbEntity
  8
LAYER_2
100
AcDbPolyline
 90
        4
 70
     1
 43
0.0
 10
98.06939199999993
 20
215.7216156985116
 10
98.06939199999993
 20
229.6216156985117
 10
111.9693920000001
 20
229.6216156985117
 10
111.9693920000001
 20
215.7216156985116
  0
LINE
  5
F56
330
70
100
AcDbEntity
  8
LAYER_2
100
AcDbLine
 10
317.0958920000006
 20
215.6708156985117
 30
0.0
 11
317.0958920000006
 21
215.6708156985117
 31
0.0
  0
LWPOLYLINE
  5
F57
330
70
100
AcDbEntity
  8
LAYER_2
100
AcDbPolyline
 90
        4
 70
     1
 43
0.0
 10
64.731892
 20
196.6717156985117
 10
64.731892
 20
210.5717156985118
 10
78.63189199999992
 20
210.5717156985118
 10
78.63189199999992
 20
196.6717156985117
  0
LWPOLYLINE
  5
F58
330
70
100
AcDbEntity
  8
LAYER_2
100
AcDbPolyline
 90
        4
 70
     1
 43
0.0
 10
73.86939200000004
 20
229.6216156985117
 10
73.86939200000004
 20
215.7216156985116
 10
59.96939199999996
 20
215.7216156985116
 10
59.96939199999996
 20
229.6216156985117
  0
LWPOLYLINE
  5
F59
330
70
100
AcDbEntity
  8
LAYER_2
100
AcDbPolyline
 90
        4
 70
     1
 43
0.0
 10
88.5443919999995
 20
196.6717156985117
 10
88.5443919999995
 20
210.5717156985118
 10
102.4443919999997
 20
210.5717156985118
 10
102.4443919999997
 20
196.6717156985117
  0
LWPOLYLINE
  5
F5A
330
70
100
AcDbEntity
  8
LAYER_2
100
AcDbPolyline
 90
        4
 70
     1
 43
0.0
 10
102.8318920000003
 20
158.5717156985114
 10
102.8318920000003
 20
172.4717156985114
 10
116.7318920000003
 20
172.4717156985114
 10
116.7318920000003
 20
158.5717156985114
  0
LINE
  5
F5B
330
70
100
AcDbEntity
  8
LAYER_2
100
AcDbLine
 10
62.30064200000014
 20
177.5717156985115
 30
0.0
 11
62.30064200000014
 21
177.5717156985115
 31
0.0
  0
LINE
  5
F5C
330
70
100
AcDbEntity
  8
LAYER_2
100
AcDbLine
 10
67.06314200000001
 20
177.5717156985115
 30
0.0
 11
67.06314200000001
 21
177.5717156985115
 31
0.0
  0
LWPOLYLINE
  5
F5D
330
70
100
AcDbEntity
  8
LAYER_2
100
AcDbPolyline
 90
        4
 70
     1
 43
0.0
 10
93.30679199999762
 20
177.6217156985116
 10
93.30679199999762
 20
191.5217156985116
 10
107.2067919999978
 20
191.5217156985116
 10
107.2067919999978
 20
177.6217156985116
  0
LWPOLYLINE
  5
F5E
330
70
100
AcDbEntity
  8
LAYER_2
100
AcDbPolyline
 90
        4
 70
     1
 43
0.0
 10
62.35064200000015
 20
191.5217156985116
 10
81.01314199999995
 20
191.5217156985116
 10
81.01314199999995
 20
177.6217156985115
 10
62.35064200000015
 20
177.6217156985115
  0
LINE
  5
F5F
330
70
100
AcDbEntity
  8
LAYER_2
100
AcDbLine
 10
326.6191920000048
 20
215.6716156985123
 30
0.0
 11
326.6191920000048
 21
215.6716156985123
 31
0.0
  0
LINE
  5
F60
330
70
100
AcDbEntity
  8
LAYER_2
100
AcDbLine
 10
71.82734199999656
 20
158.5209156985108
 30
0.0
 11
71.82734199999656
 21
158.5209156985108
 31
0.0
  0
LINE
  5
F61
330
70
100
AcDbEntity
  8
LAYER_2
100
AcDbLine
 10
87.2653419999966
 20
156.5209156985108
 30
0.0
 11
87.2653419999966
 21
156.5209156985108
 31
0.0
  0
LINE
  5
F62
330
70
100
AcDbEntity
  8
LAYER_2
100
AcDbLine
 10
81.35064200000083
 20
158.5217156985114
 30
0.0
 11
81.35064200000083
 21
158.5217156985114
 31
0.0
  0
LWPOLYLINE
  5
F63
330
70
100
AcDbEntity
  8
LAYER_2
100
AcDbPolyline
 90
        4
 70
     1
 43
0.0
 10
88.54439200000035
 20
139.5217156985114
 10
88.54439200000035
 20
153.4217156985114
 10
102.4443920000003
 20
153.4217156985114
 10
102.4443920000003
 20
139.5217156985114
  0
LWPOLYLINE
  5
F64
330
70
100
AcDbEntity
  8
LAYER_2
100
AcDbPolyline
 90
        4
 70
     1
 43
0.0
 10
112.3568920000003
 20
139.5217156985114
 10
112.3568920000003
 20
153.4217156985114
 10
126.2568920000003
 20
153.4217156985114
 10
126.2568920000003
 20
139.5217156985114
  0
LWPOLYLINE
  5
F65
330
70
100
AcDbEntity
  8
LAYER_2
100
AcDbPolyline
 90
        4
 70
     1
 43
0.0
 10
193.3193920000003
 20
139.5217156985114
 10
193.3193920000003
 20
153.4217156985114
 10
207.2193920000003
 20
153.4217156985114
 10
207.2193920000003
 20
139.5217156985114
  0
LWPOLYLINE
  5
F66
330
70
100
AcDbEntity
  8
LAYER_2
100
AcDbPolyline
 90
        4
 70
     1
 43
0.0
 10
298.0943920000003
 20
139.5217156985114
 10
298.0943920000003
 20
153.4217156985114
 10
311.9943920000003
 20
153.4217156985114
 10
311.9943920000003
 20
139.5217156985114
  0
LWPOLYLINE
  5
F67
330
70
100
AcDbEntity
  8
LAYER_2
100
AcDbPolyline
 90
        4
 70
     1
 43
0.0
 10
274.2818920000003
 20
139.5217156985114
 10
274.2818920000003
 20
153.4217156985114
 10
288.1818920000003
 20
153.4217156985114
 10
288.1818920000003
 20
139.5217156985114
  0
LWPOLYLINE
  5
F68
330
70
100
AcDbEntity
  8
0
100
AcDbPolyline
 90
        8
 70
     1
 43
0.0
 10
146.0067319999991
 20
139.4717156985118
 42
0.4142135623730943
 10
147.0067319999991
 20
140.4717156985118
 10
147.0067319999991
 20
154.2207156985116
 42
0.4142135623730959
 10
146.0067319999991
 20
155.2207156985116
 10
139.4067319999992
 20
155.2207156985116
 42
0.4142135623730951
 10
138.4067319999993
 20
154.2207156985116
 10
138.4067319999993
 20
140.4717156985118
 42
0.4142135623730951
 10
139.4067319999992
 20
139.4717156985118
  0
LWPOLYLINE
  5
F69
330
70
100
AcDbEntity
  8
0
100
AcDbPolyline
 90
        8
 70
     1
 43
0.0
 10
262.1320519999993
 20
154.2207156985116
 42
0.4142135623730951
 10
261.1320519999992
 20
155.2207156985116
 10
254.5320519999992
 20
155.2207156985116
 42
0.4142135623730951
 10
253.5320519999992
 20
154.2207156985116
 10
253.5320519999992
 20
140.4717156985118
 42
0.4142135623730951
 10
254.5320519999992
 20
139.4717156985118
 10
261.1320519999992
 20
139.4717156985118
 42
0.4142135623730951
 10
262.1320519999993
 20
140.4717156985118
  0
LWPOLYLINE
  5
F6A
330
70
100
AcDbEntity
  8
LAYER_2
100
AcDbPolyline
 90
        4
 70
     1
 43
0.0
 10
326.6691919999958
 20
158.5717156985115
 10
326.6691919999958
 20
172.4717156985116
 10
340.569191999996
 20
172.4717156985116
 10
340.569191999996
 20
158.5717156985115
  0
LWPOLYLINE
  5
F6B
330
70
100
AcDbEntity
  8
LAYER_2
100
AcDbPolyline
 90
        4
 70
     1
 43
0.0
 10
300.4754419999986
 20
158.5717156985101
 10
300.4754419999986
 20
172.4717156985102
 10
314.3754419999988
 20
172.4717156985102
 10
314.3754419999988
 20
158.5717156985101
  0
LWPOLYLINE
  5
F6C
330
70
100
AcDbEntity
  8
0
100
AcDbPolyline
 90
       20
 70
     1
 43
0.0
 10
306.187841999997
 20
175.8727156985113
 42
-0.4142135623730925
 10
305.2378419999969
 20
176.8227156985112
 10
305.2378419999969
 20
192.3217156985112
 42
-0.4142135623730925
 10
306.187841999997
 20
193.2717156985112
 10
312.2008419999968
 20
193.2717156985112
 42
-0.4142135623731102
 10
313.1508419999968
 20
192.3217156985112
 10
313.1508419999968
 20
191.5217156985112
 10
330.2748419999967
 20
191.521715698511
 10
330.2748419999967
 20
192.3217156985112
 42
-0.4142135623731078
 10
331.2248419999965
 20
193.2717156985112
 10
336.8248419999966
 20
193.2717156985112
 42
-0.4142135623731102
 10
337.7748419999968
 20
192.3217156985112
 10
337.7748419999967
 20
176.8227156985112
 42
-0.4142135623731078
 10
336.8248419999966
 20
175.8727156985113
 10
331.2248419999965
 20
175.8727156985111
 42
-0.4142135623731144
 10
330.2748419999963
 20
176.8227156985112
 10
330.2748419999963
 20
177.6217156985112
 10
313.150841999997
 20
177.6217156985112
 10
313.1508419999968
 20
176.8227156985113
 42
-0.4142135623731102
 10
312.2008419999968
 20
175.8727156985113
  0
LWPOLYLINE
  5
F6D
330
70
100
AcDbEntity
  8
LAYER_2
100
AcDbPolyline
 90
        4
 70
     1
 43
0.0
 10
321.9066919999745
 20
196.6717156985066
 10
321.9066919999745
 20
210.5717156985067
 10
335.8066919999747
 20
210.5717156985067
 10
335.8066919999747
 20
196.6717156985066
  0
LWPOLYLINE
  5
F6E
330
70
100
AcDbEntity
  8
LAYER_2
100
AcDbPolyline
 90
       14
 70
     1
 43
0.0
 10
69.38934199999663
 20
156.5709156985107
 42
0.4142135623730913
 10
70.33934199999656
 20
157.5209156985108
 10
70.33934199999656
 20
158.5717156985114
 10
87.31534199999673
 20
158.5717156985114
 10
87.31534199999673
 20
157.5209156985108
 42
0.4142135623730913
 10
88.26534199999661
 20
156.5709156985107
 10
94.35064200000066
 20
156.5709156985107
 42
0.4142135623730913
 10
95.30064200000065
 20
157.5209156985108
 10
95.30064200000065
 20
171.4717156985115
 42
0.4142135623730951
 10
94.30064200000066
 20
172.4717156985115
 10
63.35064200000106
 20
172.4717156985115
 42
0.4142135623730951
 10
62.35064200000106
 20
171.4717156985115
 10
62.35064200000106
 20
157.5209156985108
 42
0.4142135623730913
 10
63.30064200000105
 20
156.5709156985107
  0
LWPOLYLINE
  5
F6F
330
70
100
AcDbEntity
  8
LAYER_2
100
AcDbPolyline
 90
       14
 70
     1
 43
0.0
 10
314.6578920000004
 20
213.7208156985116
 42
0.4142135623731102
 10
315.6078920000005
 20
214.6708156985117
 10
315.6078920000005
 20
215.7216156985123
 10
332.5838920000006
 20
215.7216156985123
 10
332.5838920000006
 20
214.6708156985117
 42
0.4142135623731102
 10
333.5338920000006
 20
213.7208156985116
 10
339.6191920000044
 20
213.7208156985116
 42
0.4142135623731102
 10
340.5691920000045
 20
214.6708156985117
 10
340.5691920000045
 20
228.6216156985124
 42
0.4142135623730951
 10
339.5691920000045
 20
229.6216156985124
 10
308.6191920000049
 20
229.6216156985124
 42
0.4142135623730951
 10
307.619192000005
 20
228.6216156985124
 10
307.619192000005
 20
214.6708156985117
 42
0.4142135623731102
 10
308.569192000005
 20
213.7208156985116
  0
LWPOLYLINE
  5
F70
330
70
100
AcDbEntity
  8
LAYER_2
100
AcDbPolyline
 90
        4
 70
     1
 43
0.0
 10
117.119391999999
 20
215.7216156985113
 10
117.119391999999
 20
229.6216156985114
 10
131.019391999999
 20
229.6216156985114
 10
131.019391999999
 20
215.7216156985113
  0
LWPOLYLINE
  5
F71
330
70
100
AcDbEntity
  8
LAYER_2
100
AcDbPolyline
 90
        4
 70
     1
 43
0.0
 10
136.169391999999
 20
215.7216156985113
 10
136.169391999999
 20
229.6216156985114
 10
150.0693919999991
 20
229.6216156985114
 10
150.0693919999991
 20
215.7216156985113
  0
LWPOLYLINE
  5
F72
330
70
100
AcDbEntity
  8
LAYER_2
100
AcDbPolyline
 90
        4
 70
     1
 43
0.0
 10
155.2193920000019
 20
215.721615698512
 10
155.2193920000019
 20
229.6216156985121
 10
169.119392000002
 20
229.6216156985121
 10
169.119392000002
 20
215.721615698512
  0
LWPOLYLINE
  5
F73
330
70
100
AcDbEntity
  8
LAYER_2
100
AcDbPolyline
 90
        4
 70
     1
 43
0.0
 10
174.269392000002
 20
215.721615698512
 10
174.269392000002
 20
229.6216156985121
 10
188.169392000002
 20
229.6216156985121
 10
188.169392000002
 20
215.721615698512
  0
LWPOLYLINE
  5
F74
330
70
100
AcDbEntity
  8
LAYER_2
100
AcDbPolyline
 90
        4
 70
     1
 43
0.0
 10
193.3193920000008
 20
215.7216156985117
 10
193.3193920000008
 20
229.6216156985118
 10
207.2193920000005
 20
229.6216156985118
 10
207.2193920000005
 20
215.7216156985117
  0
LWPOLYLINE
  5
F75
330
70
100
AcDbEntity
  8
LAYER_2
100
AcDbPolyline
 90
        4
 70
     1
 43
0.0
 10
212.3693920000006
 20
215.7216156985117
 10
212.3693920000006
 20
229.6216156985118
 10
226.2693920000008
 20
229.6216156985118
 10
226.2693920000008
 20
215.7216156985117
  0
LWPOLYLINE
  5
F76
330
70
100
AcDbEntity
  8
LAYER_2
100
AcDbPolyline
 90
        4
 70
     1
 43
0.0
 10
231.4193919999996
 20
215.7216156985113
 10
231.4193919999996
 20
229.6216156985114
 10
245.3193919999995
 20
229.6216156985114
 10
245.3193919999995
 20
215.7216156985113
  0
LWPOLYLINE
  5
F77
330
70
100
AcDbEntity
  8
LAYER_2
100
AcDbPolyline
 90
        4
 70
     1
 43
0.0
 10
250.4693919999996
 20
215.7216156985113
 10
250.4693919999996
 20
229.6216156985114
 10
264.3693919999998
 20
229.6216156985114
 10
264.3693919999998
 20
215.7216156985113
  0
LWPOLYLINE
  5
F78
330
70
100
AcDbEntity
  8
LAYER_2
100
AcDbPolyline
 90
        4
 70
     1
 43
0.0
 10
269.5193920000026
 20
215.721615698512
 10
269.5193920000026
 20
229.6216156985121
 10
283.4193920000025
 20
229.6216156985121
 10
283.4193920000025
 20
215.721615698512
  0
LWPOLYLINE
  5
F79
330
70
100
AcDbEntity
  8
LAYER_2
100
AcDbPolyline
 90
        4
 70
     1
 43
0.0
 10
288.5693920000024
 20
215.721615698512
 10
288.5693920000024
 20
229.6216156985121
 10
302.4693920000027
 20
229.6216156985121
 10
302.4693920000027
 20
215.721615698512
  0
LWPOLYLINE
  5
F7A
330
70
100
AcDbEntity
  8
LAYER_2
100
AcDbPolyline
 90
        4
 70
     1
 43
0.0
 10
107.5943920000012
 20
196.671715698512
 10
107.5943920000012
 20
210.5717156985121
 10
121.4943920000012
 20
210.5717156985121
 10
121.4943920000012
 20
196.671715698512
  0
LWPOLYLINE
  5
F7B
330
70
100
AcDbEntity
  8
LAYER_2
100
AcDbPolyline
 90
        4
 70
     1
 43
0.0
 10
126.6443920000011
 20
196.671715698512
 10
126.6443920000011
 20
210.5717156985121
 10
140.5443920000013
 20
210.5717156985121
 10
140.5443920000013
 20
196.671715698512
  0
LWPOLYLINE
  5
F7C
330
70
100
AcDbEntity
  8
LAYER_2
100
AcDbPolyline
 90
        4
 70
     1
 43
0.0
 10
145.6943920000003
 20
196.6717156985117
 10
145.6943920000003
 20
210.5717156985118
 10
159.5943920000003
 20
210.5717156985118
 10
159.5943920000003
 20
196.6717156985117
  0
LWPOLYLINE
  5
F7D
330
70
100
AcDbEntity
  8
LAYER_2
100
AcDbPolyline
 90
        4
 70
     1
 43
0.0
 10
164.7443920000001
 20
196.6717156985117
 10
164.7443920000001
 20
210.5717156985118
 10
178.6443920000003
 20
210.5717156985118
 10
178.6443920000003
 20
196.6717156985117
  0
LWPOLYLINE
  5
F7E
330
70
100
AcDbEntity
  8
LAYER_2
100
AcDbPolyline
 90
        4
 70
     1
 43
0.0
 10
183.7943920000031
 20
196.6717156985123
 10
183.7943920000031
 20
210.5717156985125
 10
197.6943920000031
 20
210.5717156985125
 10
197.6943920000031
 20
196.6717156985123
  0
LWPOLYLINE
  5
F7F
330
70
100
AcDbEntity
  8
LAYER_2
100
AcDbPolyline
 90
        4
 70
     1
 43
0.0
 10
202.8443920000031
 20
196.6717156985123
 10
202.8443920000031
 20
210.5717156985125
 10
216.7443920000033
 20
210.5717156985125
 10
216.7443920000033
 20
196.6717156985123
  0
LWPOLYLINE
  5
F80
330
70
100
AcDbEntity
  8
LAYER_2
100
AcDbPolyline
 90
        4
 70
     1
 43
0.0
 10
221.8943920000033
 20
196.6717156985126
 10
221.8943920000033
 20
210.5717156985126
 10
235.7943920000033
 20
210.5717156985126
 10
235.7943920000033
 20
196.6717156985126
  0
LWPOLYLINE
  5
F81
330
70
100
AcDbEntity
  8
LAYER_2
100
AcDbPolyline
 90
        4
 70
     1
 43
0.0
 10
240.9443920000033
 20
196.6717156985126
 10
240.9443920000033
 20
210.5717156985126
 10
254.8443920000034
 20
210.5717156985126
 10
254.8443920000034
 20
196.6717156985126
  0
LWPOLYLINE
  5
F82
330
70
100
AcDbEntity
  8
LAYER_2
100
AcDbPolyline
 90
        4
 70
     1
 43
0.0
 10
259.9943920000023
 20
196.6717156985122
 10
259.9943920000023
 20
210.5717156985122
 10
273.894392000002
 20
210.5717156985122
 10
273.894392000002
 20
196.6717156985122
  0
LWPOLYLINE
  5
F83
330
70
100
AcDbEntity
  8
LAYER_2
100
AcDbPolyline
 90
        4
 70
     1
 43
0.0
 10
279.044392000002
 20
196.6717156985122
 10
279.044392000002
 20
210.5717156985122
 10
292.9443920000024
 20
210.5717156985122
 10
292.9443920000024
 20
196.6717156985122
  0
LWPOLYLINE
  5
F84
330
70
100
AcDbEntity
  8
LAYER_2
100
AcDbPolyline
 90
        4
 70
     1
 43
0.0
 10
298.0943920000052
 20
196.6717156985129
 10
298.0943920000052
 20
210.571715698513
 10
311.994392000005
 20
210.571715698513
 10
311.994392000005
 20
196.6717156985129
  0
LWPOLYLINE
  5
F85
330
70
100
AcDbEntity
  8
LAYER_2
100
AcDbPolyline
 90
        4
 70
     1
 43
0.0
 10
112.3567919999976
 20
177.6217156985116
 10
112.3567919999976
 20
191.5217156985117
 10
126.2567919999975
 20
191.5217156985117
 10
126.2567919999975
 20
177.6217156985116
  0
LWPOLYLINE
  5
F86
330
70
100
AcDbEntity
  8
LAYER_2
100
AcDbPolyline
 90
        4
 70
     1
 43
0.0
 10
131.4067919999974
 20
177.6217156985116
 10
131.4067919999974
 20
191.5217156985117
 10
145.3067919999976
 20
191.5217156985117
 10
145.3067919999976
 20
177.6217156985116
  0
LWPOLYLINE
  5
F87
330
70
100
AcDbEntity
  8
LAYER_2
100
AcDbPolyline
 90
        4
 70
     1
 43
0.0
 10
150.4567919999966
 20
177.6217156985112
 10
150.4567919999966
 20
191.5217156985113
 10
164.3567919999965
 20
191.5217156985113
 10
164.3567919999965
 20
177.6217156985112
  0
LWPOLYLINE
  5
F88
330
70
100
AcDbEntity
  8
LAYER_2
100
AcDbPolyline
 90
        4
 70
     1
 43
0.0
 10
169.5067919999965
 20
177.6217156985112
 10
169.5067919999965
 20
191.5217156985113
 10
183.4067919999966
 20
191.5217156985113
 10
183.4067919999966
 20
177.6217156985112
  0
LWPOLYLINE
  5
F89
330
70
100
AcDbEntity
  8
LAYER_2
100
AcDbPolyline
 90
        4
 70
     1
 43
0.0
 10
188.5567919999995
 20
177.621715698512
 10
188.5567919999995
 20
191.5217156985121
 10
202.4567919999995
 20
191.5217156985121
 10
202.4567919999995
 20
177.621715698512
  0
LWPOLYLINE
  5
F8A
330
70
100
AcDbEntity
  8
LAYER_2
100
AcDbPolyline
 90
        4
 70
     1
 43
0.0
 10
207.6067919999995
 20
177.621715698512
 10
207.6067919999995
 20
191.5217156985121
 10
221.5067919999996
 20
191.5217156985121
 10
221.5067919999996
 20
177.621715698512
  0
LWPOLYLINE
  5
F8B
330
70
100
AcDbEntity
  8
LAYER_2
100
AcDbPolyline
 90
        4
 70
     1
 43
0.0
 10
226.6567920000006
 20
177.6217156985121
 10
226.6567920000006
 20
191.5217156985122
 10
240.5567920000005
 20
191.5217156985122
 10
240.5567920000005
 20
177.6217156985121
  0
LWPOLYLINE
  5
F8C
330
70
100
AcDbEntity
  8
LAYER_2
100
AcDbPolyline
 90
        4
 70
     1
 43
0.0
 10
245.7067920000004
 20
177.6217156985121
 10
245.7067920000004
 20
191.5217156985122
 10
259.6067920000006
 20
191.5217156985122
 10
259.6067920000006
 20
177.6217156985121
  0
LWPOLYLINE
  5
F8D
330
70
100
AcDbEntity
  8
LAYER_2
100
AcDbPolyline
 90
        4
 70
     1
 43
0.0
 10
264.7567919999993
 20
177.6217156985117
 10
264.7567919999993
 20
191.5217156985118
 10
278.6567919999995
 20
191.5217156985118
 10
278.6567919999995
 20
177.6217156985117
  0
LWPOLYLINE
  5
F8E
330
70
100
AcDbEntity
  8
LAYER_2
100
AcDbPolyline
 90
        4
 70
     1
 43
0.0
 10
283.8067919999994
 20
177.6217156985117
 10
283.8067919999994
 20
191.5217156985118
 10
297.7067919999996
 20
191.5217156985118
 10
297.7067919999996
 20
177.6217156985117
  0
LWPOLYLINE
  5
F8F
330
70
100
AcDbEntity
  8
LAYER_2
100
AcDbPolyline
 90
        4
 70
     1
 43
0.0
 10
121.8818920000007
 20
158.5717156985115
 10
121.8818920000007
 20
172.4717156985116
 10
135.7818920000007
 20
172.4717156985116
 10
135.7818920000007
 20
158.5717156985115
  0
LWPOLYLINE
  5
F90
330
70
100
AcDbEntity
  8
LAYER_2
100
AcDbPolyline
 90
        4
 70
     1
 43
0.0
 10
140.9318920000007
 20
158.5717156985115
 10
140.9318920000007
 20
172.4717156985116
 10
154.831892000001
 20
172.4717156985116
 10
154.831892000001
 20
158.5717156985115
  0
LWPOLYLINE
  5
F91
330
70
100
AcDbEntity
  8
LAYER_2
100
AcDbPolyline
 90
        4
 70
     1
 43
0.0
 10
159.9818919999998
 20
158.5717156985111
 10
159.9818919999998
 20
172.4717156985112
 10
173.8818919999997
 20
172.4717156985112
 10
173.8818919999997
 20
158.5717156985111
  0
LWPOLYLINE
  5
F92
330
70
100
AcDbEntity
  8
LAYER_2
100
AcDbPolyline
 90
        4
 70
     1
 43
0.0
 10
179.0318919999998
 20
158.5717156985111
 10
179.0318919999998
 20
172.4717156985112
 10
192.9318919999999
 20
172.4717156985112
 10
192.9318919999999
 20
158.5717156985111
  0
LWPOLYLINE
  5
F93
330
70
100
AcDbEntity
  8
LAYER_2
100
AcDbPolyline
 90
        4
 70
     1
 43
0.0
 10
198.0818920000026
 20
158.5717156985118
 10
198.0818920000026
 20
172.4717156985119
 10
211.9818920000027
 20
172.4717156985119
 10
211.9818920000027
 20
158.5717156985118
  0
LWPOLYLINE
  5
F94
330
70
100
AcDbEntity
  8
LAYER_2
100
AcDbPolyline
 90
        4
 70
     1
 43
0.0
 10
217.1318920000027
 20
158.5717156985118
 10
217.1318920000027
 20
172.4717156985119
 10
231.0318920000027
 20
172.4717156985119
 10
231.0318920000027
 20
158.5717156985118
  0
LWPOLYLINE
  5
F95
330
70
100
AcDbEntity
  8
LAYER_2
100
AcDbPolyline
 90
        4
 70
     1
 43
0.0
 10
236.1818920000034
 20
158.571715698512
 10
236.1818920000034
 20
172.4717156985121
 10
250.0818920000035
 20
172.4717156985121
 10
250.0818920000035
 20
158.571715698512
  0
LWPOLYLINE
  5
F96
330
70
100
AcDbEntity
  8
LAYER_2
100
AcDbPolyline
 90
        4
 70
     1
 43
0.0
 10
255.2318920000034
 20
158.571715698512
 10
255.2318920000034
 20
172.4717156985121
 10
269.1318920000037
 20
172.4717156985121
 10
269.1318920000037
 20
158.571715698512
  0
LWPOLYLINE
  5
F97
330
70
100
AcDbEntity
  8
LAYER_2
100
AcDbPolyline
 90
        4
 70
     1
 43
0.0
 10
274.2818920000025
 20
158.5717156985117
 10
274.2818920000025
 20
172.4717156985118
 10
288.1818920000025
 20
172.4717156985118
 10
288.1818920000025
 20
158.5717156985117
  0
ENDSEC
  0
SECTION
  2
OBJECTS
  0
DICTIONARY
  5
C
330
0
100
AcDbDictionary
281
     1
  3
ACAD_CIP_PREVIOUS_PRODUCT_INFO
350
735
  3
ACAD_COLOR
350
63
  3
ACAD_DETAILVIEWSTYLE
350
6A
  3
ACAD_GROUP
350
D
  3
ACAD_LAYOUT
350
62
  3
ACAD_MATERIAL
350
10
  3
ACAD_MLEADERSTYLE
350
66
  3
ACAD_MLINESTYLE
350
5F
  3
ACAD_PLOTSETTINGS
350
61
  3
ACAD_PLOTSTYLENAME
350
E
  3
ACAD_SCALELIST
350
42
  3
ACAD_SECTIONVIEWSTYLE
350
68
  3
ACAD_TABLESTYLE
350
64
  3
ACAD_VISUALSTYLE
350
29
  3
ACDB_RECOMPOSE_DATA
350
F99
  3
AcDbVariableDictionary
350
71E
  0
DICTIONARY
  5
754
330
2
100
AcDbDictionary
280
     1
281
     1
  3
ACAD_LAYERSTATES
360
755
  0
DICTIONARY
  5
F09
330
F08
100
AcDbDictionary
280
     1
281
     1
  0
DICTIONARY
  5
B4
330
70
100
AcDbDictionary
280
     1
281
     1
  3
ACAD_SORTENTS
360
3A3
  0
DICTIONARY
  5
3A7
330
3A6
100
AcDbDictionary
280
     1
281
     1
  0
DICTIONARY
  5
3ED
330
3EC
100
AcDbDictionary
280
     1
281
     1
  3
ACAD_SORTENTS
360
436
  0
DICTIONARY
  5
408
330
407
100
AcDbDictionary
280
     1
281
     1
  0
DICTIONARY
  5
40A
330
409
100
AcDbDictionary
280
     1
281
     1
  0
DICTIONARY
  5
40C
330
40B
100
AcDbDictionary
280
     1
281
     1
  0
DICTIONARY
  5
40E
330
40D
100
AcDbDictionary
280
     1
281
     1
  0
DICTIONARY
  5
410
330
40F
100
AcDbDictionary
280
     1
281
     1
  0
DICTIONARY
  5
412
330
411
100
AcDbDictionary
280
     1
281
     1
  0
DICTIONARY
  5
414
330
413
100
AcDbDictionary
280
     1
281
     1
  0
DICTIONARY
  5
416
330
415
100
AcDbDictionary
280
     1
281
     1
  0
DICTIONARY
  5
418
330
417
100
AcDbDictionary
280
     1
281
     1
  0
DICTIONARY
  5
41A
330
419
100
AcDbDictionary
280
     1
281
     1
  0
DICTIONARY
  5
41C
330
41B
100
AcDbDictionary
280
     1
281
     1
  0
DICTIONARY
  5
41E
330
41D
100
AcDbDictionary
280
     1
281
     1
  0
DICTIONARY
  5
420
330
41F
100
AcDbDictionary
280
     1
281
     1
  0
DICTIONARY
  5
422
330
421
100
AcDbDictionary
280
     1
281
     1
  0
DICTIONARY
  5
424
330
423
100
AcDbDictionary
280
     1
281
     1
  0
XRECORD
  5
735
102
{ACAD_REACTORS
330
C
102
}
330
C
100
AcDbXrecord
280
     1
300
ACD
300
2020
300
ACD_F_S_TL
  0
DICTIONARY
  5
63
102
{ACAD_REACTORS
330
C
102
}
330
C
100
AcDbDictionary
281
     1
  0
DICTIONARY
  5
6A
102
{ACAD_REACTORS
330
C
102
}
330
C
100
AcDbDictionary
281
     1
  3
Imperial24
350
6B
  3
Metric50
350
730
  0
DICTIONARY
  5
D
102
{ACAD_REACTORS
330
C
102
}
330
C
100
AcDbDictionary
281
     1
  0
DICTIONARY
  5
62
102
{ACAD_REACTORS
330
C
102
}
330
C
100
AcDbDictionary
281
     1
  3
Model
350
73
  3
Sheet1
350
6F
  3
Sheet2
350
77
  0
DICTIONARY
  5
10
102
{ACAD_REACTORS
330
C
102
}
330
C
100
AcDbDictionary
281
     1
  3
ByBlock
350
19
  3
ByLayer
350
11
  3
Global
350
21
  0
DICTIONARY
  5
66
102
{ACAD_REACTORS
330
C
102
}
330
C
100
AcDbDictionary
281
     1
  3
Standard
350
67
  0
DICTIONARY
  5
5F
102
{ACAD_REACTORS
330
C
102
}
330
C
100
AcDbDictionary
281
     1
  3
Standard
350
60
  0
DICTIONARY
  5
61
102
{ACAD_REACTORS
330
C
102
}
330
C
100
AcDbDictionary
281
     1
  0
ACDBDICTIONARYWDFLT
  5
E
102
{ACAD_REACTORS
330
C
102
}
330
C
100
AcDbDictionary
281
     1
  3
Normal
350
F
100
AcDbDictionaryWithDefault
340
F
  0
DICTIONARY
  5
42
102
{ACAD_REACTORS
330
C
102
}
330
C
100
AcDbDictionary
281
     1
  3
*A1
350
A4
  3
*A10
350
AE
  3
*A11
350
AF
  3
*A12
350
B0
  3
*A13
350
B1
  3
*A14
350
B2
  3
*A15
350
B3
  3
*A16
350
A5
  3
*A2
350
A6
  3
*A3
350
A7
  3
*A4
350
A8
  3
*A5
350
A9
  3
*A6
350
AA
  3
*A7
350
AB
  3
*A8
350
AC
  3
*A9
350
AD
  3
A0
350
43
  3
A1
350
44
  3
A2
350
45
  3
A3
350
46
  3
A4
350
47
  3
A5
350
48
  3
A6
350
49
  3
A7
350
4A
  3
A8
350
4B
  3
A9
350
4C
  3
B0
350
4D
  3
B1
350
4E
  3
B2
350
4F
  3
B3
350
50
  3
B4
350
51
  3
B5
350
52
  3
B6
350
53
  0
DICTIONARY
  5
68
102
{ACAD_REACTORS
330
C
102
}
330
C
100
AcDbDictionary
281
     1
  3
Imperial24
350
69
  3
Metric50
350
72F
  0
DICTIONARY
  5
64
102
{ACAD_REACTORS
330
C
102
}
330
C
100
AcDbDictionary
281
     1
  3
Standard
350
65
  0
DICTIONARY
  5
29
102
{ACAD_REACTORS
330
C
102
}
330
C
100
AcDbDictionary
281
     1
  3
2dWireframe
350
2F
  3
Basic
350
2E
  3
Brighten
350
35
  3
ColorChange
350
39
  3
Conceptual
350
32
  3
Dim
350
34
  3
EdgeColorOff
350
41
  3
Facepattern
350
38
  3
Flat
350
2A
  3
FlatWithEdges
350
2B
  3
Gouraud
350
2C
  3
GouraudWithEdges
350
2D
  3
Hidden
350
31
  3
JitterOff
350
3F
  3
Linepattern
350
37
  3
OverhangOff
350
40
  3
Realistic
350
33
  3
Shaded
350
3E
  3
Shaded with edges
350
3D
  3
Shades of Gray
350
3A
  3
Sketchy
350
3B
  3
Thicken
350
36
  3
Wireframe
350
30
  3
X-Ray
350
3C
  0
XRECORD
  5
F99
102
{ACAD_REACTORS
330
C
102
}
330
C
100
AcDbXrecord
280
     1
 90
        1
330
65
  0
DICTIONARY
  5
71E
102
{ACAD_REACTORS
330
C
102
}
330
C
100
AcDbDictionary
281
     1
  3
ANNOALLVISIBLE
350
723
  3
CANNOSCALE
350
724
  3
CMLEADERSTYLE
350
720
  3
CTABLESTYLE
350
71F
  3
CVIEWDETAILSTYLE
350
721
  3
CVIEWSECTIONSTYLE
350
722
  0
DICTIONARY
  5
755
102
{ACAD_REACTORS
330
754
102
}
330
754
100
AcDbDictionary
281
     1
  0
SORTENTSTABLE
  5
3A3
102
{ACAD_REACTORS
330
B4
102
}
330
B4
100
AcDbSortentsTable
330
70
  0
SORTENTSTABLE
  5
436
102
{ACAD_REACTORS
330
3ED
102
}
330
3ED
100
AcDbSortentsTable
330
3EC
  0
ACDBDETAILVIEWSTYLE
  5
6B
102
{ACAD_XDICTIONARY
360
F9C
102
}
102
{ACAD_REACTORS
330
6A
102
}
330
6A
100
AcDbModelDocViewStyle
 70
     0
  3
Imperial24
290
     0
100
AcDbDetailViewStyle
 70
     0
 71
     0
 90
        3
 71
     1
340
55
 62
   256
 40
0.24
340
0
 62
   256
 40
0.24
300

 40
0.36
280
     3
 71
     2
340
5D
 90
       25
 62
   256
 71
     3
340
55
 62
   256
 40
0.24
 90
        1
 40
0.75
 90
        1
300
%<\AcVar ViewType \f "%tc1">% %<\AcVar ViewDetailId>%\PSCALE %<\AcVar ViewScale \f "%sn">%
 71
     4
340
5D
 90
       25
 62
   256
340
5D
 90
       25
 62
   256
280
     0
  0
ACDBDETAILVIEWSTYLE
  5
730
102
{ACAD_XDICTIONARY
360
FA0
102
}
102
{ACAD_REACTORS
330
6A
102
}
330
6A
100
AcDbModelDocViewStyle
 70
     0
  3
Metric50
290
     0
100
AcDbDetailViewStyle
 70
     0
 71
     0
 90
        3
 71
     1
340
55
 62
   256
 40
5.0
340
0
 62
   256
 40
5.0
300

 40
0.0
280
     1
 71
     2
340
5D
 90
       25
 62
   256
 71
     3
340
55
 62
   256
 40
5.0
 90
        0
 40
15.0
 90
        1
300
%<\AcVar ViewDetailId>% (%<\AcVar ViewScale \f "%sn">%)
 71
     4
340
5D
 90
       25
 62
   256
340
5D
 90
       25
 62
   256
280
     0
  0
LAYOUT
  5
73
102
{ACAD_REACTORS
330
62
102
}
330
62
100
AcDbPlotSettings
  1

  2
AutoCAD PDF (High Quality Print).pc3
  4
ISO_full_bleed_A3_(420.00_x_297.00_MM)
  6

 40
0.0
 41
0.0
 42
0.0
 43
0.0
 44
420.0
 45
297.0
 46
0.0
 47
0.0
 48
0.0
 49
0.0
140
0.0
141
0.0
142
1.0
143
1.158627
 70
 11952
 72
     1
 73
     0
 74
     0
  7

 75
     0
147
0.863091
 76
     0
 77
     2
 78
   300
148
-0.017041
149
-48.63018199999999
100
AcDbLayout
  1
Model
 70
     1
 71
     0
 10
0.0
 20
0.0
 11
12.0
 21
9.0
 12
0.0
 22
0.0
 32
0.0
 14
0.0
 24
0.0
 34
0.0
 15
0.0
 25
0.0
 35
0.0
146
0.0
 13
0.0
 23
0.0
 33
0.0
 16
1.0
 26
0.0
 36
0.0
 17
0.0
 27
1.0
 37
0.0
 76
     0
330
70
331
57
1001
ACAD_PSEXT
1000
AutoCAD PDF (High Quality Print).pc3
1000
DWG To PDF
1000
File
1000

1070
     0
  0
LAYOUT
  5
6F
102
{ACAD_REACTORS
330
62
102
}
330
62
100
AcDbPlotSettings
  1

  2
None
  4

  6

 40
0.0
 41
0.0
 42
0.0
 43
0.0
 44
0.0
 45
0.0
 46
0.0
 47
0.0
 48
0.0
 49
0.0
140
0.0
141
0.0
142
1.0
143
1.0
 70
   688
 72
     0
 73
     0
 74
     5
  7

 75
    16
147
1.0
 76
     0
 77
     2
 78
   300
148
0.0
149
0.0
100
AcDbLayout
  1
Sheet1
 70
     1
 71
     1
 10
0.0
 20
0.0
 11
12.0
 21
9.0
 12
0.0
 22
0.0
 32
0.0
 14
1.000000000000000E+20
 24
1.000000000000000E+20
 34
1.000000000000000E+20
 15
-1.000000000000000E+20
 25
-1.000000000000000E+20
 35
-1.000000000000000E+20
146
0.0
 13
0.0
 23
0.0
 33
0.0
 16
1.0
 26
0.0
 36
0.0
 17
0.0
 27
1.0
 37
0.0
 76
     0
330
6C
  0
LAYOUT
  5
77
102
{ACAD_REACTORS
330
62
102
}
330
62
100
AcDbPlotSettings
  1

  2
None
  4

  6

 40
0.0
 41
0.0
 42
0.0
 43
0.0
 44
0.0
 45
0.0
 46
0.0
 47
0.0
 48
0.0
 49
0.0
140
0.0
141
0.0
142
1.0
143
1.0
 70
   688
 72
     0
 73
     0
 74
     5
  7

 75
    16
147
1.0
 76
     0
 77
     2
 78
   300
148
0.0
149
0.0
100
AcDbLayout
  1
Sheet2
 70
     1
 71
     2
 10
0.0
 20
0.0
 11
12.0
 21
9.0
 12
0.0
 22
0.0
 32
0.0
 14
0.0
 24
0.0
 34
0.0
 15
0.0
 25
0.0
 35
0.0
146
0.0
 13
0.0
 23
0.0
 33
0.0
 16
1.0
 26
0.0
 36
0.0
 17
0.0
 27
1.0
 37
0.0
 76
     0
330
74
  0
MATERIAL
  5
19
102
{ACAD_XDICTIONARY
360
1A
102
}
102
{ACAD_REACTORS
330
10
102
}
330
10
100
AcDbMaterial
  1
ByBlock
 72
     0
 43
0.020833
 43
0.0
 43
0.0
 43
0.0
 43
0.0
 43
0.020833
 43
0.0
 43
0.0
 43
0.0
 43
0.0
 43
1.0
 43
0.0
 43
0.0
 43
0.0
 43
0.0
 43
1.0
 77
     0
 47
0.020833
 47
0.0
 47
0.0
 47
0.0
 47
0.0
 47
0.020833
 47
0.0
 47
0.0
 47
0.0
 47
0.0
 47
1.0
 47
0.0
 47
0.0
 47
0.0
 47
0.0
 47
1.0
171
     0
 49
0.020833
 49
0.0
 49
0.0
 49
0.0
 49
0.0
 49
0.020833
 49
0.0
 49
0.0
 49
0.0
 49
0.0
 49
1.0
 49
0.0
 49
0.0
 49
0.0
 49
0.0
 49
1.0
175
     0
142
0.020833
142
0.0
142
0.0
142
0.0
142
0.0
142
0.020833
142
0.0
142
0.0
142
0.0
142
0.0
142
1.0
142
0.0
142
0.0
142
0.0
142
0.0
142
1.0
179
     0
144
0.020833
144
0.0
144
0.0
144
0.0
144
0.0
144
0.020833
144
0.0
144
0.0
144
0.0
144
0.0
144
1.0
144
0.0
144
0.0
144
0.0
144
0.0
144
1.0
147
0.020833
147
0.0
147
0.0
147
0.0
147
0.0
147
0.020833
147
0.0
147
0.0
147
0.0
147
0.0
147
1.0
147
0.0
147
0.0
147
0.0
147
0.0
147
1.0
  0
MATERIAL
  5
11
102
{ACAD_XDICTIONARY
360
12
102
}
102
{ACAD_REACTORS
330
10
102
}
330
10
100
AcDbMaterial
  1
ByLayer
 72
     0
 43
0.020833
 43
0.0
 43
0.0
 43
0.0
 43
0.0
 43
0.020833
 43
0.0
 43
0.0
 43
0.0
 43
0.0
 43
1.0
 43
0.0
 43
0.0
 43
0.0
 43
0.0
 43
1.0
 77
     0
 47
0.020833
 47
0.0
 47
0.0
 47
0.0
 47
0.0
 47
0.020833
 47
0.0
 47
0.0
 47
0.0
 47
0.0
 47
1.0
 47
0.0
 47
0.0
 47
0.0
 47
0.0
 47
1.0
171
     0
 49
0.020833
 49
0.0
 49
0.0
 49
0.0
 49
0.0
 49
0.020833
 49
0.0
 49
0.0
 49
0.0
 49
0.0
 49
1.0
 49
0.0
 49
0.0
 49
0.0
 49
0.0
 49
1.0
175
     0
142
0.020833
142
0.0
142
0.0
142
0.0
142
0.0
142
0.020833
142
0.0
142
0.0
142
0.0
142
0.0
142
1.0
142
0.0
142
0.0
142
0.0
142
0.0
142
1.0
179
     0
144
0.020833
144
0.0
144
0.0
144
0.0
144
0.0
144
0.020833
144
0.0
144
0.0
144
0.0
144
0.0
144
1.0
144
0.0
144
0.0
144
0.0
144
0.0
144
1.0
147
0.020833
147
0.0
147
0.0
147
0.0
147
0.0
147
0.020833
147
0.0
147
0.0
147
0.0
147
0.0
147
1.0
147
0.0
147
0.0
147
0.0
147
0.0
147
1.0
  0
MATERIAL
  5
21
102
{ACAD_XDICTIONARY
360
22
102
}
102
{ACAD_REACTORS
330
10
102
}
330
10
100
AcDbMaterial
  1
Global
 72
     0
 43
0.020833
 43
0.0
 43
0.0
 43
0.0
 43
0.0
 43
0.020833
 43
0.0
 43
0.0
 43
0.0
 43
0.0
 43
1.0
 43
0.0
 43
0.0
 43
0.0
 43
0.0
 43
1.0
 77
     0
 47
0.020833
 47
0.0
 47
0.0
 47
0.0
 47
0.0
 47
0.020833
 47
0.0
 47
0.0
 47
0.0
 47
0.0
 47
1.0
 47
0.0
 47
0.0
 47
0.0
 47
0.0
 47
1.0
171
     0
 49
0.020833
 49
0.0
 49
0.0
 49
0.0
 49
0.0
 49
0.020833
 49
0.0
 49
0.0
 49
0.0
 49
0.0
 49
1.0
 49
0.0
 49
0.0
 49
0.0
 49
0.0
 49
1.0
175
     0
142
0.020833
142
0.0
142
0.0
142
0.0
142
0.0
142
0.020833
142
0.0
142
0.0
142
0.0
142
0.0
142
1.0
142
0.0
142
0.0
142
0.0
142
0.0
142
1.0
179
     0
144
0.020833
144
0.0
144
0.0
144
0.0
144
0.0
144
0.020833
144
0.0
144
0.0
144
0.0
144
0.0
144
1.0
144
0.0
144
0.0
144
0.0
144
0.0
144
1.0
147
0.020833
147
0.0
147
0.0
147
0.0
147
0.0
147
0.020833
147
0.0
147
0.0
147
0.0
147
0.0
147
1.0
147
0.0
147
0.0
147
0.0
147
0.0
147
1.0
  0
MLEADERSTYLE
  5
67
102
{ACAD_REACTORS
330
66
102
}
330
66
100
AcDbMLeaderStyle
179
     2
170
     2
171
     1
172
     0
 90
        2
 40
0.0
 41
0.0
173
     1
 91
-1056964608
340
5B
 92
       -2
290
     1
 42
0.09
291
     1
 43
0.36
  3
Standard
 44
0.18
300

342
55
174
     1
178
     6
175
     1
176
     0
 93
-1056964608
 45
0.18
292
     0
297
     0
 46
0.18
 94
-1056964608
 47
1.0
 49
1.0
140
1.0
293
     1
141
0.0
294
     1
177
     0
142
1.0
295
     0
296
     0
143
0.125
271
     0
272
     9
273
     9
298
     1
  0
MLINESTYLE
  5
60
102
{ACAD_REACTORS
330
5F
102
}
330
5F
100
AcDbMlineStyle
  2
STANDARD
 70
     0
  3

 62
   256
 51
90.0
 52
90.0
 71
     0
  0
ACDBPLACEHOLDER
  5
F
102
{ACAD_REACTORS
330
E
102
}
330
E
  0
SCALE
  5
A4
102
{ACAD_REACTORS
330
42
102
}
330
42
100
AcDbScale
 70
     0
300
1:2
140
1.0
141
2.0
290
     0
  0
SCALE
  5
AE
102
{ACAD_REACTORS
330
42
102
}
330
42
100
AcDbScale
 70
     0
300
1:100
140
1.0
141
100.0
290
     0
  0
SCALE
  5
AF
102
{ACAD_REACTORS
330
42
102
}
330
42
100
AcDbScale
 70
     0
300
2:1
140
2.0
141
1.0
290
     0
  0
SCALE
  5
B0
102
{ACAD_REACTORS
330
42
102
}
330
42
100
AcDbScale
 70
     0
300
4:1
140
4.0
141
1.0
290
     0
  0
SCALE
  5
B1
102
{ACAD_REACTORS
330
42
102
}
330
42
100
AcDbScale
 70
     0
300
8:1
140
8.0
141
1.0
290
     0
  0
SCALE
  5
B2
102
{ACAD_REACTORS
330
42
102
}
330
42
100
AcDbScale
 70
     0
300
10:1
140
10.0
141
1.0
290
     0
  0
SCALE
  5
B3
102
{ACAD_REACTORS
330
42
102
}
330
42
100
AcDbScale
 70
     0
300
100:1
140
100.0
141
1.0
290
     0
  0
SCALE
  5
A5
102
{ACAD_REACTORS
330
42
102
}
330
42
100
AcDbScale
 70
     0
300
1:4
140
1.0
141
4.0
290
     0
  0
SCALE
  5
A6
102
{ACAD_REACTORS
330
42
102
}
330
42
100
AcDbScale
 70
     0
300
1:5
140
1.0
141
5.0
290
     0
  0
SCALE
  5
A7
102
{ACAD_REACTORS
330
42
102
}
330
42
100
AcDbScale
 70
     0
300
1:8
140
1.0
141
8.0
290
     0
  0
SCALE
  5
A8
102
{ACAD_REACTORS
330
42
102
}
330
42
100
AcDbScale
 70
     0
300
1:10
140
1.0
141
10.0
290
     0
  0
SCALE
  5
A9
102
{ACAD_REACTORS
330
42
102
}
330
42
100
AcDbScale
 70
     0
300
1:16
140
1.0
141
16.0
290
     0
  0
SCALE
  5
AA
102
{ACAD_REACTORS
330
42
102
}
330
42
100
AcDbScale
 70
     0
300
1:20
140
1.0
141
20.0
290
     0
  0
SCALE
  5
AB
102
{ACAD_REACTORS
330
42
102
}
330
42
100
AcDbScale
 70
     0
300
1:30
140
1.0
141
30.0
290
     0
  0
SCALE
  5
AC
102
{ACAD_REACTORS
330
42
102
}
330
42
100
AcDbScale
 70
     0
300
1:40
140
1.0
141
40.0
290
     0
  0
SCALE
  5
AD
102
{ACAD_REACTORS
330
42
102
}
330
42
100
AcDbScale
 70
     0
300
1:50
140
1.0
141
50.0
290
     0
  0
SCALE
  5
43
102
{ACAD_REACTORS
330
42
102
}
330
42
100
AcDbScale
 70
     0
300
1:1
140
1.0
141
1.0
290
     1
  0
SCALE
  5
44
102
{ACAD_REACTORS
330
42
102
}
330
42
100
AcDbScale
 70
     0
300
1/128" = 1'-0"
140
0.007813
141
12.0
290
     0
  0
SCALE
  5
45
102
{ACAD_REACTORS
330
42
102
}
330
42
100
AcDbScale
 70
     0
300
1/64" = 1'-0"
140
0.015625
141
12.0
290
     0
  0
SCALE
  5
46
102
{ACAD_REACTORS
330
42
102
}
330
42
100
AcDbScale
 70
     0
300
1/32" = 1'-0"
140
0.03125
141
12.0
290
     0
  0
SCALE
  5
47
102
{ACAD_REACTORS
330
42
102
}
330
42
100
AcDbScale
 70
     0
300
1/16" = 1'-0"
140
0.0625
141
12.0
290
     0
  0
SCALE
  5
48
102
{ACAD_REACTORS
330
42
102
}
330
42
100
AcDbScale
 70
     0
300
3/32" = 1'-0"
140
0.09375
141
12.0
290
     0
  0
SCALE
  5
49
102
{ACAD_REACTORS
330
42
102
}
330
42
100
AcDbScale
 70
     0
300
1/8" = 1'-0"
140
0.125
141
12.0
290
     0
  0
SCALE
  5
4A
102
{ACAD_REACTORS
330
42
102
}
330
42
100
AcDbScale
 70
     0
300
3/16" = 1'-0"
140
0.1875
141
12.0
290
     0
  0
SCALE
  5
4B
102
{ACAD_REACTORS
330
42
102
}
330
42
100
AcDbScale
 70
     0
300
1/4" = 1'-0"
140
0.25
141
12.0
290
     0
  0
SCALE
  5
4C
102
{ACAD_REACTORS
330
42
102
}
330
42
100
AcDbScale
 70
     0
300
3/8" = 1'-0"
140
0.375
141
12.0
290
     0
  0
SCALE
  5
4D
102
{ACAD_REACTORS
330
42
102
}
330
42
100
AcDbScale
 70
     0
300
1/2" = 1'-0"
140
0.5
141
12.0
290
     0
  0
SCALE
  5
4E
102
{ACAD_REACTORS
330
42
102
}
330
42
100
AcDbScale
 70
     0
300
3/4" = 1'-0"
140
0.75
141
12.0
290
     0
  0
SCALE
  5
4F
102
{ACAD_REACTORS
330
42
102
}
330
42
100
AcDbScale
 70
     0
300
1" = 1'-0"
140
1.0
141
12.0
290
     0
  0
SCALE
  5
50
102
{ACAD_REACTORS
330
42
102
}
330
42
100
AcDbScale
 70
     0
300
1-1/2" = 1'-0"
140
1.5
141
12.0
290
     0
  0
SCALE
  5
51
102
{ACAD_REACTORS
330
42
102
}
330
42
100
AcDbScale
 70
     0
300
3" = 1'-0"
140
3.0
141
12.0
290
     0
  0
SCALE
  5
52
102
{ACAD_REACTORS
330
42
102
}
330
42
100
AcDbScale
 70
     0
300
6" = 1'-0"
140
6.0
141
12.0
290
     0
  0
SCALE
  5
53
102
{ACAD_REACTORS
330
42
102
}
330
42
100
AcDbScale
 70
     0
300
1'-0" = 1'-0"
140
12.0
141
12.0
290
     0
  0
ACDBSECTIONVIEWSTYLE
  5
69
102
{ACAD_XDICTIONARY
360
F9A
102
}
102
{ACAD_REACTORS
330
68
102
}
330
68
100
AcDbModelDocViewStyle
 70
     0
  3
Imperial24
290
     0
100
AcDbSectionViewStyle
 70
     0
 71
     0
 90
       78
 71
     1
340
55
 62
   256
 40
0.24
340
0
340
0
 62
   256
 40
0.24
300
I, O, Q, S, X, Z
 40
0.48
 90
        3
 40
0.18
 90
        1
 71
     2
340
5D
 90
       25
 62
   256
340
5D
 90
       50
 62
   256
 40
0.24
 40
0.0
 40
0.24
 71
     3
340
55
 62
   256
 40
0.24
 90
        1
 40
0.75
 90
        1
300
%<\AcVar ViewType \f "%tc1">% %<\AcVar ViewSectionStartId>%-%<\AcVar ViewSectionEndId>%\PSCALE %<\AcVar ViewScale \f "%sn">%
 71
     4
 62
   256
 62
   257
300
ANSI31
 40
1.0
 90
        0
290
     0
290
     0
 90
        6
 40
0.0
 40
1.570795999999999
 40
0.261799
 40
1.308996999999999
 40
-0.261799
 40
1.832595999999999
  0
ACDBSECTIONVIEWSTYLE
  5
72F
102
{ACAD_XDICTIONARY
360
F9E
102
}
102
{ACAD_REACTORS
330
68
102
}
330
68
100
AcDbModelDocViewStyle
 70
     0
  3
Metric50
290
     0
100
AcDbSectionViewStyle
 70
     0
 71
     0
 90
      102
 71
     1
340
55
 62
   256
 40
5.0
340
0
340
0
 62
   256
 40
5.0
300
I, O, Q, S, X, Z
 40
10.0
 90
        0
 40
2.5
 90
        0
 71
     2
340
5D
 90
       25
 62
   256
340
5D
 90
       50
 62
   256
 40
5.0
 40
2.5
 40
5.0
 71
     3
340
55
 62
   256
 40
5.0
 90
        0
 40
15.0
 90
        1
300
%<\AcVar ViewSectionStartId>%-%<\AcVar ViewSectionEndId>% (%<\AcVar ViewScale \f "%sn">%)
 71
     4
 62
   256
 62
   257
300
ANSI31
 40
1.0
 90
        0
290
     0
290
     0
 90
        6
 40
0.0
 40
1.570796326794896
 40
0.2617993877991494
 40
1.308996938995747
 40
-0.2617993877991494
 40
1.832595714594046
  0
TABLESTYLE
  5
65
102
{ACAD_XDICTIONARY
360
725
102
}
102
{ACAD_REACTORS
330
64
102
}
330
64
100
AcDbTableStyle
280
     0
  3
Standard
 70
     0
 71
     0
 40
1.5
 41
1.5
280
     0
281
     0
  7
Standard
140
0.18
170
     2
 62
     0
 63
     7
283
     0
 90
      512
 91
        0
  1

274
    -2
284
     1
 64
     0
275
    -2
285
     1
 65
     0
276
    -2
286
     1
 66
     0
277
    -2
287
     1
 67
     0
278
    -2
288
     1
 68
     0
279
    -2
289
     1
 69
     0
  7
Standard
140
0.25
170
     5
 62
     0
 63
     7
283
     0
 90
      512
 91
        0
  1

274
    -2
284
     1
 64
     0
275
    -2
285
     1
 65
     0
276
    -2
286
     1
 66
     0
277
    -2
287
     1
 67
     0
278
    -2
288
     1
 68
     0
279
    -2
289
     1
 69
     0
  7
Standard
140
0.18
170
     5
 62
     0
 63
     7
283
     0
 90
      512
 91
        0
  1

274
    -2
284
     1
 64
     0
275
    -2
285
     1
 65
     0
276
    -2
286
     1
 66
     0
277
    -2
287
     1
 67
     0
278
    -2
288
     1
 68
     0
279
    -2
289
     1
 69
     0
  0
VISUALSTYLE
  5
2F
102
{ACAD_REACTORS
330
29
102
}
330
29
100
AcDbVisualStyle
  2
2dWireframe
 70
     4
177
     3
291
     0
 70
    58
 90
        0
176
     1
 90
        2
176
     1
 90
        0
176
     1
 90
        0
176
     1
 40
0.6
176
     1
 40
30.0
176
     1
 62
     7
420
 16777215
176
     1
 90
        1
176
     1
 90
        4
176
     1
 62
     7
176
     1
 62
   257
176
     1
 90
        1
176
     1
 90
        1
176
     1
 40
1.0
176
     1
 90
        0
176
     1
 62
   257
176
     1
 40
1.0
176
     1
 90
        1
176
     1
 90
        6
176
     1
 90
        2
176
     1
 62
     7
176
     1
 90
        5
176
     1
 90
        0
176
     1
 90
        0
176
     1
290
     0
176
     1
 90
        1
176
     1
 40
0.0
176
     1
 90
        0
176
     1
290
     1
176
     1
290
     1
176
     1
290
     0
176
     1
290
     0
176
     1
290
     0
176
     1
290
     0
176
     1
290
     0
176
     1
290
     0
176
     1
290
     0
176
     1
 90
       50
176
     1
 40
0.0
176
     1
 40
1.0
176
     1
 90
        0
176
     1
 62
    18
176
     1
 90
       50
176
     1
 90
        3
176
     1
 62
     5
420
      255
176
     1
290
     0
176
     1
 90
       50
176
     1
 90
       50
176
     1
 90
       50
176
     1
290
     0
176
     1
 90
       50
176
     1
 62
   256
176
     0
 40
1.0
176
     0
 90
        2
176
     1
  1
strokes_ogs.tif
176
     1
290
     0
176
     1
 40
1.0
176
     1
 40
1.0
176
     1
1001
ACAD
1000
AcDbSavedByObjectVersion
1070
     0
  0
VISUALSTYLE
  5
2E
102
{ACAD_REACTORS
330
29
102
}
330
29
100
AcDbVisualStyle
  2
Basic
 70
     7
177
     3
291
     1
 70
    58
 90
        1
176
     1
 90
        0
176
     1
 90
        1
176
     1
 90
        0
176
     1
 40
0.6
176
     1
 40
30.0
176
     1
 62
     7
420
 16777215
176
     1
 90
        0
176
     1
 90
        4
176
     1
 62
     7
176
     1
 62
   257
176
     1
 90
        1
176
     1
 90
        1
176
     1
 40
1.0
176
     1
 90
        8
176
     1
 62
     7
176
     1
 40
1.0
176
     1
 90
        1
176
     1
 90
        6
176
     1
 90
        2
176
     1
 62
     7
176
     1
 90
        5
176
     1
 90
        0
176
     1
 90
        0
176
     1
290
     0
176
     1
 90
        1
176
     1
 40
0.0
176
     1
 90
        0
176
     1
290
     0
176
     1
290
     1
176
     1
290
     1
176
     1
290
     0
176
     1
290
     0
176
     1
290
     0
176
     1
290
     0
176
     1
290
     0
176
     1
290
     0
176
     1
 90
       50
176
     1
 40
0.0
176
     1
 40
1.0
176
     1
 90
        0
176
     1
 62
    18
176
     1
 90
       50
176
     1
 90
        3
176
     1
 62
     5
420
      255
176
     1
290
     0
176
     1
 90
       50
176
     1
 90
       50
176
     1
 90
       50
176
     1
290
     0
176
     1
 90
       50
176
     1
 62
   256
176
     0
 40
1.0
176
     0
 90
        2
176
     1
  1
strokes_ogs.tif
176
     1
290
     0
176
     1
 40
1.0
176
     1
 40
1.0
176
     1
1001
ACAD
1000
AcDbSavedByObjectVersion
1070
     0
  0
VISUALSTYLE
  5
35
102
{ACAD_REACTORS
330
29
102
}
330
29
100
AcDbVisualStyle
  2
Brighten
 70
    12
177
     3
291
     1
 70
    58
 90
        2
176
     1
 90
        2
176
     1
 90
        0
176
     1
 90
        0
176
     1
 40
0.6
176
     1
 40
30.0
176
     1
 62
     7
420
 16777215
176
     1
 90
        1
176
     1
 90
        4
176
     1
 62
     7
176
     1
 62
   257
176
     1
 90
        1
176
     1
 90
        1
176
     1
 40
1.0
176
     1
 90
        8
176
     1
 62
     7
176
     1
 40
1.0
176
     1
 90
        1
176
     1
 90
        6
176
     1
 90
        2
176
     1
 62
     7
176
     1
 90
        5
176
     1
 90
        0
176
     1
 90
        0
176
     1
290
     0
176
     1
 90
        1
176
     1
 40
50.0
176
     1
 90
        0
176
     1
290
     0
176
     1
290
     1
176
     1
290
     1
176
     1
290
     0
176
     1
290
     0
176
     1
290
     0
176
     1
290
     0
176
     1
290
     0
176
     1
290
     0
176
     1
 90
       50
176
     1
 40
0.0
176
     1
 40
1.0
176
     1
 90
        0
176
     1
 62
    18
176
     1
 90
       50
176
     1
 90
        3
176
     1
 62
     5
420
      255
176
     1
290
     0
176
     1
 90
       50
176
     1
 90
       50
176
     1
 90
       50
176
     1
290
     0
176
     1
 90
       50
176
     1
 62
   256
176
     0
 40
1.0
176
     0
 90
        2
176
     1
  1
strokes_ogs.tif
176
     1
290
     0
176
     1
 40
1.0
176
     1
 40
1.0
176
     1
1001
ACAD
1000
AcDbSavedByObjectVersion
1070
     0
  0
VISUALSTYLE
  5
39
102
{ACAD_REACTORS
330
29
102
}
330
29
100
AcDbVisualStyle
  2
ColorChange
 70
    16
177
     3
291
     1
 70
    58
 90
        2
176
     1
 90
        2
176
     1
 90
        3
176
     1
 90
        0
176
     1
 40
0.6
176
     1
 40
30.0
176
     1
 62
     8
420
  8421504
176
     1
 90
        1
176
     1
 90
        4
176
     1
 62
     7
176
     1
 62
   257
176
     1
 90
        1
176
     1
 90
        1
176
     1
 40
1.0
176
     1
 90
        8
176
     1
 62
     8
420
  8421504
176
     1
 40
1.0
176
     1
 90
        1
176
     1
 90
        6
176
     1
 90
        2
176
     1
 62
     7
176
     1
 90
        5
176
     1
 90
        0
176
     1
 90
        0
176
     1
290
     0
176
     1
 90
        1
176
     1
 40
0.0
176
     1
 90
        0
176
     1
290
     0
176
     1
290
     1
176
     1
290
     1
176
     1
290
     0
176
     1
290
     0
176
     1
290
     0
176
     1
290
     0
176
     1
290
     0
176
     1
290
     0
176
     1
 90
       50
176
     1
 40
0.0
176
     1
 40
1.0
176
     1
 90
        0
176
     1
 62
    18
176
     1
 90
       50
176
     1
 90
        3
176
     1
 62
     5
420
      255
176
     1
290
     0
176
     1
 90
       50
176
     1
 90
       50
176
     1
 90
       50
176
     1
290
     0
176
     1
 90
       50
176
     1
 62
   256
176
     0
 40
1.0
176
     0
 90
        2
176
     1
  1
strokes_ogs.tif
176
     1
290
     0
176
     1
 40
1.0
176
     1
 40
1.0
176
     1
1001
ACAD
1000
AcDbSavedByObjectVersion
1070
     0
  0
VISUALSTYLE
  5
32
102
{ACAD_REACTORS
330
29
102
}
330
29
100
AcDbVisualStyle
  2
Conceptual
 70
     9
177
     3
291
     0
 70
    58
 90
        3
176
     1
 90
        2
176
     1
 90
        0
176
     1
 90
        0
176
     1
 40
0.6
176
     1
 40
30.0
176
     1
 62
     7
420
 16777215
176
     1
 90
        2
176
     1
 90
        2
176
     1
 62
     7
176
     1
 62
   257
176
     1
 90
        1
176
     1
 90
        1
176
     1
 40
179.0
176
     1
 90
        8
176
     1
 62
     7
176
     1
 40
1.0
176
     1
 90
        1
176
     1
 90
        6
176
     1
 90
        2
176
     1
 62
     7
176
     1
 90
        3
176
     1
 90
        0
176
     1
 90
        0
176
     1
290
     0
176
     1
 90
        1
176
     1
 40
0.0
176
     1
 90
        0
176
     1
290
     0
176
     1
290
     1
176
     1
290
     1
176
     1
290
     0
176
     1
290
     0
176
     1
290
     0
176
     1
290
     0
176
     1
290
     0
176
     1
290
     0
176
     1
 90
       50
176
     1
 40
0.0
176
     1
 40
1.0
176
     1
 90
        0
176
     1
 62
    18
176
     1
 90
       50
176
     1
 90
        3
176
     1
 62
     5
420
      255
176
     1
290
     0
176
     1
 90
       50
176
     1
 90
       50
176
     1
 90
       50
176
     1
290
     0
176
     1
 90
       50
176
     1
 62
   256
176
     0
 40
1.0
176
     0
 90
        2
176
     1
  1
strokes_ogs.tif
176
     1
290
     0
176
     1
 40
1.0
176
     1
 40
1.0
176
     1
1001
ACAD
1000
AcDbSavedByObjectVersion
1070
     0
  0
VISUALSTYLE
  5
34
102
{ACAD_REACTORS
330
29
102
}
330
29
100
AcDbVisualStyle
  2
Dim
 70
    11
177
     3
291
     1
 70
    58
 90
        2
176
     1
 90
        2
176
     1
 90
        0
176
     1
 90
        0
176
     1
 40
0.6
176
     1
 40
30.0
176
     1
 62
     7
420
 16777215
176
     1
 90
        1
176
     1
 90
        4
176
     1
 62
     7
176
     1
 62
   257
176
     1
 90
        1
176
     1
 90
        1
176
     1
 40
1.0
176
     1
 90
        8
176
     1
 62
     7
176
     1
 40
1.0
176
     1
 90
        1
176
     1
 90
        6
176
     1
 90
        2
176
     1
 62
     7
176
     1
 90
        5
176
     1
 90
        0
176
     1
 90
        0
176
     1
290
     0
176
     1
 90
        1
176
     1
 40
-50.0
176
     1
 90
        0
176
     1
290
     0
176
     1
290
     1
176
     1
290
     1
176
     1
290
     0
176
     1
290
     0
176
     1
290
     0
176
     1
290
     0
176
     1
290
     0
176
     1
290
     0
176
     1
 90
       50
176
     1
 40
0.0
176
     1
 40
1.0
176
     1
 90
        0
176
     1
 62
    18
176
     1
 90
       50
176
     1
 90
        3
176
     1
 62
     5
420
      255
176
     1
290
     0
176
     1
 90
       50
176
     1
 90
       50
176
     1
 90
       50
176
     1
290
     0
176
     1
 90
       50
176
     1
 62
   256
176
     0
 40
1.0
176
     0
 90
        2
176
     1
  1
strokes_ogs.tif
176
     1
290
     0
176
     1
 40
1.0
176
     1
 40
1.0
176
     1
1001
ACAD
1000
AcDbSavedByObjectVersion
1070
     0
  0
VISUALSTYLE
  5
41
102
{ACAD_REACTORS
330
29
102
}
330
29
100
AcDbVisualStyle
  2
EdgeColorOff
 70
    22
177
     3
291
     1
 70
    58
 90
        2
176
     0
 90
        2
176
     0
 90
        0
176
     0
 90
        0
176
     0
 40
0.6
176
     0
 40
30.0
176
     0
 62
     7
420
 16777215
176
     0
 90
        1
176
     0
 90
        4
176
     0
 62
     7
176
     0
 62
   257
176
     0
 90
        1
176
     0
 90
        1
176
     0
 40
1.0
176
     0
 90
        8
176
     2
 62
     7
176
     0
 40
1.0
176
     0
 90
        1
176
     0
 90
        6
176
     0
 90
        2
176
     0
 62
     7
176
     0
 90
        5
176
     0
 90
        0
176
     0
 90
        0
176
     0
290
     0
176
     0
 90
        1
176
     0
 40
0.0
176
     0
 90
        0
176
     0
290
     0
176
     0
290
     1
176
     0
290
     1
176
     0
290
     0
176
     0
290
     0
176
     0
290
     0
176
     0
290
     0
176
     0
290
     0
176
     0
290
     0
176
     0
 90
       50
176
     0
 40
0.0
176
     0
 40
1.0
176
     0
 90
        0
176
     0
 62
    18
176
     0
 90
       50
176
     0
 90
        3
176
     0
 62
     5
420
      255
176
     0
290
     0
176
     0
 90
       50
176
     0
 90
       50
176
     0
 90
       50
176
     0
290
     0
176
     0
 90
       50
176
     0
 62
   256
176
     0
 40
1.0
176
     0
 90
        2
176
     0
  1
strokes_ogs.tif
176
     0
290
     0
176
     0
 40
1.0
176
     0
 40
1.0
176
     0
1001
ACAD
1000
AcDbSavedByObjectVersion
1070
     0
  0
VISUALSTYLE
  5
38
102
{ACAD_REACTORS
330
29
102
}
330
29
100
AcDbVisualStyle
  2
Facepattern
 70
    15
177
     3
291
     1
 70
    58
 90
        2
176
     1
 90
        2
176
     1
 90
        0
176
     1
 90
        0
176
     1
 40
0.6
176
     1
 40
30.0
176
     1
 62
     7
420
 16777215
176
     1
 90
        1
176
     1
 90
        4
176
     1
 62
     7
176
     1
 62
   257
176
     1
 90
        1
176
     1
 90
        1
176
     1
 40
1.0
176
     1
 90
        8
176
     1
 62
     7
176
     1
 40
1.0
176
     1
 90
        1
176
     1
 90
        6
176
     1
 90
        2
176
     1
 62
     7
176
     1
 90
        5
176
     1
 90
        0
176
     1
 90
        0
176
     1
290
     0
176
     1
 90
        1
176
     1
 40
0.0
176
     1
 90
        0
176
     1
290
     0
176
     1
290
     1
176
     1
290
     1
176
     1
290
     0
176
     1
290
     0
176
     1
290
     0
176
     1
290
     0
176
     1
290
     0
176
     1
290
     0
176
     1
 90
       50
176
     1
 40
0.0
176
     1
 40
1.0
176
     1
 90
        0
176
     1
 62
    18
176
     1
 90
       50
176
     1
 90
        3
176
     1
 62
     5
420
      255
176
     1
290
     0
176
     1
 90
       50
176
     1
 90
       50
176
     1
 90
       50
176
     1
290
     0
176
     1
 90
       50
176
     1
 62
   256
176
     0
 40
1.0
176
     0
 90
        2
176
     1
  1
strokes_ogs.tif
176
     1
290
     0
176
     1
 40
1.0
176
     1
 40
1.0
176
     1
1001
ACAD
1000
AcDbSavedByObjectVersion
1070
     0
  0
VISUALSTYLE
  5
2A
102
{ACAD_REACTORS
330
29
102
}
330
29
100
AcDbVisualStyle
  2
Flat
 70
     0
177
     3
291
     1
 70
    58
 90
        2
176
     1
 90
        1
176
     1
 90
        1
176
     1
 90
        2
176
     1
 40
0.6
176
     1
 40
30.0
176
     1
 62
     7
420
 16777215
176
     1
 90
        0
176
     1
 90
        0
176
     1
 62
     7
176
     1
 62
   257
176
     1
 90
        1
176
     1
 90
        1
176
     1
 40
1.0
176
     1
 90
        8
176
     1
 62
     7
176
     1
 40
1.0
176
     1
 90
        1
176
     1
 90
        6
176
     1
 90
        2
176
     1
 62
     7
176
     1
 90
        5
176
     1
 90
        0
176
     1
 90
        0
176
     1
290
     0
176
     1
 90
       13
176
     1
 40
0.0
176
     1
 90
        0
176
     1
290
     0
176
     1
290
     1
176
     1
290
     1
176
     1
290
     0
176
     1
290
     0
176
     1
290
     0
176
     1
290
     0
176
     1
290
     0
176
     1
290
     0
176
     1
 90
       50
176
     1
 40
0.0
176
     1
 40
1.0
176
     1
 90
        0
176
     1
 62
    18
176
     1
 90
       50
176
     1
 90
        3
176
     1
 62
     5
420
      255
176
     1
290
     0
176
     1
 90
       50
176
     1
 90
       50
176
     1
 90
       50
176
     1
290
     0
176
     1
 90
       50
176
     1
 62
   256
176
     0
 40
1.0
176
     0
 90
        2
176
     1
  1
strokes_ogs.tif
176
     1
290
     0
176
     1
 40
1.0
176
     1
 40
1.0
176
     1
1001
ACAD
1000
AcDbSavedByObjectVersion
1070
     0
  0
VISUALSTYLE
  5
2B
102
{ACAD_REACTORS
330
29
102
}
330
29
100
AcDbVisualStyle
  2
FlatWithEdges
 70
     1
177
     3
291
     1
 70
    58
 90
        2
176
     1
 90
        1
176
     1
 90
        1
176
     1
 90
        2
176
     1
 40
0.6
176
     1
 40
30.0
176
     1
 62
     7
420
 16777215
176
     1
 90
        1
176
     1
 90
        0
176
     1
 62
     7
176
     1
 62
   257
176
     1
 90
        1
176
     1
 90
        1
176
     1
 40
1.0
176
     1
 90
        0
176
     1
 62
   257
176
     1
 40
1.0
176
     1
 90
        1
176
     1
 90
        6
176
     1
 90
        2
176
     1
 62
     7
176
     1
 90
        5
176
     1
 90
        0
176
     1
 90
        0
176
     1
290
     0
176
     1
 90
       13
176
     1
 40
0.0
176
     1
 90
        0
176
     1
290
     0
176
     1
290
     1
176
     1
290
     1
176
     1
290
     0
176
     1
290
     0
176
     1
290
     0
176
     1
290
     0
176
     1
290
     0
176
     1
290
     0
176
     1
 90
       50
176
     1
 40
0.0
176
     1
 40
1.0
176
     1
 90
        0
176
     1
 62
    18
176
     1
 90
       50
176
     1
 90
        3
176
     1
 62
     5
420
      255
176
     1
290
     0
176
     1
 90
       50
176
     1
 90
       50
176
     1
 90
       50
176
     1
290
     0
176
     1
 90
       50
176
     1
 62
   256
176
     0
 40
1.0
176
     0
 90
        2
176
     1
  1
strokes_ogs.tif
176
     1
290
     0
176
     1
 40
1.0
176
     1
 40
1.0
176
     1
1001
ACAD
1000
AcDbSavedByObjectVersion
1070
     0
  0
VISUALSTYLE
  5
2C
102
{ACAD_REACTORS
330
29
102
}
330
29
100
AcDbVisualStyle
  2
Gouraud
 70
     2
177
     3
291
     1
 70
    58
 90
        2
176
     1
 90
        2
176
     1
 90
        1
176
     1
 90
        2
176
     1
 40
0.6
176
     1
 40
30.0
176
     1
 62
     7
420
 16777215
176
     1
 90
        0
176
     1
 90
        0
176
     1
 62
     7
176
     1
 62
   257
176
     1
 90
        1
176
     1
 90
        1
176
     1
 40
1.0
176
     1
 90
        0
176
     1
 62
     7
176
     1
 40
1.0
176
     1
 90
        1
176
     1
 90
        6
176
     1
 90
        2
176
     1
 62
     7
176
     1
 90
        5
176
     1
 90
        0
176
     1
 90
        0
176
     1
290
     0
176
     1
 90
       13
176
     1
 40
0.0
176
     1
 90
        0
176
     1
290
     0
176
     1
290
     1
176
     1
290
     1
176
     1
290
     0
176
     1
290
     0
176
     1
290
     0
176
     1
290
     0
176
     1
290
     0
176
     1
290
     0
176
     1
 90
       50
176
     1
 40
0.0
176
     1
 40
1.0
176
     1
 90
        0
176
     1
 62
    18
176
     1
 90
       50
176
     1
 90
        3
176
     1
 62
     5
420
      255
176
     1
290
     0
176
     1
 90
       50
176
     1
 90
       50
176
     1
 90
       50
176
     1
290
     0
176
     1
 90
       50
176
     1
 62
   256
176
     0
 40
1.0
176
     0
 90
        2
176
     1
  1
strokes_ogs.tif
176
     1
290
     0
176
     1
 40
1.0
176
     1
 40
1.0
176
     1
1001
ACAD
1000
AcDbSavedByObjectVersion
1070
     0
  0
VISUALSTYLE
  5
2D
102
{ACAD_REACTORS
330
29
102
}
330
29
100
AcDbVisualStyle
  2
GouraudWithEdges
 70
     3
177
     3
291
     1
 70
    58
 90
        2
176
     1
 90
        2
176
     1
 90
        1
176
     1
 90
        2
176
     1
 40
0.6
176
     1
 40
30.0
176
     1
 62
     7
420
 16777215
176
     1
 90
        1
176
     1
 90
        0
176
     1
 62
     7
176
     1
 62
   257
176
     1
 90
        1
176
     1
 90
        1
176
     1
 40
1.0
176
     1
 90
        0
176
     1
 62
   257
176
     1
 40
1.0
176
     1
 90
        1
176
     1
 90
        6
176
     1
 90
        2
176
     1
 62
     7
176
     1
 90
        5
176
     1
 90
        0
176
     1
 90
        0
176
     1
290
     0
176
     1
 90
       13
176
     1
 40
0.0
176
     1
 90
        0
176
     1
290
     0
176
     1
290
     1
176
     1
290
     1
176
     1
290
     0
176
     1
290
     0
176
     1
290
     0
176
     1
290
     0
176
     1
290
     0
176
     1
290
     0
176
     1
 90
       50
176
     1
 40
0.0
176
     1
 40
1.0
176
     1
 90
        0
176
     1
 62
    18
176
     1
 90
       50
176
     1
 90
        3
176
     1
 62
     5
420
      255
176
     1
290
     0
176
     1
 90
       50
176
     1
 90
       50
176
     1
 90
       50
176
     1
290
     0
176
     1
 90
       50
176
     1
 62
   256
176
     0
 40
1.0
176
     0
 90
        2
176
     1
  1
strokes_ogs.tif
176
     1
290
     0
176
     1
 40
1.0
176
     1
 40
1.0
176
     1
1001
ACAD
1000
AcDbSavedByObjectVersion
1070
     0
  0
VISUALSTYLE
  5
31
102
{ACAD_REACTORS
330
29
102
}
330
29
100
AcDbVisualStyle
  2
Hidden
 70
     6
177
     3
291
     0
 70
    58
 90
        1
176
     1
 90
        2
176
     1
 90
        2
176
     1
 90
        0
176
     1
 40
0.6
176
     1
 40
30.0
176
     1
 62
     7
420
 16777215
176
     1
 90
        2
176
     1
 90
        2
176
     1
 62
     7
176
     1
 62
   257
176
     1
 90
        2
176
     1
 90
        1
176
     1
 40
40.0
176
     1
 90
        0
176
     1
 62
   257
176
     1
 40
1.0
176
     1
 90
        1
176
     1
 90
        6
176
     1
 90
        2
176
     1
 62
     7
176
     1
 90
        3
176
     1
 90
        0
176
     1
 90
        0
176
     1
290
     0
176
     1
 90
        1
176
     1
 40
0.0
176
     1
 90
        0
176
     1
290
     0
176
     1
290
     1
176
     1
290
     1
176
     1
290
     0
176
     1
290
     0
176
     1
290
     0
176
     1
290
     0
176
     1
290
     0
176
     1
290
     0
176
     1
 90
       50
176
     1
 40
0.0
176
     1
 40
1.0
176
     1
 90
        0
176
     1
 62
    18
176
     1
 90
       50
176
     1
 90
        3
176
     1
 62
     5
420
      255
176
     1
290
     0
176
     1
 90
       50
176
     1
 90
       50
176
     1
 90
       50
176
     1
290
     0
176
     1
 90
       50
176
     1
 62
   256
176
     0
 40
1.0
176
     0
 90
        2
176
     1
  1
strokes_ogs.tif
176
     1
290
     0
176
     1
 40
1.0
176
     1
 40
1.0
176
     1
1001
ACAD
1000
AcDbSavedByObjectVersion
1070
     0
  0
VISUALSTYLE
  5
3F
102
{ACAD_REACTORS
330
29
102
}
330
29
100
AcDbVisualStyle
  2
JitterOff
 70
    20
177
     3
291
     1
 70
    58
 90
        2
176
     0
 90
        2
176
     0
 90
        0
176
     0
 90
        0
176
     0
 40
0.6
176
     0
 40
30.0
176
     0
 62
     7
420
 16777215
176
     0
 90
        1
176
     0
 90
        4
176
     0
 62
     7
176
     0
 62
   257
176
     0
 90
        1
176
     0
 90
        1
176
     0
 40
1.0
176
     0
 90
       10
176
     2
 62
     7
176
     0
 40
1.0
176
     0
 90
        1
176
     0
 90
        6
176
     0
 90
        2
176
     0
 62
     7
176
     0
 90
        5
176
     0
 90
        0
176
     0
 90
        0
176
     0
290
     0
176
     0
 90
        1
176
     0
 40
0.0
176
     0
 90
        0
176
     0
290
     0
176
     0
290
     1
176
     0
290
     1
176
     0
290
     0
176
     0
290
     0
176
     0
290
     0
176
     0
290
     0
176
     0
290
     0
176
     0
290
     0
176
     0
 90
       50
176
     0
 40
0.0
176
     0
 40
1.0
176
     0
 90
        0
176
     0
 62
    18
176
     0
 90
       50
176
     0
 90
        3
176
     0
 62
     5
420
      255
176
     0
290
     0
176
     0
 90
       50
176
     0
 90
       50
176
     0
 90
       50
176
     0
290
     0
176
     0
 90
       50
176
     0
 62
   256
176
     0
 40
1.0
176
     0
 90
        2
176
     0
  1
strokes_ogs.tif
176
     0
290
     0
176
     0
 40
1.0
176
     0
 40
1.0
176
     0
1001
ACAD
1000
AcDbSavedByObjectVersion
1070
     0
  0
VISUALSTYLE
  5
37
102
{ACAD_REACTORS
330
29
102
}
330
29
100
AcDbVisualStyle
  2
Linepattern
 70
    14
177
     3
291
     1
 70
    58
 90
        2
176
     1
 90
        2
176
     1
 90
        0
176
     1
 90
        0
176
     1
 40
0.6
176
     1
 40
30.0
176
     1
 62
     7
420
 16777215
176
     1
 90
        1
176
     1
 90
        4
176
     1
 62
     7
176
     1
 62
   257
176
     1
 90
        7
176
     1
 90
        7
176
     1
 40
1.0
176
     1
 90
        8
176
     1
 62
     7
176
     1
 40
1.0
176
     1
 90
        1
176
     1
 90
        6
176
     1
 90
        2
176
     1
 62
     7
176
     1
 90
        5
176
     1
 90
        0
176
     1
 90
        0
176
     1
290
     0
176
     1
 90
        1
176
     1
 40
0.0
176
     1
 90
        0
176
     1
290
     0
176
     1
290
     1
176
     1
290
     1
176
     1
290
     0
176
     1
290
     0
176
     1
290
     0
176
     1
290
     0
176
     1
290
     0
176
     1
290
     0
176
     1
 90
       50
176
     1
 40
0.0
176
     1
 40
1.0
176
     1
 90
        0
176
     1
 62
    18
176
     1
 90
       50
176
     1
 90
        3
176
     1
 62
     5
420
      255
176
     1
290
     0
176
     1
 90
       50
176
     1
 90
       50
176
     1
 90
       50
176
     1
290
     0
176
     1
 90
       50
176
     1
 62
   256
176
     0
 40
1.0
176
     0
 90
        2
176
     1
  1
strokes_ogs.tif
176
     1
290
     0
176
     1
 40
1.0
176
     1
 40
1.0
176
     1
1001
ACAD
1000
AcDbSavedByObjectVersion
1070
     0
  0
VISUALSTYLE
  5
40
102
{ACAD_REACTORS
330
29
102
}
330
29
100
AcDbVisualStyle
  2
OverhangOff
 70
    21
177
     3
291
     1
 70
    58
 90
        2
176
     0
 90
        2
176
     0
 90
        0
176
     0
 90
        0
176
     0
 40
0.6
176
     0
 40
30.0
176
     0
 62
     7
420
 16777215
176
     0
 90
        1
176
     0
 90
        4
176
     0
 62
     7
176
     0
 62
   257
176
     0
 90
        1
176
     0
 90
        1
176
     0
 40
1.0
176
     0
 90
        9
176
     2
 62
     7
176
     0
 40
1.0
176
     0
 90
        1
176
     0
 90
        6
176
     0
 90
        2
176
     0
 62
     7
176
     0
 90
        5
176
     0
 90
        0
176
     0
 90
        0
176
     0
290
     0
176
     0
 90
        1
176
     0
 40
0.0
176
     0
 90
        0
176
     0
290
     0
176
     0
290
     1
176
     0
290
     1
176
     0
290
     0
176
     0
290
     0
176
     0
290
     0
176
     0
290
     0
176
     0
290
     0
176
     0
290
     0
176
     0
 90
       50
176
     0
 40
0.0
176
     0
 40
1.0
176
     0
 90
        0
176
     0
 62
    18
176
     0
 90
       50
176
     0
 90
        3
176
     0
 62
     5
420
      255
176
     0
290
     0
176
     0
 90
       50
176
     0
 90
       50
176
     0
 90
       50
176
     0
290
     0
176
     0
 90
       50
176
     0
 62
   256
176
     0
 40
1.0
176
     0
 90
        2
176
     0
  1
strokes_ogs.tif
176
     0
290
     0
176
     0
 40
1.0
176
     0
 40
1.0
176
     0
1001
ACAD
1000
AcDbSavedByObjectVersion
1070
     0
  0
VISUALSTYLE
  5
33
102
{ACAD_REACTORS
330
29
102
}
330
29
100
AcDbVisualStyle
  2
Realistic
 70
     8
177
     3
291
     0
 70
    58
 90
        2
176
     1
 90
        3
176
     1
 90
        0
176
     1
 90
        2
176
     1
 40
0.6
176
     1
 40
30.0
176
     1
 62
     7
420
 16777215
176
     1
 90
        0
176
     1
 90
        0
176
     1
 62
     7
176
     1
 62
   257
176
     1
 90
        1
176
     1
 90
        1
176
     1
 40
1.0
176
     1
 90
        8
176
     1
 62
   257
176
     1
 40
1.0
176
     1
 90
        1
176
     1
 90
        6
176
     1
 90
        2
176
     1
 62
     7
176
     1
 90
        3
176
     1
 90
        0
176
     1
 90
        0
176
     1
290
     0
176
     1
 90
       13
176
     1
 40
0.0
176
     1
 90
        0
176
     1
290
     0
176
     1
290
     1
176
     1
290
     1
176
     1
290
     0
176
     1
290
     0
176
     1
290
     0
176
     1
290
     0
176
     1
290
     0
176
     1
290
     0
176
     1
 90
       50
176
     1
 40
0.0
176
     1
 40
1.0
176
     1
 90
        0
176
     1
 62
    18
176
     1
 90
       50
176
     1
 90
        3
176
     1
 62
     5
420
      255
176
     1
290
     0
176
     1
 90
       50
176
     1
 90
       50
176
     1
 90
       50
176
     1
290
     0
176
     1
 90
       50
176
     1
 62
   256
176
     0
 40
1.0
176
     0
 90
        2
176
     1
  1
strokes_ogs.tif
176
     1
290
     0
176
     1
 40
1.0
176
     1
 40
1.0
176
     1
1001
ACAD
1000
AcDbSavedByObjectVersion
1070
     0
  0
VISUALSTYLE
  5
3E
102
{ACAD_REACTORS
330
29
102
}
330
29
100
AcDbVisualStyle
  2
Shaded
 70
    27
177
     3
291
     0
 70
    58
 90
        2
176
     1
 90
        2
176
     1
 90
        1
176
     1
 90
        2
176
     1
 40
0.6
176
     1
 40
30.0
176
     1
 62
     7
420
 16777215
176
     1
 90
        0
176
     1
 90
        4
176
     1
 62
     7
176
     1
 62
   257
176
     1
 90
        1
176
     1
 90
        1
176
     1
 40
1.0
176
     1
 90
        8
176
     1
 62
   257
176
     1
 40
1.0
176
     1
 90
        1
176
     1
 90
        6
176
     1
 90
        2
176
     1
 62
     8
420
  7895160
176
     1
 90
        3
176
     1
 90
        0
176
     1
 90
        0
176
     1
290
     0
176
     1
 90
        5
176
     1
 40
0.0
176
     1
 90
        0
176
     1
290
     0
176
     1
290
     1
176
     1
290
     1
176
     1
290
     0
176
     1
290
     0
176
     1
290
     0
176
     1
290
     0
176
     1
290
     0
176
     1
290
     0
176
     1
 90
       50
176
     1
 40
0.0
176
     1
 40
1.0
176
     1
 90
        0
176
     1
 62
    18
176
     1
 90
       50
176
     1
 90
        3
176
     1
 62
     5
420
      255
176
     1
290
     0
176
     1
 90
       50
176
     1
 90
       50
176
     1
 90
       50
176
     1
290
     0
176
     1
 90
       50
176
     1
 62
   256
176
     0
 40
1.0
176
     0
 90
        2
176
     1
  1
strokes_ogs.tif
176
     1
290
     0
176
     1
 40
1.0
176
     1
 40
1.0
176
     1
1001
ACAD
1000
AcDbSavedByObjectVersion
1070
     0
  0
VISUALSTYLE
  5
3D
102
{ACAD_REACTORS
330
29
102
}
330
29
100
AcDbVisualStyle
  2
Shaded with edges
 70
    26
177
     3
291
     0
 70
    58
 90
        2
176
     1
 90
        2
176
     1
 90
        1
176
     1
 90
        2
176
     1
 40
0.6
176
     1
 40
30.0
176
     1
 62
     7
420
 16777215
176
     1
 90
        1
176
     1
 90
        2
176
     1
 62
     7
176
     1
 62
   257
176
     1
 90
        2
176
     1
 90
        1
176
     1
 40
1.0
176
     1
 90
        8
176
     1
 62
   257
176
     1
 40
1.0
176
     1
 90
        1
176
     1
 90
        6
176
     1
 90
        2
176
     1
 62
     7
176
     1
 90
        3
176
     1
 90
        0
176
     1
 90
        0
176
     1
290
     0
176
     1
 90
        5
176
     1
 40
0.0
176
     1
 90
        0
176
     1
290
     0
176
     1
290
     1
176
     1
290
     1
176
     1
290
     0
176
     1
290
     0
176
     1
290
     0
176
     1
290
     0
176
     1
290
     0
176
     1
290
     0
176
     1
 90
       50
176
     1
 40
0.0
176
     1
 40
1.0
176
     1
 90
        0
176
     1
 62
    18
176
     1
 90
       50
176
     1
 90
        3
176
     1
 62
     5
420
      255
176
     1
290
     0
176
     1
 90
       50
176
     1
 90
       50
176
     1
 90
       50
176
     1
290
     0
176
     1
 90
       50
176
     1
 62
   256
176
     0
 40
1.0
176
     0
 90
        2
176
     1
  1
strokes_ogs.tif
176
     1
290
     0
176
     1
 40
1.0
176
     1
 40
1.0
176
     1
1001
ACAD
1000
AcDbSavedByObjectVersion
1070
     0
  0
VISUALSTYLE
  5
3A
102
{ACAD_REACTORS
330
29
102
}
330
29
100
AcDbVisualStyle
  2
Shades of Gray
 70
    23
177
     3
291
     0
 70
    58
 90
        2
176
     1
 90
        2
176
     1
 90
        3
176
     1
 90
        0
176
     1
 40
0.6
176
     1
 40
30.0
176
     1
 62
     7
420
 16777215
176
     1
 90
        2
176
     1
 90
        2
176
     1
 62
     7
176
     1
 62
     7
176
     1
 90
        1
176
     1
 90
        1
176
     1
 40
40.0
176
     1
 90
        8
176
     1
 62
     7
176
     1
 40
1.0
176
     1
 90
        1
176
     1
 90
        6
176
     1
 90
        2
176
     1
 62
     7
176
     1
 90
        3
176
     1
 90
        0
176
     1
 90
        0
176
     1
290
     0
176
     1
 90
        1
176
     1
 40
0.0
176
     1
 90
        0
176
     1
290
     0
176
     1
290
     1
176
     1
290
     1
176
     1
290
     0
176
     1
290
     0
176
     1
290
     0
176
     1
290
     0
176
     1
290
     0
176
     1
290
     0
176
     1
 90
       50
176
     1
 40
0.0
176
     1
 40
1.0
176
     1
 90
        0
176
     1
 62
    18
176
     1
 90
       50
176
     1
 90
        3
176
     1
 62
     5
420
      255
176
     1
290
     0
176
     1
 90
       50
176
     1
 90
       50
176
     1
 90
       50
176
     1
290
     0
176
     1
 90
       50
176
     1
 62
   256
176
     0
 40
1.0
176
     0
 90
        2
176
     1
  1
strokes_ogs.tif
176
     1
290
     0
176
     1
 40
1.0
176
     1
 40
1.0
176
     1
1001
ACAD
1000
AcDbSavedByObjectVersion
1070
     0
  0
VISUALSTYLE
  5
3B
102
{ACAD_REACTORS
330
29
102
}
330
29
100
AcDbVisualStyle
  2
Sketchy
 70
    24
177
     3
291
     0
 70
    58
 90
        1
176
     1
 90
        2
176
     1
 90
        2
176
     1
 90
        0
176
     1
 40
0.6
176
     1
 40
30.0
176
     1
 62
     7
420
 16777215
176
     1
 90
        2
176
     1
 90
        2
176
     1
 62
     7
176
     1
 62
     7
176
     1
 90
        1
176
     1
 90
        1
176
     1
 40
40.0
176
     1
 90
       11
176
     1
 62
     7
176
     1
 40
1.0
176
     1
 90
        1
176
     1
 90
        6
176
     1
 90
        2
176
     1
 62
     7
176
     1
 90
        6
176
     1
 90
        0
176
     1
 90
        0
176
     1
290
     0
176
     1
 90
        1
176
     1
 40
0.0
176
     1
 90
        0
176
     1
290
     0
176
     1
290
     1
176
     1
290
     1
176
     1
290
     0
176
     1
290
     0
176
     1
290
     0
176
     1
290
     0
176
     1
290
     0
176
     1
290
     0
176
     1
 90
       50
176
     1
 40
0.0
176
     1
 40
1.0
176
     1
 90
        0
176
     1
 62
    18
176
     1
 90
       50
176
     1
 90
        3
176
     1
 62
     5
420
      255
176
     1
290
     0
176
     1
 90
       50
176
     1
 90
       50
176
     1
 90
       50
176
     1
290
     0
176
     1
 90
       50
176
     1
 62
   256
176
     0
 40
1.0
176
     0
 90
        2
176
     1
  1
strokes_ogs.tif
176
     1
290
     0
176
     1
 40
1.0
176
     1
 40
1.0
176
     1
1001
ACAD
1000
AcDbSavedByObjectVersion
1070
     0
  0
VISUALSTYLE
  5
36
102
{ACAD_REACTORS
330
29
102
}
330
29
100
AcDbVisualStyle
  2
Thicken
 70
    13
177
     3
291
     1
 70
    58
 90
        2
176
     1
 90
        2
176
     1
 90
        0
176
     1
 90
        0
176
     1
 40
0.6
176
     1
 40
30.0
176
     1
 62
     7
420
 16777215
176
     1
 90
        1
176
     1
 90
        4
176
     1
 62
     7
176
     1
 62
   257
176
     1
 90
        1
176
     1
 90
        1
176
     1
 40
1.0
176
     1
 90
       12
176
     1
 62
     7
176
     1
 40
1.0
176
     1
 90
        1
176
     1
 90
        6
176
     1
 90
        2
176
     1
 62
     7
176
     1
 90
        5
176
     1
 90
        0
176
     1
 90
        0
176
     1
290
     0
176
     1
 90
        1
176
     1
 40
0.0
176
     1
 90
        0
176
     1
290
     0
176
     1
290
     1
176
     1
290
     1
176
     1
290
     0
176
     1
290
     0
176
     1
290
     0
176
     1
290
     0
176
     1
290
     0
176
     1
290
     0
176
     1
 90
       50
176
     1
 40
0.0
176
     1
 40
1.0
176
     1
 90
        0
176
     1
 62
    18
176
     1
 90
       50
176
     1
 90
        3
176
     1
 62
     5
420
      255
176
     1
290
     0
176
     1
 90
       50
176
     1
 90
       50
176
     1
 90
       50
176
     1
290
     0
176
     1
 90
       50
176
     1
 62
   256
176
     0
 40
1.0
176
     0
 90
        2
176
     1
  1
strokes_ogs.tif
176
     1
290
     0
176
     1
 40
1.0
176
     1
 40
1.0
176
     1
1001
ACAD
1000
AcDbSavedByObjectVersion
1070
     0
  0
VISUALSTYLE
  5
30
102
{ACAD_REACTORS
330
29
102
}
330
29
100
AcDbVisualStyle
  2
Wireframe
 70
     5
177
     3
291
     0
 70
    58
 90
        0
176
     1
 90
        2
176
     1
 90
        0
176
     1
 90
        0
176
     1
 40
0.6
176
     1
 40
30.0
176
     1
 62
     7
420
 16777215
176
     1
 90
        1
176
     1
 90
        4
176
     1
 62
     7
176
     1
 62
   257
176
     1
 90
        1
176
     1
 90
        1
176
     1
 40
1.0
176
     1
 90
        0
176
     1
 62
   257
176
     1
 40
1.0
176
     1
 90
        1
176
     1
 90
        6
176
     1
 90
        2
176
     1
 62
     7
176
     1
 90
        3
176
     1
 90
        0
176
     1
 90
        0
176
     1
290
     0
176
     1
 90
        1
176
     1
 40
0.0
176
     1
 90
        0
176
     1
290
     0
176
     1
290
     1
176
     1
290
     1
176
     1
290
     0
176
     1
290
     0
176
     1
290
     0
176
     1
290
     0
176
     1
290
     0
176
     1
290
     0
176
     1
 90
       50
176
     1
 40
0.0
176
     1
 40
1.0
176
     1
 90
        0
176
     1
 62
    18
176
     1
 90
       50
176
     1
 90
        3
176
     1
 62
     5
420
      255
176
     1
290
     0
176
     1
 90
       50
176
     1
 90
       50
176
     1
 90
       50
176
     1
290
     0
176
     1
 90
       50
176
     1
 62
   256
176
     0
 40
1.0
176
     0
 90
        2
176
     1
  1
strokes_ogs.tif
176
     1
290
     0
176
     1
 40
1.0
176
     1
 40
1.0
176
     1
1001
ACAD
1000
AcDbSavedByObjectVersion
1070
     0
  0
VISUALSTYLE
  5
3C
102
{ACAD_REACTORS
330
29
102
}
330
29
100
AcDbVisualStyle
  2
X-Ray
 70
    25
177
     3
291
     0
 70
    58
 90
        2
176
     1
 90
        2
176
     1
 90
        1
176
     1
 90
        1
176
     1
 40
0.5
176
     1
 40
30.0
176
     1
 62
     7
420
 16777215
176
     1
 90
        1
176
     1
 90
        0
176
     1
 62
     7
176
     1
 62
   257
176
     1
 90
        1
176
     1
 90
        1
176
     1
 40
1.0
176
     1
 90
        8
176
     1
 62
     7
176
     1
 40
1.0
176
     1
 90
        1
176
     1
 90
        6
176
     1
 90
        2
176
     1
 62
     7
176
     1
 90
        3
176
     1
 90
        0
176
     1
 90
        0
176
     1
290
     0
176
     1
 90
       13
176
     1
 40
0.0
176
     1
 90
        0
176
     1
290
     0
176
     1
290
     1
176
     1
290
     1
176
     1
290
     0
176
     1
290
     0
176
     1
290
     0
176
     1
290
     0
176
     1
290
     0
176
     1
290
     0
176
     1
 90
       50
176
     1
 40
0.0
176
     1
 40
1.0
176
     1
 90
        0
176
     1
 62
    18
176
     1
 90
       50
176
     1
 90
        3
176
     1
 62
     5
420
      255
176
     1
290
     0
176
     1
 90
       50
176
     1
 90
       50
176
     1
 90
       50
176
     1
290
     0
176
     1
 90
       50
176
     1
 62
   256
176
     0
 40
1.0
176
     0
 90
        2
176
     1
  1
strokes_ogs.tif
176
     1
290
     0
176
     1
 40
1.0
176
     1
 40
1.0
176
     1
1001
ACAD
1000
AcDbSavedByObjectVersion
1070
     0
  0
DICTIONARYVAR
  5
723
102
{ACAD_REACTORS
330
71E
102
}
330
71E
100
DictionaryVariables
280
     0
  1
0
  0
DICTIONARYVAR
  5
724
102
{ACAD_REACTORS
330
71E
102
}
330
71E
100
DictionaryVariables
280
     0
  1
1:1
  0
DICTIONARYVAR
  5
720
102
{ACAD_REACTORS
330
71E
102
}
330
71E
100
DictionaryVariables
280
     0
  1
STANDARD
  0
DICTIONARYVAR
  5
71F
102
{ACAD_REACTORS
330
71E
102
}
330
71E
100
DictionaryVariables
280
     0
  1
STANDARD
  0
DICTIONARYVAR
  5
721
102
{ACAD_REACTORS
330
71E
102
}
330
71E
100
DictionaryVariables
280
     0
  1
Imperial24
  0
DICTIONARYVAR
  5
722
102
{ACAD_REACTORS
330
71E
102
}
330
71E
100
DictionaryVariables
280
     0
  1
Imperial24
  0
DICTIONARY
  5
F9C
330
6B
100
AcDbDictionary
280
     1
281
     1
  3
ACAD_XREC_ROUNDTRIP
360
F9D
  0
DICTIONARY
  5
FA0
330
730
100
AcDbDictionary
280
     1
281
     1
  3
ACAD_XREC_ROUNDTRIP
360
FA1
  0
DICTIONARY
  5
1A
330
19
100
AcDbDictionary
280
     1
281
     1
  3
BUMPTILE
360
1C
  3
DIFFUSETILE
360
1B
  3
OPACITYTILE
360
1F
  3
REFLECTIONTILE
360
1E
  3
REFRACTIONTILE
360
20
  3
SPECULARTILE
360
1D
  0
DICTIONARY
  5
12
330
11
100
AcDbDictionary
280
     1
281
     1
  3
BUMPTILE
360
14
  3
DIFFUSETILE
360
13
  3
OPACITYTILE
360
17
  3
REFLECTIONTILE
360
16
  3
REFRACTIONTILE
360
18
  3
SPECULARTILE
360
15
  0
DICTIONARY
  5
22
330
21
100
AcDbDictionary
280
     1
281
     1
  3
BUMPTILE
360
24
  3
DIFFUSETILE
360
23
  3
OPACITYTILE
360
27
  3
REFLECTIONTILE
360
26
  3
REFRACTIONTILE
360
28
  3
SPECULARTILE
360
25
  0
DICTIONARY
  5
F9A
330
69
100
AcDbDictionary
280
     1
281
     1
  3
ACAD_XREC_ROUNDTRIP
360
F9B
  0
DICTIONARY
  5
F9E
330
72F
100
AcDbDictionary
280
     1
281
     1
  3
ACAD_XREC_ROUNDTRIP
360
F9F
  0
DICTIONARY
  5
725
330
65
100
AcDbDictionary
280
     1
281
     1
  3
ACAD_ROUNDTRIP_2008_TABLESTYLE_CELLSTYLEMAP
360
F98
  0
XRECORD
  5
F9D
102
{ACAD_REACTORS
330
F9C
102
}
330
F9C
100
AcDbXrecord
280
     1
102
DISPLAYNAME
  1
Imperial24
102
FLAGS
 90
        0
  0
XRECORD
  5
FA1
102
{ACAD_REACTORS
330
FA0
102
}
330
FA0
100
AcDbXrecord
280
     1
102
DISPLAYNAME
  1
Metric50
102
FLAGS
 90
        0
  0
XRECORD
  5
1C
102
{ACAD_REACTORS
330
1A
102
}
330
1A
100
AcDbXrecord
280
     1
270
     1
271
     1
  0
XRECORD
  5
1B
102
{ACAD_REACTORS
330
1A
102
}
330
1A
100
AcDbXrecord
280
     1
270
     1
271
     1
  0
XRECORD
  5
1F
102
{ACAD_REACTORS
330
1A
102
}
330
1A
100
AcDbXrecord
280
     1
270
     1
271
     1
  0
XRECORD
  5
1E
102
{ACAD_REACTORS
330
1A
102
}
330
1A
100
AcDbXrecord
280
     1
270
     1
271
     1
  0
XRECORD
  5
20
102
{ACAD_REACTORS
330
1A
102
}
330
1A
100
AcDbXrecord
280
     1
270
     1
271
     1
  0
XRECORD
  5
1D
102
{ACAD_REACTORS
330
1A
102
}
330
1A
100
AcDbXrecord
280
     1
270
     1
271
     1
  0
XRECORD
  5
14
102
{ACAD_REACTORS
330
12
102
}
330
12
100
AcDbXrecord
280
     1
270
     1
271
     1
  0
XRECORD
  5
13
102
{ACAD_REACTORS
330
12
102
}
330
12
100
AcDbXrecord
280
     1
270
     1
271
     1
  0
XRECORD
  5
17
102
{ACAD_REACTORS
330
12
102
}
330
12
100
AcDbXrecord
280
     1
270
     1
271
     1
  0
XRECORD
  5
16
102
{ACAD_REACTORS
330
12
102
}
330
12
100
AcDbXrecord
280
     1
270
     1
271
     1
  0
XRECORD
  5
18
102
{ACAD_REACTORS
330
12
102
}
330
12
100
AcDbXrecord
280
     1
270
     1
271
     1
  0
XRECORD
  5
15
102
{ACAD_REACTORS
330
12
102
}
330
12
100
AcDbXrecord
280
     1
270
     1
271
     1
  0
XRECORD
  5
24
102
{ACAD_REACTORS
330
22
102
}
330
22
100
AcDbXrecord
280
     1
270
     1
271
     1
  0
XRECORD
  5
23
102
{ACAD_REACTORS
330
22
102
}
330
22
100
AcDbXrecord
280
     1
270
     1
271
     1
  0
XRECORD
  5
27
102
{ACAD_REACTORS
330
22
102
}
330
22
100
AcDbXrecord
280
     1
270
     1
271
     1
  0
XRECORD
  5
26
102
{ACAD_REACTORS
330
22
102
}
330
22
100
AcDbXrecord
280
     1
270
     1
271
     1
  0
XRECORD
  5
28
102
{ACAD_REACTORS
330
22
102
}
330
22
100
AcDbXrecord
280
     1
270
     1
271
     1
  0
XRECORD
  5
25
102
{ACAD_REACTORS
330
22
102
}
330
22
100
AcDbXrecord
280
     1
270
     1
271
     1
  0
XRECORD
  5
F9B
102
{ACAD_REACTORS
330
F9A
102
}
330
F9A
100
AcDbXrecord
280
     1
102
DISPLAYNAME
  1
Imperial24
102
FLAGS
 90
        0
  0
XRECORD
  5
F9F
102
{ACAD_REACTORS
330
F9E
102
}
330
F9E
100
AcDbXrecord
280
     1
102
DISPLAYNAME
  1
Metric50
102
FLAGS
 90
        0
  0
CELLSTYLEMAP
  5
F98
102
{ACAD_REACTORS
330
725
102
}
330
725
100
AcDbCellStyleMap
 90
        3
300
CELLSTYLE
  1
TABLEFORMAT_BEGIN
 90
        5
170
     1
 91
        0
 92
    32768
 62
   257
 93
        1
300
CONTENTFORMAT
  1
CONTENTFORMAT_BEGIN
 90
        0
 91
        0
 92
      512
 93
        0
300

 40
0.0
140
1.0
 94
        5
 62
     0
340
55
144
0.25
309
CONTENTFORMAT_END
171
     1
301
MARGIN
  1
CELLMARGIN_BEGIN
 40
1.5
 40
1.5
 40
1.5
 40
1.5
 40
0.18
 40
0.18
309
CELLMARGIN_END
 94
        6
 95
        1
302
GRIDFORMAT
  1
GRIDFORMAT_BEGIN
 90
        0
 91
        1
 62
     0
 92
       -2
340
0
 93
        0
 40
0.045
309
GRIDFORMAT_END
 95
        2
302
GRIDFORMAT
  1
GRIDFORMAT_BEGIN
 90
        0
 91
        1
 62
     0
 92
       -2
340
0
 93
        0
 40
0.045
309
GRIDFORMAT_END
 95
        4
302
GRIDFORMAT
  1
GRIDFORMAT_BEGIN
 90
        0
 91
        1
 62
     0
 92
       -2
340
0
 93
        0
 40
0.045
309
GRIDFORMAT_END
 95
        8
302
GRIDFORMAT
  1
GRIDFORMAT_BEGIN
 90
        0
 91
        1
 62
     0
 92
       -2
340
0
 93
        0
 40
0.045
309
GRIDFORMAT_END
 95
       16
302
GRIDFORMAT
  1
GRIDFORMAT_BEGIN
 90
        0
 91
        1
 62
     0
 92
       -2
340
0
 93
        0
 40
0.045
309
GRIDFORMAT_END
 95
       32
302
GRIDFORMAT
  1
GRIDFORMAT_BEGIN
 90
        0
 91
        1
 62
     0
 92
       -2
340
0
 93
        0
 40
0.045
309
GRIDFORMAT_END
309
TABLEFORMAT_END
  1
CELLSTYLE_BEGIN
 90
        1
 91
        1
300
_TITLE
309
CELLSTYLE_END
300
CELLSTYLE
  1
TABLEFORMAT_BEGIN
 90
        5
170
     1
 91
        0
 92
        0
 62
   257
 93
        1
300
CONTENTFORMAT
  1
CONTENTFORMAT_BEGIN
 90
        0
 91
        0
 92
      512
 93
        0
300

 40
0.0
140
1.0
 94
        5
 62
     0
340
55
144
0.18
309
CONTENTFORMAT_END
171
     1
301
MARGIN
  1
CELLMARGIN_BEGIN
 40
1.5
 40
1.5
 40
1.5
 40
1.5
 40
0.18
 40
0.18
309
CELLMARGIN_END
 94
        6
 95
        1
302
GRIDFORMAT
  1
GRIDFORMAT_BEGIN
 90
        0
 91
        1
 62
     0
 92
       -2
340
0
 93
        0
 40
0.045
309
GRIDFORMAT_END
 95
        2
302
GRIDFORMAT
  1
GRIDFORMAT_BEGIN
 90
        0
 91
        1
 62
     0
 92
       -2
340
0
 93
        0
 40
0.045
309
GRIDFORMAT_END
 95
        4
302
GRIDFORMAT
  1
GRIDFORMAT_BEGIN
 90
        0
 91
        1
 62
     0
 92
       -2
340
0
 93
        0
 40
0.045
309
GRIDFORMAT_END
 95
        8
302
GRIDFORMAT
  1
GRIDFORMAT_BEGIN
 90
        0
 91
        1
 62
     0
 92
       -2
340
0
 93
        0
 40
0.045
309
GRIDFORMAT_END
 95
       16
302
GRIDFORMAT
  1
GRIDFORMAT_BEGIN
 90
        0
 91
        1
 62
     0
 92
       -2
340
0
 93
        0
 40
0.045
309
GRIDFORMAT_END
 95
       32
302
GRIDFORMAT
  1
GRIDFORMAT_BEGIN
 90
        0
 91
        1
 62
     0
 92
       -2
340
0
 93
        0
 40
0.045
309
GRIDFORMAT_END
309
TABLEFORMAT_END
  1
CELLSTYLE_BEGIN
 90
        2
 91
        1
300
_HEADER
309
CELLSTYLE_END
300
CELLSTYLE
  1
TABLEFORMAT_BEGIN
 90
        5
170
     1
 91
        0
 92
        0
 62
   257
 93
        1
300
CONTENTFORMAT
  1
CONTENTFORMAT_BEGIN
 90
        0
 91
        0
 92
      512
 93
        0
300

 40
0.0
140
1.0
 94
        2
 62
     0
340
55
144
0.18
309
CONTENTFORMAT_END
171
     1
301
MARGIN
  1
CELLMARGIN_BEGIN
 40
1.5
 40
1.5
 40
1.5
 40
1.5
 40
0.18
 40
0.18
309
CELLMARGIN_END
 94
        6
 95
        1
302
GRIDFORMAT
  1
GRIDFORMAT_BEGIN
 90
        0
 91
        1
 62
     0
 92
       -2
340
0
 93
        0
 40
0.045
309
GRIDFORMAT_END
 95
        2
302
GRIDFORMAT
  1
GRIDFORMAT_BEGIN
 90
        0
 91
        1
 62
     0
 92
       -2
340
0
 93
        0
 40
0.045
309
GRIDFORMAT_END
 95
        4
302
GRIDFORMAT
  1
GRIDFORMAT_BEGIN
 90
        0
 91
        1
 62
     0
 92
       -2
340
0
 93
        0
 40
0.045
309
GRIDFORMAT_END
 95
        8
302
GRIDFORMAT
  1
GRIDFORMAT_BEGIN
 90
        0
 91
        1
 62
     0
 92
       -2
340
0
 93
        0
 40
0.045
309
GRIDFORMAT_END
 95
       16
302
GRIDFORMAT
  1
GRIDFORMAT_BEGIN
 90
        0
 91
        1
 62
     0
 92
       -2
340
0
 93
        0
 40
0.045
309
GRIDFORMAT_END
 95
       32
302
GRIDFORMAT
  1
GRIDFORMAT_BEGIN
 90
        0
 91
        1
 62
     0
 92
       -2
340
0
 93
        0
 40
0.045
309
GRIDFORMAT_END
309
TABLEFORMAT_END
  1
CELLSTYLE_BEGIN
 90
        3
 91
        2
300
_DATA
309
CELLSTYLE_END
  0
ENDSEC
  0
EOF
