0
SECTION
2
HEADER
9
$INSUNITS
70
4
9
$ACADVER
1
AC1014
9
$HANDSEED
5
FFFF
0
ENDSEC
0
SECTION
2
TABLES
0
TABLE
2
VPORT
5
8
100
AcDbSymbolTable
0
ENDTAB
0
TABLE
2
LTYPE
5
5
100
AcDbSymbolTable
70
2
0
LTYPE
5
14
100
AcDbSymbolTableRecord
100
AcDbLinetypeTableRecord
2
BYBLOCK
70
0
0
LTYPE
5
15
100
AcDbSymbolTableRecord
100
AcDbLinetypeTableRecord
2
BYLAYER
70
0
0
ENDTAB
0
TABLE
2
LAYER
5
2
100
AcDbSymbolTable
70
3
0
LAYER
5
50
100
AcDbSymbolTableRecord
100
AcDbLayerTableRecord
2
0
70
0
6
CONTINUOUS
0
LAYER
5
51
100
AcDbSymbolTableRecord
100
AcDbLayerTableRecord
2
CUTOUTS
70
0
62
1
6
CONTINUOUS
0
LAYER
5
52
100
AcDbSymbolTableRecord
100
AcDbLayerTableRecord
2
PERIMETER
70
0
62
5
6
CONTINUOUS
0
ENDTAB
0
TABLE
2
STYLE
5
3
100
AcDbSymbolTable
70
1
0
STYLE
5
11
100
AcDbSymbolTableRecord
100
AcDbTextStyleTableRecord
2
STANDARD
70
0
0
ENDTAB
0
TABLE
2
VIEW
5
6
100
AcDbSymbolTable
0
ENDTAB
0
TABLE
2
UCS
5
7
100
AcDbSymbolTable
0
ENDTAB
0
TABLE
2
APPID
5
9
100
AcDbSymbolTable
70
1
0
APPID
5
12
100
AcDbSymbolTableRecord
100
AcDbRegAppTableRecord
2
ACAD
70
0
0
ENDTAB
0
TABLE
2
DIMSTYLE
5
A
100
AcDbSymbolTable
0
ENDTAB
0
TABLE
2
BLOCK_RECORD
5
1
100
AcDbSymbolTable
70
2
0
BLOCK_RECORD
5
1F
100
AcDbSymbolTableRecord
100
AcDbBlockTableRecord
2
*MODEL_SPACE
0
BLOCK_RECORD
5
1B
100
AcDbSymbolTableRecord
100
AcDbBlockTableRecord
2
*PAPER_SPACE
0
ENDTAB
0
ENDSEC
0
SECTION
2
BLOCKS
0
BLOCK
5
20
100
AcDbEntity
100
AcDbBlockBegin
2
*MODEL_SPACE
0
ENDBLK
5
21
100
AcDbEntity
100
AcDbBlockEnd
0
BLOCK
5
1C
100
AcDbEntity
100
AcDbBlockBegin
2
*PAPER_SPACE
0
ENDBLK
5
1D
100
AcDbEntity
100
AcDbBlockEnd
0
ENDSEC
0
SECTION
2
ENTITIES
0
CIRCLE
5
100
100
AcDbEntity
8
CUTOUTS
100
AcDbCircle
10
139.69554364227571
20
-33.132459610156531
30
-3.219646771412954e-14
40
1.4999999999999858
210
0
220
0
230
1
0
CIRCLE
5
101
100
AcDbEntity
8
CUTOUTS
100
AcDbCircle
10
139.69554364227571
20
-27.382459610156573
30
-2.6645352591003757e-14
40
1.4999999999999858
210
0
220
0
230
1
0
CIRCLE
5
102
100
AcDbEntity
8
CUTOUTS
100
AcDbCircle
10
139.69554364227571
20
-38.882459610156559
30
-3.6637359812630166e-14
40
1.4999999999999858
210
0
220
0
230
1
0
LINE
5
103
100
AcDbEntity
8
CUTOUTS
100
AcDbLine
10
-39.520456357724036
20
-0.052659141230364526
30
0
11
-37.570456357724034
21
-13.91725914123036
31
0
0
LINE
5
104
100
AcDbEntity
8
CUTOUTS
100
AcDbLine
10
-37.570456357724034
20
-13.91725914123036
30
0
11
-51.434456357724017
21
-15.865959141230341
31
0
0
LINE
5
105
100
AcDbEntity
8
CUTOUTS
100
AcDbLine
10
-51.434456357724017
20
-15.865959141230341
30
0
11
-53.383456357723986
21
-2.0014591412303773
31
0
0
LINE
5
106
100
AcDbEntity
8
CUTOUTS
100
AcDbLine
10
-53.383456357723986
20
-2.0014591412303773
30
0
11
-39.520456357724036
21
-0.052659141230364526
31
0
0
LINE
5
107
100
AcDbEntity
8
CUTOUTS
100
AcDbLine
10
-13.873456357724017
20
22.78814085876963
30
0
11
-11.926456357724007
21
8.9251408587696446
31
0
0
LINE
5
108
100
AcDbEntity
8
CUTOUTS
100
AcDbLine
10
-11.926456357724007
20
8.9251408587696446
30
0
11
-25.789456357724028
21
6.9749408587696493
31
0
0
LINE
5
109
100
AcDbEntity
8
CUTOUTS
100
AcDbLine
10
-25.789456357724028
20
6.9749408587696493
30
0
11
-27.737456357724
21
20.839640858769641
31
0
0
LINE
5
10A
100
AcDbEntity
8
CUTOUTS
100
AcDbLine
10
-27.737456357724
20
20.839640858769641
30
0
11
-13.873456357724017
21
22.78814085876963
31
0
0
LINE
5
10B
100
AcDbEntity
8
CUTOUTS
100
AcDbLine
10
79.757543642276048
20
-21.169549141230277
30
0
11
65.893543642275958
21
-19.221149141230285
31
0
0
LINE
5
10C
100
AcDbEntity
8
CUTOUTS
100
AcDbLine
10
65.893543642275958
20
-19.221149141230285
30
0
11
67.842543642276141
21
-5.356549141230289
31
0
0
LINE
5
10D
100
AcDbEntity
8
CUTOUTS
100
AcDbLine
10
67.842543642276141
20
-5.356549141230289
30
0
11
81.704543642276022
21
-7.3053491412302662
31
0
0
LINE
5
10E
100
AcDbEntity
8
CUTOUTS
100
AcDbLine
10
81.704543642276022
20
-7.3053491412302662
30
0
11
79.757543642276048
21
-21.169549141230277
31
0
0
LINE
5
10F
100
AcDbEntity
8
CUTOUTS
100
AcDbLine
10
126.96754364227608
20
-20.820949141230258
30
0
11
112.96554364227624
21
-20.820949141230258
31
0
0
LINE
5
110
100
AcDbEntity
8
CUTOUTS
100
AcDbLine
10
112.96554364227624
20
-20.820949141230258
30
0
11
112.96554364227624
21
-6.818849141230281
31
0
0
LINE
5
111
100
AcDbEntity
8
CUTOUTS
100
AcDbLine
10
112.96554364227624
20
-6.818849141230281
30
0
11
126.96754364227608
21
-6.818849141230281
31
0
0
LINE
5
112
100
AcDbEntity
8
CUTOUTS
100
AcDbLine
10
126.96754364227608
20
-6.818849141230281
30
0
11
126.96754364227608
21
-20.820949141230258
31
0
0
LINE
5
113
100
AcDbEntity
8
CUTOUTS
100
AcDbLine
10
94.487543642276037
20
17.660750858769667
30
0
11
94.487543642276037
21
31.660150858769676
31
0
0
LINE
5
114
100
AcDbEntity
8
CUTOUTS
100
AcDbLine
10
94.487543642276037
20
31.660150858769676
30
0
11
108.48954364227602
21
31.660150858769676
31
0
0
LINE
5
115
100
AcDbEntity
8
CUTOUTS
100
AcDbLine
10
108.48954364227602
20
31.660150858769676
30
0
11
108.48954364227602
21
17.660750858769667
31
0
0
LINE
5
116
100
AcDbEntity
8
CUTOUTS
100
AcDbLine
10
108.48954364227602
20
17.660750858769667
30
0
11
94.487543642276037
21
17.660750858769667
31
0
0
LINE
5
117
100
AcDbEntity
8
CUTOUTS
100
AcDbLine
10
7.5274675762599941
20
27.45611171687365
30
0
11
9.4755426506004881
21
41.320741706697781
31
0
0
LINE
5
118
100
AcDbEntity
8
CUTOUTS
100
AcDbLine
10
9.4755426506004881
20
41.320741706697781
30
0
11
42.204195077690017
21
36.71976859693558
31
0
0
LINE
5
119
100
AcDbEntity
8
CUTOUTS
100
AcDbLine
10
42.204195077690017
20
36.71976859693558
30
0
11
40.255544633952098
21
22.856760010841555
31
0
0
LINE
5
11A
100
AcDbEntity
8
CUTOUTS
100
AcDbLine
10
40.255544633952098
20
22.856760010841555
30
0
11
38.758112321267859
21
23.067532318760868
31
0
0
ARC
5
11B
100
AcDbEntity
8
CUTOUTS
100
AcDbCircle
10
38.536843621920056
20
21.495528370709671
30
0
40
1.58749999999988
210
0
220
-0
230
1
100
AcDbArc
50
81.987921385342247
51
128.00972811589915
0
ARC
5
11C
100
AcDbEntity
8
CUTOUTS
100
AcDbCircle
10
36.581693668413848
20
23.997130589149904
30
0
40
1.5875000000002064
210
0
220
0
230
1
100
AcDbArc
50
262.01498716293213
51
308.00972811589043
0
LINE
5
11D
100
AcDbEntity
8
CUTOUTS
100
AcDbLine
10
36.361167587850929
20
22.425022292055772
30
0
11
34.363831492278507
21
22.70519682045034
31
0
0
ARC
5
11E
100
AcDbEntity
8
CUTOUTS
100
AcDbCircle
10
34.584357572841498
20
24.277305117544259
30
0
40
1.5874999999999884
210
0
220
0
230
1
100
AcDbArc
50
215.98990798864898
51
262.01498716292872
0
ARC
5
11F
100
AcDbEntity
8
CUTOUTS
100
AcDbCircle
10
32.015399942069322
20
22.41153940575245
30
0
40
1.5875000000001036
210
0
220
-0
230
1
100
AcDbArc
50
35.98990798864596
51
81.998674381024443
0
LINE
5
120
100
AcDbEntity
8
CUTOUTS
100
AcDbLine
10
32.236373611399607
20
23.983584852761801
30
0
11
15.544871219842413
21
26.329816341877894
31
0
0
ARC
5
121
100
AcDbEntity
8
CUTOUTS
100
AcDbCircle
10
15.323897550512235
20
24.757770894868614
30
0
40
1.5874999999999531
210
0
220
-0
230
1
100
AcDbArc
50
81.998674381028081
51
128.01467737232718
0
ARC
5
122
100
AcDbEntity
8
CUTOUTS
100
AcDbCircle
10
13.368531513849113
20
27.259204216519137
30
0
40
1.5874999999999329
210
0
220
0
230
1
100
AcDbArc
50
262.01811033477827
51
308.01467737232724
0
LINE
5
123
100
AcDbEntity
8
CUTOUTS
100
AcDbLine
10
13.148091128658272
20
25.687083900965426
30
0
11
11.153031274456175
21
25.966828242659865
31
0
0
ARC
5
124
100
AcDbEntity
8
CUTOUTS
100
AcDbCircle
10
11.373471659647159
20
27.538948558213967
30
0
40
1.5875000000003325
210
0
220
0
230
1
100
AcDbArc
50
215.9715293861625
51
262.01811033477514
0
ARC
5
125
100
AcDbEntity
8
CUTOUTS
100
AcDbCircle
10
8.803915684743302
20
25.674006979547954
30
0
40
1.587499999999886
210
0
220
-0
230
1
100
AcDbArc
50
35.971529386159951
51
82.014621969223285
0
LINE
5
126
100
AcDbEntity
8
CUTOUTS
100
AcDbLine
10
9.0244517856568507
20
27.246113871013478
30
0
11
7.5274675762599941
21
27.45611171687365
31
0
0
LINE
5
127
100
AcDbEntity
8
CUTOUTS
100
AcDbLine
10
11.248543642276019
20
2.5960508587697362
30
0
11
25.111543642276075
21
0.6487508587697377
31
0
0
LINE
5
128
100
AcDbEntity
8
CUTOUTS
100
AcDbLine
10
25.111543642276075
20
0.6487508587697377
30
0
11
23.163543642275997
21
-13.215749141230262
31
0
0
LINE
5
129
100
AcDbEntity
8
CUTOUTS
100
AcDbLine
10
23.163543642275997
20
-13.215749141230262
30
0
11
9.2985436422759804
21
-11.267049141230281
31
0
0
LINE
5
12A
100
AcDbEntity
8
CUTOUTS
100
AcDbLine
10
9.2985436422759804
20
-11.267049141230281
30
0
11
11.248543642276019
21
2.5960508587697362
31
0
0
LINE
5
12B
100
AcDbEntity
8
CUTOUTS
100
AcDbLine
10
54.111543642276061
20
1.6728508587697277
30
0
11
40.248543642276005
21
3.619850858769702
31
0
0
LINE
5
12C
100
AcDbEntity
8
CUTOUTS
100
AcDbLine
10
40.248543642276005
20
3.619850858769702
30
0
11
42.196543642276012
21
17.484350858769666
31
0
0
LINE
5
12D
100
AcDbEntity
8
CUTOUTS
100
AcDbLine
10
42.196543642276012
20
17.484350858769666
30
0
11
56.059543642276068
21
15.535650858769685
31
0
0
LINE
5
12E
100
AcDbEntity
8
CUTOUTS
100
AcDbLine
10
56.059543642276068
20
15.535650858769685
30
0
11
54.111543642276061
21
1.6728508587697277
31
0
0
LINE
5
12F
100
AcDbEntity
8
CUTOUTS
100
AcDbLine
10
47.029543642276082
20
-16.5696491412303
30
0
11
48.977543642275947
21
-2.7054491412302895
31
0
0
LINE
5
130
100
AcDbEntity
8
CUTOUTS
100
AcDbLine
10
48.977543642275947
20
-2.7054491412302895
30
0
11
62.841543642276179
21
-4.6552491412302643
31
0
0
LINE
5
131
100
AcDbEntity
8
CUTOUTS
100
AcDbLine
10
62.841543642276179
20
-4.6552491412302643
30
0
11
60.892543642276067
21
-18.518349141230281
31
0
0
LINE
5
132
100
AcDbEntity
8
CUTOUTS
100
AcDbLine
10
60.892543642276067
20
-18.518349141230281
30
0
11
47.029543642276082
21
-16.5696491412303
31
0
0
LINE
5
133
100
AcDbEntity
8
CUTOUTS
100
AcDbLine
10
134.39754364227588
20
12.421250858769639
30
0
11
134.39754364227576
21
-1.5794491412302847
31
0
0
LINE
5
134
100
AcDbEntity
8
CUTOUTS
100
AcDbLine
10
134.39754364227576
20
-1.5794491412302847
30
0
11
120.39554364227605
21
-1.5794491412302847
31
0
0
LINE
5
135
100
AcDbEntity
8
CUTOUTS
100
AcDbLine
10
120.39554364227605
20
-1.5794491412302847
30
0
11
120.39554364227605
21
12.421250858769639
31
0
0
LINE
5
136
100
AcDbEntity
8
CUTOUTS
100
AcDbLine
10
120.39554364227605
20
12.421250858769639
30
0
11
134.39754364227588
21
12.421250858769639
31
0
0
LINE
5
137
100
AcDbEntity
8
CUTOUTS
100
AcDbLine
10
98.392543642276067
20
-40.061149141230388
30
0
11
98.392543642276067
21
-26.060449141230251
31
0
0
LINE
5
138
100
AcDbEntity
8
CUTOUTS
100
AcDbLine
10
98.392543642276067
20
-26.060449141230251
30
0
11
112.39254364227612
21
-26.060449141230251
31
0
0
LINE
5
139
100
AcDbEntity
8
CUTOUTS
100
AcDbLine
10
112.39254364227612
20
-26.060449141230251
30
0
11
112.39254364227612
21
-40.061149141230388
31
0
0
LINE
5
13A
100
AcDbEntity
8
CUTOUTS
100
AcDbLine
10
112.39254364227612
20
-40.061149141230388
30
0
11
98.392543642276067
21
-40.061149141230388
31
0
0
LINE
5
13B
100
AcDbEntity
8
CUTOUTS
100
AcDbLine
10
34.660543642276025
20
-34.068149141230322
30
0
11
20.797543642275969
21
-32.119749141230329
31
0
0
LINE
5
13C
100
AcDbEntity
8
CUTOUTS
100
AcDbLine
10
20.797543642275969
20
-32.119749141230329
30
0
11
22.745543642275976
21
-18.256649141230277
31
0
0
LINE
5
13D
100
AcDbEntity
8
CUTOUTS
100
AcDbLine
10
22.745543642275976
20
-18.256649141230277
30
0
11
36.608543642275961
21
-20.205049141230269
31
0
0
LINE
5
13E
100
AcDbEntity
8
CUTOUTS
100
AcDbLine
10
36.608543642275961
20
-20.205049141230269
30
0
11
34.660543642276025
21
-34.068149141230322
31
0
0
LINE
5
13F
100
AcDbEntity
8
CUTOUTS
100
AcDbLine
10
1.9315436422758836
20
-29.468249141230345
30
0
11
3.8805436422757822
21
-15.605149141230292
31
0
0
LINE
5
140
100
AcDbEntity
8
CUTOUTS
100
AcDbLine
10
3.8805436422757822
20
-15.605149141230292
30
0
11
17.744543642275978
21
-17.553549141230178
31
0
0
LINE
5
141
100
AcDbEntity
8
CUTOUTS
100
AcDbLine
10
17.744543642275978
20
-17.553549141230178
30
0
11
15.796543642275971
21
-31.418049141230355
31
0
0
LINE
5
142
100
AcDbEntity
8
CUTOUTS
100
AcDbLine
10
15.796543642275971
20
-31.418049141230355
30
0
11
1.9315436422758836
21
-29.468249141230345
31
0
0
LINE
5
143
100
AcDbEntity
8
CUTOUTS
100
AcDbLine
10
41.601707205628102
20
-20.904250081195812
30
0
11
55.46562202435382
21
-22.84502626332511
31
0
0
LINE
5
144
100
AcDbEntity
8
CUTOUTS
100
AcDbLine
10
55.46562202435382
20
-22.84502626332511
30
0
11
53.525146595113782
21
-36.710540940700689
31
0
0
LINE
5
145
100
AcDbEntity
8
CUTOUTS
100
AcDbLine
10
53.525146595113782
20
-36.710540940700689
30
0
11
39.66023172944098
21
-34.769665229158981
31
0
0
LINE
5
146
100
AcDbEntity
8
CUTOUTS
100
AcDbLine
10
39.66023172944098
20
-34.769665229158981
30
0
11
41.601707205628102
21
-20.904250081195812
31
0
0
LINE
5
147
100
AcDbEntity
8
CUTOUTS
100
AcDbLine
10
93.344543642276037
20
-26.059049141230268
30
0
11
93.344543642276037
21
-40.061149141230388
31
0
0
LINE
5
148
100
AcDbEntity
8
CUTOUTS
100
AcDbLine
10
93.344543642276037
20
-40.061149141230388
30
0
11
79.342543642276055
21
-40.061149141230388
31
0
0
LINE
5
149
100
AcDbEntity
8
CUTOUTS
100
AcDbLine
10
79.342543642276055
20
-40.061149141230388
30
0
11
79.342543642276055
21
-26.059049141230268
31
0
0
LINE
5
14A
100
AcDbEntity
8
CUTOUTS
100
AcDbLine
10
79.342543642276055
20
-26.059049141230268
30
0
11
93.344543642276037
21
-26.059049141230268
31
0
0
LINE
5
14B
100
AcDbEntity
8
CUTOUTS
100
AcDbLine
10
100.77354364227624
20
-20.820949141230258
30
0
11
86.772543642276077
21
-20.820949141230258
31
0
0
LINE
5
14C
100
AcDbEntity
8
CUTOUTS
100
AcDbLine
10
86.772543642276077
20
-20.820949141230258
30
0
11
86.772543642276077
21
-6.818849141230281
31
0
0
LINE
5
14D
100
AcDbEntity
8
CUTOUTS
100
AcDbLine
10
86.772543642276077
20
-6.818849141230281
30
0
11
100.77354364227624
21
-6.818849141230281
31
0
0
LINE
5
14E
100
AcDbEntity
8
CUTOUTS
100
AcDbLine
10
100.77354364227624
20
-6.818849141230281
30
0
11
100.77354364227624
21
-20.820949141230258
31
0
0
LINE
5
14F
100
AcDbEntity
8
CUTOUTS
100
AcDbLine
10
98.964543642276084
20
12.421250858769639
30
0
11
112.96554364227624
21
12.421250858769639
31
0
0
LINE
5
150
100
AcDbEntity
8
CUTOUTS
100
AcDbLine
10
112.96554364227624
20
12.421250858769639
30
0
11
112.96554364227624
21
-1.5794491412302847
31
0
0
LINE
5
151
100
AcDbEntity
8
CUTOUTS
100
AcDbLine
10
112.96554364227624
20
-1.5794491412302847
30
0
11
98.964543642276084
21
-1.5794491412303202
31
0
0
LINE
5
152
100
AcDbEntity
8
CUTOUTS
100
AcDbLine
10
98.964543642276084
20
-1.5794491412303202
30
0
11
98.964543642276084
21
12.421250858769639
31
0
0
LINE
5
153
100
AcDbEntity
8
CUTOUTS
100
AcDbLine
10
61.060543642276102
20
14.832850858769682
30
0
11
74.923543642276087
21
12.884450858769689
31
0
0
LINE
5
154
100
AcDbEntity
8
CUTOUTS
100
AcDbLine
10
74.923543642276087
20
12.884450858769689
30
0
11
72.976543642276042
21
-0.97864914123029223
31
0
0
LINE
5
155
100
AcDbEntity
8
CUTOUTS
100
AcDbLine
10
72.976543642276042
20
-0.97864914123029223
30
0
11
59.111543642276061
21
0.96975085876973566
31
0
0
LINE
5
156
100
AcDbEntity
8
CUTOUTS
100
AcDbLine
10
59.111543642276061
20
0.96975085876973566
30
0
11
61.060543642276102
21
14.832850858769682
31
0
0
LINE
5
157
100
AcDbEntity
8
CUTOUTS
100
AcDbLine
10
16.381543642275993
20
6.9740508587696937
30
0
11
2.5185436422759722
21
8.9238508587697041
31
0
0
LINE
5
158
100
AcDbEntity
8
CUTOUTS
100
AcDbLine
10
2.5185436422759722
20
8.9238508587697041
30
0
11
4.4675436422760129
21
22.786950858769686
31
0
0
LINE
5
159
100
AcDbEntity
8
CUTOUTS
100
AcDbLine
10
4.4675436422760129
20
22.786950858769686
30
0
11
18.331543642275996
21
20.838450858769662
31
0
0
LINE
5
15A
100
AcDbEntity
8
CUTOUTS
100
AcDbLine
10
18.331543642275996
20
20.838450858769662
30
0
11
16.381543642275993
21
6.9740508587696937
31
0
0
LINE
5
15B
100
AcDbEntity
8
CUTOUTS
100
AcDbLine
10
51.921543642276191
20
35.354650858769681
30
0
11
65.785543642276068
21
33.406150858769657
31
0
0
LINE
5
15C
100
AcDbEntity
8
CUTOUTS
100
AcDbLine
10
65.785543642276068
20
33.406150858769657
30
0
11
63.83754364227606
21
19.541750858769689
31
0
0
LINE
5
15D
100
AcDbEntity
8
CUTOUTS
100
AcDbLine
10
63.83754364227606
20
19.541750858769689
30
0
11
49.972543642276079
21
21.49165085876966
31
0
0
LINE
5
15E
100
AcDbEntity
8
CUTOUTS
100
AcDbLine
10
49.972543642276079
20
21.49165085876966
30
0
11
51.921543642276191
21
35.354650858769681
31
0
0
LINE
5
15F
100
AcDbEntity
8
CUTOUTS
100
AcDbLine
10
118.29954364227596
20
17.660750858769667
30
0
11
118.29954364227596
21
31.660150858769676
31
0
0
LINE
5
160
100
AcDbEntity
8
CUTOUTS
100
AcDbLine
10
118.29954364227596
20
31.660150858769676
30
0
11
132.298543642276
21
31.660150858769676
31
0
0
LINE
5
161
100
AcDbEntity
8
CUTOUTS
100
AcDbLine
10
132.298543642276
20
31.660150858769676
30
0
11
132.298543642276
21
17.660750858769667
31
0
0
LINE
5
162
100
AcDbEntity
8
CUTOUTS
100
AcDbLine
10
132.298543642276
20
17.660750858769667
30
0
11
118.29954364227596
21
17.660750858769667
31
0
0
LINE
5
163
100
AcDbEntity
8
CUTOUTS
100
AcDbLine
10
35.247543642275971
20
4.3225508587697092
30
0
11
21.382543642275884
21
6.2727508587697045
31
0
0
LINE
5
164
100
AcDbEntity
8
CUTOUTS
100
AcDbLine
10
21.382543642275884
20
6.2727508587697045
30
0
11
23.33154364227596
21
20.135650858769658
31
0
0
LINE
5
165
100
AcDbEntity
8
CUTOUTS
100
AcDbLine
10
23.33154364227596
20
20.135650858769658
30
0
11
37.195543642275908
21
18.18715085876967
31
0
0
LINE
5
166
100
AcDbEntity
8
CUTOUTS
100
AcDbLine
10
37.195543642275908
20
18.18715085876967
30
0
11
35.247543642275971
21
4.3225508587697092
31
0
0
LINE
5
167
100
AcDbEntity
8
CUTOUTS
100
AcDbLine
10
79.914543642276072
20
-1.5794491412302847
30
0
11
79.914543642276072
21
12.421250858769639
31
0
0
LINE
5
168
100
AcDbEntity
8
CUTOUTS
100
AcDbLine
10
79.914543642276072
20
12.421250858769639
30
0
11
93.915543642276234
21
12.421250858769639
31
0
0
LINE
5
169
100
AcDbEntity
8
CUTOUTS
100
AcDbLine
10
93.915543642276234
20
12.421250858769639
30
0
11
93.915543642276234
21
-1.5794491412302847
31
0
0
LINE
5
16A
100
AcDbEntity
8
CUTOUTS
100
AcDbLine
10
93.915543642276234
20
-1.5794491412302847
30
0
11
79.914543642276072
21
-1.5794491412302847
31
0
0
LINE
5
16B
100
AcDbEntity
8
CUTOUTS
100
AcDbLine
10
74.365482665216334
20
-25.536216822828237
30
0
11
72.393211553853689
21
-39.395884649774402
31
0
0
LINE
5
16C
100
AcDbEntity
8
CUTOUTS
100
AcDbLine
10
72.393211553853689
20
-39.395884649774402
30
0
11
58.532644428681877
21
-37.423211963137426
31
0
0
LINE
5
16D
100
AcDbEntity
8
CUTOUTS
100
AcDbLine
10
58.532644428681877
20
-37.423211963137426
30
0
11
60.505915538511275
21
-23.563545887177533
31
0
0
LINE
5
16E
100
AcDbEntity
8
CUTOUTS
100
AcDbLine
10
60.505915538511275
20
-23.563545887177533
30
0
11
74.365482665216334
21
-25.536216822828237
31
0
0
LINE
5
16F
100
AcDbEntity
8
CUTOUTS
100
AcDbLine
10
117.44454364227622
20
-40.061149141230388
30
0
11
117.44454364227622
21
-26.060449141230251
31
0
0
LINE
5
170
100
AcDbEntity
8
CUTOUTS
100
AcDbLine
10
117.44454364227622
20
-26.060449141230251
30
0
11
131.44454364227607
21
-26.060449141230251
31
0
0
LINE
5
171
100
AcDbEntity
8
CUTOUTS
100
AcDbLine
10
131.44454364227607
20
-26.060449141230251
30
0
11
131.44454364227607
21
-40.061149141230388
31
0
0
LINE
5
172
100
AcDbEntity
8
CUTOUTS
100
AcDbLine
10
131.44454364227607
20
-40.061149141230388
30
0
11
117.44454364227622
21
-40.061149141230388
31
0
0
LINE
5
173
100
AcDbEntity
8
CUTOUTS
100
AcDbLine
10
28.164543642275959
20
-13.918549141230265
30
0
11
30.112543642275966
21
-0.053949141230269504
31
0
0
LINE
5
174
100
AcDbEntity
8
CUTOUTS
100
AcDbLine
10
30.112543642275966
20
-0.053949141230269504
30
0
11
43.975543642276023
21
-2.0023491412302619
31
0
0
LINE
5
175
100
AcDbEntity
8
CUTOUTS
100
AcDbLine
10
43.975543642276023
20
-2.0023491412302619
30
0
11
42.028543642275977
21
-15.866949141230293
31
0
0
LINE
5
176
100
AcDbEntity
8
CUTOUTS
100
AcDbLine
10
42.028543642275977
20
-15.866949141230293
30
0
11
28.164543642275959
21
-13.918549141230265
31
0
0
ARC
5
177
100
AcDbEntity
8
CUTOUTS
100
AcDbCircle
10
-41.635390269887118
20
24.609876639721833
30
0
40
1.5874999999999986
210
-0
220
0
230
1
100
AcDbArc
50
278.01811033477276
51
324.01467737232525
0
LINE
5
178
100
AcDbEntity
8
CUTOUTS
100
AcDbLine
10
-41.413956081603693
20
23.037895994084217
30
0
11
-43.408838691201659
21
22.7568904915017
31
0
0
ARC
5
179
100
AcDbEntity
8
CUTOUTS
100
AcDbCircle
10
-43.630272879485297
20
24.328871137139387
30
0
40
1.5875000000000627
210
0
220
0
230
1
100
AcDbArc
50
231.97152938616503
51
278.01811033477992
0
ARC
5
17A
100
AcDbEntity
8
CUTOUTS
100
AcDbCircle
10
-45.586241048232949
20
21.827908617858931
30
0
40
1.5874999999998889
210
0
220
-0
230
1
100
AcDbArc
50
51.971529386158501
51
98.014621969220229
0
LINE
5
17B
100
AcDbEntity
8
CUTOUTS
100
AcDbLine
10
-45.807579528478328
20
23.39990274226345
30
0
11
-47.304456359357019
21
23.189140858540291
31
0
0
LINE
5
17C
100
AcDbEntity
8
CUTOUTS
100
AcDbLine
10
-47.304456359357019
20
23.189140858540291
30
0
11
-49.253456359356917
21
37.053640858540327
31
0
0
LINE
5
17D
100
AcDbEntity
8
CUTOUTS
100
AcDbLine
10
-49.253456359356917
20
37.053640858540327
30
0
11
-16.524456359357025
21
41.652140858540285
31
0
0
LINE
5
17E
100
AcDbEntity
8
CUTOUTS
100
AcDbLine
10
-16.524456359357025
20
41.652140858540285
30
0
11
-14.576456359357017
21
27.789040858540304
31
0
0
LINE
5
17F
100
AcDbEntity
8
CUTOUTS
100
AcDbLine
10
-14.576456359357017
20
27.789040858540304
30
0
11
-16.073977405434938
21
27.578899921524496
31
0
0
ARC
5
180
100
AcDbEntity
8
CUTOUTS
100
AcDbCircle
10
-15.853371519053319
20
26.006802821185637
30
0
40
1.5875000000000212
210
0
220
0
230
1
100
AcDbArc
50
97.987921385342972
51
144.00972811589716
0
ARC
5
181
100
AcDbEntity
8
CUTOUTS
100
AcDbCircle
10
-18.42231729997124
20
27.87258484883619
30
0
40
1.5874999999999666
210
-0
220
0
230
1
100
AcDbArc
50
278.01498716292286
51
324.0097281158985
0
LINE
5
182
100
AcDbEntity
8
CUTOUTS
100
AcDbLine
10
-18.200968800103077
20
26.300592135237935
30
0
11
-20.198158048865515
21
26.019372737500035
31
0
0
ARC
5
183
100
AcDbEntity
8
CUTOUTS
100
AcDbCircle
10
-20.419506548733715
20
27.591365451098468
30
0
40
1.5875000000001496
210
0
220
0
230
1
100
AcDbArc
50
231.98990798865179
51
278.01498716292326
0
ARC
5
184
100
AcDbEntity
8
CUTOUTS
100
AcDbCircle
10
-22.374672390311012
20
25.089775650205937
30
0
40
1.5874999999998818
210
0
220
-0
230
1
100
AcDbArc
50
51.989907988647523
51
97.998674381030966
0
LINE
5
185
100
AcDbEntity
8
CUTOUTS
100
AcDbLine
10
-22.595573316410835
20
26.661831320609473
30
0
11
-39.287184256871797
21
24.316372197079197
31
0
0
ARC
5
186
100
AcDbEntity
8
CUTOUTS
100
AcDbCircle
10
-39.066283330772009
20
22.744316526675554
30
0
40
1.587499999999997
210
0
220
0
230
1
100
AcDbArc
50
97.998674381029204
51
144.01467737232392
0
LINE
5
187
100
AcDbEntity
8
CUTOUTS
100
AcDbLine
10
-20.767444553698198
20
-30.80606958288918
30
0
11
-34.632714402752711
21
-32.74440773009097
31
0
0
LINE
5
188
100
AcDbEntity
8
CUTOUTS
100
AcDbLine
10
-34.632714402752711
20
-32.74440773009097
30
0
11
-36.571652223029005
21
-18.87863748898635
31
0
0
LINE
5
189
100
AcDbEntity
8
CUTOUTS
100
AcDbLine
10
-36.571652223029005
20
-18.87863748898635
30
0
11
-22.706382373974421
21
-16.940299341784595
31
0
0
LINE
5
18A
100
AcDbEntity
8
CUTOUTS
100
AcDbLine
10
-22.706382373974421
20
-16.940299341784595
30
0
11
-20.767444553698198
21
-30.80606958288918
31
0
0
LINE
5
18B
100
AcDbEntity
8
CUTOUTS
100
AcDbLine
10
-72.364238203425771
20
-38.044028481003345
30
0
11
-74.312371757892748
21
-24.180806695864092
31
0
0
LINE
5
18C
100
AcDbEntity
8
CUTOUTS
100
AcDbLine
10
-74.312371757892748
20
-24.180806695864092
30
0
11
-60.447249922757322
21
-22.231873260148411
31
0
0
LINE
5
18D
100
AcDbEntity
8
CUTOUTS
100
AcDbLine
10
-60.447249922757322
20
-22.231873260148411
30
0
11
-58.50111643078634
21
-36.096094920285999
31
0
0
LINE
5
18E
100
AcDbEntity
8
CUTOUTS
100
AcDbLine
10
-58.50111643078634
20
-36.096094920285999
30
0
11
-72.364238203425771
21
-38.044028481003345
31
0
0
LINE
5
18F
100
AcDbEntity
8
CUTOUTS
100
AcDbLine
10
-98.203456357723979
20
-26.210859141230358
30
0
11
-98.203456357723979
21
-40.212959141230371
31
0
0
LINE
5
190
100
AcDbEntity
8
CUTOUTS
100
AcDbLine
10
-98.203456357723979
20
-40.212959141230371
30
0
11
-112.20345635772401
21
-40.212959141230371
31
0
0
LINE
5
191
100
AcDbEntity
8
CUTOUTS
100
AcDbLine
10
-112.20345635772401
20
-40.212959141230371
30
0
11
-112.20345635772401
21
-26.210859141230358
31
0
0
LINE
5
192
100
AcDbEntity
8
CUTOUTS
100
AcDbLine
10
-112.20345635772401
20
-26.210859141230358
30
0
11
-98.203456357723979
21
-26.210859141230358
31
0
0
LINE
5
193
100
AcDbEntity
8
CUTOUTS
100
AcDbLine
10
-117.44345635772402
20
-20.972759141230384
30
0
11
-131.445456357724
21
-20.972759141230384
31
0
0
LINE
5
194
100
AcDbEntity
8
CUTOUTS
100
AcDbLine
10
-131.445456357724
20
-20.972759141230384
30
0
11
-131.445456357724
21
-6.9706591412303709
31
0
0
LINE
5
195
100
AcDbEntity
8
CUTOUTS
100
AcDbLine
10
-131.445456357724
20
-6.9706591412303709
30
0
11
-117.44345635772402
21
-6.9706591412303709
31
0
0
LINE
5
196
100
AcDbEntity
8
CUTOUTS
100
AcDbLine
10
-117.44345635772402
20
-6.9706591412303709
30
0
11
-117.44345635772402
21
-20.972759141230384
31
0
0
LINE
5
197
100
AcDbEntity
8
CUTOUTS
100
AcDbLine
10
-75.300456357723988
20
-19.219859141230344
30
0
11
-89.163456357723945
21
-21.167159141230378
31
0
0
LINE
5
198
100
AcDbEntity
8
CUTOUTS
100
AcDbLine
10
-89.163456357723945
20
-21.167159141230378
30
0
11
-91.112456357723985
21
-7.3040591412303613
31
0
0
LINE
5
199
100
AcDbEntity
8
CUTOUTS
100
AcDbLine
10
-91.112456357723985
20
-7.3040591412303613
30
0
11
-77.248456357723995
21
-5.3556591412303689
31
0
0
LINE
5
19A
100
AcDbEntity
8
CUTOUTS
100
AcDbLine
10
-77.248456357723995
20
-5.3556591412303689
30
0
11
-75.300456357723988
21
-19.219859141230344
31
0
0
LINE
5
19B
100
AcDbEntity
8
CUTOUTS
100
AcDbLine
10
-32.738456357724033
20
20.136840858769673
30
0
11
-30.790456357724025
21
6.2736408587696602
31
0
0
LINE
5
19C
100
AcDbEntity
8
CUTOUTS
100
AcDbLine
10
-30.790456357724025
20
6.2736408587696602
30
0
11
-44.653456357724011
21
4.3252408587696678
31
0
0
LINE
5
19D
100
AcDbEntity
8
CUTOUTS
100
AcDbLine
10
-44.653456357724011
20
4.3252408587696678
30
0
11
-46.601456357724018
21
18.188240858769653
31
0
0
LINE
5
19E
100
AcDbEntity
8
CUTOUTS
100
AcDbLine
10
-46.601456357724018
20
18.188240858769653
30
0
11
-32.738456357724033
21
20.136840858769673
31
0
0
LINE
5
19F
100
AcDbEntity
8
CUTOUTS
100
AcDbLine
10
-54.663456357723987
20
22.155640858769665
30
0
11
-68.527456357723963
21
20.207040858769645
31
0
0
LINE
5
1A0
100
AcDbEntity
8
CUTOUTS
100
AcDbLine
10
-68.527456357723963
20
20.207040858769645
30
0
11
-70.476456357724004
21
34.070140858769626
31
0
0
LINE
5
1A1
100
AcDbEntity
8
CUTOUTS
100
AcDbLine
10
-70.476456357724004
20
34.070140858769626
30
0
11
-56.61345635772399
21
36.01864085876965
31
0
0
LINE
5
1A2
100
AcDbEntity
8
CUTOUTS
100
AcDbLine
10
-56.61345635772399
20
36.01864085876965
30
0
11
-54.663456357723987
21
22.155640858769665
31
0
0
LINE
5
1A3
100
AcDbEntity
8
CUTOUTS
100
AcDbLine
10
-108.48945635772402
20
17.508940858769648
30
0
11
-108.48945635772402
21
31.508340858769621
31
0
0
LINE
5
1A4
100
AcDbEntity
8
CUTOUTS
100
AcDbLine
10
-108.48945635772402
20
31.508340858769621
30
0
11
-94.490456357724
21
31.508340858769621
31
0
0
LINE
5
1A5
100
AcDbEntity
8
CUTOUTS
100
AcDbLine
10
-94.490456357724
20
31.508340858769621
30
0
11
-94.490456357724
21
17.508940858769648
31
0
0
LINE
5
1A6
100
AcDbEntity
8
CUTOUTS
100
AcDbLine
10
-94.490456357724
20
17.508940858769648
30
0
11
-108.48945635772402
21
17.508940858769648
31
0
0
LINE
5
1A7
100
AcDbEntity
8
CUTOUTS
100
AcDbLine
10
-65.467456357723989
20
15.536940858769661
30
0
11
-51.60245635772398
21
17.48544085876965
31
0
0
LINE
5
1A8
100
AcDbEntity
8
CUTOUTS
100
AcDbLine
10
-51.60245635772398
20
17.48544085876965
30
0
11
-49.654456357724044
21
3.6211408587696425
31
0
0
LINE
5
1A9
100
AcDbEntity
8
CUTOUTS
100
AcDbLine
10
-49.654456357724044
20
3.6211408587696425
30
0
11
-63.518456357723956
21
1.6738408587696441
31
0
0
LINE
5
1AA
100
AcDbEntity
8
CUTOUTS
100
AcDbLine
10
-63.518456357723956
20
1.6738408587696441
30
0
11
-65.467456357723989
21
15.536940858769661
31
0
0
LINE
5
1AB
100
AcDbEntity
8
CUTOUTS
100
AcDbLine
10
-56.435456357723979
20
-16.568659141230384
30
0
11
-70.300456357723988
21
-18.515659141230358
31
0
0
LINE
5
1AC
100
AcDbEntity
8
CUTOUTS
100
AcDbLine
10
-70.300456357723988
20
-18.515659141230358
30
0
11
-72.247456357723962
21
-4.6525591412303768
31
0
0
LINE
5
1AD
100
AcDbEntity
8
CUTOUTS
100
AcDbLine
10
-72.247456357723962
20
-4.6525591412303768
30
0
11
-58.384456357724019
21
-2.704159141230349
31
0
0
LINE
5
1AE
100
AcDbEntity
8
CUTOUTS
100
AcDbLine
10
-58.384456357724019
20
-2.704159141230349
30
0
11
-56.435456357723979
21
-16.568659141230384
31
0
0
LINE
5
1AF
100
AcDbEntity
8
CUTOUTS
100
AcDbLine
10
-110.10845635772401
20
-20.972759141230384
30
0
11
-110.10845635772401
21
-6.9706591412303709
31
0
0
LINE
5
1B0
100
AcDbEntity
8
CUTOUTS
100
AcDbLine
10
-110.10845635772401
20
-6.9706591412303709
30
0
11
-96.109456357723985
21
-6.9706591412303709
31
0
0
LINE
5
1B1
100
AcDbEntity
8
CUTOUTS
100
AcDbLine
10
-96.109456357723985
20
-6.9706591412303709
30
0
11
-96.109456357723985
21
-20.972759141230384
31
0
0
LINE
5
1B2
100
AcDbEntity
8
CUTOUTS
100
AcDbLine
10
-96.109456357723985
20
-20.972759141230384
30
0
11
-110.10845635772401
21
-20.972759141230384
31
0
0
LINE
5
1B3
100
AcDbEntity
8
CUTOUTS
100
AcDbLine
10
-91.228456357723999
20
-40.695159141230342
30
0
11
-93.178456357724002
21
-26.830959141230366
31
0
0
LINE
5
1B4
100
AcDbEntity
8
CUTOUTS
100
AcDbLine
10
-93.178456357724002
20
-26.830959141230366
30
0
11
-79.313456357723993
21
-24.883659141230368
31
0
0
LINE
5
1B5
100
AcDbEntity
8
CUTOUTS
100
AcDbLine
10
-79.313456357723993
20
-24.883659141230368
30
0
11
-77.365456357723986
21
-38.746759141230349
31
0
0
LINE
5
1B6
100
AcDbEntity
8
CUTOUTS
100
AcDbLine
10
-77.365456357723986
20
-38.746759141230349
30
0
11
-91.228456357723999
21
-40.695159141230342
31
0
0
LINE
5
1B7
100
AcDbEntity
8
CUTOUTS
100
AcDbLine
10
-39.635392418066608
20
-33.447342683320542
30
0
11
-53.499729782900545
21
-35.393340626297167
31
0
0
LINE
5
1B8
100
AcDbEntity
8
CUTOUTS
100
AcDbLine
10
-53.499729782900545
20
-35.393340626297167
30
0
11
-55.444327881829025
21
-21.529903504008772
31
0
0
LINE
5
1B9
100
AcDbEntity
8
CUTOUTS
100
AcDbLine
10
-55.444327881829025
20
-21.529903504008772
30
0
11
-41.580990516980023
21
-19.58390538777568
31
0
0
LINE
5
1BA
100
AcDbEntity
8
CUTOUTS
100
AcDbLine
10
-41.580990516980023
20
-19.58390538777568
30
0
11
-39.635392418066608
21
-33.447342683320542
31
0
0
LINE
5
1BB
100
AcDbEntity
8
CUTOUTS
100
AcDbLine
10
-115.63445635772399
20
-1.7312591412303746
30
0
11
-129.63445635772402
21
-1.7312591412303746
31
0
0
LINE
5
1BC
100
AcDbEntity
8
CUTOUTS
100
AcDbLine
10
-129.63445635772402
20
-1.7312591412303746
30
0
11
-129.63445635772402
21
12.26944085876962
31
0
0
LINE
5
1BD
100
AcDbEntity
8
CUTOUTS
100
AcDbLine
10
-129.63445635772402
20
12.26944085876962
30
0
11
-115.63445635772399
21
12.26944085876962
31
0
0
LINE
5
1BE
100
AcDbEntity
8
CUTOUTS
100
AcDbLine
10
-115.63445635772399
20
12.26944085876962
30
0
11
-115.63445635772399
21
-1.7312591412303746
31
0
0
LINE
5
1BF
100
AcDbEntity
8
CUTOUTS
100
AcDbLine
10
-68.518456357723949
20
0.97104085876964064
30
0
11
-82.382456357723981
21
-0.97735914123038725
31
0
0
LINE
5
1C0
100
AcDbEntity
8
CUTOUTS
100
AcDbLine
10
-82.382456357723981
20
-0.97735914123038725
30
0
11
-84.33145635772398
21
12.885440858769641
31
0
0
LINE
5
1C1
100
AcDbEntity
8
CUTOUTS
100
AcDbLine
10
-84.33145635772398
20
12.885440858769641
30
0
11
-70.468456357723966
21
14.834140858769622
31
0
0
LINE
5
1C2
100
AcDbEntity
8
CUTOUTS
100
AcDbLine
10
-70.468456357723966
20
14.834140858769622
30
0
11
-68.518456357723949
21
0.97104085876964064
31
0
0
LINE
5
1C3
100
AcDbEntity
8
CUTOUTS
100
AcDbLine
10
-118.30145635772399
20
17.508940858769648
30
0
11
-132.30145635772402
21
17.508940858769648
31
0
0
LINE
5
1C4
100
AcDbEntity
8
CUTOUTS
100
AcDbLine
10
-132.30145635772402
20
17.508940858769648
30
0
11
-132.30145635772402
21
31.508340858769621
31
0
0
LINE
5
1C5
100
AcDbEntity
8
CUTOUTS
100
AcDbLine
10
-132.30145635772402
20
31.508340858769621
30
0
11
-118.30145635772399
21
31.508340858769621
31
0
0
LINE
5
1C6
100
AcDbEntity
8
CUTOUTS
100
AcDbLine
10
-118.30145635772399
20
31.508340858769621
30
0
11
-118.30145635772399
21
17.508940858769648
31
0
0
LINE
5
1C7
100
AcDbEntity
8
CUTOUTS
100
AcDbLine
10
-103.44045635772396
20
-1.7312591412303746
30
0
11
-103.44045635772396
21
12.26944085876962
31
0
0
LINE
5
1C8
100
AcDbEntity
8
CUTOUTS
100
AcDbLine
10
-103.44045635772396
20
12.26944085876962
30
0
11
-89.440456357723974
21
12.26944085876962
31
0
0
LINE
5
1C9
100
AcDbEntity
8
CUTOUTS
100
AcDbLine
10
-89.440456357723974
20
12.26944085876962
30
0
11
-89.440456357723974
21
-1.7312591412303746
31
0
0
LINE
5
1CA
100
AcDbEntity
8
CUTOUTS
100
AcDbLine
10
-89.440456357723974
20
-1.7312591412303746
30
0
11
-103.44045635772396
21
-1.7312591412303746
31
0
0
LINE
5
1CB
100
AcDbEntity
8
CUTOUTS
100
AcDbLine
10
-32.569456357724036
20
-13.214459141230357
30
0
11
-34.519456357724039
21
0.65004085876967821
31
0
0
LINE
5
1CC
100
AcDbEntity
8
CUTOUTS
100
AcDbLine
10
-34.519456357724039
20
0.65004085876967821
30
0
11
-20.654456357724023
21
2.5970408587696525
31
0
0
LINE
5
1CD
100
AcDbEntity
8
CUTOUTS
100
AcDbLine
10
-20.654456357724023
20
2.5970408587696525
30
0
11
-18.706456357724015
21
-11.266059141230365
31
0
0
LINE
5
1CE
100
AcDbEntity
8
CUTOUTS
100
AcDbLine
10
-18.706456357724015
20
-11.266059141230365
30
0
11
-32.569456357724036
21
-13.214459141230357
31
0
0
LINE
5
1CF
100
AcDbEntity
8
CUTOUTS
100
AcDbLine
10
-117.25345635772402
20
-26.210859141230358
30
0
11
-117.25345635772402
21
-40.212959141230371
31
0
0
LINE
5
1D0
100
AcDbEntity
8
CUTOUTS
100
AcDbLine
10
-117.25345635772402
20
-40.212959141230371
30
0
11
-131.25345635772402
21
-40.212959141230371
31
0
0
LINE
5
1D1
100
AcDbEntity
8
CUTOUTS
100
AcDbLine
10
-131.25345635772402
20
-40.212959141230371
30
0
11
-131.25345635772402
21
-26.210859141230358
31
0
0
LINE
5
1D2
100
AcDbEntity
8
CUTOUTS
100
AcDbLine
10
-131.25345635772402
20
-26.210859141230358
30
0
11
-117.25345635772402
21
-26.210859141230358
31
0
0
ARC
5
1D3
100
AcDbEntity
8
PERIMETER
100
AcDbCircle
10
25.742810997588741
20
-45.508285256121148
30
0
40
3.1000019114044535
210
0
220
0
230
1
100
AcDbArc
50
176.1813966118639
51
344.04463653438194
0
SPLINE
5
1D4
100
AcDbEntity
8
PERIMETER
100
AcDbSpline
70
0
71
3
72
20
73
16
74
0
42
0.000000001
43
0.0000000001
44
0.0000000001
40
2.6245051253676428e-07
40
2.6245051253676428e-07
40
2.6245051253676428e-07
40
2.6245051253676428e-07
40
0.3012881929860195
40
0.3012881929860195
40
0.3012881929860195
40
0.44443933759995463
40
0.44443933759995463
40
0.44443933759995463
40
0.518407823475731
40
0.518407823475731
40
0.518407823475731
40
0.59296803310629143
40
0.59296803310629143
40
0.59296803310629143
40
0.59788855961375198
40
0.59788855961375198
40
0.59788855961375198
40
0.59788855961375198
10
28.723388871607618
20
-46.360439812256651
30
0
10
29.009521912551293
20
-45.359613407079848
30
0
10
29.384554058616352
20
-44.442217157830051
30
0
10
29.928490841964859
20
-43.732376591114068
30
0
10
30.18698777448666
20
-43.395036637845905
30
0
10
30.505103538224603
20
-43.07848731377053
30
0
10
30.903824750439384
20
-42.847136768616032
30
0
10
31.1098240933444
20
-42.727609492859102
30
0
10
31.331697766741264
20
-42.634862768485569
30
0
10
31.566147776330631
20
-42.574496743545112
30
0
10
31.802473693279367
20
-42.513647711286282
30
0
10
32.042485379404617
20
-42.487967769635624
30
0
10
32.280433008497162
20
-42.492057058717343
30
0
10
32.293405270675422
20
-42.492279995715236
30
0
10
32.306377532853681
20
-42.492502932713165
30
0
10
32.319349795031691
20
-42.49272586971113
30
0
0
LINE
5
1D5
100
AcDbEntity
8
PERIMETER
100
AcDbLine
10
32.319349795031727
20
-42.49272586971113
30
0
11
76.404199207118708
21
-50.176459611262381
31
0
0
LINE
5
1D6
100
AcDbEntity
8
PERIMETER
100
AcDbLine
10
76.404199207118708
20
-50.176459611262381
30
0
11
104.37686956669339
21
-50.176460326608137
31
0
0
SPLINE
5
1D7
100
AcDbEntity
8
PERIMETER
100
AcDbSpline
70
0
71
3
72
20
73
16
74
0
42
0.000000001
43
0.0000000001
44
0.0000000001
40
-0.0073330784084873193
40
-0.0073330784084873193
40
-0.0073330784084873193
40
-0.0073330784084873193
40
0
40
0
40
0
40
0.11964069516623095
40
0.11964069516623095
40
0.11964069516623095
40
0.23411854523316092
40
0.23411854523316092
40
0.23411854523316092
40
0.3508813840731842
40
0.3508813840731842
40
0.3508813840731842
40
0.48848600434327039
40
0.48848600434327039
40
0.48848600434327039
40
0.48848600434327039
10
104.37686956669339
20
-50.176460326608137
30
0
10
104.40028382701001
20
-50.183478997098234
30
0
10
104.42369808732643
20
-50.190497667588261
30
0
10
104.44711234764277
20
-50.197516338078252
30
0
10
104.88480077915497
20
-50.328718043217222
30
0
10
105.29791990587299
20
-50.53696831014804
30
0
10
105.66111850531428
20
-50.834373042535397
30
0
10
106.00864584076007
20
-51.118945379418044
30
0
10
106.28493993760962
20
-51.463702230613784
30
0
10
106.49999891502439
20
-51.840965770763248
30
0
10
106.71936146874216
20
-52.225778786181927
30
0
10
106.87163228748467
20
-52.635951275747956
30
0
10
106.97968560073839
20
-53.044773333805253
30
0
10
107.10703218652839
20
-53.526591907632373
30
0
10
107.17671355761304
20
-54.021372127349601
30
0
10
107.21174833597871
20
-54.501874526824068
30
0
0
LINE
5
1D8
100
AcDbEntity
8
PERIMETER
100
AcDbLine
10
107.21174833597864
20
-54.501874526824068
30
0
11
107.21175035612809
21
-54.501902233718944
31
0
0
ARC
5
1D9
100
AcDbEntity
8
PERIMETER
100
AcDbCircle
10
110.30354407102188
20
-54.276461610157298
30
0
40
3.1000019113233717
210
0
220
0
230
1
100
AcDbArc
50
184.17038734135357
51
355.82966105301983
0
SPLINE
5
1DA
100
AcDbEntity
8
PERIMETER
100
AcDbSpline
70
0
71
3
72
20
73
16
74
0
42
0.000000001
43
0.0000000001
44
0.0000000001
40
2.4498004032855672e-07
40
2.4498004032855672e-07
40
2.4498004032855672e-07
40
2.4498004032855672e-07
40
0.22269907731351105
40
0.22269907731351105
40
0.22269907731351105
40
0.35245902416675889
40
0.35245902416675889
40
0.35245902416675889
40
0.4173205081255999
40
0.4173205081255999
40
0.4173205081255999
40
0.48418746764377463
40
0.48418746764377463
40
0.48418746764377463
40
0.49150274038917774
40
0.49150274038917774
40
0.49150274038917774
40
0.49150274038917774
10
113.39533797632079
20
-54.501899622261902
30
0
10
113.4520833901145
20
-53.723605834522239
30
0
10
113.59844931440108
20
-52.885804009500852
30
0
10
113.9567598220286
20
-52.129878319858634
30
0
10
114.16547640437599
20
-51.689550104268527
30
0
10
114.44833725443154
20
-51.277574764852645
30
0
10
114.82709439523944
20
-50.9364772477457
30
0
10
115.01641395023746
20
-50.765981636727346
30
0
10
115.22363176004987
20
-50.618726776941223
30
0
10
115.44589532631974
20
-50.495792375124253
30
0
10
115.67503181527591
20
-50.369056546679545
30
0
10
115.91476427320899
20
-50.271019444892282
30
0
10
116.15997482282495
20
-50.197514943121995
30
0
10
116.18338830836883
20
-50.190496498800137
30
0
10
116.20680179391272
20
-50.183478054478279
30
0
10
116.23021527945667
20
-50.176459610156456
30
0
0
LINE
5
1DB
100
AcDbEntity
8
PERIMETER
100
AcDbLine
10
116.2302152794566
20
-50.176459610156492
30
0
11
140.30354364227571
21
-50.176459610156421
31
0
0
ARC
5
1DC
100
AcDbEntity
8
PERIMETER
100
AcDbCircle
10
140.30354364227591
20
-44.67645961015652
30
0
40
5.4999999999999005
210
0
220
0
230
1
100
AcDbArc
50
-90.000000000002089
51
0
0
LINE
5
1DD
100
AcDbEntity
8
PERIMETER
100
AcDbLine
10
145.80354364227583
20
-44.67645961015652
30
0
11
145.80354364227574
21
-35.575689681205169
31
0
0
SPLINE
5
1DE
100
AcDbEntity
8
PERIMETER
100
AcDbSpline
70
0
71
3
72
17
73
13
74
0
42
0.000000001
43
0.0000000001
44
0.0000000001
40
-0.010076992895151368
40
-0.010076992895151368
40
-0.010076992895151368
40
-0.010076992895151368
40
0
40
0
40
0
40
0.15124456282334511
40
0.15124456282334511
40
0.15124456282334511
40
0.29060430631854728
40
0.29060430631854728
40
0.29060430631854728
40
0.48144221837620449
40
0.48144221837620449
40
0.48144221837620449
40
0.48144221837620449
10
145.80354364227574
20
-35.575689681205169
30
0
10
145.81655459732184
20
-35.544721930919181
30
0
10
145.82956555236797
20
-35.513754180633228
30
0
10
145.84257650741407
20
-35.482786430347275
30
0
10
146.05956395033061
20
-34.966328343787723
30
0
10
146.36393487465924
20
-34.487426410535704
30
0
10
146.77427601479025
20
-34.081945863794338
30
0
10
147.15237038423297
20
-33.708330116680827
30
0
10
147.59291702198715
20
-33.424447949476175
30
0
10
148.07041489150095
20
-33.219288365279951
30
0
10
148.72435889949907
20
-32.938317727850439
30
0
10
149.4213752736888
20
-32.812612370454417
30
0
10
150.09678294011593
20
-32.770432971818622
30
0
0
ARC
5
1DF
100
AcDbEntity
8
PERIMETER
100
AcDbCircle
10
149.90354555359445
20
-29.676459610156556
30
0
40
3.1000019113258808
210
-0
220
0
230
1
100
AcDbArc
50
-86.426173401196351
51
86.426219210961349
0
LINE
5
1E0
100
AcDbEntity
8
PERIMETER
100
AcDbLine
10
150.09678046638754
20
-26.582486093996138
30
0
11
150.09675705269308
21
-26.582484631776779
31
0
0
SPLINE
5
1E1
100
AcDbEntity
8
PERIMETER
100
AcDbSpline
70
0
71
3
72
17
73
13
74
0
42
0.000000001
43
0.0000000001
44
0.0000000001
40
0
40
0
40
0
40
0
40
0.20427572706777153
40
0.20427572706777153
40
0.20427572706777153
40
0.34140525639516428
40
0.34140525639516428
40
0.34140525639516428
40
0.48073669618344722
40
0.48073669618344722
40
0.48073669618344722
40
0.49080533941895949
40
0.49080533941895949
40
0.49080533941895949
40
0.49080533941895949
10
150.09675705269308
20
-26.582484631776779
30
0
10
149.37328060883578
20
-26.53730103922765
30
0
10
148.62476424381697
20
-26.396404209844171
30
0
10
147.93181542840762
20
-26.071385938027305
30
0
10
147.46669563001859
20
-25.853227785940831
30
0
10
147.04297824199494
20
-25.55762445352407
30
0
10
146.68305311511645
20
-25.177821520965828
30
0
10
146.31734600588436
20
-24.79191728096918
30
0
10
146.04263820777405
20
-24.346305427299058
30
0
10
145.84257650741398
20
-23.870132789965695
30
0
10
145.82956555236785
20
-23.839165039679564
30
0
10
145.81655459732167
20
-23.808197289393433
30
0
10
145.80354364227546
20
-23.777229539107374
30
0
0
LINE
5
1E2
100
AcDbEntity
8
PERIMETER
100
AcDbLine
10
145.80354364227554
20
-23.777229539107374
30
0
11
145.80354364227574
21
13.16431859875923
31
0
0
SPLINE
5
1E3
100
AcDbEntity
8
PERIMETER
100
AcDbSpline
70
0
71
3
72
20
73
16
74
0
42
0.000000001
43
0.0000000001
44
0.0000000001
40
-0.00041677386109306713
40
-0.00041677386109306713
40
-0.00041677386109306713
40
-0.00041677386109306713
40
0
40
0
40
0
40
0.078060961667091672
40
0.078060961667091672
40
0.078060961667091672
40
0.14877466447417598
40
0.14877466447417598
40
0.14877466447417598
40
0.23746398299384952
40
0.23746398299384952
40
0.23746398299384952
40
0.46789908311641554
40
0.46789908311641554
40
0.46789908311641554
40
0.46789908311641554
10
145.80354364227574
20
13.16431859875923
30
0
10
145.80356680072683
20
13.165707651925587
30
0
10
145.80358995917791
20
13.167096705092618
30
0
10
145.803613117629
20
13.168485758259685
30
0
10
145.80886873273448
20
13.483719656121025
30
0
10
145.86711444029802
20
13.805038055908021
30
0
10
146.00004867276175
20
14.111312635802733
30
0
10
146.1204686176132
20
14.388754851677312
30
0
10
146.29333647961658
20
14.632451814104748
30
0
10
146.50009170044063
20
14.838760751645061
30
0
10
146.75943816045015
20
15.097547409636825
30
0
10
147.05936955903724
20
15.288728779825931
30
0
10
147.36163532808524
20
15.436211676973564
30
0
10
148.14677929051464
20
15.819302711799423
30
0
10
149.10948374199705
20
15.992666132933344
30
0
10
150.13303921968344
20
16.068655337798283
30
0
0
ARC
5
1E4
100
AcDbEntity
8
PERIMETER
100
AcDbCircle
10
149.90354564349809
20
19.160150858769711
30
0
40
3.1000019125311136
210
-0
220
0
230
1
100
AcDbArc
50
-85.754501489585451
51
85.753934635882558
0
SPLINE
5
1E5
100
AcDbEntity
8
PERIMETER
100
AcDbSpline
70
0
71
3
72
20
73
16
74
0
42
0.000000001
43
0.0000000001
44
0.0000000001
40
2.7277357270825863e-07
40
2.7277357270825863e-07
40
2.7277357270825863e-07
40
2.7277357270825863e-07
40
0.28530155053415057
40
0.28530155053415057
40
0.28530155053415057
40
0.41502044872895405
40
0.41502044872895405
40
0.41502044872895405
40
0.506529113663442
40
0.506529113663442
40
0.506529113663442
40
0.60006736072027134
40
0.60006736072027134
40
0.60006736072027134
40
0.60059868591215859
40
0.60059868591215859
40
0.60059868591215859
40
0.60059868591215859
10
150.13306980526906
20
22.251644109086506
30
0
10
149.15078788762793
20
22.324567037349006
30
0
10
148.22627305557646
20
22.487933044106931
30
0
10
147.46026886011157
20
22.837542368472583
30
0
10
147.11190518751266
20
22.996537826894219
30
0
10
146.76276737053882
20
23.209807318597591
30
0
10
146.46932010003445
20
23.51277255656079
30
0
10
146.2623511991813
20
23.726454497408795
30
0
10
146.09247445976399
20
23.978194238856787
30
0
10
145.97759529545002
20
24.262589916267316
30
0
10
145.86016596298157
20
24.553298808124708
30
0
10
145.80855302659629
20
24.855518243162997
30
0
10
145.8036131176288
20
25.151815960673716
30
0
10
145.80358995917777
20
25.153205013836732
30
0
10
145.80356680072674
20
25.154594066999749
30
0
10
145.80354364227611
20
25.155983120152214
30
0
0
LINE
5
1E6
100
AcDbEntity
8
PERIMETER
100
AcDbLine
10
145.80354364227603
20
25.15598312015225
30
0
11
145.80354364227583
21
34.160150858769711
31
0
0
ARC
5
1E7
100
AcDbEntity
8
PERIMETER
100
AcDbCircle
10
138.80354364227577
20
34.160150858769711
30
0
40
7.0000000000000284
210
0
220
-0
230
1
100
AcDbArc
50
0
51
90
0
LINE
5
1E8
100
AcDbEntity
8
PERIMETER
100
AcDbLine
10
138.80354364227577
20
41.16015085876974
30
0
11
114.27476243109275
21
41.16015085876974
31
0
0
SPLINE
5
1E9
100
AcDbEntity
8
PERIMETER
100
AcDbSpline
70
0
71
3
72
17
73
13
74
0
42
0.000000001
43
0.0000000001
44
0.0000000001
40
-0.01049573249941985
40
-0.01049573249941985
40
-0.01049573249941985
40
-0.01049573249941985
40
0
40
0
40
0
40
0.1101141938777096
40
0.1101141938777096
40
0.1101141938777096
40
0.22767693619314561
40
0.22767693619314561
40
0.22767693619314561
40
0.44203015572379356
40
0.44203015572379356
40
0.44203015572379356
40
0.44203015572379356
10
114.27476243109275
20
41.16015085876974
30
0
10
114.2427297673224
20
41.174219010886546
30
0
10
114.21069710355191
20
41.188287163003423
30
0
10
114.17866443978141
20
41.2023553151203
30
0
10
113.78412544910979
20
41.375629525987705
30
0
10
113.43130826244945
20
41.622386959645148
30
0
10
113.13356505369526
20
41.935117176669969
30
0
10
112.81566867529875
20
42.269014980160939
30
0
10
112.58014698599169
20
42.654800955171801
30
0
10
112.40432294784313
20
43.056187017472993
30
0
10
112.08365435443973
20
43.7882365447458
30
0
10
111.94864909808224
20
44.591390373169055
30
0
10
111.89337739065941
20
45.33721426605485
30
0
0
ARC
5
1EA
100
AcDbEntity
8
PERIMETER
100
AcDbCircle
10
108.8018518507149
20
45.1081254490013
30
0
40
3.1000019113266122
210
0
220
-0
230
1
100
AcDbArc
50
4.2379970044003707
51
175.81536690531337
0
SPLINE
5
1EB
100
AcDbEntity
8
PERIMETER
100
AcDbSpline
70
0
71
3
72
17
73
13
74
0
42
0.000000001
43
0.0000000001
44
0.0000000001
40
2.4766109616647007e-07
40
2.4766109616647007e-07
40
2.4766109616647007e-07
40
2.4766109616647007e-07
40
0.24890703538695688
40
0.24890703538695688
40
0.24890703538695688
40
0.36571394284355091
40
0.36571394284355091
40
0.36571394284355091
40
0.47701916226002461
40
0.47701916226002461
40
0.47701916226002461
40
0.48882033204079756
40
0.48882033204079756
40
0.48882033204079756
40
0.48882033204079756
10
105.71011428390491
20
45.334334794643318
30
0
10
105.64660651676569
20
44.466277205522786
30
0
10
105.48081537709066
20
43.600412519027785
30
0
10
105.10427659478786
20
42.844991631429821
30
0
10
104.92753827050478
20
42.490415082937218
30
0
10
104.69968987922272
20
42.154080166484107
30
0
10
104.40603556738139
20
41.862463107908674
30
0
10
104.12621903699822
20
41.584587829934705
30
0
10
103.80139076852728
20
41.363367629421681
30
0
10
103.44260490900993
20
41.203457703691555
30
0
10
103.41021608447356
20
41.189022088717593
30
0
10
103.37782725993719
20
41.174586473743595
30
0
10
103.34543843540082
20
41.160150858769597
30
0
0
LINE
5
1EC
100
AcDbEntity
8
PERIMETER
100
AcDbLine
10
103.34543843540075
20
41.160150858769562
30
0
11
76.317959712472643
21
41.160150858769633
31
0
0
LINE
5
1ED
100
AcDbEntity
8
PERIMETER
100
AcDbLine
10
76.317959712472643
20
41.160150858769633
30
0
11
32.070344773060455
21
48.825987326548947
31
0
0
SPLINE
5
1EE
100
AcDbEntity
8
PERIMETER
100
AcDbSpline
70
0
71
3
72
17
73
13
74
0
42
0.000000001
43
0.0000000001
44
0.0000000001
40
-0.011893213974380364
40
-0.011893213974380364
40
-0.011893213974380364
40
-0.011893213974380364
40
0
40
0
40
0
40
0.1430898052823974
40
0.1430898052823974
40
0.1430898052823974
40
0.31043506074669247
40
0.31043506074669247
40
0.31043506074669247
40
0.50217612566664971
40
0.50217612566664971
40
0.50217612566664971
40
0.50217612566664971
10
32.070344773060455
20
48.825987326548947
30
0
10
32.038513218889975
20
48.849617870098108
30
0
10
32.006681664719494
20
48.873248413647268
30
0
10
31.974850110548942
20
48.896878957196428
30
0
10
31.538933580470179
20
49.22048692470721
30
0
10
31.181285137920938
20
49.621350264039457
30
0
10
30.902740543996323
20
50.080298014260052
30
0
10
30.576961980089301
20
50.617071451032167
30
0
10
30.37445444069732
20
51.203670482475232
30
0
10
30.250396880430799
20
51.791357323813081
30
0
10
30.10824537154889
20
52.46475901788763
30
0
10
30.065161082426677
20
53.157696329954618
30
0
10
30.075145191475663
20
53.823223170678673
30
0
0
ARC
5
1EF
100
AcDbEntity
8
PERIMETER
100
AcDbCircle
10
26.975492321416183
20
53.86974129320695
30
0
40
3.10000191138514
210
-0
220
0
230
1
100
AcDbArc
50
-0.85980338216604335
51
161.20162727031465
0
SPLINE
5
1F0
100
AcDbEntity
8
PERIMETER
100
AcDbSpline
70
0
71
3
72
17
73
13
74
0
42
0.000000001
43
0.0000000001
44
0.0000000001
40
2.3594319269139524e-07
40
2.3594319269139524e-07
40
2.3594319269139524e-07
40
2.3594319269139524e-07
40
0.27404799952076819
40
0.27404799952076819
40
0.27404799952076819
40
0.38883188553274317
40
0.38883188553274317
40
0.38883188553274317
40
0.4979692415148424
40
0.4979692415148424
40
0.4979692415148424
40
0.50983617300303108
40
0.50983617300303108
40
0.50983617300303108
40
0.50983617300303108
10
24.040849433328972
20
54.868682217341771
30
0
10
23.733972723251142
20
53.96713990906477
30
0
10
23.302018198342225
20
53.03064079263077
30
0
10
22.650439270015177
20
52.261118103854329
30
0
10
22.377589896495671
20
51.938879654429968
30
0
10
22.064631814733247
20
51.645400856133854
30
0
10
21.705225184539927
20
51.401021006360637
30
0
10
21.363502411224715
20
51.168665359604901
30
0
10
20.991642709219036
20
50.989343053048763
30
0
10
20.594629964224644
20
50.868485940510979
30
0
10
20.556704262759311
20
50.856940742459145
30
0
10
20.518778561293978
20
50.84539554440731
30
0
10
20.480852859828573
20
50.833850346355369
30
0
0
LINE
5
1F1
100
AcDbEntity
8
PERIMETER
100
AcDbLine
10
20.480852859828573
20
50.833850346355405
30
0
11
18.752476486015404
21
51.133289099259294
31
0
0
LINE
5
1F2
100
AcDbEntity
8
PERIMETER
100
AcDbLine
10
18.752476486015404
20
51.133289099259294
30
0
11
-23.132461482703235
21
51.133289099259294
31
0
0
LINE
5
1F3
100
AcDbEntity
8
PERIMETER
100
AcDbLine
10
-23.132461482703235
20
51.133289099259294
30
0
11
-39.253542633118244
21
48.867406777858236
31
0
0
SPLINE
5
1F4
100
AcDbEntity
8
PERIMETER
100
AcDbSpline
70
0
71
3
72
20
73
16
74
0
42
0.000000001
43
0.0000000001
44
0.0000000001
40
-0.0061901733631653773
40
-0.0061901733631653773
40
-0.0061901733631653773
40
-0.0061901733631653773
40
0
40
0
40
0
40
0.10562726352709993
40
0.10562726352709993
40
0.10562726352709993
40
0.20973636779396926
40
0.20973636779396926
40
0.20973636779396926
40
0.33757711418879421
40
0.33757711418879421
40
0.33757711418879421
40
0.49352208717388724
40
0.49352208717388724
40
0.49352208717388724
40
0.49352208717388724
10
-39.253542633118244
20
48.867406777858236
30
0
10
-39.274059167220408
20
48.869604531319872
30
0
10
-39.294575701322643
20
48.871802284781438
30
0
10
-39.315092235424842
20
48.874000038243004
30
0
10
-39.724561052975744
20
48.917862783612627
30
0
10
-40.123717690661742
20
49.036153451791975
30
0
10
-40.492802689045995
20
49.23887147073021
30
0
10
-40.856588407422336
20
49.438678887639895
30
0
10
-41.164735188831152
20
49.705028939604503
30
0
10
-41.423242949583212
20
50.007465127302133
30
0
10
-41.740708479352087
20
50.378877824040593
30
0
10
-41.980378249802008
20
50.79839792512967
30
0
10
-42.168436323419982
20
51.219301407497291
30
0
10
-42.397853498873417
20
51.73277305062097
30
0
10
-42.562366227379371
20
52.276616959287665
30
0
10
-42.685389640400579
20
52.804537582624462
30
0
0
ARC
5
1F5
100
AcDbEntity
8
PERIMETER
100
AcDbCircle
10
-45.704503451334482
20
52.101001053923
30
0
40
3.100001911384755
210
0
220
-0
230
1
100
AcDbArc
50
13.117402723300128
51
182.88357135598736
0
SPLINE
5
1F6
100
AcDbEntity
8
PERIMETER
100
AcDbSpline
70
0
71
3
72
20
73
16
74
0
42
0.000000001
43
0.0000000001
44
0.0000000001
40
2.5144174710070387e-07
40
2.5144174710070387e-07
40
2.5144174710070387e-07
40
2.5144174710070387e-07
40
0.257208012539271
40
0.257208012539271
40
0.257208012539271
40
0.39635689190260948
40
0.39635689190260948
40
0.39635689190260948
40
0.46471156629453436
40
0.46471156629453436
40
0.46471156629453436
40
0.53440888294453226
40
0.53440888294453226
40
0.53440888294453226
40
0.54131914969609352
40
0.54131914969609352
40
0.54131914969609352
40
0.54131914969609352
10
-48.800580211091606
20
51.945050586816208
30
0
10
-48.75554129196729
20
51.050984858311139
30
0
10
-48.807039077032819
20
50.142513618624456
30
0
10
-49.079765011209062
20
49.32432873351928
30
0
10
-49.227341176946844
20
48.881596403815841
30
0
10
-49.446819405219458
20
48.450252222985313
30
0
10
-49.771801823632558
20
48.076978935598937
30
0
10
-49.93143538060238
20
47.893624577913201
30
0
10
-50.11183396596266
20
47.730042785231852
30
0
10
-50.311067044324389
20
47.589162898631265
30
0
10
-50.514213939836345
20
47.445515509160003
30
0
10
-50.731286873228356
20
47.329353054382004
30
0
10
-50.956792184874296
20
47.23771262920291
30
0
10
-50.975907959824482
20
47.229944396466941
30
0
10
-50.995023734774634
20
47.222176163730971
30
0
10
-51.014139509724892
20
47.214407930995002
30
0
0
LINE
5
1F7
100
AcDbEntity
8
PERIMETER
100
AcDbLine
10
-51.014139509724927
20
47.214407930994966
30
0
11
-95.168467363076061
21
41.00834085876965
31
0
0
LINE
5
1F8
100
AcDbEntity
8
PERIMETER
100
AcDbLine
10
-95.168467363076061
20
41.00834085876965
30
0
11
-102.88005935185161
21
41.008340858769543
31
0
0
SPLINE
5
1F9
100
AcDbEntity
8
PERIMETER
100
AcDbSpline
70
0
71
3
72
20
73
16
74
0
42
0.000000001
43
0.0000000001
44
0.0000000001
40
-0.0076602994129309149
40
-0.0076602994129309149
40
-0.0076602994129309149
40
-0.0076602994129309149
40
0
40
0
40
0
40
0.12434454571985434
40
0.12434454571985434
40
0.12434454571985434
40
0.24180304369978931
40
0.24180304369978931
40
0.24180304369978931
40
0.35478290615159241
40
0.35478290615159241
40
0.35478290615159241
40
0.48657218405432845
40
0.48657218405432845
40
0.48657218405432845
40
0.48657218405432845
10
-102.88005935185161
20
41.008340858769543
30
0
10
-102.90442248617907
20
41.015985449314414
30
0
10
-102.92878562050625
20
41.023630039859071
30
0
10
-102.95314875483345
20
41.031274630403729
30
0
10
-103.40340995800912
20
41.172556227845938
30
0
10
-103.82829466886001
20
41.392234651379702
30
0
10
-104.20032047101745
20
41.704674432698425
30
0
10
-104.55174440511743
20
41.999812072301985
30
0
10
-104.83007170735721
20
42.355648954873075
30
0
10
-105.04471887382988
20
42.74548422113817
30
0
10
-105.25118992508769
20
43.120470290443542
30
0
10
-105.3950940833133
20
43.517955144314833
30
0
10
-105.49681379540121
20
43.915077383389978
30
0
10
-105.61547324402912
20
44.37833376663459
30
0
10
-105.67957551300492
20
44.852503696637953
30
0
10
-105.71029336041349
20
45.314145002336979
30
0
0
ARC
5
1FA
100
AcDbEntity
8
PERIMETER
100
AcDbCircle
10
-108.803456357724
20
45.108342858769674
30
0
40
3.1000019113264528
210
0
220
-0
230
1
100
AcDbArc
50
3.8065373450716908
51
176.19299246245458
0
SPLINE
5
1FB
100
AcDbEntity
8
PERIMETER
100
AcDbSpline
70
0
71
3
72
20
73
16
74
0
42
0.000000001
43
0.0000000001
44
0.0000000001
40
2.4276210863136381e-07
40
2.4276210863136381e-07
40
2.4276210863136381e-07
40
2.4276210863136381e-07
40
0.21657334355472546
40
0.21657334355472546
40
0.21657334355472546
40
0.34768435655130858
40
0.34768435655130858
40
0.34768435655130858
40
0.41410812570400862
40
0.41410812570400862
40
0.41410812570400862
40
0.48287659469962158
40
0.48287659469962158
40
0.48287659469962158
40
0.49052138016699948
40
0.49052138016699948
40
0.49052138016699948
40
0.49052138016699948
10
-111.89661766602036
20
45.314170386082964
30
0
10
-111.94712948925758
20
44.555026578567976
30
0
10
-112.08662838222189
20
43.743823123314272
30
0
10
-112.43011037304576
20
43.006103122090558
30
0
10
-112.63799859282668
20
42.559607230462255
30
0
10
-112.92147034658512
20
42.143670273659311
30
0
10
-113.30025253514606
20
41.797809014219176
30
0
10
-113.49214824636778
20
41.62259145022432
30
0
10
-113.70220414079012
20
41.471109575997502
30
0
10
-113.92728592951744
20
41.343961768665878
30
0
10
-114.16031370041978
20
41.21232530760377
30
0
10
-114.40424268289934
20
41.109568661652496
30
0
10
-114.65376396061565
20
41.031274630403693
30
0
10
-114.67812709494282
20
41.023630039859
30
0
10
-114.70249022927
20
41.015985449314343
30
0
10
-114.72685336359739
20
41.008340858769508
30
0
0
LINE
5
1FC
100
AcDbEntity
8
PERIMETER
100
AcDbLine
10
-114.72685336359743
20
41.008340858769543
30
0
11
-138.80345635772397
21
41.00834085876965
31
0
0
ARC
5
1FD
100
AcDbEntity
8
PERIMETER
100
AcDbCircle
10
-138.80345635772397
20
34.008340858769657
30
0
40
6.9999999999999929
210
-0
220
0
230
1
100
AcDbArc
50
90
51
180
0
LINE
5
1FE
100
AcDbEntity
8
PERIMETER
100
AcDbLine
10
-145.80345635772397
20
34.008340858769692
30
0
11
-145.80345635772397
21
24.932590600768521
31
0
0
SPLINE
5
1FF
100
AcDbEntity
8
PERIMETER
100
AcDbSpline
70
0
71
3
72
20
73
16
74
0
42
0.000000001
43
0.0000000001
44
0.0000000001
40
-0.0075750258001303413
40
-0.0075750258001303413
40
-0.0075750258001303413
40
-0.0075750258001303413
40
0
40
0
40
0
40
0.12381495674812242
40
0.12381495674812242
40
0.12381495674812242
40
0.2405773092668097
40
0.2405773092668097
40
0.2405773092668097
40
0.35400352315850059
40
0.35400352315850059
40
0.35400352315850059
40
0.48650166314298776
40
0.48650166314298776
40
0.48650166314298776
40
0.48650166314298776
10
-145.80345635772397
20
24.932590600768521
30
0
10
-145.81093549562803
20
24.908473608019719
30
0
10
-145.81841463353209
20
24.884356615270988
30
0
10
-145.82589377143611
20
24.860239622522293
30
0
10
-145.96512340496662
20
24.411284127203672
30
0
10
-146.18245462970873
20
23.987111654464712
30
0
10
-146.49256145532991
20
23.615313783814962
30
0
10
-146.78500457389447
20
23.26469354657668
30
0
10
-147.1380910599201
20
22.986550368541749
30
0
10
-147.52533125909846
20
22.771777221340876
30
0
10
-147.9015227901393
20
22.563131943181709
30
0
10
-148.30072487047326
20
22.418071717800352
30
0
10
-148.69950579204644
20
22.315735004939192
30
0
10
-149.16535941932696
20
22.196185833172706
30
0
10
-149.64235570362001
20
22.132011435461756
30
0
10
-150.10648305056063
20
22.101546730648884
30
0
0
ARC
5
200
100
AcDbEntity
8
PERIMETER
100
AcDbCircle
10
-149.90345835809774
20
19.008200186184965
30
0
40
3.1000019144988848
210
0
220
0
230
1
100
AcDbArc
50
93.755091137381285
51
266.24891593642951
0
SPLINE
5
201
100
AcDbEntity
8
PERIMETER
100
AcDbSpline
70
0
71
3
72
20
73
16
74
0
42
0.000000001
43
0.0000000001
44
0.0000000001
40
2.4303195855081143e-07
40
2.4303195855081143e-07
40
2.4303195855081143e-07
40
2.4303195855081143e-07
40
0.21618517520603739
40
0.21618517520603739
40
0.21618517520603739
40
0.34677254039759753
40
0.34677254039759753
40
0.34677254039759753
40
0.41351481355659314
40
0.41351481355659314
40
0.41351481355659314
40
0.48263259061647612
40
0.48263259061647612
40
0.48263259061647612
40
0.4902053217145097
40
0.4902053217145097
40
0.4902053217145097
40
0.4902053217145097
10
-150.10626671182075
20
15.914839450522926
30
0
10
-149.34846236318177
20
15.865159636887327
30
0
10
-148.53814593080301
20
15.726930129456385
30
0
10
-147.80109486290394
20
15.38498001940745
30
0
10
-147.35598897510391
20
15.178476000967507
30
0
10
-146.94094865144461
20
14.896684897248953
30
0
10
-146.59563130240826
20
14.519659103979556
30
0
10
-146.41914567733576
20
14.326967850617116
30
0
10
-146.26673790965066
20
14.115796661808595
30
0
10
-146.13905650355773
20
13.889352610247307
30
0
10
-146.00683016461343
20
13.654848081906898
30
0
10
-145.9039876962722
20
13.409311957920984
30
0
10
-145.82597050273478
20
13.158199728391935
30
0
10
-145.81846578773116
20
13.134044466826005
30
0
10
-145.81096107272754
20
13.109889205260004
30
0
10
-145.80345635772392
20
13.085733943694073
30
0
0
LINE
5
202
100
AcDbEntity
8
PERIMETER
100
AcDbLine
10
-145.80345635772392
20
13.085733943694073
30
0
11
-145.80345635772406
21
-23.754098676651267
31
0
0
SPLINE
5
203
100
AcDbEntity
8
PERIMETER
100
AcDbSpline
70
0
71
3
72
20
73
16
74
0
42
0.000000001
43
0.0000000001
44
0.0000000001
40
-0.0077639066494977057
40
-0.0077639066494977057
40
-0.0077639066494977057
40
-0.0077639066494977057
40
0
40
0
40
0
40
0.12559792853761309
40
0.12559792853761309
40
0.12559792853761309
40
0.24396681744237136
40
0.24396681744237136
40
0.24396681744237136
40
0.35592942513712256
40
0.35592942513712256
40
0.35592942513712256
40
0.48617296608204708
40
0.48617296608204708
40
0.48617296608204708
40
0.48617296608204708
10
-145.80345635772406
20
-23.754098676651267
30
0
10
-145.81130423474616
20
-23.77875976179098
30
0
10
-145.81915211176829
20
-23.803420846930727
30
0
10
-145.82699998879042
20
-23.82808193207044
30
0
10
-145.9713314795444
20
-24.281627670846824
30
0
10
-146.19446144695138
20
-24.709412170027854
30
0
10
-146.51115979565932
20
-25.083480217966567
30
0
10
-146.80963012294362
20
-25.436018250294055
30
0
10
-147.16892613720606
20
-25.71482464019347
30
0
10
-147.56250062040272
20
-25.929277913694904
30
0
10
-147.93478835578327
20
-26.132132333748643
30
0
10
-148.32879554652811
20
-26.273767905554593
30
0
10
-148.72265254389188
20
-26.373866124106691
30
0
10
-149.1808357323622
20
-26.490312756370145
30
0
10
-149.6494292067776
20
-26.55318728265943
30
0
10
-150.10597740642874
20
-26.583079549061353
30
0
0
LINE
5
204
100
AcDbEntity
8
PERIMETER
100
AcDbLine
10
-150.10597740642874
20
-26.583079549061317
30
0
11
-150.10600450794445
21
-26.583081323480897
31
0
0
ARC
5
205
100
AcDbEntity
8
PERIMETER
100
AcDbCircle
10
-149.90345835772425
20
-29.676459235608057
30
0
40
3.1000019113228312
210
0
220
0
230
1
100
AcDbArc
50
93.746227500715776
51
266.25379450610183
0
SPLINE
5
206
100
AcDbEntity
8
PERIMETER
100
AcDbSpline
70
0
71
3
72
20
73
16
74
0
42
0.000000001
43
0.0000000001
44
0.0000000001
40
2.4247936845539209e-07
40
2.4247936845539209e-07
40
2.4247936845539209e-07
40
2.4247936845539209e-07
40
0.21537962262538488
40
0.21537962262538488
40
0.21537962262538488
40
0.3469715222212475
40
0.3469715222212475
40
0.3469715222212475
40
0.4135859761288615
40
0.4135859761288615
40
0.4135859761288615
40
0.48260813302581573
40
0.48260813302581573
40
0.48260813302581573
40
0.49035695380888666
40
0.49035695380888666
40
0.49035695380888666
40
0.49035695380888666
10
-150.10600331980385
20
-32.769837225521066
30
0
10
-149.35054065980464
20
-32.819298930840262
30
0
10
-148.54472196055119
20
-32.957789273315505
30
0
10
-147.81073477936908
20
-33.298657840188781
30
0
10
-147.3623936175662
20
-33.506870480970719
30
0
10
-146.94529200069647
20
-33.791104636328768
30
0
10
-146.59821873657327
20
-34.170524500033146
30
0
10
-146.42252651438437
20
-34.3625909191082
30
0
10
-146.27052523342579
20
-34.572738926620907
30
0
10
-146.1426890397764
20
-34.797800370890677
30
0
10
-146.01023189548295
20
-35.030997209340917
30
0
10
-145.90647264071711
20
-35.275107016990788
30
0
10
-145.82700120573489
20
-35.524837387385766
30
0
10
-145.81915334281948
20
-35.549498445954981
30
0
10
-145.81130547990404
20
-35.574159504524232
30
0
10
-145.80345761698862
20
-35.598820563093412
30
0
0
LINE
5
207
100
AcDbEntity
8
PERIMETER
100
AcDbLine
10
-145.80345761698862
20
-35.598820563093412
30
0
11
-145.80345635772412
21
-44.676459540795754
31
0
0
ARC
5
208
100
AcDbEntity
8
PERIMETER
100
AcDbCircle
10
-140.30345635772414
20
-44.676459610156485
30
0
40
5.4999999999999725
210
0
220
0
230
1
100
AcDbArc
50
180
51
270.00000000000063
0
LINE
5
209
100
AcDbEntity
8
PERIMETER
100
AcDbLine
10
-140.30345635772409
20
-50.176459610156456
30
0
11
-134.95401688842765
21
-50.176459610156456
31
0
0
SPLINE
5
20A
100
AcDbEntity
8
PERIMETER
100
AcDbSpline
70
0
71
3
72
14
73
10
74
0
42
0.000000001
43
0.0000000001
44
0.0000000001
40
-0.021034927795641072
40
-0.021034927795641072
40
-0.021034927795641072
40
-0.021034927795641072
40
0
40
0
40
0
40
0.11189282197530941
40
0.11189282197530941
40
0.11189282197530941
40
0.34059101339991305
40
0.34059101339991305
40
0.34059101339991305
40
0.34059101339991305
10
-134.95401688842765
20
-50.176459610156456
30
0
10
-134.90498771704267
20
-50.226583990913518
30
0
10
-134.85595854565773
20
-50.27670837167058
30
0
10
-134.80692937427278
20
-50.326832752427677
30
0
10
-134.49819083880359
20
-50.642467862487699
30
0
10
-134.26720665255741
20
-51.00866476806484
30
0
10
-134.09550825769853
20
-51.393763244248163
30
0
10
-133.74464951283619
20
-52.180696448330437
30
0
10
-133.6204020405867
20
-53.074257869831456
30
0
10
-133.60090155183434
20
-53.963233472039036
30
0
0
ARC
5
20B
100
AcDbEntity
8
PERIMETER
100
AcDbCircle
10
-130.50164487198342
20
-53.895263749756701
30
0
40
3.1000019114103177
210
0
220
0
230
1
100
AcDbArc
50
181.25635094059476
51
352.65700546952223
0
SPLINE
5
20C
100
AcDbEntity
8
PERIMETER
100
AcDbSpline
70
0
71
3
72
20
73
16
74
0
42
0.000000001
43
0.0000000001
44
0.0000000001
40
2.9422063951643057e-07
40
2.9422063951643057e-07
40
2.9422063951643057e-07
40
2.9422063951643057e-07
40
0.24672133123295703
40
0.24672133123295703
40
0.24672133123295703
40
0.37792181541919123
40
0.37792181541919123
40
0.37792181541919123
40
0.43959146270743976
40
0.43959146270743976
40
0.43959146270743976
40
0.50217606165630124
40
0.50217606165630124
40
0.50217606165630124
40
0.51012055797038169
40
0.51012055797038169
40
0.51012055797038169
40
0.51012055797038169
10
-127.42706665113717
20
-54.291471542189917
30
0
10
-127.31689049180906
20
-53.436463182170293
30
0
10
-127.10814695660709
20
-52.588536613426129
30
0
10
-126.70241383672186
20
-51.858626103377041
30
0
10
-126.48661073907337
20
-51.470398124553576
30
0
10
-126.2084565765004
20
-51.107533476438363
30
0
10
-125.84950248860672
20
-50.809383969673192
30
0
10
-125.68078483800598
20
-50.669246035587108
30
0
10
-125.4984001569704
20
-50.54699841630562
30
0
10
-125.30390135432424
20
-50.444319053553812
30
0
10
-125.10651672832395
20
-50.340116213541606
30
0
10
-124.90080976330003
20
-50.258212303391936
30
0
10
-124.69002357483961
20
-50.196563481945304
30
0
10
-124.66711089833754
20
-50.189862191349093
30
0
10
-124.64419822183547
20
-50.183160900752881
30
0
10
-124.62128554533348
20
-50.17645961015667
30
0
0
LINE
5
20D
100
AcDbEntity
8
PERIMETER
100
AcDbLine
10
-124.62128554533349
20
-50.17645961015667
30
0
11
-95.238214420856224
21
-50.176459610156421
31
0
0
LINE
5
20E
100
AcDbEntity
8
PERIMETER
100
AcDbLine
10
-95.238214420856224
20
-50.176459610156421
30
0
11
-51.150135465574529
21
-44.013030682612211
31
0
0
SPLINE
5
20F
100
AcDbEntity
8
PERIMETER
100
AcDbSpline
70
0
71
3
72
20
73
16
74
0
42
0.000000001
43
0.0000000001
44
0.0000000001
40
-0.0065369069131877679
40
-0.0065369069131877679
40
-0.0065369069131877679
40
-0.0065369069131877679
40
0
40
0
40
0
40
0.098723848550291163
40
0.098723848550291163
40
0.098723848550291163
40
0.20306043087421585
40
0.20306043087421585
40
0.20306043087421585
40
0.33596326149687294
40
0.33596326149687294
40
0.33596326149687294
40
0.50001885836365756
40
0.50001885836365756
40
0.50001885836365756
40
0.50001885836365756
10
-51.150135465574529
20
-44.013030682612211
30
0
10
-51.128505365657375
20
-44.015663049469822
30
0
10
-51.106875265740541
20
-44.018295416327362
30
0
10
-51.085245165823707
20
-44.020927783184938
30
0
10
-50.695691767276081
20
-44.068336138186908
30
0
10
-50.321797150263556
20
-44.190470465523042
30
0
10
-49.979022649833631
20
-44.385473731663012
30
0
10
-49.61674601657478
20
-44.591571695902168
30
0
10
-49.312888251526346
20
-44.863572992604972
30
0
10
-49.057446712000576
20
-45.164426645979496
30
0
10
-48.732030194329248
20
-45.547695351576749
30
0
10
-48.481364960769007
20
-45.980267232431054
30
0
10
-48.280874933429203
20
-46.410388647898948
30
0
10
-48.033372469798259
20
-46.9413682252938
30
0
10
-47.8461544452556
20
-47.505734786862632
30
0
10
-47.699647635622462
20
-48.05322456866385
30
0
0
LINE
5
210
100
AcDbEntity
8
PERIMETER
100
AcDbLine
10
-47.699647635622462
20
-48.053224568663886
30
0
11
-47.699639794404334
21
-48.053253871098498
31
0
0
ARC
5
211
100
AcDbEntity
8
PERIMETER
100
AcDbCircle
10
-44.705007564269152
20
-47.251886501036147
30
0
40
3.1000019121873228
210
0
220
0
230
1
100
AcDbArc
50
-165.01860106641186
51
0.93516625061559178
0
SPLINE
5
212
100
AcDbEntity
8
PERIMETER
100
AcDbSpline
70
0
71
3
72
20
73
16
74
0
42
0.000000001
43
0.0000000001
44
0.0000000001
40
2.5400618988719393e-07
40
2.5400618988719393e-07
40
2.5400618988719393e-07
40
2.5400618988719393e-07
40
0.29021441929424963
40
0.29021441929424963
40
0.29021441929424963
40
0.42223926041605953
40
0.42223926041605953
40
0.42223926041605953
40
0.48290079401904934
40
0.48290079401904934
40
0.48290079401904934
40
0.54364672345723164
40
0.54364672345723164
40
0.54364672345723164
40
0.55104437027715414
40
0.55104437027715414
40
0.55104437027715414
40
0.55104437027715414
10
-41.605418561436665
20
-47.201291352918027
30
0
10
-41.621813018962825
20
-46.197237930145612
30
0
10
-41.533980589258839
20
-45.171560997864653
30
0
10
-41.18735112129027
20
-44.27810701553387
30
0
10
-41.029621594987695
20
-43.871551640331532
30
0
10
-40.809517335912524
20
-43.474453261743413
30
0
10
-40.496817058724481
20
-43.131098090305819
30
0
10
-40.353150303061938
20
-42.973347275487264
30
0
10
-40.192924414582372
20
-42.830577992210976
30
0
10
-40.016720958454712
20
-42.706061613548947
30
0
10
-39.840272340290319
20
-42.581371988063843
30
0
10
-39.652039237299199
20
-42.47797453870362
30
0
10
-39.455421145167797
20
-42.395100677749582
30
0
10
-39.435342186106936
20
-42.386637464404018
30
0
10
-39.415263227046076
20
-42.378174251058418
30
0
10
-39.395184267985179
20
-42.369711037712854
30
0
0
LINE
5
213
100
AcDbEntity
8
PERIMETER
100
AcDbLine
10
-39.395184267985215
20
-42.369711037712854
30
0
11
0.0085620440478351156
21
-36.861142834514027
31
0
0
LINE
5
214
100
AcDbEntity
8
PERIMETER
100
AcDbLine
10
0.0085620440478351156
20
-36.861142834514027
30
0
11
20.574259125759404
21
-40.44562463932067
31
0
0
SPLINE
5
215
100
AcDbEntity
8
PERIMETER
100
AcDbSpline
70
0
71
3
72
20
73
16
74
0
42
0.000000001
43
0.0000000001
44
0.0000000001
40
-0.0038922533082985551
40
-0.0038922533082985551
40
-0.0038922533082985551
40
-0.0038922533082985551
40
0
40
0
40
0
40
0.086009046387619942
40
0.086009046387619942
40
0.086009046387619942
40
0.17180235569453778
40
0.17180235569453778
40
0.17180235569453778
40
0.29490588502747317
40
0.29490588502747317
40
0.29490588502747317
40
0.49828377203424268
40
0.49828377203424268
40
0.49828377203424268
40
0.49828377203424268
10
20.574259125759404
20
-40.44562463932067
30
0
10
20.586541892072887
20
-40.449803507412554
30
0
10
20.598824658386512
20
-40.453982375504438
30
0
10
20.611107424700101
20
-40.458161243596322
30
0
10
20.939663381146367
20
-40.56994322883785
30
0
10
21.246617283893734
20
-40.742195376065133
30
0
10
21.512682712266695
20
-40.977288831364049
30
0
10
21.778086678721351
20
-41.211797823777694
30
0
10
21.983786201091036
20
-41.490677780712382
30
0
10
22.141343119300103
20
-41.787563772589529
30
0
10
22.367460139076414
20
-42.213638212605638
30
0
10
22.495007010984942
20
-42.671763654057031
30
0
10
22.571279795614778
20
-43.111715412845761
30
0
10
22.697316893200501
20
-43.838714473186506
30
0
10
22.696336653947178
20
-44.603025926397564
30
0
10
22.649693511731677
20
-45.301800221758199
30
0
0
LINE
5
216
100
AcDbEntity
8
PERIMETER
100
AcDbLine
10
22.649693511731712
20
-45.301800221758199
30
0
11
22.649691409111448
21
-45.301831721180896
31
0
0
ENDSEC
0
SECTION
2
OBJECTS
0
DICTIONARY
5
C
100
AcDbDictionary
3
ACAD_GROUP
350
D
3
ACAD_MLINESTYLE
350
17
0
DICTIONARY
5
D
100
AcDbDictionary
0
DICTIONARY
5
1A
330
C
100
AcDbDictionary
0
DICTIONARY
5
17
100
AcDbDictionary
0
ENDSEC
0
EOF
