0
SECTION
2
HEADER
9
$INSUNITS
70
4
9
$ACADVER
1
AC1014
9
$HANDSEED
5
FFFF
0
ENDSEC
0
SECTION
2
TABLES
0
TABLE
2
VPORT
5
8
100
AcDbSymbolTable
0
ENDTAB
0
TABLE
2
LTYPE
5
5
100
AcDbSymbolTable
0
LTYPE
5
14
100
AcDbSymbolTableRecord
100
AcDbLinetypeTableRecord
2
BYBLOCK
70
0
0
LTYPE
5
15
100
AcDbSymbolTableRecord
100
AcDbLinetypeTableRecord
2
BYLAYER
70
0
0
ENDTAB
0
TABLE
2
LAYER
5
2
100
AcDbSymbolTable
70
2
0
LAYER
5
50
100
AcDbSymbolTableRecord
100
AcDbLayerTableRecord
2
0
70
0
6
CONTINUOUS
0
ENDTAB
0
TABLE
2
STYLE
5
3
100
AcDbSymbolTable
70
1
0
STYLE
5
11
100
AcDbSymbolTableRecord
100
AcDbTextStyleTableRecord
2
STANDARD
70
0
0
ENDTAB
0
TABLE
2
VIEW
5
6
100
AcDbSymbolTable
70
0
0
ENDTAB
0
TABLE
2
UCS
5
7
100
AcDbSymbolTable
70
0
0
ENDTAB
0
TABLE
2
APPID
5
9
100
AcDbSymbolTable
70
2
0
APPID
5
12
100
AcDbSymbolTableRecord
100
AcDbRegAppTableRecord
2
ACAD
70
0
0
ENDTAB
0
TABLE
2
DIMSTYLE
5
A
100
AcDbSymbolTable
70
1
0
ENDTAB
0
TABLE
2
BLOCK_RECORD
5
1
100
AcDbSymbolTable
70
1
0
BLOCK_RECORD
5
1F
100
AcDbSymbolTableRecord
100
AcDbBlockTableRecord
2
*MODEL_SPACE
0
BLOCK_RECORD
5
1B
100
AcDbSymbolTableRecord
100
AcDbBlockTableRecord
2
*PAPER_SPACE
0
ENDTAB
0
ENDSEC
0
SECTION
2
BLOCKS
0
BLOCK
5
20
100
AcDbEntity
100
AcDbBlockBegin
2
*MODEL_SPACE
0
ENDBLK
5
21
100
AcDbEntity
100
AcDbBlockEnd
0
BLOCK
5
1C
100
AcDbEntity
100
AcDbBlockBegin
2
*PAPER_SPACE
0
ENDBLK
5
1D
100
AcDbEntity
100
AcDbBlockEnd
0
ENDSEC
0
SECTION
2
ENTITIES
0
LWPOLYLINE
5
100
100
AcDbEntity
8
0
100
AcDbPolyline
90
80
70
1
43
0.0
10
-111.19999999999982
20
95.250000000000028
10
-76.875000000000355
20
95.250000000000028
42
0.41421356237309842
10
-76.10000000000035
20
96.025000000000034
10
-76.10000000000035
20
98.875000000000085
42
-0.41421356237309503
10
-74.800000000000338
20
100.1750000000001
10
-38.558140648667667
20
100.1750000000001
42
0.2074484990611479
10
-37.609258916194747
20
100.58639240506338
42
-0.43355498476205823
10
-33.740741083805197
20
100.58639240506338
42
0.20744849906114765
10
-32.791859351332278
20
100.1750000000001
10
-9.2250000000002075
20
100.17500000000011
42
-0.41421356237309381
10
-7.9250000000001952
20
98.875000000000085
10
-7.9250000000002121
20
96.025000000000034
42
0.41421356237309503
10
-7.1500000000002117
20
95.250000000000028
10
-0.77500000000000036
20
95.250000000000028
42
-0.41421356237309598
10
0
20
94.475000000000023
10
-3.7470027081099033e-15
20
0.77500000000000613
42
-0.4142135623730987
10
-0.77500000000000013
20
2.6857068595455485e-16
10
-7.1500000000000155
20
0
42
0.41421356237309548
10
-7.9250000000000007
20
-0.77500000000000124
10
-7.9250000000000087
20
-3.6250000000000515
42
-0.41421356237309742
10
-9.2250000000000121
20
-4.9250000000000504
10
-32.791859351332263
20
-4.925000000000054
42
0.20744849906114726
10
-33.740741083805176
20
-5.3363924050633402
42
-0.43355498476205884
10
-37.609258916194733
20
-5.3363924050633393
42
0.2074484990611471
10
-38.558140648667646
20
-4.9250000000000504
10
-74.800000000000352
20
-4.9250000000000558
42
-0.41421356237309531
10
-76.10000000000035
20
-3.625000000000056
10
-76.10000000000035
20
-0.77500000000000135
42
0.41421356237309553
10
-76.875000000000341
20
0
10
-111.19999999999982
20
0
42
0.41421356237309548
10
-111.97499999999984
20
-0.77500000000000124
10
-111.97499999999982
20
-3.6250000000000511
42
-0.41421356237309293
10
-113.27499999999984
20
-4.9250000000000504
10
-149.51685935133256
20
-4.925000000000054
42
0.20744849906114227
10
-150.46574108380545
20
-5.336392405063326
42
-0.43355498476205262
10
-154.33425891619498
20
-5.336392405063326
42
0.20744849906114243
10
-155.28314064866788
20
-4.9250000000000504
10
-191.52500000000063
20
-4.9250000000000496
42
-0.41421356237309592
10
-192.82500000000061
20
-3.625000000000056
10
-192.82500000000061
20
-0.77500000000000135
42
0.41421356237309553
10
-193.60000000000065
20
0
10
-227.92499999999984
20
0
42
0.41421356237309548
10
-228.69999999999982
20
-0.77500000000000124
10
-228.69999999999982
20
-3.6250000000000515
42
-0.41421356237309653
10
-229.99999999999983
20
-4.9250000000000504
10
-266.24185935133261
20
-4.9250000000000549
42
0.20744849906114385
10
-267.19074108380551
20
-5.3363924050633269
42
-0.43355498476204385
10
-271.05925891619501
20
-5.3363924050633358
42
0.20744849906114629
10
-272.0081406486679
20
-4.9250000000000504
10
-295.57500000000095
20
-4.9250000000000309
42
-0.41421356237310053
10
-296.87500000000091
20
-3.6250000000000515
10
-296.87500000000097
20
-0.77500000000000135
42
0.41421356237310897
10
-297.650000000001
20
0
10
-304.02500000000003
20
-1.3322676295501878e-14
42
-0.41421356237307322
10
-304.80000000000007
20
0.77500000000000568
10
-304.80000000000007
20
94.475000000000023
42
-0.41421356237306817
10
-304.02500000000003
20
95.250000000000028
10
-297.65000000000094
20
95.250000000000028
42
0.41421356237309503
10
-296.87500000000091
20
96.025000000000034
10
-296.87500000000091
20
98.875000000000085
42
-0.41421356237310303
10
-295.57500000000095
20
100.1750000000001
10
-272.00814064866802
20
100.1750000000001
42
0.20744849906114618
10
-271.05925891619512
20
100.58639240506338
42
-0.43355498476205617
10
-267.19074108380562
20
100.58639240506338
42
0.20744849906114618
10
-266.24185935133266
20
100.1750000000001
10
-229.99999999999986
20
100.17500000000014
42
-0.41421356237310303
10
-228.69999999999982
20
98.875000000000085
10
-228.69999999999982
20
96.025000000000034
42
0.41421356237309503
10
-227.92499999999984
20
95.250000000000028
10
-193.60000000000065
20
95.250000000000028
42
0.41421356237309503
10
-192.82500000000061
20
96.025000000000034
10
-192.82500000000056
20
98.875000000000085
42
-0.41421356237310303
10
-191.5250000000006
20
100.1750000000001
10
-155.28314064866817
20
100.1750000000001
42
0.20744849906116891
10
-154.33425891619518
20
100.58639240506346
42
-0.43355498476211524
10
-150.46574108380526
20
100.58639240506346
42
0.20744849906116891
10
-149.51685935133227
20
100.1750000000001
10
-113.27499999999985
20
100.1750000000001
42
-0.41421356237309503
10
-111.97499999999984
20
98.875000000000085
10
-111.97499999999982
20
96.025000000000034
42
0.41421356237309503
0
LWPOLYLINE
5
101
100
AcDbEntity
8
0
100
AcDbPolyline
90
12
70
1
43
0.0
10
-11.754000000000016
20
0
10
-72.271000000000129
20
0
42
0.41421356237309503
10
-73.046000000000106
20
-0.7749999999999968
10
-73.04600000000012
20
-1.5000000000000477
42
0.41421356237309515
10
-72.271000000000129
20
-2.2750000000000448
10
-38.002015255643975
20
-2.2750000000000452
42
-0.47449786780807912
10
-37.242673435381192
20
-3.2050000000000449
42
1.2247448713915885
10
-34.107326564618717
20
-3.2050000000000449
42
-0.47449786780807912
10
-33.347984744355934
20
-2.2750000000000448
10
-11.754000000000016
20
-2.2750000000000452
42
0.41421356237309737
10
-10.979000000000003
20
-1.5000000000000435
10
-10.979000000000013
20
-0.77499999999999691
42
0.4142135623730947
0
LWPOLYLINE
5
102
100
AcDbEntity
8
0
100
AcDbPolyline
90
8
70
1
43
0.0
10
-73.125000000000014
20
2.5250000000000039
10
-60.225000000000009
20
2.5250000000000039
42
0.41421356237310364
10
-59.675000000000011
20
3.0750000000000055
10
-59.675000000000011
20
15.975000000000005
42
0.41421356237310336
10
-60.225000000000009
20
16.525000000000006
10
-73.125000000000014
20
16.525000000000006
42
0.41421356237310336
10
-73.675000000000011
20
15.975000000000005
10
-73.675000000000011
20
3.0750000000000055
42
0.41421356237310364
0
LWPOLYLINE
5
103
100
AcDbEntity
8
0
100
AcDbPolyline
90
8
70
1
43
0.0
10
-82.65000000000002
20
21.575000000000006
10
-69.750000000000028
20
21.575000000000006
42
0.41421356237310453
10
-69.200000000000031
20
22.125000000000007
10
-69.200000000000031
20
35.025000000000006
42
0.41421356237310453
10
-69.750000000000028
20
35.57500000000001
10
-82.65000000000002
20
35.57500000000001
42
0.41421356237308082
10
-83.200000000000045
20
35.025000000000006
10
-83.200000000000017
20
22.125000000000007
42
0.41421356237308082
0
LWPOLYLINE
5
104
100
AcDbEntity
8
0
100
AcDbPolyline
90
12
70
1
43
0.0
10
-73.046000000000362
20
96.750000000000085
10
-73.046000000000348
20
96.025000000000034
42
0.41421356237309503
10
-72.271000000000384
20
95.250000000000028
10
-11.754000000000246
20
95.250000000000028
42
0.41421356237309503
10
-10.97900000000025
20
96.025000000000034
10
-10.979000000000244
20
96.750000000000085
42
0.41421356237309503
10
-11.754000000000246
20
97.525000000000091
10
-33.347984744355955
20
97.525000000000091
42
-0.47449786780806946
10
-34.107326564618738
20
98.455000000000084
42
1.2247448713915883
10
-37.242673435381214
20
98.455000000000084
42
-0.4744978678080698
10
-38.002015255643983
20
97.525000000000091
10
-72.271000000000384
20
97.525000000000091
42
0.4142135623730917
0
LWPOLYLINE
5
105
100
AcDbEntity
8
0
100
AcDbPolyline
90
8
70
1
43
0.0
10
-15.975000000000005
20
2.5250000000000039
10
-3.0750000000000055
20
2.5250000000000039
42
0.41421356237309559
10
-2.5250000000000039
20
3.0750000000000055
10
-2.5250000000000057
20
15.975000000000005
42
0.4142135623730977
10
-3.0750000000000055
20
16.525000000000006
10
-15.975000000000005
20
16.525000000000006
42
0.41421356237309975
10
-16.525000000000006
20
15.975000000000005
10
-16.525000000000006
20
3.0750000000000055
42
0.41421356237309803
0
LWPOLYLINE
5
106
100
AcDbEntity
8
0
100
AcDbPolyline
90
8
70
1
43
0.0
10
-20.737500000000008
20
21.575000000000017
10
-7.8375000000000083
20
21.575000000000017
42
0.41421356237309326
10
-7.2875000000000068
20
22.125000000000018
10
-7.2875000000000076
20
35.02500000000002
42
0.41421356237309326
10
-7.8375000000000083
20
35.575000000000017
10
-20.737500000000008
20
35.575000000000017
42
0.41421356237309037
10
-21.287500000000009
20
35.02500000000002
10
-21.287500000000009
20
22.125000000000018
42
0.41421356237309037
0
LWPOLYLINE
5
107
100
AcDbEntity
8
0
100
AcDbPolyline
90
8
70
1
43
0.0
10
-23.118750000000013
20
40.625000000000028
10
-5.4562500000000069
20
40.625000000000028
42
0.41421356237310392
10
-4.9062500000000053
20
41.175000000000033
10
-4.9062500000000071
20
54.075000000000024
42
0.41421356237310392
10
-5.4562500000000069
20
54.625000000000028
10
-23.118750000000013
20
54.625000000000021
42
0.41421356237310214
10
-23.66875000000001
20
54.075000000000024
10
-23.668750000000017
20
41.175000000000033
42
0.41421356237309742
0
LWPOLYLINE
5
108
100
AcDbEntity
8
0
100
AcDbPolyline
90
8
70
1
43
0.0
10
-18.356249999999989
20
59.675000000000004
10
-5.4562499999999865
20
59.675000000000004
42
0.41421356237310392
10
-4.9062499999999858
20
60.225000000000009
10
-4.9062499999999867
20
73.125
42
0.41421356237310392
10
-5.4562499999999865
20
73.675000000000011
10
-18.356249999999989
20
73.674999999999997
42
0.41421356237310336
10
-18.906249999999989
20
73.125
10
-18.906249999999986
20
60.225000000000009
42
0.41421356237310336
0
LWPOLYLINE
5
109
100
AcDbEntity
8
0
100
AcDbPolyline
90
8
70
1
43
0.0
10
-20.737499999999997
20
78.724999999999994
10
-5.4562499999999865
20
78.724999999999994
42
0.41421356237310392
10
-4.9062499999999858
20
79.275000000000006
10
-4.9062499999999867
20
92.174999999999997
42
0.41421356237308204
10
-5.4562499999999865
20
92.725000000000009
10
-20.737499999999997
20
92.724999999999994
42
0.41421356237307849
10
-21.287499999999998
20
92.174999999999997
10
-21.287499999999998
20
79.275000000000006
42
0.41421356237309742
0
LWPOLYLINE
5
110
100
AcDbEntity
8
0
100
AcDbPolyline
90
8
70
1
43
0.0
10
-40.337499999999871
20
73.125000000000028
10
-40.337499999999871
20
60.225000000000023
42
0.41421356237311163
10
-39.787499999999874
20
59.675000000000026
10
-26.887499999999875
20
59.675000000000026
42
0.41421356237310214
10
-26.337499999999871
20
60.225000000000023
10
-26.337499999999871
20
73.125000000000028
42
0.41421356237309742
10
-26.887499999999875
20
73.67500000000004
10
-39.787499999999874
20
73.67500000000004
42
0.41421356237311163
0
LWPOLYLINE
5
111
100
AcDbEntity
8
0
100
AcDbPolyline
90
8
70
1
43
0.0
10
-35.57500000000001
20
15.975000000000005
10
-35.57500000000001
20
3.0750000000000055
42
0.41421356237309326
10
-35.025000000000006
20
2.5250000000000039
10
-22.125000000000007
20
2.5250000000000057
42
0.41421356237309326
10
-21.575000000000006
20
3.0750000000000055
10
-21.575000000000006
20
15.975000000000005
42
0.41421356237309387
10
-22.125000000000007
20
16.525000000000006
10
-35.025000000000006
20
16.525000000000006
42
0.41421356237309387
0
LWPOLYLINE
5
112
100
AcDbEntity
8
0
100
AcDbPolyline
90
8
70
1
43
0.0
10
-29.268749999999976
20
92.725000000000009
10
-44.549999999999983
20
92.725000000000009
42
0.41421356237309975
10
-45.09999999999998
20
92.174999999999997
10
-45.09999999999998
20
79.275000000000006
42
0.41421356237311396
10
-44.549999999999983
20
78.724999999999994
10
-29.268749999999976
20
78.725000000000009
42
0.41421356237310453
10
-28.718749999999975
20
79.275000000000006
10
-28.718749999999975
20
92.174999999999997
42
0.41421356237308082
0
LWPOLYLINE
5
113
100
AcDbEntity
8
0
100
AcDbPolyline
90
8
70
1
43
0.0
10
-68.362499999999983
20
78.724999999999994
10
-53.081249999999969
20
78.724999999999994
42
0.41421356237311396
10
-52.531249999999972
20
79.275000000000006
10
-52.531249999999972
20
92.174999999999997
42
0.41421356237309975
10
-53.081249999999969
20
92.725000000000009
10
-68.362499999999983
20
92.724999999999994
42
0.41421356237309975
10
-68.91249999999998
20
92.174999999999997
10
-68.91249999999998
20
79.275000000000006
42
0.41421356237311396
0
LWPOLYLINE
5
114
100
AcDbEntity
8
0
100
AcDbPolyline
90
8
70
1
43
0.0
10
-59.387499999999861
20
73.125000000000057
10
-59.387499999999861
20
60.225000000000044
42
0.41421356237311396
10
-58.837499999999864
20
59.675000000000047
10
-45.937499999999858
20
59.675000000000047
42
0.41421356237311396
10
-45.387499999999861
20
60.225000000000044
10
-45.387499999999861
20
73.125000000000057
42
0.41421356237311396
10
-45.937499999999858
20
73.675000000000054
10
-58.837499999999864
20
73.675000000000054
42
0.41421356237311396
0
LWPOLYLINE
5
115
100
AcDbEntity
8
0
100
AcDbPolyline
90
8
70
1
43
0.0
10
-68.912500000000023
20
54.074999999999974
10
-68.912500000000023
20
41.174999999999983
42
0.41421356237311396
10
-68.36250000000004
20
40.624999999999972
10
-55.46250000000002
20
40.624999999999986
42
0.41421356237311396
10
-54.912500000000023
20
41.174999999999983
10
-54.912500000000023
20
54.074999999999974
42
0.41421356237311396
10
-55.46250000000002
20
54.624999999999979
10
-68.36250000000004
20
54.624999999999972
42
0.41421356237311396
0
LWPOLYLINE
5
116
100
AcDbEntity
8
0
100
AcDbPolyline
90
8
70
1
43
0.0
10
-54.625000000000014
20
15.975000000000005
10
-54.625000000000014
20
3.0750000000000055
42
0.41421356237310364
10
-54.075000000000003
20
2.5250000000000039
10
-41.175000000000011
20
2.5250000000000057
42
0.41421356237310364
10
-40.625000000000007
20
3.0750000000000055
10
-40.625000000000014
20
15.975000000000005
42
0.41421356237310336
10
-41.175000000000011
20
16.525000000000006
10
-54.075000000000003
20
16.525000000000006
42
0.41421356237310336
0
LWPOLYLINE
5
117
100
AcDbEntity
8
0
100
AcDbPolyline
90
8
70
1
43
0.0
10
-49.862500000000026
20
54.074999999999974
10
-49.862500000000026
20
41.174999999999983
42
0.41421356237311396
10
-49.312500000000021
20
40.624999999999972
10
-36.412500000000023
20
40.624999999999986
42
0.41421356237310453
10
-35.862500000000026
20
41.174999999999983
10
-35.862500000000026
20
54.074999999999974
42
0.41421356237310453
10
-36.412500000000023
20
54.624999999999979
10
-49.312500000000021
20
54.624999999999972
42
0.41421356237311396
0
LWPOLYLINE
5
118
100
AcDbEntity
8
0
100
AcDbPolyline
90
8
70
1
43
0.0
10
-64.150000000000034
20
35.025000000000006
10
-64.150000000000034
20
22.125000000000007
42
0.41421356237310453
10
-63.60000000000003
20
21.575000000000006
10
-50.700000000000038
20
21.575000000000006
42
0.41421356237310453
10
-50.150000000000034
20
22.125000000000007
10
-50.150000000000041
20
35.025000000000006
42
0.41421356237310453
10
-50.700000000000038
20
35.57500000000001
10
-63.60000000000003
20
35.57500000000001
42
0.41421356237310453
0
LWPOLYLINE
5
119
100
AcDbEntity
8
0
100
AcDbPolyline
90
8
70
1
43
0.0
10
-45.100000000000037
20
35.025000000000006
10
-45.100000000000037
20
22.125000000000007
42
0.41421356237309975
10
-44.550000000000026
20
21.575000000000006
10
-31.650000000000027
20
21.575000000000006
42
0.4142135623730856
10
-31.100000000000026
20
22.125000000000007
10
-31.100000000000026
20
35.025000000000006
42
0.4142135623730856
10
-31.650000000000027
20
35.57500000000001
10
-44.550000000000026
20
35.57500000000001
42
0.41421356237309975
0
LWPOLYLINE
5
120
100
AcDbEntity
8
0
100
AcDbPolyline
90
8
70
1
43
0.0
10
-77.887499999999861
20
59.675000000000047
10
-64.987499999999869
20
59.675000000000047
42
0.41421356237311396
10
-64.437499999999858
20
60.225000000000044
10
-64.437499999999872
20
73.125000000000057
42
0.41421356237311396
10
-64.987499999999869
20
73.675000000000054
10
-77.887499999999861
20
73.675000000000054
42
0.41421356237311396
10
-78.437499999999872
20
73.125000000000057
10
-78.437499999999858
20
60.225000000000044
42
0.41421356237311396
0
LWPOLYLINE
5
121
100
AcDbEntity
8
0
100
AcDbPolyline
90
12
70
1
43
0.0
10
-266.7979847443562
20
-2.2750000000000448
10
-232.52899999999985
20
-2.2750000000000448
42
0.41421356237309553
10
-231.75399999999991
20
-1.5000000000000435
10
-231.75399999999985
20
-0.77500000000000135
42
0.41421356237309553
10
-232.52899999999985
20
0
10
-293.04599999999959
20
-5.5511151231257827e-15
42
0.41421356237309503
10
-293.82099999999957
20
-0.77500000000000568
10
-293.82099999999957
20
-1.5000000000000389
42
0.41421356237309515
10
-293.04599999999959
20
-2.2750000000000448
10
-271.45201525564431
20
-2.2750000000000377
42
-0.47449786780804193
10
-270.69267343538149
20
-3.2050000000000316
42
1.2247448713915594
10
-267.55732656461902
20
-3.2050000000000249
42
-0.4744978678080648
0
LWPOLYLINE
5
122
100
AcDbEntity
8
0
100
AcDbPolyline
90
12
70
1
43
0.0
10
-115.80399999999985
20
97.525000000000091
42
-0.41421356237309503
10
-115.02899999999984
20
96.750000000000085
10
-115.02899999999984
20
96.025000000000034
42
-0.41421356237309503
10
-115.80399999999985
20
95.250000000000028
10
-188.99600000000061
20
95.250000000000028
42
-0.41421356237309503
10
-189.77100000000061
20
96.025000000000034
10
-189.77100000000061
20
96.750000000000085
42
-0.41421356237309503
10
-188.99600000000061
20
97.525000000000091
10
-154.72701525564418
20
97.525000000000091
42
0.4744978678081212
10
-153.96767343538141
20
98.455000000000169
42
-1.2247448713917304
10
-150.83232656461902
20
98.455000000000169
42
0.47449786780811987
10
-150.07298474435626
20
97.525000000000063
0
LWPOLYLINE
5
123
100
AcDbEntity
8
0
100
AcDbPolyline
90
12
70
1
43
0.0
10
-293.04599999999959
20
95.250000000000028
10
-232.52899999999985
20
95.250000000000028
42
0.41421356237309503
10
-231.75399999999991
20
96.025000000000034
10
-231.75399999999985
20
96.750000000000085
42
0.41421356237309503
10
-232.52899999999985
20
97.525000000000091
10
-266.79798474435637
20
97.525000000000063
42
-0.47449786780809233
10
-267.55732656461913
20
98.455000000000084
42
1.2247448713915847
10
-270.69267343538166
20
98.455000000000084
42
-0.47449786780809511
10
-271.45201525564437
20
97.525000000000091
10
-293.04599999999959
20
97.525000000000091
42
0.41421356237309503
10
-293.82099999999957
20
96.750000000000085
10
-293.82099999999957
20
96.025000000000034
42
0.41421356237309503
0
LWPOLYLINE
5
124
100
AcDbEntity
8
0
100
AcDbPolyline
90
12
70
1
43
0.0
10
-115.80399999999983
20
5.5511151231257827e-15
42
-0.41421356237309553
10
-115.02899999999983
20
-0.77500000000000135
10
-115.02899999999983
20
-1.5000000000000435
42
-0.41421356237309553
10
-115.80399999999983
20
-2.2750000000000452
10
-150.07298474435618
20
-2.2750000000000448
42
0.47449786780806591
10
-150.83232656461897
20
-3.2050000000000392
42
-1.2247448713915636
10
-153.96767343538147
20
-3.2050000000000409
42
0.4744978678080668
10
-154.72701525564423
20
-2.2750000000000354
10
-188.99600000000061
20
-2.2750000000000536
42
-0.41421356237309515
10
-189.77100000000061
20
-1.5000000000000477
10
-189.77100000000061
20
-0.7749999999999968
42
-0.41421356237309503
10
-188.99600000000061
20
3.3306690738754696e-15
0
LWPOLYLINE
5
125
100
AcDbEntity
8
0
100
AcDbPolyline
90
8
70
1
43
0.0
10
-188.81250000000006
20
54.624999999999979
10
-201.71250000000003
20
54.624999999999979
42
0.41421356237313289
10
-202.26250000000005
20
54.074999999999974
10
-202.26250000000005
20
41.174999999999983
42
0.41421356237313289
10
-201.71250000000003
20
40.624999999999972
10
-188.81250000000006
20
40.624999999999986
42
0.41421356237313289
10
-188.26250000000005
20
41.174999999999983
10
-188.26250000000005
20
54.074999999999974
42
0.41421356237313289
0
LWPOLYLINE
5
126
100
AcDbEntity
8
0
100
AcDbPolyline
90
8
70
1
43
0.0
10
-184.05000000000004
20
35.57500000000001
10
-196.95000000000005
20
35.57500000000001
42
0.41421356237310686
10
-197.50000000000003
20
35.025000000000006
10
-197.50000000000003
20
22.125000000000007
42
0.41421356237310686
10
-196.95000000000005
20
21.575000000000006
10
-184.05000000000004
20
21.575000000000006
42
0.41421356237310686
10
-183.50000000000006
20
22.125000000000007
10
-183.50000000000006
20
35.025000000000006
42
0.41421356237310686
0
LWPOLYLINE
5
127
100
AcDbEntity
8
0
100
AcDbPolyline
90
8
70
1
43
0.0
10
-193.02500000000006
20
3.0750000000000055
42
-0.41421356237312612
10
-193.57500000000005
20
2.5250000000000057
10
-206.47500000000005
20
2.5250000000000212
42
-0.41421356237312612
10
-207.02500000000003
20
3.0750000000000055
10
-207.02500000000003
20
15.975000000000005
42
-0.41421356237312579
10
-206.47500000000005
20
16.525000000000006
10
-193.57500000000005
20
16.524999999999991
42
-0.41421356237312579
10
-193.02500000000006
20
15.975000000000005
0
LWPOLYLINE
5
128
100
AcDbEntity
8
0
100
AcDbPolyline
90
16
70
1
43
0.0
10
-203.92499999999995
20
78.725000000000023
42
-0.41421356237314239
10
-203.64999999999995
20
78.450000000000045
10
-203.64999999999995
20
77.775000000000063
42
0.41421356237307771
10
-202.59999999999994
20
76.725000000000065
10
-197.44999999999993
20
76.725000000000051
42
0.41421356237307771
10
-196.39999999999992
20
77.775000000000063
10
-196.39999999999992
20
78.45000000000006
42
-0.41421356237309503
10
-196.12499999999997
20
78.725000000000037
10
-195.95624999999987
20
78.725000000000051
42
0.41421356237313289
10
-195.40624999999989
20
79.275000000000063
10
-195.40624999999989
20
92.17500000000004
42
0.41421356237310453
10
-195.95624999999987
20
92.725000000000051
10
-208.85624999999987
20
92.725000000000051
42
0.41421356237310453
10
-209.40624999999986
20
92.17500000000004
10
-209.40624999999986
20
79.275000000000063
42
0.41421356237313289
10
-208.85624999999987
20
78.725000000000051
0
LWPOLYLINE
5
129
100
AcDbEntity
8
0
100
AcDbPolyline
90
8
70
1
43
0.0
10
-211.78749999999985
20
73.125000000000057
10
-211.78749999999985
20
60.225000000000044
42
0.41421356237313289
10
-211.23749999999987
20
59.675000000000047
10
-198.33749999999986
20
59.675000000000047
42
0.41421356237313289
10
-197.78749999999988
20
60.225000000000044
10
-197.78749999999988
20
73.125000000000057
42
0.41421356237313289
10
-198.33749999999986
20
73.675000000000054
10
-211.23749999999987
20
73.675000000000054
42
0.41421356237313289
0
LWPOLYLINE
5
130
100
AcDbEntity
8
0
100
AcDbPolyline
90
8
70
1
43
0.0
10
-216.55000000000004
20
35.025000000000006
10
-216.55000000000004
20
22.125000000000007
42
0.41421356237310686
10
-216.00000000000006
20
21.575000000000006
10
-203.10000000000005
20
21.575000000000006
42
0.41421356237310686
10
-202.55000000000007
20
22.125000000000007
10
-202.55000000000007
20
35.025000000000006
42
0.41421356237310686
10
-203.10000000000005
20
35.57500000000001
10
-216.00000000000006
20
35.57500000000001
42
0.41421356237310686
0
LWPOLYLINE
5
131
100
AcDbEntity
8
0
100
AcDbPolyline
90
8
70
1
43
0.0
10
-221.31250000000006
20
54.074999999999974
10
-221.31250000000006
20
41.174999999999983
42
0.41421356237313289
10
-220.76250000000005
20
40.624999999999972
10
-207.86250000000007
20
40.624999999999986
42
0.41421356237313289
10
-207.31250000000006
20
41.174999999999983
10
-207.31250000000006
20
54.074999999999974
42
0.41421356237313289
10
-207.86250000000007
20
54.624999999999979
10
-220.76250000000005
20
54.624999999999972
42
0.41421356237313289
0
LWPOLYLINE
5
132
100
AcDbEntity
8
0
100
AcDbPolyline
90
8
70
1
43
0.0
10
-226.07500000000002
20
15.975000000000005
10
-226.07500000000002
20
3.0750000000000055
42
0.41421356237312612
10
-225.52500000000003
20
2.5250000000000039
10
-212.62500000000003
20
2.5250000000000057
42
0.41421356237312612
10
-212.07500000000005
20
3.0750000000000055
10
-212.07500000000005
20
15.975000000000005
42
0.41421356237312579
10
-212.62500000000003
20
16.525000000000006
10
-225.52500000000003
20
16.525000000000006
42
0.41421356237312579
0
LWPOLYLINE
5
133
100
AcDbEntity
8
0
100
AcDbPolyline
90
8
70
1
43
0.0
10
-217.38749999999987
20
73.675000000000054
10
-230.28749999999988
20
73.675000000000054
42
0.41421356237313289
10
-230.83749999999986
20
73.125000000000057
10
-230.83749999999986
20
60.225000000000044
42
0.41421356237313289
10
-230.28749999999988
20
59.675000000000047
10
-217.38749999999987
20
59.675000000000047
42
0.41421356237313289
10
-216.83749999999989
20
60.225000000000044
10
-216.83749999999989
20
73.125000000000057
42
0.41421356237313289
0
LWPOLYLINE
5
134
100
AcDbEntity
8
0
100
AcDbPolyline
90
8
70
1
43
0.0
10
-283.22499999999997
20
92.174999999999997
10
-283.22499999999997
20
79.274999999999991
42
0.41421356237312812
10
-282.67499999999995
20
78.724999999999994
10
-269.77499999999998
20
78.725000000000009
42
0.41421356237313289
10
-269.22499999999997
20
79.275000000000006
10
-269.22499999999997
20
92.174999999999997
42
0.41421356237309503
10
-269.77499999999998
20
92.725000000000009
10
-282.67499999999995
20
92.724999999999994
42
0.41421356237309503
0
LWPOLYLINE
5
135
100
AcDbEntity
8
0
100
AcDbPolyline
90
8
70
1
43
0.0
10
-283.22499999999997
20
73.124999999999986
10
-283.22499999999997
20
60.224999999999994
42
0.41421356237313289
10
-282.67499999999995
20
59.674999999999997
10
-269.77499999999998
20
59.675000000000004
42
0.41421356237312812
10
-269.22499999999997
20
60.225000000000001
10
-269.22499999999997
20
73.125
42
0.41421356237313289
10
-269.77499999999998
20
73.674999999999997
10
-282.67499999999995
20
73.674999999999983
42
0.41421356237312812
0
LWPOLYLINE
5
136
100
AcDbEntity
8
0
100
AcDbPolyline
90
8
70
1
43
0.0
10
-264.17499999999995
20
92.174999999999997
10
-264.17499999999995
20
79.274999999999991
42
0.41421356237312812
10
-263.62499999999994
20
78.724999999999994
10
-250.72499999999994
20
78.725000000000009
42
0.41421356237313289
10
-250.17499999999995
20
79.275000000000006
10
-250.17499999999995
20
92.174999999999997
42
0.41421356237309503
10
-250.72499999999994
20
92.725000000000009
10
-263.62499999999994
20
92.724999999999994
42
0.41421356237309503
0
LWPOLYLINE
5
137
100
AcDbEntity
8
0
100
AcDbPolyline
90
8
70
1
43
0.0
10
-257.03124999999989
20
73.125000000000028
10
-257.03124999999989
20
60.225000000000023
42
0.41421356237313289
10
-256.48124999999987
20
59.675000000000026
10
-243.5812499999999
20
59.67500000000004
42
0.41421356237312812
10
-243.03124999999991
20
60.225000000000037
10
-243.03124999999991
20
73.125000000000028
42
0.41421356237313289
10
-243.5812499999999
20
73.67500000000004
10
-256.48124999999987
20
73.675000000000026
42
0.41421356237312812
0
LWPOLYLINE
5
138
100
AcDbEntity
8
0
100
AcDbPolyline
90
8
70
1
43
0.0
10
-254.65000000000003
20
35.025000000000006
10
-254.65000000000003
20
22.125000000000007
42
0.41421356237310686
10
-254.10000000000002
20
21.575000000000006
10
-241.20000000000005
20
21.575000000000006
42
0.41421356237310686
10
-240.65000000000003
20
22.125000000000007
10
-240.65000000000003
20
35.025000000000006
42
0.41421356237310686
10
-241.20000000000005
20
35.57500000000001
10
-254.10000000000002
20
35.57500000000001
42
0.41421356237310686
0
LWPOLYLINE
5
139
100
AcDbEntity
8
0
100
AcDbPolyline
90
8
70
1
43
0.0
10
-279.84374999999977
20
28.768749999999645
42
-0.41421356237309009
10
-278.79374999999976
20
29.818749999999671
10
-265.89374999999973
20
29.818750000000001
42
-0.41421356237309997
10
-264.84374999999977
20
28.76875000000005
10
-264.8437499999996
20
23.618750000000048
42
-0.41421356237309009
10
-265.89374999999956
20
22.568750000000023
10
-278.79374999999959
20
22.568749999999653
42
-0.41421356237310253
10
-279.8437499999996
20
23.61874999999965
0
LWPOLYLINE
5
140
100
AcDbEntity
8
0
100
AcDbPolyline
90
8
70
1
43
0.0
10
-280.29374999999982
20
31.099999999999632
10
-267.39374999999984
20
31.099999999999987
42
0.41421356237311396
10
-266.84374999999983
20
31.650000000000009
10
-266.84375000000017
20
44.54999999999999
42
0.41421356237312346
10
-267.39375000000018
20
45.099999999999987
10
-280.29375000000022
20
45.09999999999954
42
0.41421356237308082
10
-280.84375000000017
20
44.549999999999521
10
-280.84374999999977
20
31.649999999999821
42
0.41421356237312346
0
LWPOLYLINE
5
141
100
AcDbEntity
8
0
100
AcDbPolyline
90
8
70
1
43
0.0
10
-264.84375000000028
20
47.431250000000055
42
-0.41421356237307771
10
-265.89375000000024
20
46.381250000000023
10
-278.79375000000022
20
46.381249999999675
42
-0.41421356237307527
10
-279.84375000000023
20
47.431249999999643
10
-279.84375000000034
20
52.581249999999649
42
-0.41421356237307771
10
-278.79375000000044
20
53.631249999999682
10
-265.89375000000041
20
53.631250000000037
42
-0.4142135623730876
10
-264.8437500000004
20
52.581250000000061
0
LWPOLYLINE
5
142
100
AcDbEntity
8
0
100
AcDbPolyline
90
8
70
1
43
0.0
10
-259.41250000000008
20
54.074999999999953
10
-259.41250000000008
20
41.174999999999962
42
0.41421356237313289
10
-258.86250000000007
20
40.624999999999957
10
-245.96250000000009
20
40.624999999999964
42
0.41421356237313289
10
-245.41250000000008
20
41.174999999999962
10
-245.41250000000008
20
54.074999999999953
42
0.41421356237313289
10
-245.96250000000009
20
54.624999999999957
10
-258.86250000000007
20
54.62499999999995
42
0.41421356237313289
0
LWPOLYLINE
5
143
100
AcDbEntity
8
0
100
AcDbPolyline
90
24
70
1
43
0.0
10
-274.70625000000018
20
16.525000000000006
42
-0.41421356237315415
10
-274.98125000000016
20
16.79999999999999
10
-274.98125000000016
20
17.475000000000005
42
0.41421356237307833
10
-276.03125000000017
20
18.525000000000006
10
-281.18125000000015
20
18.525000000000006
42
0.41421356237307833
10
-282.23125000000016
20
17.475000000000005
10
-282.23125000000016
20
16.79999999999999
42
-0.41421356237315415
10
-282.50625000000019
20
16.524999999999991
10
-282.67499999999995
20
16.524999999999988
42
0.41421356237312579
10
-283.22499999999997
20
15.974999999999987
10
-283.22499999999997
20
3.0749999999999869
42
0.41421356237312612
10
-282.67499999999995
20
2.5249999999999853
10
-250.72499999999994
20
2.5249999999999888
42
0.41421356237312545
10
-250.17499999999995
20
3.0749999999999877
10
-250.17499999999995
20
15.974999999999987
42
0.41421356237312579
10
-250.72499999999994
20
16.524999999999991
10
-250.89375000000015
20
16.525000000000006
42
-0.41421356237315415
10
-251.16875000000016
20
16.79999999999999
10
-251.16875000000016
20
17.474999999999991
42
0.41421356237307833
10
-252.21875000000014
20
18.524999999999988
10
-257.36875000000015
20
18.524999999999995
42
0.41421356237307833
10
-258.41875000000016
20
17.474999999999994
10
-258.41875000000016
20
16.79999999999999
42
-0.41421356237315415
10
-258.69375000000014
20
16.524999999999991
0
LWPOLYLINE
5
144
100
AcDbEntity
8
0
100
AcDbPolyline
90
8
70
1
43
0.0
10
-244.57500000000005
20
2.5250000000000039
10
-231.67500000000004
20
2.5250000000000039
42
0.41421356237312612
10
-231.12500000000006
20
3.0750000000000055
10
-231.12500000000006
20
15.975000000000005
42
0.41421356237312579
10
-231.67500000000004
20
16.525000000000006
10
-244.57500000000005
20
16.525000000000006
42
0.41421356237312579
10
-245.12500000000003
20
15.975000000000005
10
-245.12500000000003
20
3.0750000000000055
42
0.41421356237312612
0
LWPOLYLINE
5
145
100
AcDbEntity
8
0
100
AcDbPolyline
90
8
70
1
43
0.0
10
-232.66874999999982
20
78.725000000000051
10
-217.38749999999987
20
78.725000000000009
42
0.41421356237313289
10
-216.83749999999989
20
79.27500000000002
10
-216.83749999999989
20
92.175000000000011
42
0.41421356237310453
10
-217.38749999999987
20
92.725000000000009
10
-232.66874999999982
20
92.725000000000051
42
0.41421356237310453
10
-233.2187499999998
20
92.17500000000004
10
-233.2187499999998
20
79.275000000000063
42
0.41421356237313289
0
LWPOLYLINE
5
146
100
AcDbEntity
8
0
100
AcDbPolyline
90
8
70
1
43
0.0
10
-239.81250000000006
20
40.624999999999972
10
-226.91250000000008
20
40.624999999999972
42
0.41421356237313289
10
-226.36250000000007
20
41.174999999999983
10
-226.36250000000007
20
54.074999999999974
42
0.41421356237313289
10
-226.91250000000008
20
54.624999999999979
10
-239.81250000000006
20
54.624999999999972
42
0.41421356237313289
10
-240.36250000000007
20
54.074999999999974
10
-240.36250000000007
20
41.174999999999983
42
0.41421356237313289
0
LWPOLYLINE
5
147
100
AcDbEntity
8
0
100
AcDbPolyline
90
8
70
1
43
0.0
10
-235.05000000000007
20
21.575000000000006
10
-222.15000000000006
20
21.575000000000006
42
0.41421356237310686
10
-221.60000000000008
20
22.125000000000007
10
-221.60000000000008
20
35.025000000000006
42
0.41421356237310686
10
-222.15000000000006
20
35.57500000000001
10
-235.05000000000007
20
35.57500000000001
42
0.41421356237310686
10
-235.60000000000005
20
35.025000000000006
10
-235.60000000000005
20
22.125000000000007
42
0.41421356237310686
0
LWPOLYLINE
5
148
100
AcDbEntity
8
0
100
AcDbPolyline
90
8
70
1
43
0.0
10
-288.82499999999999
20
92.725000000000009
10
-301.72499999999997
20
92.724999999999994
42
0.41421356237309503
10
-302.27499999999998
20
92.174999999999997
10
-302.27499999999998
20
79.274999999999991
42
0.41421356237312812
10
-301.72499999999997
20
78.724999999999994
10
-288.82499999999999
20
78.725000000000009
42
0.41421356237313289
10
-288.27499999999998
20
79.275000000000006
10
-288.27499999999998
20
92.174999999999997
42
0.41421356237309503
0
LWPOLYLINE
5
149
100
AcDbEntity
8
0
100
AcDbPolyline
90
8
70
1
43
0.0
10
-288.82499999999999
20
16.524999999999991
10
-301.72499999999997
20
16.524999999999991
42
0.41421356237312579
10
-302.27499999999998
20
15.974999999999987
10
-302.27499999999998
20
3.0749999999999869
42
0.41421356237312612
10
-301.72499999999997
20
2.5249999999999853
10
-288.82499999999999
20
2.5249999999999888
42
0.41421356237312545
10
-288.27499999999998
20
3.0749999999999877
10
-288.27499999999998
20
15.974999999999987
42
0.41421356237312579
0
LWPOLYLINE
5
150
100
AcDbEntity
8
0
100
AcDbPolyline
90
8
70
1
43
0.0
10
-288.82499999999999
20
35.574999999999989
10
-301.72499999999997
20
35.574999999999989
42
0.41421356237310686
10
-302.27499999999998
20
35.024999999999991
10
-302.27499999999998
20
22.124999999999989
42
0.41421356237310686
10
-301.72499999999997
20
21.574999999999989
10
-288.82499999999999
20
21.574999999999989
42
0.41421356237310686
10
-288.27499999999998
20
22.124999999999989
10
-288.27499999999998
20
35.024999999999991
42
0.41421356237310686
0
LWPOLYLINE
5
151
100
AcDbEntity
8
0
100
AcDbPolyline
90
8
70
1
43
0.0
10
-288.82499999999999
20
54.624999999999993
10
-301.72499999999997
20
54.624999999999993
42
0.41421356237313289
10
-302.27499999999998
20
54.074999999999989
10
-302.27499999999998
20
41.17499999999999
42
0.41421356237312812
10
-301.72499999999997
20
40.624999999999993
10
-288.82499999999999
20
40.625
42
0.41421356237313289
10
-288.27499999999998
20
41.174999999999997
10
-288.27499999999998
20
54.074999999999996
42
0.41421356237312812
0
LWPOLYLINE
5
152
100
AcDbEntity
8
0
100
AcDbPolyline
90
8
70
1
43
0.0
10
-288.82499999999999
20
73.674999999999997
10
-301.72499999999997
20
73.674999999999997
42
0.41421356237312812
10
-302.27499999999998
20
73.124999999999986
10
-302.27499999999998
20
60.224999999999994
42
0.41421356237313289
10
-301.72499999999997
20
59.674999999999997
10
-288.82499999999999
20
59.675000000000004
42
0.41421356237312812
10
-288.27499999999998
20
60.225000000000001
10
-288.27499999999998
20
73.125
42
0.41421356237313289
0
LWPOLYLINE
5
153
100
AcDbEntity
8
0
100
AcDbPolyline
90
8
70
1
43
0.0
10
-125.51250000000003
20
40.624999999999972
10
-112.61250000000004
20
40.624999999999972
42
0.41421356237310919
10
-112.06250000000004
20
41.174999999999983
10
-112.06250000000004
20
54.074999999999974
42
0.41421356237310919
10
-112.61250000000004
20
54.624999999999979
10
-125.51250000000003
20
54.624999999999972
42
0.41421356237310919
10
-126.06250000000003
20
54.074999999999974
10
-126.06250000000003
20
41.174999999999983
42
0.41421356237310919
0
LWPOLYLINE
5
154
100
AcDbEntity
8
0
100
AcDbPolyline
90
8
70
1
43
0.0
10
-115.98749999999987
20
59.675000000000047
10
-103.08749999999988
20
59.675000000000047
42
0.41421356237309975
10
-102.53749999999985
20
60.225000000000044
10
-102.53749999999988
20
73.125000000000057
42
0.41421356237309975
10
-103.08749999999988
20
73.675000000000054
10
-115.98749999999987
20
73.675000000000054
42
0.41421356237309975
10
-116.53749999999988
20
73.125000000000057
10
-116.53749999999987
20
60.225000000000044
42
0.41421356237309975
0
LWPOLYLINE
5
155
100
AcDbEntity
8
0
100
AcDbPolyline
90
8
70
1
43
0.0
10
-87.412500000000023
20
40.624999999999972
10
-74.512500000000031
20
40.624999999999972
42
0.41421356237311396
10
-73.962500000000034
20
41.174999999999983
10
-73.962500000000034
20
54.074999999999974
42
0.41421356237311396
10
-74.512500000000031
20
54.624999999999979
10
-87.412500000000023
20
54.624999999999972
42
0.41421356237309975
10
-87.962500000000034
20
54.074999999999974
10
-87.96250000000002
20
41.174999999999983
42
0.41421356237309975
0
LWPOLYLINE
5
156
100
AcDbEntity
8
0
100
AcDbPolyline
90
8
70
1
43
0.0
10
-78.38749999999996
20
91.725000000000009
10
-88.299999999999955
20
91.72500000000008
42
0.41421356237309009
10
-89.349999999999937
20
90.675000000000097
10
-89.349999999999909
20
77.775000000000091
42
0.41421356237308515
10
-88.299999999999912
20
76.725000000000094
10
-78.38749999999996
20
76.725000000000009
42
0.41421356237309009
10
-77.337499999999949
20
77.77500000000002
10
-77.337499999999949
20
90.675000000000011
42
0.41421356237308266
0
LWPOLYLINE
5
157
100
AcDbEntity
8
0
100
AcDbPolyline
90
8
70
1
43
0.0
10
-107.01250000000002
20
54.074999999999974
10
-107.01250000000002
20
41.174999999999983
42
0.41421356237310919
10
-106.46250000000002
20
40.624999999999972
10
-93.562500000000028
20
40.624999999999986
42
0.41421356237310919
10
-93.012500000000031
20
41.174999999999983
10
-93.012500000000031
20
54.074999999999974
42
0.41421356237310919
10
-93.562500000000028
20
54.624999999999979
10
-106.46250000000002
20
54.624999999999972
42
0.41421356237310919
0
LWPOLYLINE
5
158
100
AcDbEntity
8
0
100
AcDbPolyline
90
8
70
1
43
0.0
10
-102.25000000000006
20
35.025000000000006
10
-102.25000000000006
20
22.125000000000007
42
0.41421356237308082
10
-101.70000000000003
20
21.575000000000006
10
-88.80000000000004
20
21.575000000000006
42
0.41421356237308082
10
-88.250000000000028
20
22.125000000000007
10
-88.250000000000043
20
35.025000000000006
42
0.41421356237308082
10
-88.80000000000004
20
35.57500000000001
10
-101.70000000000003
20
35.57500000000001
42
0.41421356237308082
0
LWPOLYLINE
5
159
100
AcDbEntity
8
0
100
AcDbPolyline
90
8
70
1
43
0.0
10
-92.725000000000009
20
15.975000000000005
10
-92.725000000000009
20
3.0750000000000055
42
0.41421356237309093
10
-92.175000000000011
20
2.5250000000000039
10
-79.27500000000002
20
2.5250000000000057
42
0.41421356237310364
10
-78.725000000000009
20
3.0750000000000055
10
-78.725000000000023
20
15.975000000000005
42
0.41421356237310336
10
-79.27500000000002
20
16.525000000000006
10
-92.175000000000011
20
16.525000000000006
42
0.41421356237309037
0
LWPOLYLINE
5
160
100
AcDbEntity
8
0
100
AcDbPolyline
90
8
70
1
43
0.0
10
-97.487499999999869
20
73.125000000000057
10
-97.487499999999869
20
60.225000000000044
42
0.41421356237310919
10
-96.937499999999872
20
59.675000000000047
10
-84.037499999999881
20
59.675000000000047
42
0.41421356237310919
10
-83.487499999999883
20
60.225000000000044
10
-83.487499999999883
20
73.125000000000057
42
0.41421356237310919
10
-84.037499999999881
20
73.675000000000054
10
-96.937499999999872
20
73.675000000000054
42
0.41421356237310919
0
LWPOLYLINE
5
161
100
AcDbEntity
8
0
100
AcDbPolyline
90
8
70
1
43
0.0
10
-111.77500000000003
20
15.975000000000005
42
-0.41421356237309037
10
-111.22500000000002
20
16.525000000000006
10
-98.325000000000031
20
16.524999999999995
42
-0.41421356237309037
10
-97.775000000000034
20
15.975000000000005
10
-97.77500000000002
20
3.0750000000000055
42
-0.41421356237309093
10
-98.325000000000031
20
2.5250000000000057
10
-111.22500000000002
20
2.5250000000000163
42
-0.41421356237309093
10
-111.77500000000002
20
3.0750000000000055
0
LWPOLYLINE
5
162
100
AcDbEntity
8
0
100
AcDbPolyline
90
8
70
1
43
0.0
10
-120.75000000000003
20
21.575000000000006
10
-107.85000000000004
20
21.575000000000006
42
0.41421356237309037
10
-107.30000000000004
20
22.125000000000007
10
-107.30000000000004
20
35.025000000000006
42
0.41421356237309037
10
-107.85000000000004
20
35.57500000000001
10
-120.75000000000003
20
35.57500000000001
42
0.41421356237309037
10
-121.30000000000003
20
35.025000000000006
10
-121.30000000000003
20
22.125000000000007
42
0.41421356237309037
0
LWPOLYLINE
5
163
100
AcDbEntity
8
0
100
AcDbPolyline
90
8
70
1
43
0.0
10
-179.28749999999985
20
73.675000000000054
10
-192.18749999999986
20
73.675000000000054
42
0.41421356237313289
10
-192.73749999999984
20
73.125000000000057
10
-192.73749999999984
20
60.225000000000044
42
0.41421356237313289
10
-192.18749999999986
20
59.675000000000047
10
-179.28749999999985
20
59.675000000000047
42
0.41421356237313289
10
-178.73749999999987
20
60.225000000000044
10
-178.73749999999987
20
73.125000000000057
42
0.41421356237313289
0
LWPOLYLINE
5
164
100
AcDbEntity
8
0
100
AcDbPolyline
90
8
70
1
43
0.0
10
-149.32499999999993
20
78.725000000000023
10
-124.51874999999995
20
78.725000000000009
42
0.41421356237310453
10
-123.96874999999994
20
79.27500000000002
10
-123.96875000000006
20
92.200000000000017
42
0.41421356237307527
10
-124.49375000000005
20
92.725000000000009
10
-149.32499999999973
20
92.725000000000023
42
0.41421356237307611
10
-149.87499999999994
20
92.175000000000026
10
-149.87499999999994
20
79.275000000000034
42
0.41421356237310919
0
LWPOLYLINE
5
165
100
AcDbEntity
8
0
100
AcDbPolyline
90
8
70
1
43
0.0
10
-178.39999999999998
20
91.725000000000051
42
-0.41421356237309009
10
-177.34999999999997
20
90.675000000000068
10
-177.34999999999991
20
77.775000000000048
42
-0.41421356237309009
10
-178.39999999999998
20
76.725000000000051
10
-183.54999999999995
20
76.725000000000065
42
-0.41421356237309254
10
-184.59999999999997
20
77.775000000000063
10
-184.60000000000002
20
90.675000000000068
42
-0.41421356237309009
10
-183.54999999999995
20
91.725000000000065
0
LWPOLYLINE
5
166
100
AcDbEntity
8
0
100
AcDbPolyline
90
8
70
1
43
0.0
10
-168.92500000000001
20
15.975000000000005
10
-168.92500000000001
20
3.0750000000000055
42
0.41421356237312612
10
-168.37500000000003
20
2.5250000000000039
10
-155.47500000000002
20
2.5250000000000057
42
0.41421356237309093
10
-154.92500000000004
20
3.0750000000000055
10
-154.92500000000004
20
15.975000000000005
42
0.41421356237309037
10
-155.47500000000002
20
16.525000000000006
10
-168.37500000000003
20
16.525000000000006
42
0.41421356237312579
0
LWPOLYLINE
5
167
100
AcDbEntity
8
0
100
AcDbPolyline
90
8
70
1
43
0.0
10
-187.97500000000002
20
15.975000000000005
10
-187.97500000000002
20
3.0750000000000055
42
0.41421356237312612
10
-187.42500000000004
20
2.5250000000000039
10
-174.52500000000003
20
2.5250000000000057
42
0.41421356237312612
10
-173.97500000000005
20
3.0750000000000055
10
-173.97500000000005
20
15.975000000000005
42
0.41421356237312579
10
-174.52500000000003
20
16.525000000000006
10
-187.42500000000004
20
16.525000000000006
42
0.41421356237312579
0
LWPOLYLINE
5
168
100
AcDbEntity
8
0
100
AcDbPolyline
90
8
70
1
43
0.0
10
-154.63749999999987
20
73.125000000000057
10
-154.63749999999987
20
60.225000000000044
42
0.41421356237310919
10
-154.08749999999986
20
59.675000000000047
10
-141.18749999999989
20
59.675000000000047
42
0.41421356237310919
10
-140.63749999999987
20
60.225000000000044
10
-140.63749999999987
20
73.125000000000057
42
0.41421356237310919
10
-141.18749999999989
20
73.675000000000054
10
-154.08749999999986
20
73.675000000000054
42
0.41421356237310919
0
LWPOLYLINE
5
169
100
AcDbEntity
8
0
100
AcDbPolyline
90
8
70
1
43
0.0
10
-164.16250000000005
20
54.074999999999974
10
-164.16250000000005
20
41.174999999999983
42
0.41421356237313289
10
-163.61250000000007
20
40.624999999999972
10
-150.71250000000003
20
40.624999999999986
42
0.41421356237309975
10
-150.16250000000002
20
41.174999999999983
10
-150.16250000000005
20
54.074999999999974
42
0.41421356237309975
10
-150.71250000000003
20
54.624999999999979
10
-163.61250000000007
20
54.624999999999972
42
0.41421356237313289
0
LWPOLYLINE
5
170
100
AcDbEntity
8
0
100
AcDbPolyline
90
8
70
1
43
0.0
10
-130.82500000000005
20
15.975000000000005
10
-130.82500000000005
20
3.0750000000000055
42
0.41421356237308143
10
-130.27500000000001
20
2.5250000000000039
10
-117.37500000000003
20
2.5250000000000057
42
0.41421356237308143
10
-116.82500000000002
20
3.0750000000000055
10
-116.82500000000003
20
15.975000000000005
42
0.41421356237308082
10
-117.37500000000003
20
16.525000000000006
10
-130.27500000000001
20
16.525000000000006
42
0.41421356237308082
0
LWPOLYLINE
5
171
100
AcDbEntity
8
0
100
AcDbPolyline
90
8
70
1
43
0.0
10
-159.40000000000003
20
35.025000000000006
10
-159.40000000000003
20
22.125000000000007
42
0.41421356237308082
10
-158.85000000000002
20
21.575000000000006
10
-145.95000000000005
20
21.575000000000006
42
0.41421356237308082
10
-145.40000000000003
20
22.125000000000007
10
-145.40000000000003
20
35.025000000000006
42
0.41421356237308082
10
-145.95000000000005
20
35.57500000000001
10
-158.85000000000002
20
35.57500000000001
42
0.41421356237308082
0
LWPOLYLINE
5
172
100
AcDbEntity
8
0
100
AcDbPolyline
90
8
70
1
43
0.0
10
-178.45000000000002
20
35.025000000000006
10
-178.45000000000002
20
22.125000000000007
42
0.41421356237310686
10
-177.90000000000003
20
21.575000000000006
10
-165.00000000000003
20
21.575000000000006
42
0.41421356237310686
10
-164.45000000000005
20
22.125000000000007
10
-164.45000000000005
20
35.025000000000006
42
0.41421356237310686
10
-165.00000000000003
20
35.57500000000001
10
-177.90000000000003
20
35.57500000000001
42
0.41421356237310686
0
LWPOLYLINE
5
173
100
AcDbEntity
8
0
100
AcDbPolyline
90
8
70
1
43
0.0
10
-183.21250000000003
20
54.074999999999974
10
-183.21250000000003
20
41.174999999999983
42
0.41421356237313289
10
-182.66250000000002
20
40.624999999999972
10
-169.76250000000005
20
40.624999999999986
42
0.41421356237313289
10
-169.21250000000003
20
41.174999999999983
10
-169.21250000000003
20
54.074999999999974
42
0.41421356237313289
10
-169.76250000000005
20
54.624999999999979
10
-182.66250000000002
20
54.624999999999972
42
0.41421356237313289
0
LWPOLYLINE
5
174
100
AcDbEntity
8
0
100
AcDbPolyline
90
8
70
1
43
0.0
10
-135.58749999999986
20
73.125000000000057
10
-135.58749999999986
20
60.225000000000044
42
0.41421356237310919
10
-135.03749999999985
20
59.675000000000047
10
-122.13749999999987
20
59.675000000000047
42
0.41421356237310919
10
-121.58749999999986
20
60.225000000000044
10
-121.58749999999986
20
73.125000000000057
42
0.41421356237310919
10
-122.13749999999987
20
73.675000000000054
10
-135.03749999999985
20
73.675000000000054
42
0.41421356237310919
0
LWPOLYLINE
5
175
100
AcDbEntity
8
0
100
AcDbPolyline
90
8
70
1
43
0.0
10
-149.875
20
15.975000000000005
10
-149.875
20
3.0750000000000055
42
0.41421356237309093
10
-149.32500000000002
20
2.5250000000000039
10
-136.42500000000001
20
2.5250000000000057
42
0.41421356237309093
10
-135.87500000000003
20
3.0750000000000055
10
-135.87500000000003
20
15.975000000000005
42
0.41421356237309037
10
-136.42500000000001
20
16.525000000000006
10
-149.32500000000002
20
16.525000000000006
42
0.41421356237309037
0
LWPOLYLINE
5
176
100
AcDbEntity
8
0
100
AcDbPolyline
90
8
70
1
43
0.0
10
-140.35000000000002
20
35.025000000000006
10
-140.35000000000002
20
22.125000000000007
42
0.41421356237309037
10
-139.80000000000004
20
21.575000000000006
10
-126.90000000000005
20
21.575000000000006
42
0.41421356237309037
10
-126.35000000000005
20
22.125000000000007
10
-126.35000000000005
20
35.025000000000006
42
0.41421356237309037
10
-126.90000000000005
20
35.57500000000001
10
-139.80000000000004
20
35.57500000000001
42
0.41421356237309037
0
LWPOLYLINE
5
177
100
AcDbEntity
8
0
100
AcDbPolyline
90
8
70
1
43
0.0
10
-145.11250000000004
20
54.074999999999974
10
-145.11250000000004
20
41.174999999999983
42
0.41421356237310919
10
-144.56250000000006
20
40.624999999999972
10
-131.66250000000005
20
40.624999999999986
42
0.41421356237310919
10
-131.11250000000007
20
41.174999999999983
10
-131.11250000000007
20
54.074999999999974
42
0.41421356237310919
10
-131.66250000000005
20
54.624999999999979
10
-144.56250000000006
20
54.624999999999972
42
0.41421356237310919
0
LWPOLYLINE
5
178
100
AcDbEntity
8
0
100
AcDbPolyline
90
8
70
1
43
0.0
10
-173.68749999999989
20
73.125000000000057
10
-173.68749999999989
20
60.225000000000044
42
0.41421356237313289
10
-173.13749999999987
20
59.675000000000047
10
-160.2374999999999
20
59.675000000000047
42
0.41421356237309975
10
-159.68749999999989
20
60.225000000000044
10
-159.68749999999989
20
73.125000000000057
42
0.41421356237309975
10
-160.2374999999999
20
73.675000000000054
10
-173.13749999999987
20
73.675000000000054
42
0.41421356237313289
0
ENDSEC
0
SECTION
2
OBJECTS
0
DICTIONARY
5
C
100
AcDbDictionary
3
ACAD_GROUP
350
D
3
ACAD_MLINESTYLE
350
17
0
DICTIONARY
5
D
100
AcDbDictionary
0
DICTIONARY
5
1A
330
C
100
AcDbDictionary
0
DICTIONARY
5
17
100
AcDbDictionary
0
ENDSEC
0
EOF
