0
SECTION
2
HEADER
9
$INSUNITS
70
4
9
$ACADVER
1
AC1014
9
$HANDSEED
5
FFFF
0
ENDSEC
0
SECTION
2
TABLES
0
TABLE
2
VPORT
5
8
100
AcDbSymbolTable
0
ENDTAB
0
TABLE
2
LTYPE
5
5
100
AcDbSymbolTable
0
LTYPE
5
14
100
AcDbSymbolTableRecord
100
AcDbLinetypeTableRecord
2
BYBLOCK
70
0
0
LTYPE
5
15
100
AcDbSymbolTableRecord
100
AcDbLinetypeTableRecord
2
BYLAYER
70
0
0
ENDTAB
0
TABLE
2
LAYER
5
2
100
AcDbSymbolTable
70
2
0
LAYER
5
50
100
AcDbSymbolTableRecord
100
AcDbLayerTableRecord
2
0
70
0
6
CONTINUOUS
0
ENDTAB
0
TABLE
2
STYLE
5
3
100
AcDbSymbolTable
70
1
0
STYLE
5
11
100
AcDbSymbolTableRecord
100
AcDbTextStyleTableRecord
2
STANDARD
70
0
0
ENDTAB
0
TABLE
2
VIEW
5
6
100
AcDbSymbolTable
70
0
0
ENDTAB
0
TABLE
2
UCS
5
7
100
AcDbSymbolTable
70
0
0
ENDTAB
0
TABLE
2
APPID
5
9
100
AcDbSymbolTable
70
2
0
APPID
5
12
100
AcDbSymbolTableRecord
100
AcDbRegAppTableRecord
2
ACAD
70
0
0
ENDTAB
0
TABLE
2
DIMSTYLE
5
A
100
AcDbSymbolTable
70
1
0
ENDTAB
0
TABLE
2
BLOCK_RECORD
5
1
100
AcDbSymbolTable
70
1
0
BLOCK_RECORD
5
1F
100
AcDbSymbolTableRecord
100
AcDbBlockTableRecord
2
*MODEL_SPACE
0
BLOCK_RECORD
5
1B
100
AcDbSymbolTableRecord
100
AcDbBlockTableRecord
2
*PAPER_SPACE
0
ENDTAB
0
ENDSEC
0
SECTION
2
BLOCKS
0
BLOCK
5
20
100
AcDbEntity
100
AcDbBlockBegin
2
*MODEL_SPACE
0
ENDBLK
5
21
100
AcDbEntity
100
AcDbBlockEnd
0
BLOCK
5
1C
100
AcDbEntity
100
AcDbBlockBegin
2
*PAPER_SPACE
0
ENDBLK
5
1D
100
AcDbEntity
100
AcDbBlockEnd
0
ENDSEC
0
SECTION
2
ENTITIES
0
LWPOLYLINE
5
100
100
AcDbEntity
8
0
100
AcDbPolyline
90
8
70
1
43
0.0
10
78.4375
20
-73.174999999999983
10
78.4375
20
-60.174999999999997
42
0.41421356237309503
10
77.9375
20
-59.675000000000004
10
64.9375
20
-59.675000000000004
42
0.41421356237313667
10
64.4375
20
-60.174999999999997
10
64.4375
20
-73.174999999999983
42
0.41421356237313667
10
64.9375
20
-73.674999999999983
10
77.9375
20
-73.674999999999983
42
0.41421356237309503
0
LWPOLYLINE
5
101
100
AcDbEntity
8
0
100
AcDbPolyline
90
8
70
1
43
0.0
10
158.90000000000001
20
-21.575000000000006
10
145.90000000000001
20
-21.575000000000006
42
0.41421356237306384
10
145.40000000000001
20
-22.074999999999999
10
145.40000000000003
20
-35.075000000000003
42
0.414213562373069
10
145.90000000000001
20
-35.57500000000001
10
158.90000000000001
20
-35.575000000000003
42
0.41421356237309243
10
159.40000000000001
20
-35.075000000000003
10
159.40000000000001
20
-22.074999999999999
42
0.41421356237312623
0
LWPOLYLINE
5
102
100
AcDbEntity
8
0
100
AcDbPolyline
90
8
70
1
43
0.0
10
93.012500000000017
20
-41.125
42
-0.41421356237305862
10
93.512500000000003
20
-40.625
10
106.51250000000005
20
-40.624999999999993
42
-0.41421356237307422
10
107.01250000000002
20
-41.125
10
107.01250000000002
20
-54.125000000000021
42
-0.41421356237310542
10
106.51250000000005
20
-54.625000000000014
10
93.512500000000003
20
-54.624999999999993
42
-0.41421356237313667
10
93.012499999999989
20
-54.125000000000021
0
LWPOLYLINE
5
103
100
AcDbEntity
8
0
100
AcDbPolyline
90
8
70
1
43
0.0
10
197.78750000000005
20
-60.174999999999997
42
-0.41421356237310025
10
198.28749999999999
20
-59.674999999999997
10
211.28749999999997
20
-59.674999999999976
42
-0.41421356237314705
10
211.78750000000002
20
-60.174999999999997
10
211.78750000000002
20
-73.174999999999983
42
-0.41421356237314183
10
211.28749999999999
20
-73.674999999999983
10
198.28749999999999
20
-73.674999999999997
42
-0.41421356237307422
10
197.78750000000002
20
-73.174999999999983
0
LWPOLYLINE
5
104
100
AcDbEntity
8
0
100
AcDbPolyline
90
8
70
1
43
0.0
10
79.22499999999998
20
-16.524999999999988
42
-0.4142135623730781
10
78.724999999999994
20
-16.024999999999999
10
78.724999999999994
20
-3.0250000000000021
42
-0.41421356237309503
10
79.22499999999998
20
-2.5250000000000048
10
92.224999999999994
20
-2.5250000000000119
42
-0.41421356237311519
10
92.725000000000023
20
-3.0249999999999999
10
92.725000000000009
20
-16.024999999999999
42
-0.41421356237305212
10
92.224999999999994
20
-16.524999999999995
0
LWPOLYLINE
5
105
100
AcDbEntity
8
0
100
AcDbPolyline
90
8
70
1
43
0.0
10
40.625
20
-3.0250000000000021
10
40.625
20
-16.024999999999999
42
0.41421356237307555
10
41.124999999999986
20
-16.524999999999999
10
54.125000000000021
20
-16.525000000000002
42
0.41421356237312884
10
54.625
20
-16.024999999999999
10
54.625
20
-3.0249999999999999
42
0.41421356237310414
10
54.125000000000021
20
-2.5250000000000039
10
41.125
20
-2.5249999999999968
42
0.41421356237308887
0
LWPOLYLINE
5
106
100
AcDbEntity
8
0
100
AcDbPolyline
90
8
70
1
43
0.0
10
243.53125000000009
20
-73.674999999999983
10
256.53125
20
-73.674999999999997
42
0.41421356237310025
10
257.03124999999994
20
-73.174999999999983
10
257.03125000000006
20
-60.174999999999997
42
0.41421356237309503
10
256.53125
20
-59.675000000000018
10
243.53125000000009
20
-59.674999999999983
42
0.41421356237310025
10
243.03125
20
-60.174999999999997
10
243.03125
20
-73.174999999999983
42
0.41421356237300661
0
LWPOLYLINE
5
107
100
AcDbEntity
8
0
100
AcDbPolyline
90
8
70
1
43
0.0
10
103.03750000000001
20
-73.674999999999983
10
116.03749999999999
20
-73.674999999999997
42
0.41421356237305862
10
116.53750000000001
20
-73.174999999999983
10
116.53749999999999
20
-60.174999999999997
42
0.41421356237307944
10
116.03749999999999
20
-59.675000000000004
10
103.03750000000001
20
-59.674999999999997
42
0.41421356237312101
10
102.53749999999999
20
-60.174999999999997
10
102.53749999999999
20
-73.174999999999983
42
0.41421356237311585
0
LWPOLYLINE
5
108
100
AcDbEntity
8
0
100
AcDbPolyline
90
8
70
1
43
0.0
10
288.77499999999998
20
-54.625000000000021
10
301.77499999999998
20
-54.624999999999993
42
0.41421356237316265
10
302.27499999999998
20
-54.125000000000021
10
302.27499999999998
20
-41.125
42
0.41421356237305862
10
301.77500000000009
20
-40.624999999999964
10
288.77499999999998
20
-40.625
42
0.41421356237314183
10
288.27500000000009
20
-41.125
10
288.27499999999998
20
-54.125000000000021
42
0.41421356237307944
0
LWPOLYLINE
5
109
100
AcDbEntity
8
0
100
AcDbPolyline
90
8
70
1
43
0.0
10
122.08750000000002
20
-73.674999999999997
42
-0.41421356237311585
10
121.58750000000001
20
-73.174999999999983
10
121.58750000000001
20
-60.174999999999997
42
-0.41421356237312101
10
122.08750000000002
20
-59.674999999999997
10
135.08749999999998
20
-59.675000000000004
42
-0.41421356237307944
10
135.58750000000001
20
-60.174999999999997
10
135.58750000000001
20
-73.174999999999983
42
-0.41421356237305862
10
135.08750000000001
20
-73.674999999999997
0
LWPOLYLINE
5
110
100
AcDbEntity
8
0
100
AcDbPolyline
90
8
70
1
43
0.0
10
212.07499999999999
20
-3.0250000000000021
10
212.07499999999999
20
-16.024999999999999
42
0.41421356237300916
10
212.57499999999999
20
-16.524999999999981
10
225.57500000000002
20
-16.525000000000006
42
0.41421356237314316
10
226.07500000000002
20
-16.024999999999999
10
226.07500000000002
20
-3.0249999999999999
42
0.41421356237314216
10
225.57500000000002
20
-2.5249999999999861
10
212.57499999999999
20
-2.524999999999991
42
0.414213562373135
0
LWPOLYLINE
5
111
100
AcDbEntity
8
0
100
AcDbPolyline
90
8
70
1
43
0.0
10
154.13749999999999
20
-59.675000000000004
42
-0.41421356237308982
10
154.63750000000005
20
-60.174999999999997
10
154.63750000000005
20
-73.174999999999983
42
-0.41421356237305862
10
154.13750000000002
20
-73.674999999999983
10
141.13749999999999
20
-73.674999999999997
42
-0.41421356237311585
10
140.63749999999999
20
-73.174999999999983
10
140.63749999999999
20
-60.174999999999997
42
-0.41421356237312101
10
141.13749999999999
20
-59.674999999999997
0
LWPOLYLINE
5
112
100
AcDbEntity
8
0
100
AcDbPolyline
90
8
70
1
43
0.0
10
73.962500000000006
20
-41.125
10
73.962500000000006
20
-54.125000000000021
42
0.41421356237312623
10
74.462500000000006
20
-54.625
10
87.46250000000002
20
-54.625000000000014
42
0.41421356237311585
10
87.962500000000006
20
-54.125000000000021
10
87.96250000000002
20
-41.125
42
0.4142135623730378
10
87.462500000000034
20
-40.625
10
74.462500000000006
20
-40.625
42
0.41421356237309503
0
LWPOLYLINE
5
113
100
AcDbEntity
8
0
100
AcDbPolyline
90
8
70
1
43
0.0
10
221.60000000000002
20
-22.074999999999999
42
-0.41421356237298318
10
222.10000000000002
20
-21.574999999999996
10
235.10000000000002
20
-21.575000000000017
42
-0.41421356237316526
10
235.60000000000002
20
-22.074999999999999
10
235.60000000000002
20
-35.075000000000003
42
-0.41421356237314444
10
235.10000000000002
20
-35.57500000000001
10
222.10000000000002
20
-35.575000000000038
42
-0.41421356237302998
10
221.59999999999999
20
-35.075000000000003
0
LWPOLYLINE
5
114
100
AcDbEntity
8
0
100
AcDbPolyline
90
8
70
1
43
0.0
10
112.56250000000001
20
-54.625
42
-0.41421356237312101
10
112.0625
20
-54.125000000000021
10
112.0625
20
-41.125
42
-0.41421356237310025
10
112.56250000000001
20
-40.625000000000007
10
125.5625
20
-40.624999999999993
42
-0.41421356237306384
10
126.0625
20
-41.125
10
126.0625
20
-54.125000000000021
42
-0.414213562373069
10
125.5625
20
-54.625000000000014
0
LWPOLYLINE
5
115
100
AcDbEntity
8
0
100
AcDbPolyline
90
8
70
1
43
0.0
10
197.00000000000003
20
-21.575000000000006
42
-0.41421356237312884
10
197.50000000000003
20
-22.074999999999999
10
197.49999999999997
20
-35.075000000000003
42
-0.41421356237305601
10
197.00000000000003
20
-35.575000000000017
10
184.00000000000003
20
-35.575000000000024
42
-0.41421356237314444
10
183.5
20
-35.075000000000003
10
183.5
20
-22.074999999999999
42
-0.41421356237311324
10
184
20
-21.57500000000001
0
LWPOLYLINE
5
116
100
AcDbEntity
8
0
100
AcDbPolyline
90
8
70
1
43
0.0
10
107.80000000000001
20
-35.57500000000001
10
120.80000000000001
20
-35.575000000000017
42
0.41421356237305079
10
121.30000000000001
20
-35.075000000000003
10
121.30000000000001
20
-22.074999999999999
42
0.41421356237306384
10
120.8
20
-21.575000000000006
10
107.80000000000001
20
-21.575000000000021
42
0.41421356237311324
10
107.30000000000001
20
-22.074999999999999
10
107.30000000000001
20
-35.075000000000003
42
0.41421356237309243
0
LWPOLYLINE
5
117
100
AcDbEntity
8
0
100
AcDbPolyline
90
8
70
1
43
0.0
10
82.700000000000031
20
-21.575000000000006
10
69.700000000000003
20
-21.575000000000017
42
0.41421356237311324
10
69.200000000000017
20
-22.074999999999999
10
69.200000000000017
20
-35.075000000000003
42
0.41421356237309503
10
69.700000000000003
20
-35.57500000000001
10
82.700000000000017
20
-35.57500000000001
42
0.41421356237308721
10
83.200000000000003
20
-35.075000000000003
10
83.200000000000017
20
-22.074999999999999
42
0.4142135623730534
0
LWPOLYLINE
5
118
100
AcDbEntity
8
0
100
AcDbPolyline
90
8
70
1
43
0.0
10
241.15000000000009
20
-35.57500000000001
10
254.15000000000006
20
-35.575000000000017
42
0.41421356237305601
10
254.65000000000003
20
-35.075000000000003
10
254.65000000000001
20
-22.074999999999999
42
0.41421356237300916
10
254.15000000000006
20
-21.574999999999992
10
241.15000000000009
20
-21.57500000000001
42
0.41421356237315748
10
240.65000000000001
20
-22.074999999999999
10
240.65000000000001
20
-35.075000000000003
42
0.41421356237316526
0
LWPOLYLINE
5
119
100
AcDbEntity
8
0
100
AcDbPolyline
90
8
70
1
43
0.0
10
177.94999999999999
20
-21.575000000000017
42
-0.41421356237316526
10
178.44999999999999
20
-22.074999999999999
10
178.44999999999999
20
-35.075000000000003
42
-0.41421356237314444
10
177.94999999999999
20
-35.57500000000001
10
164.95000000000005
20
-35.575000000000017
42
-0.41421356237316265
10
164.44999999999999
20
-35.075000000000003
10
164.44999999999999
20
-22.074999999999999
42
-0.41421356237309764
10
164.95000000000005
20
-21.575000000000021
0
LWPOLYLINE
5
120
100
AcDbEntity
8
0
100
AcDbPolyline
90
8
70
1
43
0.0
10
216.83750000000006
20
-60.174999999999997
42
-0.41421356237310025
10
217.33750000000001
20
-59.674999999999997
10
230.33749999999998
20
-59.675000000000047
42
-0.4142135623730222
10
230.83750000000009
20
-60.174999999999997
10
230.83750000000009
20
-73.174999999999983
42
-0.41421356237310025
10
230.33750000000001
20
-73.675000000000011
10
217.33750000000001
20
-73.674999999999997
42
-0.41421356237307422
10
216.83750000000003
20
-73.174999999999983
0
LWPOLYLINE
5
121
100
AcDbEntity
8
0
100
AcDbPolyline
90
8
70
1
43
0.0
10
55.412500000000016
20
-54.625000000000014
42
-0.41421356237309503
10
54.912500000000009
20
-54.125000000000021
10
54.912500000000009
20
-41.125
42
-0.41421356237307944
10
55.412500000000016
20
-40.625
10
68.412499999999994
20
-40.625
42
-0.41421356237309503
10
68.912499999999994
20
-41.125
10
68.912499999999994
20
-54.125000000000021
42
-0.41421356237310542
10
68.412499999999994
20
-54.625
0
LWPOLYLINE
5
122
100
AcDbEntity
8
0
100
AcDbPolyline
90
8
70
1
43
0.0
10
174.47500000000005
20
-16.524999999999981
10
187.47499999999999
20
-16.525000000000006
42
0.41421356237314316
10
187.97499999999999
20
-16.024999999999999
10
187.97499999999999
20
-3.0249999999999999
42
0.41421356237314216
10
187.47499999999999
20
-2.5249999999999861
10
174.47500000000005
20
-2.524999999999991
42
0.414213562373135
10
173.97500000000005
20
-3.0250000000000021
10
173.97500000000005
20
-16.024999999999999
42
0.41421356237300916
0
LWPOLYLINE
5
123
100
AcDbEntity
8
0
100
AcDbPolyline
90
8
70
1
43
0.0
10
88.250000000000014
20
-22.074999999999999
10
88.25
20
-35.075000000000003
42
0.41421356237311063
10
88.75
20
-35.575000000000003
10
101.75
20
-35.575000000000003
42
0.41421356237309243
10
102.25000000000001
20
-35.075000000000003
10
102.25000000000001
20
-22.074999999999999
42
0.41421356237312623
10
101.75
20
-21.575000000000006
10
88.75
20
-21.575000000000017
42
0.41421356237304563
0
LWPOLYLINE
5
124
100
AcDbEntity
8
0
100
AcDbPolyline
90
8
70
1
43
0.0
10
36.362499999999997
20
-54.625
42
-0.41421356237305862
10
35.862500000000011
20
-54.125000000000043
10
35.86249999999999
20
-41.125
42
-0.414213562373069
10
36.362499999999997
20
-40.625
10
49.362500000000004
20
-40.625
42
-0.41421356237309503
10
49.862499999999997
20
-41.125
10
49.862500000000018
20
-54.125000000000021
42
-0.4142135623730846
10
49.362500000000004
20
-54.625
0
LWPOLYLINE
5
125
100
AcDbEntity
8
0
100
AcDbPolyline
90
8
70
1
43
0.0
10
144.61250000000004
20
-40.625
10
131.61250000000001
20
-40.625000000000007
42
0.41421356237310025
10
131.11250000000001
20
-41.125
10
131.11250000000001
20
-54.125000000000021
42
0.41421356237312101
10
131.61250000000001
20
-54.625
10
144.61250000000001
20
-54.625000000000014
42
0.414213562373069
10
145.11250000000001
20
-54.125000000000021
10
145.11250000000001
20
-41.125
42
0.41421356237308982
0
LWPOLYLINE
5
126
100
AcDbEntity
8
0
100
AcDbPolyline
90
8
70
1
43
0.0
10
182.71250000000006
20
-40.625000000000014
42
-0.41421356237307944
10
183.21250000000006
20
-41.125
10
183.21250000000006
20
-54.125000000000021
42
-0.41421356237313667
10
182.71250000000006
20
-54.625000000000021
10
169.71250000000001
20
-54.624999999999986
42
-0.41421356237323553
10
169.21250000000001
20
-54.125000000000021
10
169.21250000000001
20
-41.125
42
-0.41421356237313667
10
169.71250000000001
20
-40.625
0
LWPOLYLINE
5
127
100
AcDbEntity
8
0
100
AcDbPolyline
90
16
70
1
43
0.0
10
126.62500000000001
20
-18.324999999999996
10
123.52499999999999
20
-18.324999999999996
42
0.41421356237305601
10
123.02500000000001
20
-18.825000000000003
10
123.02500000000001
20
-38.325000000000003
42
0.4142135623730378
10
123.52499999999999
20
-38.825000000000003
10
126.625
20
-38.825000000000003
42
0.414213562373069
10
127.125
20
-38.325000000000003
10
127.125
20
-37.421840591994162
42
0.4142135623730378
10
126.62500000000001
20
-36.921840591994162
10
125.125
20
-36.921840591994162
42
-0.41421356237305862
10
124.625
20
-36.421840591994162
10
124.625
20
-20.728159408005837
42
-0.414213562373069
10
125.12500000000001
20
-20.228159408005837
10
126.625
20
-20.228159408005833
42
0.41421356237306511
10
127.125
20
-19.728159408005837
10
127.125
20
-18.824999999999999
42
0.4142135623730534
0
LWPOLYLINE
5
128
100
AcDbEntity
8
0
100
AcDbPolyline
90
8
70
1
43
0.0
10
126.84999999999999
20
-35.57500000000001
42
-0.41421356237304302
10
126.34999999999999
20
-35.075000000000003
10
126.35000000000005
20
-22.074999999999999
42
-0.41421356237308721
10
126.85000000000002
20
-21.575000000000006
10
139.84999999999999
20
-21.574999999999992
42
-0.41421356237309503
10
140.34999999999999
20
-22.074999999999999
10
140.34999999999999
20
-35.075000000000003
42
-0.41421356237309243
10
139.84999999999999
20
-35.57500000000001
0
LWPOLYLINE
5
129
100
AcDbEntity
8
0
100
AcDbPolyline
90
8
70
1
43
0.0
10
288.77499999999998
20
-35.575000000000045
42
-0.41421356237299095
10
288.27500000000003
20
-35.075000000000003
10
288.27500000000009
20
-22.074999999999999
42
-0.414213562373069
10
288.77499999999998
20
-21.575000000000017
10
301.77499999999998
20
-21.575000000000017
42
-0.41421356237316526
10
302.27499999999998
20
-22.074999999999999
10
302.27499999999998
20
-35.075000000000003
42
-0.41421356237314444
10
301.77499999999998
20
-35.57500000000001
0
LWPOLYLINE
5
130
100
AcDbEntity
8
0
100
AcDbPolyline
90
8
70
1
43
0.0
10
207.8125
20
-54.625000000000043
42
-0.41421356237307944
10
207.31250000000003
20
-54.125000000000021
10
207.31250000000011
20
-41.125
42
-0.41421356237309503
10
207.8125
20
-40.625000000000014
10
220.81250000000011
20
-40.624999999999943
42
-0.41421356237305862
10
221.3125
20
-41.125
10
221.3125
20
-54.125000000000021
42
-0.41421356237316265
10
220.8125
20
-54.624999999999993
0
LWPOLYLINE
5
131
100
AcDbEntity
8
0
100
AcDbPolyline
90
8
70
1
43
0.0
10
195.90625000000003
20
-92.725000000000023
10
208.90625
20
-92.725000000000009
42
0.41421356237298057
10
209.40625
20
-92.224999999999994
10
209.40625
20
-79.22499999999998
42
0.41421356237315748
10
208.90625
20
-78.725000000000023
10
195.90625
20
-78.724999999999994
42
0.41421356237306384
10
195.40625000000009
20
-79.22499999999998
10
195.40625000000009
20
-92.224999999999994
42
0.41421356237310542
0
LWPOLYLINE
5
132
100
AcDbEntity
8
0
100
AcDbPolyline
90
8
70
1
43
0.0
10
216.54999999999998
20
-35.075000000000003
42
-0.41421356237305601
10
216.05000000000004
20
-35.575000000000017
10
203.05000000000007
20
-35.575000000000017
42
-0.41421356237316265
10
202.55000000000001
20
-35.075000000000003
10
202.55000000000001
20
-22.074999999999999
42
-0.41421356237309764
10
203.05000000000007
20
-21.575000000000021
10
216.05000000000004
20
-21.574999999999996
42
-0.41421356237300916
10
216.54999999999998
20
-22.074999999999999
0
LWPOLYLINE
5
133
100
AcDbEntity
8
0
100
AcDbPolyline
90
8
70
1
43
0.0
10
240.36250000000001
20
-54.125000000000021
10
240.36249999999998
20
-41.125
42
0.41421356237316265
10
239.86250000000001
20
-40.624999999999964
10
226.86249999999998
20
-40.625000000000007
42
0.41421356237306384
10
226.36250000000007
20
-41.125
10
226.36250000000004
20
-54.125000000000021
42
0.41421356237307944
10
226.86250000000001
20
-54.625000000000021
10
239.86250000000001
20
-54.624999999999993
42
0.41421356237316265
0
LWPOLYLINE
5
134
100
AcDbEntity
8
0
100
AcDbPolyline
90
16
70
1
43
0.0
10
178.17500000000001
20
-38.824999999999989
10
181.27500000000003
20
-38.825000000000003
42
0.41421356237304563
10
181.77500000000003
20
-38.325000000000003
10
181.77500000000003
20
-18.824999999999999
42
0.41421356237306639
10
181.27500000000003
20
-18.325000000000014
10
178.17500000000001
20
-18.324999999999999
42
0.41421356237301959
10
177.67500000000001
20
-18.825000000000003
10
177.67500000000007
20
-19.728159408005837
42
0.414213562373069
10
178.17500000000001
20
-20.228159408005816
10
179.67500000000001
20
-20.228159408005819
42
-0.41421356237307944
10
180.17500000000007
20
-20.728159408005837
10
180.17500000000007
20
-36.421840591994162
42
-0.41421356237307944
10
179.67500000000001
20
-36.921840591994162
10
178.17500000000001
20
-36.921840591994162
42
0.41421356237304563
10
177.67500000000007
20
-37.421840591994162
10
177.67500000000007
20
-38.325000000000003
42
0.41421356237307161
0
LWPOLYLINE
5
135
100
AcDbEntity
8
0
100
AcDbPolyline
90
8
70
1
43
0.0
10
42.71875
20
-92.224999999999994
42
-0.41421356237312623
10
42.218750000000007
20
-92.724999999999966
10
29.218749999999993
20
-92.724999999999994
42
-0.41421356237306123
10
28.718749999999993
20
-92.224999999999994
10
28.718749999999993
20
-79.225000000000009
42
-0.41421356237309503
10
29.218749999999993
20
-78.725000000000009
10
42.218750000000007
20
-78.725000000000009
42
-0.41421356237311063
10
42.71875
20
-79.225000000000009
0
LWPOLYLINE
5
136
100
AcDbEntity
8
0
100
AcDbPolyline
90
8
70
1
43
0.0
10
150.66249999999999
20
-54.625
42
-0.41421356237312101
10
150.16249999999999
20
-54.125000000000021
10
150.16249999999999
20
-41.125
42
-0.41421356237310025
10
150.66249999999999
20
-40.625000000000007
10
163.66250000000011
20
-40.624999999999993
42
-0.41421356237313667
10
164.16250000000005
20
-41.125
10
164.16250000000005
20
-54.125000000000021
42
-0.41421356237316265
10
163.66250000000005
20
-54.624999999999993
0
LWPOLYLINE
5
137
100
AcDbEntity
8
0
100
AcDbPolyline
90
8
70
1
43
0.0
10
23.168749999999999
20
-40.625
42
-0.414213562373069
10
23.668749999999996
20
-41.124999999999986
10
23.668750000000003
20
-54.125000000000014
42
-0.41421356237308721
10
23.168749999999999
20
-54.625
10
5.4062499999999858
20
-54.624999999999993
42
-0.41421356237308266
10
4.9062500000000018
20
-54.125000000000021
10
4.9062500000000142
20
-41.125000000000007
42
-0.41421356237308204
10
5.4062499999999902
20
-40.625
0
LWPOLYLINE
5
138
100
AcDbEntity
8
0
100
AcDbPolyline
90
8
70
1
43
0.0
10
50.15000000000002
20
-22.074999999999999
10
50.15000000000002
20
-35.075000000000003
42
0.41421356237309503
10
50.650000000000013
20
-35.57500000000001
10
63.65000000000002
20
-35.57500000000001
42
0.41421356237309503
10
64.150000000000006
20
-35.075000000000003
10
64.150000000000006
20
-22.074999999999999
42
0.41421356237307683
10
63.65000000000002
20
-21.575000000000006
10
50.650000000000006
20
-21.575000000000017
42
0.41421356237310802
0
LWPOLYLINE
5
139
100
AcDbEntity
8
0
100
AcDbPolyline
90
8
70
1
43
0.0
10
282.72500000000002
20
-78.724999999999952
42
-0.41421356237315227
10
283.22500000000002
20
-79.22499999999998
10
283.22500000000002
20
-92.224999999999994
42
-0.41421356237312623
10
282.72500000000002
20
-92.725000000000051
10
269.72500000000002
20
-92.725000000000051
42
-0.41421356237301177
10
269.22500000000008
20
-92.224999999999994
10
269.22500000000002
20
-79.22499999999998
42
-0.41421356237310542
10
269.72500000000002
20
-78.724999999999994
0
LWPOLYLINE
5
140
100
AcDbEntity
8
0
100
AcDbPolyline
90
8
70
1
43
0.0
10
168.92500000000001
20
-16.024999999999999
10
168.92500000000001
20
-3.0250000000000021
42
0.41421356237300982
10
168.42500000000001
20
-2.5250000000000128
10
155.42500000000001
20
-2.5250000000000039
42
0.41421356237306706
10
154.92500000000001
20
-3.0250000000000021
10
154.92500000000001
20
-16.024999999999999
42
0.41421356237303258
10
155.42500000000001
20
-16.525000000000006
10
168.42500000000004
20
-16.524999999999991
42
0.41421356237310025
0
LWPOLYLINE
5
141
100
AcDbEntity
8
0
100
AcDbPolyline
90
8
70
1
43
0.0
10
16.024999999999999
20
-2.5249999999999999
42
-0.41421356237309342
10
16.525000000000002
20
-3.0249999999999999
10
16.525000000000002
20
-16.024999999999999
42
-0.41421356237308982
10
16.024999999999999
20
-16.525000000000002
10
3.0249999999999844
20
-16.524999999999999
42
-0.41421356237308787
10
2.524999999999999
20
-16.024999999999999
10
2.5250000000000106
20
-3.0250000000000021
42
-0.41421356237308365
10
3.0249999999999799
20
-2.5249999999999999
0
LWPOLYLINE
5
142
100
AcDbEntity
8
0
100
AcDbPolyline
90
8
70
1
43
0.0
10
149.875
20
-16.024999999999999
42
-0.41421356237309243
10
149.375
20
-16.525000000000002
10
136.375
20
-16.525000000000006
42
-0.41421356237303258
10
135.875
20
-16.024999999999999
10
135.875
20
-3.0250000000000021
42
-0.41421356237306706
10
136.375
20
-2.5250000000000039
10
149.375
20
-2.5250000000000083
42
-0.41421356237310675
10
149.875
20
-3.0249999999999999
0
LWPOLYLINE
5
143
100
AcDbEntity
8
0
100
AcDbPolyline
90
8
70
1
43
0.0
10
45.100000000000009
20
-35.075000000000003
10
45.100000000000009
20
-22.074999999999999
42
0.41421356237307683
10
44.600000000000001
20
-21.575000000000006
10
31.600000000000001
20
-21.57500000000001
42
0.4142135623730846
10
31.100000000000001
20
-22.074999999999999
10
31.099999999999998
20
-35.075000000000003
42
0.41421356237309243
10
31.600000000000001
20
-35.57500000000001
10
44.600000000000001
20
-35.57500000000001
42
0.41421356237309503
0
LWPOLYLINE
5
144
100
AcDbEntity
8
0
100
AcDbPolyline
90
8
70
1
43
0.0
10
130.82499999999999
20
-16.024999999999999
10
130.82499999999999
20
-3.0250000000000021
42
0.41421356237310802
10
130.32499999999999
20
-2.5250000000000128
10
117.32500000000002
20
-2.5249999999999977
42
0.41421356237307388
10
116.82500000000005
20
-3.0250000000000021
10
116.82500000000005
20
-16.024999999999999
42
0.41421356237308854
10
117.32500000000002
20
-16.524999999999999
10
130.32499999999999
20
-16.525000000000002
42
0.41421356237309243
0
LWPOLYLINE
5
145
100
AcDbEntity
8
0
100
AcDbPolyline
90
8
70
1
43
0.0
10
35.57500000000001
20
-16.024999999999999
10
35.57500000000001
20
-3.0250000000000021
42
0.4142135623730866
10
35.075000000000003
20
-2.524999999999995
10
22.074999999999999
20
-2.5250000000000017
42
0.41421356237310414
10
21.575000000000006
20
-3.0250000000000021
10
21.575000000000006
20
-16.024999999999999
42
0.41421356237309243
10
22.075000000000014
20
-16.524999999999999
10
35.07500000000001
20
-16.525000000000006
42
0.41421356237308593
0
LWPOLYLINE
5
146
100
AcDbEntity
8
0
100
AcDbPolyline
90
24
70
1
43
0.0
10
37.019250000000007
20
-74.074999999999974
42
-0.41421356237312429
10
37.419250000000005
20
-73.674999999999983
10
39.837499999999999
20
-73.674999999999983
42
0.41421356237309243
10
40.337500000000013
20
-73.174999999999983
10
40.337500000000013
20
-60.17499999999999
42
0.41421356237311585
10
39.837499999999999
20
-59.675000000000004
10
5.4062499999999902
20
-59.675000000000011
42
0.41421356237311197
10
4.9062500000000053
20
-60.174999999999997
10
4.90625
20
-73.174999999999983
42
0.41421356237309959
10
5.4062499999999858
20
-73.674999999999983
10
5.4432500000000008
20
-73.675000000000054
42
-0.41421356237310641
10
5.8432499999999976
20
-74.075000000000003
10
5.8432499999999976
20
-74.175000000000026
42
0.41421356237307294
10
6.3432500000000047
20
-74.674999999999983
10
12.643250000000002
20
-74.674999999999983
42
0.41421356237309764
10
13.143250000000002
20
-74.175000000000054
10
13.143249999999991
20
-74.075000000000003
42
-0.41421356237309664
10
13.543250000000011
20
-73.674999999999983
10
29.31925
20
-73.674999999999983
42
-0.41421356237309503
10
29.719250000000006
20
-74.075000000000003
10
29.719250000000009
20
-74.17500000000004
42
0.41421356237306384
10
30.219250000000002
20
-74.674999999999983
10
36.519250000000007
20
-74.674999999999983
42
0.41421356237308204
10
37.019250000000014
20
-74.175000000000026
0
LWPOLYLINE
5
147
100
AcDbEntity
8
0
100
AcDbPolyline
90
8
70
1
43
0.0
10
66.53125
20
-92.224999999999994
10
66.53125
20
-79.225000000000009
42
0.41421356237311063
10
66.031250000000014
20
-78.725000000000009
10
53.03125
20
-78.725000000000009
42
0.41421356237309503
10
52.53125
20
-79.225000000000009
10
52.53125
20
-92.224999999999994
42
0.4142135623730534
10
53.03125
20
-92.724999999999994
10
66.031250000000014
20
-92.724999999999966
42
0.41421356237314183
0
LWPOLYLINE
5
148
100
AcDbEntity
8
0
100
AcDbPolyline
90
8
70
1
43
0.0
10
4.9062499999999964
20
-79.225000000000009
10
4.9062499999999964
20
-92.224999999999994
42
0.41421356237305729
10
5.4062499999999947
20
-92.724999999999994
10
18.406250000000011
20
-92.724999999999966
42
0.41421356237312623
10
18.90625
20
-92.224999999999994
10
18.90625
20
-79.225000000000009
42
0.41421356237310936
10
18.406250000000011
20
-78.725000000000009
10
5.4062499999999947
20
-78.725000000000009
42
0.41421356237309503
0
LWPOLYLINE
5
149
100
AcDbEntity
8
0
100
AcDbPolyline
90
44
70
1
43
0.0
10
245.91250000000002
20
-54.625
10
250.71200000000002
20
-54.625000000000021
42
-0.41421356237304302
10
251.11199999999999
20
-55.025000000000013
10
251.11200000000002
20
-55.125
42
0.41421356237313667
10
251.61200000000002
20
-55.625000000000028
10
257.91199999999998
20
-55.624999999999972
42
0.41421356237315748
10
258.41200000000009
20
-55.125
10
258.41199999999998
20
-55.025000000000013
42
-0.41421356237312756
10
258.81200000000001
20
-54.625000000000021
10
274.58800000000002
20
-54.625000000000021
42
-0.41421356237304302
10
274.988
20
-55.025000000000013
10
274.98799999999994
20
-55.125
42
0.41421356237302737
10
275.48800000000006
20
-55.625000000000028
10
281.78800000000007
20
-55.624999999999993
42
0.41421356237307422
10
282.28800000000012
20
-55.125
10
282.28799999999995
20
-42.125
42
0.41421356237305862
10
281.78800000000001
20
-41.625000000000007
10
281.24374999999998
20
-41.625000000000014
42
-0.41421356237304952
10
280.84375
20
-41.225000000000016
10
280.84375
20
-31.600000000000001
42
0.41421356237314444
10
280.34375
20
-31.099999999999994
10
278.86250000000007
20
-31.100000000000048
42
-0.41421356237310153
10
278.46250000000003
20
-30.70000000000001
10
278.46250000000003
20
-30.212000000000003
42
-0.41421356237313078
10
278.86250000000007
20
-29.811999999999998
10
279.34375
20
-29.811999999999991
42
0.41421356237302998
10
279.84374999999994
20
-29.312000000000008
10
279.84375000000006
20
-23.012
42
0.41421356237307422
10
279.34375
20
-22.511999999999993
10
278.86250000000007
20
-22.512000000000096
42
-0.41421356237303975
10
278.46249999999998
20
-22.112000000000002
10
278.46249999999992
20
-22.074999999999999
42
0.41421356237300916
10
277.96249999999998
20
-21.574999999999992
10
264.96249999999998
20
-21.57500000000001
42
0.41421356237311324
10
264.46249999999998
20
-22.074999999999999
10
264.46249999999998
20
-35.075000000000003
42
0.41421356237314444
10
264.96249999999998
20
-35.575000000000017
10
266.44375000000002
20
-35.575000000000003
42
-0.41421356237304952
10
266.84375
20
-35.975000000000001
10
266.84375
20
-40.225000000000001
42
-0.41421356237302998
10
266.44375000000002
20
-40.625000000000014
10
245.91249999999999
20
-40.625000000000007
42
0.41421356237310542
10
245.41250000000002
20
-41.125
10
245.41249999999997
20
-54.125000000000021
42
0.41421356237313667
0
LWPOLYLINE
5
150
100
AcDbEntity
8
0
100
AcDbPolyline
90
8
70
1
43
0.0
10
21.287500000000005
20
-35.075000000000003
42
-0.41421356237309243
10
20.787500000000001
20
-35.57500000000001
10
7.7874999999999872
20
-35.57500000000001
42
-0.41421356237308005
10
7.2874999999999988
20
-35.075000000000003
10
7.2874999999999996
20
-22.075000000000003
42
-0.41421356237308593
10
7.7874999999999917
20
-21.57500000000001
10
20.787500000000001
20
-21.57500000000001
42
-0.4142135623730846
10
21.287500000000001
20
-22.074999999999999
0
LWPOLYLINE
5
151
100
AcDbEntity
8
0
100
AcDbPolyline
90
8
70
1
43
0.0
10
188.76249999999999
20
-54.625
10
201.76249999999999
20
-54.624999999999993
42
0.41421356237316265
10
202.26249999999999
20
-54.125000000000021
10
202.26249999999999
20
-41.125
42
0.41421356237313667
10
201.76250000000007
20
-40.624999999999964
10
188.76249999999996
20
-40.625000000000007
42
0.41421356237310542
10
188.26249999999999
20
-41.125
10
188.26249999999993
20
-54.125000000000021
42
0.41421356237313667
0
LWPOLYLINE
5
152
100
AcDbEntity
8
0
100
AcDbPolyline
90
8
70
1
43
0.0
10
288.27500000000015
20
-79.22499999999998
42
-0.41421356237314183
10
288.77499999999998
20
-78.724999999999994
10
301.77500000000009
20
-78.72499999999998
42
-0.41421356237307422
10
302.27499999999998
20
-79.22499999999998
10
302.27499999999998
20
-92.224999999999994
42
-0.41421356237312623
10
301.77499999999998
20
-92.725000000000051
10
288.77499999999998
20
-92.725000000000023
42
-0.41421356237310542
10
288.27500000000003
20
-92.224999999999994
0
LWPOLYLINE
5
153
100
AcDbEntity
8
0
100
AcDbPolyline
90
8
70
1
43
0.0
10
244.62500000000009
20
-2.524999999999995
10
231.625
20
-2.524999999999995
42
0.414213562373135
10
231.125
20
-3.0250000000000021
10
231.125
20
-16.024999999999999
42
0.41421356237300916
10
231.625
20
-16.524999999999981
10
244.62500000000009
20
-16.524999999999977
42
0.41421356237318741
10
245.12500000000003
20
-16.024999999999999
10
245.125
20
-3.0249999999999999
42
0.41421356237303747
0
LWPOLYLINE
5
154
100
AcDbEntity
8
0
100
AcDbPolyline
90
8
70
1
43
0.0
10
60.174999999999997
20
-16.525000000000002
42
-0.41421356237309631
10
59.675000000000004
20
-16.024999999999999
10
59.675000000000004
20
-3.0250000000000021
42
-0.41421356237309825
10
60.174999999999997
20
-2.5250000000000017
10
73.174999999999983
20
-2.5249999999999959
42
-0.41421356237309825
10
73.674999999999983
20
-3.0249999999999999
10
73.674999999999983
20
-16.024999999999999
42
-0.41421356237308982
10
73.174999999999983
20
-16.525000000000006
0
LWPOLYLINE
5
155
100
AcDbEntity
8
0
100
AcDbPolyline
90
8
70
1
43
0.0
10
301.77499999999998
20
-2.5249999999999861
10
288.77499999999998
20
-2.5249999999999861
42
0.41421356237314638
10
288.27500000000009
20
-3.0250000000000021
10
288.27500000000003
20
-16.024999999999999
42
0.41421356237301438
10
288.77499999999998
20
-16.525000000000006
10
301.77499999999998
20
-16.525000000000006
42
0.41421356237314316
10
302.27499999999998
20
-16.024999999999999
10
302.27499999999998
20
-3.0249999999999999
42
0.41421356237314216
0
LWPOLYLINE
5
156
100
AcDbEntity
8
0
100
AcDbPolyline
90
8
70
1
43
0.0
10
282.72500000000002
20
-59.674999999999983
10
269.72500000000002
20
-59.675000000000011
42
0.41421356237295975
10
269.22500000000008
20
-60.174999999999997
10
269.22500000000008
20
-73.174999999999983
42
0.4142135623730378
10
269.72500000000002
20
-73.674999999999983
10
282.72500000000002
20
-73.674999999999983
42
0.41421356237314183
10
283.22500000000002
20
-73.174999999999983
10
283.22500000000002
20
-60.174999999999997
42
0.41421356237314705
0
LWPOLYLINE
5
157
100
AcDbEntity
8
0
100
AcDbPolyline
90
8
70
1
43
0.0
10
250.17500000000001
20
-79.22499999999998
10
250.17500000000007
20
-92.224999999999994
42
0.41421356237301177
10
250.67500000000001
20
-92.725000000000023
10
263.67500000000001
20
-92.725000000000051
42
0.41421356237304302
10
264.17500000000007
20
-92.224999999999994
10
264.17500000000007
20
-79.22499999999998
42
0.414213562373069
10
263.67500000000001
20
-78.724999999999994
10
250.67499999999998
20
-78.724999999999994
42
0.41421356237310542
0
LWPOLYLINE
5
158
100
AcDbEntity
8
0
100
AcDbPolyline
90
8
70
1
43
0.0
10
173.1875
20
-59.675000000000004
10
160.18749999999997
20
-59.675000000000011
42
0.414213562373069
10
159.6875
20
-60.174999999999997
10
159.68750000000003
20
-73.174999999999983
42
0.41421356237304302
10
160.18749999999997
20
-73.674999999999983
10
173.1875
20
-73.674999999999997
42
0.41421356237298057
10
173.68750000000003
20
-73.174999999999983
10
173.6875
20
-60.174999999999997
42
0.4142135623730378
0
LWPOLYLINE
5
159
100
AcDbEntity
8
0
100
AcDbPolyline
90
8
70
1
43
0.0
10
111.77500000000002
20
-16.024999999999999
42
-0.41421356237309243
10
111.27500000000001
20
-16.525000000000002
10
98.275000000000006
20
-16.524999999999995
42
-0.41421356237308854
10
97.775000000000034
20
-16.024999999999999
10
97.775000000000034
20
-3.0250000000000021
42
-0.41421356237307488
10
98.275000000000006
20
-2.5249999999999915
10
111.27500000000001
20
-2.5250000000000083
42
-0.41421356237310675
10
111.77500000000002
20
-3.0249999999999999
0
LWPOLYLINE
5
160
100
AcDbEntity
8
0
100
AcDbPolyline
90
8
70
1
43
0.0
10
193.02500000000006
20
-3.0249999999999999
42
-0.41421356237313373
10
193.52500000000006
20
-2.524999999999991
10
206.52500000000003
20
-2.5249999999999986
42
-0.41421356237300855
10
207.02500000000003
20
-3.0249999999999999
10
207.02499999999998
20
-16.024999999999999
42
-0.41421356237305601
10
206.52500000000003
20
-16.525000000000013
10
193.52500000000006
20
-16.525000000000006
42
-0.41421356237309503
10
193.02500000000012
20
-16.024999999999999
0
LWPOLYLINE
5
161
100
AcDbEntity
8
0
100
AcDbPolyline
90
8
70
1
43
0.0
10
59.387500000000003
20
-73.174999999999983
42
-0.41421356237311063
10
58.887500000000017
20
-73.674999999999983
10
45.887500000000003
20
-73.674999999999983
42
-0.41421356237309503
10
45.387500000000003
20
-73.174999999999983
10
45.387500000000003
20
-60.174999999999997
42
-0.41421356237309503
10
45.887500000000003
20
-59.675000000000004
10
58.887500000000017
20
-59.675000000000004
42
-0.41421356237311063
10
59.387500000000003
20
-60.174999999999997
0
LWPOLYLINE
5
162
100
AcDbEntity
8
0
100
AcDbPolyline
90
8
70
1
43
0.0
10
192.23750000000001
20
-59.675000000000026
42
-0.41421356237309503
10
192.73750000000007
20
-60.174999999999997
10
192.73750000000007
20
-73.174999999999983
42
-0.41421356237309503
10
192.23750000000001
20
-73.674999999999969
10
179.23750000000001
20
-73.67500000000004
42
-0.41421356237311585
10
178.73750000000001
20
-73.174999999999983
10
178.73750000000001
20
-60.174999999999997
42
-0.41421356237314183
10
179.23750000000001
20
-59.675000000000004
0
LWPOLYLINE
5
163
100
AcDbEntity
8
0
100
AcDbPolyline
90
8
70
1
43
0.0
10
83.987499999999983
20
-73.674999999999983
10
96.987500000000011
20
-73.674999999999997
42
0.41421356237312101
10
97.487500000000011
20
-73.174999999999983
10
97.487500000000011
20
-60.174999999999997
42
0.41421356237311585
10
96.987500000000011
20
-59.675000000000004
10
83.987499999999983
20
-59.675000000000011
42
0.41421356237307422
10
83.487500000000026
20
-60.174999999999997
10
83.487499999999983
20
-73.174999999999983
42
0.41421356237312623
0
LWPOLYLINE
5
164
100
AcDbEntity
8
0
100
AcDbPolyline
90
8
70
1
43
0.0
10
288.77499999999998
20
-73.674999999999997
42
-0.41421356237307422
10
288.27499999999998
20
-73.174999999999983
10
288.27500000000009
20
-60.174999999999997
42
-0.41421356237314183
10
288.77499999999998
20
-59.674999999999983
10
301.77499999999998
20
-59.674999999999976
42
-0.41421356237314705
10
302.27499999999998
20
-60.174999999999997
10
302.27499999999998
20
-73.174999999999983
42
-0.41421356237314183
10
301.77499999999998
20
-73.674999999999983
0
LWPOLYLINE
5
165
100
AcDbEntity
8
0
100
AcDbPolyline
90
24
70
1
43
0.0
10
282.28800000000012
20
-16.925000000000001
42
-0.41421356237309342
10
282.68800000000005
20
-16.525000000000013
10
282.72500000000002
20
-16.525000000000006
42
0.41421356237314316
10
283.22500000000002
20
-16.024999999999999
10
283.22500000000002
20
-3.0249999999999999
42
0.41421356237314216
10
282.72500000000002
20
-2.5249999999999861
10
250.67500000000001
20
-2.524999999999991
42
0.414213562373135
10
250.17500000000001
20
-3.0250000000000021
10
250.17500000000001
20
-16.024999999999999
42
0.41421356237300916
10
250.67500000000001
20
-16.524999999999981
10
250.71200000000002
20
-16.525000000000006
42
-0.41421356237304463
10
251.11199999999999
20
-16.924999999999997
10
251.11199999999999
20
-17.024999999999999
42
0.41421356237313273
10
251.61200000000002
20
-17.525000000000013
10
257.91199999999998
20
-17.524999999999974
42
0.41421356237315876
10
258.41200000000009
20
-17.024999999999999
10
258.41200000000003
20
-16.925000000000001
42
-0.4142135623731113
10
258.81200000000001
20
-16.524999999999999
10
274.58800000000002
20
-16.525000000000006
42
-0.41421356237304463
10
274.988
20
-16.924999999999997
10
274.988
20
-17.024999999999999
42
0.41421356237313273
10
275.488
20
-17.525000000000013
10
281.78800000000001
20
-17.524999999999999
42
0.41421356237308332
10
282.28800000000012
20
-17.024999999999999
0
LWPOLYLINE
5
166
100
AcDbEntity
8
0
100
AcDbPolyline
90
8
70
1
43
0.0
10
177.32646986655197
20
-78.22467296034803
42
-0.41421356237311063
10
177.82646986655197
20
-77.724672960348016
10
184.12646986655199
20
-77.72467296034803
42
-0.41421356237310025
10
184.62646986655193
20
-78.224672960348002
10
184.62646986655193
20
-91.224672960348016
42
-0.41421356237307422
10
184.12646986655199
20
-91.724672960348016
10
177.82646986655195
20
-91.72467296034803
42
-0.41421356237304302
10
177.32646986655197
20
-91.224672960348002
0
LWPOLYLINE
5
167
100
AcDbEntity
8
0
100
AcDbPolyline
90
8
70
1
43
0.0
10
137.96887949227172
20
-92.225000002551226
10
137.96886930331229
20
-79.224999939941
42
0.40994835026672555
10
137.47647126117118
20
-78.72420692630628
10
124.47646911612591
20
-78.72458165308808
42
0.41882446237083626
10
123.9687160317614
20
-79.224999990897729
10
123.96871184457279
20
-92.225000000167284
42
0.41875856961925922
10
124.47646984913206
20
-92.724983840141974
10
137.47647052816507
20
-92.724983840141931
42
0.40971524333368647
0
LWPOLYLINE
5
168
100
AcDbEntity
8
0
100
AcDbPolyline
90
8
70
1
43
0.0
10
232.71875
20
-78.725000000000023
10
219.71875000000006
20
-78.724999999999994
42
0.4142135623730846
10
219.21875000000011
20
-79.22499999999998
10
219.21875000000011
20
-92.224999999999994
42
0.41421356237310542
10
219.71875000000006
20
-92.725000000000023
10
232.71875
20
-92.725000000000009
42
0.41421356237298057
10
233.21875000000003
20
-92.224999999999994
10
233.21875000000003
20
-79.22499999999998
42
0.41421356237315748
0
LWPOLYLINE
5
169
100
AcDbEntity
8
0
100
AcDbPolyline
90
8
70
1
43
0.0
10
77.326470510745182
20
-78.224672960348002
42
-0.41421356237309503
10
77.826470510745182
20
-77.724672960348016
10
84.12647051074515
20
-77.724672960348016
42
-0.41421356237308982
10
84.626470510745179
20
-78.22467296034803
10
84.626470510745179
20
-91.224672960348002
42
-0.4142135623730534
10
84.126470510745165
20
-91.724672960348016
10
77.826470510745168
20
-91.724672960348016
42
-0.41421356237305862
10
77.326470510745168
20
-91.224672960348016
0
LWPOLYLINE
5
170
100
AcDbEntity
8
0
100
AcDbPolyline
90
40
70
1
43
0.0
10
246.13700000009831
20
2.0018493807061333e-09
42
-0.4142135629051647
10
246.63700002439822
20
-0.49999999999994726
10
246.63700002486343
20
-1.2250000000000707
42
0.41421347658272034
10
247.13700000000003
20
-1.7249997062017908
10
286.26300000000003
20
-1.7249997062017983
42
0.4142134765826761
10
286.76299997513661
20
-1.2250000000000671
10
286.76299997560182
20
-0.49999999999994721
42
-0.41421356290516465
10
287.26299999990169
20
2.0018742219463093e-09
10
304.30000000005708
20
5.7110288720352287e-11
42
-0.41421356233965151
10
304.80000000000001
20
-0.49999999994289723
10
304.79999999999995
20
-94.750000000000028
42
-0.41421356237309503
10
304.29999999999995
20
-95.250000000000043
10
249.15000000000015
20
-95.249999999999972
42
-0.41421356237308815
10
247.65000000000015
20
-93.749999999999943
10
247.65000000000018
20
-77.699999999999946
42
0.41421356237308637
10
246.1500000000002
20
-76.199999999999946
10
239.62500000000017
20
-76.199999999999932
42
0.41421356237308293
10
238.12500000000017
20
-77.699999999999932
10
238.12500000000014
20
-93.749989889837693
42
-0.41421553649978671
10
236.62498988987198
20
-95.249989889803643
10
189.60341157895172
20
-95.249672960348008
42
-0.41421356237307422
10
189.10341157895169
20
-94.749672960347993
10
189.10341157895169
20
-93.224672960348016
42
0.41421356237307422
10
188.60341157895169
20
-92.724672960348016
10
173.34952815415221
20
-92.724672960348016
42
0.41421356237304302
10
172.84952815415224
20
-93.224672960348016
10
172.84952815415224
20
-94.749672960347993
42
-0.41421356237307422
10
172.34952815415221
20
-95.249672960348008
10
89.603412223144915
20
-95.249672960348008
42
-0.4142135623730534
10
89.103412223144915
20
-94.749672960347993
10
89.103412223144915
20
-93.224672960348016
42
0.41421356237307422
10
88.6034122231449
20
-92.724672960348016
10
73.349528798345446
20
-92.724672960348016
42
0.41421356237308982
10
72.849528798345432
20
-93.224672960348016
10
72.849528798345432
20
-94.749672960347993
42
-0.4142135623730534
10
72.349528798345432
20
-95.249672960348008
10
0.50025094780435719
20
-95.249997739851182
42
-0.41421411758661197
10
0.00024868766155705657
20
-94.74999905219228
10
1.3123394012465317e-06
20
-0.5000013123318916
42
-0.41421433111954509
10
0.50000131233364442
20
4.0678571622265736e-12
0
ENDSEC
0
SECTION
2
OBJECTS
0
DICTIONARY
5
C
100
AcDbDictionary
3
ACAD_GROUP
350
D
3
ACAD_MLINESTYLE
350
17
0
DICTIONARY
5
D
100
AcDbDictionary
0
DICTIONARY
5
1A
330
C
100
AcDbDictionary
0
DICTIONARY
5
17
100
AcDbDictionary
0
ENDSEC
0
EOF
