0
SECTION
2
HEADER
9
$INSUNITS
70
4
9
$ACADVER
1
AC1014
9
$HANDSEED
5
FFFF
0
ENDSEC
0
SECTION
2
TABLES
0
TABLE
2
VPORT
5
8
100
AcDbSymbolTable
0
ENDTAB
0
TABLE
2
LTYPE
5
5
100
AcDbSymbolTable
0
LTYPE
5
14
100
AcDbSymbolTableRecord
100
AcDbLinetypeTableRecord
2
BYBLOCK
70
0
0
LTYPE
5
15
100
AcDbSymbolTableRecord
100
AcDbLinetypeTableRecord
2
BYLAYER
70
0
0
ENDTAB
0
TABLE
2
LAYER
5
2
100
AcDbSymbolTable
70
2
0
LAYER
5
50
100
AcDbSymbolTableRecord
100
AcDbLayerTableRecord
2
0
70
0
6
CONTINUOUS
0
ENDTAB
0
TABLE
2
STYLE
5
3
100
AcDbSymbolTable
70
1
0
STYLE
5
11
100
AcDbSymbolTableRecord
100
AcDbTextStyleTableRecord
2
STANDARD
70
0
0
ENDTAB
0
TABLE
2
VIEW
5
6
100
AcDbSymbolTable
70
0
0
ENDTAB
0
TABLE
2
UCS
5
7
100
AcDbSymbolTable
70
0
0
ENDTAB
0
TABLE
2
APPID
5
9
100
AcDbSymbolTable
70
2
0
APPID
5
12
100
AcDbSymbolTableRecord
100
AcDbRegAppTableRecord
2
ACAD
70
0
0
ENDTAB
0
TABLE
2
DIMSTYLE
5
A
100
AcDbSymbolTable
70
1
0
ENDTAB
0
TABLE
2
BLOCK_RECORD
5
1
100
AcDbSymbolTable
70
1
0
BLOCK_RECORD
5
1F
100
AcDbSymbolTableRecord
100
AcDbBlockTableRecord
2
*MODEL_SPACE
0
BLOCK_RECORD
5
1B
100
AcDbSymbolTableRecord
100
AcDbBlockTableRecord
2
*PAPER_SPACE
0
ENDTAB
0
ENDSEC
0
SECTION
2
BLOCKS
0
BLOCK
5
20
100
AcDbEntity
100
AcDbBlockBegin
2
*MODEL_SPACE
0
ENDBLK
5
21
100
AcDbEntity
100
AcDbBlockEnd
0
BLOCK
5
1C
100
AcDbEntity
100
AcDbBlockBegin
2
*PAPER_SPACE
0
ENDBLK
5
1D
100
AcDbEntity
100
AcDbBlockEnd
0
ENDSEC
0
SECTION
2
ENTITIES
0
CIRCLE
5
100
100
AcDbEntity
8
0
100
AcDbCircle
10
-260.46249997160021
20
22.274999745221578
30
-2.7755575615628914e-16
40
2.2000000477771309
210
-8.4933510547477101e-32
220
-7.6850628466406167e-41
230
1
0
CIRCLE
5
101
100
AcDbEntity
8
0
100
AcDbCircle
10
-262.03124997160018
20
60.674999745221349
30
-2.7755575615628914e-16
40
2.2000000825226707
210
-1.244095963315169e-31
220
2.067951531382568e-25
230
1
0
CIRCLE
5
102
100
AcDbEntity
8
0
100
AcDbCircle
10
-28.668749971600249
20
41.624998745222008
30
-2.7755575615628914e-16
40
2.2000000652855034
210
5.373344544840388e-32
220
4.8619784941052166e-41
230
1
0
LWPOLYLINE
5
103
100
AcDbEntity
8
0
100
AcDbPolyline
90
16
70
1
43
0.0
10
-258.69999997160028
20
18.224999730609333
10
-258.69999997160028
20
16.824999729252099
42
-0.41421356237312101
10
-258.99999997160029
20
16.52499972925213
10
-274.89999997160032
20
16.524999729252098
42
-0.41421356237309076
10
-275.19999997160033
20
16.824999729252106
10
-275.19999997160033
20
18.224999730609376
42
0.41421356237308637
10
-275.49999997160035
20
18.524999730609366
10
-282.87499997160018
20
18.524999730609366
42
0.41421356237311974
10
-283.37499997160018
20
18.024999730609366
10
-283.37499997160018
20
3.0749997306093402
42
0.41421356237309476
10
-282.82499997160022
20
2.5249997306093661
10
-250.57499997160008
20
2.5249997306093435
42
0.41421356237309476
10
-250.02499997160015
20
3.0749997306093046
10
-250.02499997160015
20
18.024999730609387
42
0.41421356237307683
10
-250.52499997160015
20
18.524999730609387
10
-258.39999997160027
20
18.524999730609345
42
0.41421356237309503
0
ARC
5
104
100
AcDbEntity
8
0
100
AcDbCircle
10
-37.419249971600173
20
73.974999729251934
30
4.0357395772554732e-39
40
0.29999999999999361
210
-3.0133961869196887e-31
220
2.0679515313825267e-25
230
1
100
AcDbArc
50
269.99999999999721
51
360
0
LINE
5
105
100
AcDbEntity
8
0
100
AcDbLine
10
-37.119249971600176
20
73.97499972925192
30
9.0401889647127077e-32
11
-37.119249971600148
21
74.814999730609216
31
0
0
ARC
5
106
100
AcDbEntity
8
0
100
AcDbCircle
10
-36.569249971600179
20
74.814999730609216
30
-2.3532845890485248e-39
40
0.54999999999996163
210
-1.1070142467449646e-31
220
2.0679515313825265e-25
230
1
100
AcDbArc
50
90
51
180
0
LINE
5
107
100
AcDbEntity
8
0
100
AcDbLine
10
-36.569249971600179
20
75.364999730609185
30
-1.1373733422603337e-25
11
-29.731249971600171
21
75.364999730609242
31
5.9362524960610999e-31
0
ARC
5
108
100
AcDbEntity
8
0
100
AcDbCircle
10
-29.731249971600175
20
75.064999730609244
30
-7.6633509767763434e-46
40
0.29999999999999361
210
1.1709445705500803e-31
220
-1.4339166249192804e-45
230
1
100
AcDbArc
50
0
51
89.999999999999332
0
LINE
5
109
100
AcDbEntity
8
0
100
AcDbLine
10
-29.431249971600181
20
75.06499973060923
30
-3.5128337116502426e-32
11
-29.431249971600188
21
73.974999729251948
31
0
0
ARC
5
110
100
AcDbEntity
8
0
100
AcDbCircle
10
-29.131249971600187
20
73.974999729251948
30
-1.2802542961341617e-47
40
0.29999999999999805
210
4.2675143204472333e-47
220
2.4645441990799222e-47
230
1
100
AcDbArc
50
180
51
270.00000000000068
0
LINE
5
111
100
AcDbEntity
8
0
100
AcDbLine
10
-29.131249971600184
20
73.674999729251951
30
4.6275472549556718e-48
11
-13.731249971600189
21
73.674999729251994
31
2.3714047080813499e-32
0
ARC
5
112
100
AcDbEntity
8
0
100
AcDbCircle
10
-13.731249971600182
20
73.974999729251948
30
2.1810930337522913e-39
40
0.29999999999995808
210
-2.9938375365908537e-32
220
7.904681633241327e-32
230
1
100
AcDbArc
50
-90.000000000001378
51
0
0
LINE
5
113
100
AcDbEntity
8
0
100
AcDbLine
10
-13.431249971600188
20
73.974999729251948
30
8.9815115804223281e-33
11
-13.431249971600179
21
75.064999730609244
31
0
0
ARC
5
114
100
AcDbEntity
8
0
100
AcDbCircle
10
-13.13124997160018
20
75.064999730609244
30
3.4043705411692836e-39
40
0.30000000000000249
210
-1.1070143528870334e-31
220
2.0679515313826675e-25
230
1
100
AcDbArc
50
90.000000000002714
51
180
0
LINE
5
115
100
AcDbEntity
8
0
100
AcDbLine
10
-13.131249971600194
20
75.364999730609242
30
-6.2038545941477131e-26
11
-6.2932499716001882
21
75.364999730609171
31
2.1932569023578065e-31
0
ARC
5
116
100
AcDbEntity
8
0
100
AcDbCircle
10
-6.2932499716001757
20
74.814999730609216
30
1.4492789237432988e-39
40
0.54999999999994942
210
8.3590295499082507e-32
220
-2.0679515313825522e-25
230
1
100
AcDbArc
50
0
51
90.000000000001307
0
LINE
5
117
100
AcDbEntity
8
0
100
AcDbLine
10
-5.7432499716002265
20
74.814999730609202
30
-4.5974662911922151e-32
11
-5.7432499716002186
21
73.974999729251948
31
2.7755575615628914e-16
0
ARC
5
118
100
AcDbEntity
8
0
100
AcDbCircle
10
-5.4432499716002161
20
73.974999729251948
30
-6.4146353042212696e-47
40
0.30000000000000249
210
9.2518585385428949e-16
220
1.0037416374434681e-46
230
1
100
AcDbArc
50
180
51
270
0
LINE
5
119
100
AcDbEntity
8
0
100
AcDbLine
10
-5.4432499716002161
20
73.674999729251937
30
-3.5212092822474569e-47
11
-4.6932499716002587
21
73.674999729251937
31
1.3083661854052139e-33
0
ARC
5
120
100
AcDbEntity
8
0
100
AcDbCircle
10
-4.6932499716002498
20
73.37499972925194
30
1.6592523320252351e-46
40
0.30000000000000082
210
-9.9233678505138571e-32
220
6.0224498246608382e-46
230
1
100
AcDbArc
50
0
51
90.000000000001705
0
LINE
5
121
100
AcDbEntity
8
0
100
AcDbLine
10
-4.3932499716002491
20
73.37499972925194
30
2.9770103551541813e-32
11
-4.3932499716002473
21
59.974999729251969
31
-2.7755575615628914e-16
0
ARC
5
122
100
AcDbEntity
8
0
100
AcDbCircle
10
-4.6932499716002356
20
59.974999729251969
30
-2.7755575615628914e-16
40
0.30000000000000249
210
-1.6519727339861735e-31
220
2.0679516135555633e-25
230
1
100
AcDbArc
50
-90.000000000001208
51
0
0
LINE
5
123
100
AcDbEntity
8
0
100
AcDbLine
10
-4.6932499716002418
20
59.674999729251965
30
-2.775557560942506e-16
11
-5.4432499716002187
21
59.674999729251965
31
-3.9940312977759529e-34
0
ARC
5
124
100
AcDbEntity
8
0
100
AcDbCircle
10
-5.4432499716002294
20
59.37499972925194
30
-3.2501156062164077e-39
40
0.30000000000002913
210
-1.2202727538755424e-31
220
1.3313329322105654e-33
230
1
100
AcDbArc
50
89.999999999997954
51
180
0
LINE
5
125
100
AcDbEntity
8
0
100
AcDbLine
10
-5.7432499716002585
20
59.374999729251918
30
-3.6608180121282148e-32
11
-5.7432499716002212
21
57.024999729251988
31
0
0
ARC
5
126
100
AcDbEntity
8
0
100
AcDbCircle
10
-6.0432499716002201
20
57.024999729252002
30
-4.9612691869727283e-39
40
0.30000000000002025
210
-1.1070143793498571e-31
220
2.0679515313825967e-25
230
1
100
AcDbArc
50
270.00000000000284
51
360
0
LINE
5
127
100
AcDbEntity
8
0
100
AcDbLine
10
-6.0432499716002051
20
56.724999729251984
30
6.2038545941477131e-26
11
-13.443249971600221
21
56.724999729251984
31
-1.1879054899621319e-32
0
ARC
5
128
100
AcDbEntity
8
0
100
AcDbCircle
10
-13.443249971600235
20
57.024999729251995
30
2.6000655099776879e-46
40
0.30000000000000471
210
-1.2599176204143743e-31
220
-1.1184549674370032e-45
230
1
100
AcDbArc
50
180
51
270.00000000000273
0
LINE
5
129
100
AcDbEntity
8
0
100
AcDbLine
10
-13.743249971600239
20
57.024999729251995
30
-3.7797528612431565e-32
11
-13.743249971600235
21
59.374999729252067
31
0
0
ARC
5
130
100
AcDbEntity
8
0
100
AcDbCircle
10
-14.043249971600243
20
59.374999729252067
30
-7.4837411882581478e-49
40
0.30000000000000693
210
-2.4945803960859919e-48
220
6.1613604976998856e-47
230
1
100
AcDbArc
50
0
51
89.99999999999865
0
LINE
5
131
100
AcDbEntity
8
0
100
AcDbLine
10
-14.043249971600236
20
59.674999730609208
30
2.7755575615628914e-16
11
-28.8192499716002
21
59.674999730609215
31
2.7755575615628909e-16
0
ARC
5
132
100
AcDbEntity
8
0
100
AcDbCircle
10
-28.819249971600222
20
59.374999729252266
30
-6.3280396571365819e-39
40
0.29999999999998472
210
-1.9621894351148123e-31
220
2.067951531382512e-25
230
1
100
AcDbArc
50
89.999999999995936
51
180
0
LINE
5
133
100
AcDbEntity
8
0
100
AcDbLine
10
-29.119249971600208
20
59.374999729252252
30
-5.8865778633640363e-32
11
-29.119249971600208
21
57.024999729251988
31
0
0
ARC
5
134
100
AcDbEntity
8
0
100
AcDbCircle
10
-29.41924997160022
20
57.024999729252002
30
1.9979450760881181e-45
40
0.30000000000002025
210
8.6513798683962481e-32
220
-1.5371709871351846e-45
230
1
100
AcDbArc
50
270.00000000000335
51
360
0
LINE
5
135
100
AcDbEntity
8
0
100
AcDbLine
10
-29.419249971600202
20
56.724999729251984
30
0
11
-36.819249971600165
21
56.724999729251984
31
-1.0820471049725251e-31
0
ARC
5
136
100
AcDbEntity
8
0
100
AcDbCircle
10
-36.819249971600165
20
57.024999729251995
30
1.6797791649987431e-45
40
0.30000000000001137
210
-1.1070142762129377e-31
220
-1.7063607836539161e-45
230
1
100
AcDbArc
50
180
51
270
0
LINE
5
137
100
AcDbEntity
8
0
100
AcDbLine
10
-37.119249971600176
20
57.024999729251995
30
-3.3210428286387703e-32
11
-37.119249971600169
21
59.374999729252323
31
0
0
ARC
5
138
100
AcDbEntity
8
0
100
AcDbCircle
10
-37.419249971600188
20
59.374999729252316
30
-3.7632527118098115e-46
40
0.30000000000002469
210
-1.2544175706032834e-45
220
3.9194447570696278e-45
230
1
100
AcDbArc
50
0
51
89.99999999999865
0
LINE
5
139
100
AcDbEntity
8
0
100
AcDbLine
10
-37.419249971600181
20
59.674999729252335
30
1.4500143929782074e-46
11
-40.469249971600192
21
59.674999729251958
31
1.5454706182944451e-31
0
ARC
5
140
100
AcDbEntity
8
0
100
AcDbCircle
10
-40.469249971600199
20
59.974999729251969
30
-9.8015627448500999e-46
40
0.29999999999999361
210
-1.1070142762129144e-31
220
1.0754374686894205e-45
230
1
100
AcDbArc
50
180
51
270.00000000000131
0
LINE
5
141
100
AcDbEntity
8
0
100
AcDbLine
10
-40.769249971600196
20
59.974999729251969
30
-3.3210428286387703e-32
11
-40.769249971600203
21
73.374999729251996
31
0
0
ARC
5
142
100
AcDbEntity
8
0
100
AcDbCircle
10
-40.46924997160022
20
73.374999729251996
30
-5.6790904560038973e-46
40
0.30000000000000249
210
-1.1070142762129011e-31
220
1.384390482772864e-45
230
1
100
AcDbArc
50
89.999999999997286
51
180
0
LINE
5
143
100
AcDbEntity
8
0
100
AcDbLine
10
-40.469249971600206
20
73.674999729252008
30
0
11
-37.419249971600188
21
73.674999729251937
31
6.2038545941478508e-26
0
LWPOLYLINE
5
144
100
AcDbEntity
8
0
100
AcDbPolyline
90
8
70
1
43
0.0
10
-45.937499971600182
20
73.674999730609215
42
-0.41421356237307611
10
-45.387499971600185
20
73.124999730609218
10
-45.387499971600171
20
60.224999730609234
42
-0.41421356237310919
10
-45.937499971600175
20
59.674999730609237
10
-58.837499971600167
20
59.674999730609244
42
-0.41421356237308082
10
-59.387499971600171
20
60.224999730609241
10
-59.387499971600178
20
73.124999730609233
42
-0.41421356237307611
10
-58.837499971600181
20
73.67499973060923
0
LWPOLYLINE
5
145
100
AcDbEntity
8
0
100
AcDbPolyline
90
48
70
1
43
0.0
10
-272.31874997160082
20
55.224999729252104
10
-272.31874997160082
20
55.724999730609561
42
0.41421356237309503
10
-272.91874997160085
20
56.324999730609377
10
-280.24334997159974
20
56.324999730609626
42
0.41421356237309076
10
-280.84334997159965
20
55.724999730609639
10
-280.84334997159965
20
54.387999739061506
42
-0.41421356237312346
10
-281.39334997159966
20
53.83799973906153
10
-283.54334997160021
20
53.837999739061537
42
0.41421356237309503
10
-284.09334997160022
20
53.28799973906154
10
-284.09334997160022
20
46.78799973906149
42
0.41421356237309503
10
-283.54334997160021
20
46.237999739061479
10
-281.44334997159979
20
46.237999739061493
42
-0.41421356237309975
10
-280.89334997159983
20
45.687999739061489
10
-280.8933499716
20
31.724999729252119
42
0.41421356237313406
10
-280.39334997159995
20
31.224999729252104
10
-279.19334997159996
20
31.22499972925209
42
-0.4142135623731254
10
-278.59334997159999
20
30.624999729252149
10
-278.59334997159999
20
30.424999728382019
42
-0.4142135623731254
10
-279.19334997159996
20
29.824999728382057
10
-283.49334997160014
20
29.824999728382075
42
0.41421356237312978
10
-284.09334997160011
20
29.224999728382073
10
-284.09334997160011
20
22.174999728382069
42
0.41421356237310375
10
-283.49334997160008
20
21.574999728382068
10
-264.96249997160061
20
21.574999729739318
42
0.4142135623730927
10
-264.4124999716006
20
22.124999729739315
10
-264.4124999716006
20
40.074999730609349
42
-0.41421356237312812
10
-263.86249997160058
20
40.624999730609346
10
-256.98074997160012
20
40.624999730609346
42
-0.41421356237305601
10
-256.38074997160015
20
40.024999730609366
10
-256.38074997160015
20
38.244999729252093
42
0.41421356237312978
10
-255.78074997160016
20
37.644999729252106
10
-248.98074997160012
20
37.644999729252106
42
0.41421356237312101
10
-248.38074997160015
20
38.244999729252093
10
-248.3807499716001
20
40.024999730609913
42
-0.41421356237311241
10
-247.78074997160016
20
40.624999730609908
10
-245.91249997160071
20
40.624999730610021
42
0.41421356237307611
10
-245.36249997160073
20
41.174999730610018
10
-245.36249997160073
20
53.874999739061742
42
0.41421356237309503
10
-245.91249997160074
20
54.424999739061747
10
-247.78074997160019
20
54.424999739061739
42
-0.41421356237313406
10
-248.38074997160018
20
55.024999739061741
10
-248.38074997160018
20
55.724999730609312
42
0.41421356237309503
10
-248.98074997160018
20
56.324999730609314
10
-255.71874997160086
20
56.324999730609385
42
0.41421356237309503
10
-256.31874997160082
20
55.72499973060939
10
-256.31874997160082
20
55.224999729252097
42
-0.41421356237310375
10
-256.91874997160079
20
54.624999729252096
10
-271.71874997160086
20
54.624999729252124
42
-0.4142135623731254
0
LWPOLYLINE
5
146
100
AcDbEntity
8
0
100
AcDbPolyline
90
8
70
1
43
0.0
10
-301.72499997160014
20
21.574999730609381
10
-288.82499997160016
20
21.574999730609356
42
0.41421356237310919
10
-288.27499997160015
20
22.124999730609368
10
-288.27499997160021
20
35.024999730609366
42
0.41421356237313056
10
-288.82499997160016
20
35.574999730609363
10
-301.7249999716002
20
35.574999730609356
42
0.41421356237313289
10
-302.27499997160021
20
35.024999730609373
10
-302.27499997160015
20
22.124999730609375
42
0.41421356237313056
0
CIRCLE
5
147
100
AcDbEntity
8
0
100
AcDbCircle
10
-266.70000349088002
20
-2.8581134994437312
30
0
40
1.0999999999999943
210
8.7221764217644245e-32
220
5.2308999915357294e-47
230
1
0
LWPOLYLINE
5
148
100
AcDbEntity
8
0
100
AcDbPolyline
90
8
70
1
43
0.0
10
-68.91249997160017
20
54.074999730609235
42
-0.41421356237307611
10
-68.362499971600172
20
54.624999730609233
10
-55.462499971600181
20
54.624999730609233
42
-0.41421356237307611
10
-54.912499971600184
20
54.074999730609235
10
-54.912499971600184
20
41.17499973060923
42
-0.41421356237310453
10
-55.462499971600174
20
40.624999730609225
10
-68.362499971600172
20
40.624999730609233
42
-0.41421356237307144
10
-68.912499971600155
20
41.17499973060923
0
LWPOLYLINE
5
149
100
AcDbEntity
8
0
100
AcDbPolyline
90
8
70
1
43
0.0
10
-121.29999997160016
20
35.024999730609267
42
-0.41421356237308082
10
-120.74999997160018
20
35.574999730609278
10
-107.84999997160016
20
35.574999730609264
42
-0.4142135623730927
10
-107.29999997160014
20
35.024999730609252
10
-107.29999997160016
20
22.124999730609261
42
-0.41421356237309037
10
-107.84999997160016
20
21.574999730609274
10
-120.74999997160018
20
21.574999730609274
42
-0.41421356237310214
10
-121.29999997160014
20
22.124999730609268
0
LWPOLYLINE
5
150
100
AcDbEntity
8
0
100
AcDbPolyline
90
8
70
1
43
0.0
10
-97.774999971600181
20
3.0749997306092549
42
-0.41421356237306994
10
-98.32499997160015
20
2.5249997306092471
10
-111.22499997160014
20
2.5249997306092595
42
-0.41421356237307966
10
-111.77499997160014
20
3.0749997306092647
10
-111.77499997160015
20
15.974999730609266
42
-0.41421356237307849
10
-111.22499997160017
20
16.52499973060927
10
-98.324999971600164
20
16.524999730609245
42
-0.41421356237310214
10
-97.774999971600195
20
15.974999730609253
0
LWPOLYLINE
5
151
100
AcDbEntity
8
0
100
AcDbPolyline
90
8
70
1
43
0.0
10
-54.624999971600154
20
15.97499973060923
42
-0.41421356237307849
10
-54.074999971600157
20
16.524999730609228
10
-41.174999971600137
20
16.524999730609217
42
-0.41421356237307966
10
-40.624999971600147
20
15.97499973060922
10
-40.624999971600133
20
3.0749997306092203
42
-0.41421356237310514
10
-41.174999971600137
20
2.5249997306092165
10
-54.07499997160015
20
2.5249997306092347
42
-0.41421356237308499
10
-54.624999971600147
20
3.0749997306092314
0
LWPOLYLINE
5
152
100
AcDbEntity
8
0
100
AcDbPolyline
90
8
70
1
43
0.0
10
-73.674999971600158
20
15.974999730609241
42
-0.41421356237308443
10
-73.124999971600147
20
16.524999730609238
10
-60.224999971600148
20
16.524999730609228
42
-0.41421356237308082
10
-59.674999971600158
20
15.974999730609232
10
-59.674999971600144
20
3.0749997306092314
42
-0.41421356237310514
10
-60.224999971600148
20
2.5249997306092271
10
-73.124999971600147
20
2.5249997306092458
42
-0.41421356237308471
10
-73.67499997160013
20
3.0749997306092425
0
LWPOLYLINE
5
153
100
AcDbEntity
8
0
100
AcDbPolyline
90
8
70
1
43
0.0
10
-226.36249997160019
20
41.174999730609329
42
-0.41421356237313289
10
-226.91249997160017
20
40.624999730609339
10
-239.8124999716002
20
40.624999730609311
42
-0.41421356237303358
10
-240.36249997160019
20
41.174999730609336
10
-240.36249997160019
20
54.074999730609349
42
-0.41421356237311396
10
-239.8124999716002
20
54.62499973060936
10
-226.9124999716002
20
54.624999730609353
42
-0.41421356237316126
10
-226.36249997160022
20
54.074999730609335
0
LWPOLYLINE
5
154
100
AcDbEntity
8
0
100
AcDbPolyline
90
8
70
1
43
0.0
10
-221.59999997160017
20
22.124999730609325
42
-0.41421356237311163
10
-222.14999997160018
20
21.574999730609306
10
-235.04999997160016
20
21.574999730609331
42
-0.41421356237313522
10
-235.59999997160017
20
22.124999730609332
10
-235.5999999716002
20
35.024999730609338
42
-0.41421356237313522
10
-235.04999997160019
20
35.574999730609321
10
-222.14999997160021
20
35.574999730609328
42
-0.41421356237313522
10
-221.5999999716002
20
35.024999730609323
0
LWPOLYLINE
5
155
100
AcDbEntity
8
0
100
AcDbPolyline
90
8
70
1
43
0.0
10
-102.5374999716002
20
60.224999730609269
42
-0.41421356237307611
10
-103.0874999716002
20
59.674999730609272
10
-115.98749997160019
20
59.674999730609258
42
-0.41421356237305718
10
-116.5374999716002
20
60.224999730609277
10
-116.53749997160018
20
73.124999730609261
42
-0.41421356237307611
10
-115.98749997160019
20
73.674999730609272
10
-103.0874999716002
20
73.674999730609258
42
-0.41421356237307611
10
-102.5374999716002
20
73.124999730609261
0
LWPOLYLINE
5
156
100
AcDbEntity
8
0
100
AcDbPolyline
90
8
70
1
43
0.0
10
-264.17499997160019
20
92.174999730609358
42
-0.41421356237310453
10
-263.62499997160023
20
92.724999730609341
10
-250.72499997160023
20
92.724999730609326
42
-0.41421356237305718
10
-250.17499997160024
20
92.174999730609329
10
-250.17499997160019
20
79.274999730609352
42
-0.41421356237314239
10
-250.7249999716002
20
78.724999730609355
10
-263.62499997160012
20
78.724999730609341
42
-0.41421356237316126
10
-264.17499997160013
20
79.274999730609352
0
LWPOLYLINE
5
157
100
AcDbEntity
8
0
100
AcDbPolyline
90
8
70
1
43
0.0
10
-288.27499997160015
20
3.0749997306093664
42
-0.41421356237313323
10
-288.82499997160016
20
2.5249997306093812
10
-301.72499997160014
20
2.524999730609379
42
-0.41421356237313289
10
-302.27499997160015
20
3.0749997306093757
10
-302.27499997160015
20
15.974999730609376
42
-0.41421356237313056
10
-301.72499997160014
20
16.524999730609359
10
-288.82499997160016
20
16.524999730609363
42
-0.41421356237313173
10
-288.27499997160015
20
15.974999730609367
0
LWPOLYLINE
5
158
100
AcDbEntity
8
0
100
AcDbPolyline
90
8
70
1
43
0.0
10
-193.02499997160015
20
3.0749997306093109
42
-0.41421356237313378
10
-193.57499997160016
20
2.5249997306093253
10
-206.47499997160014
20
2.524999730609323
42
-0.41421356237313262
10
-207.02499997160015
20
3.0749997306093202
10
-207.02499997160015
20
15.974999730609321
42
-0.41421356237313289
10
-206.47499997160014
20
16.524999730609306
10
-193.57499997160016
20
16.524999730609309
42
-0.41421356237313289
10
-193.02499997160015
20
15.974999730609312
0
LWPOLYLINE
5
159
100
AcDbEntity
8
0
100
AcDbPolyline
90
8
70
1
43
0.0
10
-164.44999997160014
20
22.124999730609293
42
-0.41421356237311163
10
-164.99999997160015
20
21.574999730609274
10
-177.89999997160015
20
21.574999730609296
42
-0.41421356237313522
10
-178.44999997160016
20
22.124999730609296
10
-178.44999997160019
20
35.024999730609295
42
-0.41421356237313522
10
-177.89999997160021
20
35.574999730609285
10
-164.99999997160018
20
35.574999730609292
42
-0.41421356237313289
10
-164.44999997160016
20
35.024999730609295
0
LWPOLYLINE
5
160
100
AcDbEntity
8
0
100
AcDbPolyline
90
8
70
1
43
0.0
10
-168.92499997160016
20
15.974999730609296
42
-0.41421356237313406
10
-168.37499997160018
20
16.524999730609281
10
-155.47499997160017
20
16.524999730609295
42
-0.41421356237308082
10
-154.92499997160016
20
15.974999730609289
10
-154.92499997160013
20
3.0749997306092891
42
-0.41421356237309004
10
-155.47499997160014
20
2.5249997306092986
10
-168.37499997160018
20
2.5249997306093004
42
-0.41421356237313323
10
-168.92499997160016
20
3.074999730609298
0
LWPOLYLINE
5
161
100
AcDbEntity
8
0
100
AcDbPolyline
90
8
70
1
43
0.0
10
-121.58749997160018
20
60.224999730609277
42
-0.41421356237310453
10
-122.13749997160016
20
59.674999730609287
10
-135.03749997160017
20
59.674999730609272
42
-0.4142135623730856
10
-135.58749997160021
20
60.224999730609284
10
-135.58749997160018
20
73.124999730609275
42
-0.41421356237309975
10
-135.03749997160017
20
73.674999730609258
10
-122.13749997160019
20
73.674999730609272
42
-0.41421356237310919
10
-121.58749997160017
20
73.124999730609261
0
LWPOLYLINE
5
162
100
AcDbEntity
8
0
100
AcDbPolyline
90
8
70
1
43
0.0
10
-211.7874999716002
20
73.124999730609318
42
-0.41421356237311396
10
-211.23749997160019
20
73.674999730609329
10
-198.33749997160021
20
73.674999730609329
42
-0.41421356237302881
10
-197.7874999716002
20
73.124999730609318
10
-197.7874999716002
20
60.224999730609319
42
-0.41421356237313289
10
-198.33749997160021
20
59.674999730609329
10
-211.23749997160019
20
59.674999730609308
42
-0.41421356237303358
10
-211.7874999716002
20
60.224999730609326
0
LWPOLYLINE
5
163
100
AcDbEntity
8
0
100
AcDbPolyline
90
8
70
1
43
0.0
10
-197.49999997160018
20
35.024999730609309
42
-0.41421356237313289
10
-196.94999997160016
20
35.574999730609292
10
-184.04999997160019
20
35.574999730609306
42
-0.41421356237311635
10
-183.49999997160015
20
35.024999730609302
10
-183.49999997160015
20
22.124999730609307
42
-0.41421356237310919
10
-184.04999997160016
20
21.574999730609289
10
-196.94999997160014
20
21.574999730609321
42
-0.41421356237313056
10
-197.49999997160015
20
22.124999730609311
0
LWPOLYLINE
5
164
100
AcDbEntity
8
0
100
AcDbPolyline
90
8
70
1
43
0.0
10
-216.54999997160019
20
35.024999730609323
42
-0.41421356237313289
10
-215.99999997160018
20
35.574999730609306
10
-203.0999999716002
20
35.574999730609321
42
-0.41421356237311635
10
-202.54999997160016
20
35.024999730609316
10
-202.54999997160019
20
22.124999730609321
42
-0.41421356237311635
10
-203.09999997160017
20
21.574999730609299
10
-215.99999997160015
20
21.574999730609328
42
-0.41421356237313056
10
-216.54999997160016
20
22.124999730609321
0
LWPOLYLINE
5
165
100
AcDbEntity
8
0
100
AcDbPolyline
90
8
70
1
43
0.0
10
-169.21249997160018
20
41.174999730609294
42
-0.41421356237313289
10
-169.76249997160016
20
40.624999730609304
10
-182.66249997160017
20
40.624999730609275
42
-0.41421356237303358
10
-183.21249997160015
20
41.174999730609301
10
-183.21249997160015
20
54.074999730609306
42
-0.41421356237311396
10
-182.66249997160017
20
54.624999730609325
10
-169.76249997160016
20
54.624999730609318
42
-0.41421356237302881
10
-169.21249997160018
20
54.074999730609299
0
LWPOLYLINE
5
166
100
AcDbEntity
8
0
100
AcDbPolyline
90
8
70
1
43
0.0
10
-126.34999997160017
20
22.124999730609272
42
-0.41421356237309037
10
-126.89999997160017
20
21.574999730609289
10
-139.79999997160019
20
21.574999730609285
42
-0.41421356237310214
10
-140.34999997160017
20
22.124999730609275
10
-140.34999997160017
20
35.024999730609274
42
-0.41421356237305251
10
-139.79999997160019
20
35.574999730609285
10
-126.89999997160017
20
35.574999730609271
42
-0.41421356237311396
10
-126.34999997160017
20
35.024999730609274
0
LWPOLYLINE
5
167
100
AcDbEntity
8
0
100
AcDbPolyline
90
8
70
1
43
0.0
10
-149.8749999716002
20
92.174999730609258
42
-0.4142135623730856
10
-149.32499997160019
20
92.724999730609255
10
-124.5187499716002
20
92.724999730609298
42
-0.4142135623730856
10
-123.9687499716002
20
92.174999730609272
10
-123.96874997160023
20
79.274999730609295
42
-0.41421356237309975
10
-124.5187499716002
20
78.724999730609298
10
-149.32499997160019
20
78.724999730609312
42
-0.4142135623730856
10
-149.87499997160018
20
79.274999730609295
0
LWPOLYLINE
5
168
100
AcDbEntity
8
0
100
AcDbPolyline
90
8
70
1
43
0.0
10
-221.31249997160018
20
54.074999730609328
42
-0.41421356237311396
10
-220.76249997160019
20
54.624999730609346
10
-207.86249997160019
20
54.624999730609353
42
-0.41421356237303358
10
-207.3124999716002
20
54.074999730609328
10
-207.3124999716002
20
41.174999730609315
42
-0.41421356237313761
10
-207.86249997160019
20
40.624999730609318
10
-220.76249997160019
20
40.624999730609296
42
-0.41421356237303358
10
-221.31249997160018
20
41.174999730609315
0
LWPOLYLINE
5
169
100
AcDbEntity
8
0
100
AcDbPolyline
90
8
70
1
43
0.0
10
-257.03124997160018
20
73.124999730609346
42
-0.41421356237311396
10
-256.48124997160016
20
73.674999730609358
10
-243.58124997160019
20
73.674999730609358
42
-0.41421356237303358
10
-243.03124997160018
20
73.124999730609346
10
-243.03124997160018
20
60.224999730609348
42
-0.41421356237313761
10
-243.58124997160019
20
59.67499973060935
10
-256.48124997160016
20
59.674999730609343
42
-0.41421356237302881
10
-257.03124997160018
20
60.224999730609355
0
LWPOLYLINE
5
170
100
AcDbEntity
8
0
100
AcDbPolyline
90
8
70
1
43
0.0
10
-150.1624999716002
20
41.174999730609287
42
-0.41421356237308082
10
-150.71249997160015
20
40.624999730609275
10
-163.61249997160016
20
40.624999730609275
42
-0.41421356237316126
10
-164.16249997160014
20
41.174999730609294
10
-164.16249997160014
20
54.074999730609299
42
-0.41421356237309503
10
-163.61249997160016
20
54.624999730609318
10
-150.71249997160018
20
54.624999730609289
42
-0.41421356237307611
10
-150.1624999716002
20
54.074999730609292
0
LWPOLYLINE
5
171
100
AcDbEntity
8
0
100
AcDbPolyline
90
8
70
1
43
0.0
10
-173.97499997160014
20
3.0749997306092998
42
-0.41421356237313378
10
-174.52499997160015
20
2.5249997306093142
10
-187.42499997160019
20
2.5249997306093119
42
-0.41421356237313289
10
-187.97499997160017
20
3.0749997306093091
10
-187.97499997160017
20
15.974999730609309
42
-0.41421356237313056
10
-187.42499997160019
20
16.524999730609295
10
-174.52499997160015
20
16.524999730609295
42
-0.41421356237313173
10
-173.97499997160014
20
15.974999730609301
0
LWPOLYLINE
5
172
100
AcDbEntity
8
0
100
AcDbPolyline
90
8
70
1
43
0.0
10
-188.26249997160019
20
41.174999730609301
42
-0.41421356237313761
10
-188.81249997160018
20
40.624999730609311
10
-201.71249997160018
20
40.624999730609296
42
-0.41421356237302881
10
-202.26249997160016
20
41.174999730609308
10
-202.26249997160016
20
54.074999730609321
42
-0.41421356237311396
10
-201.71249997160018
20
54.624999730609332
10
-188.81249997160018
20
54.624999730609332
42
-0.41421356237303358
10
-188.26249997160019
20
54.074999730609306
0
LWPOLYLINE
5
173
100
AcDbEntity
8
0
100
AcDbPolyline
90
8
70
1
43
0.0
10
-116.82499997160015
20
3.0749997306092656
42
-0.41421356237309004
10
-117.37499997160015
20
2.5249997306092755
10
-130.27499997160015
20
2.5249997306092697
42
-0.41421356237307994
10
-130.82499997160016
20
3.0749997306092736
10
-130.82499997160016
20
15.974999730609273
42
-0.41421356237308082
10
-130.27499997160018
20
16.524999730609281
10
-117.37499997160016
20
16.524999730609267
42
-0.41421356237311635
10
-116.82499997160016
20
15.974999730609266
0
LWPOLYLINE
5
174
100
AcDbEntity
8
0
100
AcDbPolyline
90
8
70
1
43
0.0
10
-145.39999997160015
20
22.124999730609282
42
-0.41421356237309037
10
-145.94999997160014
20
21.574999730609292
10
-158.84999997160014
20
21.574999730609296
42
-0.41421356237310453
10
-159.39999997160012
20
22.124999730609293
10
-159.39999997160015
20
35.024999730609288
42
-0.41421356237305484
10
-158.84999997160017
20
35.574999730609292
10
-145.94999997160016
20
35.574999730609285
42
-0.41421356237308082
10
-145.39999997160015
20
35.024999730609281
0
LWPOLYLINE
5
175
100
AcDbEntity
8
0
100
AcDbPolyline
90
8
70
1
43
0.0
10
-245.12499997160012
20
15.974999730609341
42
-0.41421356237313406
10
-244.57499997160014
20
16.524999730609327
10
-231.67499997160019
20
16.524999730609331
42
-0.41421356237313406
10
-231.12499997160018
20
15.974999730609332
10
-231.12499997160018
20
3.0749997306093335
42
-0.41421356237313345
10
-231.67499997160019
20
2.5249997306093479
10
-244.57499997160014
20
2.5249997306093452
42
-0.41421356237313262
10
-245.12499997160012
20
3.0749997306093424
0
LWPOLYLINE
5
176
100
AcDbEntity
8
0
100
AcDbPolyline
90
8
70
1
43
0.0
10
-31.099999971600152
20
22.124999730609215
42
-0.41421356237309037
10
-31.649999971600153
20
21.574999730609214
10
-44.549999971600158
20
21.574999730609225
42
-0.4142135623730856
10
-45.099999971600141
20
22.124999730609222
10
-45.099999971600155
20
35.024999730609224
42
-0.41421356237307144
10
-44.549999971600172
20
35.574999730609221
10
-31.649999971600167
20
35.574999730609214
42
-0.41421356237310919
10
-31.09999997160017
20
35.024999730609217
0
LWPOLYLINE
5
177
100
AcDbEntity
8
0
100
AcDbPolyline
90
8
70
1
43
0.0
10
-78.724999971600155
20
3.0749997306092434
42
-0.41421356237310686
10
-79.274999971600153
20
2.5249997306092475
10
-92.17499997160013
20
2.5249997306092489
42
-0.41421356237307966
10
-92.724999971600127
20
3.0749997306092514
10
-92.724999971600141
20
15.974999730609252
42
-0.4142135623730927
10
-92.17499997160013
20
16.52499973060926
10
-79.274999971600153
20
16.524999730609242
42
-0.4142135623730856
10
-78.72499997160017
20
15.974999730609245
0
LWPOLYLINE
5
178
100
AcDbEntity
8
0
100
AcDbPolyline
90
8
70
1
43
0.0
10
-269.22499997160014
20
60.224999730609369
42
-0.41421356237313761
10
-269.77499997160015
20
59.674999730609372
10
-282.67499997160019
20
59.674999730609358
42
-0.41421356237310453
10
-283.2249999716002
20
60.224999730609376
10
-283.22499997160014
20
73.12499973060936
42
-0.41421356237309503
10
-282.67499997160019
20
73.674999730609386
10
-269.77499997160015
20
73.674999730609386
42
-0.41421356237303358
10
-269.22499997160014
20
73.12499973060936
0
LWPOLYLINE
5
179
100
AcDbEntity
8
0
100
AcDbPolyline
90
8
70
1
43
0.0
10
-154.63749997160019
20
73.124999730609289
42
-0.41421356237308082
10
-154.08749997160018
20
73.674999730609272
10
-141.18749997160018
20
73.674999730609272
42
-0.41421356237307611
10
-140.63749997160019
20
73.124999730609275
10
-140.63749997160016
20
60.224999730609298
42
-0.41421356237310919
10
-141.18749997160018
20
59.674999730609279
10
-154.08749997160018
20
59.674999730609287
42
-0.41421356237310919
10
-154.63749997160019
20
60.224999730609298
0
LWPOLYLINE
5
180
100
AcDbEntity
8
0
100
AcDbPolyline
90
8
70
1
43
0.0
10
-28.718749971600186
20
79.274999730609224
42
-0.41421356237310453
10
-29.268749971600194
20
78.724999730609241
10
-44.549999971600194
20
78.724999730609227
42
-0.4142135623730856
10
-45.099999971600198
20
79.274999730609238
10
-45.099999971600191
20
92.17499973060923
42
-0.41421356237310453
10
-44.549999971600194
20
92.724999730609241
10
-29.268749971600201
20
92.72499973060917
42
-0.41421356237307377
10
-28.718749971600186
20
92.174999730609187
0
LWPOLYLINE
5
181
100
AcDbEntity
8
0
100
AcDbPolyline
90
8
70
1
43
0.0
10
-212.07499997160016
20
3.074999730609322
42
-0.41421356237313323
10
-212.62499997160018
20
2.5249997306093368
10
-225.52499997160015
20
2.5249997306093346
42
-0.41421356237313228
10
-226.07499997160016
20
3.0749997306093313
10
-226.07499997160016
20
15.974999730609332
42
-0.41421356237313056
10
-225.52499997160015
20
16.524999730609316
10
-212.62499997160018
20
16.524999730609316
42
-0.41421356237313173
10
-212.07499997160016
20
15.974999730609323
0
LWPOLYLINE
5
182
100
AcDbEntity
8
0
100
AcDbPolyline
90
8
70
1
43
0.0
10
-288.27499997160021
20
60.224999730609376
42
-0.41421356237313761
10
-288.82499997160016
20
59.674999730609379
10
-301.7249999716002
20
59.674999730609393
42
-0.41421356237312812
10
-302.27499997160021
20
60.224999730609383
10
-302.27499997160021
20
73.124999730609375
42
-0.41421356237309037
10
-301.72499997160014
20
73.674999730609386
10
-288.82499997160016
20
73.674999730609358
42
-0.41421356237305718
10
-288.27499997160021
20
73.12499973060936
0
LWPOLYLINE
5
183
100
AcDbEntity
8
0
100
AcDbPolyline
90
8
70
1
43
0.0
10
-35.862499971600165
20
41.174999730609215
42
-0.41421356237310686
10
-36.41249997160017
20
40.624999730609218
10
-49.312499971600161
20
40.624999730609225
42
-0.41421356237308082
10
-49.862499971600165
20
41.174999730609223
10
-49.862499971600172
20
54.074999730609228
42
-0.41421356237307611
10
-49.312499971600175
20
54.624999730609225
10
-36.41249997160017
20
54.624999730609218
42
-0.41421356237307611
10
-35.86249997160018
20
54.074999730609221
0
LWPOLYLINE
5
184
100
AcDbEntity
8
0
100
AcDbPolyline
90
8
70
1
43
0.0
10
-69.199999971600164
20
22.124999730609236
42
-0.41421356237309503
10
-69.749999971600147
20
21.574999730609242
10
-82.649999971600167
20
21.57499973060925
42
-0.41421356237311396
10
-83.199999971600164
20
22.124999730609247
10
-83.199999971600164
20
35.024999730609245
42
-0.41421356237309037
10
-82.649999971600167
20
35.574999730609235
10
-69.749999971600147
20
35.574999730609235
42
-0.41421356237307377
10
-69.199999971600164
20
35.024999730609238
0
LWPOLYLINE
5
185
100
AcDbEntity
8
0
100
AcDbPolyline
90
8
70
1
43
0.0
10
-4.9062499716001877
20
79.27499973060921
42
-0.41421356237311047
10
-5.4562499716001867
20
78.724999730609227
10
-20.73749997160018
20
78.724999730609198
42
-0.41421356237309503
10
-21.287499971600209
20
79.274999730609238
10
-21.287499971600194
20
92.174999730609215
42
-0.41421356237307849
10
-20.737499971600194
20
92.72499973060917
10
-5.4562499716001867
20
92.724999730609198
42
-0.41421356237308615
10
-4.9062499716002037
20
92.174999730609215
0
LWPOLYLINE
5
186
100
AcDbEntity
8
0
100
AcDbPolyline
90
8
70
1
43
0.0
10
-107.01249997160019
20
54.074999730609264
42
-0.41421356237309975
10
-106.4624999716002
20
54.624999730609247
10
-93.562499971600189
20
54.624999730609254
42
-0.41421356237307611
10
-93.012499971600192
20
54.074999730609257
10
-93.012499971600192
20
41.174999730609244
42
-0.41421356237308082
10
-93.562499971600147
20
40.62499973060924
10
-106.46249997160015
20
40.624999730609268
42
-0.41421356237309975
10
-107.01249997160019
20
41.174999730609258
0
LWPOLYLINE
5
187
100
AcDbEntity
8
0
100
AcDbPolyline
90
8
70
1
43
0.0
10
-216.83749997160021
20
60.224999730609326
42
-0.41421356237313761
10
-217.38749997160016
20
59.674999730609343
10
-230.2874999716002
20
59.674999730609322
42
-0.41421356237310453
10
-230.83749997160021
20
60.224999730609341
10
-230.83749997160021
20
73.124999730609332
42
-0.41421356237311396
10
-230.2874999716002
20
73.674999730609343
10
-217.38749997160022
20
73.674999730609329
42
-0.41421356237316126
10
-216.83749997160021
20
73.124999730609318
0
LWPOLYLINE
5
188
100
AcDbEntity
8
0
100
AcDbPolyline
90
8
70
1
43
0.0
10
-288.27499997160021
20
79.27499973060938
42
-0.41421356237313761
10
-288.82499997160016
20
78.724999730609383
10
-301.7249999716002
20
78.724999730609355
42
-0.41421356237311396
10
-302.27499997160021
20
79.27499973060938
10
-302.27499997160021
20
92.174999730609386
42
-0.41421356237306667
10
-301.7249999716002
20
92.724999730609369
10
-288.82499997160028
20
92.724999730609369
42
-0.41421356237316126
10
-288.27499997160027
20
92.174999730609358
0
LWPOLYLINE
5
189
100
AcDbEntity
8
0
100
AcDbPolyline
90
8
70
1
43
0.0
10
-97.487499971600187
20
73.124999730609247
42
-0.41421356237308082
10
-96.937499971600189
20
73.67499973060923
10
-84.037499971600184
20
73.674999730609244
42
-0.41421356237307611
10
-83.487499971600187
20
73.124999730609247
10
-83.487499971600158
20
60.224999730609248
42
-0.41421356237310453
10
-84.03749997160017
20
59.674999730609244
10
-96.937499971600189
20
59.674999730609251
42
-0.41421356237310919
10
-97.487499971600201
20
60.224999730609255
0
LWPOLYLINE
5
190
100
AcDbEntity
8
0
100
AcDbPolyline
90
8
70
1
43
0.0
10
-131.11249997160013
20
41.174999730609272
42
-0.4142135623730856
10
-131.66249997160014
20
40.624999730609275
10
-144.56249997160015
20
40.624999730609289
42
-0.41421356237309975
10
-145.11249997160019
20
41.174999730609272
10
-145.11249997160019
20
54.074999730609285
42
-0.41421356237309975
10
-144.56249997160018
20
54.624999730609261
10
-131.66249997160017
20
54.624999730609282
42
-0.41421356237307611
10
-131.11249997160019
20
54.074999730609285
0
LWPOLYLINE
5
191
100
AcDbEntity
8
0
100
AcDbPolyline
90
8
70
1
43
0.0
10
-68.912499971600198
20
92.174999730609244
42
-0.41421356237310919
10
-68.362499971600187
20
92.724999730609255
10
-53.081249971600201
20
92.724999730609198
42
-0.41421356237307144
10
-52.531249971600218
20
92.17499973060923
10
-52.531249971600204
20
79.274999730609238
42
-0.41421356237310919
10
-53.081249971600187
20
78.724999730609241
10
-68.362499971600172
20
78.724999730609241
42
-0.41421356237307611
10
-68.912499971600184
20
79.274999730609238
0
LWPOLYLINE
5
192
100
AcDbEntity
8
0
100
AcDbPolyline
90
8
70
1
43
0.0
10
-254.64999997160018
20
35.024999730609345
42
-0.41421356237313522
10
-254.09999997160017
20
35.574999730609335
10
-241.19999997160019
20
35.574999730609321
42
-0.41421356237310686
10
-240.64999997160015
20
35.024999730609338
10
-240.64999997160015
20
22.124999730609343
42
-0.4142135623730856
10
-241.19999997160019
20
21.574999730609324
10
-254.09999997160014
20
21.574999730609342
42
-0.41421356237313522
10
-254.64999997160015
20
22.124999730609343
0
LWPOLYLINE
5
193
100
AcDbEntity
8
0
100
AcDbPolyline
90
8
70
1
43
0.0
10
-126.06249997160019
20
54.074999730609278
42
-0.41421356237307611
10
-125.51249997160019
20
54.624999730609275
10
-112.61249997160019
20
54.624999730609261
42
-0.41421356237310453
10
-112.06249997160016
20
54.074999730609264
10
-112.06249997160016
20
41.174999730609258
42
-0.41421356237311868
10
-112.61249997160014
20
40.624999730609268
10
-125.51249997160016
20
40.624999730609289
42
-0.41421356237309037
10
-126.06249997160018
20
41.174999730609272
0
LWPOLYLINE
5
194
100
AcDbEntity
8
0
100
AcDbPolyline
90
8
70
1
43
0.0
10
-73.962499971600181
20
41.174999730609237
42
-0.41421356237310453
10
-74.512499971600178
20
40.624999730609247
10
-87.412499971600141
20
40.624999730609268
42
-0.4142135623730856
10
-87.962499971600153
20
41.174999730609244
10
-87.962499971600153
20
54.074999730609257
42
-0.41421356237310919
10
-87.412499971600141
20
54.624999730609254
10
-74.512499971600192
20
54.624999730609247
42
-0.41421356237308082
10
-73.962499971600181
20
54.07499973060925
0
LWPOLYLINE
5
195
100
AcDbEntity
8
0
100
AcDbPolyline
90
8
70
1
43
0.0
10
-149.87499997160015
20
15.974999730609285
42
-0.41421356237307966
10
-149.32499997160016
20
16.524999730609295
10
-136.42499997160019
20
16.524999730609277
42
-0.41421356237311635
10
-135.87499997160018
20
15.974999730609277
10
-135.87499997160018
20
3.0749997306092758
42
-0.41421356237308943
10
-136.42499997160016
20
2.5249997306092862
10
-149.32499997160014
20
2.5249997306092835
42
-0.41421356237308793
10
-149.87499997160012
20
3.0749997306092847
0
LWPOLYLINE
5
196
100
AcDbEntity
8
0
100
AcDbPolyline
90
8
70
1
43
0.0
10
-288.27499997160021
20
41.174999730609365
42
-0.41421356237313761
10
-288.82499997160016
20
40.624999730609368
10
-301.72499997160014
20
40.62499973060936
42
-0.41421356237316126
10
-302.27499997160015
20
41.174999730609372
10
-302.27499997160021
20
54.074999730609377
42
-0.41421356237309037
10
-301.72499997160014
20
54.624999730609396
10
-288.82499997160016
20
54.62499973060936
42
-0.41421356237305718
10
-288.27499997160021
20
54.074999730609363
0
LWPOLYLINE
5
197
100
AcDbEntity
8
0
100
AcDbPolyline
90
8
70
1
43
0.0
10
-23.668749971600171
20
54.074999730609214
42
-0.41421356237309037
10
-23.118749971600174
20
54.624999730609204
10
-5.4562499716001867
20
54.624999730609204
42
-0.41421356237309387
10
-4.9062499716001717
20
54.074999730609207
10
-4.9062499716001717
20
41.174999730609194
42
-0.41421356237311102
10
-5.4562499716001645
20
40.624999730609197
10
-23.118749971600181
20
40.624999730609197
42
-0.41421356237307849
10
-23.668749971600171
20
41.174999730609187
0
LWPOLYLINE
5
198
100
AcDbEntity
8
0
100
AcDbPolyline
90
8
70
1
43
0.0
10
-64.149999971600153
20
35.024999730609231
42
-0.41421356237307849
10
-63.599999971600162
20
35.574999730609228
10
-50.699999971600171
20
35.574999730609221
42
-0.4142135623730927
10
-50.149999971600153
20
35.024999730609224
10
-50.149999971600153
20
22.124999730609225
42
-0.41421356237310919
10
-50.69999997160015
20
21.574999730609221
10
-63.599999971600155
20
21.574999730609228
42
-0.41421356237307849
10
-64.149999971600153
20
22.124999730609233
0
LWPOLYLINE
5
199
100
AcDbEntity
8
0
100
AcDbPolyline
90
8
70
1
43
0.0
10
-102.24999997160015
20
35.024999730609252
42
-0.41421356237307849
10
-101.69999997160018
20
35.57499973060925
10
-88.799999971600158
20
35.574999730609257
42
-0.41421356237308082
10
-88.249999971600175
20
35.024999730609252
10
-88.249999971600175
20
22.12499973060925
42
-0.41421356237305251
10
-88.799999971600144
20
21.574999730609242
10
-101.69999997160016
20
21.57499973060925
42
-0.41421356237308082
10
-102.24999997160018
20
22.124999730609254
0
LWPOLYLINE
5
200
100
AcDbEntity
8
0
100
AcDbPolyline
90
8
70
1
43
0.0
10
-159.6874999716002
20
60.224999730609298
42
-0.4142135623730856
10
-160.23749997160022
20
59.674999730609301
10
-173.13749997160016
20
59.674999730609287
42
-0.41421356237310453
10
-173.68749997160018
20
60.224999730609305
10
-173.68749997160018
20
73.124999730609289
42
-0.41421356237311396
10
-173.13749997160016
20
73.674999730609315
10
-160.23749997160022
20
73.674999730609272
42
-0.41421356237311868
10
-159.6874999716002
20
73.124999730609289
0
LWPOLYLINE
5
201
100
AcDbEntity
8
0
100
AcDbPolyline
90
8
70
1
43
0.0
10
-35.57499997160015
20
15.974999730609218
42
-0.41421356237310097
10
-35.024999971600145
20
16.524999730609213
10
-22.124999971600161
20
16.524999730609203
42
-0.41421356237310336
10
-21.574999971600146
20
15.974999730609209
10
-21.574999971600135
20
3.0749997306092092
42
-0.41421356237309209
10
-22.12499997160014
20
2.5249997306092116
10
-35.024999971600138
20
2.5249997306092222
42
-0.4142135623731048
10
-35.574999971600143
20
3.0749997306092203
0
LWPOLYLINE
5
202
100
AcDbEntity
8
0
100
AcDbPolyline
90
8
70
1
43
0.0
10
-7.2874999716001501
20
22.124999730609201
42
-0.41421356237308793
10
-7.8374999716001525
20
21.574999730609203
10
-20.737499971600144
20
21.574999730609214
42
-0.41421356237310214
10
-21.287499971600155
20
22.124999730609211
10
-21.287499971600159
20
35.02499973060921
42
-0.41421356237309742
10
-20.737499971600162
20
35.5749997306092
10
-7.8374999716001525
20
35.574999730609193
42
-0.41421356237308854
10
-7.2874999716001625
20
35.024999730609203
0
LWPOLYLINE
5
203
100
AcDbEntity
8
0
100
AcDbPolyline
90
8
70
1
43
0.0
10
-77.887499971600178
20
59.674999730609251
42
-0.41421356237307611
10
-78.437499971600175
20
60.224999730609248
10
-78.437499971600189
20
73.124999730609247
42
-0.41421356237307611
10
-77.887499971600192
20
73.674999730609244
10
-64.987499971600187
20
73.67499973060923
42
-0.41421356237307611
10
-64.437499971600189
20
73.124999730609233
10
-64.437499971600189
20
60.224999730609241
42
-0.41421356237310919
10
-64.987499971600172
20
59.674999730609244
0
LWPOLYLINE
5
204
100
AcDbEntity
8
0
100
AcDbPolyline
90
8
70
1
43
0.0
10
-269.22499997160014
20
79.274999730609366
42
-0.41421356237313289
10
-269.77499997160015
20
78.724999730609383
10
-282.67499997160019
20
78.724999730609369
42
-0.41421356237310919
10
-283.2249999716002
20
79.27499973060938
10
-283.22499997160025
20
92.174999730609372
42
-0.41421356237307611
10
-282.67499997160019
20
92.724999730609369
10
-269.77499997160021
20
92.724999730609369
42
-0.41421356237310453
10
-269.2249999716002
20
92.174999730609358
0
LWPOLYLINE
5
205
100
AcDbEntity
8
0
100
AcDbPolyline
90
8
70
1
43
0.0
10
-192.73749997160019
20
73.124999730609318
42
-0.41421356237311396
10
-192.18749997160018
20
73.674999730609329
10
-179.2874999716002
20
73.674999730609329
42
-0.41421356237303358
10
-178.73749997160019
20
73.124999730609304
10
-178.73749997160019
20
60.224999730609312
42
-0.41421356237313761
10
-179.2874999716002
20
59.674999730609315
10
-192.18749997160018
20
59.674999730609308
42
-0.41421356237302881
10
-192.73749997160019
20
60.224999730609319
0
CIRCLE
5
206
100
AcDbEntity
8
0
100
AcDbCircle
10
-38.099999969736288
20
98.122559675421272
30
0
40
1.0999999999999985
210
-1.0999345823051789e-31
220
-6.596573514510591e-47
230
1
0
CIRCLE
5
207
100
AcDbEntity
8
0
100
AcDbCircle
10
-38.099999971811734
20
-2.8581134995442699
30
0
40
1.0999999999999985
210
-1.0999346245495071e-31
220
-6.5965737678600618e-47
230
1
0
CIRCLE
5
208
100
AcDbEntity
8
0
100
AcDbCircle
10
-152.39975348880506
20
-2.858113499494003
30
0
40
1.0999999999999943
210
8.7221764217644245e-32
220
5.2308999915357294e-47
230
1
0
LWPOLYLINE
5
209
100
AcDbEntity
8
0
100
AcDbPolyline
90
8
70
1
43
0.0
10
-15.974999971600141
20
2.5249997306092102
10
-3.0749999716001399
20
2.5249997292519466
42
0.41421356237309503
10
-2.5249999716001392
20
3.074999729251946
10
-2.5249999716001521
20
15.974999730609197
42
0.41421356237309559
10
-3.0749999716001475
20
16.524999730609199
10
-15.974999971600148
20
16.524999730609203
42
0.41421356237309742
10
-16.524999971600135
20
15.974999730609207
10
-16.524999971600142
20
3.0749997306092069
42
0.4142135623730962
0
LWPOLYLINE
5
210
100
AcDbEntity
8
0
100
AcDbPolyline
90
8
70
1
43
0.0
10
-217.38749997160022
20
92.724999730609312
10
-232.71899997160023
20
92.724999730609326
42
0.41421356237312346
10
-233.26899997160024
20
92.174999730609329
10
-233.26899997160018
20
79.274999730609338
42
0.41421356237311396
10
-232.7189999716002
20
78.724999730609326
10
-217.38749997160011
20
78.724999730609312
42
0.41421356237309975
10
-216.83749997160018
20
79.274999730609295
10
-216.83749997160021
20
92.174999730609329
42
0.4142135623730856
0
LWPOLYLINE
5
211
100
AcDbEntity
8
0
100
AcDbPolyline
90
79
70
1
43
0.0
10
-185.83499997160018
20
95.161347253813602
42
-0.41421356237305862
10
-184.83499997160021
20
94.161347253813602
10
-184.83499997160015
20
77.424999730609301
42
0.41421356237310453
10
-184.28499997160017
20
76.874999730609304
10
-177.56799997160013
20
76.874999730609304
42
0.41421356237311868
10
-177.01799997160015
20
77.424999730609258
10
-177.01799997160026
20
94.161347253813602
42
-0.41421356237307422
10
-176.01799997160018
20
95.161347253813616
10
-157.97862159951976
20
95.161347253813602
42
0.26855894109142636
10
-157.11146080540138
20
95.663318984391054
10
-154.74040999409402
20
99.791763955612822
42
-0.51506124520666496
10
-150.05910114123972
20
99.791769785061717
10
-147.68804619449969
20
95.663318870357386
42
0.26855890584472247
10
-146.82088546587323
20
95.161347253813602
10
-90.47499997160017
20
95.161347253813574
42
-0.41421356237308982
10
-89.474999971600198
20
94.161347253813616
10
-89.474999971600198
20
77.424999730609201
42
0.41421356237310919
10
-88.924999971600229
20
76.874999730609247
10
-77.762499971600164
20
76.874999730609247
42
0.41421356237309503
10
-77.212499971600181
20
77.424999730609215
10
-77.212499971600224
20
94.161347253813659
42
-0.41421356237307944
10
-76.212499971600238
20
95.161347253813616
10
-43.678868008210337
20
95.161347253813616
42
0.26855891208533761
10
-42.81170726798819
20
95.663318890547671
10
-40.440653053389177
20
99.791768753011993
42
-0.51506059687413108
10
-35.759347622171447
20
99.791769785061689
10
-33.388292675431387
20
95.663318870357415
42
0.26855890584471825
10
-32.521131946804921
20
95.161347253813616
10
-1.1295034888045479
20
95.161347253813616
42
-0.41421356237308971
10
-0.12950348880454746
20
94.161347253813631
10
-0.12950348880453752
20
1.1418864991990145
42
-0.41421356237309609
10
-1.1295034888045308
20
0.14188649919901436
10
-32.518893293899211
20
0.14188649919890689
42
0.26945709590924927
10
-33.387717703922078
20
-0.3629931673987935
10
-35.767319478152793
20
-4.5386570779849702
42
-0.51205297549820561
10
-40.432679471752806
20
-4.5386584573153712
10
-42.812282233882982
20
-0.36299313829960872
42
0.26945708692815645
10
-43.681106627323004
20
0.14188649919891361
10
-146.81864681913967
20
0.14188649919897156
42
0.26945709260281425
10
-147.68747122305749
20
-0.36299315668570642
10
-150.06707336141983
20
-4.5386575863491778
42
-0.51205302453576529
10
-154.73243361619029
20
-4.5386575863491689
10
-157.1120357545494
20
-0.36299315666967708
42
0.26945709259788653
10
-157.98086015845811
20
0.14188649919904237
10
-261.11889693444016
20
0.14188649919940163
42
0.2694570472085418
10
-261.98772125454116
20
-0.36299300960572212
10
-264.36732838552541
20
-4.5386645571421811
42
-0.51205126868037543
10
-269.03267928902244
20
-4.5386635955233796
10
-271.4122857312754
20
-0.36299302989308901
42
0.26945705346998811
10
-272.28111006293767
20
0.14188649919940088
10
-303.6696432655238
20
0.14188649919938678
42
-0.41421356237307538
10
-304.6696432655238
20
1.1418864991994049
10
-304.66964326552386
20
94.161347253813801
42
-0.41421356237307422
10
-303.66964326552386
20
95.161347253813787
10
-272.27887151173616
20
95.161347253813574
42
0.26855890584472597
10
-271.41171078310975
20
95.663318870357415
10
-269.04065583636958
20
99.791769785061803
42
-0.51506045740032014
10
-264.3593511412397
20
99.791769785061774
10
-261.98829619449975
20
95.663318870357358
42
0.26855890584472247
10
-261.12113546587329
20
95.161347253813574
10
-204.02499997160027
20
95.161347253813616
42
-0.41421356237310542
10
-203.52499997160027
20
94.661347253813588
10
-203.52499997160021
20
93.274999730609309
42
-0.41421356237309503
10
-204.07499997160019
20
92.724999730609312
10
-208.90649997160023
20
92.724999730609312
42
0.41421356237310453
10
-209.45649997160021
20
92.174999730609315
10
-209.45649997160018
20
79.274999730609338
42
0.41421356237302881
10
-208.90649997160017
20
78.724999730609326
10
-204.07499997160016
20
78.724999730609312
42
-0.41421356237309037
10
-203.52499997160021
20
78.174999730609358
10
-203.52499997160021
20
77.274999730609309
42
0.41421356237309503
10
-202.97499997160025
20
76.724999730609341
10
-195.90599997160018
20
76.724999730609312
42
0.41421356237310453
10
-195.3559999716002
20
77.274999730609309
10
-195.35599997160023
20
92.174999730609301
42
0.39278753501250235
10
-195.86549997160031
20
92.723506567394395
42
-0.39278753501243868
10
-196.37499997160029
20
93.272013404179503
10
-196.37499997160029
20
94.661347253813588
42
-0.4142135623730846
10
-195.87499997160026
20
95.161347253813602
0
CIRCLE
5
212
100
AcDbEntity
8
0
100
AcDbCircle
10
-266.70000348880473
20
98.122347255170979
30
-2.7755575615628914e-16
40
1.0999999999999943
210
8.7221768258406075e-32
220
5.2309002338699614e-47
230
1
0
CIRCLE
5
213
100
AcDbEntity
8
0
100
AcDbCircle
10
-152.39975348880466
20
98.122347255170808
30
0
40
1.0999999999999943
210
8.7221768258406075e-32
220
5.2309002338699614e-47
230
1
0
CIRCLE
5
214
100
AcDbEntity
8
0
100
AcDbCircle
10
-260.46249997160021
20
22.274999745221578
30
-2.7755575615628914e-16
40
2.2000000477771309
210
-8.4933510547477101e-32
220
-7.6850628466406167e-41
230
1
0
CIRCLE
5
215
100
AcDbEntity
8
0
100
AcDbCircle
10
-262.03124997160018
20
60.674999745221349
30
-2.7755575615628914e-16
40
2.2000000825226707
210
-1.244095963315169e-31
220
2.067951531382568e-25
230
1
0
CIRCLE
5
216
100
AcDbEntity
8
0
100
AcDbCircle
10
-28.668749971600249
20
41.624998745222008
30
-2.7755575615628914e-16
40
2.2000000652855034
210
5.373344544840388e-32
220
4.8619784941052166e-41
230
1
0
LWPOLYLINE
5
217
100
AcDbEntity
8
0
100
AcDbPolyline
90
16
70
1
43
0.0
10
-258.69999997160028
20
18.224999730609333
10
-258.69999997160028
20
16.824999729252099
42
-0.41421356237312101
10
-258.99999997160029
20
16.52499972925213
10
-274.89999997160032
20
16.524999729252098
42
-0.41421356237309076
10
-275.19999997160033
20
16.824999729252106
10
-275.19999997160033
20
18.224999730609376
42
0.41421356237308637
10
-275.49999997160035
20
18.524999730609366
10
-282.87499997160018
20
18.524999730609366
42
0.41421356237311974
10
-283.37499997160018
20
18.024999730609366
10
-283.37499997160018
20
3.0749997306093402
42
0.41421356237309476
10
-282.82499997160022
20
2.5249997306093661
10
-250.57499997160008
20
2.5249997306093435
42
0.41421356237309476
10
-250.02499997160015
20
3.0749997306093046
10
-250.02499997160015
20
18.024999730609387
42
0.41421356237307683
10
-250.52499997160015
20
18.524999730609387
10
-258.39999997160027
20
18.524999730609345
42
0.41421356237309503
0
ARC
5
218
100
AcDbEntity
8
0
100
AcDbCircle
10
-37.419249971600173
20
73.974999729251934
30
4.0357395772554732e-39
40
0.29999999999999361
210
-3.0133961869196887e-31
220
2.0679515313825267e-25
230
1
100
AcDbArc
50
269.99999999999721
51
360
0
LINE
5
219
100
AcDbEntity
8
0
100
AcDbLine
10
-37.119249971600176
20
73.97499972925192
30
9.0401889647127077e-32
11
-37.119249971600148
21
74.814999730609216
31
0
0
ARC
5
220
100
AcDbEntity
8
0
100
AcDbCircle
10
-36.569249971600179
20
74.814999730609216
30
-2.3532845890485248e-39
40
0.54999999999996163
210
-1.1070142467449646e-31
220
2.0679515313825265e-25
230
1
100
AcDbArc
50
90
51
180
0
LINE
5
221
100
AcDbEntity
8
0
100
AcDbLine
10
-36.569249971600179
20
75.364999730609185
30
-1.1373733422603337e-25
11
-29.731249971600171
21
75.364999730609242
31
5.9362524960610999e-31
0
ARC
5
222
100
AcDbEntity
8
0
100
AcDbCircle
10
-29.731249971600175
20
75.064999730609244
30
-7.6633509767763434e-46
40
0.29999999999999361
210
1.1709445705500803e-31
220
-1.4339166249192804e-45
230
1
100
AcDbArc
50
0
51
89.999999999999332
0
LINE
5
223
100
AcDbEntity
8
0
100
AcDbLine
10
-29.431249971600181
20
75.06499973060923
30
-3.5128337116502426e-32
11
-29.431249971600188
21
73.974999729251948
31
0
0
ARC
5
224
100
AcDbEntity
8
0
100
AcDbCircle
10
-29.131249971600187
20
73.974999729251948
30
-1.2802542961341617e-47
40
0.29999999999999805
210
4.2675143204472333e-47
220
2.4645441990799222e-47
230
1
100
AcDbArc
50
180
51
270.00000000000068
0
LINE
5
225
100
AcDbEntity
8
0
100
AcDbLine
10
-29.131249971600184
20
73.674999729251951
30
4.6275472549556718e-48
11
-13.731249971600189
21
73.674999729251994
31
2.3714047080813499e-32
0
ARC
5
226
100
AcDbEntity
8
0
100
AcDbCircle
10
-13.731249971600182
20
73.974999729251948
30
2.1810930337522913e-39
40
0.29999999999995808
210
-2.9938375365908537e-32
220
7.904681633241327e-32
230
1
100
AcDbArc
50
-90.000000000001378
51
0
0
LINE
5
227
100
AcDbEntity
8
0
100
AcDbLine
10
-13.431249971600188
20
73.974999729251948
30
8.9815115804223281e-33
11
-13.431249971600179
21
75.064999730609244
31
0
0
ARC
5
228
100
AcDbEntity
8
0
100
AcDbCircle
10
-13.13124997160018
20
75.064999730609244
30
3.4043705411692836e-39
40
0.30000000000000249
210
-1.1070143528870334e-31
220
2.0679515313826675e-25
230
1
100
AcDbArc
50
90.000000000002714
51
180
0
LINE
5
229
100
AcDbEntity
8
0
100
AcDbLine
10
-13.131249971600194
20
75.364999730609242
30
-6.2038545941477131e-26
11
-6.2932499716001882
21
75.364999730609171
31
2.1932569023578065e-31
0
ARC
5
230
100
AcDbEntity
8
0
100
AcDbCircle
10
-6.2932499716001757
20
74.814999730609216
30
1.4492789237432988e-39
40
0.54999999999994942
210
8.3590295499082507e-32
220
-2.0679515313825522e-25
230
1
100
AcDbArc
50
0
51
90.000000000001307
0
LINE
5
231
100
AcDbEntity
8
0
100
AcDbLine
10
-5.7432499716002265
20
74.814999730609202
30
-4.5974662911922151e-32
11
-5.7432499716002186
21
73.974999729251948
31
2.7755575615628914e-16
0
ARC
5
232
100
AcDbEntity
8
0
100
AcDbCircle
10
-5.4432499716002161
20
73.974999729251948
30
-6.4146353042212696e-47
40
0.30000000000000249
210
9.2518585385428949e-16
220
1.0037416374434681e-46
230
1
100
AcDbArc
50
180
51
270
0
LINE
5
233
100
AcDbEntity
8
0
100
AcDbLine
10
-5.4432499716002161
20
73.674999729251937
30
-3.5212092822474569e-47
11
-4.6932499716002587
21
73.674999729251937
31
1.3083661854052139e-33
0
ARC
5
234
100
AcDbEntity
8
0
100
AcDbCircle
10
-4.6932499716002498
20
73.37499972925194
30
1.6592523320252351e-46
40
0.30000000000000082
210
-9.9233678505138571e-32
220
6.0224498246608382e-46
230
1
100
AcDbArc
50
0
51
90.000000000001705
0
LINE
5
235
100
AcDbEntity
8
0
100
AcDbLine
10
-4.3932499716002491
20
73.37499972925194
30
2.9770103551541813e-32
11
-4.3932499716002473
21
59.974999729251969
31
-2.7755575615628914e-16
0
ARC
5
236
100
AcDbEntity
8
0
100
AcDbCircle
10
-4.6932499716002356
20
59.974999729251969
30
-2.7755575615628914e-16
40
0.30000000000000249
210
-1.6519727339861735e-31
220
2.0679516135555633e-25
230
1
100
AcDbArc
50
-90.000000000001208
51
0
0
LINE
5
237
100
AcDbEntity
8
0
100
AcDbLine
10
-4.6932499716002418
20
59.674999729251965
30
-2.775557560942506e-16
11
-5.4432499716002187
21
59.674999729251965
31
-3.9940312977759529e-34
0
ARC
5
238
100
AcDbEntity
8
0
100
AcDbCircle
10
-5.4432499716002294
20
59.37499972925194
30
-3.2501156062164077e-39
40
0.30000000000002913
210
-1.2202727538755424e-31
220
1.3313329322105654e-33
230
1
100
AcDbArc
50
89.999999999997954
51
180
0
LINE
5
239
100
AcDbEntity
8
0
100
AcDbLine
10
-5.7432499716002585
20
59.374999729251918
30
-3.6608180121282148e-32
11
-5.7432499716002212
21
57.024999729251988
31
0
0
ARC
5
240
100
AcDbEntity
8
0
100
AcDbCircle
10
-6.0432499716002201
20
57.024999729252002
30
-4.9612691869727283e-39
40
0.30000000000002025
210
-1.1070143793498571e-31
220
2.0679515313825967e-25
230
1
100
AcDbArc
50
270.00000000000284
51
360
0
LINE
5
241
100
AcDbEntity
8
0
100
AcDbLine
10
-6.0432499716002051
20
56.724999729251984
30
6.2038545941477131e-26
11
-13.443249971600221
21
56.724999729251984
31
-1.1879054899621319e-32
0
ARC
5
242
100
AcDbEntity
8
0
100
AcDbCircle
10
-13.443249971600235
20
57.024999729251995
30
2.6000655099776879e-46
40
0.30000000000000471
210
-1.2599176204143743e-31
220
-1.1184549674370032e-45
230
1
100
AcDbArc
50
180
51
270.00000000000273
0
LINE
5
243
100
AcDbEntity
8
0
100
AcDbLine
10
-13.743249971600239
20
57.024999729251995
30
-3.7797528612431565e-32
11
-13.743249971600235
21
59.374999729252067
31
0
0
ARC
5
244
100
AcDbEntity
8
0
100
AcDbCircle
10
-14.043249971600243
20
59.374999729252067
30
-7.4837411882581478e-49
40
0.30000000000000693
210
-2.4945803960859919e-48
220
6.1613604976998856e-47
230
1
100
AcDbArc
50
0
51
89.99999999999865
0
LINE
5
245
100
AcDbEntity
8
0
100
AcDbLine
10
-14.043249971600236
20
59.674999730609208
30
2.7755575615628914e-16
11
-28.8192499716002
21
59.674999730609215
31
2.7755575615628909e-16
0
ARC
5
246
100
AcDbEntity
8
0
100
AcDbCircle
10
-28.819249971600222
20
59.374999729252266
30
-6.3280396571365819e-39
40
0.29999999999998472
210
-1.9621894351148123e-31
220
2.067951531382512e-25
230
1
100
AcDbArc
50
89.999999999995936
51
180
0
LINE
5
247
100
AcDbEntity
8
0
100
AcDbLine
10
-29.119249971600208
20
59.374999729252252
30
-5.8865778633640363e-32
11
-29.119249971600208
21
57.024999729251988
31
0
0
ARC
5
248
100
AcDbEntity
8
0
100
AcDbCircle
10
-29.41924997160022
20
57.024999729252002
30
1.9979450760881181e-45
40
0.30000000000002025
210
8.6513798683962481e-32
220
-1.5371709871351846e-45
230
1
100
AcDbArc
50
270.00000000000335
51
360
0
LINE
5
249
100
AcDbEntity
8
0
100
AcDbLine
10
-29.419249971600202
20
56.724999729251984
30
0
11
-36.819249971600165
21
56.724999729251984
31
-1.0820471049725251e-31
0
ARC
5
250
100
AcDbEntity
8
0
100
AcDbCircle
10
-36.819249971600165
20
57.024999729251995
30
1.6797791649987431e-45
40
0.30000000000001137
210
-1.1070142762129377e-31
220
-1.7063607836539161e-45
230
1
100
AcDbArc
50
180
51
270
0
LINE
5
251
100
AcDbEntity
8
0
100
AcDbLine
10
-37.119249971600176
20
57.024999729251995
30
-3.3210428286387703e-32
11
-37.119249971600169
21
59.374999729252323
31
0
0
ARC
5
252
100
AcDbEntity
8
0
100
AcDbCircle
10
-37.419249971600188
20
59.374999729252316
30
-3.7632527118098115e-46
40
0.30000000000002469
210
-1.2544175706032834e-45
220
3.9194447570696278e-45
230
1
100
AcDbArc
50
0
51
89.99999999999865
0
LINE
5
253
100
AcDbEntity
8
0
100
AcDbLine
10
-37.419249971600181
20
59.674999729252335
30
1.4500143929782074e-46
11
-40.469249971600192
21
59.674999729251958
31
1.5454706182944451e-31
0
ARC
5
254
100
AcDbEntity
8
0
100
AcDbCircle
10
-40.469249971600199
20
59.974999729251969
30
-9.8015627448500999e-46
40
0.29999999999999361
210
-1.1070142762129144e-31
220
1.0754374686894205e-45
230
1
100
AcDbArc
50
180
51
270.00000000000131
0
LINE
5
255
100
AcDbEntity
8
0
100
AcDbLine
10
-40.769249971600196
20
59.974999729251969
30
-3.3210428286387703e-32
11
-40.769249971600203
21
73.374999729251996
31
0
0
ARC
5
256
100
AcDbEntity
8
0
100
AcDbCircle
10
-40.46924997160022
20
73.374999729251996
30
-5.6790904560038973e-46
40
0.30000000000000249
210
-1.1070142762129011e-31
220
1.384390482772864e-45
230
1
100
AcDbArc
50
89.999999999997286
51
180
0
LINE
5
257
100
AcDbEntity
8
0
100
AcDbLine
10
-40.469249971600206
20
73.674999729252008
30
0
11
-37.419249971600188
21
73.674999729251937
31
6.2038545941478508e-26
0
LWPOLYLINE
5
258
100
AcDbEntity
8
0
100
AcDbPolyline
90
8
70
1
43
0.0
10
-45.937499971600182
20
73.674999730609215
42
-0.41421356237307611
10
-45.387499971600185
20
73.124999730609218
10
-45.387499971600171
20
60.224999730609234
42
-0.41421356237310919
10
-45.937499971600175
20
59.674999730609237
10
-58.837499971600167
20
59.674999730609244
42
-0.41421356237308082
10
-59.387499971600171
20
60.224999730609241
10
-59.387499971600178
20
73.124999730609233
42
-0.41421356237307611
10
-58.837499971600181
20
73.67499973060923
0
LWPOLYLINE
5
259
100
AcDbEntity
8
0
100
AcDbPolyline
90
48
70
1
43
0.0
10
-272.31874997160082
20
55.224999729252104
10
-272.31874997160082
20
55.724999730609561
42
0.41421356237309503
10
-272.91874997160085
20
56.324999730609377
10
-280.24334997159974
20
56.324999730609626
42
0.41421356237309076
10
-280.84334997159965
20
55.724999730609639
10
-280.84334997159965
20
54.387999739061506
42
-0.41421356237312346
10
-281.39334997159966
20
53.83799973906153
10
-283.54334997160021
20
53.837999739061537
42
0.41421356237309503
10
-284.09334997160022
20
53.28799973906154
10
-284.09334997160022
20
46.78799973906149
42
0.41421356237309503
10
-283.54334997160021
20
46.237999739061479
10
-281.44334997159979
20
46.237999739061493
42
-0.41421356237309975
10
-280.89334997159983
20
45.687999739061489
10
-280.8933499716
20
31.724999729252119
42
0.41421356237313406
10
-280.39334997159995
20
31.224999729252104
10
-279.19334997159996
20
31.22499972925209
42
-0.4142135623731254
10
-278.59334997159999
20
30.624999729252149
10
-278.59334997159999
20
30.424999728382019
42
-0.4142135623731254
10
-279.19334997159996
20
29.824999728382057
10
-283.49334997160014
20
29.824999728382075
42
0.41421356237312978
10
-284.09334997160011
20
29.224999728382073
10
-284.09334997160011
20
22.174999728382069
42
0.41421356237310375
10
-283.49334997160008
20
21.574999728382068
10
-264.96249997160061
20
21.574999729739318
42
0.4142135623730927
10
-264.4124999716006
20
22.124999729739315
10
-264.4124999716006
20
40.074999730609349
42
-0.41421356237312812
10
-263.86249997160058
20
40.624999730609346
10
-256.98074997160012
20
40.624999730609346
42
-0.41421356237305601
10
-256.38074997160015
20
40.024999730609366
10
-256.38074997160015
20
38.244999729252093
42
0.41421356237312978
10
-255.78074997160016
20
37.644999729252106
10
-248.98074997160012
20
37.644999729252106
42
0.41421356237312101
10
-248.38074997160015
20
38.244999729252093
10
-248.3807499716001
20
40.024999730609913
42
-0.41421356237311241
10
-247.78074997160016
20
40.624999730609908
10
-245.91249997160071
20
40.624999730610021
42
0.41421356237307611
10
-245.36249997160073
20
41.174999730610018
10
-245.36249997160073
20
53.874999739061742
42
0.41421356237309503
10
-245.91249997160074
20
54.424999739061747
10
-247.78074997160019
20
54.424999739061739
42
-0.41421356237313406
10
-248.38074997160018
20
55.024999739061741
10
-248.38074997160018
20
55.724999730609312
42
0.41421356237309503
10
-248.98074997160018
20
56.324999730609314
10
-255.71874997160086
20
56.324999730609385
42
0.41421356237309503
10
-256.31874997160082
20
55.72499973060939
10
-256.31874997160082
20
55.224999729252097
42
-0.41421356237310375
10
-256.91874997160079
20
54.624999729252096
10
-271.71874997160086
20
54.624999729252124
42
-0.4142135623731254
0
LWPOLYLINE
5
260
100
AcDbEntity
8
0
100
AcDbPolyline
90
8
70
1
43
0.0
10
-301.72499997160014
20
21.574999730609381
10
-288.82499997160016
20
21.574999730609356
42
0.41421356237310919
10
-288.27499997160015
20
22.124999730609368
10
-288.27499997160021
20
35.024999730609366
42
0.41421356237313056
10
-288.82499997160016
20
35.574999730609363
10
-301.7249999716002
20
35.574999730609356
42
0.41421356237313289
10
-302.27499997160021
20
35.024999730609373
10
-302.27499997160015
20
22.124999730609375
42
0.41421356237313056
0
CIRCLE
5
261
100
AcDbEntity
8
0
100
AcDbCircle
10
-266.70000349088002
20
-2.8581134994437312
30
0
40
1.0999999999999943
210
8.7221764217644245e-32
220
5.2308999915357294e-47
230
1
0
LWPOLYLINE
5
262
100
AcDbEntity
8
0
100
AcDbPolyline
90
8
70
1
43
0.0
10
-68.91249997160017
20
54.074999730609235
42
-0.41421356237307611
10
-68.362499971600172
20
54.624999730609233
10
-55.462499971600181
20
54.624999730609233
42
-0.41421356237307611
10
-54.912499971600184
20
54.074999730609235
10
-54.912499971600184
20
41.17499973060923
42
-0.41421356237310453
10
-55.462499971600174
20
40.624999730609225
10
-68.362499971600172
20
40.624999730609233
42
-0.41421356237307144
10
-68.912499971600155
20
41.17499973060923
0
LWPOLYLINE
5
263
100
AcDbEntity
8
0
100
AcDbPolyline
90
8
70
1
43
0.0
10
-121.29999997160016
20
35.024999730609267
42
-0.41421356237308082
10
-120.74999997160018
20
35.574999730609278
10
-107.84999997160016
20
35.574999730609264
42
-0.4142135623730927
10
-107.29999997160014
20
35.024999730609252
10
-107.29999997160016
20
22.124999730609261
42
-0.41421356237309037
10
-107.84999997160016
20
21.574999730609274
10
-120.74999997160018
20
21.574999730609274
42
-0.41421356237310214
10
-121.29999997160014
20
22.124999730609268
0
LWPOLYLINE
5
264
100
AcDbEntity
8
0
100
AcDbPolyline
90
8
70
1
43
0.0
10
-97.774999971600181
20
3.0749997306092549
42
-0.41421356237306994
10
-98.32499997160015
20
2.5249997306092471
10
-111.22499997160014
20
2.5249997306092595
42
-0.41421356237307966
10
-111.77499997160014
20
3.0749997306092647
10
-111.77499997160015
20
15.974999730609266
42
-0.41421356237307849
10
-111.22499997160017
20
16.52499973060927
10
-98.324999971600164
20
16.524999730609245
42
-0.41421356237310214
10
-97.774999971600195
20
15.974999730609253
0
LWPOLYLINE
5
265
100
AcDbEntity
8
0
100
AcDbPolyline
90
8
70
1
43
0.0
10
-54.624999971600154
20
15.97499973060923
42
-0.41421356237307849
10
-54.074999971600157
20
16.524999730609228
10
-41.174999971600137
20
16.524999730609217
42
-0.41421356237307966
10
-40.624999971600147
20
15.97499973060922
10
-40.624999971600133
20
3.0749997306092203
42
-0.41421356237310514
10
-41.174999971600137
20
2.5249997306092165
10
-54.07499997160015
20
2.5249997306092347
42
-0.41421356237308499
10
-54.624999971600147
20
3.0749997306092314
0
LWPOLYLINE
5
266
100
AcDbEntity
8
0
100
AcDbPolyline
90
8
70
1
43
0.0
10
-73.674999971600158
20
15.974999730609241
42
-0.41421356237308443
10
-73.124999971600147
20
16.524999730609238
10
-60.224999971600148
20
16.524999730609228
42
-0.41421356237308082
10
-59.674999971600158
20
15.974999730609232
10
-59.674999971600144
20
3.0749997306092314
42
-0.41421356237310514
10
-60.224999971600148
20
2.5249997306092271
10
-73.124999971600147
20
2.5249997306092458
42
-0.41421356237308471
10
-73.67499997160013
20
3.0749997306092425
0
LWPOLYLINE
5
267
100
AcDbEntity
8
0
100
AcDbPolyline
90
8
70
1
43
0.0
10
-226.36249997160019
20
41.174999730609329
42
-0.41421356237313289
10
-226.91249997160017
20
40.624999730609339
10
-239.8124999716002
20
40.624999730609311
42
-0.41421356237303358
10
-240.36249997160019
20
41.174999730609336
10
-240.36249997160019
20
54.074999730609349
42
-0.41421356237311396
10
-239.8124999716002
20
54.62499973060936
10
-226.9124999716002
20
54.624999730609353
42
-0.41421356237316126
10
-226.36249997160022
20
54.074999730609335
0
LWPOLYLINE
5
268
100
AcDbEntity
8
0
100
AcDbPolyline
90
8
70
1
43
0.0
10
-221.59999997160017
20
22.124999730609325
42
-0.41421356237311163
10
-222.14999997160018
20
21.574999730609306
10
-235.04999997160016
20
21.574999730609331
42
-0.41421356237313522
10
-235.59999997160017
20
22.124999730609332
10
-235.5999999716002
20
35.024999730609338
42
-0.41421356237313522
10
-235.04999997160019
20
35.574999730609321
10
-222.14999997160021
20
35.574999730609328
42
-0.41421356237313522
10
-221.5999999716002
20
35.024999730609323
0
LWPOLYLINE
5
269
100
AcDbEntity
8
0
100
AcDbPolyline
90
8
70
1
43
0.0
10
-102.5374999716002
20
60.224999730609269
42
-0.41421356237307611
10
-103.0874999716002
20
59.674999730609272
10
-115.98749997160019
20
59.674999730609258
42
-0.41421356237305718
10
-116.5374999716002
20
60.224999730609277
10
-116.53749997160018
20
73.124999730609261
42
-0.41421356237307611
10
-115.98749997160019
20
73.674999730609272
10
-103.0874999716002
20
73.674999730609258
42
-0.41421356237307611
10
-102.5374999716002
20
73.124999730609261
0
LWPOLYLINE
5
270
100
AcDbEntity
8
0
100
AcDbPolyline
90
8
70
1
43
0.0
10
-264.17499997160019
20
92.174999730609358
42
-0.41421356237310453
10
-263.62499997160023
20
92.724999730609341
10
-250.72499997160023
20
92.724999730609326
42
-0.41421356237305718
10
-250.17499997160024
20
92.174999730609329
10
-250.17499997160019
20
79.274999730609352
42
-0.41421356237314239
10
-250.7249999716002
20
78.724999730609355
10
-263.62499997160012
20
78.724999730609341
42
-0.41421356237316126
10
-264.17499997160013
20
79.274999730609352
0
LWPOLYLINE
5
271
100
AcDbEntity
8
0
100
AcDbPolyline
90
8
70
1
43
0.0
10
-288.27499997160015
20
3.0749997306093664
42
-0.41421356237313323
10
-288.82499997160016
20
2.5249997306093812
10
-301.72499997160014
20
2.524999730609379
42
-0.41421356237313289
10
-302.27499997160015
20
3.0749997306093757
10
-302.27499997160015
20
15.974999730609376
42
-0.41421356237313056
10
-301.72499997160014
20
16.524999730609359
10
-288.82499997160016
20
16.524999730609363
42
-0.41421356237313173
10
-288.27499997160015
20
15.974999730609367
0
LWPOLYLINE
5
272
100
AcDbEntity
8
0
100
AcDbPolyline
90
8
70
1
43
0.0
10
-193.02499997160015
20
3.0749997306093109
42
-0.41421356237313378
10
-193.57499997160016
20
2.5249997306093253
10
-206.47499997160014
20
2.524999730609323
42
-0.41421356237313262
10
-207.02499997160015
20
3.0749997306093202
10
-207.02499997160015
20
15.974999730609321
42
-0.41421356237313289
10
-206.47499997160014
20
16.524999730609306
10
-193.57499997160016
20
16.524999730609309
42
-0.41421356237313289
10
-193.02499997160015
20
15.974999730609312
0
LWPOLYLINE
5
273
100
AcDbEntity
8
0
100
AcDbPolyline
90
8
70
1
43
0.0
10
-164.44999997160014
20
22.124999730609293
42
-0.41421356237311163
10
-164.99999997160015
20
21.574999730609274
10
-177.89999997160015
20
21.574999730609296
42
-0.41421356237313522
10
-178.44999997160016
20
22.124999730609296
10
-178.44999997160019
20
35.024999730609295
42
-0.41421356237313522
10
-177.89999997160021
20
35.574999730609285
10
-164.99999997160018
20
35.574999730609292
42
-0.41421356237313289
10
-164.44999997160016
20
35.024999730609295
0
LWPOLYLINE
5
274
100
AcDbEntity
8
0
100
AcDbPolyline
90
8
70
1
43
0.0
10
-168.92499997160016
20
15.974999730609296
42
-0.41421356237313406
10
-168.37499997160018
20
16.524999730609281
10
-155.47499997160017
20
16.524999730609295
42
-0.41421356237308082
10
-154.92499997160016
20
15.974999730609289
10
-154.92499997160013
20
3.0749997306092891
42
-0.41421356237309004
10
-155.47499997160014
20
2.5249997306092986
10
-168.37499997160018
20
2.5249997306093004
42
-0.41421356237313323
10
-168.92499997160016
20
3.074999730609298
0
LWPOLYLINE
5
275
100
AcDbEntity
8
0
100
AcDbPolyline
90
8
70
1
43
0.0
10
-121.58749997160018
20
60.224999730609277
42
-0.41421356237310453
10
-122.13749997160016
20
59.674999730609287
10
-135.03749997160017
20
59.674999730609272
42
-0.4142135623730856
10
-135.58749997160021
20
60.224999730609284
10
-135.58749997160018
20
73.124999730609275
42
-0.41421356237309975
10
-135.03749997160017
20
73.674999730609258
10
-122.13749997160019
20
73.674999730609272
42
-0.41421356237310919
10
-121.58749997160017
20
73.124999730609261
0
LWPOLYLINE
5
276
100
AcDbEntity
8
0
100
AcDbPolyline
90
8
70
1
43
0.0
10
-211.7874999716002
20
73.124999730609318
42
-0.41421356237311396
10
-211.23749997160019
20
73.674999730609329
10
-198.33749997160021
20
73.674999730609329
42
-0.41421356237302881
10
-197.7874999716002
20
73.124999730609318
10
-197.7874999716002
20
60.224999730609319
42
-0.41421356237313289
10
-198.33749997160021
20
59.674999730609329
10
-211.23749997160019
20
59.674999730609308
42
-0.41421356237303358
10
-211.7874999716002
20
60.224999730609326
0
LWPOLYLINE
5
277
100
AcDbEntity
8
0
100
AcDbPolyline
90
8
70
1
43
0.0
10
-197.49999997160018
20
35.024999730609309
42
-0.41421356237313289
10
-196.94999997160016
20
35.574999730609292
10
-184.04999997160019
20
35.574999730609306
42
-0.41421356237311635
10
-183.49999997160015
20
35.024999730609302
10
-183.49999997160015
20
22.124999730609307
42
-0.41421356237310919
10
-184.04999997160016
20
21.574999730609289
10
-196.94999997160014
20
21.574999730609321
42
-0.41421356237313056
10
-197.49999997160015
20
22.124999730609311
0
LWPOLYLINE
5
278
100
AcDbEntity
8
0
100
AcDbPolyline
90
8
70
1
43
0.0
10
-216.54999997160019
20
35.024999730609323
42
-0.41421356237313289
10
-215.99999997160018
20
35.574999730609306
10
-203.0999999716002
20
35.574999730609321
42
-0.41421356237311635
10
-202.54999997160016
20
35.024999730609316
10
-202.54999997160019
20
22.124999730609321
42
-0.41421356237311635
10
-203.09999997160017
20
21.574999730609299
10
-215.99999997160015
20
21.574999730609328
42
-0.41421356237313056
10
-216.54999997160016
20
22.124999730609321
0
LWPOLYLINE
5
279
100
AcDbEntity
8
0
100
AcDbPolyline
90
8
70
1
43
0.0
10
-169.21249997160018
20
41.174999730609294
42
-0.41421356237313289
10
-169.76249997160016
20
40.624999730609304
10
-182.66249997160017
20
40.624999730609275
42
-0.41421356237303358
10
-183.21249997160015
20
41.174999730609301
10
-183.21249997160015
20
54.074999730609306
42
-0.41421356237311396
10
-182.66249997160017
20
54.624999730609325
10
-169.76249997160016
20
54.624999730609318
42
-0.41421356237302881
10
-169.21249997160018
20
54.074999730609299
0
LWPOLYLINE
5
280
100
AcDbEntity
8
0
100
AcDbPolyline
90
8
70
1
43
0.0
10
-126.34999997160017
20
22.124999730609272
42
-0.41421356237309037
10
-126.89999997160017
20
21.574999730609289
10
-139.79999997160019
20
21.574999730609285
42
-0.41421356237310214
10
-140.34999997160017
20
22.124999730609275
10
-140.34999997160017
20
35.024999730609274
42
-0.41421356237305251
10
-139.79999997160019
20
35.574999730609285
10
-126.89999997160017
20
35.574999730609271
42
-0.41421356237311396
10
-126.34999997160017
20
35.024999730609274
0
LWPOLYLINE
5
281
100
AcDbEntity
8
0
100
AcDbPolyline
90
8
70
1
43
0.0
10
-149.8749999716002
20
92.174999730609258
42
-0.4142135623730856
10
-149.32499997160019
20
92.724999730609255
10
-124.5187499716002
20
92.724999730609298
42
-0.4142135623730856
10
-123.9687499716002
20
92.174999730609272
10
-123.96874997160023
20
79.274999730609295
42
-0.41421356237309975
10
-124.5187499716002
20
78.724999730609298
10
-149.32499997160019
20
78.724999730609312
42
-0.4142135623730856
10
-149.87499997160018
20
79.274999730609295
0
LWPOLYLINE
5
282
100
AcDbEntity
8
0
100
AcDbPolyline
90
8
70
1
43
0.0
10
-221.31249997160018
20
54.074999730609328
42
-0.41421356237311396
10
-220.76249997160019
20
54.624999730609346
10
-207.86249997160019
20
54.624999730609353
42
-0.41421356237303358
10
-207.3124999716002
20
54.074999730609328
10
-207.3124999716002
20
41.174999730609315
42
-0.41421356237313761
10
-207.86249997160019
20
40.624999730609318
10
-220.76249997160019
20
40.624999730609296
42
-0.41421356237303358
10
-221.31249997160018
20
41.174999730609315
0
LWPOLYLINE
5
283
100
AcDbEntity
8
0
100
AcDbPolyline
90
8
70
1
43
0.0
10
-257.03124997160018
20
73.124999730609346
42
-0.41421356237311396
10
-256.48124997160016
20
73.674999730609358
10
-243.58124997160019
20
73.674999730609358
42
-0.41421356237303358
10
-243.03124997160018
20
73.124999730609346
10
-243.03124997160018
20
60.224999730609348
42
-0.41421356237313761
10
-243.58124997160019
20
59.67499973060935
10
-256.48124997160016
20
59.674999730609343
42
-0.41421356237302881
10
-257.03124997160018
20
60.224999730609355
0
LWPOLYLINE
5
284
100
AcDbEntity
8
0
100
AcDbPolyline
90
8
70
1
43
0.0
10
-150.1624999716002
20
41.174999730609287
42
-0.41421356237308082
10
-150.71249997160015
20
40.624999730609275
10
-163.61249997160016
20
40.624999730609275
42
-0.41421356237316126
10
-164.16249997160014
20
41.174999730609294
10
-164.16249997160014
20
54.074999730609299
42
-0.41421356237309503
10
-163.61249997160016
20
54.624999730609318
10
-150.71249997160018
20
54.624999730609289
42
-0.41421356237307611
10
-150.1624999716002
20
54.074999730609292
0
LWPOLYLINE
5
285
100
AcDbEntity
8
0
100
AcDbPolyline
90
8
70
1
43
0.0
10
-173.97499997160014
20
3.0749997306092998
42
-0.41421356237313378
10
-174.52499997160015
20
2.5249997306093142
10
-187.42499997160019
20
2.5249997306093119
42
-0.41421356237313289
10
-187.97499997160017
20
3.0749997306093091
10
-187.97499997160017
20
15.974999730609309
42
-0.41421356237313056
10
-187.42499997160019
20
16.524999730609295
10
-174.52499997160015
20
16.524999730609295
42
-0.41421356237313173
10
-173.97499997160014
20
15.974999730609301
0
LWPOLYLINE
5
286
100
AcDbEntity
8
0
100
AcDbPolyline
90
8
70
1
43
0.0
10
-188.26249997160019
20
41.174999730609301
42
-0.41421356237313761
10
-188.81249997160018
20
40.624999730609311
10
-201.71249997160018
20
40.624999730609296
42
-0.41421356237302881
10
-202.26249997160016
20
41.174999730609308
10
-202.26249997160016
20
54.074999730609321
42
-0.41421356237311396
10
-201.71249997160018
20
54.624999730609332
10
-188.81249997160018
20
54.624999730609332
42
-0.41421356237303358
10
-188.26249997160019
20
54.074999730609306
0
LWPOLYLINE
5
287
100
AcDbEntity
8
0
100
AcDbPolyline
90
8
70
1
43
0.0
10
-116.82499997160015
20
3.0749997306092656
42
-0.41421356237309004
10
-117.37499997160015
20
2.5249997306092755
10
-130.27499997160015
20
2.5249997306092697
42
-0.41421356237307994
10
-130.82499997160016
20
3.0749997306092736
10
-130.82499997160016
20
15.974999730609273
42
-0.41421356237308082
10
-130.27499997160018
20
16.524999730609281
10
-117.37499997160016
20
16.524999730609267
42
-0.41421356237311635
10
-116.82499997160016
20
15.974999730609266
0
LWPOLYLINE
5
288
100
AcDbEntity
8
0
100
AcDbPolyline
90
8
70
1
43
0.0
10
-145.39999997160015
20
22.124999730609282
42
-0.41421356237309037
10
-145.94999997160014
20
21.574999730609292
10
-158.84999997160014
20
21.574999730609296
42
-0.41421356237310453
10
-159.39999997160012
20
22.124999730609293
10
-159.39999997160015
20
35.024999730609288
42
-0.41421356237305484
10
-158.84999997160017
20
35.574999730609292
10
-145.94999997160016
20
35.574999730609285
42
-0.41421356237308082
10
-145.39999997160015
20
35.024999730609281
0
LWPOLYLINE
5
289
100
AcDbEntity
8
0
100
AcDbPolyline
90
8
70
1
43
0.0
10
-245.12499997160012
20
15.974999730609341
42
-0.41421356237313406
10
-244.57499997160014
20
16.524999730609327
10
-231.67499997160019
20
16.524999730609331
42
-0.41421356237313406
10
-231.12499997160018
20
15.974999730609332
10
-231.12499997160018
20
3.0749997306093335
42
-0.41421356237313345
10
-231.67499997160019
20
2.5249997306093479
10
-244.57499997160014
20
2.5249997306093452
42
-0.41421356237313262
10
-245.12499997160012
20
3.0749997306093424
0
LWPOLYLINE
5
290
100
AcDbEntity
8
0
100
AcDbPolyline
90
8
70
1
43
0.0
10
-31.099999971600152
20
22.124999730609215
42
-0.41421356237309037
10
-31.649999971600153
20
21.574999730609214
10
-44.549999971600158
20
21.574999730609225
42
-0.4142135623730856
10
-45.099999971600141
20
22.124999730609222
10
-45.099999971600155
20
35.024999730609224
42
-0.41421356237307144
10
-44.549999971600172
20
35.574999730609221
10
-31.649999971600167
20
35.574999730609214
42
-0.41421356237310919
10
-31.09999997160017
20
35.024999730609217
0
LWPOLYLINE
5
291
100
AcDbEntity
8
0
100
AcDbPolyline
90
8
70
1
43
0.0
10
-78.724999971600155
20
3.0749997306092434
42
-0.41421356237310686
10
-79.274999971600153
20
2.5249997306092475
10
-92.17499997160013
20
2.5249997306092489
42
-0.41421356237307966
10
-92.724999971600127
20
3.0749997306092514
10
-92.724999971600141
20
15.974999730609252
42
-0.4142135623730927
10
-92.17499997160013
20
16.52499973060926
10
-79.274999971600153
20
16.524999730609242
42
-0.4142135623730856
10
-78.72499997160017
20
15.974999730609245
0
LWPOLYLINE
5
292
100
AcDbEntity
8
0
100
AcDbPolyline
90
8
70
1
43
0.0
10
-269.22499997160014
20
60.224999730609369
42
-0.41421356237313761
10
-269.77499997160015
20
59.674999730609372
10
-282.67499997160019
20
59.674999730609358
42
-0.41421356237310453
10
-283.2249999716002
20
60.224999730609376
10
-283.22499997160014
20
73.12499973060936
42
-0.41421356237309503
10
-282.67499997160019
20
73.674999730609386
10
-269.77499997160015
20
73.674999730609386
42
-0.41421356237303358
10
-269.22499997160014
20
73.12499973060936
0
LWPOLYLINE
5
293
100
AcDbEntity
8
0
100
AcDbPolyline
90
8
70
1
43
0.0
10
-154.63749997160019
20
73.124999730609289
42
-0.41421356237308082
10
-154.08749997160018
20
73.674999730609272
10
-141.18749997160018
20
73.674999730609272
42
-0.41421356237307611
10
-140.63749997160019
20
73.124999730609275
10
-140.63749997160016
20
60.224999730609298
42
-0.41421356237310919
10
-141.18749997160018
20
59.674999730609279
10
-154.08749997160018
20
59.674999730609287
42
-0.41421356237310919
10
-154.63749997160019
20
60.224999730609298
0
LWPOLYLINE
5
294
100
AcDbEntity
8
0
100
AcDbPolyline
90
8
70
1
43
0.0
10
-28.718749971600186
20
79.274999730609224
42
-0.41421356237310453
10
-29.268749971600194
20
78.724999730609241
10
-44.549999971600194
20
78.724999730609227
42
-0.4142135623730856
10
-45.099999971600198
20
79.274999730609238
10
-45.099999971600191
20
92.17499973060923
42
-0.41421356237310453
10
-44.549999971600194
20
92.724999730609241
10
-29.268749971600201
20
92.72499973060917
42
-0.41421356237307377
10
-28.718749971600186
20
92.174999730609187
0
LWPOLYLINE
5
295
100
AcDbEntity
8
0
100
AcDbPolyline
90
8
70
1
43
0.0
10
-212.07499997160016
20
3.074999730609322
42
-0.41421356237313323
10
-212.62499997160018
20
2.5249997306093368
10
-225.52499997160015
20
2.5249997306093346
42
-0.41421356237313228
10
-226.07499997160016
20
3.0749997306093313
10
-226.07499997160016
20
15.974999730609332
42
-0.41421356237313056
10
-225.52499997160015
20
16.524999730609316
10
-212.62499997160018
20
16.524999730609316
42
-0.41421356237313173
10
-212.07499997160016
20
15.974999730609323
0
LWPOLYLINE
5
296
100
AcDbEntity
8
0
100
AcDbPolyline
90
8
70
1
43
0.0
10
-288.27499997160021
20
60.224999730609376
42
-0.41421356237313761
10
-288.82499997160016
20
59.674999730609379
10
-301.7249999716002
20
59.674999730609393
42
-0.41421356237312812
10
-302.27499997160021
20
60.224999730609383
10
-302.27499997160021
20
73.124999730609375
42
-0.41421356237309037
10
-301.72499997160014
20
73.674999730609386
10
-288.82499997160016
20
73.674999730609358
42
-0.41421356237305718
10
-288.27499997160021
20
73.12499973060936
0
LWPOLYLINE
5
297
100
AcDbEntity
8
0
100
AcDbPolyline
90
8
70
1
43
0.0
10
-35.862499971600165
20
41.174999730609215
42
-0.41421356237310686
10
-36.41249997160017
20
40.624999730609218
10
-49.312499971600161
20
40.624999730609225
42
-0.41421356237308082
10
-49.862499971600165
20
41.174999730609223
10
-49.862499971600172
20
54.074999730609228
42
-0.41421356237307611
10
-49.312499971600175
20
54.624999730609225
10
-36.41249997160017
20
54.624999730609218
42
-0.41421356237307611
10
-35.86249997160018
20
54.074999730609221
0
LWPOLYLINE
5
298
100
AcDbEntity
8
0
100
AcDbPolyline
90
8
70
1
43
0.0
10
-69.199999971600164
20
22.124999730609236
42
-0.41421356237309503
10
-69.749999971600147
20
21.574999730609242
10
-82.649999971600167
20
21.57499973060925
42
-0.41421356237311396
10
-83.199999971600164
20
22.124999730609247
10
-83.199999971600164
20
35.024999730609245
42
-0.41421356237309037
10
-82.649999971600167
20
35.574999730609235
10
-69.749999971600147
20
35.574999730609235
42
-0.41421356237307377
10
-69.199999971600164
20
35.024999730609238
0
LWPOLYLINE
5
299
100
AcDbEntity
8
0
100
AcDbPolyline
90
8
70
1
43
0.0
10
-4.9062499716001877
20
79.27499973060921
42
-0.41421356237311047
10
-5.4562499716001867
20
78.724999730609227
10
-20.73749997160018
20
78.724999730609198
42
-0.41421356237309503
10
-21.287499971600209
20
79.274999730609238
10
-21.287499971600194
20
92.174999730609215
42
-0.41421356237307849
10
-20.737499971600194
20
92.72499973060917
10
-5.4562499716001867
20
92.724999730609198
42
-0.41421356237308615
10
-4.9062499716002037
20
92.174999730609215
0
LWPOLYLINE
5
300
100
AcDbEntity
8
0
100
AcDbPolyline
90
8
70
1
43
0.0
10
-107.01249997160019
20
54.074999730609264
42
-0.41421356237309975
10
-106.4624999716002
20
54.624999730609247
10
-93.562499971600189
20
54.624999730609254
42
-0.41421356237307611
10
-93.012499971600192
20
54.074999730609257
10
-93.012499971600192
20
41.174999730609244
42
-0.41421356237308082
10
-93.562499971600147
20
40.62499973060924
10
-106.46249997160015
20
40.624999730609268
42
-0.41421356237309975
10
-107.01249997160019
20
41.174999730609258
0
LWPOLYLINE
5
301
100
AcDbEntity
8
0
100
AcDbPolyline
90
8
70
1
43
0.0
10
-216.83749997160021
20
60.224999730609326
42
-0.41421356237313761
10
-217.38749997160016
20
59.674999730609343
10
-230.2874999716002
20
59.674999730609322
42
-0.41421356237310453
10
-230.83749997160021
20
60.224999730609341
10
-230.83749997160021
20
73.124999730609332
42
-0.41421356237311396
10
-230.2874999716002
20
73.674999730609343
10
-217.38749997160022
20
73.674999730609329
42
-0.41421356237316126
10
-216.83749997160021
20
73.124999730609318
0
LWPOLYLINE
5
302
100
AcDbEntity
8
0
100
AcDbPolyline
90
8
70
1
43
0.0
10
-288.27499997160021
20
79.27499973060938
42
-0.41421356237313761
10
-288.82499997160016
20
78.724999730609383
10
-301.7249999716002
20
78.724999730609355
42
-0.41421356237311396
10
-302.27499997160021
20
79.27499973060938
10
-302.27499997160021
20
92.174999730609386
42
-0.41421356237306667
10
-301.7249999716002
20
92.724999730609369
10
-288.82499997160028
20
92.724999730609369
42
-0.41421356237316126
10
-288.27499997160027
20
92.174999730609358
0
LWPOLYLINE
5
303
100
AcDbEntity
8
0
100
AcDbPolyline
90
8
70
1
43
0.0
10
-97.487499971600187
20
73.124999730609247
42
-0.41421356237308082
10
-96.937499971600189
20
73.67499973060923
10
-84.037499971600184
20
73.674999730609244
42
-0.41421356237307611
10
-83.487499971600187
20
73.124999730609247
10
-83.487499971600158
20
60.224999730609248
42
-0.41421356237310453
10
-84.03749997160017
20
59.674999730609244
10
-96.937499971600189
20
59.674999730609251
42
-0.41421356237310919
10
-97.487499971600201
20
60.224999730609255
0
LWPOLYLINE
5
304
100
AcDbEntity
8
0
100
AcDbPolyline
90
8
70
1
43
0.0
10
-131.11249997160013
20
41.174999730609272
42
-0.4142135623730856
10
-131.66249997160014
20
40.624999730609275
10
-144.56249997160015
20
40.624999730609289
42
-0.41421356237309975
10
-145.11249997160019
20
41.174999730609272
10
-145.11249997160019
20
54.074999730609285
42
-0.41421356237309975
10
-144.56249997160018
20
54.624999730609261
10
-131.66249997160017
20
54.624999730609282
42
-0.41421356237307611
10
-131.11249997160019
20
54.074999730609285
0
LWPOLYLINE
5
305
100
AcDbEntity
8
0
100
AcDbPolyline
90
8
70
1
43
0.0
10
-68.912499971600198
20
92.174999730609244
42
-0.41421356237310919
10
-68.362499971600187
20
92.724999730609255
10
-53.081249971600201
20
92.724999730609198
42
-0.41421356237307144
10
-52.531249971600218
20
92.17499973060923
10
-52.531249971600204
20
79.274999730609238
42
-0.41421356237310919
10
-53.081249971600187
20
78.724999730609241
10
-68.362499971600172
20
78.724999730609241
42
-0.41421356237307611
10
-68.912499971600184
20
79.274999730609238
0
LWPOLYLINE
5
306
100
AcDbEntity
8
0
100
AcDbPolyline
90
8
70
1
43
0.0
10
-254.64999997160018
20
35.024999730609345
42
-0.41421356237313522
10
-254.09999997160017
20
35.574999730609335
10
-241.19999997160019
20
35.574999730609321
42
-0.41421356237310686
10
-240.64999997160015
20
35.024999730609338
10
-240.64999997160015
20
22.124999730609343
42
-0.4142135623730856
10
-241.19999997160019
20
21.574999730609324
10
-254.09999997160014
20
21.574999730609342
42
-0.41421356237313522
10
-254.64999997160015
20
22.124999730609343
0
LWPOLYLINE
5
307
100
AcDbEntity
8
0
100
AcDbPolyline
90
8
70
1
43
0.0
10
-126.06249997160019
20
54.074999730609278
42
-0.41421356237307611
10
-125.51249997160019
20
54.624999730609275
10
-112.61249997160019
20
54.624999730609261
42
-0.41421356237310453
10
-112.06249997160016
20
54.074999730609264
10
-112.06249997160016
20
41.174999730609258
42
-0.41421356237311868
10
-112.61249997160014
20
40.624999730609268
10
-125.51249997160016
20
40.624999730609289
42
-0.41421356237309037
10
-126.06249997160018
20
41.174999730609272
0
LWPOLYLINE
5
308
100
AcDbEntity
8
0
100
AcDbPolyline
90
8
70
1
43
0.0
10
-73.962499971600181
20
41.174999730609237
42
-0.41421356237310453
10
-74.512499971600178
20
40.624999730609247
10
-87.412499971600141
20
40.624999730609268
42
-0.4142135623730856
10
-87.962499971600153
20
41.174999730609244
10
-87.962499971600153
20
54.074999730609257
42
-0.41421356237310919
10
-87.412499971600141
20
54.624999730609254
10
-74.512499971600192
20
54.624999730609247
42
-0.41421356237308082
10
-73.962499971600181
20
54.07499973060925
0
LWPOLYLINE
5
309
100
AcDbEntity
8
0
100
AcDbPolyline
90
8
70
1
43
0.0
10
-149.87499997160015
20
15.974999730609285
42
-0.41421356237307966
10
-149.32499997160016
20
16.524999730609295
10
-136.42499997160019
20
16.524999730609277
42
-0.41421356237311635
10
-135.87499997160018
20
15.974999730609277
10
-135.87499997160018
20
3.0749997306092758
42
-0.41421356237308943
10
-136.42499997160016
20
2.5249997306092862
10
-149.32499997160014
20
2.5249997306092835
42
-0.41421356237308793
10
-149.87499997160012
20
3.0749997306092847
0
LWPOLYLINE
5
310
100
AcDbEntity
8
0
100
AcDbPolyline
90
8
70
1
43
0.0
10
-288.27499997160021
20
41.174999730609365
42
-0.41421356237313761
10
-288.82499997160016
20
40.624999730609368
10
-301.72499997160014
20
40.62499973060936
42
-0.41421356237316126
10
-302.27499997160015
20
41.174999730609372
10
-302.27499997160021
20
54.074999730609377
42
-0.41421356237309037
10
-301.72499997160014
20
54.624999730609396
10
-288.82499997160016
20
54.62499973060936
42
-0.41421356237305718
10
-288.27499997160021
20
54.074999730609363
0
LWPOLYLINE
5
311
100
AcDbEntity
8
0
100
AcDbPolyline
90
8
70
1
43
0.0
10
-23.668749971600171
20
54.074999730609214
42
-0.41421356237309037
10
-23.118749971600174
20
54.624999730609204
10
-5.4562499716001867
20
54.624999730609204
42
-0.41421356237309387
10
-4.9062499716001717
20
54.074999730609207
10
-4.9062499716001717
20
41.174999730609194
42
-0.41421356237311102
10
-5.4562499716001645
20
40.624999730609197
10
-23.118749971600181
20
40.624999730609197
42
-0.41421356237307849
10
-23.668749971600171
20
41.174999730609187
0
LWPOLYLINE
5
312
100
AcDbEntity
8
0
100
AcDbPolyline
90
8
70
1
43
0.0
10
-64.149999971600153
20
35.024999730609231
42
-0.41421356237307849
10
-63.599999971600162
20
35.574999730609228
10
-50.699999971600171
20
35.574999730609221
42
-0.4142135623730927
10
-50.149999971600153
20
35.024999730609224
10
-50.149999971600153
20
22.124999730609225
42
-0.41421356237310919
10
-50.69999997160015
20
21.574999730609221
10
-63.599999971600155
20
21.574999730609228
42
-0.41421356237307849
10
-64.149999971600153
20
22.124999730609233
0
LWPOLYLINE
5
313
100
AcDbEntity
8
0
100
AcDbPolyline
90
8
70
1
43
0.0
10
-102.24999997160015
20
35.024999730609252
42
-0.41421356237307849
10
-101.69999997160018
20
35.57499973060925
10
-88.799999971600158
20
35.574999730609257
42
-0.41421356237308082
10
-88.249999971600175
20
35.024999730609252
10
-88.249999971600175
20
22.12499973060925
42
-0.41421356237305251
10
-88.799999971600144
20
21.574999730609242
10
-101.69999997160016
20
21.57499973060925
42
-0.41421356237308082
10
-102.24999997160018
20
22.124999730609254
0
LWPOLYLINE
5
314
100
AcDbEntity
8
0
100
AcDbPolyline
90
8
70
1
43
0.0
10
-159.6874999716002
20
60.224999730609298
42
-0.4142135623730856
10
-160.23749997160022
20
59.674999730609301
10
-173.13749997160016
20
59.674999730609287
42
-0.41421356237310453
10
-173.68749997160018
20
60.224999730609305
10
-173.68749997160018
20
73.124999730609289
42
-0.41421356237311396
10
-173.13749997160016
20
73.674999730609315
10
-160.23749997160022
20
73.674999730609272
42
-0.41421356237311868
10
-159.6874999716002
20
73.124999730609289
0
LWPOLYLINE
5
315
100
AcDbEntity
8
0
100
AcDbPolyline
90
8
70
1
43
0.0
10
-35.57499997160015
20
15.974999730609218
42
-0.41421356237310097
10
-35.024999971600145
20
16.524999730609213
10
-22.124999971600161
20
16.524999730609203
42
-0.41421356237310336
10
-21.574999971600146
20
15.974999730609209
10
-21.574999971600135
20
3.0749997306092092
42
-0.41421356237309209
10
-22.12499997160014
20
2.5249997306092116
10
-35.024999971600138
20
2.5249997306092222
42
-0.4142135623731048
10
-35.574999971600143
20
3.0749997306092203
0
LWPOLYLINE
5
316
100
AcDbEntity
8
0
100
AcDbPolyline
90
8
70
1
43
0.0
10
-7.2874999716001501
20
22.124999730609201
42
-0.41421356237308793
10
-7.8374999716001525
20
21.574999730609203
10
-20.737499971600144
20
21.574999730609214
42
-0.41421356237310214
10
-21.287499971600155
20
22.124999730609211
10
-21.287499971600159
20
35.02499973060921
42
-0.41421356237309742
10
-20.737499971600162
20
35.5749997306092
10
-7.8374999716001525
20
35.574999730609193
42
-0.41421356237308854
10
-7.2874999716001625
20
35.024999730609203
0
LWPOLYLINE
5
317
100
AcDbEntity
8
0
100
AcDbPolyline
90
8
70
1
43
0.0
10
-77.887499971600178
20
59.674999730609251
42
-0.41421356237307611
10
-78.437499971600175
20
60.224999730609248
10
-78.437499971600189
20
73.124999730609247
42
-0.41421356237307611
10
-77.887499971600192
20
73.674999730609244
10
-64.987499971600187
20
73.67499973060923
42
-0.41421356237307611
10
-64.437499971600189
20
73.124999730609233
10
-64.437499971600189
20
60.224999730609241
42
-0.41421356237310919
10
-64.987499971600172
20
59.674999730609244
0
LWPOLYLINE
5
318
100
AcDbEntity
8
0
100
AcDbPolyline
90
8
70
1
43
0.0
10
-269.22499997160014
20
79.274999730609366
42
-0.41421356237313289
10
-269.77499997160015
20
78.724999730609383
10
-282.67499997160019
20
78.724999730609369
42
-0.41421356237310919
10
-283.2249999716002
20
79.27499973060938
10
-283.22499997160025
20
92.174999730609372
42
-0.41421356237307611
10
-282.67499997160019
20
92.724999730609369
10
-269.77499997160021
20
92.724999730609369
42
-0.41421356237310453
10
-269.2249999716002
20
92.174999730609358
0
LWPOLYLINE
5
319
100
AcDbEntity
8
0
100
AcDbPolyline
90
8
70
1
43
0.0
10
-192.73749997160019
20
73.124999730609318
42
-0.41421356237311396
10
-192.18749997160018
20
73.674999730609329
10
-179.2874999716002
20
73.674999730609329
42
-0.41421356237303358
10
-178.73749997160019
20
73.124999730609304
10
-178.73749997160019
20
60.224999730609312
42
-0.41421356237313761
10
-179.2874999716002
20
59.674999730609315
10
-192.18749997160018
20
59.674999730609308
42
-0.41421356237302881
10
-192.73749997160019
20
60.224999730609319
0
CIRCLE
5
320
100
AcDbEntity
8
0
100
AcDbCircle
10
-38.099999969736288
20
98.122559675421272
30
0
40
1.0999999999999985
210
-1.0999345823051789e-31
220
-6.596573514510591e-47
230
1
0
CIRCLE
5
321
100
AcDbEntity
8
0
100
AcDbCircle
10
-38.099999971811734
20
-2.8581134995442699
30
0
40
1.0999999999999985
210
-1.0999346245495071e-31
220
-6.5965737678600618e-47
230
1
0
CIRCLE
5
322
100
AcDbEntity
8
0
100
AcDbCircle
10
-152.39975348880506
20
-2.858113499494003
30
0
40
1.0999999999999943
210
8.7221764217644245e-32
220
5.2308999915357294e-47
230
1
0
LWPOLYLINE
5
323
100
AcDbEntity
8
0
100
AcDbPolyline
90
8
70
1
43
0.0
10
-15.974999971600141
20
2.5249997306092102
10
-3.0749999716001399
20
2.5249997292519466
42
0.41421356237309503
10
-2.5249999716001392
20
3.074999729251946
10
-2.5249999716001521
20
15.974999730609197
42
0.41421356237309559
10
-3.0749999716001475
20
16.524999730609199
10
-15.974999971600148
20
16.524999730609203
42
0.41421356237309742
10
-16.524999971600135
20
15.974999730609207
10
-16.524999971600142
20
3.0749997306092069
42
0.4142135623730962
0
LWPOLYLINE
5
324
100
AcDbEntity
8
0
100
AcDbPolyline
90
8
70
1
43
0.0
10
-217.38749997160022
20
92.724999730609312
10
-232.71899997160023
20
92.724999730609326
42
0.41421356237312346
10
-233.26899997160024
20
92.174999730609329
10
-233.26899997160018
20
79.274999730609338
42
0.41421356237311396
10
-232.7189999716002
20
78.724999730609326
10
-217.38749997160011
20
78.724999730609312
42
0.41421356237309975
10
-216.83749997160018
20
79.274999730609295
10
-216.83749997160021
20
92.174999730609329
42
0.4142135623730856
0
LWPOLYLINE
5
325
100
AcDbEntity
8
0
100
AcDbPolyline
90
79
70
1
43
0.0
10
-185.83499997160018
20
95.161347253813602
42
-0.41421356237305862
10
-184.83499997160021
20
94.161347253813602
10
-184.83499997160015
20
77.424999730609301
42
0.41421356237310453
10
-184.28499997160017
20
76.874999730609304
10
-177.56799997160013
20
76.874999730609304
42
0.41421356237311868
10
-177.01799997160015
20
77.424999730609258
10
-177.01799997160026
20
94.161347253813602
42
-0.41421356237307422
10
-176.01799997160018
20
95.161347253813616
10
-157.97862159951976
20
95.161347253813602
42
0.26855894109142636
10
-157.11146080540138
20
95.663318984391054
10
-154.74040999409402
20
99.791763955612822
42
-0.51506124520666496
10
-150.05910114123972
20
99.791769785061717
10
-147.68804619449969
20
95.663318870357386
42
0.26855890584472247
10
-146.82088546587323
20
95.161347253813602
10
-90.47499997160017
20
95.161347253813574
42
-0.41421356237308982
10
-89.474999971600198
20
94.161347253813616
10
-89.474999971600198
20
77.424999730609201
42
0.41421356237310919
10
-88.924999971600229
20
76.874999730609247
10
-77.762499971600164
20
76.874999730609247
42
0.41421356237309503
10
-77.212499971600181
20
77.424999730609215
10
-77.212499971600224
20
94.161347253813659
42
-0.41421356237307944
10
-76.212499971600238
20
95.161347253813616
10
-43.678868008210337
20
95.161347253813616
42
0.26855891208533761
10
-42.81170726798819
20
95.663318890547671
10
-40.440653053389177
20
99.791768753011993
42
-0.51506059687413108
10
-35.759347622171447
20
99.791769785061689
10
-33.388292675431387
20
95.663318870357415
42
0.26855890584471825
10
-32.521131946804921
20
95.161347253813616
10
-1.1295034888045479
20
95.161347253813616
42
-0.41421356237308971
10
-0.12950348880454746
20
94.161347253813631
10
-0.12950348880453752
20
1.1418864991990145
42
-0.41421356237309609
10
-1.1295034888045308
20
0.14188649919901436
10
-32.518893293899211
20
0.14188649919890689
42
0.26945709590924927
10
-33.387717703922078
20
-0.3629931673987935
10
-35.767319478152793
20
-4.5386570779849702
42
-0.51205297549820561
10
-40.432679471752806
20
-4.5386584573153712
10
-42.812282233882982
20
-0.36299313829960872
42
0.26945708692815645
10
-43.681106627323004
20
0.14188649919891361
10
-146.81864681913967
20
0.14188649919897156
42
0.26945709260281425
10
-147.68747122305749
20
-0.36299315668570642
10
-150.06707336141983
20
-4.5386575863491778
42
-0.51205302453576529
10
-154.73243361619029
20
-4.5386575863491689
10
-157.1120357545494
20
-0.36299315666967708
42
0.26945709259788653
10
-157.98086015845811
20
0.14188649919904237
10
-261.11889693444016
20
0.14188649919940163
42
0.2694570472085418
10
-261.98772125454116
20
-0.36299300960572212
10
-264.36732838552541
20
-4.5386645571421811
42
-0.51205126868037543
10
-269.03267928902244
20
-4.5386635955233796
10
-271.4122857312754
20
-0.36299302989308901
42
0.26945705346998811
10
-272.28111006293767
20
0.14188649919940088
10
-303.6696432655238
20
0.14188649919938678
42
-0.41421356237307538
10
-304.6696432655238
20
1.1418864991994049
10
-304.66964326552386
20
94.161347253813801
42
-0.41421356237307422
10
-303.66964326552386
20
95.161347253813787
10
-272.27887151173616
20
95.161347253813574
42
0.26855890584472597
10
-271.41171078310975
20
95.663318870357415
10
-269.04065583636958
20
99.791769785061803
42
-0.51506045740032014
10
-264.3593511412397
20
99.791769785061774
10
-261.98829619449975
20
95.663318870357358
42
0.26855890584472247
10
-261.12113546587329
20
95.161347253813574
10
-204.02499997160027
20
95.161347253813616
42
-0.41421356237310542
10
-203.52499997160027
20
94.661347253813588
10
-203.52499997160021
20
93.274999730609309
42
-0.41421356237309503
10
-204.07499997160019
20
92.724999730609312
10
-208.90649997160023
20
92.724999730609312
42
0.41421356237310453
10
-209.45649997160021
20
92.174999730609315
10
-209.45649997160018
20
79.274999730609338
42
0.41421356237302881
10
-208.90649997160017
20
78.724999730609326
10
-204.07499997160016
20
78.724999730609312
42
-0.41421356237309037
10
-203.52499997160021
20
78.174999730609358
10
-203.52499997160021
20
77.274999730609309
42
0.41421356237309503
10
-202.97499997160025
20
76.724999730609341
10
-195.90599997160018
20
76.724999730609312
42
0.41421356237310453
10
-195.3559999716002
20
77.274999730609309
10
-195.35599997160023
20
92.174999730609301
42
0.39278753501250235
10
-195.86549997160031
20
92.723506567394395
42
-0.39278753501243868
10
-196.37499997160029
20
93.272013404179503
10
-196.37499997160029
20
94.661347253813588
42
-0.4142135623730846
10
-195.87499997160026
20
95.161347253813602
0
CIRCLE
5
326
100
AcDbEntity
8
0
100
AcDbCircle
10
-266.70000348880473
20
98.122347255170979
30
-2.7755575615628914e-16
40
1.0999999999999943
210
8.7221768258406075e-32
220
5.2309002338699614e-47
230
1
0
CIRCLE
5
327
100
AcDbEntity
8
0
100
AcDbCircle
10
-152.39975348880466
20
98.122347255170808
30
0
40
1.0999999999999943
210
8.7221768258406075e-32
220
5.2309002338699614e-47
230
1
0
CIRCLE
5
328
100
AcDbEntity
8
0
100
AcDbCircle
10
-28.668749971600246
20
41.624998743367115
30
-2.7755575615628914e-16
40
1.1000000000000001
210
-8.5458041657081938e-33
220
-3.3374716056065246e-48
230
1
0
CIRCLE
5
329
100
AcDbEntity
8
0
100
AcDbCircle
10
-260.46249997160021
20
22.274999743366671
30
0
40
1.1000000000000001
210
-8.5458041657081938e-33
220
-3.3374716056065246e-48
230
1
0
CIRCLE
5
330
100
AcDbEntity
8
0
100
AcDbCircle
10
-262.03124997160018
20
60.674999743366442
30
-2.7755575615628914e-16
40
1.1000000000000001
210
-8.5458041657081938e-33
220
-3.3374716056065246e-48
230
1
0
ENDSEC
0
SECTION
2
OBJECTS
0
DICTIONARY
5
C
100
AcDbDictionary
3
ACAD_GROUP
350
D
3
ACAD_MLINESTYLE
350
17
0
DICTIONARY
5
D
100
AcDbDictionary
0
DICTIONARY
5
1A
330
C
100
AcDbDictionary
0
DICTIONARY
5
17
100
AcDbDictionary
0
ENDSEC
0
EOF
