0
SECTION
2
HEADER
9
$INSUNITS
70
4
9
$ACADVER
1
AC1014
9
$HANDSEED
5
FFFF
0
ENDSEC
0
SECTION
2
TABLES
0
TABLE
2
VPORT
5
8
100
AcDbSymbolTable
0
ENDTAB
0
TABLE
2
LTYPE
5
5
100
AcDbSymbolTable
0
LTYPE
5
14
100
AcDbSymbolTableRecord
100
AcDbLinetypeTableRecord
2
BYBLOCK
70
0
0
LTYPE
5
15
100
AcDbSymbolTableRecord
100
AcDbLinetypeTableRecord
2
BYLAYER
70
0
0
ENDTAB
0
TABLE
2
LAYER
5
2
100
AcDbSymbolTable
70
2
0
LAYER
5
50
100
AcDbSymbolTableRecord
100
AcDbLayerTableRecord
2
0
70
0
6
CONTINUOUS
0
ENDTAB
0
TABLE
2
STYLE
5
3
100
AcDbSymbolTable
70
1
0
STYLE
5
11
100
AcDbSymbolTableRecord
100
AcDbTextStyleTableRecord
2
STANDARD
70
0
0
ENDTAB
0
TABLE
2
VIEW
5
6
100
AcDbSymbolTable
70
0
0
ENDTAB
0
TABLE
2
UCS
5
7
100
AcDbSymbolTable
70
0
0
ENDTAB
0
TABLE
2
APPID
5
9
100
AcDbSymbolTable
70
2
0
APPID
5
12
100
AcDbSymbolTableRecord
100
AcDbRegAppTableRecord
2
ACAD
70
0
0
ENDTAB
0
TABLE
2
DIMSTYLE
5
A
100
AcDbSymbolTable
70
1
0
ENDTAB
0
TABLE
2
BLOCK_RECORD
5
1
100
AcDbSymbolTable
70
1
0
BLOCK_RECORD
5
1F
100
AcDbSymbolTableRecord
100
AcDbBlockTableRecord
2
*MODEL_SPACE
0
BLOCK_RECORD
5
1B
100
AcDbSymbolTableRecord
100
AcDbBlockTableRecord
2
*PAPER_SPACE
0
ENDTAB
0
ENDSEC
0
SECTION
2
BLOCKS
0
BLOCK
5
20
100
AcDbEntity
100
AcDbBlockBegin
2
*MODEL_SPACE
0
ENDBLK
5
21
100
AcDbEntity
100
AcDbBlockEnd
0
BLOCK
5
1C
100
AcDbEntity
100
AcDbBlockBegin
2
*PAPER_SPACE
0
ENDBLK
5
1D
100
AcDbEntity
100
AcDbBlockEnd
0
ENDSEC
0
SECTION
2
ENTITIES
0
LWPOLYLINE
5
100
100
AcDbEntity
8
0
100
AcDbPolyline
90
75
70
1
43
0.0
10
-208.90649997160025
20
78.724999730609269
10
-195.90624997160074
20
78.724999730609241
42
0.41421356237309037
10
-195.3562499716007
20
79.274999730609238
10
-195.35624997160073
20
92.178004544885994
42
0.39272177318733648
10
-195.86562497160048
20
92.726502137747616
42
-0.39272177318737367
10
-196.37499997160032
20
93.274999730609238
10
-196.37499997160029
20
94.661347253813517
42
-0.41421356237301177
10
-195.87499997160029
20
95.161347253813503
10
-185.83499997160027
20
95.161347253813489
42
-0.41421356237310542
10
-184.83499997160024
20
94.161347253813517
10
-184.83499997160021
20
79.274999730609267
42
0.41421356237310453
10
-184.2849999716002
20
78.724999730609227
10
-177.56799997160016
20
78.724999730609255
42
0.41421356237309037
10
-177.0179999716002
20
79.27499973060921
10
-177.01799997160032
20
94.161347253813489
42
-0.41421356237308982
10
-176.0179999716002
20
95.161347253813545
10
-157.97862159951978
20
95.161347253813517
42
0.26855894109142225
10
-157.11146080540141
20
95.663318984390969
10
-154.74040999409405
20
99.791763955612765
42
-0.51506124520666496
10
-150.05910114123975
20
99.791769785061661
10
-147.68804619449972
20
95.66331887035733
42
0.26855890584472247
10
-146.82088546587326
20
95.161347253813517
10
-90.474999971600198
20
95.161347253813517
42
-0.41421356237308982
10
-89.474999971600212
20
94.161347253813545
10
-89.474999971600212
20
79.274999730609139
42
0.41421356237310919
10
-88.924999971600243
20
78.72499973060917
10
-77.762499971600192
20
78.724999730609198
42
0.41421356237309037
10
-77.212499971600209
20
79.274999730609153
10
-77.212499971600266
20
94.161347253813545
42
-0.41421356237309764
10
-76.212499971600252
20
95.161347253813545
10
-43.678868008210344
20
95.16134725381356
42
0.26855891208533761
10
-42.811707267988197
20
95.663318890547629
10
-40.440653053389177
20
99.791768753011951
42
-0.51506059687413108
10
-35.759347622171461
20
99.791769785061618
10
-33.388292675431408
20
95.66331887035733
42
0.26855890584471837
10
-32.521131946804942
20
95.161347253813517
10
-1.1295034888045632
20
95.161347253813545
42
-0.41421356237309587
10
-0.12950348880456264
20
94.161347253813574
10
-0.12950348880455084
20
1.141886499198927
42
-0.41421356237309542
10
-1.1295034888045441
20
0.14188649919892513
10
-32.518893293899225
20
0.14188649919882293
42
0.26945709590925143
10
-33.387717703922092
20
-0.36299316739888399
10
-35.767319478152814
20
-4.5386570779850537
42
-0.5120529754982055
10
-40.432679471752813
20
-4.53865845731546
10
-42.812282233883003
20
-0.36299313829969265
42
0.26945708692815645
10
-43.681106627323025
20
0.14188649919882573
10
-146.81864681913967
20
0.14188649919888566
42
0.26945709260281486
10
-147.68747122305751
20
-0.36299315668579524
10
-150.06707336141983
20
-4.5386575863492622
42
-0.51205302453576573
10
-154.73243361619032
20
-4.5386575863492533
10
-157.11203575454942
20
-0.36299315666976562
42
0.26945709259788647
10
-157.98086015845814
20
0.14188649919895496
10
-261.11889693444016
20
0.14188649919931254
42
0.26945704720854069
10
-261.98772125454116
20
-0.36299300960580649
10
-264.36732838552541
20
-4.5386645571422699
42
-0.51205126868037532
10
-269.03267928902244
20
-4.5386635955234684
10
-271.4122857312754
20
-0.36299302989317961
42
0.26945705346998811
10
-272.28111006293767
20
0.14188649919931071
10
-303.6696432655238
20
0.14188649919930296
42
-0.41421356237306867
10
-304.6696432655238
20
1.1418864991992983
10
-304.66964326552392
20
94.161347253813716
42
-0.41421356237310542
10
-303.66964326552392
20
95.161347253813702
10
-272.27887151173621
20
95.161347253813517
42
0.26855890584472186
10
-271.41171078310981
20
95.66331887035733
10
-269.04065583636964
20
99.791769785061732
42
-0.51506045740031781
10
-264.35935114123981
20
99.791769785061717
10
-261.98829619449981
20
95.663318870357287
42
0.26855890584471825
10
-261.12113546587335
20
95.161347253813489
10
-204.02499997160032
20
95.161347253813517
42
-0.41421356237313667
10
-203.52499997160032
20
94.661347253813517
10
-203.52499997160032
20
93.274999730609238
42
-0.41421356237306667
10
-204.07499997160031
20
92.724999730609241
10
-208.90649997160025
20
92.724999730609227
42
0.41421356237307611
10
-209.45649997160024
20
92.174999730609258
10
-209.45649997160024
20
79.274999730609252
42
0.41421356237309503
0
LWPOLYLINE
5
101
100
AcDbEntity
8
0
100
AcDbPolyline
90
30
70
1
43
0.0
10
-42.741053362193512
20
57.728553121202417
42
-0.19891236737964624
10
-42.887499971600221
20
58.082106511795686
10
-42.887499971600221
20
76.724999730609255
42
0.41421356237309503
10
-43.387499971600221
20
77.224999730609241
10
-232.83749997160032
20
77.224999730609255
42
0.41421356237309503
10
-233.33749997160032
20
76.724999730609255
10
-233.33749997160029
20
57.624999730609289
42
-0.41421356237307422
10
-233.83749997160035
20
57.124999730609289
10
-242.36249997160027
20
57.124999730609289
42
0.41421356237309503
10
-242.86249997160027
20
56.624999730609289
10
-242.86249997160024
20
37.324999730609264
42
-0.41421356237307683
10
-243.36249997160027
20
36.824999730609264
10
-256.14999997160021
20
36.824999730609264
42
0.41421356237309503
10
-256.64999997160021
20
36.324999730609264
10
-256.64999997160021
20
20.824999730609271
42
0.41421356237309503
10
-256.14999997160021
20
20.324999730609278
10
-249.77499997160015
20
20.324999730609274
42
-0.099019513592796218
10
-249.58269227929247
20
20.286538192147727
10
-246.76730766390787
20
19.113461269070669
42
0.099019513592769781
10
-246.57499997160019
20
19.074999730609136
10
-29.099999971600177
20
19.074999730609129
42
0.41421356237309503
10
-28.599999971600173
20
19.574999730609129
10
-28.599999971600187
20
37.574999730609129
42
0.41421356237309503
10
-29.099999971600184
20
38.074999730609129
10
-32.862499971600201
20
38.074999730609129
42
-0.41421356237309503
10
-33.362499971600201
20
38.574999730609122
10
-33.362499971600208
20
55.374999730609147
42
0.41421356237309503
10
-33.862499971600208
20
55.874999730609154
10
-40.680393190413675
20
55.874999730609176
42
-0.19891236737962786
10
-41.033946581006944
20
56.021446340015892
0
CIRCLE
5
102
100
AcDbEntity
8
0
100
AcDbCircle
10
-152.39975348880469
20
98.122347255170752
30
0
40
1.0999999999999943
210
7.1299777908083818e-32
220
4.2760199934186497e-47
230
1
0
CIRCLE
5
103
100
AcDbEntity
8
0
100
AcDbCircle
10
-266.70000348880478
20
98.122347255170894
30
-2.7755575615628914e-16
40
1.0999999999999943
210
7.1299777908083818e-32
220
4.2760199934186497e-47
230
1
0
LWPOLYLINE
5
104
100
AcDbEntity
8
0
100
AcDbPolyline
90
16
70
1
43
0.0
10
-250.02499997160018
20
3.0749997306092181
10
-250.02499997160021
20
18.361999730609305
42
0.41421356237302348
10
-250.52499997160021
20
18.861999730609302
10
-258.39999997160032
20
18.861999730609263
42
0.41421356237309503
10
-258.69999997160033
20
18.561999730609251
10
-258.69999997160033
20
16.824999729252017
42
-0.41421356237302787
10
-258.99999997160029
20
16.524999729252038
10
-274.64999997160032
20
16.524999729252016
42
-0.41421356237309076
10
-274.94999997160033
20
16.824999729252024
10
-274.94999997160039
20
19.311999730609305
42
0.41421356237308637
10
-275.2499999716004
20
19.611999730609281
10
-282.87499997160023
20
19.611999730609288
42
0.41421356237309503
10
-283.37499997160023
20
19.111999730609281
10
-283.37499997160023
20
3.0749997306092536
42
0.41421356237309503
10
-282.82499997160028
20
2.5249997306092826
10
-250.57499997160016
20
2.5249997306092564
42
0.41421356237309503
0
CIRCLE
5
105
100
AcDbEntity
8
0
100
AcDbCircle
10
-38.099999969736309
20
98.122559675421215
30
-2.7755575615628914e-16
40
1.0999999999999985
210
-1.2591544876719274e-31
220
2.0679515313825696e-25
230
1
0
LWPOLYLINE
5
106
100
AcDbEntity
8
0
100
AcDbPolyline
90
24
70
1
43
0.0
10
-256.98074997160018
20
40.624999730609261
42
-0.4142135623731254
10
-256.38074997160015
20
40.024999730609281
10
-256.38074997160015
20
38.774999729252016
42
0.41421356237310153
10
-255.78074997160019
20
38.174999729252022
10
-248.98074997160018
20
38.174999729252022
42
0.41421356237309503
10
-248.38074997160018
20
38.774999729252009
10
-248.38074997160018
20
55.774999730609352
42
0.41421356237309503
10
-248.93074997160014
20
56.324999730609242
10
-255.71874997160083
20
56.324999730609321
42
0.41421356237309503
10
-256.31874997160082
20
55.724999730609326
10
-256.31874997160082
20
55.22499972925204
42
-0.41421356237310375
10
-256.91874997160079
20
54.624999729252039
10
-271.71874997160086
20
54.624999729252053
42
-0.41421356237313406
10
-272.31874997160082
20
55.224999729252048
10
-272.31874997160082
20
55.724999730609284
42
0.41421356237309503
10
-272.91874997160085
20
56.324999730609306
10
-279.68234997159971
20
56.324999730609292
42
0.41421356237312812
10
-280.23234997159966
20
55.774999730609295
10
-280.23234997159989
20
38.27499973906248
42
0.41421356237310153
10
-279.63234997159992
20
37.674999739062464
10
-273.06249997160018
20
37.674999739062379
42
0.41421356237309076
10
-272.46249997160015
20
38.274999739062366
10
-272.46249997160027
20
40.024999730609267
42
-0.41421356237313406
10
-271.86249997160024
20
40.624999730609275
0
LWPOLYLINE
5
107
100
AcDbEntity
8
0
100
AcDbPolyline
90
8
70
1
43
0.0
10
-301.7249999716002
20
40.624999730609289
10
-288.82499997160022
20
40.624999730609289
42
0.41421356237316126
10
-288.27499997160021
20
41.174999730609294
10
-288.27499997160021
20
54.074999730609292
42
0.41421356237307611
10
-288.82499997160022
20
54.624999730609282
10
-301.72499997160014
20
54.624999730609304
42
0.41421356237308082
10
-302.27499997160021
20
54.074999730609306
10
-302.27499997160021
20
41.174999730609294
42
0.4142135623730856
0
LWPOLYLINE
5
108
100
AcDbEntity
8
0
100
AcDbPolyline
90
8
70
1
43
0.0
10
-265.01249997160011
20
35.374999739062282
10
-277.96249997160055
20
35.374999739062446
42
0.41421356237309503
10
-278.51249997160062
20
34.824999739062442
10
-278.51249997160056
20
22.124999730609282
42
0.41421356237309503
10
-277.96249997160055
20
21.574999730609285
10
-265.01249997160016
20
21.574999730609271
42
0.41421356237317308
10
-264.46249997160004
20
22.124999730609275
10
-264.4624999716001
20
34.824999739062285
42
0.4142135623730927
0
LWPOLYLINE
5
109
100
AcDbEntity
8
0
100
AcDbPolyline
90
8
70
1
43
0.0
10
-217.38749997160025
20
92.724999730609255
10
-232.71899997160028
20
92.724999730609255
42
0.41421356237311396
10
-233.26899997160027
20
92.174999730609272
10
-233.26899997160024
20
79.274999730609267
42
0.41421356237309503
10
-232.71899997160028
20
78.724999730609269
10
-217.38749997160014
20
78.724999730609255
42
0.41421356237309503
10
-216.83749997160021
20
79.27499973060921
10
-216.83749997160024
20
92.174999730609258
42
0.4142135623730856
0
LWPOLYLINE
5
110
100
AcDbEntity
8
0
100
AcDbPolyline
90
8
70
1
43
0.0
10
-15.974999971600155
20
2.5249997306091263
10
-3.074999971600155
20
2.5249997292518622
42
0.41421356237309476
10
-2.5249999716001543
20
3.0749997292518638
10
-2.5249999716001676
20
15.974999730609124
42
0.41421356237309803
10
-3.074999971600163
20
16.524999730609114
10
-15.974999971600162
20
16.524999730609128
42
0.41421356237310092
10
-16.52499997160016
20
15.974999730609124
10
-16.524999971600156
20
3.0749997306091186
42
0.41421356237309653
0
CIRCLE
5
111
100
AcDbEntity
8
0
100
AcDbCircle
10
-152.39975348880509
20
-2.8581134994940918
30
0
40
1.0999999999999943
210
7.1299773867321987e-32
220
4.2760197510844133e-47
230
1
0
CIRCLE
5
112
100
AcDbEntity
8
0
100
AcDbCircle
10
-38.099999971811748
20
-2.8581134995443587
30
-2.7755575615628914e-16
40
1.0999999999999985
210
-1.2591545280795457e-31
220
2.0679515313825696e-25
230
1
0
LWPOLYLINE
5
113
100
AcDbEntity
8
0
100
AcDbPolyline
90
8
70
1
43
0.0
10
-264.17499997160019
20
92.174999730609272
42
-0.41421356237310453
10
-263.62499997160023
20
92.724999730609284
10
-250.72499997160031
20
92.724999730609284
42
-0.41421356237311396
10
-250.17499997160027
20
92.174999730609272
10
-250.17499997160024
20
79.274999730609295
42
-0.41421356237313761
10
-250.72499997160023
20
78.724999730609284
10
-263.62499997160023
20
78.724999730609269
42
-0.41421356237302881
10
-264.17499997160019
20
79.274999730609281
0
LWPOLYLINE
5
114
100
AcDbEntity
8
0
100
AcDbPolyline
90
8
70
1
43
0.0
10
-288.27499997160021
20
60.224999730609319
42
-0.41421356237313761
10
-288.82499997160016
20
59.674999730609322
10
-301.7249999716002
20
59.674999730609322
42
-0.41421356237312812
10
-302.27499997160021
20
60.224999730609312
10
-302.27499997160021
20
73.124999730609304
42
-0.41421356237308082
10
-301.7249999716002
20
73.674999730609315
10
-288.82499997160028
20
73.674999730609301
42
-0.41421356237311396
10
-288.27499997160021
20
73.124999730609304
0
LWPOLYLINE
5
115
100
AcDbEntity
8
0
100
AcDbPolyline
90
8
70
1
43
0.0
10
-269.22499997160014
20
60.224999730609298
42
-0.41421356237313761
10
-269.77499997160015
20
59.674999730609301
10
-282.67499997160019
20
59.674999730609308
42
-0.41421356237312812
10
-283.2249999716002
20
60.224999730609298
10
-283.22499997160025
20
73.124999730609289
42
-0.41421356237309037
10
-282.67499997160019
20
73.674999730609315
10
-269.77499997160021
20
73.674999730609272
42
-0.41421356237310919
10
-269.2249999716002
20
73.124999730609289
0
LWPOLYLINE
5
116
100
AcDbEntity
8
0
100
AcDbPolyline
90
8
70
1
43
0.0
10
-269.2249999716002
20
79.274999730609295
42
-0.41421356237313289
10
-269.77499997160021
20
78.724999730609312
10
-282.67499997160024
20
78.724999730609312
42
-0.41421356237310919
10
-283.22499997160025
20
79.274999730609338
10
-283.22499997160031
20
92.174999730609301
42
-0.41421356237310453
10
-282.67499997160024
20
92.724999730609298
10
-269.77499997160021
20
92.724999730609298
42
-0.41421356237310453
10
-269.22499997160025
20
92.174999730609272
0
LWPOLYLINE
5
117
100
AcDbEntity
8
0
100
AcDbPolyline
90
8
70
1
43
0.0
10
-4.9062499716002073
20
79.274999730609153
42
-0.41421356237311752
10
-5.4562499716002026
20
78.724999730609156
10
-20.737499971600208
20
78.724999730609127
42
-0.41421356237309037
10
-21.287499971600226
20
79.274999730609167
10
-21.287499971600205
20
92.17499973060913
42
-0.4142135623730856
10
-20.737499971600208
20
92.724999730609085
10
-5.4562499716002115
20
92.724999730609142
42
-0.41421356237309093
10
-4.9062499716002197
20
92.17499973060913
0
LWPOLYLINE
5
118
100
AcDbEntity
8
0
100
AcDbPolyline
90
8
70
1
43
0.0
10
-7.287499971600166
20
22.124999730609105
42
-0.41421356237308793
10
-7.8374999716001685
20
21.574999730609107
10
-20.737499971600172
20
21.574999730609122
42
-0.41421356237309503
10
-21.28749997160017
20
22.124999730609119
10
-21.287499971600177
20
35.024999730609139
42
-0.41421356237309742
10
-20.73749997160018
20
35.574999730609129
10
-7.8374999716001774
20
35.574999730609115
42
-0.4142135623730927
10
-7.2874999716001785
20
35.024999730609125
0
LWPOLYLINE
5
119
100
AcDbEntity
8
0
100
AcDbPolyline
90
8
70
1
43
0.0
10
-97.774999971600181
20
3.0749997306091732
42
-0.4142135623730791
10
-98.324999971600164
20
2.5249997306091654
10
-111.22499997160017
20
2.5249997306091911
42
-0.41421356237308909
10
-111.77499997160015
20
3.0749997306091759
10
-111.77499997160015
20
15.974999730609181
42
-0.41421356237307377
10
-111.22499997160018
20
16.524999730609192
10
-98.324999971600207
20
16.524999730609174
42
-0.41421356237309037
10
-97.774999971600209
20
15.974999730609166
0
LWPOLYLINE
5
120
100
AcDbEntity
8
0
100
AcDbPolyline
90
8
70
1
43
0.0
10
-54.624999971600175
20
15.974999730609152
42
-0.41421356237308443
10
-54.074999971600171
20
16.524999730609153
10
-41.174999971600165
20
16.524999730609139
42
-0.41421356237308443
10
-40.624999971600168
20
15.974999730609145
10
-40.624999971600147
20
3.0749997306091337
42
-0.4142135623731063
10
-41.174999971600158
20
2.5249997306091276
10
-54.074999971600164
20
2.5249997306091481
42
-0.41421356237308526
10
-54.624999971600161
20
3.0749997306091448
0
LWPOLYLINE
5
121
100
AcDbEntity
8
0
100
AcDbPolyline
90
8
70
1
43
0.0
10
-288.27499997160021
20
22.124999730609282
42
-0.41421356237311396
10
-288.82499997160016
20
21.574999730609264
10
-301.72499997160025
20
21.574999730609289
42
-0.41421356237311163
10
-302.27499997160021
20
22.124999730609282
10
-302.27499997160021
20
35.024999730609288
42
-0.41421356237312812
10
-301.7249999716002
20
35.574999730609264
10
-288.82499997160022
20
35.574999730609278
42
-0.41421356237314949
10
-288.27499997160021
20
35.024999730609288
0
LWPOLYLINE
5
122
100
AcDbEntity
8
0
100
AcDbPolyline
90
8
70
1
43
0.0
10
-288.27499997160015
20
3.0749997306092802
42
-0.41421356237313345
10
-288.82499997160016
20
2.5249997306092951
10
-301.7249999716002
20
2.5249997306092919
42
-0.41421356237311396
10
-302.27499997160015
20
3.0749997306092891
10
-302.27499997160021
20
15.974999730609291
42
-0.41421356237312812
10
-301.7249999716002
20
16.52499973060927
10
-288.82499997160016
20
16.524999730609281
42
-0.41421356237313289
10
-288.27499997160021
20
15.974999730609285
0
LWPOLYLINE
5
123
100
AcDbEntity
8
0
100
AcDbPolyline
90
8
70
1
43
0.0
10
-149.87499997160015
20
15.974999730609198
42
-0.41421356237307144
10
-149.32499997160016
20
16.524999730609206
10
-136.42499997160019
20
16.524999730609192
42
-0.41421356237311635
10
-135.8749999716002
20
15.97499973060919
10
-135.8749999716002
20
3.0749997306091936
42
-0.41421356237308143
10
-136.42499997160019
20
2.5249997306092014
10
-149.32499997160016
20
2.5249997306092049
42
-0.41421356237310269
10
-149.87499997160012
20
3.0749997306091981
0
LWPOLYLINE
5
124
100
AcDbEntity
8
0
100
AcDbPolyline
90
8
70
1
43
0.0
10
-35.574999971600157
20
15.974999730609142
42
-0.41421356237309859
10
-35.02499997160016
20
16.524999730609135
10
-22.124999971600165
20
16.524999730609132
42
-0.41421356237309503
10
-21.57499997160016
20
15.974999730609134
10
-21.574999971600157
20
3.0749997306091226
42
-0.41421356237309176
10
-22.124999971600158
20
2.5249997306091254
10
-35.02499997160016
20
2.5249997306091334
42
-0.41421356237310303
10
-35.574999971600157
20
3.0749997306091315
0
LWPOLYLINE
5
125
100
AcDbEntity
8
0
100
AcDbPolyline
90
8
70
1
43
0.0
10
-23.668749971600185
20
54.074999730609136
42
-0.4142135623730856
10
-23.118749971600188
20
54.624999730609133
10
-5.4562499716001849
20
54.624999730609119
42
-0.41421356237308321
10
-4.9062499716001886
20
54.074999730609122
10
-4.9062499716001877
20
41.174999730609123
42
-0.41421356237311163
10
-5.4562499716001795
20
40.624999730609126
10
-23.118749971600177
20
40.624999730609133
42
-0.41421356237309037
10
-23.668749971600182
20
41.174999730609116
0
LWPOLYLINE
5
126
100
AcDbEntity
8
0
100
AcDbPolyline
90
8
70
1
43
0.0
10
-73.674999971600158
20
15.974999730609163
42
-0.41421356237307849
10
-73.124999971600161
20
16.524999730609164
10
-60.224999971600177
20
16.524999730609146
42
-0.4142135623730856
10
-59.67499997160018
20
15.974999730609147
10
-59.674999971600158
20
3.0749997306091448
42
-0.4142135623731063
10
-60.22499997160017
20
2.5249997306091387
10
-73.124999971600161
20
2.5249997306091543
42
-0.41421356237308526
10
-73.674999971600158
20
3.0749997306091514
0
LWPOLYLINE
5
127
100
AcDbEntity
8
0
100
AcDbPolyline
90
8
70
1
43
0.0
10
-288.27499997160027
20
79.274999730609338
42
-0.41421356237313761
10
-288.82499997160022
20
78.724999730609355
10
-301.72499997160025
20
78.724999730609284
42
-0.41421356237311396
10
-302.27499997160021
20
79.274999730609323
10
-302.27499997160032
20
92.174999730609315
42
-0.41421356237309503
10
-301.72499997160025
20
92.724999730609298
10
-288.82499997160028
20
92.724999730609298
42
-0.41421356237305718
10
-288.27499997160027
20
92.174999730609301
0
LWPOLYLINE
5
128
100
AcDbEntity
8
0
100
AcDbPolyline
90
8
70
1
43
0.0
10
-212.07499997160016
20
3.0749997306092309
42
-0.41421356237313323
10
-212.62499997160018
20
2.5249997306092458
10
-225.52499997160015
20
2.524999730609252
42
-0.41421356237313228
10
-226.07499997160016
20
3.0749997306092469
10
-226.07499997160019
20
15.974999730609255
42
-0.41421356237312934
10
-225.52499997160021
20
16.524999730609235
10
-212.6249999716002
20
16.524999730609245
42
-0.41421356237313289
10
-212.07499997160022
20
15.97499973060925
0
LWPOLYLINE
5
129
100
AcDbEntity
8
0
100
AcDbPolyline
90
8
70
1
43
0.0
10
-78.72499997160017
20
3.074999730609159
42
-0.41421356237310686
10
-79.274999971600181
20
2.5249997306091632
10
-92.174999971600158
20
2.5249997306091796
42
-0.41421356237308909
10
-92.724999971600141
20
3.074999730609167
10
-92.72499997160017
20
15.974999730609166
42
-0.41421356237311163
10
-92.174999971600158
20
16.524999730609181
10
-79.274999971600181
20
16.524999730609153
42
-0.41421356237308909
10
-78.72499997160017
20
15.974999730609159
0
LWPOLYLINE
5
130
100
AcDbEntity
8
0
100
AcDbPolyline
90
8
70
1
43
0.0
10
-257.03124997160018
20
73.124999730609275
42
-0.41421356237311396
10
-256.48124997160022
20
73.674999730609287
10
-243.58124997160024
20
73.674999730609258
42
-0.41421356237310919
10
-243.03124997160023
20
73.124999730609261
10
-243.03124997160018
20
60.224999730609277
42
-0.41421356237313761
10
-243.58124997160019
20
59.674999730609279
10
-256.48124997160016
20
59.674999730609287
42
-0.41421356237300988
10
-257.03124997160018
20
60.224999730609305
0
LWPOLYLINE
5
131
100
AcDbEntity
8
0
100
AcDbPolyline
90
8
70
1
43
0.0
10
-149.8749999716002
20
92.174999730609187
42
-0.41421356237307611
10
-149.32499997160019
20
92.724999730609184
10
-124.51874997160022
20
92.72499973060917
42
-0.41421356237309503
10
-123.96874997160023
20
92.174999730609173
10
-123.96874997160023
20
79.274999730609181
42
-0.41421356237309503
10
-124.51874997160022
20
78.724999730609227
10
-149.32499997160019
20
78.724999730609241
42
-0.41421356237307611
10
-149.8749999716002
20
79.274999730609238
0
LWPOLYLINE
5
132
100
AcDbEntity
8
0
100
AcDbPolyline
90
8
70
1
43
0.0
10
-28.718749971600207
20
79.274999730609167
42
-0.41421356237311163
10
-29.268749971600208
20
78.72499973060917
10
-44.549999971600194
20
78.724999730609142
42
-0.4142135623730856
10
-45.099999971600212
20
79.274999730609181
10
-45.099999971600212
20
92.174999730609173
42
-0.41421356237309503
10
-44.549999971600215
20
92.72499973060917
10
-29.268749971600215
20
92.724999730609099
42
-0.41421356237307377
10
-28.7187499716002
20
92.174999730609116
0
LWPOLYLINE
5
133
100
AcDbEntity
8
0
100
AcDbPolyline
90
8
70
1
43
0.0
10
-68.912499971600212
20
92.174999730609173
42
-0.41421356237310919
10
-68.362499971600215
20
92.724999730609184
10
-53.081249971600215
20
92.724999730609142
42
-0.41421356237308082
10
-52.531249971600232
20
92.17499973060913
10
-52.531249971600204
20
79.274999730609153
42
-0.41421356237310453
10
-53.081249971600201
20
78.72499973060917
10
-68.362499971600187
20
78.724999730609184
42
-0.41421356237308082
10
-68.912499971600184
20
79.274999730609167
0
LWPOLYLINE
5
134
100
AcDbEntity
8
0
100
AcDbPolyline
90
8
70
1
43
0.0
10
-245.12499997160018
20
15.974999730609269
42
-0.41421356237313406
10
-244.57499997160016
20
16.524999730609256
10
-231.67499997160022
20
16.52499973060926
42
-0.41421356237313406
10
-231.12499997160023
20
15.974999730609259
10
-231.12499997160018
20
3.0749997306092491
42
-0.41421356237313461
10
-231.67499997160019
20
2.5249997306092613
10
-244.57499997160016
20
2.5249997306092626
42
-0.41421356237311369
10
-245.12499997160012
20
3.0749997306092602
0
LWPOLYLINE
5
135
100
AcDbEntity
8
0
100
AcDbPolyline
90
8
70
1
43
0.0
10
-116.82499997160019
20
3.0749997306091807
42
-0.4142135623730806
10
-117.37499997160016
20
2.5249997306091903
10
-130.27499997160018
20
2.5249997306092009
42
-0.41421356237308943
10
-130.82499997160016
20
3.074999730609187
10
-130.82499997160016
20
15.974999730609191
42
-0.41421356237306783
10
-130.27499997160018
20
16.524999730609196
10
-117.37499997160018
20
16.524999730609181
42
-0.41421356237311635
10
-116.82499997160019
20
15.974999730609179
0
LWPOLYLINE
5
136
100
AcDbEntity
8
0
100
AcDbPolyline
90
8
70
1
43
0.0
10
-173.97499997160014
20
3.0749997306092136
42
-0.41421356237313345
10
-174.52499997160015
20
2.524999730609228
10
-187.42499997160019
20
2.5249997306092253
42
-0.41421356237313289
10
-187.97499997160017
20
3.0749997306092225
10
-187.9749999716002
20
15.974999730609225
42
-0.41421356237312934
10
-187.42499997160022
20
16.524999730609203
10
-174.52499997160018
20
16.524999730609217
42
-0.41421356237313289
10
-173.9749999716002
20
15.974999730609218
0
LWPOLYLINE
5
137
100
AcDbEntity
8
0
100
AcDbPolyline
90
8
70
1
43
0.0
10
-168.92499997160019
20
15.974999730609214
42
-0.41421356237313173
10
-168.3749999716002
20
16.524999730609199
10
-155.47499997160017
20
16.524999730609203
42
-0.41421356237311513
10
-154.92499997160019
20
15.974999730609202
10
-154.92499997160019
20
3.0749997306092047
42
-0.41421356237308177
10
-155.47499997160014
20
2.5249997306092125
10
-168.37499997160018
20
2.5249997306092133
42
-0.41421356237313323
10
-168.92499997160016
20
3.0749997306092114
0
LWPOLYLINE
5
138
100
AcDbEntity
8
0
100
AcDbPolyline
90
8
70
1
43
0.0
10
-193.02499997160015
20
3.0749997306092203
42
-0.41421356237313345
10
-193.57499997160016
20
2.5249997306092347
10
-206.47499997160014
20
2.5249997306092355
42
-0.41421356237313289
10
-207.02499997160015
20
3.0749997306092336
10
-207.02499997160018
20
15.974999730609236
42
-0.41421356237313173
10
-206.4749999716002
20
16.524999730609224
10
-193.57499997160019
20
16.524999730609224
42
-0.41421356237313173
10
-193.02499997160021
20
15.97499973060923
0
CIRCLE
5
139
100
AcDbEntity
8
0
100
AcDbCircle
10
-266.70000349088002
20
-2.8581134994438209
30
-2.7755575615628914e-16
40
1.0999999999999943
210
7.1299773867321987e-32
220
4.2760197510844133e-47
230
1
0
LWPOLYLINE
5
140
100
AcDbEntity
8
0
100
AcDbPolyline
90
24
70
1
43
0.0
10
-29.119249971600219
20
59.374999730609133
42
-0.41421356237308637
10
-28.819249971600218
20
59.674999730609144
10
-14.043249971600257
20
59.674999730609137
42
-0.41421356237309725
10
-13.743249971600253
20
59.374999730609133
10
-13.743249971600257
20
57.024999729251931
42
0.41421356237309725
10
-13.443249971600256
20
56.724999729251891
10
-6.0432499716001251
20
56.72499972925192
42
0.41421356237309503
10
-5.7432499716002292
20
57.024999729251924
10
-5.7432499716002381
20
74.805999730609116
42
0.41421356237309209
10
-6.2932499716001855
20
75.355999730609099
10
-13.131249971600209
20
75.355999730609142
42
0.41421356237306689
10
-13.431249971600202
20
75.055999730609145
10
-13.431249971600188
20
73.974999729251934
42
-0.41421356237311024
10
-13.731249971600196
20
73.674999729251923
10
-29.131249971600198
20
73.674999729251937
42
-0.41421356237309936
10
-29.431249971600199
20
73.97499972925192
10
-29.431249971600195
20
75.05599973060913
42
0.41421356237309076
10
-29.731249971600192
20
75.355999730609142
10
-36.569249971600179
20
75.355999730609369
42
0.41421356237309975
10
-37.119249971600148
20
74.805999730609415
10
-37.11924997160019
20
57.524999729251888
42
0.41421356237309503
10
-36.819249971600186
20
57.224999729251913
10
-29.41924997160022
20
57.224999729251905
42
0.41421356237306034
10
-29.119249971600219
20
57.524999729251903
0
LWPOLYLINE
5
141
100
AcDbEntity
8
0
100
AcDbPolyline
90
75
70
1
43
0.0
10
-208.90649997160025
20
78.724999730609269
10
-195.90624997160074
20
78.724999730609241
42
0.41421356237309037
10
-195.3562499716007
20
79.274999730609238
10
-195.35624997160073
20
92.178004544885994
42
0.39272177318733648
10
-195.86562497160048
20
92.726502137747616
42
-0.39272177318737367
10
-196.37499997160032
20
93.274999730609238
10
-196.37499997160029
20
94.661347253813517
42
-0.41421356237301177
10
-195.87499997160029
20
95.161347253813503
10
-185.83499997160027
20
95.161347253813489
42
-0.41421356237310542
10
-184.83499997160024
20
94.161347253813517
10
-184.83499997160021
20
79.274999730609267
42
0.41421356237310453
10
-184.2849999716002
20
78.724999730609227
10
-177.56799997160016
20
78.724999730609255
42
0.41421356237309037
10
-177.0179999716002
20
79.27499973060921
10
-177.01799997160032
20
94.161347253813489
42
-0.41421356237308982
10
-176.0179999716002
20
95.161347253813545
10
-157.97862159951978
20
95.161347253813517
42
0.26855894109142225
10
-157.11146080540141
20
95.663318984390969
10
-154.74040999409405
20
99.791763955612765
42
-0.51506124520666496
10
-150.05910114123975
20
99.791769785061661
10
-147.68804619449972
20
95.66331887035733
42
0.26855890584472247
10
-146.82088546587326
20
95.161347253813517
10
-90.474999971600198
20
95.161347253813517
42
-0.41421356237308982
10
-89.474999971600212
20
94.161347253813545
10
-89.474999971600212
20
79.274999730609139
42
0.41421356237310919
10
-88.924999971600243
20
78.72499973060917
10
-77.762499971600192
20
78.724999730609198
42
0.41421356237309037
10
-77.212499971600209
20
79.274999730609153
10
-77.212499971600266
20
94.161347253813545
42
-0.41421356237309764
10
-76.212499971600252
20
95.161347253813545
10
-43.678868008210344
20
95.16134725381356
42
0.26855891208533761
10
-42.811707267988197
20
95.663318890547629
10
-40.440653053389177
20
99.791768753011951
42
-0.51506059687413108
10
-35.759347622171461
20
99.791769785061618
10
-33.388292675431408
20
95.66331887035733
42
0.26855890584471837
10
-32.521131946804942
20
95.161347253813517
10
-1.1295034888045632
20
95.161347253813545
42
-0.41421356237309587
10
-0.12950348880456264
20
94.161347253813574
10
-0.12950348880455084
20
1.141886499198927
42
-0.41421356237309542
10
-1.1295034888045441
20
0.14188649919892513
10
-32.518893293899225
20
0.14188649919882293
42
0.26945709590925143
10
-33.387717703922092
20
-0.36299316739888399
10
-35.767319478152814
20
-4.5386570779850537
42
-0.5120529754982055
10
-40.432679471752813
20
-4.53865845731546
10
-42.812282233883003
20
-0.36299313829969265
42
0.26945708692815645
10
-43.681106627323025
20
0.14188649919882573
10
-146.81864681913967
20
0.14188649919888566
42
0.26945709260281486
10
-147.68747122305751
20
-0.36299315668579524
10
-150.06707336141983
20
-4.5386575863492622
42
-0.51205302453576573
10
-154.73243361619032
20
-4.5386575863492533
10
-157.11203575454942
20
-0.36299315666976562
42
0.26945709259788647
10
-157.98086015845814
20
0.14188649919895496
10
-261.11889693444016
20
0.14188649919931254
42
0.26945704720854069
10
-261.98772125454116
20
-0.36299300960580649
10
-264.36732838552541
20
-4.5386645571422699
42
-0.51205126868037532
10
-269.03267928902244
20
-4.5386635955234684
10
-271.4122857312754
20
-0.36299302989317961
42
0.26945705346998811
10
-272.28111006293767
20
0.14188649919931071
10
-303.6696432655238
20
0.14188649919930296
42
-0.41421356237306867
10
-304.6696432655238
20
1.1418864991992983
10
-304.66964326552392
20
94.161347253813716
42
-0.41421356237310542
10
-303.66964326552392
20
95.161347253813702
10
-272.27887151173621
20
95.161347253813517
42
0.26855890584472186
10
-271.41171078310981
20
95.66331887035733
10
-269.04065583636964
20
99.791769785061732
42
-0.51506045740031781
10
-264.35935114123981
20
99.791769785061717
10
-261.98829619449981
20
95.663318870357287
42
0.26855890584471825
10
-261.12113546587335
20
95.161347253813489
10
-204.02499997160032
20
95.161347253813517
42
-0.41421356237313667
10
-203.52499997160032
20
94.661347253813517
10
-203.52499997160032
20
93.274999730609238
42
-0.41421356237306667
10
-204.07499997160031
20
92.724999730609241
10
-208.90649997160025
20
92.724999730609227
42
0.41421356237307611
10
-209.45649997160024
20
92.174999730609258
10
-209.45649997160024
20
79.274999730609252
42
0.41421356237309503
0
LWPOLYLINE
5
142
100
AcDbEntity
8
0
100
AcDbPolyline
90
30
70
1
43
0.0
10
-42.741053362193512
20
57.728553121202417
42
-0.19891236737964624
10
-42.887499971600221
20
58.082106511795686
10
-42.887499971600221
20
76.724999730609255
42
0.41421356237309503
10
-43.387499971600221
20
77.224999730609241
10
-232.83749997160032
20
77.224999730609255
42
0.41421356237309503
10
-233.33749997160032
20
76.724999730609255
10
-233.33749997160029
20
57.624999730609289
42
-0.41421356237307422
10
-233.83749997160035
20
57.124999730609289
10
-242.36249997160027
20
57.124999730609289
42
0.41421356237309503
10
-242.86249997160027
20
56.624999730609289
10
-242.86249997160024
20
37.324999730609264
42
-0.41421356237307683
10
-243.36249997160027
20
36.824999730609264
10
-256.14999997160021
20
36.824999730609264
42
0.41421356237309503
10
-256.64999997160021
20
36.324999730609264
10
-256.64999997160021
20
20.824999730609271
42
0.41421356237309503
10
-256.14999997160021
20
20.324999730609278
10
-249.77499997160015
20
20.324999730609274
42
-0.099019513592796218
10
-249.58269227929247
20
20.286538192147727
10
-246.76730766390787
20
19.113461269070669
42
0.099019513592769781
10
-246.57499997160019
20
19.074999730609136
10
-29.099999971600177
20
19.074999730609129
42
0.41421356237309503
10
-28.599999971600173
20
19.574999730609129
10
-28.599999971600187
20
37.574999730609129
42
0.41421356237309503
10
-29.099999971600184
20
38.074999730609129
10
-32.862499971600201
20
38.074999730609129
42
-0.41421356237309503
10
-33.362499971600201
20
38.574999730609122
10
-33.362499971600208
20
55.374999730609147
42
0.41421356237309503
10
-33.862499971600208
20
55.874999730609154
10
-40.680393190413675
20
55.874999730609176
42
-0.19891236737962786
10
-41.033946581006944
20
56.021446340015892
0
CIRCLE
5
143
100
AcDbEntity
8
0
100
AcDbCircle
10
-152.39975348880469
20
98.122347255170752
30
0
40
1.0999999999999943
210
7.1299777908083818e-32
220
4.2760199934186497e-47
230
1
0
CIRCLE
5
144
100
AcDbEntity
8
0
100
AcDbCircle
10
-266.70000348880478
20
98.122347255170894
30
-2.7755575615628914e-16
40
1.0999999999999943
210
7.1299777908083818e-32
220
4.2760199934186497e-47
230
1
0
LWPOLYLINE
5
145
100
AcDbEntity
8
0
100
AcDbPolyline
90
16
70
1
43
0.0
10
-250.02499997160018
20
3.0749997306092181
10
-250.02499997160021
20
18.361999730609305
42
0.41421356237302348
10
-250.52499997160021
20
18.861999730609302
10
-258.39999997160032
20
18.861999730609263
42
0.41421356237309503
10
-258.69999997160033
20
18.561999730609251
10
-258.69999997160033
20
16.824999729252017
42
-0.41421356237302787
10
-258.99999997160029
20
16.524999729252038
10
-274.64999997160032
20
16.524999729252016
42
-0.41421356237309076
10
-274.94999997160033
20
16.824999729252024
10
-274.94999997160039
20
19.311999730609305
42
0.41421356237308637
10
-275.2499999716004
20
19.611999730609281
10
-282.87499997160023
20
19.611999730609288
42
0.41421356237309503
10
-283.37499997160023
20
19.111999730609281
10
-283.37499997160023
20
3.0749997306092536
42
0.41421356237309503
10
-282.82499997160028
20
2.5249997306092826
10
-250.57499997160016
20
2.5249997306092564
42
0.41421356237309503
0
CIRCLE
5
146
100
AcDbEntity
8
0
100
AcDbCircle
10
-38.099999969736309
20
98.122559675421215
30
-2.7755575615628914e-16
40
1.0999999999999985
210
-1.2591544876719274e-31
220
2.0679515313825696e-25
230
1
0
LWPOLYLINE
5
147
100
AcDbEntity
8
0
100
AcDbPolyline
90
24
70
1
43
0.0
10
-256.98074997160018
20
40.624999730609261
42
-0.4142135623731254
10
-256.38074997160015
20
40.024999730609281
10
-256.38074997160015
20
38.774999729252016
42
0.41421356237310153
10
-255.78074997160019
20
38.174999729252022
10
-248.98074997160018
20
38.174999729252022
42
0.41421356237309503
10
-248.38074997160018
20
38.774999729252009
10
-248.38074997160018
20
55.774999730609352
42
0.41421356237309503
10
-248.93074997160014
20
56.324999730609242
10
-255.71874997160083
20
56.324999730609321
42
0.41421356237309503
10
-256.31874997160082
20
55.724999730609326
10
-256.31874997160082
20
55.22499972925204
42
-0.41421356237310375
10
-256.91874997160079
20
54.624999729252039
10
-271.71874997160086
20
54.624999729252053
42
-0.41421356237313406
10
-272.31874997160082
20
55.224999729252048
10
-272.31874997160082
20
55.724999730609284
42
0.41421356237309503
10
-272.91874997160085
20
56.324999730609306
10
-279.68234997159971
20
56.324999730609292
42
0.41421356237312812
10
-280.23234997159966
20
55.774999730609295
10
-280.23234997159989
20
38.27499973906248
42
0.41421356237310153
10
-279.63234997159992
20
37.674999739062464
10
-273.06249997160018
20
37.674999739062379
42
0.41421356237309076
10
-272.46249997160015
20
38.274999739062366
10
-272.46249997160027
20
40.024999730609267
42
-0.41421356237313406
10
-271.86249997160024
20
40.624999730609275
0
LWPOLYLINE
5
148
100
AcDbEntity
8
0
100
AcDbPolyline
90
8
70
1
43
0.0
10
-301.7249999716002
20
40.624999730609289
10
-288.82499997160022
20
40.624999730609289
42
0.41421356237316126
10
-288.27499997160021
20
41.174999730609294
10
-288.27499997160021
20
54.074999730609292
42
0.41421356237307611
10
-288.82499997160022
20
54.624999730609282
10
-301.72499997160014
20
54.624999730609304
42
0.41421356237308082
10
-302.27499997160021
20
54.074999730609306
10
-302.27499997160021
20
41.174999730609294
42
0.4142135623730856
0
LWPOLYLINE
5
149
100
AcDbEntity
8
0
100
AcDbPolyline
90
8
70
1
43
0.0
10
-265.01249997160011
20
35.374999739062282
10
-277.96249997160055
20
35.374999739062446
42
0.41421356237309503
10
-278.51249997160062
20
34.824999739062442
10
-278.51249997160056
20
22.124999730609282
42
0.41421356237309503
10
-277.96249997160055
20
21.574999730609285
10
-265.01249997160016
20
21.574999730609271
42
0.41421356237317308
10
-264.46249997160004
20
22.124999730609275
10
-264.4624999716001
20
34.824999739062285
42
0.4142135623730927
0
LWPOLYLINE
5
150
100
AcDbEntity
8
0
100
AcDbPolyline
90
8
70
1
43
0.0
10
-217.38749997160025
20
92.724999730609255
10
-232.71899997160028
20
92.724999730609255
42
0.41421356237311396
10
-233.26899997160027
20
92.174999730609272
10
-233.26899997160024
20
79.274999730609267
42
0.41421356237309503
10
-232.71899997160028
20
78.724999730609269
10
-217.38749997160014
20
78.724999730609255
42
0.41421356237309503
10
-216.83749997160021
20
79.27499973060921
10
-216.83749997160024
20
92.174999730609258
42
0.4142135623730856
0
LWPOLYLINE
5
151
100
AcDbEntity
8
0
100
AcDbPolyline
90
8
70
1
43
0.0
10
-15.974999971600155
20
2.5249997306091263
10
-3.074999971600155
20
2.5249997292518622
42
0.41421356237309476
10
-2.5249999716001543
20
3.0749997292518638
10
-2.5249999716001676
20
15.974999730609124
42
0.41421356237309803
10
-3.074999971600163
20
16.524999730609114
10
-15.974999971600162
20
16.524999730609128
42
0.41421356237310092
10
-16.52499997160016
20
15.974999730609124
10
-16.524999971600156
20
3.0749997306091186
42
0.41421356237309653
0
CIRCLE
5
152
100
AcDbEntity
8
0
100
AcDbCircle
10
-152.39975348880509
20
-2.8581134994940918
30
0
40
1.0999999999999943
210
7.1299773867321987e-32
220
4.2760197510844133e-47
230
1
0
CIRCLE
5
153
100
AcDbEntity
8
0
100
AcDbCircle
10
-38.099999971811748
20
-2.8581134995443587
30
-2.7755575615628914e-16
40
1.0999999999999985
210
-1.2591545280795457e-31
220
2.0679515313825696e-25
230
1
0
LWPOLYLINE
5
154
100
AcDbEntity
8
0
100
AcDbPolyline
90
8
70
1
43
0.0
10
-264.17499997160019
20
92.174999730609272
42
-0.41421356237310453
10
-263.62499997160023
20
92.724999730609284
10
-250.72499997160031
20
92.724999730609284
42
-0.41421356237311396
10
-250.17499997160027
20
92.174999730609272
10
-250.17499997160024
20
79.274999730609295
42
-0.41421356237313761
10
-250.72499997160023
20
78.724999730609284
10
-263.62499997160023
20
78.724999730609269
42
-0.41421356237302881
10
-264.17499997160019
20
79.274999730609281
0
LWPOLYLINE
5
155
100
AcDbEntity
8
0
100
AcDbPolyline
90
8
70
1
43
0.0
10
-288.27499997160021
20
60.224999730609319
42
-0.41421356237313761
10
-288.82499997160016
20
59.674999730609322
10
-301.7249999716002
20
59.674999730609322
42
-0.41421356237312812
10
-302.27499997160021
20
60.224999730609312
10
-302.27499997160021
20
73.124999730609304
42
-0.41421356237308082
10
-301.7249999716002
20
73.674999730609315
10
-288.82499997160028
20
73.674999730609301
42
-0.41421356237311396
10
-288.27499997160021
20
73.124999730609304
0
LWPOLYLINE
5
156
100
AcDbEntity
8
0
100
AcDbPolyline
90
8
70
1
43
0.0
10
-269.22499997160014
20
60.224999730609298
42
-0.41421356237313761
10
-269.77499997160015
20
59.674999730609301
10
-282.67499997160019
20
59.674999730609308
42
-0.41421356237312812
10
-283.2249999716002
20
60.224999730609298
10
-283.22499997160025
20
73.124999730609289
42
-0.41421356237309037
10
-282.67499997160019
20
73.674999730609315
10
-269.77499997160021
20
73.674999730609272
42
-0.41421356237310919
10
-269.2249999716002
20
73.124999730609289
0
LWPOLYLINE
5
157
100
AcDbEntity
8
0
100
AcDbPolyline
90
8
70
1
43
0.0
10
-269.2249999716002
20
79.274999730609295
42
-0.41421356237313289
10
-269.77499997160021
20
78.724999730609312
10
-282.67499997160024
20
78.724999730609312
42
-0.41421356237310919
10
-283.22499997160025
20
79.274999730609338
10
-283.22499997160031
20
92.174999730609301
42
-0.41421356237310453
10
-282.67499997160024
20
92.724999730609298
10
-269.77499997160021
20
92.724999730609298
42
-0.41421356237310453
10
-269.22499997160025
20
92.174999730609272
0
LWPOLYLINE
5
158
100
AcDbEntity
8
0
100
AcDbPolyline
90
8
70
1
43
0.0
10
-4.9062499716002073
20
79.274999730609153
42
-0.41421356237311752
10
-5.4562499716002026
20
78.724999730609156
10
-20.737499971600208
20
78.724999730609127
42
-0.41421356237309037
10
-21.287499971600226
20
79.274999730609167
10
-21.287499971600205
20
92.17499973060913
42
-0.4142135623730856
10
-20.737499971600208
20
92.724999730609085
10
-5.4562499716002115
20
92.724999730609142
42
-0.41421356237309093
10
-4.9062499716002197
20
92.17499973060913
0
LWPOLYLINE
5
159
100
AcDbEntity
8
0
100
AcDbPolyline
90
8
70
1
43
0.0
10
-7.287499971600166
20
22.124999730609105
42
-0.41421356237308793
10
-7.8374999716001685
20
21.574999730609107
10
-20.737499971600172
20
21.574999730609122
42
-0.41421356237309503
10
-21.28749997160017
20
22.124999730609119
10
-21.287499971600177
20
35.024999730609139
42
-0.41421356237309742
10
-20.73749997160018
20
35.574999730609129
10
-7.8374999716001774
20
35.574999730609115
42
-0.4142135623730927
10
-7.2874999716001785
20
35.024999730609125
0
LWPOLYLINE
5
160
100
AcDbEntity
8
0
100
AcDbPolyline
90
8
70
1
43
0.0
10
-97.774999971600181
20
3.0749997306091732
42
-0.4142135623730791
10
-98.324999971600164
20
2.5249997306091654
10
-111.22499997160017
20
2.5249997306091911
42
-0.41421356237308909
10
-111.77499997160015
20
3.0749997306091759
10
-111.77499997160015
20
15.974999730609181
42
-0.41421356237307377
10
-111.22499997160018
20
16.524999730609192
10
-98.324999971600207
20
16.524999730609174
42
-0.41421356237309037
10
-97.774999971600209
20
15.974999730609166
0
LWPOLYLINE
5
161
100
AcDbEntity
8
0
100
AcDbPolyline
90
8
70
1
43
0.0
10
-54.624999971600175
20
15.974999730609152
42
-0.41421356237308443
10
-54.074999971600171
20
16.524999730609153
10
-41.174999971600165
20
16.524999730609139
42
-0.41421356237308443
10
-40.624999971600168
20
15.974999730609145
10
-40.624999971600147
20
3.0749997306091337
42
-0.4142135623731063
10
-41.174999971600158
20
2.5249997306091276
10
-54.074999971600164
20
2.5249997306091481
42
-0.41421356237308526
10
-54.624999971600161
20
3.0749997306091448
0
LWPOLYLINE
5
162
100
AcDbEntity
8
0
100
AcDbPolyline
90
8
70
1
43
0.0
10
-288.27499997160021
20
22.124999730609282
42
-0.41421356237311396
10
-288.82499997160016
20
21.574999730609264
10
-301.72499997160025
20
21.574999730609289
42
-0.41421356237311163
10
-302.27499997160021
20
22.124999730609282
10
-302.27499997160021
20
35.024999730609288
42
-0.41421356237312812
10
-301.7249999716002
20
35.574999730609264
10
-288.82499997160022
20
35.574999730609278
42
-0.41421356237314949
10
-288.27499997160021
20
35.024999730609288
0
LWPOLYLINE
5
163
100
AcDbEntity
8
0
100
AcDbPolyline
90
8
70
1
43
0.0
10
-288.27499997160015
20
3.0749997306092802
42
-0.41421356237313345
10
-288.82499997160016
20
2.5249997306092951
10
-301.7249999716002
20
2.5249997306092919
42
-0.41421356237311396
10
-302.27499997160015
20
3.0749997306092891
10
-302.27499997160021
20
15.974999730609291
42
-0.41421356237312812
10
-301.7249999716002
20
16.52499973060927
10
-288.82499997160016
20
16.524999730609281
42
-0.41421356237313289
10
-288.27499997160021
20
15.974999730609285
0
LWPOLYLINE
5
164
100
AcDbEntity
8
0
100
AcDbPolyline
90
8
70
1
43
0.0
10
-149.87499997160015
20
15.974999730609198
42
-0.41421356237307144
10
-149.32499997160016
20
16.524999730609206
10
-136.42499997160019
20
16.524999730609192
42
-0.41421356237311635
10
-135.8749999716002
20
15.97499973060919
10
-135.8749999716002
20
3.0749997306091936
42
-0.41421356237308143
10
-136.42499997160019
20
2.5249997306092014
10
-149.32499997160016
20
2.5249997306092049
42
-0.41421356237310269
10
-149.87499997160012
20
3.0749997306091981
0
LWPOLYLINE
5
165
100
AcDbEntity
8
0
100
AcDbPolyline
90
8
70
1
43
0.0
10
-35.574999971600157
20
15.974999730609142
42
-0.41421356237309859
10
-35.02499997160016
20
16.524999730609135
10
-22.124999971600165
20
16.524999730609132
42
-0.41421356237309503
10
-21.57499997160016
20
15.974999730609134
10
-21.574999971600157
20
3.0749997306091226
42
-0.41421356237309176
10
-22.124999971600158
20
2.5249997306091254
10
-35.02499997160016
20
2.5249997306091334
42
-0.41421356237310303
10
-35.574999971600157
20
3.0749997306091315
0
LWPOLYLINE
5
166
100
AcDbEntity
8
0
100
AcDbPolyline
90
8
70
1
43
0.0
10
-23.668749971600185
20
54.074999730609136
42
-0.4142135623730856
10
-23.118749971600188
20
54.624999730609133
10
-5.4562499716001849
20
54.624999730609119
42
-0.41421356237308321
10
-4.9062499716001886
20
54.074999730609122
10
-4.9062499716001877
20
41.174999730609123
42
-0.41421356237311163
10
-5.4562499716001795
20
40.624999730609126
10
-23.118749971600177
20
40.624999730609133
42
-0.41421356237309037
10
-23.668749971600182
20
41.174999730609116
0
LWPOLYLINE
5
167
100
AcDbEntity
8
0
100
AcDbPolyline
90
8
70
1
43
0.0
10
-73.674999971600158
20
15.974999730609163
42
-0.41421356237307849
10
-73.124999971600161
20
16.524999730609164
10
-60.224999971600177
20
16.524999730609146
42
-0.4142135623730856
10
-59.67499997160018
20
15.974999730609147
10
-59.674999971600158
20
3.0749997306091448
42
-0.4142135623731063
10
-60.22499997160017
20
2.5249997306091387
10
-73.124999971600161
20
2.5249997306091543
42
-0.41421356237308526
10
-73.674999971600158
20
3.0749997306091514
0
LWPOLYLINE
5
168
100
AcDbEntity
8
0
100
AcDbPolyline
90
8
70
1
43
0.0
10
-288.27499997160027
20
79.274999730609338
42
-0.41421356237313761
10
-288.82499997160022
20
78.724999730609355
10
-301.72499997160025
20
78.724999730609284
42
-0.41421356237311396
10
-302.27499997160021
20
79.274999730609323
10
-302.27499997160032
20
92.174999730609315
42
-0.41421356237309503
10
-301.72499997160025
20
92.724999730609298
10
-288.82499997160028
20
92.724999730609298
42
-0.41421356237305718
10
-288.27499997160027
20
92.174999730609301
0
LWPOLYLINE
5
169
100
AcDbEntity
8
0
100
AcDbPolyline
90
8
70
1
43
0.0
10
-212.07499997160016
20
3.0749997306092309
42
-0.41421356237313323
10
-212.62499997160018
20
2.5249997306092458
10
-225.52499997160015
20
2.524999730609252
42
-0.41421356237313228
10
-226.07499997160016
20
3.0749997306092469
10
-226.07499997160019
20
15.974999730609255
42
-0.41421356237312934
10
-225.52499997160021
20
16.524999730609235
10
-212.6249999716002
20
16.524999730609245
42
-0.41421356237313289
10
-212.07499997160022
20
15.97499973060925
0
LWPOLYLINE
5
170
100
AcDbEntity
8
0
100
AcDbPolyline
90
8
70
1
43
0.0
10
-78.72499997160017
20
3.074999730609159
42
-0.41421356237310686
10
-79.274999971600181
20
2.5249997306091632
10
-92.174999971600158
20
2.5249997306091796
42
-0.41421356237308909
10
-92.724999971600141
20
3.074999730609167
10
-92.72499997160017
20
15.974999730609166
42
-0.41421356237311163
10
-92.174999971600158
20
16.524999730609181
10
-79.274999971600181
20
16.524999730609153
42
-0.41421356237308909
10
-78.72499997160017
20
15.974999730609159
0
LWPOLYLINE
5
171
100
AcDbEntity
8
0
100
AcDbPolyline
90
8
70
1
43
0.0
10
-257.03124997160018
20
73.124999730609275
42
-0.41421356237311396
10
-256.48124997160022
20
73.674999730609287
10
-243.58124997160024
20
73.674999730609258
42
-0.41421356237310919
10
-243.03124997160023
20
73.124999730609261
10
-243.03124997160018
20
60.224999730609277
42
-0.41421356237313761
10
-243.58124997160019
20
59.674999730609279
10
-256.48124997160016
20
59.674999730609287
42
-0.41421356237300988
10
-257.03124997160018
20
60.224999730609305
0
LWPOLYLINE
5
172
100
AcDbEntity
8
0
100
AcDbPolyline
90
8
70
1
43
0.0
10
-149.8749999716002
20
92.174999730609187
42
-0.41421356237307611
10
-149.32499997160019
20
92.724999730609184
10
-124.51874997160022
20
92.72499973060917
42
-0.41421356237309503
10
-123.96874997160023
20
92.174999730609173
10
-123.96874997160023
20
79.274999730609181
42
-0.41421356237309503
10
-124.51874997160022
20
78.724999730609227
10
-149.32499997160019
20
78.724999730609241
42
-0.41421356237307611
10
-149.8749999716002
20
79.274999730609238
0
LWPOLYLINE
5
173
100
AcDbEntity
8
0
100
AcDbPolyline
90
8
70
1
43
0.0
10
-28.718749971600207
20
79.274999730609167
42
-0.41421356237311163
10
-29.268749971600208
20
78.72499973060917
10
-44.549999971600194
20
78.724999730609142
42
-0.4142135623730856
10
-45.099999971600212
20
79.274999730609181
10
-45.099999971600212
20
92.174999730609173
42
-0.41421356237309503
10
-44.549999971600215
20
92.72499973060917
10
-29.268749971600215
20
92.724999730609099
42
-0.41421356237307377
10
-28.7187499716002
20
92.174999730609116
0
LWPOLYLINE
5
174
100
AcDbEntity
8
0
100
AcDbPolyline
90
8
70
1
43
0.0
10
-68.912499971600212
20
92.174999730609173
42
-0.41421356237310919
10
-68.362499971600215
20
92.724999730609184
10
-53.081249971600215
20
92.724999730609142
42
-0.41421356237308082
10
-52.531249971600232
20
92.17499973060913
10
-52.531249971600204
20
79.274999730609153
42
-0.41421356237310453
10
-53.081249971600201
20
78.72499973060917
10
-68.362499971600187
20
78.724999730609184
42
-0.41421356237308082
10
-68.912499971600184
20
79.274999730609167
0
LWPOLYLINE
5
175
100
AcDbEntity
8
0
100
AcDbPolyline
90
8
70
1
43
0.0
10
-245.12499997160018
20
15.974999730609269
42
-0.41421356237313406
10
-244.57499997160016
20
16.524999730609256
10
-231.67499997160022
20
16.52499973060926
42
-0.41421356237313406
10
-231.12499997160023
20
15.974999730609259
10
-231.12499997160018
20
3.0749997306092491
42
-0.41421356237313461
10
-231.67499997160019
20
2.5249997306092613
10
-244.57499997160016
20
2.5249997306092626
42
-0.41421356237311369
10
-245.12499997160012
20
3.0749997306092602
0
LWPOLYLINE
5
176
100
AcDbEntity
8
0
100
AcDbPolyline
90
8
70
1
43
0.0
10
-116.82499997160019
20
3.0749997306091807
42
-0.4142135623730806
10
-117.37499997160016
20
2.5249997306091903
10
-130.27499997160018
20
2.5249997306092009
42
-0.41421356237308943
10
-130.82499997160016
20
3.074999730609187
10
-130.82499997160016
20
15.974999730609191
42
-0.41421356237306783
10
-130.27499997160018
20
16.524999730609196
10
-117.37499997160018
20
16.524999730609181
42
-0.41421356237311635
10
-116.82499997160019
20
15.974999730609179
0
LWPOLYLINE
5
177
100
AcDbEntity
8
0
100
AcDbPolyline
90
8
70
1
43
0.0
10
-173.97499997160014
20
3.0749997306092136
42
-0.41421356237313345
10
-174.52499997160015
20
2.524999730609228
10
-187.42499997160019
20
2.5249997306092253
42
-0.41421356237313289
10
-187.97499997160017
20
3.0749997306092225
10
-187.9749999716002
20
15.974999730609225
42
-0.41421356237312934
10
-187.42499997160022
20
16.524999730609203
10
-174.52499997160018
20
16.524999730609217
42
-0.41421356237313289
10
-173.9749999716002
20
15.974999730609218
0
LWPOLYLINE
5
178
100
AcDbEntity
8
0
100
AcDbPolyline
90
8
70
1
43
0.0
10
-168.92499997160019
20
15.974999730609214
42
-0.41421356237313173
10
-168.3749999716002
20
16.524999730609199
10
-155.47499997160017
20
16.524999730609203
42
-0.41421356237311513
10
-154.92499997160019
20
15.974999730609202
10
-154.92499997160019
20
3.0749997306092047
42
-0.41421356237308177
10
-155.47499997160014
20
2.5249997306092125
10
-168.37499997160018
20
2.5249997306092133
42
-0.41421356237313323
10
-168.92499997160016
20
3.0749997306092114
0
LWPOLYLINE
5
179
100
AcDbEntity
8
0
100
AcDbPolyline
90
8
70
1
43
0.0
10
-193.02499997160015
20
3.0749997306092203
42
-0.41421356237313345
10
-193.57499997160016
20
2.5249997306092347
10
-206.47499997160014
20
2.5249997306092355
42
-0.41421356237313289
10
-207.02499997160015
20
3.0749997306092336
10
-207.02499997160018
20
15.974999730609236
42
-0.41421356237313173
10
-206.4749999716002
20
16.524999730609224
10
-193.57499997160019
20
16.524999730609224
42
-0.41421356237313173
10
-193.02499997160021
20
15.97499973060923
0
CIRCLE
5
180
100
AcDbEntity
8
0
100
AcDbCircle
10
-266.70000349088002
20
-2.8581134994438209
30
-2.7755575615628914e-16
40
1.0999999999999943
210
7.1299773867321987e-32
220
4.2760197510844133e-47
230
1
0
LWPOLYLINE
5
181
100
AcDbEntity
8
0
100
AcDbPolyline
90
24
70
1
43
0.0
10
-29.119249971600219
20
59.374999730609133
42
-0.41421356237308637
10
-28.819249971600218
20
59.674999730609144
10
-14.043249971600257
20
59.674999730609137
42
-0.41421356237309725
10
-13.743249971600253
20
59.374999730609133
10
-13.743249971600257
20
57.024999729251931
42
0.41421356237309725
10
-13.443249971600256
20
56.724999729251891
10
-6.0432499716001251
20
56.72499972925192
42
0.41421356237309503
10
-5.7432499716002292
20
57.024999729251924
10
-5.7432499716002381
20
74.805999730609116
42
0.41421356237309209
10
-6.2932499716001855
20
75.355999730609099
10
-13.131249971600209
20
75.355999730609142
42
0.41421356237306689
10
-13.431249971600202
20
75.055999730609145
10
-13.431249971600188
20
73.974999729251934
42
-0.41421356237311024
10
-13.731249971600196
20
73.674999729251923
10
-29.131249971600198
20
73.674999729251937
42
-0.41421356237309936
10
-29.431249971600199
20
73.97499972925192
10
-29.431249971600195
20
75.05599973060913
42
0.41421356237309076
10
-29.731249971600192
20
75.355999730609142
10
-36.569249971600179
20
75.355999730609369
42
0.41421356237309975
10
-37.119249971600148
20
74.805999730609415
10
-37.11924997160019
20
57.524999729251888
42
0.41421356237309503
10
-36.819249971600186
20
57.224999729251913
10
-29.41924997160022
20
57.224999729251905
42
0.41421356237306034
10
-29.119249971600219
20
57.524999729251903
0
ENDSEC
0
SECTION
2
OBJECTS
0
DICTIONARY
5
C
100
AcDbDictionary
3
ACAD_GROUP
350
D
3
ACAD_MLINESTYLE
350
17
0
DICTIONARY
5
D
100
AcDbDictionary
0
DICTIONARY
5
1A
330
C
100
AcDbDictionary
0
DICTIONARY
5
17
100
AcDbDictionary
0
ENDSEC
0
EOF
