0
SECTION
2
HEADER
9
$INSUNITS
70
4
9
$ACADVER
1
AC1014
9
$HANDSEED
5
FFFF
0
ENDSEC
0
SECTION
2
TABLES
0
TABLE
2
VPORT
5
8
100
AcDbSymbolTable
0
ENDTAB
0
TABLE
2
LTYPE
5
5
100
AcDbSymbolTable
0
LTYPE
5
14
100
AcDbSymbolTableRecord
100
AcDbLinetypeTableRecord
2
BYBLOCK
70
0
0
LTYPE
5
15
100
AcDbSymbolTableRecord
100
AcDbLinetypeTableRecord
2
BYLAYER
70
0
0
ENDTAB
0
TABLE
2
LAYER
5
2
100
AcDbSymbolTable
70
2
0
LAYER
5
50
100
AcDbSymbolTableRecord
100
AcDbLayerTableRecord
2
0
70
0
6
CONTINUOUS
0
ENDTAB
0
TABLE
2
STYLE
5
3
100
AcDbSymbolTable
70
1
0
STYLE
5
11
100
AcDbSymbolTableRecord
100
AcDbTextStyleTableRecord
2
STANDARD
70
0
0
ENDTAB
0
TABLE
2
VIEW
5
6
100
AcDbSymbolTable
70
0
0
ENDTAB
0
TABLE
2
UCS
5
7
100
AcDbSymbolTable
70
0
0
ENDTAB
0
TABLE
2
APPID
5
9
100
AcDbSymbolTable
70
2
0
APPID
5
12
100
AcDbSymbolTableRecord
100
AcDbRegAppTableRecord
2
ACAD
70
0
0
ENDTAB
0
TABLE
2
DIMSTYLE
5
A
100
AcDbSymbolTable
70
1
0
ENDTAB
0
TABLE
2
BLOCK_RECORD
5
1
100
AcDbSymbolTable
70
1
0
BLOCK_RECORD
5
1F
100
AcDbSymbolTableRecord
100
AcDbBlockTableRecord
2
*MODEL_SPACE
0
BLOCK_RECORD
5
1B
100
AcDbSymbolTableRecord
100
AcDbBlockTableRecord
2
*PAPER_SPACE
0
ENDTAB
0
ENDSEC
0
SECTION
2
BLOCKS
0
BLOCK
5
20
100
AcDbEntity
100
AcDbBlockBegin
2
*MODEL_SPACE
0
ENDBLK
5
21
100
AcDbEntity
100
AcDbBlockEnd
0
BLOCK
5
1C
100
AcDbEntity
100
AcDbBlockBegin
2
*PAPER_SPACE
0
ENDBLK
5
1D
100
AcDbEntity
100
AcDbBlockEnd
0
ENDSEC
0
SECTION
2
ENTITIES
0
LWPOLYLINE
5
100
100
AcDbEntity
8
0
100
AcDbPolyline
90
24
70
1
43
0.0
10
69.202878032143275
20
-6.5403805922287717
10
69.202878032143232
20
-6.0403805922288001
42
0.29248421725042889
10
68.912497439914517
20
-5.5864425965888431
10
68.912497439914546
20
5.5864425965886628
42
0.29248421725048623
10
69.202878032143303
20
6.040380592228658
10
69.202878032143275
20
6.5403805922286651
42
0.41421356237306034
10
68.452878032143332
20
7.2903805922286669
10
67.952878032143303
20
7.2903805922286598
42
0.29248421725047224
10
67.498940036503384
20
6.9999999999999654
10
56.326054843325863
20
6.9999999999999618
42
0.29248421725048324
10
55.872116847685867
20
7.290380592228642
10
55.372116847685824
20
7.2903805922287157
42
0.41421356237311757
10
54.622116847685795
20
6.5403805922287006
10
54.622116847685795
20
6.0403805922287113
42
0.29248421725039825
10
54.912497439914539
20
5.586442596588725
10
54.912497439914503
20
-5.5864425965887694
42
0.29248421725052554
10
54.622116847685795
20
-6.040380592228729
10
54.62211684768576
20
-6.5403805922287184
42
0.41421356237307383
10
55.372116847685717
20
-7.2903805922288134
10
55.87211684768576
20
-7.2903805922287637
42
0.29248421725048673
10
56.326054843325757
20
-7.0000000000000338
10
67.498940036503271
20
-7.0000000000000444
42
0.29248421725048818
10
67.952878032143218
20
-7.2903805922287743
10
68.452878032143218
20
-7.2903805922287832
42
0.41421356237313367
0
LWPOLYLINE
5
101
100
AcDbEntity
8
0
100
AcDbPolyline
90
28
70
1
43
0.0
10
59.677880592229258
20
-31.559619407771322
42
0.41421356237312801
10
58.927880592229229
20
-30.809619407771297
10
58.427880592229222
20
-30.809619407771361
42
0.29248421725050672
10
57.973942596589225
20
-31.100000000000065
10
51.625000000000504
20
-31.100000000000012
10
51.625000000000512
20
-30.600000000000186
42
0.41421356237307555
10
50.625000000000497
20
-29.600000000000186
10
44.625000000000547
20
-29.600000000000183
42
0.41421356237309243
10
43.625000000000583
20
-30.600000000000186
10
43.625000000000647
20
-30.809619407771205
10
43.465869407771905
20
-30.809619407771173
42
0.41421356237310197
10
42.715869407771756
20
-31.559619407771201
10
42.715869407771848
20
-32.059619407771251
42
0.29248421725038526
10
43.006250000000541
20
-32.513557403411191
10
43.006250000000541
20
-43.686442596588662
42
0.2924842172503539
10
42.715869407771756
20
-44.14038059222861
10
42.715869407771756
20
-44.640380592228652
42
0.41421356237308815
10
43.465869407771727
20
-45.390380592228787
10
43.965869407771727
20
-45.390380592228794
42
0.29248421725034141
10
44.419807403411724
20
-45.099999999999973
10
57.973942596589225
20
-45.100000000000051
42
0.29248421725043888
10
58.427880592229151
20
-45.390380592228787
10
58.927880592229123
20
-45.390380592228794
42
0.41421356237312978
10
59.677880592229222
20
-44.640380592228787
10
59.677880592229222
20
-44.140380592228816
42
0.29248421725038853
10
59.387500000000493
20
-43.686442596588833
10
59.38750000000055
20
-32.513557403411369
42
0.29248421725035317
10
59.677880592229222
20
-32.059619407771443
0
LWPOLYLINE
5
102
100
AcDbEntity
8
0
100
AcDbPolyline
90
24
70
1
43
0.0
10
40.6278780321433
20
-25.090380592228811
42
0.29248421725042406
10
40.337497439914529
20
-24.636442596588783
10
40.337497439914586
20
-13.463557403411341
42
0.29248421725048662
10
40.62787803214335
20
-13.009619407771373
10
40.627878032143336
20
-12.509619407771346
42
0.41421356237306473
10
39.877878032143308
20
-11.759619407771337
10
39.377878032143329
20
-11.759619407771337
42
0.29248421725041779
10
38.923940036503375
20
-12.050000000000054
10
27.751054843325829
20
-12.050000000000052
42
0.29248421725041296
10
27.297116847685885
20
-11.759619407771337
10
26.79711684768586
20
-11.759619407771284
42
0.41421356237309503
10
26.047116847685832
20
-12.509619407771295
10
26.047116847685828
20
-13.009619407771284
42
0.29248421725046586
10
26.337497439914586
20
-13.463557403411277
10
26.33749743991455
20
-24.636442596588772
42
0.29248421725044504
10
26.047116847685814
20
-25.09038059222874
10
26.047116847685814
20
-25.590380592228751
42
0.41421356237307599
10
26.797116847685771
20
-26.340380592228829
10
27.2971168476858
20
-26.340380592228776
42
0.2924842172504426
10
27.751054843325772
20
-26.050000000000058
10
38.923940036503296
20
-26.050000000000058
42
0.29248421725041923
10
39.377878032143272
20
-26.340380592228776
10
39.877878032143251
20
-26.340380592228851
42
0.41421356237313495
10
40.627878032143286
20
-25.590380592228801
0
LWPOLYLINE
5
103
100
AcDbEntity
8
0
100
AcDbPolyline
90
24
70
1
43
0.0
10
64.147119407771569
20
-44.140380592228681
42
-0.29248421725040358
10
64.437500000000313
20
-43.686442596588719
10
64.437500000000483
20
-32.513557403411191
42
-0.2924842172504788
10
64.147119407771712
20
-32.059619407771251
10
64.147119407771555
20
-31.559619407771251
42
-0.41421356237313667
10
64.897119407771726
20
-30.809619407771272
10
65.397119407771697
20
-30.809619407771258
42
-0.29248421725045781
10
65.851057403411716
20
-31.100000000000012
10
79.405192596589146
20
-31.100000000000023
42
-0.29248421725051071
10
79.859130592229121
20
-30.809619407771301
10
80.359130592229121
20
-30.809619407771311
42
-0.41421356237307422
10
81.10913059222915
20
-31.559619407771322
10
81.109130592229121
20
-32.059619407771308
42
-0.2924842172504396
10
80.818750000000421
20
-32.513557403411312
10
80.818750000000421
20
-43.686442596588854
42
-0.29248421725038598
10
81.10913059222915
20
-44.140380592228787
10
81.109130592229121
20
-44.640380592228716
42
-0.41421356237311241
10
80.359130592228937
20
-45.390380592228745
10
79.859130592229064
20
-45.390380592228745
42
-0.29248421725043938
10
79.405192596589103
20
-45.100000000000016
10
65.851057403411602
20
-45.100000000000016
42
-0.29248421725038865
10
65.397119407771598
20
-45.390380592228745
10
64.897119407771584
20
-45.390380592228745
42
-0.41421356237312623
10
64.147119407771555
20
-44.640380592228738
0
LWPOLYLINE
5
104
100
AcDbEntity
8
0
100
AcDbPolyline
90
24
70
1
43
0.0
10
-27.297121967856786
20
-7.2903805922287663
42
-0.29248421725042911
10
-27.751059963496751
20
-7.0000000000000284
10
-38.923945156674321
20
-7.0000000000000284
42
-0.29248421725038887
10
-39.377883152314219
20
-7.2903805922287663
10
-39.877883152314254
20
-7.2903805922288036
42
-0.4142135623731501
10
-40.627883152314169
20
-6.5403805922287184
10
-40.627883152314169
20
-6.040380592228729
42
-0.29248421725039175
10
-40.33750256008549
20
-5.5864425965887845
10
-40.337502560085454
20
5.5864425965887596
42
-0.29248421725047519
10
-40.627883152314155
20
6.0403805922287113
10
-40.627883152314226
20
6.5403805922287006
42
-0.41421356237313062
10
-39.877883152314155
20
7.2903805922287113
10
-39.377883152314155
20
7.2903805922286686
42
-0.29248421725044127
10
-38.923945156674115
20
6.9999999999999396
10
-27.751059963496679
20
6.9999999999999574
42
-0.29248421725036849
10
-27.297121967856697
20
7.2903805922286979
10
-26.797121967856693
20
7.2903805922286535
42
-0.41421356237309853
10
-26.047121967856697
20
6.5403805922286651
10
-26.047121967856697
20
6.0403805922286047
42
-0.29248421725044199
10
-26.337502560085451
20
5.5864425965886619
10
-26.337502560085468
20
-5.586442596588828
42
-0.2924842172504436
10
-26.047121967856736
20
-6.0403805922287814
10
-26.047121967856732
20
-6.5403805922287717
42
-0.41421356237310847
10
-26.797121967856803
20
-7.2903805922287823
0
LWPOLYLINE
5
105
100
AcDbEntity
8
0
100
AcDbPolyline
90
24
70
1
43
0.0
10
88.252878032143229
20
-6.0403805922288001
42
0.29248421725040574
10
87.962497439914557
20
-5.5864425965888609
10
87.962497439914557
20
5.5864425965886744
42
0.29248421725038454
10
88.252878032143286
20
6.0403805922286047
10
88.252878032143286
20
6.5403805922286296
42
0.41421356237321988
10
87.502878032143272
20
7.2903805922286402
10
87.002878032143286
20
7.2903805922286766
42
0.29248421725045132
10
86.548940036503353
20
6.9999999999998996
10
75.37605484332579
20
6.9999999999999476
42
0.2924842172503937
10
74.922116847685786
20
7.2903805922286944
10
74.422116847685814
20
7.2903805922287042
42
0.41421356237306817
10
73.672116847685743
20
6.5403805922287006
10
73.6721168476858
20
6.0403805922286944
42
0.29248421725047974
10
73.962497439914557
20
5.5864425965887445
10
73.962497439914458
20
-5.5864425965887818
42
0.29248421725042673
10
73.672116847685743
20
-6.0403805922287468
10
73.672116847685743
20
-6.5403805922287717
42
0.41421356237302914
10
74.422116847685743
20
-7.2903805922288525
10
74.922116847685743
20
-7.2903805922287912
42
0.29248421725040902
10
75.376054843325704
20
-7.0000000000000391
10
86.548940036503254
20
-7.0000000000000213
42
0.29248421725040957
10
87.002878032143229
20
-7.2903805922288312
10
87.502878032143215
20
-7.290380592228793
42
0.41421356237312718
10
88.252878032143229
20
-6.5403805922288072
0
LWPOLYLINE
5
106
100
AcDbEntity
8
0
100
AcDbPolyline
90
24
70
1
43
0.0
10
118.23855484332577
20
-45.100000000000115
10
129.41144003650328
20
-45.100000000000065
42
0.29248421725041324
10
129.8653780321433
20
-45.390380592228901
10
130.3653780321433
20
-45.390380592228858
42
0.41421356237310897
10
131.1153780321433
20
-44.64038059222888
10
131.11537803214335
20
-44.140380592228901
42
0.29248421725045309
10
130.82499743991465
20
-43.686442596588925
10
130.82499743991465
20
-32.51355740341139
42
0.29248421725036355
10
131.11537803214338
20
-32.059619407771393
10
131.1153780321433
20
-31.559619407771375
42
0.41421356237310197
10
130.36537803214338
20
-30.809619407771365
10
129.86537803214338
20
-30.809619407771336
42
0.29248421725041007
10
129.41144003650345
20
-31.100000000000094
10
118.23855484332594
20
-31.100000000000094
42
0.29248421725046614
10
117.78461684768594
20
-30.809619407771415
10
117.28461684768592
20
-30.809619407771365
42
0.41421356237315055
10
116.53461684768587
20
-31.559619407771322
10
116.53461684768587
20
-32.059619407771351
42
0.29248421725040524
10
116.82499743991464
20
-32.513557403411284
10
116.82499743991457
20
-43.68644259658879
42
0.29248421725046092
10
116.53461684768575
20
-44.140380592228787
10
116.5346168476858
20
-44.64038059222883
42
0.41421356237304302
10
117.28461684768592
20
-45.390380592228937
10
117.7846168476858
20
-45.390380592228887
42
0.29248421725045815
0
LWPOLYLINE
5
107
100
AcDbEntity
8
0
100
AcDbPolyline
90
24
70
1
43
0.0
10
12.052878032143306
20
6.5403805922286651
42
0.41421356237309503
10
11.302878032143278
20
7.290380592228658
10
10.80287803214329
20
7.2903805922286438
42
0.29248421725040946
10
10.348940036503347
20
6.9999999999999574
10
-0.82394515667422574
20
6.9999999999999938
42
0.2924842172504048
10
-1.2778831523141854
20
7.2903805922286944
10
-1.777883152314192
20
7.2903805922286935
42
0.41421356237308821
10
-2.5278831523142382
20
6.5403805922286651
10
-2.5278831523142093
20
6.0403805922287113
42
0.2924842172503862
10
-2.2375025600854679
20
5.5864425965887321
10
-2.2375025600855047
20
-5.5864425965887632
42
0.29248421725042067
10
-2.5278831523142564
20
-6.040380592228729
10
-2.5278831523142471
20
-6.5403805922287184
42
0.41421356237308965
10
-1.7778831523142458
20
-7.2903805922288001
10
-1.2778831523142473
20
-7.2903805922287628
42
0.2924842172504285
10
-0.82394515667429502
20
-7.0000000000000462
10
10.348940036503258
20
-7.0000000000000284
42
0.2924842172504325
10
10.802878032143235
20
-7.2903805922287823
10
11.302878032143205
20
-7.2903805922287814
42
0.41421356237312068
10
12.052878032143273
20
-6.5403805922287717
10
12.052878032143273
20
-6.0403805922287823
42
0.29248421725043011
10
11.762497439914521
20
-5.5864425965888334
10
11.762497439914556
20
5.586442596588677
42
0.29248421725041163
10
12.052878032143308
20
6.040380592228658
0
LWPOLYLINE
5
108
100
AcDbEntity
8
0
100
AcDbPolyline
90
24
70
1
43
0.0
10
37.276054843325774
20
6.9999999999999609
42
0.29248421725043394
10
36.822116847685855
20
7.2903805922286935
10
36.322116847685813
20
7.2903805922287122
42
0.41421356237311974
10
35.572116847685763
20
6.5403805922287006
10
35.572116847685805
20
6.0403805922287113
42
0.29248421725043189
10
35.862497439914534
20
5.5864425965887401
10
35.862497439914485
20
-5.5864425965887623
42
0.29248421725041729
10
35.572116847685777
20
-6.040380592228729
10
35.572116847685734
20
-6.5403805922287184
42
0.41421356237309853
10
36.322116847685777
20
-7.290380592228809
10
36.822116847685741
20
-7.2903805922287566
42
0.29248421725041757
10
37.276054843325696
20
-7.000000000000024
10
48.448940036503245
20
-7.0000000000000444
42
0.29248421725046708
10
48.902878032143221
20
-7.2903805922287956
10
49.402878032143221
20
-7.2903805922287965
42
0.41421356237313534
10
50.152878032143285
20
-6.5403805922287717
10
50.152878032143249
20
-6.0403805922287814
42
0.29248421725045176
10
49.862497439914506
20
-5.5864425965888307
10
49.862497439914542
20
5.5864425965886984
42
0.29248421725042961
10
50.152878032143263
20
6.040380592228658
10
50.152878032143278
20
6.5403805922286651
42
0.41421356237313106
10
49.402878032143249
20
7.2903805922286624
10
48.902878032143263
20
7.2903805922286748
42
0.29248421725042767
10
48.448940036503323
20
6.9999999999999529
0
LWPOLYLINE
5
109
100
AcDbEntity
8
0
100
AcDbPolyline
90
24
70
1
43
0.0
10
-123.97163059222889
20
-44.640380592228759
10
-123.97163059222889
20
-44.140380592228752
42
-0.2924842172504219
10
-123.68125000000013
20
-43.68644259658879
10
-123.68125000000013
20
-32.513557403411255
42
-0.29248421725045359
10
-123.97163059222885
20
-32.059619407771329
10
-123.97163059222885
20
-31.559619407771322
42
-0.41421356237284007
10
-123.22163059222881
20
-30.809619407771329
10
-122.72163059222885
20
-30.809619407771294
42
-0.29248421725031798
10
-122.26769259658893
20
-31.100000000000051
10
-108.71355740341136
20
-31.100000000000119
42
-0.29248421725025775
10
-108.25961940777135
20
-30.809619407771386
10
-107.75961940777137
20
-30.809619407771372
42
-0.41421356237307255
10
-107.00961940777135
20
-31.559619407771397
10
-107.00961940777157
20
-32.059619407771365
42
-0.29248421725046864
10
-107.3000000000002
20
-32.513557403411326
10
-107.30000000000021
20
-43.686442596588904
42
-0.29248421725056073
10
-107.00961940777141
20
-44.140380592228851
10
-107.00961940777155
20
-44.64038059222883
42
-0.41421356237303958
10
-107.75961940777158
20
-45.390380592228851
10
-108.25961940777157
20
-45.390380592228858
42
-0.29248421725042384
10
-108.71355740341136
20
-45.100000000000115
10
-122.26769259658893
20
-45.100000000000151
42
-0.29248421725042406
10
-122.72163059222885
20
-45.390380592228851
10
-123.22163059222881
20
-45.390380592228908
42
-0.41421356237291468
0
LWPOLYLINE
5
110
100
AcDbEntity
8
0
100
AcDbPolyline
90
24
70
1
43
0.0
10
-102.24712196785673
20
6.5403805922286828
10
-102.24712196785673
20
6.0403805922286757
42
-0.29248421725034451
10
-102.53750256008544
20
5.5864425965887046
10
-102.53750256008544
20
-5.5864425965887667
42
-0.29248421725040696
10
-102.24712196785673
20
-6.0403805922287646
10
-102.24712196785677
20
-6.5403805922287539
42
-0.41421356237313273
10
-102.99712196785678
20
-7.2903805922287237
10
-103.49712196785677
20
-7.2903805922287521
42
-0.29248421725045215
10
-103.95105996349672
20
-6.999999999999984
10
-115.12394515667431
20
-6.9999999999999609
42
-0.29248421725034401
10
-115.5778831523142
20
-7.2903805922287894
10
-116.07788315231424
20
-7.2903805922286615
42
-0.41421356237309631
10
-116.8278831523142
20
-6.5403805922287006
10
-116.82788315231429
20
-6.0403805922287113
42
-0.29248421725026258
10
-116.5375025600855
20
-5.5864425965887357
10
-116.5375025600855
20
5.5864425965887774
42
-0.29248421725047519
10
-116.8278831523142
20
6.040380592228729
10
-116.82788315231433
20
6.5403805922287184
42
-0.41421356237318346
10
-116.07788315231424
20
7.2903805922287024
10
-115.57788315231413
20
7.2903805922287015
42
-0.29248421725043838
10
-115.12394515667421
20
6.999999999999984
10
-103.95105996349665
20
6.9999999999999751
42
-0.29248421725043783
10
-103.49712196785673
20
7.2903805922286917
10
-102.99712196785671
20
7.2903805922286953
42
-0.41421356237313062
0
LWPOLYLINE
5
111
100
AcDbEntity
8
0
100
AcDbPolyline
90
24
70
1
43
0.0
10
-13.009621967856813
20
11.759619407771218
42
-0.29248421725037715
10
-13.463559963496756
20
12.049999999999947
10
-24.636445156674274
20
12.050000000000018
42
-0.29248421725050844
10
-25.090383152314239
20
11.759619407771227
10
-25.59038315231421
20
11.759619407771311
42
-0.41421356237309076
10
-26.340383152314253
20
12.509619407771275
10
-26.340383152314111
20
13.009619407771249
42
-0.29248421725052781
10
-26.05000256008552
20
13.463557403411226
10
-26.050002560085481
20
24.636442596588779
42
-0.29248421725042745
10
-26.340383152314093
20
25.09038059222874
10
-26.340383152314107
20
25.59038059222874
42
-0.41421356237304474
10
-25.590383152314139
20
26.340380592228737
10
-25.090383152314164
20
26.340380592228712
42
-0.29248421725036777
10
-24.636445156674171
20
26.049999999999969
10
-13.463559963496685
20
26.049999999999915
42
-0.29248421725043489
10
-13.009621967856706
20
26.340380592228669
10
-12.509621967856699
20
26.340380592228641
42
-0.41421356237308204
10
-11.759621967856713
20
25.590380592228641
10
-11.759621967856759
20
25.090380592228669
42
-0.29248421725048518
10
-12.050002560085444
20
24.636442596588711
10
-12.050002560085478
20
13.46355740341119
42
-0.29248421725040646
10
-11.759621967856743
20
13.009619407771233
10
-11.759621967856813
20
12.509619407771186
42
-0.41421356237308032
10
-12.509621967856805
20
11.759619407771227
0
LWPOLYLINE
5
112
100
AcDbEntity
8
0
100
AcDbPolyline
90
8
70
1
43
0.0
10
-63.675000000000153
20
-29.599999999999444
42
-0.41421356237309243
10
-62.675000000000161
20
-30.599999999999451
10
-62.675000000000267
20
-44.099999999999461
42
-0.41421356237310025
10
-63.675000000000296
20
-45.099999999999454
10
-74.437500000000028
20
-45.100000000000229
42
-0.41421356237310281
10
-75.437500000000028
20
-44.100000000000243
10
-75.437500000000028
20
-30.600000000000218
42
-0.41421356237309503
10
-74.437500000000014
20
-29.600000000000239
0
LWPOLYLINE
5
113
100
AcDbEntity
8
0
100
AcDbPolyline
90
24
70
1
43
0.0
10
148.46144003650346
20
-31.100000000000094
42
-0.29248421725060991
10
148.91537803214339
20
-30.809619407771365
10
149.41537803214339
20
-30.809619407771422
42
-0.41421356237316964
10
150.16537803214339
20
-31.559619407771375
10
150.16537803214339
20
-32.059619407771393
42
-0.29248421725040336
10
149.87499743991458
20
-32.513557403411383
10
149.87499743991458
20
-43.68644259658889
42
-0.29248421725036028
10
150.16537803214331
20
-44.140380592228901
10
150.16537803214328
20
-44.64038059222883
42
-0.41421356237311935
10
149.41537803214322
20
-45.390380592228901
10
148.91537803214334
20
-45.390380592228908
42
-0.29248421725031487
10
148.46144003650329
20
-45.100000000000065
10
137.28855484332584
20
-45.100000000000044
42
-0.29248421725047757
10
136.83461684768585
20
-45.390380592228887
10
136.33461684768582
20
-45.390380592228787
42
-0.41421356237309159
10
135.58461684768582
20
-44.640380592228787
10
135.58461684768605
20
-44.140380592228851
42
-0.29248421725050805
10
135.87499743991458
20
-43.686442596588833
10
135.87499743991469
20
-32.513557403411248
42
-0.2924842172504919
10
135.58461684768599
20
-32.059619407771308
10
135.58461684768594
20
-31.559619407771322
42
-0.41421356237307255
10
136.33461684768594
20
-30.809619407771315
10
136.83461684768594
20
-30.809619407771368
42
-0.29248421725041224
10
137.28855484332593
20
-31.100000000000094
0
LWPOLYLINE
5
114
100
AcDbEntity
8
0
100
AcDbPolyline
90
24
70
1
43
0.0
10
-108.25962196785689
20
11.759619407771249
10
-107.75962196785692
20
11.759619407771261
42
0.41421356237308293
10
-107.00962196785689
20
12.509619407771257
10
-107.00962196785684
20
13.009619407771266
42
0.29248421725039286
10
-107.30000256008552
20
13.463557403411226
10
-107.30000256008552
20
24.636442596588715
42
0.29248421725046431
10
-107.00962196785684
20
25.090380592228698
10
-107.00962196785682
20
25.590380592228733
42
0.4142135623730257
10
-107.75962196785677
20
26.34038059222863
10
-108.2596219678568
20
26.340380592228723
42
0.29248421725044621
10
-108.71355996349678
20
26.049999999999986
10
-119.88644515667424
20
26.050000000000018
42
0.2924842172504814
10
-120.34038315231429
20
26.340380592228772
10
-120.84038315231425
20
26.34038059222874
42
0.41421356237303608
10
-121.5903831523142
20
25.590380592228755
10
-121.59038315231419
20
25.090380592228762
42
0.29248421725040658
10
-121.30000256008557
20
24.636442596588829
10
-121.30000256008564
20
13.463557403411237
42
0.29248421725056239
10
-121.5903831523143
20
13.009619407771307
10
-121.59038315231443
20
12.509619407771295
42
0.41421356237310636
10
-120.84038315231432
20
11.759619407771297
10
-120.34038315231442
20
11.759619407771265
42
0.29248421725041224
10
-119.88644515667445
20
12.050000000000018
10
-108.71355996349689
20
12.050000000000022
42
0.29248421725038742
0
LWPOLYLINE
5
115
100
AcDbEntity
8
0
100
AcDbPolyline
90
24
70
1
43
0.0
10
-7.7471219678566783
20
7.2903805922286935
42
-0.4142135623730937
10
-6.9971219678566863
20
6.5403805922287006
10
-6.9971219678566854
20
6.040380592228658
42
-0.2924842172504506
10
-7.2875025600854393
20
5.5864425965886975
10
-7.2875025600854748
20
-5.58644259658882
42
-0.292484217250425
10
-6.9971219678567387
20
-6.0403805922288001
10
-6.9971219678567387
20
-6.5403805922287717
42
-0.41421356237310897
10
-7.7471219678567671
20
-7.2903805922287646
10
-8.2471219678567742
20
-7.2903805922287646
42
-0.29248421725043466
10
-8.7010599634967321
20
-7.0000000000000284
10
-19.873945156674289
20
-7.0000000000000293
42
-0.29248421725046059
10
-20.327883152314232
20
-7.2903805922287628
10
-20.82788315231425
20
-7.2903805922288196
42
-0.41421356237307683
10
-21.577883152314246
20
-6.5403805922287717
10
-21.577883152314246
20
-6.0403805922287468
42
-0.29248421725042117
10
-21.287502560085517
20
-5.5864425965887685
10
-21.287502560085461
20
5.5864425965887268
42
-0.29248421725042406
10
-21.5778831523142
20
6.0403805922287113
10
-21.577883152314232
20
6.5403805922287006
42
-0.41421356237309936
10
-20.827883152314168
20
7.2903805922287024
10
-20.327883152314161
20
7.2903805922286526
42
-0.29248421725044432
10
-19.87394515667421
20
6.9999999999999503
10
-8.7010599634966805
20
6.9999999999999574
42
-0.29248421725043189
10
-8.2471219678567032
20
7.2903805922286757
0
LWPOLYLINE
5
116
100
AcDbEntity
8
0
100
AcDbPolyline
90
32
70
1
43
0.0
10
97.775000000000034
20
32.513557403411241
10
97.775000000000034
20
43.686442596588755
42
-0.29248421725045759
10
97.484619407771362
20
44.140380592228745
10
97.484619407771262
20
44.640380592228787
42
-0.41421356237314705
10
98.234619407771362
20
45.390380592228745
10
98.734619407771362
20
45.390380592228695
42
-0.29248421725064977
10
99.188557403411309
20
45.100000000000016
10
129.41144259658878
20
45.100000000000016
42
-0.29248421725017493
10
129.86538059222877
20
45.39038059222878
10
130.3653805922288
20
45.390380592228787
42
-0.41421356237310197
10
131.11538059222877
20
44.640380592228688
10
131.11538059222866
20
44.140380592228688
42
-0.2924842172503086
10
130.82500000000016
20
43.686442596588726
10
130.82500000000022
20
32.513557403411134
42
-0.29248421725050527
10
131.11538059222877
20
32.059619407771237
10
131.11538059222877
20
31.559619407771233
42
-0.41421356237310375
10
130.36538059222877
20
30.80961940777124
10
130.21860000000007
20
30.80961940777123
10
130.21860000000007
20
30.600000000000147
42
-0.41421356237304563
10
129.21860000000007
20
29.600000000000026
10
123.21860000000008
20
29.600000000000026
42
-0.41421356237305862
10
122.21859999999992
20
30.600000000000165
10
122.21859999999992
20
31.099999999999966
10
106.40609999999997
20
31.100000000000001
10
106.40609999999995
20
30.599999999999969
42
-0.41421356237318085
10
105.40609999999994
20
29.600000000000009
10
99.406100000000066
20
29.599999999999937
42
-0.41421356237310542
10
98.406100000000052
20
30.599999999999952
10
98.406100000000052
20
30.809619407771205
10
98.234619407771291
20
30.809619407771226
42
-0.41421356237311413
10
97.484619407771362
20
31.559619407771269
10
97.484619407771333
20
32.059619407771287
42
-0.29248421725040119
0
LWPOLYLINE
5
117
100
AcDbEntity
8
0
100
AcDbPolyline
90
8
70
1
43
0.0
10
119.83734743991457
20
5.9999999999998721
42
-0.41421356237313894
10
120.83734743991457
20
6.9999999999999147
10
126.83734743991444
20
6.9999999999999654
42
-0.41421356237310253
10
127.83734743991452
20
5.9999999999998543
10
127.83734743991458
20
-7.4999999999999645
42
-0.41421356237312462
10
126.83734743991458
20
-8.5000000000000995
10
120.83734743991457
20
-8.500000000000048
42
-0.41421356237305795
10
119.83734743991441
20
-7.4999999999999112
0
LWPOLYLINE
5
118
100
AcDbEntity
8
0
100
AcDbPolyline
90
24
70
1
43
0.0
10
-34.161445156674191
20
45.099999999999973
10
-22.988559963496691
20
45.099999999999923
42
-0.29248421725062246
10
-22.534621967856712
20
45.390380592228688
10
-22.034621967856705
20
45.39038059222861
42
-0.41421356237313495
10
-21.284621967856722
20
44.640380592228652
10
-21.284621967856765
20
44.140380592228652
42
-0.29248421725046675
10
-21.575002560085426
20
43.686442596588691
10
-21.575002560085483
20
32.513557403411106
42
-0.29248421725043705
10
-21.2846219678568
20
32.05961940777123
10
-21.28462196785684
20
31.559619407771233
42
-0.41421356237310025
10
-22.034621967856808
20
30.809619407771226
10
-22.534621967856804
20
30.809619407771201
42
-0.29248421725038115
10
-22.988559963496733
20
31.099999999999962
10
-34.161445156674297
20
31.099999999999966
42
-0.29248421725046769
10
-34.615383152314237
20
30.809619407771226
10
-35.11538315231423
20
30.809619407771287
42
-0.41421356237311063
10
-35.865383152314251
20
31.559619407771251
10
-35.865383152314116
20
32.059619407771251
42
-0.29248421725048201
10
-35.575002560085565
20
32.513557403411248
10
-35.575002560085451
20
43.686442596588783
42
-0.29248421725038032
10
-35.865383152314109
20
44.140380592228745
10
-35.865383152314138
20
44.640380592228716
42
-0.41421356237311585
10
-35.115383152314131
20
45.390380592228716
10
-34.615383152314173
20
45.390380592228674
42
-0.29248421725044971
0
LWPOLYLINE
5
119
100
AcDbEntity
8
0
100
AcDbPolyline
90
24
70
1
43
0.0
10
-131.11250000000018
20
-43.686442596588869
10
-131.11250000000018
20
-32.513557403411411
42
0.29248421725041768
10
-130.82211940777154
20
-32.059619407771571
10
-130.82211940777142
20
-31.559619407771397
42
0.41421356237311585
10
-131.57211940777137
20
-30.809619407771386
10
-132.07211940777137
20
-30.809619407771372
42
0.29248421725056628
10
-132.52605740341141
20
-31.100000000000119
10
-146.08019259658889
20
-31.099999999999962
42
0.29248421725028978
10
-146.53413059222885
20
-30.809619407771358
10
-147.03413059222882
20
-30.809619407771311
42
0.41421356237311063
10
-147.78413059222882
20
-31.559619407771397
10
-147.78413059222882
20
-32.059619407771372
42
0.29248421725020785
10
-147.49375000000009
20
-32.513557403411262
10
-147.49375000000009
20
-43.686442596588726
42
0.29248421725046719
10
-147.78413059222885
20
-44.140380592228745
10
-147.78413059222885
20
-44.640380592228759
42
0.4142135623731783
10
-147.03413059222882
20
-45.390380592228823
10
-146.53413059222882
20
-45.390380592228752
42
0.29248421725040308
10
-146.080192596589
20
-45.100000000000115
10
-132.52605740341147
20
-45.100000000000051
42
0.29248421725049506
10
-132.07211940777157
20
-45.390380592228745
10
-131.57211940777162
20
-45.390380592228816
42
0.41421356237306733
10
-130.82211940777159
20
-44.640380592228716
10
-130.82211940777125
20
-44.140380592228745
42
0.29248421725055074
0
LWPOLYLINE
5
120
100
AcDbEntity
8
0
100
AcDbPolyline
90
24
70
1
43
0.0
10
-83.487500000000082
20
-43.686442596588897
10
-83.487500000000125
20
-32.513557403411326
42
0.29248421725051038
10
-83.197119407771552
20
-32.059619407771365
10
-83.197119407771311
20
-31.559619407771397
42
0.41421356237312101
10
-83.947119407771268
20
-30.80961940777155
10
-84.447119407771311
20
-30.809619407771372
42
0.29248421725065471
10
-84.901057403411343
20
-31.100000000000119
10
-98.45519259658893
20
-31.100000000000065
42
0.29248421725021329
10
-98.909130592228806
20
-30.809619407771329
10
-99.409130592228792
20
-30.809619407771336
42
0.4142135623730569
10
-100.15913059222881
20
-31.559619407771322
10
-100.15913059222889
20
-32.059619407771336
42
0.2924842172505146
10
-99.868750000000091
20
-32.513557403411248
10
-99.868750000000134
20
-43.686442596588726
42
0.29248421725050938
10
-100.15913059222881
20
-44.140380592228745
10
-100.15913059222885
20
-44.640380592228759
42
0.41421356237312279
10
-99.409130592228863
20
-45.390380592228858
10
-98.909130592228806
20
-45.390380592228745
42
0.29248421725031015
10
-98.45519259658893
20
-45.100000000000186
10
-84.901057403411343
20
-45.100000000000115
42
0.29248421725043938
10
-84.447119407771595
20
-45.390380592228745
10
-83.947119407771623
20
-45.390380592228823
42
0.41421356237303958
10
-83.197119407771524
20
-44.64038059222883
10
-83.197119407771282
20
-44.140380592228816
42
0.2924842172503021
0
LWPOLYLINE
5
121
100
AcDbEntity
8
0
100
AcDbPolyline
90
8
70
1
43
0.0
10
-115.05015256008551
20
-26.549999999999891
42
-0.41421356237308721
10
-116.05015256008556
20
-27.550000000000018
10
-122.05015256008551
20
-27.549999999999962
42
-0.41421356237305473
10
-123.05015256008573
20
-26.549999999999837
10
-123.05015256008561
20
-13.050000000000059
42
-0.41421356237309698
10
-122.05015256008551
20
-12.049999999999983
10
-116.05015256008564
20
-12.049999999999947
42
-0.41421356237310281
10
-115.05015256008562
20
-13.050000000000059
0
LWPOLYLINE
5
122
100
AcDbEntity
8
0
100
AcDbPolyline
90
8
70
1
43
0.0
10
-59.675000000000324
20
-37.600000000000072
42
-0.41421356237310414
10
-58.675000000000317
20
-36.600000000000072
10
-32.431250000000055
20
-36.600000000000072
42
-0.41421356237309892
10
-31.431250000000052
20
-37.600000000000072
10
-31.431250000000052
20
-38.600000000000051
42
-0.41421356237308982
10
-32.431250000000055
20
-39.600000000000072
10
-58.675000000000338
20
-39.600000000000072
42
-0.41421356237310153
10
-59.675000000000296
20
-38.600000000000072
0
LWPOLYLINE
5
123
100
AcDbEntity
8
0
100
AcDbPolyline
90
8
70
1
43
0.0
10
0.47499999999979342
20
-37.600000000000072
10
0.47499999999979364
20
-38.600000000000051
42
0.41421356237309354
10
1.4749999999997931
20
-39.600000000000072
10
20.575000000000014
20
-39.600000000000072
42
0.41421356237308982
10
21.575000000000017
20
-38.600000000000051
10
21.575000000000017
20
-37.600000000000072
42
0.41421356237308982
10
20.575000000000014
20
-36.600000000000072
10
1.4749999999997956
20
-36.600000000000072
42
0.41421356237309059
0
LWPOLYLINE
5
124
100
AcDbEntity
8
0
100
AcDbPolyline
90
24
70
1
43
0.0
10
-144.65288315231425
20
11.759619407771185
42
-0.41421356237307855
10
-145.40288315231433
20
12.509619407771295
10
-145.40288315231433
20
13.009619407771304
42
-0.29248421725053564
10
-145.11250256008543
20
13.463557403411244
10
-145.11250256008543
20
24.636442596588807
42
-0.29248421725042284
10
-145.40288315231433
20
25.090380592228762
10
-145.40288315231425
20
25.590380592228755
42
-0.41421356237307078
10
-144.65288315231416
20
26.340380592228748
10
-144.15288315231425
20
26.340380592228769
42
-0.29248421725047347
10
-143.69894515667411
20
26.050000000000008
10
-132.52605996349669
20
26.050000000000004
42
-0.29248421725038187
10
-132.0721219678567
20
26.340380592228772
10
-131.57212196785673
20
26.340380592228772
42
-0.41421356237306384
10
-130.8221219678567
20
25.590380592228733
10
-130.8221219678567
20
25.090380592228698
42
-0.29248421725041179
10
-131.11250256008549
20
24.636442596588711
10
-131.11250256008563
20
13.463557403411194
42
-0.29248421725039825
10
-130.82212196785679
20
13.009619407771249
10
-130.8221219678567
20
12.509619407771257
42
-0.41421356237309853
10
-131.57212196785682
20
11.759619407771245
10
-132.0721219678569
20
11.759619407771215
42
-0.29248421725053253
10
-132.52605996349686
20
12.04999999999993
10
-143.69894515667434
20
12.05000000000004
42
-0.29248421725038959
10
-144.15288315231433
20
11.759619407771266
0
LWPOLYLINE
5
125
100
AcDbEntity
8
0
100
AcDbPolyline
90
24
70
1
43
0.0
10
-69.202883152314257
20
-12.509619407771275
10
-69.202883152314158
20
-13.009619407771266
42
0.2924842172504718
10
-68.912502560085471
20
-13.463557403411253
10
-68.9125025600855
20
-24.636442596588761
42
0.29248421725048068
10
-69.202883152314229
20
-25.09038059222874
10
-69.202883152314257
20
-25.590380592228733
42
0.41421356237310897
10
-68.452883152314172
20
-26.340380592228808
10
-67.952883152314243
20
-26.340380592228762
42
0.292484217250425
10
-67.498945156674282
20
-26.050000000000026
10
-56.326059963496718
20
-26.050000000000022
42
0.29248421725042356
10
-55.872121967856799
20
-26.340380592228811
10
-55.37212196785682
20
-26.340380592228758
42
0.41421356237307422
10
-54.622121967856721
20
-25.590380592228765
10
-54.622121967856685
20
-25.090380592228811
42
0.29248421725047458
10
-54.9125025600855
20
-24.636442596588765
10
-54.912502560085422
20
-13.463557403411313
42
0.29248421725050999
10
-54.622121967856721
20
-13.009619407771353
10
-54.622121967856685
20
-12.509619407771329
42
0.41421356237308377
10
-55.372121967856671
20
-11.75961940777132
10
-55.872121967856685
20
-11.759619407771261
42
0.292484217250432
10
-56.326059963496647
20
-12.050000000000038
10
-67.49894515667421
20
-12.050000000000038
42
0.29248421725048013
10
-67.952883152314115
20
-11.759619407771339
10
-68.452883152314115
20
-11.759619407771273
42
0.41421356237311585
0
LWPOLYLINE
5
126
100
AcDbEntity
8
0
100
AcDbPolyline
90
24
70
1
43
0.0
10
111.31537803214336
20
-30.809619407771386
10
110.81537803214331
20
-30.809619407771436
42
0.29248421725050555
10
110.36144003650335
20
-31.100000000000072
10
99.188554843325903
20
-31.100000000000104
42
0.29248421725057627
10
98.734616847685857
20
-30.809619407771372
10
98.234616847685885
20
-30.809619407771361
42
0.41421356237310375
10
97.484616847685871
20
-31.559619407771322
10
97.484616847685857
20
-32.059619407771351
42
0.29248421725029367
10
97.774997439914571
20
-32.513557403411298
10
97.7749974399145
20
-43.686442596588833
42
0.29248421725046381
10
97.484616847685871
20
-44.140380592228787
10
97.484616847685857
20
-44.640380592228823
42
0.41421356237307771
10
98.234616847685814
20
-45.390380592228901
10
98.734616847685857
20
-45.390380592228858
42
0.292484217250358
10
99.188554843325903
20
-45.100000000000115
10
110.36144003650335
20
-45.100000000000115
42
0.29248421725044094
10
110.81537803214331
20
-45.390380592228858
10
111.31537803214329
20
-45.390380592228823
42
0.41421356237307422
10
112.06537803214331
20
-44.64038059222888
10
112.0653780321433
20
-44.140380592228901
42
0.292484217250433
10
111.7749974399146
20
-43.686442596588869
10
111.7749974399146
20
-32.513557403411333
42
0.29248421725044793
10
112.06537803214331
20
-32.059619407771393
10
112.0653780321433
20
-31.559619407771375
42
0.41421356237311413
0
LWPOLYLINE
5
127
100
AcDbEntity
8
0
100
AcDbPolyline
90
24
70
1
43
0.0
10
-81.786445156674304
20
12.050000000000018
10
-70.613559963496826
20
12.049999999999965
42
0.29248421725039286
10
-70.15962196785685
20
11.759619407771273
10
-69.65962196785685
20
11.759619407771215
42
0.41421356237307683
10
-68.90962196785685
20
12.509619407771206
10
-68.909621967856737
20
13.009619407771249
42
0.29248421725039492
10
-69.200002560085579
20
13.463557403411199
10
-69.20000256008548
20
24.636442596588729
42
0.29248421725048579
10
-68.909621967856822
20
25.090380592228698
10
-68.909621967856779
20
25.590380592228659
42
0.41421356237312978
10
-69.659621967856751
20
26.340380592228641
10
-70.159621967856737
20
26.340380592228698
42
0.2924842172504708
10
-70.613559963496726
20
26.049999999999933
10
-81.786445156674176
20
26.050000000000004
42
0.29248421725033658
10
-82.240383152314223
20
26.340380592228755
10
-82.740383152314209
20
26.34038059222879
42
0.41421356237307599
10
-83.49038315231418
20
25.590380592228755
10
-83.490383152314223
20
25.090380592228762
42
0.29248421725046803
10
-83.200002560085551
20
24.636442596588779
10
-83.200002560085551
20
13.463557403411279
42
0.29248421725053714
10
-83.49038315231418
20
13.009619407771304
10
-83.49038315231428
20
12.509619407771295
42
0.41421356237308898
10
-82.740383152314294
20
11.759619407771316
10
-82.24038315231428
20
11.759619407771245
42
0.29248421725047685
0
LWPOLYLINE
5
128
100
AcDbEntity
8
0
100
AcDbPolyline
90
24
70
1
43
0.0
10
45.390378032143317
20
13.009619407771229
42
0.29248421725043083
10
45.099997439914581
20
13.46355740341119
10
45.099997439914581
20
24.636442596588715
42
0.29248421725049056
10
45.390378032143289
20
25.090380592228669
10
45.390378032143381
20
25.590380592228641
42
0.41421356237306556
10
44.640378032143317
20
26.340380592228669
10
44.140378032143332
20
26.340380592228708
42
0.29248421725050916
10
43.68644003650337
20
26.049999999999933
10
32.513554843325899
20
26.049999999999986
42
0.29248421725038237
10
32.059616847685888
20
26.340380592228723
10
31.559616847685898
20
26.340380592228737
42
0.41421356237307944
10
30.809616847685906
20
25.59038059222874
10
30.809616847685923
20
25.09038059222874
42
0.29248421725044432
10
31.099997439914588
20
24.636442596588772
10
31.099997439914496
20
13.463557403411228
42
0.29248421725053581
10
30.809616847685906
20
13.009619407771249
10
30.809616847685799
20
12.509619407771275
42
0.41421356237307511
10
31.559616847685774
20
11.759619407771268
10
32.059616847685803
20
11.759619407771227
42
0.29248421725052265
10
32.513554843325792
20
12.050000000000001
10
43.686440036503299
20
12.049999999999983
42
0.29248421725037066
10
44.140378032143204
20
11.759619407771233
10
44.640378032143239
20
11.759619407771197
42
0.41421356237305518
10
45.390378032143218
20
12.509619407771186
0
LWPOLYLINE
5
129
100
AcDbEntity
8
0
100
AcDbPolyline
90
24
70
1
43
0.0
10
65.851054843325798
20
-26.050000000000043
42
-0.29248421725042151
10
65.39711684768578
20
-26.340380592228776
10
64.897116847685794
20
-26.340380592228829
42
-0.41421356237307599
10
64.14711684768578
20
-25.590380592228751
10
64.14711684768578
20
-25.09038059222874
42
-0.29248421725046964
10
64.437497439914594
20
-24.636442596588772
10
64.437497439914608
20
-13.463557403411253
42
-0.29248421725051965
10
64.147116847685894
20
-13.009619407771282
10
64.147116847685837
20
-12.509619407771295
42
-0.41421356237311674
10
64.897116847685865
20
-11.759619407771281
10
65.397116847685908
20
-11.759619407771279
42
-0.29248421725040491
10
65.851054843325841
20
-12.050000000000054
10
77.023940036503376
20
-12.050000000000045
42
-0.29248421725054713
10
77.477878032143337
20
-11.759619407771339
10
77.977878032143323
20
-11.759619407771346
42
-0.41421356237311502
10
78.727878032143337
20
-12.509619407771382
10
78.727878032143337
20
-13.009619407771373
42
-0.2924842172504688
10
78.437497439914594
20
-13.463557403411336
10
78.437497439914537
20
-24.63644259658885
42
-0.29248421725041951
10
78.727878032143295
20
-25.090380592228826
10
78.727878032143323
20
-25.590380592228854
42
-0.41421356237311241
10
77.977878032143266
20
-26.340380592228829
10
77.477878032143224
20
-26.340380592228847
42
-0.29248421725048385
10
77.023940036503262
20
-26.050000000000075
0
LWPOLYLINE
5
130
100
AcDbEntity
8
0
100
AcDbPolyline
90
24
70
1
43
0.0
10
112.06249743991457
20
13.463557403411198
10
112.06249743991464
20
24.63644259658874
42
-0.29248421725043128
10
111.77211684768587
20
25.090380592228691
10
111.77211684768587
20
25.590380592228694
42
-0.41421356237309503
10
112.52211684768594
20
26.340380592228652
10
113.02211684768587
20
26.340380592228698
42
-0.29248421725045465
10
113.47605484332584
20
26.049999999999901
10
124.64894003650343
20
26.049999999999894
42
-0.29248421725039914
10
125.10287803214341
20
26.340380592228602
10
125.60287803214337
20
26.340380592228684
42
-0.41421356237315576
10
126.35287803214341
20
25.590380592228588
10
126.35287803214341
20
25.090380592228602
42
-0.29248421725044216
10
126.06249743991469
20
24.636442596588655
10
126.06249743991457
20
13.463557403411102
42
-0.29248421725044732
10
126.35287803214332
20
13.009619407771144
10
126.35287803214341
20
12.509619407771169
42
-0.41421356237308637
10
125.60287803214322
20
11.759619407771213
10
125.10287803214341
20
11.759619407771222
42
-0.29248421725047458
10
124.64894003650332
20
12.049999999999928
10
113.47605484332584
20
12.049999999999931
42
-0.29248421725041779
10
113.02211684768587
20
11.759619407771227
10
112.52211684768588
20
11.759619407771213
42
-0.41421356237305257
10
111.77211684768579
20
12.509619407771222
10
111.77211684768579
20
13.009619407771213
42
-0.29248421725045554
0
LWPOLYLINE
5
131
100
AcDbEntity
8
0
100
AcDbPolyline
90
24
70
1
43
0.0
10
-30.809621967856771
20
25.090380592228669
10
-30.809621967856717
20
25.590380592228641
42
0.41421356237310197
10
-31.559621967856721
20
26.340380592228616
10
-32.059621967856714
20
26.340380592228669
42
0.29248421725048263
10
-32.513559963496704
20
26.049999999999951
10
-43.686445156674189
20
26.049999999999972
42
0.29248421725050167
10
-44.140383152314186
20
26.340380592228687
10
-44.640383152314158
20
26.34038059222874
42
0.41421356237304652
10
-45.390383152314143
20
25.59038059222874
10
-45.390383152314129
20
25.090380592228762
42
0.29248421725038065
10
-45.100002560085457
20
24.636442596588811
10
-45.100002560085571
20
13.463557403411226
42
0.29248421725053253
10
-45.390383152314129
20
13.009619407771249
10
-45.390383152314264
20
12.509619407771275
42
0.41421356237309159
10
-44.640383152314271
20
11.759619407771256
10
-44.140383152314264
20
11.759619407771218
42
0.29248421725042045
10
-43.68644515667431
20
12.05000000000001
10
-32.513559963496768
20
12.049999999999947
42
0.29248421725041202
10
-32.059621967856806
20
11.759619407771227
10
-31.559621967856827
20
11.759619407771218
42
0.41421356237307339
10
-30.809621967856824
20
12.509619407771186
10
-30.809621967856735
20
13.009619407771233
42
0.29248421725044588
10
-31.10000256008551
20
13.46355740341118
10
-31.100002560085453
20
24.636442596588711
42
0.29248421725048984
0
LWPOLYLINE
5
132
100
AcDbEntity
8
0
100
AcDbPolyline
90
24
70
1
43
0.0
10
-138.25913315231423
20
-13.009619407771249
42
0.29248421725046697
10
-137.96875256008559
20
-13.463557403411262
10
-137.96875256008559
20
-24.636442596588761
42
0.2924842172503978
10
-138.25913315231429
20
-25.090380592228705
10
-138.25913315231423
20
-25.590380592228733
42
0.41421356237309681
10
-137.50913315231432
20
-26.340380592228811
10
-137.00913315231423
20
-26.340380592228744
42
0.29248421725044055
10
-136.55519515667424
20
-26.050000000000026
10
-125.38230996349684
20
-26.050000000000008
42
0.29248421725047469
10
-124.92837196785686
20
-26.340380592228772
10
-124.42837196785682
20
-26.340380592228755
42
0.41421356237307944
10
-123.67837196785686
20
-25.590380592228765
10
-123.67837196785686
20
-25.090380592228762
42
0.29248421725056023
10
-123.96875256008543
20
-24.636442596588868
10
-123.96875256008543
20
-13.463557403411279
42
0.29248421725035129
10
-123.67837196785689
20
-13.009619407771318
10
-123.67837196785689
20
-12.509619407771313
42
0.41421356237309592
10
-124.42837196785682
20
-11.759619407771176
10
-124.92837196785686
20
-11.759619407771227
42
0.29248421725023849
10
-125.38230996349681
20
-12.049999999999994
10
-136.5551951566743
20
-12.049999999999969
42
0.29248421725064666
10
-137.00913315231423
20
-11.759619407771307
10
-137.50913315231426
20
-11.759619407771254
42
0.41421356237311324
10
-138.25913315231435
20
-12.50961940777124
0
LWPOLYLINE
5
133
100
AcDbEntity
8
0
100
AcDbPolyline
90
24
70
1
43
0.0
10
7.2903780321431908
20
12.509619407771186
10
7.2903780321432876
20
13.009619407771229
42
0.29248421725038432
10
6.9999974399145355
20
13.46355740341118
10
6.9999974399145888
20
24.636442596588711
42
0.2924842172504814
10
7.2903780321432574
20
25.090380592228669
10
7.2903780321433187
20
25.590380592228641
42
0.41421356237310542
10
6.5403780321433125
20
26.340380592228602
10
6.0403780321433151
20
26.340380592228705
42
0.29248421725048601
10
5.5864400365033209
20
26.049999999999933
10
-5.5864451566741371
20
26.049999999999969
42
0.2924842172504114
10
-6.0403831523141527
20
26.340380592228712
10
-6.5403831523141154
20
26.34038059222874
42
0.41421356237306473
10
-7.2903831523141172
20
25.59038059222874
10
-7.2903831523140958
20
25.09038059222874
42
0.29248421725042456
10
-7.0000025600854521
20
24.636442596588772
10
-7.0000025600855338
20
13.463557403411226
42
0.29248421725054974
10
-7.2903831523141172
20
13.009619407771249
10
-7.2903831523142246
20
12.509619407771275
42
0.41421356237307644
10
-6.5403831523142308
20
11.759619407771297
10
-6.0403831523142237
20
11.759619407771227
42
0.29248421725051432
10
-5.5864451566742526
20
12.049999999999983
10
5.5864400365032827
20
12.049999999999983
42
0.29248421725037499
10
6.0403780321431988
20
11.759619407771227
10
6.5403780321432148
20
11.759619407771229
42
0.41421356237308815
0
LWPOLYLINE
5
134
100
AcDbEntity
8
0
100
AcDbPolyline
90
24
70
1
43
0.0
10
117.78461684768594
20
-11.759619407771357
42
-0.29248421725042345
10
118.2385548433259
20
-12.050000000000081
10
129.41144003650345
20
-12.050000000000054
42
-0.29248421725051205
10
129.86537803214338
20
-11.759619407771408
10
130.36537803214338
20
-11.759619407771391
42
-0.41421356237307422
10
131.1153780321433
20
-12.509619407771401
10
131.11537803214338
20
-13.009619407771389
42
-0.2924842172503867
10
130.82499743991465
20
-13.463557403411359
10
130.82499743991465
20
-24.63644259658885
42
-0.29248421725028062
10
131.11537803214335
20
-25.090380592228851
10
131.11537803214335
20
-25.590380592228854
42
-0.41421356237309853
10
130.3653780321433
20
-26.340380592228819
10
129.8653780321433
20
-26.340380592228851
42
-0.29248421725051732
10
129.41144003650328
20
-26.050000000000118
10
118.23855484332584
20
-26.05000000000009
42
-0.29248421725048468
10
117.78461684768587
20
-26.340380592228851
10
117.28461684768592
20
-26.340380592228854
42
-0.41421356237304996
10
116.53461684768587
20
-25.590380592228801
10
116.53461684768587
20
-25.090380592228797
42
-0.29248421725043489
10
116.82499743991457
20
-24.636442596588783
10
116.82499743991464
20
-13.463557403411306
42
-0.29248421725044071
10
116.53461684768587
20
-13.009619407771304
10
116.53461684768587
20
-12.509619407771313
42
-0.41421356237320167
10
117.28461684768592
20
-11.759619407771369
0
LWPOLYLINE
5
135
100
AcDbEntity
8
0
100
AcDbPolyline
90
24
70
1
43
0.0
10
-57.973945156674191
20
6.9999999999999574
10
-46.801059963496598
20
6.9999999999999565
42
-0.29248421725042673
10
-46.347121967856665
20
7.2903805922286535
10
-45.847121967856701
20
7.2903805922286793
42
-0.41421356237312068
10
-45.097121967856665
20
6.5403805922286828
10
-45.097121967856694
20
6.0403805922286589
42
-0.29248421725041512
10
-45.387502560085437
20
5.5864425965886975
10
-45.387502560085466
20
-5.5864425965888387
42
-0.29248421725046225
10
-45.097121967856744
20
-6.0403805922288001
10
-45.097121967856744
20
-6.5403805922287717
42
-0.41421356237307511
10
-45.847121967856772
20
-7.2903805922287868
10
-46.347121967856779
20
-7.2903805922287868
42
-0.29248421725036017
10
-46.801059963496733
20
-7.0000000000000417
10
-57.973945156674283
20
-7.0000000000000062
42
-0.29248421725040957
10
-58.427883152314223
20
-7.2903805922287592
10
-58.927883152314216
20
-7.2903805922287921
42
-0.4142135623730816
10
-59.677883152314223
20
-6.5403805922287006
10
-59.677883152314202
20
-6.0403805922287113
42
-0.29248421725042995
10
-59.387502560085501
20
-5.5864425965887516
10
-59.387502560085466
20
5.586442596588741
42
-0.2924842172503937
10
-59.677883152314173
20
6.0403805922287299
10
-59.677883152314202
20
6.5403805922287184
42
-0.41421356237311324
10
-58.927883152314173
20
7.2903805922287388
10
-58.427883152314152
20
7.2903805922287024
42
-0.29248421725035562
0
LWPOLYLINE
5
136
100
AcDbEntity
8
0
100
AcDbPolyline
90
24
70
1
43
0.0
10
-136.33462196785689
20
30.80961940777129
10
-136.83462196785689
20
30.809619407771301
42
-0.2924842172504144
10
-137.28855996349688
20
31.100000000000026
10
-148.4614451566743
20
31.100000000000023
42
-0.29248421725040419
10
-148.91538315231432
20
30.809619407771187
10
-149.41538315231429
20
30.809619407771351
42
-0.41421356237315576
10
-150.16538315231432
20
31.559619407771287
10
-150.16538315231418
20
32.059619407771287
42
-0.29248421725046936
10
-149.87500256008562
20
32.513557403411248
10
-149.87500256008559
20
43.686442596588833
42
-0.29248421725026641
10
-150.16538315231418
20
44.140380592228745
10
-150.16538315231418
20
44.640380592228787
42
-0.41421356237304996
10
-149.41538315231423
20
45.390380592228787
10
-148.91538315231423
20
45.390380592228709
42
-0.29248421725048179
10
-148.46144515667424
20
45.100000000000016
10
-137.28855996349688
20
45.099999999999923
42
-0.29248421725033297
10
-136.83462196785683
20
45.390380592228709
10
-136.33462196785678
20
45.39038059222861
42
-0.41421356237308116
10
-135.58462196785683
20
44.640380592228688
10
-135.58462196785678
20
44.140380592228652
42
-0.2924842172506022
10
-135.87500256008559
20
43.686442596588712
10
-135.87500256008556
20
32.513557403411184
42
-0.29248421725043228
10
-135.58462196785692
20
32.05961940777123
10
-135.58462196785689
20
31.559619407771233
42
-0.41421356237310375
0
LWPOLYLINE
5
137
100
AcDbEntity
8
0
100
AcDbPolyline
90
24
70
1
43
0.0
10
-2.5250025600854693
20
32.513557403411085
42
-0.29248421725041779
10
-2.2346219678567776
20
32.059619407771208
10
-2.234621967856842
20
31.559619407771233
42
-0.41421356237306384
10
-2.9846219678567816
20
30.809619407771205
10
-3.4846219678568069
20
30.809619407771226
42
-0.29248421725037416
10
-3.9385599634967172
20
31.099999999999962
10
-15.111445156674248
20
31.099999999999966
42
-0.2924842172504607
10
-15.565383152314228
20
30.809619407771226
10
-16.065383152314233
20
30.80961940777129
42
-0.41421356237306556
10
-16.815383152314226
20
31.559619407771251
10
-16.815383152314123
20
32.059619407771251
42
-0.29248421725049539
10
-16.525002560085532
20
32.51355740341122
10
-16.525002560085458
20
43.686442596588819
42
-0.29248421725037538
10
-16.815383152314112
20
44.140380592228745
10
-16.815383152314123
20
44.640380592228716
42
-0.41421356237309853
10
-16.06538315231413
20
45.390380592228716
10
-15.565383152314158
20
45.390380592228674
42
-0.29248421725037632
10
-15.111445156674144
20
45.099999999999987
10
-3.9385599634967035
20
45.099999999999937
42
-0.29248421725044144
10
-3.4846219678566825
20
45.390380592228681
10
-2.9846219678566754
20
45.39038059222861
42
-0.41421356237315748
10
-2.2346219678567367
20
44.640380592228652
10
-2.234621967856758
20
44.14038059222861
42
-0.29248421725052182
10
-2.5250025600854094
20
43.686442596588691
0
LWPOLYLINE
5
138
100
AcDbEntity
8
0
100
AcDbPolyline
90
24
70
1
43
0.0
10
135.87499743991472
20
-13.463557403411308
10
135.87499743991461
20
-24.636442596588815
42
0.29248421725065993
10
135.58461684768599
20
-25.090380592228797
10
135.58461684768588
20
-25.590380592228765
42
0.414213562373069
10
136.33461684768585
20
-26.340380592228737
10
136.83461684768585
20
-26.340380592228843
42
0.29248421725040852
10
137.28855484332584
20
-26.050000000000058
10
148.46144003650329
20
-26.050000000000047
42
0.29248421725030149
10
148.91537803214334
20
-26.340380592228918
10
149.41537803214322
20
-26.340380592228847
42
0.41421356237308116
10
150.16537803214322
20
-25.590380592228854
10
150.16537803214334
20
-25.090380592228851
42
0.29248421725053941
10
149.87499743991458
20
-24.636442596588893
10
149.87499743991458
20
-13.463557403411359
42
0.29248421725041779
10
150.16537803214339
20
-13.009619407771389
10
150.16537803214339
20
-12.509619407771401
42
0.41421356237306123
10
149.41537803214339
20
-11.759619407771408
10
148.91537803214339
20
-11.759619407771407
42
0.29248421725060036
10
148.46144003650346
20
-12.050000000000054
10
137.28855484332598
20
-12.050000000000072
42
0.2924842172502834
10
136.83461684768594
20
-11.759619407771307
10
136.33461684768594
20
-11.759619407771307
42
0.41421356237307255
10
135.58461684768594
20
-12.509619407771313
10
135.58461684768599
20
-13.009619407771307
42
0.29248421725023821
0
LWPOLYLINE
5
139
100
AcDbEntity
8
0
100
AcDbPolyline
90
24
70
1
43
0.0
10
50.609616847685786
20
11.759619407771273
42
-0.41421356237307771
10
49.859616847685828
20
12.509619407771275
10
49.859616847685899
20
13.009619407771249
42
-0.29248421725049578
10
50.149997439914529
20
13.463557403411226
10
50.1499974399146
20
24.636442596588772
42
-0.29248421725038343
10
49.859616847685977
20
25.090380592228705
10
49.859616847685899
20
25.59038059222874
42
-0.41421356237303092
10
50.609616847685913
20
26.340380592228748
10
51.109616847685899
20
26.340380592228758
42
-0.29248421725042356
10
51.563554843325903
20
26.049999999999986
10
62.736440036503367
20
26.04999999999993
42
-0.29248421725053109
10
63.190378032143364
20
26.340380592228705
10
63.690378032143329
20
26.340380592228616
42
-0.41421356237304996
10
64.440378032143343
20
25.590380592228712
10
64.440378032143357
20
25.090380592228698
42
-0.2924842172504501
10
64.149997439914614
20
24.636442596588711
10
64.149997439914586
20
13.463557403411158
42
-0.29248421725038898
10
64.440378032143329
20
13.009619407771233
10
64.440378032143286
20
12.509619407771186
42
-0.41421356237305429
10
63.690378032143258
20
11.759619407771227
10
63.190378032143222
20
11.759619407771238
42
-0.29248421725041285
10
62.736440036503325
20
12.049999999999965
10
51.563554843325797
20
12.049999999999947
42
-0.29248421725052798
10
51.109616847685828
20
11.759619407771208
0
LWPOLYLINE
5
140
100
AcDbEntity
8
0
100
AcDbPolyline
90
24
70
1
43
0.0
10
-78.725002560085571
20
32.513557403411177
42
-0.2924842172503867
10
-78.434621967856813
20
32.059619407771223
10
-78.43462196785687
20
31.559619407771233
42
-0.41421356237301354
10
-79.184621967856813
20
30.809619407771226
10
-79.684621967856813
20
30.809619407771223
42
-0.29248421725043189
10
-80.138559963496817
20
31.100000000000012
10
-91.311445156674381
20
31.100000000000009
42
-0.29248421725041829
10
-91.765383152314314
20
30.80961940777124
10
-92.2653831523143
20
30.809619407771276
42
-0.41421356237301177
10
-93.015383152314342
20
31.559619407771287
10
-93.015383152314243
20
32.059619407771287
42
-0.29248421725053014
10
-92.725002560085571
20
32.513557403411269
10
-92.725002560085485
20
43.686442596588869
42
-0.2924842172503539
10
-93.0153831523142
20
44.140380592228709
10
-93.015383152314229
20
44.640380592228787
42
-0.4142135623730569
10
-92.265383152314214
20
45.390380592228745
10
-91.7653831523142
20
45.390380592228688
42
-0.29248421725040841
10
-91.31144515667421
20
45.099999999999937
10
-80.138559963496746
20
45.099999999999923
42
-0.29248421725038082
10
-79.6846219678567
20
45.390380592228681
10
-79.1846219678567
20
45.390380592228617
42
-0.41421356237314017
10
-78.434621967856728
20
44.640380592228652
10
-78.434621967856771
20
44.140380592228652
42
-0.29248421725041912
10
-78.725002560085443
20
43.686442596588712
0
LWPOLYLINE
5
141
100
AcDbEntity
8
0
100
AcDbPolyline
90
24
70
1
43
0.0
10
-97.484621967856782
20
44.640380592228688
42
0.41421356237316442
10
-98.234621967856782
20
45.390380592228652
10
-98.734621967856796
20
45.390380592228652
42
0.29248421725064411
10
-99.1885599634968
20
45.099999999999937
10
-110.36144515667422
20
45.100000000000009
42
0.29248421725046708
10
-110.81538315231421
20
45.390380592228716
10
-111.31538315231424
20
45.390380592228759
42
0.41421356237308116
10
-112.06538315231428
20
44.640380592228787
10
-112.06538315231424
20
44.140380592228716
42
0.29248421725028267
10
-111.77500256008557
20
43.68644259658879
10
-111.77500256008571
20
32.513557403411248
42
0.2924842172504995
10
-112.06538315231425
20
32.059619407771287
10
-112.06538315231428
20
31.559619407771287
42
0.41421356237314017
10
-111.31538315231433
20
30.809619407771322
10
-110.81538315231434
20
30.809619407771311
42
0.29248421725047213
10
-110.36144515667438
20
31.100000000000001
10
-99.188559963496829
20
31.099999999999994
42
0.29248421725045176
10
-98.734621967856839
20
30.809619407771311
10
-98.234621967856839
20
30.80961940777124
42
0.41421356237309503
10
-97.484621967856938
20
31.559619407771251
10
-97.484621967856796
20
32.05961940777123
42
0.29248421725032525
10
-97.775002560085582
20
32.513557403411212
10
-97.775002560085497
20
43.686442596588712
42
0.2924842172504829
10
-97.484621967856796
20
44.140380592228652
0
LWPOLYLINE
5
142
100
AcDbEntity
8
0
100
AcDbPolyline
90
24
70
1
43
0.0
10
24.636440036503306
20
12.049999999999944
42
0.29248421725038309
10
25.09037803214321
20
11.759619407771227
10
25.590378032143207
20
11.759619407771201
42
0.41421356237308377
10
26.340378032143192
20
12.509619407771186
10
26.340378032143278
20
13.009619407771229
42
0.29248421725035417
10
26.049997439914566
20
13.463557403411164
10
26.049997439914602
20
24.636442596588708
42
0.29248421725048335
10
26.340378032143281
20
25.090380592228669
10
26.340378032143331
20
25.590380592228641
42
0.41421356237308815
10
25.590378032143345
20
26.340380592228616
10
25.09037803214332
20
26.340380592228705
42
0.29248421725046142
10
24.636440036503373
20
26.049999999999933
10
13.463554843325856
20
26.049999999999986
42
0.2924842172503978
10
13.009616847685876
20
26.340380592228712
10
12.509616847685905
20
26.340380592228737
42
0.41421356237311063
10
11.759616847685876
20
25.590380592228712
10
11.759616847685914
20
25.090380592228737
42
0.29248421725039442
10
12.049997439914577
20
24.636442596588761
10
12.049997439914486
20
13.463557403411212
42
0.29248421725053841
10
11.759616847685914
20
13.009619407771249
10
11.759616847685786
20
12.509619407771275
42
0.41421356237307078
10
12.509616847685766
20
11.759619407771284
10
13.009616847685788
20
11.759619407771225
42
0.29248421725049156
10
13.463554843325751
20
12.050000000000004
0
LWPOLYLINE
5
143
100
AcDbEntity
8
0
100
AcDbPolyline
90
24
70
1
43
0.0
10
-72.261445156674299
20
31.100000000000001
42
-0.29248421725048507
10
-72.71538315231426
20
30.809619407771251
10
-73.215383152314203
20
30.809619407771294
42
-0.41421356237309853
10
-73.96538315231426
20
31.559619407771287
10
-73.965383152314146
20
32.059619407771251
42
-0.29248421725054397
10
-73.675002560085559
20
32.51355740341122
10
-73.675002560085474
20
43.686442596588783
42
-0.29248421725046853
10
-73.965383152314089
20
44.140380592228716
10
-73.965383152314217
20
44.640380592228716
42
-0.41421356237311241
10
-73.215383152314089
20
45.390380592228716
10
-72.715383152314189
20
45.390380592228688
42
-0.29248421725048651
10
-72.261445156674142
20
45.099999999999937
10
-61.088559963496749
20
45.099999999999902
42
-0.29248421725056167
10
-60.634621967856773
20
45.390380592228667
10
-60.134621967856745
20
45.39038059222861
42
-0.41421356237311935
10
-59.384621967856752
20
44.640380592228659
10
-59.384621967856781
20
44.140380592228652
42
-0.29248421725054025
10
-59.67500256008546
20
43.686442596588712
10
-59.675002560085488
20
32.513557403411177
42
-0.29248421725040358
10
-59.384621967856788
20
32.059619407771223
10
-59.384621967856823
20
31.559619407771233
42
-0.41421356237311757
10
-60.134621967856859
20
30.809619407771226
10
-60.634621967856823
20
30.809619407771205
42
-0.29248421725045382
10
-61.088559963496763
20
31.099999999999962
0
LWPOLYLINE
5
144
100
AcDbEntity
8
0
100
AcDbPolyline
90
56
70
1
43
0.0
10
47.458330773247688
20
-50.599999999998637
10
47.458330773247575
20
-49.100000000000108
42
-0.41421356237309503
10
48.458330773247567
20
-48.100000000000023
10
52.458330773248043
20
-48.100000000000016
42
-0.41421356237308721
10
53.458330773248051
20
-49.099999999999973
10
53.458330773248122
20
-50.599999999998637
42
0.41421356237308854
10
55.45833077324815
20
-52.599999999998531
10
146.37499743991484
20
-52.599999999996058
42
0.41421356237307161
10
148.37499743991475
20
-50.599999999996044
10
148.37499743991475
20
-49.100000000000037
42
-0.41421356237308204
10
149.37499743991475
20
-48.100000000000037
10
151.87499743991458
20
-48.100000000000016
42
0.41421356237313928
10
152.87499743991458
20
-47.100000000000009
10
152.87499743991464
20
47.100000000000009
42
0.41421356237312101
10
151.87499743991458
20
48.100000000000037
10
149.37499743991469
20
48.10000000000003
42
-0.41421356237309243
10
148.37499743991472
20
49.100000000000072
10
148.37499743991475
20
50.599999999995973
42
0.41421356237307555
10
146.37499743991484
20
52.599999999996044
10
55.458330773248186
20
52.599999999998559
42
0.41421356237309243
10
53.458330773248122
20
50.599999999998637
10
53.458330773248051
20
49.099999999999973
42
-0.41421356237307944
10
52.458330773248043
20
48.100000000000023
10
48.458330773247624
20
48.100000000000023
42
-0.41421356237312623
10
47.458330773247575
20
49.100000000000037
10
47.458330773247617
20
50.599999999998687
42
0.41421356237309243
10
45.458330773247688
20
52.59999999999873
10
-45.458335893419104
20
52.600000000000016
42
0.41421356237309764
10
-47.458335893419132
20
50.600000000000023
10
-47.458335893419132
20
49.100000000000037
42
-0.41421356237309243
10
-48.458335893419147
20
48.10000000000003
10
-52.458335893419601
20
48.10000000000003
42
-0.4142135623730846
10
-53.458335893419587
20
49.100000000000037
10
-53.458335893419608
20
50.600000000000023
42
0.41421356237308982
10
-55.458335893419601
20
52.600000000000016
10
-146.37500256008633
20
52.600000000000009
42
0.41421356237310936
10
-148.37500256008633
20
50.600000000000023
10
-148.37500256008633
20
49.100000000000037
42
-0.414213562373069
10
-149.3750025600863
20
48.100000000000023
10
-151.8750025600863
20
48.100000000000065
42
0.41421356237311063
10
-152.8750025600863
20
47.100000000000016
10
-152.8750025600863
20
-47.100000000000037
42
0.41421356237307683
10
-151.8750025600863
20
-48.100000000000087
10
-149.3750025600863
20
-48.100000000000023
42
-0.41421356237310025
10
-148.37500256008633
20
-49.100000000000037
10
-148.37500256008633
20
-50.600000000000023
42
0.41421356237309243
10
-146.37500256008627
20
-52.600000000000016
10
-55.458335893419573
20
-52.600000000000051
42
0.41421356237310153
10
-53.45833589341958
20
-50.60000000000003
10
-53.458335893419587
20
-49.100000000000037
42
-0.41421356237310281
10
-52.458335893419601
20
-48.100000000000037
10
-48.458335893419147
20
-48.100000000000037
42
-0.41421356237309764
10
-47.458335893419139
20
-49.100000000000037
10
-47.458335893419125
20
-50.600000000000023
42
0.41421356237308854
10
-45.458335893419104
20
-52.600000000000016
10
45.458330773247688
20
-52.599999999998772
42
0.41421356237310153
0
LWPOLYLINE
5
145
100
AcDbEntity
8
0
100
AcDbPolyline
90
24
70
1
43
0.0
10
68.909616847685967
20
25.09038059222874
10
68.909616847685911
20
25.59038059222874
42
-0.41421356237309853
10
69.659616847685953
20
26.34038059222874
10
70.159616847685911
20
26.340380592228744
42
-0.29248421725039842
10
70.613554843325943
20
26.049999999999969
10
81.786440036503393
20
26.049999999999901
42
-0.29248421725049251
10
82.240378032143369
20
26.340380592228652
10
82.74037803214334
20
26.340380592228605
42
-0.41421356237312623
10
83.490378032143326
20
25.590380592228641
10
83.490378032143298
20
25.090380592228616
42
-0.29248421725054385
10
83.199997439914625
20
24.636442596588655
10
83.199997439914597
20
13.463557403411137
42
-0.29248421725040058
10
83.490378032143354
20
13.009619407771154
10
83.490378032143227
20
12.509619407771186
42
-0.41421356237308815
10
82.740378032143241
20
11.759619407771211
10
82.240378032143298
20
11.759619407771192
42
-0.29248421725043383
10
81.786440036503322
20
12.049999999999983
10
70.613554843325772
20
12.050000000000002
42
-0.29248421725044815
10
70.159616847685825
20
11.759619407771227
10
69.659616847685797
20
11.759619407771289
42
-0.41421356237308554
10
68.90961684768584
20
12.509619407771275
10
68.909616847685911
20
13.009619407771282
42
-0.29248421725049251
10
69.199997439914526
20
13.463557403411235
10
69.199997439914654
20
24.636442596588783
42
-0.29248421725039753
0
LWPOLYLINE
5
146
100
AcDbEntity
8
0
100
AcDbPolyline
90
24
70
1
43
0.0
10
105.37836684768578
20
-7.2903805922288534
10
105.87836684768588
20
-7.2903805922288285
42
0.29248421725033502
10
106.33230484332586
20
-7.0000000000000862
10
117.50519003650332
20
-7.0000000000000782
42
0.29248421725039886
10
117.95912803214321
20
-7.2903805922288578
10
118.4591280321433
20
-7.2903805922287823
42
0.41421356237312978
10
119.20912803214323
20
-6.540380592228825
10
119.20912803214321
20
-6.0403805922288356
42
0.29248421725059498
10
118.91874743991468
20
-5.5864425965889062
10
118.91874743991468
20
5.5864425965886646
42
0.29248421725036405
10
119.20912803214323
20
6.0403805922286047
10
119.20912803214328
20
6.5403805922286118
42
0.41421356237302831
10
118.45912803214334
20
7.2903805922287637
10
117.95912803214328
20
7.2903805922287006
42
0.29248421725038631
10
117.50519003650336
20
6.9999999999999307
10
106.3323048433258
20
6.9999999999999538
42
0.29248421725054508
10
105.87836684768592
20
7.2903805922286438
10
105.37836684768587
20
7.2903805922286633
42
0.41421356237314577
10
104.62836684768588
20
6.5403805922286828
10
104.62836684768588
20
6.0403805922286748
42
0.2924842172504542
10
104.91874743991458
20
5.5864425965886948
10
104.91874743991453
20
-5.5864425965888165
42
0.29248421725038432
10
104.62836684768578
20
-6.0403805922287823
10
104.62836684768588
20
-6.5403805922288072
42
0.41421356237306733
0
LWPOLYLINE
5
147
100
AcDbEntity
8
0
100
AcDbPolyline
90
24
70
1
43
0.0
10
102.54037803214331
20
25.590380592228627
42
0.41421356237311757
10
101.79037803214337
20
26.340380592228591
10
101.29037803214345
20
26.340380592228684
42
0.29248421725066354
10
100.83644003650343
20
26.049999999999894
10
89.663554843325898
20
26.050000000000001
42
0.29248421725051399
10
89.209616847685922
20
26.340380592228652
10
88.70961684768595
20
26.340380592228769
42
0.41421356237304996
10
87.959616847685922
20
25.590380592228712
10
87.959616847685936
20
25.090380592228705
42
0.29248421725038359
10
88.249997439914551
20
24.636442596588743
10
88.249997439914537
20
13.463557403411194
42
0.29248421725051554
10
87.959616847685922
20
13.009619407771249
10
87.959616847685837
20
12.50961940777124
42
0.41421356237311063
10
88.709616847685894
20
11.759619407771275
10
89.209616847685822
20
11.759619407771167
42
0.29248421725044887
10
89.663554843325812
20
12.049999999999965
10
100.83644003650335
20
12.049999999999914
42
0.29248421725028112
10
101.29037803214324
20
11.759619407771154
10
101.79037803214329
20
11.759619407771144
42
0.41421356237306556
10
102.54037803214322
20
12.509619407771169
10
102.54037803214332
20
13.009619407771213
42
0.29248421725049578
10
102.24999743991461
20
13.463557403411137
10
102.24999743991462
20
24.636442596588672
42
0.29248421725043361
10
102.54037803214331
20
25.090380592228602
0
LWPOLYLINE
5
148
100
AcDbEntity
8
0
100
AcDbPolyline
90
8
70
1
43
0.0
10
103.02484743991442
20
6.9999999999999751
10
97.024847439914566
20
6.9999999999999387
42
0.41421356237325629
10
96.024847439914737
20
5.9999999999999423
10
96.024847439914524
20
-7.5000000000001252
42
0.41421356237314932
10
97.024847439914566
20
-8.5000000000001457
10
103.02484743991442
20
-8.5000000000000462
42
0.41421356237318185
10
104.02484743991444
20
-7.5000000000001252
10
104.0248474399145
20
5.9999999999999423
42
0.41421356237309537
0
LWPOLYLINE
5
149
100
AcDbEntity
8
0
100
AcDbPolyline
90
24
70
1
43
0.0
10
59.674997439914605
20
43.686442596588755
42
-0.29248421725042428
10
59.38461684768594
20
44.140380592228716
10
59.384616847685976
20
44.640380592228716
42
-0.41421356237313323
10
60.134616847685933
20
45.390380592228716
10
60.634616847685912
20
45.390380592228652
42
-0.29248421725039309
10
61.088554843325831
20
45.09999999999998
10
72.261440036503359
20
45.099999999999923
42
-0.29248421725054519
10
72.715378032143363
20
45.390380592228652
10
73.215378032143391
20
45.390380592228574
42
-0.4142135623730846
10
73.965378032143363
20
44.640380592228652
10
73.965378032143278
20
44.140380592228674
42
-0.29248421725043661
10
73.674997439914634
20
43.686442596588662
10
73.674997439914605
20
32.513557403411141
42
-0.29248421725047347
10
73.965378032143292
20
32.059619407771194
10
73.965378032143207
20
31.559619407771216
42
-0.4142135623730534
10
73.215378032143235
20
30.809619407771205
10
72.715378032143221
20
30.80961940777123
42
-0.29248421725044044
10
72.26144003650333
20
31.099999999999962
10
61.088554843325866
20
31.099999999999966
42
-0.29248421725042456
10
60.634616847685841
20
30.809619407771205
10
60.134616847685827
20
30.809619407771287
42
-0.41421356237304996
10
59.384616847685798
20
31.559619407771251
10
59.384616847685912
20
32.05961940777123
42
-0.29248421725053181
10
59.674997439914506
20
32.51355740341122
0
LWPOLYLINE
5
150
100
AcDbEntity
8
0
100
AcDbPolyline
90
24
70
1
43
0.0
10
-78.727883152314206
20
-6.5403805922287006
10
-78.727883152314206
20
-6.0403805922287113
42
-0.29248421725041673
10
-78.437502560085491
20
-5.5864425965887312
10
-78.437502560085449
20
5.5864425965887428
42
-0.29248421725039236
10
-78.727883152314206
20
6.040380592228729
10
-78.72788315231422
20
6.5403805922287184
42
-0.41421356237311241
10
-77.977883152314121
20
7.290380592228729
10
-77.477883152314192
20
7.2903805922287157
42
-0.29248421725047274
10
-77.023945156674202
20
7.0000000000000204
10
-65.851059963496709
20
6.9999999999999787
42
-0.2924842172504965
10
-65.397121967856705
20
7.2903805922286944
10
-64.897121967856677
20
7.2903805922286757
42
-0.41421356237312978
10
-64.147121967856691
20
6.5403805922286828
10
-64.147121967856691
20
6.0403805922286757
42
-0.29248421725053986
10
-64.437502560085392
20
5.5864425965886788
10
-64.437502560085491
20
-5.5864425965888227
42
-0.29248421725040119
10
-64.147121967856748
20
-6.0403805922287646
10
-64.147121967856663
20
-6.5403805922287539
42
-0.41421356237314055
10
-64.897121967856748
20
-7.2903805922287663
10
-65.397121967856748
20
-7.2903805922287699
42
-0.29248421725046264
10
-65.851059963496766
20
-7.0000000000000124
10
-77.02394515667423
20
-6.9999999999999929
42
-0.2924842172504184
10
-77.477883152314192
20
-7.2903805922287335
10
-77.977883152314192
20
-7.2903805922287717
42
-0.41421356237305257
0
LWPOLYLINE
5
151
100
AcDbEntity
8
0
100
AcDbPolyline
90
24
70
1
43
0.0
10
92.724997439914588
20
32.513557403411092
42
-0.29248421725035695
10
93.015378032143289
20
32.059619407771194
10
93.015378032143289
20
31.559619407771216
42
-0.41421356237306733
10
92.265378032143289
20
30.809619407771187
10
91.765378032143289
20
30.809619407771226
42
-0.29248421725042517
10
91.311440036503356
20
31.099999999999952
10
80.138554843325792
20
31.099999999999923
42
-0.29248421725052315
10
79.684616847685817
20
30.809619407771226
10
79.184616847685874
20
30.809619407771294
42
-0.41421356237310542
10
78.434616847685817
20
31.559619407771216
10
78.434616847685987
20
32.05961940777123
42
-0.2924842172504814
10
78.724997439914532
20
32.513557403411198
10
78.724997439914603
20
43.686442596588755
42
-0.2924842172503937
10
78.434616847685973
20
44.140380592228716
10
78.434616847685987
20
44.640380592228716
42
-0.41421356237313323
10
79.184616847685945
20
45.390380592228716
10
79.684616847685973
20
45.390380592228709
42
-0.29248421725040719
10
80.138554843325863
20
45.100000000000009
10
91.311440036503413
20
45.099999999999937
42
-0.29248421725042284
10
91.765378032143417
20
45.390380592228681
10
92.265378032143403
20
45.390380592228595
42
-0.41421356237311585
10
93.015378032143289
20
44.640380592228652
10
93.015378032143289
20
44.14038059222861
42
-0.29248421725049828
10
92.724997439914659
20
43.686442596588712
0
LWPOLYLINE
5
152
100
AcDbEntity
8
0
100
AcDbPolyline
90
24
70
1
43
0.0
10
-31.102883152314213
20
-13.009619407771282
42
0.29248421725045876
10
-30.812502560085449
20
-13.463557403411262
10
-30.812502560085484
20
-24.636442596588783
42
0.2924842172504501
10
-31.102883152314227
20
-25.09038059222874
10
-31.102883152314224
20
-25.590380592228751
42
0.41421356237306556
10
-30.352883152314227
20
-26.340380592228851
10
-29.852883152314213
20
-26.340380592228776
42
0.29248421725045759
10
-29.398945156674241
20
-26.050000000000075
10
-18.226059963496727
20
-26.05000000000004
42
0.29248421725046492
10
-17.772121967856762
20
-26.340380592228776
10
-17.272121967856773
20
-26.340380592228783
42
0.41421356237312623
10
-16.522121967856744
20
-25.590380592228801
10
-16.522121967856751
20
-25.090380592228829
42
0.29248421725040613
10
-16.812502560085495
20
-24.63644259658885
10
-16.812502560085456
20
-13.463557403411324
42
0.29248421725039842
10
-16.522121967856695
20
-13.009619407771373
10
-16.522121967856695
20
-12.509619407771346
42
0.41421356237309936
10
-17.272121967856702
20
-11.759619407771337
10
-17.772121967856688
20
-11.759619407771304
42
0.29248421725040791
10
-18.226059963496649
20
-12.050000000000054
10
-29.398945156674191
20
-12.050000000000045
42
0.29248421725038259
10
-29.852883152314149
20
-11.759619407771282
10
-30.352883152314138
20
-11.759619407771273
42
0.41421356237309936
10
-31.102883152314185
20
-12.509619407771295
0
LWPOLYLINE
5
153
100
AcDbEntity
8
0
100
AcDbPolyline
90
24
70
1
43
0.0
10
-50.152883152314232
20
-12.509619407771295
10
-50.152883152314153
20
-13.009619407771282
42
0.29248421725039259
10
-49.862502560085424
20
-13.46355740341127
10
-49.862502560085538
20
-24.636442596588772
42
0.29248421725040791
10
-50.152883152314232
20
-25.09038059222874
10
-50.152883152314224
20
-25.590380592228751
42
0.41421356237312457
10
-49.402883152314217
20
-26.340380592228829
10
-48.902883152314224
20
-26.340380592228783
42
0.29248421725036067
10
-48.448945156674306
20
-26.05000000000004
10
-37.276059963496721
20
-26.05000000000004
42
0.2924842172504496
10
-36.822121967856759
20
-26.340380592228776
10
-36.322121967856773
20
-26.340380592228794
42
0.41421356237313839
10
-35.572121967856688
20
-25.590380592228801
10
-35.572121967856724
20
-25.090380592228829
42
0.29248421725045237
10
-35.86250256008546
20
-24.636442596588779
10
-35.862502560085417
20
-13.463557403411324
42
0.29248421725044199
10
-35.572121967856688
20
-13.009619407771373
10
-35.572121967856674
20
-12.509619407771346
42
0.41421356237311757
10
-36.322121967856653
20
-11.759619407771337
10
-36.822121967856688
20
-11.759619407771337
42
0.29248421725041335
10
-37.27605996349665
20
-12.050000000000054
10
-48.448945156674128
20
-12.050000000000052
42
0.29248421725045698
10
-48.90288315231416
20
-11.759619407771281
10
-49.402883152314132
20
-11.759619407771297
42
0.41421356237309764
0
LWPOLYLINE
5
154
100
AcDbEntity
8
0
100
AcDbPolyline
90
24
70
1
43
0.0
10
-51.563559963496729
20
26.049999999999898
42
-0.29248421725057111
10
-51.109621967856711
20
26.340380592228669
10
-50.609621967856704
20
26.340380592228616
42
-0.41421356237309503
10
-49.859621967856725
20
25.590380592228641
10
-49.859621967856746
20
25.090380592228669
42
-0.29248421725042961
10
-50.150002560085468
20
24.636442596588711
10
-50.150002560085539
20
13.463557403411155
42
-0.29248421725041779
10
-49.859621967856746
20
13.009619407771229
10
-49.859621967856825
20
12.509619407771186
42
-0.41421356237311158
10
-50.609621967856881
20
11.759619407771211
10
-51.109621967856853
20
11.75961940777124
42
-0.29248421725043083
10
-51.563559963496822
20
12.050000000000001
10
-62.73644515667435
20
12.050000000000027
42
-0.2924842172505166
10
-63.190383152314283
20
11.759619407771249
10
-63.690383152314269
20
11.759619407771318
42
-0.4142135623731098
10
-64.440383152314269
20
12.509619407771295
10
-64.440383152314126
20
13.009619407771266
42
-0.29248421725053253
10
-64.150002560085568
20
13.463557403411244
10
-64.150002560085483
20
24.636442596588783
42
-0.29248421725053902
10
-64.440383152314126
20
25.090380592228762
10
-64.440383152314141
20
25.590380592228755
42
-0.41421356237304818
10
-63.690383152314141
20
26.340380592228762
10
-63.190383152314183
20
26.34038059222874
42
-0.29248421725047891
10
-62.736445156674172
20
26.04999999999999
0
LWPOLYLINE
5
155
100
AcDbEntity
8
0
100
AcDbPolyline
90
24
70
1
43
0.0
10
35.865378032143283
20
32.059619407771208
42
0.29248421725044349
10
35.574997439914533
20
32.513557403411149
10
35.574997439914604
20
43.686442596588712
42
0.29248421725050155
10
35.865378032143305
20
44.140380592228652
10
35.865378032143354
20
44.640380592228652
42
0.41421356237309331
10
35.115378032143305
20
45.39038059222861
10
34.615378032143326
20
45.390380592228681
42
0.292484217250506
10
34.16144003650335
20
45.099999999999923
10
22.988554843325858
20
45.099999999999937
42
0.29248421725044432
10
22.5346168476859
20
45.390380592228681
10
22.034616847685914
20
45.390380592228716
42
0.41421356237304474
10
21.284616847685921
20
44.640380592228716
10
21.284616847685953
20
44.140380592228716
42
0.29248421725046891
10
21.574997439914611
20
43.686442596588783
10
21.574997439914494
20
32.51355740341122
42
0.29248421725050877
10
21.284616847685914
20
32.059619407771251
10
21.284616847685808
20
31.559619407771251
42
0.41421356237305174
10
22.034616847685765
20
30.80961940777129
10
22.534616847685793
20
30.809619407771201
42
0.29248421725050949
10
22.988554843325804
20
31.099999999999966
10
34.161440036503294
20
31.099999999999977
42
0.292484217250366
10
34.615378032143198
20
30.809619407771205
10
35.115378032143234
20
30.809619407771205
42
0.414213562373069
10
35.865378032143205
20
31.559619407771233
0
LWPOLYLINE
5
156
100
AcDbEntity
8
0
100
AcDbPolyline
90
24
70
1
43
0.0
10
59.387497439914583
20
-13.46355740341135
42
0.2924842172504426
10
59.677878032143362
20
-13.009619407771373
10
59.677878032143362
20
-12.509619407771346
42
0.41421356237311413
10
58.927878032143326
20
-11.75961940777135
10
58.427878032143319
20
-11.759619407771307
42
0.29248421725048929
10
57.973940036503386
20
-12.050000000000054
10
46.801054843325865
20
-12.050000000000061
42
0.29248421725043938
10
46.347116847685896
20
-11.759619407771249
10
45.847116847685861
20
-11.759619407771273
42
0.41421356237310281
10
45.09711684768584
20
-12.509619407771295
10
45.097116847685861
20
-13.009619407771282
42
0.29248421725045348
10
45.387497439914597
20
-13.463557403411262
10
45.387497439914519
20
-24.636442596588775
42
0.29248421725040741
10
45.097116847685861
20
-25.09038059222874
10
45.097116847685825
20
-25.590380592228751
42
0.41421356237308982
10
45.847116847685783
20
-26.340380592228851
10
46.347116847685783
20
-26.340380592228772
42
0.29248421725045276
10
46.80105484332578
20
-26.050000000000058
10
57.973940036503279
20
-26.05000000000004
42
0.29248421725037149
10
58.427878032143212
20
-26.340380592228762
10
58.927878032143269
20
-26.340380592228815
42
0.41421356237305862
10
59.677878032143319
20
-25.590380592228801
10
59.677878032143298
20
-25.090380592228829
42
0.29248421725044144
10
59.387497439914618
20
-24.636442596588772
0
LWPOLYLINE
5
157
100
AcDbEntity
8
0
100
AcDbPolyline
90
24
70
1
43
0.0
10
2.5278780321433203
20
-12.509619407771346
42
0.41421356237311158
10
1.7778780321433452
20
-11.759619407771337
10
1.2778780321433034
20
-11.759619407771318
42
0.29248421725044055
10
0.82394003650336112
20
-12.050000000000054
10
-10.348945156674157
20
-12.050000000000052
42
0.29248421725046092
10
-10.802883152314136
20
-11.759619407771284
10
-11.302883152314127
20
-11.759619407771297
42
0.41421356237309331
10
-12.052883152314193
20
-12.509619407771295
10
-12.052883152314154
20
-13.009619407771282
42
0.29248421725045803
10
-11.762502560085426
20
-13.463557403411269
10
-11.762502560085466
20
-24.636442596588779
42
0.29248421725042284
10
-12.0528831523142
20
-25.09038059222874
10
-12.052883152314207
20
-25.590380592228748
42
0.41421356237310114
10
-11.302883152314198
20
-26.340380592228811
10
-10.802883152314193
20
-26.340380592228772
42
0.29248421725047397
10
-10.348945156674251
20
-26.05000000000004
10
0.82394003650328007
20
-26.05000000000004
42
0.29248421725045542
10
1.2778780321432492
20
-26.340380592228772
10
1.7778780321432561
20
-26.340380592228819
42
0.41421356237310186
10
2.5278780321433185
20
-25.590380592228783
10
2.5278780321432848
20
-25.090380592228829
42
0.29248421725042045
10
2.2374974399145482
20
-24.63644259658885
10
2.2374974399145677
20
-13.463557403411333
42
0.29248421725046891
10
2.5278780321433185
20
-13.009619407771353
0
LWPOLYLINE
5
158
100
AcDbEntity
8
0
100
AcDbPolyline
90
24
70
1
43
0.0
10
54.165378032143259
20
30.809619407771219
42
0.41421356237306556
10
54.915378032143224
20
31.559619407771233
10
54.915378032143224
20
32.059619407771208
42
0.2924842172504184
10
54.624997439914615
20
32.513557403411113
10
54.624997439914615
20
43.686442596588712
42
0.29248421725052592
10
54.915378032143295
20
44.140380592228652
10
54.915378032143352
20
44.640380592228652
42
0.41421356237312978
10
54.165378032143394
20
45.39038059222861
10
53.665378032143352
20
45.390380592228681
42
0.29248421725043827
10
53.21144003650339
20
45.099999999999923
10
42.03855484332589
20
45.099999999999923
42
0.29248421725041163
10
41.584616847685894
20
45.390380592228709
10
41.084616847685922
20
45.390380592228716
42
0.41421356237310542
10
40.334616847685908
20
44.640380592228716
10
40.334616847685965
20
44.140380592228709
42
0.29248421725040263
10
40.624997439914587
20
43.68644259658879
10
40.624997439914523
20
32.51355740341122
42
0.29248421725050122
10
40.334616847685908
20
32.059619407771251
10
40.334616847685822
20
31.559619407771251
42
0.41421356237306384
10
41.08461684768578
20
30.80961940777129
10
41.584616847685815
20
30.809619407771216
42
0.29248421725039636
10
42.038554843325777
20
31.099999999999962
10
53.211440036503305
20
31.099999999999962
42
0.29248421725034934
10
53.665378032143209
20
30.809619407771226
0
LWPOLYLINE
5
159
100
AcDbEntity
8
0
100
AcDbPolyline
90
24
70
1
43
0.0
10
-97.02788315231416
20
7.2903805922287424
42
0.41421356237306556
10
-97.77788315231416
20
6.5403805922287184
10
-97.77788315231416
20
6.040380592228729
42
0.29248421725036527
10
-97.487502560085417
20
5.5864425965887312
10
-97.487502560085503
20
-5.5864425965887339
42
0.29248421725037693
10
-97.777883152314203
20
-6.0403805922287113
10
-97.777883152314203
20
-6.5403805922287006
42
0.41421356237309204
10
-97.027883152314246
20
-7.2903805922287566
10
-96.527883152314203
20
-7.2903805922287557
42
0.29248421725046864
10
-96.073945156674299
20
-6.999999999999992
10
-84.901059963496678
20
-6.9999999999999876
42
0.29248421725033041
10
-84.447121967856802
20
-7.2903805922287468
10
-83.947121967856773
20
-7.2903805922287415
42
0.41421356237305124
10
-83.197121967856717
20
-6.5403805922287539
10
-83.197121967856717
20
-6.0403805922287646
42
0.29248421725049301
10
-83.487502560085446
20
-5.5864425965888262
10
-83.487502560085417
20
5.5864425965887072
42
0.29248421725053325
10
-83.197121967856646
20
6.0403805922286757
10
-83.197121967856674
20
6.5403805922286828
42
0.41421356237310897
10
-83.947121967856631
20
7.2903805922287113
10
-84.447121967856674
20
7.2903805922287201
42
0.29248421725033996
10
-84.901059963496621
20
6.9999999999999707
10
-96.073945156674228
20
7.0000000000000124
42
0.29248421725044116
10
-96.52788315231416
20
7.2903805922287335
0
LWPOLYLINE
5
160
100
AcDbEntity
8
0
100
AcDbPolyline
90
24
70
1
43
0.0
10
-87.502883152314155
20
-11.759619407771249
10
-87.002883152314183
20
-11.759619407771256
42
-0.2924842172505146
10
-86.548945156674208
20
-12.049999999999983
10
-75.376059963496672
20
-12.050000000000036
42
-0.29248421725053519
10
-74.922121967856725
20
-11.759619407771266
10
-74.422121967856683
20
-11.759619407771289
42
-0.41421356237311063
10
-73.672121967856754
20
-12.509619407771313
10
-73.672121967856754
20
-13.009619407771337
42
-0.29248421725050289
10
-73.962502560085369
20
-13.463557403411308
10
-73.962502560085454
20
-24.636442596588758
42
-0.2924842172504894
10
-73.672121967856782
20
-25.090380592228797
10
-73.672121967856725
20
-25.590380592228765
42
-0.41421356237307422
10
-74.422121967856782
20
-26.340380592228776
10
-74.922121967856782
20
-26.340380592228762
42
-0.29248421725043722
10
-75.376059963496701
20
-26.050000000000008
10
-86.548945156674293
20
-26.04999999999999
42
-0.29248421725038959
10
-87.002883152314212
20
-26.340380592228762
10
-87.502883152314212
20
-26.340380592228762
42
-0.41421356237310897
10
-88.25288315231424
20
-25.590380592228733
10
-88.252883152314212
20
-25.090380592228705
42
-0.29248421725036655
10
-87.962502560085468
20
-24.636442596588761
10
-87.962502560085426
20
-13.463557403411263
42
-0.29248421725039248
10
-88.252883152314212
20
-13.009619407771249
10
-88.252883152314212
20
-12.50961940777124
42
-0.41421356237308116
0
LWPOLYLINE
5
161
100
AcDbEntity
8
0
100
AcDbPolyline
90
24
70
1
43
0.0
10
149.41537803214339
20
45.390380592228603
10
148.91537803214339
20
45.390380592228617
42
0.29248421725054685
10
148.46144003650346
20
45.099999999999845
10
137.28855484332595
20
45.099999999999916
42
0.29248421725031765
10
136.83461684768594
20
45.390380592228716
10
136.33461684768594
20
45.390380592228716
42
0.41421356237316442
10
135.58461684768605
20
44.640380592228688
10
135.58461684768599
20
44.140380592228709
42
0.29248421725039925
10
135.87499743991469
20
43.686442596588734
10
135.87499743991458
20
32.513557403411227
42
0.29248421725048973
10
135.58461684768599
20
32.05961940777123
10
135.58461684768585
20
31.559619407771216
42
0.41421356237308815
10
136.33461684768582
20
30.809619407771258
10
136.83461684768585
20
30.809619407771208
42
0.29248421725051038
10
137.28855484332581
20
31.099999999999966
10
148.46144003650329
20
31.099999999999923
42
0.29248421725038248
10
148.91537803214334
20
30.809619407771159
10
149.41537803214322
20
30.809619407771194
42
0.41421356237316265
10
150.16537803214328
20
31.559619407771201
10
150.16537803214331
20
32.059619407771173
42
0.29248421725040913
10
149.87499743991458
20
32.513557403411099
10
149.87499743991469
20
43.686442596588705
42
0.29248421725043466
10
150.16537803214339
20
44.140380592228574
10
150.16537803214339
20
44.64038059222861
42
0.41421356237311585
0
LWPOLYLINE
5
162
100
AcDbEntity
8
0
100
AcDbPolyline
90
24
70
1
43
0.0
10
2.5249974399144754
20
32.51355740341122
42
0.29248421725050699
10
2.2346168476858894
20
32.05961940777123
10
2.2346168476857722
20
31.559619407771251
42
0.4142135623730625
10
2.9846168476857926
20
30.80961940777129
10
3.4846168476857828
20
30.809619407771205
42
0.29248421725052648
10
3.9385548433257433
20
31.099999999999966
10
15.111440036503296
20
31.099999999999962
42
0.29248421725036655
10
15.565378032143187
20
30.809619407771205
10
16.065378032143226
20
30.80961940777123
42
0.41421356237309076
10
16.815378032143165
20
31.559619407771233
10
16.815378032143261
20
32.059619407771208
42
0.29248421725042983
10
16.524997439914557
20
32.513557403411134
10
16.524997439914571
20
43.686442596588691
42
0.29248421725051504
10
16.815378032143265
20
44.140380592228652
10
16.815378032143322
20
44.640380592228652
42
0.41421356237314017
10
16.0653780321433
20
45.39038059222861
10
15.565378032143329
20
45.390380592228674
42
0.2924842172505171
10
15.11144003650335
20
45.099999999999923
10
3.9385548433258459
20
45.09999999999998
42
0.29248421725045731
10
3.4846168476858708
20
45.390380592228681
10
2.9846168476858903
20
45.390380592228716
42
0.41421356237310181
10
2.2346168476859214
20
44.640380592228716
10
2.2346168476859338
20
44.140380592228716
42
0.29248421725045276
10
2.5249974399145718
20
43.686442596588783
0
LWPOLYLINE
5
163
100
AcDbEntity
8
0
100
AcDbPolyline
90
24
70
1
43
0.0
10
-116.53462196785696
20
31.559619407771233
10
-116.53462196785688
20
32.059619407771251
42
0.29248421725043167
10
-116.82500256008561
20
32.513557403411205
10
-116.82500256008552
20
43.686442596588691
42
0.29248421725035173
10
-116.53462196785676
20
44.140380592228652
10
-116.53462196785682
20
44.640380592228688
42
0.41421356237313667
10
-117.28462196785682
20
45.39038059222861
10
-117.78462196785676
20
45.390380592228681
42
0.29248421725051182
10
-118.23855996349678
20
45.099999999999937
10
-129.41144515667423
20
45.100000000000016
42
0.29248421725034873
10
-129.86538315231414
20
45.390380592228716
10
-130.36538315231428
20
45.390380592228745
42
0.41421356237309503
10
-131.11538315231414
20
44.640380592228787
10
-131.11538315231422
20
44.140380592228745
42
0.29248421725032836
10
-130.82500256008558
20
43.686442596588869
10
-130.82500256008561
20
32.513557403411248
42
0.29248421725047913
10
-131.11538315231414
20
32.059619407771287
10
-131.11538315231434
20
31.559619407771287
42
0.4142135623731783
10
-130.36538315231428
20
30.80961940777129
10
-129.86538315231434
20
30.809619407771279
42
0.29248421725058676
10
-129.4114451566744
20
31.100000000000001
10
-118.23855996349685
20
31.099999999999994
42
0.29248421725042284
10
-117.78462196785685
20
30.809619407771251
10
-117.28462196785692
20
30.80961940777129
42
0.41421356237315921
0
LWPOLYLINE
5
164
100
AcDbEntity
8
0
100
AcDbPolyline
90
8
70
1
43
0.0
10
-139.86265256008568
20
-12.049999999999976
42
-0.41421356237310542
10
-138.86265256008562
20
-13.04999999999999
10
-138.86265256008568
20
-26.550000000000054
42
-0.41421356237319518
10
-139.86265256008568
20
-27.549999999999962
10
-145.86265256008559
20
-27.5500000000001
42
-0.4142135623730937
10
-146.86265256008556
20
-26.550000000000054
10
-146.86265256008545
20
-13.049999999999988
42
-0.41421356237320361
10
-145.86265256008556
20
-12.049999999999965
0
LWPOLYLINE
5
165
100
AcDbEntity
8
0
100
AcDbPolyline
90
24
70
1
43
0.0
10
17.272116847685712
20
-7.2903805922287912
10
17.772116847685755
20
-7.2903805922287557
42
0.29248421725045409
10
18.226054843325727
20
-7.000000000000024
10
29.398940036503252
20
-7.0000000000000284
42
0.2924842172504255
10
29.852878032143199
20
-7.2903805922287734
10
30.35287803214322
20
-7.2903805922287814
42
0.41421356237312235
10
31.102878032143266
20
-6.5403805922287717
10
31.102878032143249
20
-6.0403805922288001
42
0.29248421725043611
10
30.812497439914491
20
-5.5864425965888316
10
30.812497439914562
20
5.5864425965886788
42
0.29248421725044538
10
31.102878032143284
20
6.040380592228658
10
31.102878032143284
20
6.5403805922286651
42
0.41421356237310591
10
30.352878032143309
20
7.2903805922287042
10
29.852878032143284
20
7.2903805922286571
42
0.29248421725043106
10
29.398940036503358
20
6.9999999999999654
10
18.226054843325784
20
6.9999999999999591
42
0.29248421725044949
10
17.772116847685808
20
7.2903805922286917
10
17.272116847685822
20
7.2903805922286935
42
0.41421356237309503
10
16.52211684768579
20
6.5403805922287006
10
16.52211684768579
20
6.0403805922287113
42
0.2924842172504003
10
16.812497439914512
20
5.5864425965887321
10
16.812497439914505
20
-5.5864425965887898
42
0.29248421725042212
10
16.522116847685751
20
-6.040380592228729
10
16.522116847685755
20
-6.5403805922287184
42
0.41421356237309631
0
LWPOLYLINE
5
166
100
AcDbEntity
8
0
100
AcDbPolyline
90
24
70
1
43
0.0
10
136.33461684768582
20
11.759619407771245
10
136.83461684768585
20
11.759619407771186
42
0.29248421725042995
10
137.28855484332581
20
12.04999999999994
10
148.46144003650335
20
12.049999999999926
42
0.29248421725047224
10
148.91537803214334
20
11.759619407771208
10
149.41537803214325
20
11.759619407771208
42
0.41421356237317308
10
150.16537803214322
20
12.509619407771169
10
150.16537803214334
20
13.009619407771213
42
0.2924842172504537
10
149.87499743991458
20
13.463557403411137
10
149.87499743991458
20
24.63644259658864
42
0.29248421725035101
10
150.16537803214339
20
25.090380592228602
10
150.16537803214331
20
25.590380592228627
42
0.41421356237311585
10
149.41537803214339
20
26.34038059222857
10
148.91537803214339
20
26.340380592228616
42
0.29248421725060342
10
148.46144003650346
20
26.049999999999898
10
137.28855484332593
20
26.04999999999993
42
0.29248421725041179
10
136.83461684768594
20
26.340380592228737
10
136.33461684768599
20
26.340380592228676
42
0.41421356237314017
10
135.58461684768599
20
25.590380592228694
10
135.58461684768594
20
25.090380592228691
42
0.29248421725053508
10
135.87499743991472
20
24.636442596588715
10
135.87499743991458
20
13.463557403411192
42
0.29248421725042673
10
135.58461684768599
20
13.009619407771229
10
135.58461684768585
20
12.509619407771257
42
0.41421356237310897
0
LWPOLYLINE
5
167
100
AcDbEntity
8
0
100
AcDbPolyline
90
24
70
1
43
0.0
10
-107.30288315231421
20
-25.090380592228705
42
-0.29248421725047613
10
-107.01250256008551
20
-24.636442596588751
10
-107.01250256008549
20
-13.463557403411198
42
-0.29248421725039958
10
-107.30288315231422
20
-13.009619407771249
10
-107.30288315231422
20
-12.509619407771275
42
-0.41421356237306295
10
-106.55288315231418
20
-11.759619407771275
10
-106.05288315231417
20
-11.75961940777132
42
-0.29248421725049445
10
-105.5989451566742
20
-12.049999999999967
10
-94.42605996349667
20
-12.050000000000075
42
-0.29248421725034912
10
-93.972121967856722
20
-11.759619407771266
10
-93.472121967856694
20
-11.759619407771236
42
-0.41421356237310719
10
-92.722121967856722
20
-12.509619407771313
10
-92.722121967856722
20
-13.009619407771337
42
-0.29248421725035428
10
-93.012502560085437
20
-13.463557403411306
10
-93.012502560085437
20
-24.636442596588758
42
-0.29248421725039925
10
-92.722121967856793
20
-25.090380592228762
10
-92.722121967856722
20
-25.590380592228765
42
-0.41421356237311585
10
-93.472121967856793
20
-26.340380592228758
10
-93.972121967856765
20
-26.340380592228811
42
-0.29248421725039031
10
-94.426059963496783
20
-26.050000000000026
10
-105.5989451566743
20
-26.050000000000008
42
-0.29248421725048362
10
-106.05288315231421
20
-26.340380592228772
10
-106.55288315231424
20
-26.340380592228794
42
-0.41421356237307255
10
-107.30288315231421
20
-25.590380592228733
0
LWPOLYLINE
5
168
100
AcDbEntity
8
0
100
AcDbPolyline
90
24
70
1
43
0.0
10
137.28855484332587
20
-7.0000000000000595
42
-0.29248421725056289
10
136.83461684768585
20
-7.2903805922288214
10
136.33461684768582
20
-7.2903805922287921
42
-0.41421356237316831
10
135.58461684768582
20
-6.5403805922287361
10
135.58461684768602
20
-6.0403805922287823
42
-0.29248421725061208
10
135.87499743991458
20
-5.5864425965888076
10
135.87499743991472
20
5.5864425965886984
42
-0.29248421725037682
10
135.58461684768594
20
6.0403805922286757
10
135.58461684768602
20
6.5403805922286828
42
-0.4142135623731692
10
136.33461684768594
20
7.2903805922286846
10
136.83461684768594
20
7.2903805922286233
42
-0.29248421725039864
10
137.28855484332595
20
6.9999999999999405
10
148.46144003650346
20
6.9999999999998703
42
-0.29248421725055074
10
148.91537803214339
20
7.2903805922286438
10
149.41537803214339
20
7.2903805922285505
42
-0.41421356237311546
10
150.16537803214331
20
6.5403805922286118
10
150.16537803214339
20
6.0403805922285869
42
-0.29248421725036139
10
149.87499743991458
20
5.5864425965886522
10
149.87499743991458
20
-5.5864425965888609
42
-0.29248421725039225
10
150.16537803214331
20
-6.0403805922288187
10
150.16537803214328
20
-6.5403805922287894
42
-0.41421356237311757
10
149.41537803214325
20
-7.2903805922288045
10
148.91537803214334
20
-7.2903805922288125
42
-0.29248421725030405
10
148.46144003650332
20
-7.0000000000000373
0
LWPOLYLINE
5
169
100
AcDbEntity
8
0
100
AcDbPolyline
90
24
70
1
43
0.0
10
-54.165383152314099
20
45.390380592228716
42
0.41421356237311935
10
-54.915383152314092
20
44.640380592228716
10
-54.915383152314092
20
44.140380592228716
42
0.29248421725025725
10
-54.625002560085498
20
43.68644259658879
10
-54.625002560085612
20
32.513557403411212
42
0.29248421725049012
10
-54.915383152314092
20
32.059619407771251
10
-54.91538315231427
20
31.559619407771269
42
0.41421356237310542
10
-54.165383152314291
20
30.80961940777129
10
-53.66538315231427
20
30.809619407771244
42
0.29248421725049845
10
-53.211445156674309
20
31.099999999999962
10
-42.038559963496773
20
31.099999999999962
42
0.29248421725041346
10
-41.584621967856812
20
30.809619407771226
10
-41.084621967856904
20
30.809619407771226
42
0.41421356237313495
10
-40.334621967856883
20
31.559619407771233
10
-40.334621967856776
20
32.059619407771223
42
0.29248421725032497
10
-40.625002560085491
20
32.513557403411149
10
-40.625002560085463
20
43.686442596588712
42
0.29248421725052942
10
-40.334621967856712
20
44.140380592228652
10
-40.334621967856698
20
44.640380592228652
42
0.41421356237315055
10
-41.084621967856734
20
45.390380592228652
10
-41.584621967856734
20
45.390380592228667
42
0.29248421725051155
10
-42.038559963496724
20
45.099999999999923
10
-53.211445156674174
20
45.099999999999987
42
0.29248421725043733
10
-53.665383152314178
20
45.390380592228688
0
LWPOLYLINE
5
170
100
AcDbEntity
8
0
100
AcDbPolyline
90
24
70
1
43
0.0
10
7.7471168476857954
20
-26.340380592228819
42
-0.41421356237309631
10
6.9971168476858105
20
-25.590380592228751
10
6.9971168476858034
20
-25.09038059222874
42
-0.29248421725041018
10
7.2874974399145165
20
-24.636442596588772
10
7.2874974399145742
20
-13.46355740341127
42
-0.29248421725046864
10
6.9971168476858381
20
-13.009619407771282
10
6.9971168476858212
20
-12.509619407771297
42
-0.41421356237309204
10
7.7471168476858665
20
-11.759619407771273
10
8.2471168476858558
20
-11.759619407771282
42
-0.29248421725041368
10
8.701054843325835
20
-12.050000000000047
10
19.873940036503374
20
-12.050000000000056
42
-0.29248421725043783
10
20.327878032143328
20
-11.759619407771337
10
20.827878032143303
20
-11.759619407771352
42
-0.41421356237312884
10
21.577878032143328
20
-12.509619407771346
10
21.577878032143328
20
-13.009619407771373
42
-0.29248421725040091
10
21.287497439914574
20
-13.463557403411313
10
21.287497439914556
20
-24.63644259658885
42
-0.2924842172503932
10
21.577878032143296
20
-25.090380592228819
10
21.577878032143325
20
-25.590380592228801
42
-0.41421356237309853
10
20.82787803214325
20
-26.340380592228811
10
20.327878032143296
20
-26.340380592228779
42
-0.29248421725041274
10
19.873940036503285
20
-26.05000000000004
10
8.7010548433257444
20
-26.05000000000004
42
-0.29248421725039708
10
8.2471168476858008
20
-26.340380592228776
0
LWPOLYLINE
5
171
100
AcDbEntity
8
0
100
AcDbPolyline
90
24
70
1
43
0.0
10
-2.2346194077714365
20
-32.059619407771372
42
-0.29248421725042922
10
-2.5250000000001886
20
-32.513557403411326
10
-2.5250000000002264
20
-43.686442596588833
42
-0.29248421725038043
10
-2.2346194077714756
20
-44.140380592228816
10
-2.2346194077714756
20
-44.640380592228794
42
-0.41421356237311957
10
-2.9846194077715045
20
-45.390380592228745
10
-3.4846194077714898
20
-45.390380592228745
42
-0.29248421725043261
10
-3.938557403411469
20
-45.100000000000016
10
-27.017692596588816
20
-45.100000000000115
42
-0.29248421725041035
10
-27.471630592228777
20
-45.390380592228823
10
-27.971630592228802
20
-45.390380592228858
42
-0.41421356237311063
10
-28.721630592228813
20
-44.640380592228787
10
-28.721630592228795
20
-44.140380592228794
42
-0.29248421725047397
10
-28.431250000000055
20
-43.686442596588819
10
-28.431250000000023
20
-32.513557403411312
42
-0.29248421725045876
10
-28.721630592228784
20
-32.059619407771329
10
-28.72163059222876
20
-31.55961940777134
42
-0.41421356237308815
10
-27.971630592228713
20
-30.809619407771322
10
-27.471630592228735
20
-30.809619407771329
42
-0.29248421725039431
10
-27.017692596588773
20
-31.100000000000094
10
-3.9385574034113797
20
-31.100000000000065
42
-0.2924842172503937
10
-3.484619407771425
20
-30.809619407771311
10
-2.984619407771429
20
-30.809619407771365
42
-0.41421356237308071
10
-2.2346194077714272
20
-31.559619407771358
0
LWPOLYLINE
5
172
100
AcDbEntity
8
0
100
AcDbPolyline
90
8
70
1
43
0.0
10
25.57500000000001
20
-29.600000000000218
42
0.41421356237308593
10
24.575000000000014
20
-30.600000000000218
10
24.57500000000001
20
-44.100000000000243
42
0.41421356237308721
10
25.574999999999971
20
-45.100000000000229
10
31.575000000000017
20
-45.100000000000229
42
0.41421356237308982
10
32.575000000000003
20
-44.100000000000243
10
32.575000000000003
20
-30.600000000000218
42
0.41421356237309115
10
31.57500000000001
20
-29.60000000000025
0
LWPOLYLINE
5
173
100
AcDbEntity
8
0
100
AcDbPolyline
90
24
70
1
43
0.0
10
-146.53413059222891
20
-7.2903805922287921
42
0.29248421725060425
10
-146.08019259658909
20
-6.9999999999999929
10
-130.14480740341142
20
-7.0000000000000728
42
0.29248421725058787
10
-129.69086940777152
20
-7.2903805922287628
10
-129.19086940777132
20
-7.2903805922287468
42
0.41421356237315748
10
-128.44086940777129
20
-6.5403805922288072
10
-128.44086940777129
20
-6.0403805922288001
42
0.29248421725043983
10
-128.73125000000002
20
-5.5864425965888573
10
-128.73125000000013
20
5.5864425965887232
42
0.29248421725024448
10
-128.44086940777123
20
6.0403805922286224
10
-128.44086940777129
20
6.5403805922286296
42
0.41421356237310675
10
-129.19086940777134
20
7.2903805922287468
10
-129.69086940777123
20
7.2903805922287344
42
0.29248421725059204
10
-130.14480740341145
20
6.9999999999999272
10
-146.08019259658914
20
6.9999999999999822
42
0.29248421725033946
10
-146.53413059222891
20
7.2903805922286118
10
-147.03413059222882
20
7.2903805922287388
42
0.41421356237302959
10
-147.78413059222899
20
6.5403805922287361
10
-147.78413059222891
20
6.040380592228729
42
0.292484217250432
10
-147.49375000000032
20
5.5864425965888334
10
-147.49375000000026
20
-5.5864425965888289
42
0.29248421725063933
10
-147.78413059222896
20
-6.0403805922287646
10
-147.78413059222891
20
-6.5403805922287717
42
0.41421356237322943
10
-147.03413059222891
20
-7.2903805922286979
0
LWPOLYLINE
5
174
100
AcDbEntity
8
0
100
AcDbPolyline
90
24
70
1
43
0.0
10
-102.54038315231428
20
12.509619407771329
10
-102.54038315231421
20
13.009619407771304
42
-0.29248421725044887
10
-102.25000256008563
20
13.463557403411244
10
-102.25000256008549
20
24.636442596588761
42
-0.29248421725040236
10
-102.54038315231421
20
25.090380592228772
10
-102.54038315231426
20
25.590380592228755
42
-0.41421356237300139
10
-101.79038315231425
20
26.340380592228851
10
-101.29038315231421
20
26.340380592228737
42
-0.29248421725047707
10
-100.83644515667423
20
26.050000000000004
10
-89.663559963496766
20
26.049999999999933
42
-0.29248421725038648
10
-89.209621967856791
20
26.340380592228737
10
-88.709621967856805
20
26.340380592228637
42
-0.41421356237309503
10
-87.959621967856791
20
25.590380592228733
10
-87.959621967856791
20
25.090380592228698
42
-0.29248421725055951
10
-88.250002560085477
20
24.636442596588715
10
-88.250002560085562
20
13.463557403411235
42
-0.29248421725032714
10
-87.959621967856833
20
13.009619407771249
10
-87.959621967856961
20
12.509619407771206
42
-0.41421356237307255
10
-88.709621967856833
20
11.759619407771249
10
-89.209621967856833
20
11.759619407771279
42
-0.29248421725049406
10
-89.66355996349678
20
12.050000000000027
10
-100.83644515667443
20
12.05000000000002
42
-0.29248421725064316
10
-101.29038315231428
20
11.759619407771297
10
-101.79038315231432
20
11.759619407771343
42
-0.41421356237313406
0
LWPOLYLINE
5
175
100
AcDbEntity
8
0
100
AcDbPolyline
90
24
70
1
43
0.0
10
103.21769003650338
20
-12.050000000000074
42
-0.29248421725050816
10
103.67162803214329
20
-11.759619407771378
10
104.17162803214332
20
-11.759619407771371
42
-0.4142135623731098
10
104.92162803214342
20
-12.509619407771401
10
104.92162803214329
20
-13.009619407771392
42
-0.29248421725049589
10
104.63124743991459
20
-13.463557403411315
10
104.63124743991459
20
-24.636442596588886
42
-0.29248421725038526
10
104.92162803214329
20
-25.090380592228851
10
104.92162803214329
20
-25.590380592228819
42
-0.41421356237315055
10
104.1716280321433
20
-26.340380592228851
10
103.67162803214329
20
-26.340380592228826
42
-0.29248421725039031
10
103.21769003650331
20
-26.050000000000129
10
92.044804843325764
20
-26.050000000000068
42
-0.29248421725027535
10
91.590866847685845
20
-26.340380592228829
10
91.090866847685845
20
-26.340380592228843
42
-0.41421356237313495
10
90.340866847685845
20
-25.590380592228783
10
90.340866847685845
20
-25.09038059222874
42
-0.29248421725041684
10
90.631247439914574
20
-24.636442596588772
10
90.631247439914588
20
-13.463557403411288
42
-0.29248421725048579
10
90.340866847685945
20
-13.009619407771282
10
90.340866847685845
20
-12.509619407771295
42
-0.41421356237306473
10
91.09086684768593
20
-11.759619407771327
10
91.590866847685874
20
-11.759619407771355
42
-0.29248421725043733
10
92.044804843325863
20
-12.050000000000072
0
ENDSEC
0
SECTION
2
OBJECTS
0
DICTIONARY
5
C
100
AcDbDictionary
3
ACAD_GROUP
350
D
3
ACAD_MLINESTYLE
350
17
0
DICTIONARY
5
D
100
AcDbDictionary
0
DICTIONARY
5
1A
330
C
100
AcDbDictionary
0
DICTIONARY
5
17
100
AcDbDictionary
0
ENDSEC
0
EOF
