0
SECTION
2
HEADER
9
$INSUNITS
70
4
9
$ACADVER
1
AC1014
9
$HANDSEED
5
FFFF
0
ENDSEC
0
SECTION
2
TABLES
0
TABLE
2
VPORT
5
8
100
AcDbSymbolTable
0
ENDTAB
0
TABLE
2
LTYPE
5
5
100
AcDbSymbolTable
0
LTYPE
5
14
100
AcDbSymbolTableRecord
100
AcDbLinetypeTableRecord
2
BYBLOCK
70
0
0
LTYPE
5
15
100
AcDbSymbolTableRecord
100
AcDbLinetypeTableRecord
2
BYLAYER
70
0
0
ENDTAB
0
TABLE
2
LAYER
5
2
100
AcDbSymbolTable
70
2
0
LAYER
5
50
100
AcDbSymbolTableRecord
100
AcDbLayerTableRecord
2
0
70
0
6
CONTINUOUS
0
ENDTAB
0
TABLE
2
STYLE
5
3
100
AcDbSymbolTable
70
1
0
STYLE
5
11
100
AcDbSymbolTableRecord
100
AcDbTextStyleTableRecord
2
STANDARD
70
0
0
ENDTAB
0
TABLE
2
VIEW
5
6
100
AcDbSymbolTable
70
0
0
ENDTAB
0
TABLE
2
UCS
5
7
100
AcDbSymbolTable
70
0
0
ENDTAB
0
TABLE
2
APPID
5
9
100
AcDbSymbolTable
70
2
0
APPID
5
12
100
AcDbSymbolTableRecord
100
AcDbRegAppTableRecord
2
ACAD
70
0
0
ENDTAB
0
TABLE
2
DIMSTYLE
5
A
100
AcDbSymbolTable
70
1
0
ENDTAB
0
TABLE
2
BLOCK_RECORD
5
1
100
AcDbSymbolTable
70
1
0
BLOCK_RECORD
5
1F
100
AcDbSymbolTableRecord
100
AcDbBlockTableRecord
2
*MODEL_SPACE
0
BLOCK_RECORD
5
1B
100
AcDbSymbolTableRecord
100
AcDbBlockTableRecord
2
*PAPER_SPACE
0
ENDTAB
0
ENDSEC
0
SECTION
2
BLOCKS
0
BLOCK
5
20
100
AcDbEntity
100
AcDbBlockBegin
2
*MODEL_SPACE
0
ENDBLK
5
21
100
AcDbEntity
100
AcDbBlockEnd
0
BLOCK
5
1C
100
AcDbEntity
100
AcDbBlockBegin
2
*PAPER_SPACE
0
ENDBLK
5
1D
100
AcDbEntity
100
AcDbBlockEnd
0
ENDSEC
0
SECTION
2
ENTITIES
0
LWPOLYLINE
5
100
100
AcDbEntity
8
0
100
AcDbPolyline
90
8
70
1
43
0.0
10
127.34999999999999
20
-7.0000000000000027
10
139.34999999999999
20
-7.0000000000000009
42
0.41421356237307294
10
140.34999999999999
20
-6.0000000000000009
10
140.34999999999999
20
5.9999999999999964
42
0.41421356237309537
10
139.34999999999999
20
7.0000000000000009
10
127.34999999999999
20
6.9999999999999973
42
0.41421356237309798
10
126.34999999999999
20
5.9999999999999973
10
126.34999999999999
20
-6
42
0.41421356237309764
0
LWPOLYLINE
5
101
100
AcDbEntity
8
0
100
AcDbPolyline
90
8
70
1
43
0.0
10
132.11250000000001
20
-64.150000000000034
42
-0.41421356237308721
10
131.11250000000001
20
-63.150000000000006
10
131.11250000000001
20
-51.150000000000006
42
-0.41421356237309503
10
132.11250000000001
20
-50.150000000000006
10
144.11249999999993
20
-50.150000000000013
42
-0.41421356237307161
10
145.11250000000001
20
-51.150000000000006
10
145.11250000000004
20
-63.150000000000006
42
-0.4142135623730846
10
144.1124999999999
20
-64.150000000000006
0
LWPOLYLINE
5
102
100
AcDbEntity
8
0
100
AcDbPolyline
90
8
70
1
43
0.0
10
216.83750000000003
20
-32.100000000000001
10
216.83750000000003
20
-44.100000000000001
42
0.41421356237307683
10
217.83749999999998
20
-45.100000000000037
10
229.83750000000001
20
-45.100000000000009
42
0.41421356237309243
10
230.83750000000003
20
-44.100000000000001
10
230.83750000000003
20
-32.100000000000001
42
0.41421356237310542
10
229.83750000000001
20
-31.100000000000023
10
217.83750000000001
20
-31.100000000000001
42
0.41421356237310153
0
LWPOLYLINE
5
103
100
AcDbEntity
8
0
100
AcDbPolyline
90
8
70
1
43
0.0
10
145.40000000000001
20
5.9999999999999973
10
145.40000000000001
20
-6
42
0.41421356237309764
10
146.40000000000001
20
-7.0000000000000027
10
158.40000000000001
20
-7.0000000000000009
42
0.41421356237307294
10
159.40000000000001
20
-6.0000000000000009
10
159.40000000000001
20
5.9999999999999964
42
0.41421356237309537
10
158.40000000000001
20
7.0000000000000009
10
146.40000000000001
20
6.9999999999999973
42
0.41421356237309798
0
LWPOLYLINE
5
104
100
AcDbEntity
8
0
100
AcDbPolyline
90
8
70
1
43
0.0
10
278.750000000005
20
-51.150000000004177
10
278.750000000005
20
-63.150000000004162
42
0.41421356237310802
10
279.750000000005
20
-64.150000000004169
10
291.75000000000489
20
-64.150000000004184
42
0.41421356237310542
10
292.75000000000483
20
-63.150000000004162
10
292.75000000000489
20
-51.150000000004177
42
0.4142135623730846
10
291.75000000000495
20
-50.150000000004184
10
279.750000000005
20
-50.150000000004184
42
0.41421356237304563
0
LWPOLYLINE
5
105
100
AcDbEntity
8
0
100
AcDbPolyline
90
8
70
1
43
0.0
10
291.75
20
-69.199999999999974
42
-0.41421356237305601
10
292.75
20
-70.199999999999989
10
292.75
20
-82.199999999999974
42
-0.41421356237305862
10
291.75
20
-83.199999999999989
10
279.75
20
-83.199999999999989
42
-0.41421356237309503
10
278.75
20
-82.199999999999974
10
278.75
20
-70.199999999999989
42
-0.41421356237309243
10
279.75
20
-69.199999999999989
0
LWPOLYLINE
5
106
100
AcDbEntity
8
0
100
AcDbPolyline
90
20
70
1
43
0.0
10
110.68124999999992
20
-83.2000000000005
10
139.34999999999999
20
-83.19999999999996
42
0.41421356237309503
10
140.34999999999999
20
-82.199999999999974
10
147.7812499999998
20
-82.200000000000358
42
0.4142135623730846
10
148.7812499999998
20
-83.200000000000344
10
165.54375000000195
20
-83.200000000002944
42
0.41421356237307422
10
166.54375000000192
20
-82.200000000000401
10
173.81875000000036
20
-82.200000000000557
42
0.41421356237308982
10
174.81875000000031
20
-81.200000000000557
10
174.81875000000031
20
-69.200000000000557
42
0.41421356237310025
10
173.81875000000034
20
-68.200000000000557
10
164.34424999999982
20
-68.200000000000358
42
0.41421356237314189
10
163.34424999999982
20
-69.199999999998212
10
150.9807500000019
20
-69.20000000000293
42
0.41421356237312362
10
149.98075000000193
20
-68.200000000002959
10
140.46824999999978
20
-68.200000000000344
42
0.41421356237309243
10
139.46824999999978
20
-69.200000000000358
10
110.68124999999992
20
-69.2000000000005
42
0.41421356237309503
10
109.68124999999992
20
-70.2000000000005
10
109.68124999999992
20
-82.2000000000005
42
0.41421356237313145
0
LWPOLYLINE
5
107
100
AcDbEntity
8
0
100
AcDbPolyline
90
8
70
1
43
0.0
10
149.875
20
-25.050000000000008
10
149.875
20
-13.050000000000001
42
0.41421356237307549
10
148.87500000000003
20
-12.049999999999997
10
136.875
20
-12.050000000000001
42
0.41421356237309698
10
135.875
20
-13.050000000000001
10
135.875
20
-25.050000000000008
42
0.41421356237308982
10
136.875
20
-26.050000000000011
10
148.875
20
-26.050000000000004
42
0.41421356237309503
0
LWPOLYLINE
5
108
100
AcDbEntity
8
0
100
AcDbPolyline
90
8
70
1
43
0.0
10
88.250000000000014
20
5.9999999999999973
10
88.250000000000014
20
-6
42
0.41421356237310575
10
89.250000000000028
20
-7.0000000000000107
10
101.25
20
-7.0000000000000009
42
0.41421356237308138
10
102.25000000000001
20
-6
10
102.25000000000001
20
5.9999999999999973
42
0.41421356237308721
10
101.25
20
6.9999999999999938
10
89.250000000000028
20
6.9999999999999973
42
0.41421356237308071
0
LWPOLYLINE
5
109
100
AcDbEntity
8
0
100
AcDbPolyline
90
8
70
1
43
0.0
10
253.65000000000003
20
-69.199999999999989
42
-0.41421356237309243
10
254.65000000000003
20
-70.199999999999989
10
254.65000000000003
20
-82.199999999999974
42
-0.41421356237309503
10
253.65000000000003
20
-83.199999999999989
10
241.65000000000006
20
-83.200000000000003
42
-0.41421356237305862
10
240.65000000000001
20
-82.199999999999974
10
240.65000000000003
20
-70.199999999999989
42
-0.41421356237305601
10
241.65000000000003
20
-69.199999999999989
0
LWPOLYLINE
5
110
100
AcDbEntity
8
0
100
AcDbPolyline
90
8
70
1
43
0.0
10
13.050000000000001
20
-7.0000000000000018
42
-0.41421356237309404
10
12.050000000000001
20
-6
10
12.050000000000001
20
5.9999999999999973
42
-0.4142135623730947
10
13.050000000000001
20
6.9999999999999973
10
25.050000000000008
20
6.9999999999999982
42
-0.41421356237309404
10
26.050000000000004
20
5.9999999999999964
10
26.050000000000004
20
-6
42
-0.41421356237309082
10
25.050000000000008
20
-7.0000000000000009
0
LWPOLYLINE
5
111
100
AcDbEntity
8
0
100
AcDbPolyline
90
8
70
1
43
0.0
10
155.92500000000001
20
-26.050000000000001
10
167.92500000000001
20
-26.050000000000004
42
0.41421356237306772
10
168.92500000000001
20
-25.050000000000008
10
168.92500000000001
20
-13.050000000000001
42
0.41421356237305729
10
167.92500000000001
20
-12.049999999999986
10
155.92500000000001
20
-12.050000000000001
42
0.41421356237307944
10
154.9249999999999
20
-13.050000000000001
10
154.9249999999999
20
-25.050000000000008
42
0.4142135623730937
0
CIRCLE
5
112
100
AcDbEntity
8
0
100
AcDbCircle
10
277.75000000391378
20
12.520295130448982
30
0
40
1.4999999999999858
210
0
220
0
230
1
0
LWPOLYLINE
5
113
100
AcDbEntity
8
0
100
AcDbPolyline
90
8
70
1
43
0.0
10
186.97500000000002
20
-12.049999999999979
10
174.97499999999999
20
-12.050000000000001
42
0.4142135623731022
10
173.97500000000002
20
-13.050000000000001
10
173.97500000000002
20
-25.050000000000008
42
0.41421356237308721
10
174.97499999999999
20
-26.050000000000033
10
186.97500000000002
20
-26.050000000000004
42
0.41421356237310281
10
187.97499999999999
20
-25.050000000000008
10
187.97499999999999
20
-13.050000000000001
42
0.41421356237308854
0
LWPOLYLINE
5
114
100
AcDbEntity
8
0
100
AcDbPolyline
90
8
70
1
43
0.0
10
19.193750000000009
20
-70.200000000000031
42
-0.41421356237309892
10
20.193750000000001
20
-69.200000000000045
10
34.575000000000017
20
-69.199999999999989
42
-0.41421356237309631
10
35.575000000000003
20
-70.199999999999989
10
35.575000000000017
20
-82.199999999999989
42
-0.41421356237308854
10
34.575000000000003
20
-83.199999999999989
10
20.193750000000001
20
-83.20000000000006
42
-0.41421356237308071
10
19.193750000000001
20
-82.200000000000045
0
LWPOLYLINE
5
115
100
AcDbEntity
8
0
100
AcDbPolyline
90
8
70
1
43
0.0
10
172.6875
20
-31.099999999999987
10
160.6875
20
-31.100000000000001
42
0.41421356237309243
10
159.6875
20
-32.100000000000001
10
159.6875
20
-44.100000000000001
42
0.41421356237312101
10
160.6875
20
-45.099999999999987
10
172.6875
20
-45.100000000000009
42
0.41421356237305601
10
173.68750000000003
20
-44.100000000000001
10
173.68750000000003
20
-32.100000000000001
42
0.4142135623730599
0
LWPOLYLINE
5
116
100
AcDbEntity
8
0
100
AcDbPolyline
90
8
70
1
43
0.0
10
184.5
20
-7.0000000000000266
10
196.50000000000003
20
-7.0000000000000009
42
0.41421356237310253
10
197.5
20
-6.0000000000000009
10
197.5
20
5.9999999999999964
42
0.41421356237308915
10
196.50000000000003
20
7.0000000000000231
10
184.5
20
6.9999999999999973
42
0.41421356237310253
10
183.5
20
5.9999999999999973
10
183.5
20
-6
42
0.41421356237308915
0
LWPOLYLINE
5
117
100
AcDbEntity
8
0
100
AcDbPolyline
90
8
70
1
43
0.0
10
208.31249999999997
20
-83.200000000000003
10
222.69374999999999
20
-83.20000000000006
42
0.41421356237305862
10
223.69375000000002
20
-82.200000000000045
10
223.69375000000002
20
-70.200000000000031
42
0.41421356237305601
10
222.69374999999999
20
-69.200000000000031
10
208.31250000000006
20
-69.199999999999989
42
0.41421356237311585
10
207.31250000000006
20
-70.199999999999989
10
207.31250000000003
20
-82.199999999999974
42
0.41421356237307944
0
LWPOLYLINE
5
118
100
AcDbEntity
8
0
100
AcDbPolyline
90
8
70
1
43
0.0
10
97.77500000000002
20
-13.050000000000001
42
-0.41421356237309698
10
98.775000000000006
20
-12.050000000000001
10
110.77500000000001
20
-12.05000000000002
42
-0.41421356237311646
10
111.77500000000002
20
-13.050000000000001
10
111.77500000000003
20
-25.050000000000008
42
-0.41421356237311585
10
110.77500000000001
20
-26.050000000000004
10
98.775000000000006
20
-26.050000000000022
42
-0.41421356237308982
10
97.77500000000002
20
-25.050000000000008
0
LWPOLYLINE
5
119
100
AcDbEntity
8
0
100
AcDbPolyline
90
8
70
1
43
0.0
10
22.574999999999999
20
-26.050000000000004
42
-0.41421356237309764
10
21.575000000000003
20
-25.050000000000008
10
21.574999999999996
20
-13.050000000000001
42
-0.41421356237309176
10
22.574999999999999
20
-12.050000000000001
10
34.575000000000017
20
-12.050000000000002
42
-0.41421356237308915
10
35.575000000000003
20
-13.050000000000001
10
35.575000000000003
20
-25.050000000000008
42
-0.4142135623730937
10
34.575000000000003
20
-26.050000000000004
0
LWPOLYLINE
5
120
100
AcDbEntity
8
0
100
AcDbPolyline
90
8
70
1
43
0.0
10
153.63749999999999
20
-31.100000000000001
42
-0.41421356237309631
10
154.63749999999999
20
-32.100000000000001
10
154.63749999999999
20
-44.100000000000001
42
-0.41421356237309764
10
153.63749999999999
20
-45.100000000000009
10
141.63749999999999
20
-45.09999999999998
42
-0.41421356237311585
10
140.63749999999999
20
-44.100000000000001
10
140.63749999999999
20
-32.100000000000001
42
-0.41421356237310025
10
141.63749999999999
20
-31.100000000000001
0
LWPOLYLINE
5
121
100
AcDbEntity
8
0
100
AcDbPolyline
90
8
70
1
43
0.0
10
188.26249999999999
20
-51.150000000000006
10
188.26249999999999
20
-63.150000000000006
42
0.41421356237306123
10
189.26249999999999
20
-64.150000000000034
10
201.26249999999999
20
-64.150000000000006
42
0.41421356237312884
10
202.26249999999999
20
-63.150000000000006
10
202.26249999999999
20
-51.150000000000006
42
0.41421356237310542
10
201.26249999999999
20
-50.15000000000002
10
189.26249999999999
20
-50.150000000000006
42
0.414213562373069
0
LWPOLYLINE
5
122
100
AcDbEntity
8
0
100
AcDbPolyline
90
8
70
1
43
0.0
10
73.96250000000002
20
-51.150000000000006
42
-0.41421356237310281
10
74.962500000000006
20
-50.150000000000006
10
86.962500000000006
20
-50.150000000000006
42
-0.41421356237309503
10
87.962500000000006
20
-51.150000000000006
10
87.962500000000006
20
-63.150000000000006
42
-0.41421356237308721
10
86.962500000000006
20
-64.150000000000006
10
74.962500000000006
20
-64.150000000000006
42
-0.41421356237310281
10
73.96250000000002
20
-63.150000000000006
0
LWPOLYLINE
5
123
100
AcDbEntity
8
0
100
AcDbPolyline
90
8
70
1
43
0.0
10
-2.2374999999999901
20
-13.050000000000001
10
-2.2374999999999901
20
-25.050000000000008
42
0.41421356237309476
10
-1.2374999999999936
20
-26.050000000000004
10
10.762499999999999
20
-26.050000000000004
42
0.4142135623730937
10
11.762499999999996
20
-25.050000000000008
10
11.762499999999999
20
-13.050000000000001
42
0.4142135623730937
10
10.762499999999999
20
-12.050000000000001
10
-1.2374999999999956
20
-12.050000000000001
42
0.41421356237309392
0
LWPOLYLINE
5
124
100
AcDbEntity
8
0
100
AcDbPolyline
90
8
70
1
43
0.0
10
232.125
20
-26.05000000000004
42
-0.41421356237304818
10
231.125
20
-25.050000000000008
10
231.12500000000006
20
-13.050000000000001
42
-0.41421356237305668
10
232.12500000000003
20
-12.050000000000001
10
244.125
20
-12.050000000000018
42
-0.41421356237310675
10
245.12500000000003
20
-13.050000000000001
10
245.12500000000006
20
-25.050000000000008
42
-0.41421356237310414
10
244.125
20
-26.050000000000004
0
LWPOLYLINE
5
125
100
AcDbEntity
8
0
100
AcDbPolyline
90
8
70
1
43
0.0
10
225.07499999999999
20
-12.050000000000022
10
213.07500000000002
20
-12.050000000000001
42
0.41421356237305668
10
212.07499999999999
20
-13.050000000000001
10
212.07499999999999
20
-25.050000000000008
42
0.41421356237305862
10
213.07500000000002
20
-26.050000000000018
10
225.07499999999999
20
-26.050000000000004
42
0.41421356237310414
10
226.07500000000002
20
-25.050000000000008
10
226.07500000000002
20
-13.050000000000001
42
0.41421356237310675
0
LWPOLYLINE
5
126
100
AcDbEntity
8
0
100
AcDbPolyline
90
8
70
1
43
0.0
10
116.82500000000002
20
-13.050000000000001
42
-0.4142135623730846
10
117.825
20
-12.050000000000001
10
129.82500000000002
20
-12.049999999999983
42
-0.41421356237307549
10
130.82499999999999
20
-13.050000000000001
10
130.82499999999999
20
-25.050000000000008
42
-0.41421356237309503
10
129.82499999999999
20
-26.050000000000004
10
117.825
20
-26.050000000000004
42
-0.41421356237309503
10
116.82500000000002
20
-25.050000000000008
0
LWPOLYLINE
5
127
100
AcDbEntity
8
0
100
AcDbPolyline
90
8
70
1
43
0.0
10
64.437500000000014
20
-32.100000000000001
42
-0.41421356237308854
10
65.437500000000014
20
-31.100000000000001
10
77.437500000000028
20
-31.100000000000001
42
-0.41421356237309115
10
78.437500000000014
20
-32.100000000000001
10
78.437500000000014
20
-44.100000000000001
42
-0.41421356237309764
10
77.437500000000028
20
-45.100000000000009
10
65.437500000000014
20
-45.099999999999994
42
-0.41421356237310802
10
64.437500000000014
20
-44.100000000000001
0
LWPOLYLINE
5
128
100
AcDbEntity
8
0
100
AcDbPolyline
90
8
70
1
43
0.0
10
70.200000000000003
20
-6.9999999999999982
10
82.200000000000003
20
-7.0000000000000009
42
0.41421356237307294
10
83.200000000000003
20
-6
10
83.200000000000003
20
5.9999999999999973
42
0.4142135623730947
10
82.200000000000003
20
7.0000000000000009
10
70.200000000000003
20
6.9999999999999973
42
0.41421356237309631
10
69.200000000000003
20
5.9999999999999973
10
69.200000000000003
20
-6
42
0.4142135623730957
0
LWPOLYLINE
5
129
100
AcDbEntity
8
0
100
AcDbPolyline
90
8
70
1
43
0.0
10
67.912500000000023
20
-50.150000000000006
10
55.912500000000009
20
-50.150000000000006
42
0.41421356237309503
10
54.912500000000009
20
-51.150000000000006
10
54.912500000000009
20
-63.150000000000006
42
0.41421356237309243
10
55.912500000000009
20
-64.150000000000006
10
67.912500000000023
20
-64.150000000000006
42
0.41421356237310802
10
68.912500000000009
20
-63.150000000000006
10
68.912500000000009
20
-51.150000000000006
42
0.41421356237309503
0
LWPOLYLINE
5
130
100
AcDbEntity
8
0
100
AcDbPolyline
90
8
70
1
43
0.0
10
151.16250000000002
20
-64.150000000000006
10
163.16249999999999
20
-64.150000000000006
42
0.4142135623730846
10
164.16249999999997
20
-63.150000000000006
10
164.16250000000002
20
-51.150000000000006
42
0.41421356237305862
10
163.16249999999999
20
-50.149999999999991
10
151.16250000000002
20
-50.150000000000006
42
0.41421356237310802
10
150.16249999999999
20
-51.150000000000006
10
150.16249999999999
20
-63.150000000000006
42
0.41421356237309243
0
LWPOLYLINE
5
131
100
AcDbEntity
8
0
100
AcDbPolyline
90
8
70
1
43
0.0
10
10.762499999999999
20
-69.199999999999989
10
-3.618749999999995
20
-69.200000000000045
42
0.41421356237309825
10
-4.6187499999999915
20
-70.200000000000031
10
-4.618749999999995
20
-82.200000000000045
42
0.41421356237308071
10
-3.618749999999995
20
-83.20000000000006
10
10.762499999999999
20
-83.199999999999989
42
0.41421356237310542
10
11.762500000000014
20
-82.199999999999974
10
11.762499999999999
20
-70.199999999999989
42
0.41421356237309959
0
CIRCLE
5
132
100
AcDbEntity
8
0
100
AcDbCircle
10
7.999985233712378
20
12.520295130449099
30
0
40
1.4999999999999847
210
0
220
0
230
1
0
LWPOLYLINE
5
133
100
AcDbEntity
8
0
100
AcDbPolyline
90
8
70
1
43
0.0
10
36.862500000000011
20
-64.150000000000006
42
-0.41421356237309243
10
35.862500000000011
20
-63.150000000000006
10
35.862500000000011
20
-51.150000000000006
42
-0.41421356237309503
10
36.862500000000011
20
-50.150000000000006
10
48.862500000000004
20
-50.150000000000006
42
-0.41421356237309503
10
49.862499999999997
20
-51.150000000000006
10
49.862499999999997
20
-63.150000000000006
42
-0.41421356237310802
10
48.862500000000004
20
-64.150000000000006
0
LWPOLYLINE
5
134
100
AcDbEntity
8
0
100
AcDbPolyline
90
16
70
1
43
0.0
10
242.86200000000002
20
-7.9999999999999805
42
-0.41421356237310575
10
241.86199999999999
20
-7.0000000000000009
10
241.65000000000492
20
-7.0000000000042153
42
-0.41421356237308915
10
240.65000000000495
20
-6.0000000000041851
10
240.65000000000495
20
5.9999999999958122
42
-0.4142135623731022
10
241.65000000000492
20
6.9999999999958131
10
272.70000000000499
20
6.9999999999958016
42
-0.41421356237308754
10
273.70000000000493
20
5.9999999999958131
10
273.70000000000493
20
-6.0000000000041833
42
-0.41421356237307522
10
272.70000000000499
20
-7.0000000000041842
10
272.48800000000006
20
-7.0000000000000009
42
-0.41421356237310447
10
271.488
20
-8
10
266.738
20
-7.9999999999999991
42
-0.41421356237312168
10
265.738
20
-7.0000000000000009
10
248.61199999999999
20
-7.0000000000000009
42
-0.41421356237304108
10
247.61200000000002
20
-8
0
CIRCLE
5
135
100
AcDbEntity
8
0
100
AcDbCircle
10
277.7500000039247
20
-88.73966728565135
30
0
40
1.4999999999999858
210
0
220
0
230
1
0
CIRCLE
5
136
100
AcDbEntity
8
0
100
AcDbCircle
10
97.916637496034213
20
-88.73966728565135
30
0
40
1.4999999999999858
210
0
220
0
230
1
0
LWPOLYLINE
5
137
100
AcDbEntity
8
0
100
AcDbPolyline
90
8
70
1
43
0.0
10
194.02500000000003
20
-26.049999999999983
10
206.02500000000003
20
-26.050000000000004
42
0.41421356237310281
10
207.02500000000001
20
-25.050000000000008
10
207.02500000000001
20
-13.050000000000001
42
0.41421356237308854
10
206.02500000000003
20
-12.049999999999979
10
194.02500000000003
20
-12.050000000000001
42
0.4142135623730937
10
193.02500000000003
20
-13.050000000000001
10
193.02500000000003
20
-25.050000000000008
42
0.41421356237310542
0
LWPOLYLINE
5
138
100
AcDbEntity
8
0
100
AcDbPolyline
90
8
70
1
43
0.0
10
44.100000000000001
20
6.9999999999999929
42
-0.41421356237308721
10
45.100000000000009
20
5.9999999999999964
10
45.100000000000009
20
-6
42
-0.41421356237309342
10
44.100000000000001
20
-7.0000000000000009
10
32.099999999999994
20
-6.9999999999999973
42
-0.41421356237308721
10
31.100000000000001
20
-6.0000000000000009
10
31.100000000000001
20
5.9999999999999973
42
-0.41421356237310186
10
32.100000000000001
20
6.9999999999999973
0
LWPOLYLINE
5
139
100
AcDbEntity
8
0
100
AcDbPolyline
90
8
70
1
43
0.0
10
40.625
20
-13.050000000000001
42
-0.41421356237308854
10
41.625000000000007
20
-12.050000000000001
10
53.625000000000007
20
-12.049999999999994
42
-0.4142135623730957
10
54.625000000000014
20
-13.050000000000001
10
54.625000000000021
20
-25.050000000000008
42
-0.4142135623730846
10
53.625000000000007
20
-26.050000000000004
10
41.625
20
-26.050000000000004
42
-0.41421356237308982
10
40.625
20
-25.050000000000008
0
LWPOLYLINE
5
140
100
AcDbEntity
8
0
100
AcDbPolyline
90
8
70
1
43
0.0
10
116.53750000000001
20
-44.100000000000001
10
116.53750000000001
20
-32.100000000000001
42
0.41421356237309631
10
115.53750000000001
20
-31.100000000000001
10
103.53749999999999
20
-31.100000000000001
42
0.4142135623730846
10
102.53749999999999
20
-32.100000000000001
10
102.53749999999999
20
-44.100000000000001
42
0.41421356237309503
10
103.53749999999999
20
-45.099999999999994
10
115.53750000000001
20
-45.100000000000009
42
0.41421356237309764
0
LWPOLYLINE
5
141
100
AcDbEntity
8
0
100
AcDbPolyline
90
8
70
1
43
0.0
10
58.38750000000001
20
-31.100000000000023
42
-0.41421356237309631
10
59.387499999999989
20
-32.100000000000001
10
59.387499999999989
20
-44.100000000000001
42
-0.41421356237309764
10
58.38750000000001
20
-45.100000000000009
10
46.387500000000003
20
-45.099999999999994
42
-0.41421356237310542
10
45.387500000000003
20
-44.100000000000001
10
45.387500000000003
20
-32.100000000000001
42
-0.41421356237308854
10
46.38750000000001
20
-31.100000000000001
0
LWPOLYLINE
5
142
100
AcDbEntity
8
0
100
AcDbPolyline
90
8
70
1
43
0.0
10
73.67500000000004
20
-25.050000000000008
42
-0.41421356237309243
10
72.675000000000026
20
-26.050000000000004
10
60.67499999999999
20
-26.049999999999997
42
-0.41421356237310281
10
59.675000000000011
20
-25.050000000000008
10
59.675000000000011
20
-13.050000000000001
42
-0.41421356237309631
10
60.67499999999999
20
-12.050000000000001
10
72.675000000000026
20
-12.050000000000004
42
-0.41421356237310802
10
73.67500000000004
20
-13.050000000000001
0
LWPOLYLINE
5
143
100
AcDbEntity
8
0
100
AcDbPolyline
90
30
70
1
43
0.0
10
235.88750000000502
20
-32.100000000004208
42
-0.41421356237308593
10
236.88750000000496
20
-31.100000000004215
10
239.48074999999955
20
-31.100000000004222
42
-0.41421356237310936
10
240.48074999999955
20
-30.099999999999682
10
245.23074999999943
20
-30.099999999999643
42
-0.41421356237309243
10
246.23074999999955
20
-31.099999999999682
10
257.31875000000491
20
-31.099999999999692
10
257.31875000000491
20
-26.050000000000004
10
255.9375
20
-26.050000000000004
42
-0.41421356237312101
10
254.93750000000003
20
-25.050000000000008
10
254.93750000000003
20
-13.050000000000001
42
-0.41421356237304169
10
255.9375
20
-12.050000000000001
10
267.9375
20
-12.050000000000001
42
-0.41421356237312235
10
268.9375
20
-13.050000000000001
10
269.31875000000491
20
-13.049999999999976
42
-0.41421356237305729
10
270.31875000000491
20
-14.050000000000002
10
270.31875000000491
20
-19.012000000004214
42
-0.41421356237305668
10
269.31875000000491
20
-20.012000000004214
10
268.9375
20
-20.012000000004214
10
268.9375
20
-21.575000000004202
10
270.31875000000491
20
-21.575000000004181
42
-0.41421356237308721
10
271.31875000000491
20
-22.575000000004202
10
271.31875000000491
20
-34.575000000004209
42
-0.41421356237310025
10
270.31875000000491
20
-35.575000000004202
10
270.31875000000491
20
-43.099999999999696
42
-0.41421356237306639
10
269.31875000000491
20
-44.099999999999689
10
261.79374999999948
20
-44.099999999999675
42
-0.41421356237312884
10
260.79374999999948
20
-45.099999999999682
10
236.88750000000525
20
-45.100000000004144
42
-0.41421356237312101
10
235.88750000000502
20
-44.100000000004222
0
LWPOLYLINE
5
144
100
AcDbEntity
8
0
100
AcDbPolyline
90
8
70
1
43
0.0
10
125.06250000000001
20
-50.149999999999999
42
-0.41421356237309764
10
126.06250000000001
20
-51.150000000000006
10
126.0625
20
-63.150000000000006
42
-0.41421356237310281
10
125.06250000000001
20
-64.150000000000006
10
113.06250000000003
20
-64.150000000000034
42
-0.41421356237309243
10
112.0625
20
-63.150000000000006
10
112.0625
20
-51.150000000000006
42
-0.41421356237309503
10
113.0625
20
-50.150000000000006
0
LWPOLYLINE
5
145
100
AcDbEntity
8
0
100
AcDbPolyline
90
8
70
1
43
0.0
10
215.55000000000004
20
7.0000000000000266
42
-0.41421356237308915
10
216.55000000000001
20
5.9999999999999964
10
216.55000000000001
20
-6
42
-0.41421356237310253
10
215.55000000000004
20
-7.0000000000000009
10
203.55000000000004
20
-6.9999999999999822
42
-0.41421356237310641
10
202.55000000000001
20
-6
10
202.55000000000001
20
5.9999999999999973
42
-0.41421356237309342
10
203.55000000000004
20
6.9999999999999973
0
LWPOLYLINE
5
146
100
AcDbEntity
8
0
100
AcDbPolyline
90
8
70
1
43
0.0
10
58.38750000000001
20
-69.200000000000003
42
-0.41421356237309503
10
59.387499999999989
20
-70.199999999999989
10
59.387500000000003
20
-82.199999999999989
42
-0.41421356237307422
10
58.38750000000001
20
-83.199999999999989
10
44.006249999999994
20
-83.20000000000006
42
-0.41421356237308982
10
43.006250000000001
20
-82.200000000000045
10
43.006250000000009
20
-70.200000000000031
42
-0.41421356237307944
10
44.006250000000009
20
-69.200000000000045
0
LWPOLYLINE
5
147
100
AcDbEntity
8
0
100
AcDbPolyline
90
8
70
1
43
0.0
10
198.78749999999997
20
-45.100000000000023
42
-0.41421356237307683
10
197.78750000000002
20
-44.100000000000001
10
197.78750000000002
20
-32.100000000000001
42
-0.41421356237310153
10
198.78749999999999
20
-31.100000000000001
10
210.78749999999999
20
-31.100000000000026
42
-0.41421356237310542
10
211.78750000000002
20
-32.100000000000001
10
211.78750000000002
20
-44.100000000000001
42
-0.41421356237309243
10
210.78749999999999
20
-45.100000000000009
0
CIRCLE
5
148
100
AcDbEntity
8
0
100
AcDbCircle
10
7.9999852337232946
20
-88.739667285650995
30
0
40
1.4999999999999858
210
0
220
0
230
1
0
LWPOLYLINE
5
149
100
AcDbEntity
8
0
100
AcDbPolyline
90
8
70
1
43
0.0
10
83.487500000000011
20
-32.100000000000001
10
83.487500000000011
20
-44.100000000000001
42
0.41421356237309764
10
84.487500000000011
20
-45.100000000000009
10
96.487499999999997
20
-45.100000000000009
42
0.41421356237307944
10
97.487500000000011
20
-44.100000000000001
10
97.487500000000011
20
-32.100000000000001
42
0.41421356237311585
10
96.487499999999997
20
-31.100000000000009
10
84.487500000000026
20
-31.100000000000001
42
0.41421356237309503
0
LWPOLYLINE
5
150
100
AcDbEntity
8
0
100
AcDbPolyline
90
8
70
1
43
0.0
10
221.3125
20
-63.150000000000006
42
-0.41421356237312884
10
220.3125
20
-64.150000000000006
10
208.3125
20
-64.150000000000034
42
-0.41421356237308721
10
207.31250000000003
20
-63.150000000000006
10
207.31250000000003
20
-51.150000000000006
42
-0.41421356237310281
10
208.3125
20
-50.150000000000006
10
220.3125
20
-50.15000000000002
42
-0.41421356237310542
10
221.3125
20
-51.150000000000006
0
LWPOLYLINE
5
151
100
AcDbEntity
8
0
100
AcDbPolyline
90
8
70
1
43
0.0
10
182.21250000000001
20
-50.14999999999997
42
-0.41421356237304818
10
183.21250000000003
20
-51.150000000000006
10
183.21249999999998
20
-63.150000000000006
42
-0.4142135623730846
10
182.21250000000001
20
-64.150000000000006
10
170.21250000000003
20
-64.150000000000006
42
-0.41421356237311063
10
169.21250000000001
20
-63.150000000000006
10
169.21250000000001
20
-51.150000000000006
42
-0.41421356237309243
10
170.21250000000003
20
-50.150000000000006
0
LWPOLYLINE
5
152
100
AcDbEntity
8
0
100
AcDbPolyline
90
8
70
1
43
0.0
10
272.69999999999999
20
-69.199999999999989
10
260.7000000000001
20
-69.199999999999989
42
0.41421356237314705
10
259.69999999999999
20
-70.199999999999989
10
259.69999999999999
20
-82.199999999999974
42
0.41421356237311063
10
260.7000000000001
20
-83.199999999999946
10
272.69999999999999
20
-83.199999999999989
42
0.41421356237305862
10
273.69999999999999
20
-82.199999999999974
10
273.69999999999999
20
-70.199999999999989
42
0.41421356237305601
0
LWPOLYLINE
5
153
100
AcDbEntity
8
0
100
AcDbPolyline
90
12
70
1
43
0.0
10
265.34425000000499
20
-64.150000000000006
42
-0.41421356237311063
10
264.34425000000493
20
-65.150000000004198
10
259.59425000000493
20
-65.150000000004198
42
-0.41421356237304302
10
258.59425000000493
20
-64.150000000004184
10
258.59425000000493
20
-52.150000000004191
42
-0.41421356237313145
10
259.59425000000493
20
-51.150000000004205
10
259.69999999999999
20
-51.150000000000006
42
-0.41421356237312884
10
260.7000000000001
20
-50.150000000000034
10
272.69999999999993
20
-50.150000000000006
42
-0.414213562373069
10
273.69999999999999
20
-51.150000000000006
10
273.69999999999999
20
-63.150000000000006
42
-0.41421356237306123
10
272.69999999999999
20
-64.150000000000034
0
CIRCLE
5
154
100
AcDbEntity
8
0
100
AcDbCircle
10
187.83334774167213
20
-88.739667285650995
30
0
40
1.5000000000000568
210
0
220
0
230
1
0
LWPOLYLINE
5
155
100
AcDbEntity
8
0
100
AcDbPolyline
90
8
70
1
43
0.0
10
279.75
20
-6.9999999999999911
42
-0.41421356237310608
10
278.75
20
-6.0000000000000098
10
278.75
20
5.9999999999999964
42
-0.4142135623730937
10
279.75
20
6.9999999999999973
10
291.75
20
7.0000000000000275
42
-0.41421356237305795
10
292.75
20
5.9999999999999973
10
292.75
20
-6.0000000000000089
42
-0.41421356237306772
10
291.75
20
-7.0000000000000089
0
CIRCLE
5
156
100
AcDbEntity
8
0
100
AcDbCircle
10
97.916637496023327
20
12.520295130448982
30
0
40
1.4999999999999858
210
0
220
0
230
1
0
LWPOLYLINE
5
157
100
AcDbEntity
8
0
100
AcDbPolyline
90
8
70
1
43
0.0
10
234.60000000000002
20
6.999999999999976
10
222.60000000000002
20
6.9999999999999982
42
0.41421356237306772
10
221.59999999999999
20
5.9999999999999964
10
221.59999999999999
20
-6.0000000000000009
42
0.41421356237305795
10
222.60000000000002
20
-7.0000000000000151
10
234.60000000000002
20
-7.0000000000000009
42
0.4142135623731048
10
235.60000000000002
20
-6
10
235.60000000000002
20
5.9999999999999973
42
0.41421356237310575
0
LWPOLYLINE
5
158
100
AcDbEntity
8
0
100
AcDbPolyline
90
8
70
1
43
0.0
10
93.012499999999989
20
-51.150000000000006
42
-0.41421356237312101
10
94.012500000000017
20
-50.150000000000006
10
106.0125
20
-50.150000000000013
42
-0.41421356237308721
10
107.01250000000002
20
-51.150000000000006
10
107.01250000000002
20
-63.150000000000006
42
-0.41421356237309243
10
106.0125
20
-64.150000000000006
10
94.012500000000017
20
-64.150000000000006
42
-0.41421356237309764
10
93.012500000000017
20
-63.150000000000006
0
LWPOLYLINE
5
159
100
AcDbEntity
8
0
100
AcDbPolyline
90
8
70
1
43
0.0
10
135.58750000000001
20
-44.100000000000001
42
-0.41421356237309764
10
134.58750000000003
20
-45.100000000000009
10
122.58750000000001
20
-45.099999999999994
42
-0.41421356237309503
10
121.58750000000001
20
-44.100000000000001
10
121.58750000000001
20
-32.100000000000001
42
-0.4142135623730846
10
122.58750000000001
20
-31.100000000000001
10
134.58750000000003
20
-31.100000000000001
42
-0.41421356237309631
10
135.58750000000001
20
-32.100000000000001
0
LWPOLYLINE
5
160
100
AcDbEntity
8
0
100
AcDbPolyline
90
8
70
1
43
0.0
10
92.725000000000009
20
-25.050000000000008
42
-0.41421356237312101
10
91.724999999999994
20
-26.050000000000004
10
79.725000000000023
20
-26.050000000000004
42
-0.41421356237309243
10
78.725000000000023
20
-25.050000000000008
10
78.725000000000023
20
-13.050000000000001
42
-0.41421356237308854
10
79.725000000000023
20
-12.050000000000001
10
91.724999999999994
20
-12.049999999999999
42
-0.41421356237309698
10
92.724999999999994
20
-13.050000000000001
0
LWPOLYLINE
5
161
100
AcDbEntity
8
0
100
AcDbPolyline
90
8
70
1
43
0.0
10
278.75
20
-32.100000000000001
42
-0.41421356237310675
10
279.75
20
-31.100000000000001
10
291.75
20
-31.099999999999966
42
-0.4142135623730599
10
292.75
20
-32.100000000000001
10
292.75
20
-44.100000000000001
42
-0.41421356237305601
10
291.75
20
-45.100000000000009
10
279.75
20
-45.100000000000009
42
-0.41421356237309243
10
278.75
20
-44.100000000000001
0
LWPOLYLINE
5
162
100
AcDbEntity
8
0
100
AcDbPolyline
90
16
70
1
43
0.0
10
30.812500000004892
20
-63.150000000004162
10
30.812500000004892
20
-51.150000000004177
42
0.41421356237309631
10
29.812500000004896
20
-50.150000000004184
10
-3.6187499999951065
20
-50.150000000004184
42
0.41421356237309276
10
-4.6187499999951065
20
-51.150000000004177
10
-4.6187499999951083
20
-63.150000000004162
42
0.41421356237310369
10
-3.61874999999511
20
-64.150000000004184
10
-3.4067499999999971
20
-64.150000000004184
42
0.41421356237309404
10
-2.4067499999999948
20
-65.150000000000006
10
2.3432500000000025
20
-65.150000000000006
42
0.41421356237309581
10
3.3432499999999976
20
-64.150000000000006
10
20.469249999999999
20
-64.150000000000006
42
0.41421356237308593
10
21.469249999999995
20
-65.150000000000006
10
26.219250000000002
20
-65.150000000000006
42
0.41421356237309115
10
27.219250000000006
20
-64.149999999999494
10
29.812500000004896
20
-64.150000000004184
42
0.41421356237309243
0
CIRCLE
5
163
100
AcDbEntity
8
0
100
AcDbCircle
10
187.83334774166133
20
12.520295130449099
30
0
40
1.5000000000000568
210
0
220
0
230
1
0
LWPOLYLINE
5
164
100
AcDbEntity
8
0
100
AcDbPolyline
90
8
70
1
43
0.0
10
6.9999999999999929
20
-6
10
6.9999999999999929
20
5.9999999999999973
42
0.41421356237309764
10
5.9999999999999964
20
6.9999999999999982
10
-5.9999999999999964
20
6.9999999999999973
42
0.41421356237309537
10
-6.9999999999999929
20
5.9999999999999973
10
-6.9999999999999973
20
-6
42
0.4142135623730957
10
-5.9999999999999964
20
-7.0000000000000009
10
6.0000000000000036
20
-7.0000000000000009
42
0.41421356237309342
0
LWPOLYLINE
5
165
100
AcDbEntity
8
0
100
AcDbPolyline
90
8
70
1
43
0.0
10
26.337499999999999
20
-32.100000000000001
42
-0.41421356237310281
10
27.337500000000002
20
-31.100000000000001
10
39.337499999999999
20
-31.099999999999998
42
-0.41421356237310281
10
40.337500000000006
20
-32.100000000000001
10
40.33750000000002
20
-44.100000000000001
42
-0.4142135623730846
10
39.337499999999999
20
-45.100000000000009
10
27.337500000000006
20
-45.099999999999994
42
-0.41421356237310802
10
26.337499999999999
20
-44.100000000000001
0
LWPOLYLINE
5
166
100
AcDbEntity
8
0
100
AcDbPolyline
90
8
70
1
43
0.0
10
-3.6187499999951065
20
-45.100000000004208
42
-0.41421356237309992
10
-4.6187499999951083
20
-44.100000000004222
10
-4.6187499999951065
20
-32.100000000004208
42
-0.41421356237309598
10
-3.6187499999951056
20
-31.100000000004215
10
13.143750000000001
20
-31.099999999999998
42
-0.41421356237310414
10
14.143750000000001
20
-32.100000000000001
10
14.143749999999997
20
-44.100000000000001
42
-0.41421356237308721
10
13.143750000000001
20
-45.100000000000009
0
LWPOLYLINE
5
167
100
AcDbEntity
8
0
100
AcDbPolyline
90
12
70
1
43
0.0
10
241.46825000000493
20
-64.150000000004184
10
256.03125000000495
20
-64.150000000004184
42
0.41421356237311846
10
257.031250000005
20
-63.150000000004162
10
257.031250000005
20
-51.150000000004177
42
0.41421356237312362
10
256.03125000000495
20
-50.149999999999999
10
234.50625000000002
20
-50.150000000000006
42
0.41421356237309243
10
233.50625000000002
20
-51.150000000000006
10
233.50625000000002
20
-63.150000000000006
42
0.41421356237311063
10
234.50625000000002
20
-64.149999999999991
10
234.71825000000493
20
-64.150000000000006
42
0.41421356237311063
10
235.71825000000496
20
-65.150000000004198
10
240.46825000000496
20
-65.150000000004184
42
0.41421356237304302
0
LWPOLYLINE
5
168
100
AcDbEntity
8
0
100
AcDbPolyline
90
8
70
1
43
0.0
10
291.75
20
-12.049999999999986
10
279.75
20
-12.050000000000001
42
0.4142135623730937
10
278.75
20
-13.050000000000001
10
278.75
20
-25.050000000000008
42
0.41421356237310542
10
279.75
20
-26.049999999999983
10
291.75
20
-26.050000000000004
42
0.41421356237306772
10
292.75
20
-25.050000000000008
10
292.75
20
-13.050000000000001
42
0.41421356237305729
0
LWPOLYLINE
5
169
100
AcDbEntity
8
0
100
AcDbPolyline
90
8
70
1
43
0.0
10
64.15000000000002
20
-6.0000000000000009
42
-0.41421356237310153
10
63.150000000000006
20
-7.0000000000000009
10
51.150000000000006
20
-6.9999999999999982
42
-0.4142135623730957
10
50.150000000000006
20
-6
10
50.150000000000006
20
5.9999999999999973
42
-0.41421356237309631
10
51.150000000000006
20
6.9999999999999973
10
63.150000000000006
20
7.0000000000000009
42
-0.41421356237308948
10
64.150000000000006
20
5.9999999999999964
0
LWPOLYLINE
5
170
100
AcDbEntity
8
0
100
AcDbPolyline
90
8
70
1
43
0.0
10
107.30000000000001
20
5.9999999999999973
42
-0.41421356237308365
10
108.3
20
6.9999999999999973
10
120.30000000000001
20
7.0000000000000018
42
-0.41421356237309731
10
121.30000000000001
20
5.9999999999999973
10
121.30000000000001
20
-6
42
-0.41421356237309825
10
120.30000000000001
20
-7.0000000000000009
10
108.3
20
-6.9999999999999947
42
-0.4142135623730947
10
107.30000000000001
20
-6
0
LWPOLYLINE
5
171
100
AcDbEntity
8
0
100
AcDbPolyline
90
16
70
1
43
0.0
10
78.543249999999901
20
-68.200000000001125
42
-0.41421356237309764
10
79.543249999999901
20
-69.200000000000898
10
91.906749999999974
20
-69.200000000000898
42
-0.41421356237309503
10
92.906749999999946
20
-68.200000000000898
10
102.41924999999992
20
-68.20000000000114
42
-0.41421356237309764
10
103.41924999999991
20
-69.20000000000114
10
103.41924999999992
20
-81.200000000001125
42
-0.41421356237313145
10
102.41924999999992
20
-82.200000000001125
10
95.106249999999903
20
-82.200000000000898
42
-0.41421356237307944
10
94.106249999999903
20
-83.200000000001125
10
77.343749999999929
20
-83.200000000000898
42
-0.41421356237309764
10
76.343749999999957
20
-82.200000000000898
10
69.06875000000035
20
-82.200000000000529
42
-0.41421356237310802
10
68.06875000000035
20
-81.200000000000529
10
68.068750000000378
20
-69.200000000000529
42
-0.41421356237309764
10
69.068750000000392
20
-68.200000000000529
0
LWPOLYLINE
5
172
100
AcDbEntity
8
0
100
AcDbPolyline
90
8
70
1
43
0.0
10
177.45000000000002
20
7.0000000000000266
42
-0.41421356237308915
10
178.44999999999999
20
5.9999999999999964
10
178.44999999999999
20
-6
42
-0.41421356237310253
10
177.45000000000002
20
-7.0000000000000009
10
165.44999999999999
20
-7.0000000000000293
42
-0.41421356237308915
10
164.44999999999999
20
-6
10
164.44999999999999
20
5.9999999999999973
42
-0.41421356237310253
10
165.44999999999999
20
6.9999999999999973
0
LWPOLYLINE
5
173
100
AcDbEntity
8
0
100
AcDbPolyline
90
8
70
1
43
0.0
10
192.73749999999993
20
-44.100000000000001
10
192.73749999999993
20
-32.100000000000001
42
0.41421356237310281
10
191.73750000000001
20
-31.099999999999994
10
179.73750000000001
20
-31.100000000000001
42
0.41421356237310675
10
178.73750000000001
20
-32.100000000000001
10
178.73750000000001
20
-44.100000000000001
42
0.41421356237309243
10
179.73750000000001
20
-45.100000000000009
10
191.73750000000001
20
-45.100000000000009
42
0.41421356237305601
0
LWPOLYLINE
5
174
100
AcDbEntity
8
0
100
AcDbPolyline
90
12
70
1
43
0.0
10
199.88125000000002
20
-82.200000000000045
42
-0.41421356237303258
10
198.88125000000002
20
-83.20000000000006
10
186.88124999999999
20
-83.200000000000017
42
-0.41421356237311585
10
185.88125000000002
20
-82.200000000000045
10
185.88125000000002
20
-70.200000000000031
42
-0.41421356237311846
10
186.88124999999999
20
-69.200000000000045
10
187.125
20
-69.19999999999996
42
-0.41421356237306384
10
188.125
20
-68.199999999999989
10
192.875
20
-68.199999999999989
42
-0.41421356237311063
10
193.87500000000003
20
-69.199999999999989
10
198.88125000000002
20
-69.200000000000074
42
-0.41421356237313145
10
199.88124999999999
20
-70.200000000000031
0
LWPOLYLINE
5
175
100
AcDbEntity
8
0
100
AcDbPolyline
90
40
70
1
43
0.0
10
-9.000042110416473
20
-83.209676113888435
10
-9.0000421103985691
20
6.9902567935153046
42
-0.41422347878006244
10
-7.0000681799962727
20
8.9903499331885701
10
1.5509319988790902
20
8.9903499331496857
42
0.406454816765074
10
5.2509555563005064
20
12.593325328233185
42
-0.97378699971168514
10
10.74901491112427
20
12.593325328232385
42
0.40645316130466136
10
14.449017434208375
20
8.9903499331674226
10
91.467623679703706
20
8.9903499331926628
42
0.40645171443517947
10
95.167607818599322
20
12.593325328297979
42
-0.99999999999999989
10
100.66566717342423
20
12.593325328224079
42
0.40645626365784016
10
104.36570911503301
20
8.9903499331202354
10
181.38431536055211
20
8.9903499331674261
42
0.40645317552495025
10
185.08431806429792
20
12.593325328230566
42
-0.97378699971169225
10
190.58237741902471
20
12.593325328232384
42
0.40645480254459898
10
194.2824007957816
20
8.990349933148531
10
271.3010070412833
20
8.9903499331317249
42
0.40645007321732896
10
275.00097032650359
20
12.593325328240228
42
-0.97378699971038152
10
280.4990296813242
20
12.593325328232384
42
0.40644852286306798
10
284.19897326733678
20
8.9903499331712826
10
292.75009265551381
20
8.9903499332017631
42
-0.41420602171399856
10
294.74994737664525
20
6.990256793529408
10
294.74994737666339
20
-83.209676113898951
42
-0.41418856382334174
10
292.7500926555316
20
-85.209650044303217
10
284.19897326732752
20
-85.209650044302677
42
0.40645404425924619
10
280.49902968133097
20
-88.81269748341785
42
-0.99999999999999989
10
275.00097032652269
20
-88.812697483465982
42
0.40645559461485092
10
271.30100704129262
20
-85.209650044352657
10
194.2824007957785
20
-85.209650044338176
42
0.40646032396011039
10
190.5823774190402
20
-88.812697483449355
42
-0.99999999999999989
10
185.08431806422249
20
-88.812697483478743
42
0.40645869693655162
10
181.38431536055504
20
-85.209650044367393
10
104.36570911503011
20
-85.209650044300446
42
0.40646178507972724
10
100.66566717343549
20
-88.812697483451061
42
-0.99999999999999989
10
95.167607818622514
20
-88.812697483451032
42
0.40645723584117832
10
91.467623679713043
20
-85.209650044302663
10
14.449017434205471
20
-85.209650044367436
42
0.40645868271618396
10
10.749014911142359
20
-88.812697483478814
42
-0.99999999999999989
10
5.2509555563224231
20
-88.812697483449682
42
0.40646033818059907
10
1.5509319988822234
20
-85.209650044339625
10
-7.0000681800138409
20
-85.209650044291081
42
-0.4142060206735248
0
ENDSEC
0
SECTION
2
OBJECTS
0
DICTIONARY
5
C
100
AcDbDictionary
3
ACAD_GROUP
350
D
3
ACAD_MLINESTYLE
350
17
0
DICTIONARY
5
D
100
AcDbDictionary
0
DICTIONARY
5
1A
330
C
100
AcDbDictionary
0
DICTIONARY
5
17
100
AcDbDictionary
0
ENDSEC
0
EOF
