  0
SECTION
  2
HEADER
  9
$ACADVER
  1
AC1015
  9
$ACADMAINTVER
 70
     6
  9
$DWGCODEPAGE
  3
ANSI_1252
  9
$INSBASE
 10
0.0
 20
0.0
 30
0.0
  9
$EXTMIN
 10
-0.175
 20
-276.9960842727
 30
0.0
  9
$EXTMAX
 10
304.975
 20
-173.3960842727
 30
0.0
  9
$LIMMIN
 10
0.0
 20
0.0
  9
$LIMMAX
 10
420.0
 20
297.0
  9
$ORTHOMODE
 70
     0
  9
$REGENMODE
 70
     1
  9
$FILLMODE
 70
     1
  9
$QTEXTMODE
 70
     0
  9
$MIRRTEXT
 70
     1
  9
$LTSCALE
 40
1.0
  9
$ATTMODE
 70
     1
  9
$TEXTSIZE
 40
3.5
  9
$TRACEWID
 40
1.0
  9
$TEXTSTYLE
  7
Standard
  9
$CLAYER
  8
0
  9
$CELTYPE
  6
ByLayer
  9
$CECOLOR
 62
   256
  9
$CELTSCALE
 40
1.0
  9
$DISPSILH
 70
     0
  9
$DIMSCALE
 40
1.0
  9
$DIMASZ
 40
3.556
  9
$DIMEXO
 40
1.0
  9
$DIMDLI
 40
3.75
  9
$DIMRND
 40
0.0
  9
$DIMDLE
 40
0.0
  9
$DIMEXE
 40
1.0
  9
$DIMTP
 40
0.0
  9
$DIMTM
 40
0.0
  9
$DIMTXT
 40
3.5
  9
$DIMCEN
 40
2.5
  9
$DIMTSZ
 40
0.0
  9
$DIMTOL
 70
     0
  9
$DIMLIM
 70
     0
  9
$DIMTIH
 70
     1
  9
$DIMTOH
 70
     1
  9
$DIMSE1
 70
     0
  9
$DIMSE2
 70
     0
  9
$DIMTAD
 70
     1
  9
$DIMZIN
 70
     1
  9
$DIMBLK
  1

  9
$DIMASO
 70
     1
  9
$DIMSHO
 70
     1
  9
$DIMPOST
  1

  9
$DIMAPOST
  1

  9
$DIMALT
 70
     0
  9
$DIMALTD
 70
     3
  9
$DIMALTF
 40
0.0393700787
  9
$DIMLFAC
 40
1.0
  9
$DIMTOFL
 70
     1
  9
$DIMTVP
 40
0.0
  9
$DIMTIX
 70
     0
  9
$DIMSOXD
 70
     0
  9
$DIMSAH
 70
     0
  9
$DIMBLK1
  1

  9
$DIMBLK2
  1

  9
$DIMSTYLE
  2
ISO-25
  9
$DIMCLRD
 70
     0
  9
$DIMCLRE
 70
     0
  9
$DIMCLRT
 70
     0
  9
$DIMTFAC
 40
1.0
  9
$DIMGAP
 40
1.524
  9
$DIMJUST
 70
     0
  9
$DIMSD1
 70
     0
  9
$DIMSD2
 70
     0
  9
$DIMTOLJ
 70
     0
  9
$DIMTZIN
 70
     1
  9
$DIMALTZ
 70
     0
  9
$DIMALTTZ
 70
     0
  9
$DIMUPT
 70
     0
  9
$DIMDEC
 70
     2
  9
$DIMTDEC
 70
     2
  9
$DIMALTU
 70
     2
  9
$DIMALTTD
 70
     3
  9
$DIMTXSTY
  7
Standard
  9
$DIMAUNIT
 70
     0
  9
$DIMADEC
 70
     2
  9
$DIMALTRND
 40
0.0
  9
$DIMAZIN
 70
     0
  9
$DIMDSEP
 70
    44
  9
$DIMATFIT
 70
     3
  9
$DIMFRAC
 70
     0
  9
$DIMLDRBLK
  1

  9
$DIMLUNIT
 70
     2
  9
$DIMLWD
 70
    -2
  9
$DIMLWE
 70
    -2
  9
$DIMTMOVE
 70
     0
  9
$LUNITS
 70
     2
  9
$LUPREC
 70
     2
  9
$SKETCHINC
 40
1.0
  9
$FILLETRAD
 40
10.0
  9
$AUNITS
 70
     0
  9
$AUPREC
 70
     2
  9
$MENU
  1
.
  9
$ELEVATION
 40
0.0
  9
$PELEVATION
 40
0.0
  9
$THICKNESS
 40
0.0
  9
$LIMCHECK
 70
     0
  9
$CHAMFERA
 40
0.0
  9
$CHAMFERB
 40
0.0
  9
$CHAMFERC
 40
0.0
  9
$CHAMFERD
 40
0.0
  9
$SKPOLY
 70
     0
  9
$TDCREATE
 40
2459509.897086238
  9
$TDUCREATE
 40
2459509.605419572
  9
$TDUPDATE
 40
2459509.897124965
  9
$TDUUPDATE
 40
2459509.605458299
  9
$TDINDWG
 40
0.0000000116
  9
$TDUSRTIMER
 40
0.0000000116
  9
$USRTIMER
 70
     1
  9
$ANGBASE
 50
0.0
  9
$ANGDIR
 70
     0
  9
$PDMODE
 70
     0
  9
$PDSIZE
 40
-1.0
  9
$PLINEWID
 40
0.0
  9
$SPLFRAME
 70
     0
  9
$SPLINETYPE
 70
     6
  9
$SPLINESEGS
 70
     8
  9
$HANDSEED
  5
61D
  9
$SURFTAB1
 70
     6
  9
$SURFTAB2
 70
     6
  9
$SURFTYPE
 70
     6
  9
$SURFU
 70
     6
  9
$SURFV
 70
     6
  9
$UCSBASE
  2

  9
$UCSNAME
  2

  9
$UCSORG
 10
0.0
 20
0.0
 30
0.0
  9
$UCSXDIR
 10
1.0
 20
0.0
 30
0.0
  9
$UCSYDIR
 10
0.0
 20
1.0
 30
0.0
  9
$UCSORTHOREF
  2

  9
$UCSORTHOVIEW
 70
     0
  9
$UCSORGTOP
 10
0.0
 20
0.0
 30
0.0
  9
$UCSORGBOTTOM
 10
0.0
 20
0.0
 30
0.0
  9
$UCSORGLEFT
 10
0.0
 20
0.0
 30
0.0
  9
$UCSORGRIGHT
 10
0.0
 20
0.0
 30
0.0
  9
$UCSORGFRONT
 10
0.0
 20
0.0
 30
0.0
  9
$UCSORGBACK
 10
0.0
 20
0.0
 30
0.0
  9
$PUCSBASE
  2

  9
$PUCSNAME
  2

  9
$PUCSORG
 10
0.0
 20
0.0
 30
0.0
  9
$PUCSXDIR
 10
1.0
 20
0.0
 30
0.0
  9
$PUCSYDIR
 10
0.0
 20
1.0
 30
0.0
  9
$PUCSORTHOREF
  2

  9
$PUCSORTHOVIEW
 70
     0
  9
$PUCSORGTOP
 10
0.0
 20
0.0
 30
0.0
  9
$PUCSORGBOTTOM
 10
0.0
 20
0.0
 30
0.0
  9
$PUCSORGLEFT
 10
0.0
 20
0.0
 30
0.0
  9
$PUCSORGRIGHT
 10
0.0
 20
0.0
 30
0.0
  9
$PUCSORGFRONT
 10
0.0
 20
0.0
 30
0.0
  9
$PUCSORGBACK
 10
0.0
 20
0.0
 30
0.0
  9
$USERI1
 70
     0
  9
$USERI2
 70
     0
  9
$USERI3
 70
     0
  9
$USERI4
 70
     0
  9
$USERI5
 70
     0
  9
$USERR1
 40
0.0
  9
$USERR2
 40
0.0
  9
$USERR3
 40
0.0
  9
$USERR4
 40
0.0
  9
$USERR5
 40
0.0
  9
$WORLDVIEW
 70
     1
  9
$SHADEDGE
 70
     3
  9
$SHADEDIF
 70
    70
  9
$TILEMODE
 70
     1
  9
$MAXACTVP
 70
    64
  9
$PINSBASE
 10
0.0
 20
0.0
 30
0.0
  9
$PLIMCHECK
 70
     0
  9
$PEXTMIN
 10
1.0000000000E+20
 20
1.0000000000E+20
 30
1.0000000000E+20
  9
$PEXTMAX
 10
-1.0000000000E+20
 20
-1.0000000000E+20
 30
-1.0000000000E+20
  9
$PLIMMIN
 10
0.0
 20
0.0
  9
$PLIMMAX
 10
420.0
 20
297.0
  9
$UNITMODE
 70
     0
  9
$VISRETAIN
 70
     1
  9
$PLINEGEN
 70
     0
  9
$PSLTSCALE
 70
     1
  9
$TREEDEPTH
 70
  3020
  9
$CMLSTYLE
  2
Standard
  9
$CMLJUST
 70
     0
  9
$CMLSCALE
 40
20.0
  9
$PROXYGRAPHICS
 70
     1
  9
$MEASUREMENT
 70
     1
  9
$CELWEIGHT
370
    -1
  9
$ENDCAPS
280
     0
  9
$JOINSTYLE
280
     0
  9
$LWDISPLAY
290
     1
  9
$INSUNITS
 70
     4
  9
$HYPERLINKBASE
  1

  9
$STYLESHEET
  1

  9
$XEDIT
290
     1
  9
$CEPSNTYPE
380
     0
  9
$PSTYLEMODE
290
     1
  9
$FINGERPRINTGUID
  2
{5971db17-a335-423d-bd15-10a1b6bc3cc3}
  9
$VERSIONGUID
  2
{FAEB1C32-E019-11D5-929B-00C0DF256EC4}
  9
$EXTNAMES
290
     1
  9
$PSVPSCALE
 40
0.0
  9
$OLESTARTUP
290
     0
  0
ENDSEC
  0
SECTION
  2
CLASSES
  0
CLASS
  1
ACDBDICTIONARYWDFLT
  2
AcDbDictionaryWithDefault
  3
ObjectDBX Classes
 90
        0
280
     0
281
     0
  0
CLASS
  1
VISUALSTYLE
  2
AcDbVisualStyle
  3
ObjectDBX Classes
 90
     4095
280
     0
281
     0
  0
CLASS
  1
MATERIAL
  2
AcDbMaterial
  3
ObjectDBX Classes
 90
     1153
280
     0
281
     0
  0
CLASS
  1
SCALE
  2
AcDbScale
  3
ObjectDBX Classes
 90
     1153
280
     0
281
     0
  0
CLASS
  1
TABLESTYLE
  2
AcDbTableStyle
  3
ObjectDBX Classes
 90
     4095
280
     0
281
     0
  0
CLASS
  1
MLEADERSTYLE
  2
AcDbMLeaderStyle
  3
ACDB_MLEADERSTYLE_CLASS
 90
     4095
280
     0
281
     0
  0
CLASS
  1
SUN
  2
AcDbSun
  3
SCENEOE
 90
     1153
280
     0
281
     0
  0
CLASS
  1
ACDBPLACEHOLDER
  2
AcDbPlaceHolder
  3
ObjectDBX Classes
 90
        0
280
     0
281
     0
  0
CLASS
  1
LAYOUT
  2
AcDbLayout
  3
ObjectDBX Classes
 90
        0
280
     0
281
     0
  0
ENDSEC
  0
SECTION
  2
TABLES
  0
TABLE
  2
VPORT
  5
8
330
0
100
AcDbSymbolTable
 70
     1
  0
VPORT
  5
29
330
8
100
AcDbSymbolTableRecord
100
AcDbViewportTableRecord
  2
*Active
 70
     0
 10
0.0
 20
0.0
 11
1.0
 21
1.0
 12
152.4
 22
-225.1960842727
 13
0.0
 23
0.0
 14
10.0
 24
10.0
 15
10.0
 25
10.0
 16
0.0
 26
0.0
 36
1.0
 17
0.0
 27
0.0
 37
0.0
 40
105.672
 41
2.9454633205
 42
50.0
 43
0.0
 44
0.0
 50
0.0
 51
0.0
 71
     0
 72
   100
 73
     1
 74
     3
 75
     0
 76
     0
 77
     0
 78
     0
281
     0
 65
     1
110
0.0
120
0.0
130
0.0
111
1.0
121
0.0
131
0.0
112
0.0
122
1.0
132
0.0
 79
     0
146
0.0
  0
ENDTAB
  0
TABLE
  2
LTYPE
  5
5
330
0
100
AcDbSymbolTable
 70
     6
  0
LTYPE
  5
14
330
5
100
AcDbSymbolTableRecord
100
AcDbLinetypeTableRecord
  2
ByBlock
 70
     0
  3

 72
    65
 73
     0
 40
0.0
  0
LTYPE
  5
15
330
5
100
AcDbSymbolTableRecord
100
AcDbLinetypeTableRecord
  2
ByLayer
 70
     0
  3

 72
    65
 73
     0
 40
0.0
  0
LTYPE
  5
16
330
5
100
AcDbSymbolTableRecord
100
AcDbLinetypeTableRecord
  2
Continuous
 70
     0
  3
Solid line
 72
    65
 73
     0
 40
0.0
  0
LTYPE
  5
6E
330
5
100
AcDbSymbolTableRecord
100
AcDbLinetypeTableRecord
  2
HIDDEN
 70
     0
  3
Hidden __ __ __ __ __ __ __ __ __ __ __ __ __ __
 72
    65
 73
     2
 40
1.905
 49
1.27
 74
     0
 49
-0.635
 74
     0
  0
LTYPE
  5
6F
330
5
100
AcDbSymbolTableRecord
100
AcDbLinetypeTableRecord
  2
PHANTOM
 70
     0
  3
Phantom ______  __  __  ______  __  __  ______
 72
    65
 73
     6
 40
12.7
 49
6.35
 74
     0
 49
-1.27
 74
     0
 49
1.27
 74
     0
 49
-1.27
 74
     0
 49
1.27
 74
     0
 49
-1.27
 74
     0
  0
LTYPE
  5
70
330
5
100
AcDbSymbolTableRecord
100
AcDbLinetypeTableRecord
  2
CENTER
 70
     0
  3
Center ____ _ ____ _ ____ _ ____ _ ____ _ ____
 72
    65
 73
     4
 40
10.16
 49
6.35
 74
     0
 49
-1.27
 74
     0
 49
1.27
 74
     0
 49
-1.27
 74
     0
  0
LTYPE
  5
71
330
5
100
AcDbSymbolTableRecord
100
AcDbLinetypeTableRecord
  2
CENTERX2
 70
     0
  3
Center (2x) ________  __  ________  __  _____
 72
    65
 73
     4
 40
20.32
 49
12.7
 74
     0
 49
-2.54
 74
     0
 49
2.54
 74
     0
 49
-2.54
 74
     0
  0
LTYPE
  5
72
330
5
100
AcDbSymbolTableRecord
100
AcDbLinetypeTableRecord
  2
DOT2
 70
     0
  3
Dot (.5x) ........................................
 72
    65
 73
     2
 40
0.635
 49
0.0
 74
     0
 49
-0.635
 74
     0
  0
ENDTAB
  0
TABLE
  2
LAYER
  5
2
330
0
100
AcDbSymbolTable
 70
     1
  0
LAYER
  5
10
330
2
100
AcDbSymbolTableRecord
100
AcDbLayerTableRecord
  2
0
 70
     0
 62
     7
  6
Continuous
370
    -3
390
F
  0
ENDTAB
  0
TABLE
  2
STYLE
  5
3
330
0
100
AcDbSymbolTable
 70
     1
  0
STYLE
  5
11
330
3
100
AcDbSymbolTableRecord
100
AcDbTextStyleTableRecord
  2
Standard
 70
     0
 40
0.0
 41
1.0
 50
0.0
 71
     0
 42
3.5
  3
txt
  4

  0
ENDTAB
  0
TABLE
  2
VIEW
  5
6
330
0
100
AcDbSymbolTable
 70
     0
  0
ENDTAB
  0
TABLE
  2
UCS
  5
7
330
0
100
AcDbSymbolTable
 70
     0
  0
ENDTAB
  0
TABLE
  2
APPID
  5
9
330
0
100
AcDbSymbolTable
 70
     1
  0
APPID
  5
12
330
9
100
AcDbSymbolTableRecord
100
AcDbRegAppTableRecord
  2
ACAD
 70
     0
  0
ENDTAB
  0
TABLE
  2
DIMSTYLE
  5
A
330
0
100
AcDbSymbolTable
 70
     1
100
AcDbDimStyleTable
  0
DIMSTYLE
105
27
330
A
100
AcDbSymbolTableRecord
100
AcDbDimStyleTableRecord
  2
ISO-25
 70
     0
 41
2.5
 42
0.625
 43
3.75
 44
1.25
 73
     0
 74
     0
 77
     1
 78
     8
140
2.5
141
2.5
143
0.0393700787
147
0.625
171
     3
172
     1
178
     0
271
     2
272
     2
274
     3
278
    44
283
     0
284
     8
340
11
  0
ENDTAB
  0
TABLE
  2
BLOCK_RECORD
  5
1
330
0
100
AcDbSymbolTable
 70
     1
  0
BLOCK_RECORD
  5
1F
330
1
100
AcDbSymbolTableRecord
100
AcDbBlockTableRecord
  2
*Model_Space
340
22
  0
BLOCK_RECORD
  5
1B
330
1
100
AcDbSymbolTableRecord
100
AcDbBlockTableRecord
  2
*Paper_Space
340
1E
  0
BLOCK_RECORD
  5
23
330
1
100
AcDbSymbolTableRecord
100
AcDbBlockTableRecord
  2
*Paper_Space0
340
26
  0
ENDTAB
  0
ENDSEC
  0
SECTION
  2
BLOCKS
  0
BLOCK
  5
20
330
1F
100
AcDbEntity
  8
0
100
AcDbBlockBegin
  2
*Model_Space
 70
     0
 10
0.0
 20
0.0
 30
0.0
  3
*Model_Space
  1

  0
ENDBLK
  5
21
330
1F
100
AcDbEntity
  8
0
100
AcDbBlockEnd
  0
BLOCK
  5
1C
330
1B
100
AcDbEntity
 67
     1
  8
0
100
AcDbBlockBegin
  2
*Paper_Space
 70
     0
 10
0.0
 20
0.0
 30
0.0
  3
*Paper_Space
  1

  0
ENDBLK
  5
1D
330
1B
100
AcDbEntity
 67
     1
  8
0
100
AcDbBlockEnd
  0
BLOCK
  5
24
330
23
100
AcDbEntity
  8
0
100
AcDbBlockBegin
  2
*Paper_Space0
 70
     0
 10
0.0
 20
0.0
 30
0.0
  3
*Paper_Space0
  1

  0
ENDBLK
  5
25
330
23
100
AcDbEntity
  8
0
100
AcDbBlockEnd
  0
ENDSEC
  0
SECTION
  2
ENTITIES
  0
LINE
  5
348
330
1F
100
AcDbEntity
  8
0
  6
Continuous
 62
     7
370
    25
100
AcDbLine
 10
92.725
 20
-262.0460842727
 30
0.0
 11
122.725
 21
-262.0460842727
 31
0.0
  0
LINE
  5
349
330
1F
100
AcDbEntity
  8
0
  6
Continuous
 62
     7
370
    25
100
AcDbLine
 10
122.725
 20
-264.5460842727
 30
0.0
 11
92.725
 21
-264.5460842727
 31
0.0
  0
LINE
  5
34A
330
1F
100
AcDbEntity
  8
0
  6
Continuous
 62
     7
370
    25
100
AcDbLine
 10
183.5
 20
-264.5460842727
 30
0.0
 11
153.5
 21
-264.5460842727
 31
0.0
  0
LINE
  5
34B
330
1F
100
AcDbEntity
  8
0
  6
Continuous
 62
     7
370
    25
100
AcDbLine
 10
153.5
 20
-262.0460842727
 30
0.0
 11
183.5
 21
-262.0460842727
 31
0.0
  0
LINE
  5
34C
330
1F
100
AcDbEntity
  8
0
  6
Continuous
 62
     7
370
    25
100
AcDbLine
 10
12.86825
 20
-238.7460842727
 30
0.0
 11
12.86825
 21
-251.7460842727
 31
0.0
  0
LINE
  5
34D
330
1F
100
AcDbEntity
  8
0
  6
Continuous
 62
     7
370
    25
100
AcDbLine
 10
6.61825
 20
-238.2460842727
 30
0.0
 11
12.36825
 21
-238.2460842727
 31
0.0
  0
LINE
  5
34E
330
1F
100
AcDbEntity
  8
0
  6
Continuous
 62
     7
370
    25
100
AcDbLine
 10
6.11825
 20
-252.2460842727
 30
0.0
 11
6.11825
 21
-238.7460842727
 31
0.0
  0
LINE
  5
34F
330
1F
100
AcDbEntity
  8
0
  6
Continuous
 62
     7
370
    25
100
AcDbLine
 10
12.36825
 20
-252.2460842727
 30
0.0
 11
6.11825
 21
-252.2460842727
 31
0.0
  0
LINE
  5
350
330
1F
100
AcDbEntity
  8
0
  6
Continuous
 62
     7
370
    25
100
AcDbLine
 10
288.275
 20
-231.6960842727
 30
0.0
 11
288.275
 21
-218.6960842727
 31
0.0
  0
LINE
  5
351
330
1F
100
AcDbEntity
  8
0
  6
Continuous
 62
     7
370
    25
100
AcDbLine
 10
301.775
 20
-232.1960842727
 30
0.0
 11
288.775
 21
-232.1960842727
 31
0.0
  0
LINE
  5
352
330
1F
100
AcDbEntity
  8
0
  6
Continuous
 62
     7
370
    25
100
AcDbLine
 10
302.275
 20
-218.6960842727
 30
0.0
 11
302.275
 21
-231.6960842727
 31
0.0
  0
LINE
  5
353
330
1F
100
AcDbEntity
  8
0
  6
Continuous
 62
     7
370
    25
100
AcDbLine
 10
288.775
 20
-218.1960842727
 30
0.0
 11
301.775
 21
-218.1960842727
 31
0.0
  0
LINE
  5
354
330
1F
100
AcDbEntity
  8
0
  6
Continuous
 62
     7
370
    25
100
AcDbLine
 10
64.15
 20
-256.7960842727
 30
0.0
 11
64.15
 21
-269.7960842727
 31
0.0
  0
LINE
  5
355
330
1F
100
AcDbEntity
  8
0
  6
Continuous
 62
     7
370
    25
100
AcDbLine
 10
50.65
 20
-256.2960842727
 30
0.0
 11
63.65
 21
-256.2960842727
 31
0.0
  0
LINE
  5
356
330
1F
100
AcDbEntity
  8
0
  6
Continuous
 62
     7
370
    25
100
AcDbLine
 10
50.15
 20
-269.7960842727
 30
0.0
 11
50.15
 21
-256.7960842727
 31
0.0
  0
LINE
  5
357
330
1F
100
AcDbEntity
  8
0
  6
Continuous
 62
     7
370
    25
100
AcDbLine
 10
63.65
 20
-270.2960842727
 30
0.0
 11
50.65
 21
-270.2960842727
 31
0.0
  0
LINE
  5
358
330
1F
100
AcDbEntity
  8
0
  6
Continuous
 62
     7
370
    25
100
AcDbLine
 10
250.175
 20
-269.7960842727
 30
0.0
 11
250.175
 21
-256.7960842727
 31
0.0
  0
LINE
  5
359
330
1F
100
AcDbEntity
  8
0
  6
Continuous
 62
     7
370
    25
100
AcDbLine
 10
263.675
 20
-270.2960842727
 30
0.0
 11
250.675
 21
-270.2960842727
 31
0.0
  0
LINE
  5
35A
330
1F
100
AcDbEntity
  8
0
  6
Continuous
 62
     7
370
    25
100
AcDbLine
 10
264.175
 20
-256.7960842727
 30
0.0
 11
264.175
 21
-269.7960842727
 31
0.0
  0
LINE
  5
35B
330
1F
100
AcDbEntity
  8
0
  6
Continuous
 62
     7
370
    25
100
AcDbLine
 10
250.675
 20
-256.2960842727
 30
0.0
 11
263.675
 21
-256.2960842727
 31
0.0
  0
LINE
  5
35C
330
1F
100
AcDbEntity
  8
0
  6
Continuous
 62
     7
370
    25
100
AcDbLine
 10
7.2875
 20
-269.7960842727
 30
0.0
 11
7.2875
 21
-256.7960842727
 31
0.0
  0
LINE
  5
35D
330
1F
100
AcDbEntity
  8
0
  6
Continuous
 62
     7
370
    25
100
AcDbLine
 10
20.7875
 20
-270.2960842727
 30
0.0
 11
7.7875
 21
-270.2960842727
 31
0.0
  0
LINE
  5
35E
330
1F
100
AcDbEntity
  8
0
  6
Continuous
 62
     7
370
    25
100
AcDbLine
 10
21.2875
 20
-256.7960842727
 30
0.0
 11
21.2875
 21
-269.7960842727
 31
0.0
  0
LINE
  5
35F
330
1F
100
AcDbEntity
  8
0
  6
Continuous
 62
     7
370
    25
100
AcDbLine
 10
7.7875
 20
-256.2960842727
 30
0.0
 11
20.7875
 21
-256.2960842727
 31
0.0
  0
LINE
  5
360
330
1F
100
AcDbEntity
  8
0
  6
Continuous
 62
     7
370
    25
100
AcDbLine
 10
116.825
 20
-193.5960842727
 30
0.0
 11
116.825
 21
-180.5960842727
 31
0.0
  0
LINE
  5
361
330
1F
100
AcDbEntity
  8
0
  6
Continuous
 62
     7
370
    25
100
AcDbLine
 10
130.325
 20
-194.0960842727
 30
0.0
 11
117.325
 21
-194.0960842727
 31
0.0
  0
LINE
  5
362
330
1F
100
AcDbEntity
  8
0
  6
Continuous
 62
     7
370
    25
100
AcDbLine
 10
130.825
 20
-180.5960842727
 30
0.0
 11
130.825
 21
-193.5960842727
 31
0.0
  0
LINE
  5
363
330
1F
100
AcDbEntity
  8
0
  6
Continuous
 62
     7
370
    25
100
AcDbLine
 10
117.325
 20
-180.0960842727
 30
0.0
 11
130.325
 21
-180.0960842727
 31
0.0
  0
LINE
  5
364
330
1F
100
AcDbEntity
  8
0
  6
Continuous
 62
     7
370
    25
100
AcDbLine
 10
40.625
 20
-193.5960842727
 30
0.0
 11
40.625
 21
-180.5960842727
 31
0.0
  0
LINE
  5
365
330
1F
100
AcDbEntity
  8
0
  6
Continuous
 62
     7
370
    25
100
AcDbLine
 10
54.125
 20
-194.0960842727
 30
0.0
 11
41.125
 21
-194.0960842727
 31
0.0
  0
LINE
  5
366
330
1F
100
AcDbEntity
  8
0
  6
Continuous
 62
     7
370
    25
100
AcDbLine
 10
54.625
 20
-180.5960842727
 30
0.0
 11
54.625
 21
-193.5960842727
 31
0.0
  0
LINE
  5
367
330
1F
100
AcDbEntity
  8
0
  6
Continuous
 62
     7
370
    25
100
AcDbLine
 10
41.125
 20
-180.0960842727
 30
0.0
 11
54.125
 21
-180.0960842727
 31
0.0
  0
LINE
  5
368
330
1F
100
AcDbEntity
  8
0
  6
Continuous
 62
     7
370
    25
100
AcDbLine
 10
21.575
 20
-193.5960842727
 30
0.0
 11
21.575
 21
-180.5960842727
 31
0.0
  0
LINE
  5
369
330
1F
100
AcDbEntity
  8
0
  6
Continuous
 62
     7
370
    25
100
AcDbLine
 10
35.075
 20
-194.0960842727
 30
0.0
 11
22.075
 21
-194.0960842727
 31
0.0
  0
LINE
  5
36A
330
1F
100
AcDbEntity
  8
0
  6
Continuous
 62
     7
370
    25
100
AcDbLine
 10
35.575
 20
-180.5960842727
 30
0.0
 11
35.575
 21
-193.5960842727
 31
0.0
  0
LINE
  5
36B
330
1F
100
AcDbEntity
  8
0
  6
Continuous
 62
     7
370
    25
100
AcDbLine
 10
22.075
 20
-180.0960842727
 30
0.0
 11
35.075
 21
-180.0960842727
 31
0.0
  0
LINE
  5
36C
330
1F
100
AcDbEntity
  8
0
  6
Continuous
 62
     7
370
    25
100
AcDbLine
 10
60.175
 20
-180.0960842727
 30
0.0
 11
73.175
 21
-180.0960842727
 31
0.0
  0
LINE
  5
36D
330
1F
100
AcDbEntity
  8
0
  6
Continuous
 62
     7
370
    25
100
AcDbLine
 10
59.675
 20
-193.5960842727
 30
0.0
 11
59.675
 21
-180.5960842727
 31
0.0
  0
LINE
  5
36E
330
1F
100
AcDbEntity
  8
0
  6
Continuous
 62
     7
370
    25
100
AcDbLine
 10
73.175
 20
-194.0960842727
 30
0.0
 11
60.175
 21
-194.0960842727
 31
0.0
  0
LINE
  5
36F
330
1F
100
AcDbEntity
  8
0
  6
Continuous
 62
     7
370
    25
100
AcDbLine
 10
73.675
 20
-180.5960842727
 30
0.0
 11
73.675
 21
-193.5960842727
 31
0.0
  0
LINE
  5
370
330
1F
100
AcDbEntity
  8
0
  6
Continuous
 62
     7
370
    25
100
AcDbLine
 10
231.125
 20
-193.5960842727
 30
0.0
 11
231.125
 21
-180.5960842727
 31
0.0
  0
LINE
  5
371
330
1F
100
AcDbEntity
  8
0
  6
Continuous
 62
     7
370
    25
100
AcDbLine
 10
244.625
 20
-194.0960842727
 30
0.0
 11
231.625
 21
-194.0960842727
 31
0.0
  0
LINE
  5
372
330
1F
100
AcDbEntity
  8
0
  6
Continuous
 62
     7
370
    25
100
AcDbLine
 10
245.125
 20
-180.5960842727
 30
0.0
 11
245.125
 21
-193.5960842727
 31
0.0
  0
LINE
  5
373
330
1F
100
AcDbEntity
  8
0
  6
Continuous
 62
     7
370
    25
100
AcDbLine
 10
231.625
 20
-180.0960842727
 30
0.0
 11
244.625
 21
-180.0960842727
 31
0.0
  0
LINE
  5
374
330
1F
100
AcDbEntity
  8
0
  6
Continuous
 62
     7
370
    25
100
AcDbLine
 10
135.875
 20
-193.5960842727
 30
0.0
 11
135.875
 21
-180.5960842727
 31
0.0
  0
LINE
  5
375
330
1F
100
AcDbEntity
  8
0
  6
Continuous
 62
     7
370
    25
100
AcDbLine
 10
149.375
 20
-194.0960842727
 30
0.0
 11
136.375
 21
-194.0960842727
 31
0.0
  0
LINE
  5
376
330
1F
100
AcDbEntity
  8
0
  6
Continuous
 62
     7
370
    25
100
AcDbLine
 10
149.875
 20
-180.5960842727
 30
0.0
 11
149.875
 21
-193.5960842727
 31
0.0
  0
LINE
  5
377
330
1F
100
AcDbEntity
  8
0
  6
Continuous
 62
     7
370
    25
100
AcDbLine
 10
136.375
 20
-180.0960842727
 30
0.0
 11
149.375
 21
-180.0960842727
 31
0.0
  0
LINE
  5
378
330
1F
100
AcDbEntity
  8
0
  6
Continuous
 62
     7
370
    25
100
AcDbLine
 10
154.925
 20
-193.5960842727
 30
0.0
 11
154.925
 21
-180.5960842727
 31
0.0
  0
LINE
  5
379
330
1F
100
AcDbEntity
  8
0
  6
Continuous
 62
     7
370
    25
100
AcDbLine
 10
168.425
 20
-194.0960842727
 30
0.0
 11
155.425
 21
-194.0960842727
 31
0.0
  0
LINE
  5
37A
330
1F
100
AcDbEntity
  8
0
  6
Continuous
 62
     7
370
    25
100
AcDbLine
 10
168.925
 20
-180.5960842727
 30
0.0
 11
168.925
 21
-193.5960842727
 31
0.0
  0
LINE
  5
37B
330
1F
100
AcDbEntity
  8
0
  6
Continuous
 62
     7
370
    25
100
AcDbLine
 10
155.425
 20
-180.0960842727
 30
0.0
 11
168.425
 21
-180.0960842727
 31
0.0
  0
LINE
  5
37C
330
1F
100
AcDbEntity
  8
0
  6
Continuous
 62
     7
370
    25
100
AcDbLine
 10
173.975
 20
-193.5960842727
 30
0.0
 11
173.975
 21
-180.5960842727
 31
0.0
  0
LINE
  5
37D
330
1F
100
AcDbEntity
  8
0
  6
Continuous
 62
     7
370
    25
100
AcDbLine
 10
187.475
 20
-194.0960842727
 30
0.0
 11
174.475
 21
-194.0960842727
 31
0.0
  0
LINE
  5
37E
330
1F
100
AcDbEntity
  8
0
  6
Continuous
 62
     7
370
    25
100
AcDbLine
 10
187.975
 20
-180.5960842727
 30
0.0
 11
187.975
 21
-193.5960842727
 31
0.0
  0
LINE
  5
37F
330
1F
100
AcDbEntity
  8
0
  6
Continuous
 62
     7
370
    25
100
AcDbLine
 10
174.475
 20
-180.0960842727
 30
0.0
 11
187.475
 21
-180.0960842727
 31
0.0
  0
LINE
  5
380
330
1F
100
AcDbEntity
  8
0
  6
Continuous
 62
     7
370
    25
100
AcDbLine
 10
126.35
 20
-212.6460842727
 30
0.0
 11
126.35
 21
-199.6460842727
 31
0.0
  0
LINE
  5
381
330
1F
100
AcDbEntity
  8
0
  6
Continuous
 62
     7
370
    25
100
AcDbLine
 10
139.85
 20
-213.1460842727
 30
0.0
 11
126.85
 21
-213.1460842727
 31
0.0
  0
LINE
  5
382
330
1F
100
AcDbEntity
  8
0
  6
Continuous
 62
     7
370
    25
100
AcDbLine
 10
140.35
 20
-199.6460842727
 30
0.0
 11
140.35
 21
-212.6460842727
 31
0.0
  0
LINE
  5
383
330
1F
100
AcDbEntity
  8
0
  6
Continuous
 62
     7
370
    25
100
AcDbLine
 10
126.85
 20
-199.1460842727
 30
0.0
 11
139.85
 21
-199.1460842727
 31
0.0
  0
LINE
  5
384
330
1F
100
AcDbEntity
  8
0
  6
Continuous
 62
     7
370
    25
100
AcDbLine
 10
107.3
 20
-212.6460842727
 30
0.0
 11
107.3
 21
-199.6460842727
 31
0.0
  0
LINE
  5
385
330
1F
100
AcDbEntity
  8
0
  6
Continuous
 62
     7
370
    25
100
AcDbLine
 10
120.8
 20
-213.1460842727
 30
0.0
 11
107.8
 21
-213.1460842727
 31
0.0
  0
LINE
  5
386
330
1F
100
AcDbEntity
  8
0
  6
Continuous
 62
     7
370
    25
100
AcDbLine
 10
121.3
 20
-199.6460842727
 30
0.0
 11
121.3
 21
-212.6460842727
 31
0.0
  0
LINE
  5
387
330
1F
100
AcDbEntity
  8
0
  6
Continuous
 62
     7
370
    25
100
AcDbLine
 10
107.8
 20
-199.1460842727
 30
0.0
 11
120.8
 21
-199.1460842727
 31
0.0
  0
LINE
  5
388
330
1F
100
AcDbEntity
  8
0
  6
Continuous
 62
     7
370
    25
100
AcDbLine
 10
88.25
 20
-212.6460842727
 30
0.0
 11
88.25
 21
-199.6460842727
 31
0.0
  0
LINE
  5
389
330
1F
100
AcDbEntity
  8
0
  6
Continuous
 62
     7
370
    25
100
AcDbLine
 10
101.75
 20
-213.1460842727
 30
0.0
 11
88.75
 21
-213.1460842727
 31
0.0
  0
LINE
  5
38A
330
1F
100
AcDbEntity
  8
0
  6
Continuous
 62
     7
370
    25
100
AcDbLine
 10
102.25
 20
-199.6460842727
 30
0.0
 11
102.25
 21
-212.6460842727
 31
0.0
  0
LINE
  5
38B
330
1F
100
AcDbEntity
  8
0
  6
Continuous
 62
     7
370
    25
100
AcDbLine
 10
88.75
 20
-199.1460842727
 30
0.0
 11
101.75
 21
-199.1460842727
 31
0.0
  0
LINE
  5
38C
330
1F
100
AcDbEntity
  8
0
  6
Continuous
 62
     7
370
    25
100
AcDbLine
 10
7.2875
 20
-212.6460842727
 30
0.0
 11
7.2875
 21
-199.6460842727
 31
0.0
  0
LINE
  5
38D
330
1F
100
AcDbEntity
  8
0
  6
Continuous
 62
     7
370
    25
100
AcDbLine
 10
20.7875
 20
-213.1460842727
 30
0.0
 11
7.7875
 21
-213.1460842727
 31
0.0
  0
LINE
  5
38E
330
1F
100
AcDbEntity
  8
0
  6
Continuous
 62
     7
370
    25
100
AcDbLine
 10
21.2875
 20
-199.6460842727
 30
0.0
 11
21.2875
 21
-212.6460842727
 31
0.0
  0
LINE
  5
38F
330
1F
100
AcDbEntity
  8
0
  6
Continuous
 62
     7
370
    25
100
AcDbLine
 10
7.7875
 20
-199.1460842727
 30
0.0
 11
20.7875
 21
-199.1460842727
 31
0.0
  0
LINE
  5
390
330
1F
100
AcDbEntity
  8
0
  6
Continuous
 62
     7
370
    25
100
AcDbLine
 10
31.6
 20
-199.1460842727
 30
0.0
 11
44.6
 21
-199.1460842727
 31
0.0
  0
LINE
  5
391
330
1F
100
AcDbEntity
  8
0
  6
Continuous
 62
     7
370
    25
100
AcDbLine
 10
31.1
 20
-212.6460842727
 30
0.0
 11
31.1
 21
-199.6460842727
 31
0.0
  0
LINE
  5
392
330
1F
100
AcDbEntity
  8
0
  6
Continuous
 62
     7
370
    25
100
AcDbLine
 10
44.6
 20
-213.1460842727
 30
0.0
 11
31.6
 21
-213.1460842727
 31
0.0
  0
LINE
  5
393
330
1F
100
AcDbEntity
  8
0
  6
Continuous
 62
     7
370
    25
100
AcDbLine
 10
45.1
 20
-199.6460842727
 30
0.0
 11
45.1
 21
-212.6460842727
 31
0.0
  0
LINE
  5
394
330
1F
100
AcDbEntity
  8
0
  6
Continuous
 62
     7
370
    25
100
AcDbLine
 10
69.2
 20
-212.6460842727
 30
0.0
 11
69.2
 21
-199.6460842727
 31
0.0
  0
LINE
  5
395
330
1F
100
AcDbEntity
  8
0
  6
Continuous
 62
     7
370
    25
100
AcDbLine
 10
82.7
 20
-213.1460842727
 30
0.0
 11
69.7
 21
-213.1460842727
 31
0.0
  0
LINE
  5
396
330
1F
100
AcDbEntity
  8
0
  6
Continuous
 62
     7
370
    25
100
AcDbLine
 10
83.2
 20
-199.6460842727
 30
0.0
 11
83.2
 21
-212.6460842727
 31
0.0
  0
LINE
  5
397
330
1F
100
AcDbEntity
  8
0
  6
Continuous
 62
     7
370
    25
100
AcDbLine
 10
69.7
 20
-199.1460842727
 30
0.0
 11
82.7
 21
-199.1460842727
 31
0.0
  0
LINE
  5
398
330
1F
100
AcDbEntity
  8
0
  6
Continuous
 62
     7
370
    25
100
AcDbLine
 10
50.15
 20
-212.6460842727
 30
0.0
 11
50.15
 21
-199.6460842727
 31
0.0
  0
LINE
  5
399
330
1F
100
AcDbEntity
  8
0
  6
Continuous
 62
     7
370
    25
100
AcDbLine
 10
63.65
 20
-213.1460842727
 30
0.0
 11
50.65
 21
-213.1460842727
 31
0.0
  0
LINE
  5
39A
330
1F
100
AcDbEntity
  8
0
  6
Continuous
 62
     7
370
    25
100
AcDbLine
 10
64.15
 20
-199.6460842727
 30
0.0
 11
64.15
 21
-212.6460842727
 31
0.0
  0
LINE
  5
39B
330
1F
100
AcDbEntity
  8
0
  6
Continuous
 62
     7
370
    25
100
AcDbLine
 10
50.65
 20
-199.1460842727
 30
0.0
 11
63.65
 21
-199.1460842727
 31
0.0
  0
LINE
  5
39C
330
1F
100
AcDbEntity
  8
0
  6
Continuous
 62
     7
370
    25
100
AcDbLine
 10
145.4
 20
-212.6460842727
 30
0.0
 11
145.4
 21
-199.6460842727
 31
0.0
  0
LINE
  5
39D
330
1F
100
AcDbEntity
  8
0
  6
Continuous
 62
     7
370
    25
100
AcDbLine
 10
158.9
 20
-213.1460842727
 30
0.0
 11
145.9
 21
-213.1460842727
 31
0.0
  0
LINE
  5
39E
330
1F
100
AcDbEntity
  8
0
  6
Continuous
 62
     7
370
    25
100
AcDbLine
 10
159.4
 20
-199.6460842727
 30
0.0
 11
159.4
 21
-212.6460842727
 31
0.0
  0
LINE
  5
39F
330
1F
100
AcDbEntity
  8
0
  6
Continuous
 62
     7
370
    25
100
AcDbLine
 10
145.9
 20
-199.1460842727
 30
0.0
 11
158.9
 21
-199.1460842727
 31
0.0
  0
LINE
  5
3A0
330
1F
100
AcDbEntity
  8
0
  6
Continuous
 62
     7
370
    25
100
AcDbLine
 10
240.65
 20
-212.6460842727
 30
0.0
 11
240.65
 21
-199.6460842727
 31
0.0
  0
LINE
  5
3A1
330
1F
100
AcDbEntity
  8
0
  6
Continuous
 62
     7
370
    25
100
AcDbLine
 10
254.15
 20
-213.1460842727
 30
0.0
 11
241.15
 21
-213.1460842727
 31
0.0
  0
LINE
  5
3A2
330
1F
100
AcDbEntity
  8
0
  6
Continuous
 62
     7
370
    25
100
AcDbLine
 10
254.65
 20
-199.6460842727
 30
0.0
 11
254.65
 21
-212.6460842727
 31
0.0
  0
LINE
  5
3A3
330
1F
100
AcDbEntity
  8
0
  6
Continuous
 62
     7
370
    25
100
AcDbLine
 10
241.15
 20
-199.1460842727
 30
0.0
 11
254.15
 21
-199.1460842727
 31
0.0
  0
LINE
  5
3A4
330
1F
100
AcDbEntity
  8
0
  6
Continuous
 62
     7
370
    25
100
AcDbLine
 10
264.4625
 20
-212.6460842727
 30
0.0
 11
264.4625
 21
-199.6460842727
 31
0.0
  0
LINE
  5
3A5
330
1F
100
AcDbEntity
  8
0
  6
Continuous
 62
     7
370
    25
100
AcDbLine
 10
277.9625
 20
-213.1460842727
 30
0.0
 11
264.9625
 21
-213.1460842727
 31
0.0
  0
LINE
  5
3A6
330
1F
100
AcDbEntity
  8
0
  6
Continuous
 62
     7
370
    25
100
AcDbLine
 10
278.4625
 20
-199.6460842727
 30
0.0
 11
278.4625
 21
-212.6460842727
 31
0.0
  0
LINE
  5
3A7
330
1F
100
AcDbEntity
  8
0
  6
Continuous
 62
     7
370
    25
100
AcDbLine
 10
264.9625
 20
-199.1460842727
 30
0.0
 11
277.9625
 21
-199.1460842727
 31
0.0
  0
LINE
  5
3A8
330
1F
100
AcDbEntity
  8
0
  6
Continuous
 62
     7
370
    25
100
AcDbLine
 10
183.5
 20
-212.6460842727
 30
0.0
 11
183.5
 21
-199.6460842727
 31
0.0
  0
LINE
  5
3A9
330
1F
100
AcDbEntity
  8
0
  6
Continuous
 62
     7
370
    25
100
AcDbLine
 10
197.0
 20
-213.1460842727
 30
0.0
 11
184.0
 21
-213.1460842727
 31
0.0
  0
LINE
  5
3AA
330
1F
100
AcDbEntity
  8
0
  6
Continuous
 62
     7
370
    25
100
AcDbLine
 10
197.5
 20
-199.6460842727
 30
0.0
 11
197.5
 21
-212.6460842727
 31
0.0
  0
LINE
  5
3AB
330
1F
100
AcDbEntity
  8
0
  6
Continuous
 62
     7
370
    25
100
AcDbLine
 10
184.0
 20
-199.1460842727
 30
0.0
 11
197.0
 21
-199.1460842727
 31
0.0
  0
LINE
  5
3AC
330
1F
100
AcDbEntity
  8
0
  6
Continuous
 62
     7
370
    25
100
AcDbLine
 10
164.45
 20
-212.6460842727
 30
0.0
 11
164.45
 21
-199.6460842727
 31
0.0
  0
LINE
  5
3AD
330
1F
100
AcDbEntity
  8
0
  6
Continuous
 62
     7
370
    25
100
AcDbLine
 10
177.95
 20
-213.1460842727
 30
0.0
 11
164.95
 21
-213.1460842727
 31
0.0
  0
LINE
  5
3AE
330
1F
100
AcDbEntity
  8
0
  6
Continuous
 62
     7
370
    25
100
AcDbLine
 10
178.45
 20
-199.6460842727
 30
0.0
 11
178.45
 21
-212.6460842727
 31
0.0
  0
LINE
  5
3AF
330
1F
100
AcDbEntity
  8
0
  6
Continuous
 62
     7
370
    25
100
AcDbLine
 10
164.95
 20
-199.1460842727
 30
0.0
 11
177.95
 21
-199.1460842727
 31
0.0
  0
LINE
  5
3B0
330
1F
100
AcDbEntity
  8
0
  6
Continuous
 62
     7
370
    25
100
AcDbLine
 10
202.55
 20
-212.6460842727
 30
0.0
 11
202.55
 21
-199.6460842727
 31
0.0
  0
LINE
  5
3B1
330
1F
100
AcDbEntity
  8
0
  6
Continuous
 62
     7
370
    25
100
AcDbLine
 10
216.05
 20
-213.1460842727
 30
0.0
 11
203.05
 21
-213.1460842727
 31
0.0
  0
LINE
  5
3B2
330
1F
100
AcDbEntity
  8
0
  6
Continuous
 62
     7
370
    25
100
AcDbLine
 10
216.55
 20
-199.6460842727
 30
0.0
 11
216.55
 21
-212.6460842727
 31
0.0
  0
LINE
  5
3B3
330
1F
100
AcDbEntity
  8
0
  6
Continuous
 62
     7
370
    25
100
AcDbLine
 10
203.05
 20
-199.1460842727
 30
0.0
 11
216.05
 21
-199.1460842727
 31
0.0
  0
LINE
  5
3B4
330
1F
100
AcDbEntity
  8
0
  6
Continuous
 62
     7
370
    25
100
AcDbLine
 10
221.6
 20
-212.6460842727
 30
0.0
 11
221.6
 21
-199.6460842727
 31
0.0
  0
LINE
  5
3B5
330
1F
100
AcDbEntity
  8
0
  6
Continuous
 62
     7
370
    25
100
AcDbLine
 10
235.1
 20
-213.1460842727
 30
0.0
 11
222.1
 21
-213.1460842727
 31
0.0
  0
LINE
  5
3B6
330
1F
100
AcDbEntity
  8
0
  6
Continuous
 62
     7
370
    25
100
AcDbLine
 10
235.6
 20
-199.6460842727
 30
0.0
 11
235.6
 21
-212.6460842727
 31
0.0
  0
LINE
  5
3B7
330
1F
100
AcDbEntity
  8
0
  6
Continuous
 62
     7
370
    25
100
AcDbLine
 10
222.1
 20
-199.1460842727
 30
0.0
 11
235.1
 21
-199.1460842727
 31
0.0
  0
LINE
  5
3B8
330
1F
100
AcDbEntity
  8
0
  6
Continuous
 62
     7
370
    25
100
AcDbLine
 10
112.0625
 20
-231.6960842727
 30
0.0
 11
112.0625
 21
-218.6960842727
 31
0.0
  0
LINE
  5
3B9
330
1F
100
AcDbEntity
  8
0
  6
Continuous
 62
     7
370
    25
100
AcDbLine
 10
125.5625
 20
-232.1960842727
 30
0.0
 11
112.5625
 21
-232.1960842727
 31
0.0
  0
LINE
  5
3BA
330
1F
100
AcDbEntity
  8
0
  6
Continuous
 62
     7
370
    25
100
AcDbLine
 10
126.0625
 20
-218.6960842727
 30
0.0
 11
126.0625
 21
-231.6960842727
 31
0.0
  0
LINE
  5
3BB
330
1F
100
AcDbEntity
  8
0
  6
Continuous
 62
     7
370
    25
100
AcDbLine
 10
112.5625
 20
-218.1960842727
 30
0.0
 11
125.5625
 21
-218.1960842727
 31
0.0
  0
LINE
  5
3BC
330
1F
100
AcDbEntity
  8
0
  6
Continuous
 62
     7
370
    25
100
AcDbLine
 10
150.1625
 20
-231.6960842727
 30
0.0
 11
150.1625
 21
-218.6960842727
 31
0.0
  0
LINE
  5
3BD
330
1F
100
AcDbEntity
  8
0
  6
Continuous
 62
     7
370
    25
100
AcDbLine
 10
163.6625
 20
-232.1960842727
 30
0.0
 11
150.6625
 21
-232.1960842727
 31
0.0
  0
LINE
  5
3BE
330
1F
100
AcDbEntity
  8
0
  6
Continuous
 62
     7
370
    25
100
AcDbLine
 10
164.1625
 20
-218.6960842727
 30
0.0
 11
164.1625
 21
-231.6960842727
 31
0.0
  0
LINE
  5
3BF
330
1F
100
AcDbEntity
  8
0
  6
Continuous
 62
     7
370
    25
100
AcDbLine
 10
150.6625
 20
-218.1960842727
 30
0.0
 11
163.6625
 21
-218.1960842727
 31
0.0
  0
LINE
  5
3C0
330
1F
100
AcDbEntity
  8
0
  6
Continuous
 62
     7
370
    25
100
AcDbLine
 10
131.1125
 20
-231.6960842727
 30
0.0
 11
131.1125
 21
-218.6960842727
 31
0.0
  0
LINE
  5
3C1
330
1F
100
AcDbEntity
  8
0
  6
Continuous
 62
     7
370
    25
100
AcDbLine
 10
144.6125
 20
-232.1960842727
 30
0.0
 11
131.6125
 21
-232.1960842727
 31
0.0
  0
LINE
  5
3C2
330
1F
100
AcDbEntity
  8
0
  6
Continuous
 62
     7
370
    25
100
AcDbLine
 10
145.1125
 20
-218.6960842727
 30
0.0
 11
145.1125
 21
-231.6960842727
 31
0.0
  0
LINE
  5
3C3
330
1F
100
AcDbEntity
  8
0
  6
Continuous
 62
     7
370
    25
100
AcDbLine
 10
131.6125
 20
-218.1960842727
 30
0.0
 11
144.6125
 21
-218.1960842727
 31
0.0
  0
LINE
  5
3C4
330
1F
100
AcDbEntity
  8
0
  6
Continuous
 62
     7
370
    25
100
AcDbLine
 10
55.4125
 20
-218.1960842727
 30
0.0
 11
68.4125
 21
-218.1960842727
 31
0.0
  0
LINE
  5
3C5
330
1F
100
AcDbEntity
  8
0
  6
Continuous
 62
     7
370
    25
100
AcDbLine
 10
54.9125
 20
-231.6960842727
 30
0.0
 11
54.9125
 21
-218.6960842727
 31
0.0
  0
LINE
  5
3C6
330
1F
100
AcDbEntity
  8
0
  6
Continuous
 62
     7
370
    25
100
AcDbLine
 10
68.4125
 20
-232.1960842727
 30
0.0
 11
55.4125
 21
-232.1960842727
 31
0.0
  0
LINE
  5
3C7
330
1F
100
AcDbEntity
  8
0
  6
Continuous
 62
     7
370
    25
100
AcDbLine
 10
68.9125
 20
-218.6960842727
 30
0.0
 11
68.9125
 21
-231.6960842727
 31
0.0
  0
LINE
  5
3C8
330
1F
100
AcDbEntity
  8
0
  6
Continuous
 62
     7
370
    25
100
AcDbLine
 10
93.0125
 20
-231.6960842727
 30
0.0
 11
93.0125
 21
-218.6960842727
 31
0.0
  0
LINE
  5
3C9
330
1F
100
AcDbEntity
  8
0
  6
Continuous
 62
     7
370
    25
100
AcDbLine
 10
106.5125
 20
-232.1960842727
 30
0.0
 11
93.5125
 21
-232.1960842727
 31
0.0
  0
LINE
  5
3CA
330
1F
100
AcDbEntity
  8
0
  6
Continuous
 62
     7
370
    25
100
AcDbLine
 10
107.0125
 20
-218.6960842727
 30
0.0
 11
107.0125
 21
-231.6960842727
 31
0.0
  0
LINE
  5
3CB
330
1F
100
AcDbEntity
  8
0
  6
Continuous
 62
     7
370
    25
100
AcDbLine
 10
93.5125
 20
-218.1960842727
 30
0.0
 11
106.5125
 21
-218.1960842727
 31
0.0
  0
LINE
  5
3CC
330
1F
100
AcDbEntity
  8
0
  6
Continuous
 62
     7
370
    25
100
AcDbLine
 10
36.3625
 20
-218.1960842727
 30
0.0
 11
49.3625
 21
-218.1960842727
 31
0.0
  0
LINE
  5
3CD
330
1F
100
AcDbEntity
  8
0
  6
Continuous
 62
     7
370
    25
100
AcDbLine
 10
35.8625
 20
-231.6960842727
 30
0.0
 11
35.8625
 21
-218.6960842727
 31
0.0
  0
LINE
  5
3CE
330
1F
100
AcDbEntity
  8
0
  6
Continuous
 62
     7
370
    25
100
AcDbLine
 10
49.3625
 20
-232.1960842727
 30
0.0
 11
36.3625
 21
-232.1960842727
 31
0.0
  0
LINE
  5
3CF
330
1F
100
AcDbEntity
  8
0
  6
Continuous
 62
     7
370
    25
100
AcDbLine
 10
49.8625
 20
-218.6960842727
 30
0.0
 11
49.8625
 21
-231.6960842727
 31
0.0
  0
LINE
  5
3D0
330
1F
100
AcDbEntity
  8
0
  6
Continuous
 62
     7
370
    25
100
AcDbLine
 10
74.4625
 20
-218.1960842727
 30
0.0
 11
87.4625
 21
-218.1960842727
 31
0.0
  0
LINE
  5
3D1
330
1F
100
AcDbEntity
  8
0
  6
Continuous
 62
     7
370
    25
100
AcDbLine
 10
73.9625
 20
-231.6960842727
 30
0.0
 11
73.9625
 21
-218.6960842727
 31
0.0
  0
LINE
  5
3D2
330
1F
100
AcDbEntity
  8
0
  6
Continuous
 62
     7
370
    25
100
AcDbLine
 10
87.4625
 20
-232.1960842727
 30
0.0
 11
74.4625
 21
-232.1960842727
 31
0.0
  0
LINE
  5
3D3
330
1F
100
AcDbEntity
  8
0
  6
Continuous
 62
     7
370
    25
100
AcDbLine
 10
87.9625
 20
-218.6960842727
 30
0.0
 11
87.9625
 21
-231.6960842727
 31
0.0
  0
LINE
  5
3D4
330
1F
100
AcDbEntity
  8
0
  6
Continuous
 62
     7
370
    25
100
AcDbLine
 10
257.31875
 20
-231.6960842727
 30
0.0
 11
257.31875
 21
-218.6960842727
 31
0.0
  0
LINE
  5
3D5
330
1F
100
AcDbEntity
  8
0
  6
Continuous
 62
     7
370
    25
100
AcDbLine
 10
270.81875
 20
-232.1960842727
 30
0.0
 11
257.81875
 21
-232.1960842727
 31
0.0
  0
LINE
  5
3D6
330
1F
100
AcDbEntity
  8
0
  6
Continuous
 62
     7
370
    25
100
AcDbLine
 10
271.31875
 20
-218.6960842727
 30
0.0
 11
271.31875
 21
-231.6960842727
 31
0.0
  0
LINE
  5
3D7
330
1F
100
AcDbEntity
  8
0
  6
Continuous
 62
     7
370
    25
100
AcDbLine
 10
257.81875
 20
-218.1960842727
 30
0.0
 11
270.81875
 21
-218.1960842727
 31
0.0
  0
LINE
  5
3D8
330
1F
100
AcDbEntity
  8
0
  6
Continuous
 62
     7
370
    25
100
AcDbLine
 10
272.88175
 20
-232.6960842727
 30
0.0
 11
272.88175
 21
-219.6960842727
 31
0.0
  0
LINE
  5
3D9
330
1F
100
AcDbEntity
  8
0
  6
Continuous
 62
     7
370
    25
100
AcDbLine
 10
279.13175
 20
-233.1960842727
 30
0.0
 11
273.38175
 21
-233.1960842727
 31
0.0
  0
LINE
  5
3DA
330
1F
100
AcDbEntity
  8
0
  6
Continuous
 62
     7
370
    25
100
AcDbLine
 10
279.63175
 20
-219.6960842727
 30
0.0
 11
279.63175
 21
-232.6960842727
 31
0.0
  0
LINE
  5
3DB
330
1F
100
AcDbEntity
  8
0
  6
Continuous
 62
     7
370
    25
100
AcDbLine
 10
273.38175
 20
-219.1960842727
 30
0.0
 11
279.13175
 21
-219.1960842727
 31
0.0
  0
LINE
  5
3DC
330
1F
100
AcDbEntity
  8
0
  6
Continuous
 62
     7
370
    25
100
AcDbLine
 10
249.50575
 20
-219.1960842727
 30
0.0
 11
255.25575
 21
-219.1960842727
 31
0.0
  0
LINE
  5
3DD
330
1F
100
AcDbEntity
  8
0
  6
Continuous
 62
     7
370
    25
100
AcDbLine
 10
249.00575
 20
-232.6960842727
 30
0.0
 11
249.00575
 21
-219.6960842727
 31
0.0
  0
LINE
  5
3DE
330
1F
100
AcDbEntity
  8
0
  6
Continuous
 62
     7
370
    25
100
AcDbLine
 10
255.25575
 20
-233.1960842727
 30
0.0
 11
249.50575
 21
-233.1960842727
 31
0.0
  0
LINE
  5
3DF
330
1F
100
AcDbEntity
  8
0
  6
Continuous
 62
     7
370
    25
100
AcDbLine
 10
255.75575
 20
-219.6960842727
 30
0.0
 11
255.75575
 21
-232.6960842727
 31
0.0
  0
LINE
  5
3E0
330
1F
100
AcDbEntity
  8
0
  6
Continuous
 62
     7
370
    25
100
AcDbLine
 10
188.2625
 20
-231.6960842727
 30
0.0
 11
188.2625
 21
-218.6960842727
 31
0.0
  0
LINE
  5
3E1
330
1F
100
AcDbEntity
  8
0
  6
Continuous
 62
     7
370
    25
100
AcDbLine
 10
201.7625
 20
-232.1960842727
 30
0.0
 11
188.7625
 21
-232.1960842727
 31
0.0
  0
LINE
  5
3E2
330
1F
100
AcDbEntity
  8
0
  6
Continuous
 62
     7
370
    25
100
AcDbLine
 10
202.2625
 20
-218.6960842727
 30
0.0
 11
202.2625
 21
-231.6960842727
 31
0.0
  0
LINE
  5
3E3
330
1F
100
AcDbEntity
  8
0
  6
Continuous
 62
     7
370
    25
100
AcDbLine
 10
188.7625
 20
-218.1960842727
 30
0.0
 11
201.7625
 21
-218.1960842727
 31
0.0
  0
LINE
  5
3E4
330
1F
100
AcDbEntity
  8
0
  6
Continuous
 62
     7
370
    25
100
AcDbLine
 10
169.2125
 20
-231.6960842727
 30
0.0
 11
169.2125
 21
-218.6960842727
 31
0.0
  0
LINE
  5
3E5
330
1F
100
AcDbEntity
  8
0
  6
Continuous
 62
     7
370
    25
100
AcDbLine
 10
182.7125
 20
-232.1960842727
 30
0.0
 11
169.7125
 21
-232.1960842727
 31
0.0
  0
LINE
  5
3E6
330
1F
100
AcDbEntity
  8
0
  6
Continuous
 62
     7
370
    25
100
AcDbLine
 10
183.2125
 20
-218.6960842727
 30
0.0
 11
183.2125
 21
-231.6960842727
 31
0.0
  0
LINE
  5
3E7
330
1F
100
AcDbEntity
  8
0
  6
Continuous
 62
     7
370
    25
100
AcDbLine
 10
169.7125
 20
-218.1960842727
 30
0.0
 11
182.7125
 21
-218.1960842727
 31
0.0
  0
LINE
  5
3E8
330
1F
100
AcDbEntity
  8
0
  6
Continuous
 62
     7
370
    25
100
AcDbLine
 10
207.3125
 20
-231.6960842727
 30
0.0
 11
207.3125
 21
-218.6960842727
 31
0.0
  0
LINE
  5
3E9
330
1F
100
AcDbEntity
  8
0
  6
Continuous
 62
     7
370
    25
100
AcDbLine
 10
220.8125
 20
-232.1960842727
 30
0.0
 11
207.8125
 21
-232.1960842727
 31
0.0
  0
LINE
  5
3EA
330
1F
100
AcDbEntity
  8
0
  6
Continuous
 62
     7
370
    25
100
AcDbLine
 10
221.3125
 20
-218.6960842727
 30
0.0
 11
221.3125
 21
-231.6960842727
 31
0.0
  0
LINE
  5
3EB
330
1F
100
AcDbEntity
  8
0
  6
Continuous
 62
     7
370
    25
100
AcDbLine
 10
207.8125
 20
-218.1960842727
 30
0.0
 11
220.8125
 21
-218.1960842727
 31
0.0
  0
LINE
  5
3EC
330
1F
100
AcDbEntity
  8
0
  6
Continuous
 62
     7
370
    25
100
AcDbLine
 10
226.8625
 20
-218.1960842727
 30
0.0
 11
239.8625
 21
-218.1960842727
 31
0.0
  0
LINE
  5
3ED
330
1F
100
AcDbEntity
  8
0
  6
Continuous
 62
     7
370
    25
100
AcDbLine
 10
226.3625
 20
-231.6960842727
 30
0.0
 11
226.3625
 21
-218.6960842727
 31
0.0
  0
LINE
  5
3EE
330
1F
100
AcDbEntity
  8
0
  6
Continuous
 62
     7
370
    25
100
AcDbLine
 10
239.8625
 20
-232.1960842727
 30
0.0
 11
226.8625
 21
-232.1960842727
 31
0.0
  0
LINE
  5
3EF
330
1F
100
AcDbEntity
  8
0
  6
Continuous
 62
     7
370
    25
100
AcDbLine
 10
240.3625
 20
-218.6960842727
 30
0.0
 11
240.3625
 21
-231.6960842727
 31
0.0
  0
LINE
  5
3F0
330
1F
100
AcDbEntity
  8
0
  6
Continuous
 62
     7
370
    25
100
AcDbLine
 10
121.5875
 20
-250.7460842727
 30
0.0
 11
121.5875
 21
-237.7460842727
 31
0.0
  0
LINE
  5
3F1
330
1F
100
AcDbEntity
  8
0
  6
Continuous
 62
     7
370
    25
100
AcDbLine
 10
135.0875
 20
-251.2460842727
 30
0.0
 11
122.0875
 21
-251.2460842727
 31
0.0
  0
LINE
  5
3F2
330
1F
100
AcDbEntity
  8
0
  6
Continuous
 62
     7
370
    25
100
AcDbLine
 10
135.5875
 20
-237.7460842727
 30
0.0
 11
135.5875
 21
-250.7460842727
 31
0.0
  0
LINE
  5
3F3
330
1F
100
AcDbEntity
  8
0
  6
Continuous
 62
     7
370
    25
100
AcDbLine
 10
122.0875
 20
-237.2460842727
 30
0.0
 11
135.0875
 21
-237.2460842727
 31
0.0
  0
LINE
  5
3F4
330
1F
100
AcDbEntity
  8
0
  6
Continuous
 62
     7
370
    25
100
AcDbLine
 10
45.3875
 20
-250.7460842727
 30
0.0
 11
45.3875
 21
-237.7460842727
 31
0.0
  0
LINE
  5
3F5
330
1F
100
AcDbEntity
  8
0
  6
Continuous
 62
     7
370
    25
100
AcDbLine
 10
58.8875
 20
-251.2460842727
 30
0.0
 11
45.8875
 21
-251.2460842727
 31
0.0
  0
LINE
  5
3F6
330
1F
100
AcDbEntity
  8
0
  6
Continuous
 62
     7
370
    25
100
AcDbLine
 10
59.3875
 20
-237.7460842727
 30
0.0
 11
59.3875
 21
-250.7460842727
 31
0.0
  0
LINE
  5
3F7
330
1F
100
AcDbEntity
  8
0
  6
Continuous
 62
     7
370
    25
100
AcDbLine
 10
45.8875
 20
-237.2460842727
 30
0.0
 11
58.8875
 21
-237.2460842727
 31
0.0
  0
LINE
  5
3F8
330
1F
100
AcDbEntity
  8
0
  6
Continuous
 62
     7
370
    25
100
AcDbLine
 10
14.43125
 20
-250.7460842727
 30
0.0
 11
14.43125
 21
-237.7460842727
 31
0.0
  0
LINE
  5
3F9
330
1F
100
AcDbEntity
  8
0
  6
Continuous
 62
     7
370
    25
100
AcDbLine
 10
27.93125
 20
-251.2460842727
 30
0.0
 11
14.93125
 21
-251.2460842727
 31
0.0
  0
LINE
  5
3FA
330
1F
100
AcDbEntity
  8
0
  6
Continuous
 62
     7
370
    25
100
AcDbLine
 10
28.43125
 20
-237.7460842727
 30
0.0
 11
28.43125
 21
-250.7460842727
 31
0.0
  0
LINE
  5
3FB
330
1F
100
AcDbEntity
  8
0
  6
Continuous
 62
     7
370
    25
100
AcDbLine
 10
14.93125
 20
-237.2460842727
 30
0.0
 11
27.93125
 21
-237.2460842727
 31
0.0
  0
LINE
  5
3FC
330
1F
100
AcDbEntity
  8
0
  6
Continuous
 62
     7
370
    25
100
AcDbLine
 10
29.99425
 20
-251.7460842727
 30
0.0
 11
29.99425
 21
-238.7460842727
 31
0.0
  0
LINE
  5
3FD
330
1F
100
AcDbEntity
  8
0
  6
Continuous
 62
     7
370
    25
100
AcDbLine
 10
36.24425
 20
-252.2460842727
 30
0.0
 11
30.49425
 21
-252.2460842727
 31
0.0
  0
LINE
  5
3FE
330
1F
100
AcDbEntity
  8
0
  6
Continuous
 62
     7
370
    25
100
AcDbLine
 10
36.74425
 20
-238.7460842727
 30
0.0
 11
36.74425
 21
-251.7460842727
 31
0.0
  0
LINE
  5
3FF
330
1F
100
AcDbEntity
  8
0
  6
Continuous
 62
     7
370
    25
100
AcDbLine
 10
30.49425
 20
-238.2460842727
 30
0.0
 11
36.24425
 21
-238.2460842727
 31
0.0
  0
LINE
  5
400
330
1F
100
AcDbEntity
  8
0
  6
Continuous
 62
     7
370
    25
100
AcDbLine
 10
64.9375
 20
-237.2460842727
 30
0.0
 11
77.9375
 21
-237.2460842727
 31
0.0
  0
LINE
  5
401
330
1F
100
AcDbEntity
  8
0
  6
Continuous
 62
     7
370
    25
100
AcDbLine
 10
64.4375
 20
-250.7460842727
 30
0.0
 11
64.4375
 21
-237.7460842727
 31
0.0
  0
LINE
  5
402
330
1F
100
AcDbEntity
  8
0
  6
Continuous
 62
     7
370
    25
100
AcDbLine
 10
77.9375
 20
-251.2460842727
 30
0.0
 11
64.9375
 21
-251.2460842727
 31
0.0
  0
LINE
  5
403
330
1F
100
AcDbEntity
  8
0
  6
Continuous
 62
     7
370
    25
100
AcDbLine
 10
78.4375
 20
-237.7460842727
 30
0.0
 11
78.4375
 21
-250.7460842727
 31
0.0
  0
LINE
  5
404
330
1F
100
AcDbEntity
  8
0
  6
Continuous
 62
     7
370
    25
100
AcDbLine
 10
102.5375
 20
-250.7460842727
 30
0.0
 11
102.5375
 21
-237.7460842727
 31
0.0
  0
LINE
  5
405
330
1F
100
AcDbEntity
  8
0
  6
Continuous
 62
     7
370
    25
100
AcDbLine
 10
116.0375
 20
-251.2460842727
 30
0.0
 11
103.0375
 21
-251.2460842727
 31
0.0
  0
LINE
  5
406
330
1F
100
AcDbEntity
  8
0
  6
Continuous
 62
     7
370
    25
100
AcDbLine
 10
116.5375
 20
-237.7460842727
 30
0.0
 11
116.5375
 21
-250.7460842727
 31
0.0
  0
LINE
  5
407
330
1F
100
AcDbEntity
  8
0
  6
Continuous
 62
     7
370
    25
100
AcDbLine
 10
103.0375
 20
-237.2460842727
 30
0.0
 11
116.0375
 21
-237.2460842727
 31
0.0
  0
LINE
  5
408
330
1F
100
AcDbEntity
  8
0
  6
Continuous
 62
     7
370
    25
100
AcDbLine
 10
83.4875
 20
-250.7460842727
 30
0.0
 11
83.4875
 21
-237.7460842727
 31
0.0
  0
LINE
  5
409
330
1F
100
AcDbEntity
  8
0
  6
Continuous
 62
     7
370
    25
100
AcDbLine
 10
96.9875
 20
-251.2460842727
 30
0.0
 11
83.9875
 21
-251.2460842727
 31
0.0
  0
LINE
  5
40A
330
1F
100
AcDbEntity
  8
0
  6
Continuous
 62
     7
370
    25
100
AcDbLine
 10
97.4875
 20
-237.7460842727
 30
0.0
 11
97.4875
 21
-250.7460842727
 31
0.0
  0
LINE
  5
40B
330
1F
100
AcDbEntity
  8
0
  6
Continuous
 62
     7
370
    25
100
AcDbLine
 10
83.9875
 20
-237.2460842727
 30
0.0
 11
96.9875
 21
-237.2460842727
 31
0.0
  0
LINE
  5
40C
330
1F
100
AcDbEntity
  8
0
  6
Continuous
 62
     7
370
    25
100
AcDbLine
 10
197.7875
 20
-250.7460842727
 30
0.0
 11
197.7875
 21
-237.7460842727
 31
0.0
  0
LINE
  5
40D
330
1F
100
AcDbEntity
  8
0
  6
Continuous
 62
     7
370
    25
100
AcDbLine
 10
211.2875
 20
-251.2460842727
 30
0.0
 11
198.2875
 21
-251.2460842727
 31
0.0
  0
LINE
  5
40E
330
1F
100
AcDbEntity
  8
0
  6
Continuous
 62
     7
370
    25
100
AcDbLine
 10
211.7875
 20
-237.7460842727
 30
0.0
 11
211.7875
 21
-250.7460842727
 31
0.0
  0
LINE
  5
40F
330
1F
100
AcDbEntity
  8
0
  6
Continuous
 62
     7
370
    25
100
AcDbLine
 10
198.2875
 20
-237.2460842727
 30
0.0
 11
211.2875
 21
-237.2460842727
 31
0.0
  0
LINE
  5
410
330
1F
100
AcDbEntity
  8
0
  6
Continuous
 62
     7
370
    25
100
AcDbLine
 10
178.7375
 20
-250.7460842727
 30
0.0
 11
178.7375
 21
-237.7460842727
 31
0.0
  0
LINE
  5
411
330
1F
100
AcDbEntity
  8
0
  6
Continuous
 62
     7
370
    25
100
AcDbLine
 10
192.2375
 20
-251.2460842727
 30
0.0
 11
179.2375
 21
-251.2460842727
 31
0.0
  0
LINE
  5
412
330
1F
100
AcDbEntity
  8
0
  6
Continuous
 62
     7
370
    25
100
AcDbLine
 10
192.7375
 20
-237.7460842727
 30
0.0
 11
192.7375
 21
-250.7460842727
 31
0.0
  0
LINE
  5
413
330
1F
100
AcDbEntity
  8
0
  6
Continuous
 62
     7
370
    25
100
AcDbLine
 10
179.2375
 20
-237.2460842727
 30
0.0
 11
192.2375
 21
-237.2460842727
 31
0.0
  0
LINE
  5
414
330
1F
100
AcDbEntity
  8
0
  6
Continuous
 62
     7
370
    25
100
AcDbLine
 10
243.53125
 20
-237.2460842727
 30
0.0
 11
256.53125
 21
-237.2460842727
 31
0.0
  0
LINE
  5
415
330
1F
100
AcDbEntity
  8
0
  6
Continuous
 62
     7
370
    25
100
AcDbLine
 10
243.03125
 20
-250.7460842727
 30
0.0
 11
243.03125
 21
-237.7460842727
 31
0.0
  0
LINE
  5
416
330
1F
100
AcDbEntity
  8
0
  6
Continuous
 62
     7
370
    25
100
AcDbLine
 10
256.53125
 20
-251.2460842727
 30
0.0
 11
243.53125
 21
-251.2460842727
 31
0.0
  0
LINE
  5
417
330
1F
100
AcDbEntity
  8
0
  6
Continuous
 62
     7
370
    25
100
AcDbLine
 10
257.03125
 20
-237.7460842727
 30
0.0
 11
257.03125
 21
-250.7460842727
 31
0.0
  0
LINE
  5
418
330
1F
100
AcDbEntity
  8
0
  6
Continuous
 62
     7
370
    25
100
AcDbLine
 10
140.6375
 20
-250.7460842727
 30
0.0
 11
140.6375
 21
-237.7460842727
 31
0.0
  0
LINE
  5
419
330
1F
100
AcDbEntity
  8
0
  6
Continuous
 62
     7
370
    25
100
AcDbLine
 10
154.1375
 20
-251.2460842727
 30
0.0
 11
141.1375
 21
-251.2460842727
 31
0.0
  0
LINE
  5
41A
330
1F
100
AcDbEntity
  8
0
  6
Continuous
 62
     7
370
    25
100
AcDbLine
 10
154.6375
 20
-237.7460842727
 30
0.0
 11
154.6375
 21
-250.7460842727
 31
0.0
  0
LINE
  5
41B
330
1F
100
AcDbEntity
  8
0
  6
Continuous
 62
     7
370
    25
100
AcDbLine
 10
141.1375
 20
-237.2460842727
 30
0.0
 11
154.1375
 21
-237.2460842727
 31
0.0
  0
LINE
  5
41C
330
1F
100
AcDbEntity
  8
0
  6
Continuous
 62
     7
370
    25
100
AcDbLine
 10
159.6875
 20
-250.7460842727
 30
0.0
 11
159.6875
 21
-237.7460842727
 31
0.0
  0
LINE
  5
41D
330
1F
100
AcDbEntity
  8
0
  6
Continuous
 62
     7
370
    25
100
AcDbLine
 10
173.1875
 20
-251.2460842727
 30
0.0
 11
160.1875
 21
-251.2460842727
 31
0.0
  0
LINE
  5
41E
330
1F
100
AcDbEntity
  8
0
  6
Continuous
 62
     7
370
    25
100
AcDbLine
 10
173.6875
 20
-237.7460842727
 30
0.0
 11
173.6875
 21
-250.7460842727
 31
0.0
  0
LINE
  5
41F
330
1F
100
AcDbEntity
  8
0
  6
Continuous
 62
     7
370
    25
100
AcDbLine
 10
160.1875
 20
-237.2460842727
 30
0.0
 11
173.1875
 21
-237.2460842727
 31
0.0
  0
LINE
  5
420
330
1F
100
AcDbEntity
  8
0
  6
Continuous
 62
     7
370
    25
100
AcDbLine
 10
269.225
 20
-250.7460842727
 30
0.0
 11
269.225
 21
-237.7460842727
 31
0.0
  0
LINE
  5
421
330
1F
100
AcDbEntity
  8
0
  6
Continuous
 62
     7
370
    25
100
AcDbLine
 10
282.725
 20
-251.2460842727
 30
0.0
 11
269.725
 21
-251.2460842727
 31
0.0
  0
LINE
  5
422
330
1F
100
AcDbEntity
  8
0
  6
Continuous
 62
     7
370
    25
100
AcDbLine
 10
283.225
 20
-237.7460842727
 30
0.0
 11
283.225
 21
-250.7460842727
 31
0.0
  0
LINE
  5
423
330
1F
100
AcDbEntity
  8
0
  6
Continuous
 62
     7
370
    25
100
AcDbLine
 10
269.725
 20
-237.2460842727
 30
0.0
 11
282.725
 21
-237.2460842727
 31
0.0
  0
LINE
  5
424
330
1F
100
AcDbEntity
  8
0
  6
Continuous
 62
     7
370
    25
100
AcDbLine
 10
216.8375
 20
-250.7460842727
 30
0.0
 11
216.8375
 21
-237.7460842727
 31
0.0
  0
LINE
  5
425
330
1F
100
AcDbEntity
  8
0
  6
Continuous
 62
     7
370
    25
100
AcDbLine
 10
230.3375
 20
-251.2460842727
 30
0.0
 11
217.3375
 21
-251.2460842727
 31
0.0
  0
LINE
  5
426
330
1F
100
AcDbEntity
  8
0
  6
Continuous
 62
     7
370
    25
100
AcDbLine
 10
230.8375
 20
-237.7460842727
 30
0.0
 11
230.8375
 21
-250.7460842727
 31
0.0
  0
LINE
  5
427
330
1F
100
AcDbEntity
  8
0
  6
Continuous
 62
     7
370
    25
100
AcDbLine
 10
217.3375
 20
-237.2460842727
 30
0.0
 11
230.3375
 21
-237.2460842727
 31
0.0
  0
LINE
  5
428
330
1F
100
AcDbEntity
  8
0
  6
Continuous
 62
     7
370
    25
100
AcDbLine
 10
78.0875
 20
-269.2960842727
 30
0.0
 11
83.8375
 21
-269.2960842727
 31
0.0
  0
LINE
  5
429
330
1F
100
AcDbEntity
  8
0
  6
Continuous
 62
     7
370
    25
100
AcDbLine
 10
84.3375
 20
-255.7960842727
 30
0.0
 11
84.3375
 21
-268.7960842727
 31
0.0
  0
LINE
  5
42A
330
1F
100
AcDbEntity
  8
0
  6
Continuous
 62
     7
370
    25
100
AcDbLine
 10
77.5875
 20
-268.7960842727
 30
0.0
 11
77.5875
 21
-255.7960842727
 31
0.0
  0
LINE
  5
42B
330
1F
100
AcDbEntity
  8
0
  6
Continuous
 62
     7
370
    25
100
AcDbLine
 10
269.225
 20
-269.7960842727
 30
0.0
 11
269.225
 21
-256.7960842727
 31
0.0
  0
LINE
  5
42C
330
1F
100
AcDbEntity
  8
0
  6
Continuous
 62
     7
370
    25
100
AcDbLine
 10
282.725
 20
-270.2960842727
 30
0.0
 11
269.725
 21
-270.2960842727
 31
0.0
  0
LINE
  5
42D
330
1F
100
AcDbEntity
  8
0
  6
Continuous
 62
     7
370
    25
100
AcDbLine
 10
283.225
 20
-256.7960842727
 30
0.0
 11
283.225
 21
-269.7960842727
 31
0.0
  0
LINE
  5
42E
330
1F
100
AcDbEntity
  8
0
  6
Continuous
 62
     7
370
    25
100
AcDbLine
 10
269.725
 20
-256.2960842727
 30
0.0
 11
282.725
 21
-256.2960842727
 31
0.0
  0
LINE
  5
42F
330
1F
100
AcDbEntity
  8
0
  6
Continuous
 62
     7
370
    25
100
AcDbLine
 10
192.3875
 20
-269.2960842727
 30
0.0
 11
198.1375
 21
-269.2960842727
 31
0.0
  0
LINE
  5
430
330
1F
100
AcDbEntity
  8
0
  6
Continuous
 62
     7
370
    25
100
AcDbLine
 10
198.6375
 20
-255.7960842727
 30
0.0
 11
198.6375
 21
-268.7960842727
 31
0.0
  0
LINE
  5
431
330
1F
100
AcDbEntity
  8
0
  6
Continuous
 62
     7
370
    25
100
AcDbLine
 10
191.8875
 20
-268.7960842727
 30
0.0
 11
191.8875
 21
-255.7960842727
 31
0.0
  0
LINE
  5
432
330
1F
100
AcDbEntity
  8
0
  6
Continuous
 62
     7
370
    25
100
AcDbLine
 10
131.1125
 20
-269.7960842727
 30
0.0
 11
131.1125
 21
-256.7960842727
 31
0.0
  0
LINE
  5
433
330
1F
100
AcDbEntity
  8
0
  6
Continuous
 62
     7
370
    25
100
AcDbLine
 10
144.6125
 20
-270.2960842727
 30
0.0
 11
131.6125
 21
-270.2960842727
 31
0.0
  0
LINE
  5
434
330
1F
100
AcDbEntity
  8
0
  6
Continuous
 62
     7
370
    25
100
AcDbLine
 10
145.1125
 20
-256.7960842727
 30
0.0
 11
145.1125
 21
-269.7960842727
 31
0.0
  0
LINE
  5
435
330
1F
100
AcDbEntity
  8
0
  6
Continuous
 62
     7
370
    25
100
AcDbLine
 10
131.6125
 20
-256.2960842727
 30
0.0
 11
144.6125
 21
-256.2960842727
 31
0.0
  0
LINE
  5
436
330
1F
100
AcDbEntity
  8
0
  6
Continuous
 62
     7
370
    25
100
AcDbLine
 10
5.40625
 20
-218.1960842727
 30
0.0
 11
23.16875
 21
-218.1960842727
 31
0.0
  0
LINE
  5
437
330
1F
100
AcDbEntity
  8
0
  6
Continuous
 62
     7
370
    25
100
AcDbLine
 10
4.90625
 20
-231.6960842727
 30
0.0
 11
4.90625
 21
-218.6960842727
 31
0.0
  0
LINE
  5
438
330
1F
100
AcDbEntity
  8
0
  6
Continuous
 62
     7
370
    25
100
AcDbLine
 10
23.16875
 20
-232.1960842727
 30
0.0
 11
5.40625
 21
-232.1960842727
 31
0.0
  0
LINE
  5
439
330
1F
100
AcDbEntity
  8
0
  6
Continuous
 62
     7
370
    25
100
AcDbLine
 10
23.66875
 20
-218.6960842727
 30
0.0
 11
23.66875
 21
-231.6960842727
 31
0.0
  0
LINE
  5
43A
330
1F
100
AcDbEntity
  8
0
  6
Continuous
 62
     7
370
    25
100
AcDbLine
 10
282.725
 20
-194.0960842727
 30
0.0
 11
282.513
 21
-194.0960842727
 31
0.0
  0
LINE
  5
43B
330
1F
100
AcDbEntity
  8
0
  6
Continuous
 62
     7
370
    25
100
AcDbLine
 10
283.225
 20
-180.5960842727
 30
0.0
 11
283.225
 21
-193.5960842727
 31
0.0
  0
LINE
  5
43C
330
1F
100
AcDbEntity
  8
0
  6
Continuous
 62
     7
370
    25
100
AcDbLine
 10
250.675
 20
-180.0960842727
 30
0.0
 11
282.725
 21
-180.0960842727
 31
0.0
  0
LINE
  5
43D
330
1F
100
AcDbEntity
  8
0
  6
Continuous
 62
     7
370
    25
100
AcDbLine
 10
250.175
 20
-193.5960842727
 30
0.0
 11
250.175
 21
-180.5960842727
 31
0.0
  0
LINE
  5
43E
330
1F
100
AcDbEntity
  8
0
  6
Continuous
 62
     7
370
    25
100
AcDbLine
 10
250.887
 20
-194.0960842727
 30
0.0
 11
250.675
 21
-194.0960842727
 31
0.0
  0
LINE
  5
43F
330
1F
100
AcDbEntity
  8
0
  6
Continuous
 62
     7
370
    25
100
AcDbLine
 10
257.637
 20
-195.0960842727
 30
0.0
 11
251.887
 21
-195.0960842727
 31
0.0
  0
LINE
  5
440
330
1F
100
AcDbEntity
  8
0
  6
Continuous
 62
     7
370
    25
100
AcDbLine
 10
274.763
 20
-194.0960842727
 30
0.0
 11
258.637
 21
-194.0960842727
 31
0.0
  0
LINE
  5
441
330
1F
100
AcDbEntity
  8
0
  6
Continuous
 62
     7
370
    25
100
AcDbLine
 10
281.513
 20
-195.0960842727
 30
0.0
 11
275.763
 21
-195.0960842727
 31
0.0
  0
LINE
  5
442
330
1F
100
AcDbEntity
  8
0
  6
Continuous
 62
     7
370
    25
100
AcDbLine
 10
295.225
 20
-274.0210842727
 30
0.0
 11
304.475
 21
-274.0210842727
 31
0.0
  0
LINE
  5
443
330
1F
100
AcDbEntity
  8
0
  6
Continuous
 62
     7
370
    25
100
AcDbLine
 10
304.475
 20
-274.5210842727
 30
0.0
 11
295.225
 21
-274.5210842727
 31
0.0
  0
LINE
  5
444
330
1F
100
AcDbEntity
  8
0
  6
Continuous
 62
     7
370
    25
100
AcDbLine
 10
304.975
 20
-275.0210842727
 30
0.0
 11
304.975
 21
-276.4960842727
 31
0.0
  0
LINE
  5
445
330
1F
100
AcDbEntity
  8
0
  6
Continuous
 62
     7
370
    25
100
AcDbLine
 10
304.475
 20
-276.9960842727
 30
0.0
 11
212.8
 21
-276.9960842727
 31
0.0
  0
LINE
  5
446
330
1F
100
AcDbEntity
  8
0
  6
Continuous
 62
     7
370
    25
100
AcDbLine
 10
212.3
 20
-275.0210842727
 30
0.0
 11
212.3
 21
-276.4960842727
 31
0.0
  0
LINE
  5
447
330
1F
100
AcDbEntity
  8
0
  6
Continuous
 62
     7
370
    25
100
AcDbLine
 10
222.05
 20
-274.5210842727
 30
0.0
 11
212.8
 21
-274.5210842727
 31
0.0
  0
LINE
  5
448
330
1F
100
AcDbEntity
  8
0
  6
Continuous
 62
     7
370
    25
100
AcDbLine
 10
212.8
 20
-274.0210842727
 30
0.0
 11
222.05
 21
-274.0210842727
 31
0.0
  0
LINE
  5
449
330
1F
100
AcDbEntity
  8
0
  6
Continuous
 62
     7
370
    25
100
AcDbLine
 10
212.3
 20
-270.7960842727
 30
0.0
 11
212.3
 21
-273.5210842727
 31
0.0
  0
LINE
  5
44A
330
1F
100
AcDbEntity
  8
0
  6
Continuous
 62
     7
370
    25
100
AcDbLine
 10
225.575
 20
-270.2960842727
 30
0.0
 11
212.8
 21
-270.2960842727
 31
0.0
  0
LINE
  5
44B
330
1F
100
AcDbEntity
  8
0
  6
Continuous
 62
     7
370
    25
100
AcDbLine
 10
226.075
 20
-256.7960842727
 30
0.0
 11
226.075
 21
-269.7960842727
 31
0.0
  0
LINE
  5
44C
330
1F
100
AcDbEntity
  8
0
  6
Continuous
 62
     7
370
    25
100
AcDbLine
 10
212.575
 20
-256.2960842727
 30
0.0
 11
225.575
 21
-256.2960842727
 31
0.0
  0
LINE
  5
44D
330
1F
100
AcDbEntity
  8
0
  6
Continuous
 62
     7
370
    25
100
AcDbLine
 10
212.075
 20
-268.4540624396
 30
0.0
 11
212.075
 21
-256.7960842727
 31
0.0
  0
LINE
  5
44E
330
1F
100
AcDbEntity
  8
0
  6
Continuous
 62
     7
370
    25
100
AcDbLine
 10
206.8
 20
-273.5210842727
 30
0.0
 11
206.8
 21
-270.9960842727
 31
0.0
  0
LINE
  5
44F
330
1F
100
AcDbEntity
  8
0
  6
Continuous
 62
     7
370
    25
100
AcDbLine
 10
197.05
 20
-274.0210842727
 30
0.0
 11
206.3
 21
-274.0210842727
 31
0.0
  0
LINE
  5
450
330
1F
100
AcDbEntity
  8
0
  6
Continuous
 62
     7
370
    25
100
AcDbLine
 10
206.3
 20
-274.5210842727
 30
0.0
 11
197.05
 21
-274.5210842727
 31
0.0
  0
LINE
  5
451
330
1F
100
AcDbEntity
  8
0
  6
Continuous
 62
     7
370
    25
100
AcDbLine
 10
206.8
 20
-276.4960842727
 30
0.0
 11
206.8
 21
-275.0210842727
 31
0.0
  0
LINE
  5
452
330
1F
100
AcDbEntity
  8
0
  6
Continuous
 62
     7
370
    25
100
AcDbLine
 10
206.3
 20
-276.9960842727
 30
0.0
 11
98.5
 21
-276.9960842727
 31
0.0
  0
LINE
  5
453
330
1F
100
AcDbEntity
  8
0
  6
Continuous
 62
     7
370
    25
100
AcDbLine
 10
98.0
 20
-275.0210842727
 30
0.0
 11
98.0
 21
-276.4960842727
 31
0.0
  0
LINE
  5
454
330
1F
100
AcDbEntity
  8
0
  6
Continuous
 62
     7
370
    25
100
AcDbLine
 10
107.75
 20
-274.5210842727
 30
0.0
 11
98.5
 21
-274.5210842727
 31
0.0
  0
LINE
  5
455
330
1F
100
AcDbEntity
  8
0
  6
Continuous
 62
     7
370
    25
100
AcDbLine
 10
98.5
 20
-274.0210842727
 30
0.0
 11
107.75
 21
-274.0210842727
 31
0.0
  0
LINE
  5
456
330
1F
100
AcDbEntity
  8
0
  6
Continuous
 62
     7
370
    25
100
AcDbLine
 10
98.0
 20
-270.9960842727
 30
0.0
 11
98.0
 21
-273.5210842727
 31
0.0
  0
LINE
  5
457
330
1F
100
AcDbEntity
  8
0
  6
Continuous
 62
     7
370
    25
100
AcDbLine
 10
92.5
 20
-273.5210842727
 30
0.0
 11
92.5
 21
-270.9960842727
 31
0.0
  0
LINE
  5
458
330
1F
100
AcDbEntity
  8
0
  6
Continuous
 62
     7
370
    25
100
AcDbLine
 10
82.75
 20
-274.0210842727
 30
0.0
 11
92.0
 21
-274.0210842727
 31
0.0
  0
LINE
  5
459
330
1F
100
AcDbEntity
  8
0
  6
Continuous
 62
     7
370
    25
100
AcDbLine
 10
92.0
 20
-274.5210842727
 30
0.0
 11
82.75
 21
-274.5210842727
 31
0.0
  0
LINE
  5
45A
330
1F
100
AcDbEntity
  8
0
  6
Continuous
 62
     7
370
    25
100
AcDbLine
 10
92.5
 20
-276.4960842727
 30
0.0
 11
92.5
 21
-275.0210842727
 31
0.0
  0
LINE
  5
45B
330
1F
100
AcDbEntity
  8
0
  6
Continuous
 62
     7
370
    25
100
AcDbLine
 10
92.0
 20
-276.9960842727
 30
0.0
 11
0.325
 21
-276.9960842727
 31
0.0
  0
LINE
  5
45C
330
1F
100
AcDbEntity
  8
0
  6
Continuous
 62
     7
370
    25
100
AcDbLine
 10
-0.175
 20
-275.0210842727
 30
0.0
 11
-0.175
 21
-276.4960842727
 31
0.0
  0
LINE
  5
45D
330
1F
100
AcDbEntity
  8
0
  6
Continuous
 62
     7
370
    25
100
AcDbLine
 10
9.575
 20
-274.5210842727
 30
0.0
 11
0.325
 21
-274.5210842727
 31
0.0
  0
LINE
  5
45E
330
1F
100
AcDbEntity
  8
0
  6
Continuous
 62
     7
370
    25
100
AcDbLine
 10
0.325
 20
-274.0210842727
 30
0.0
 11
9.575
 21
-274.0210842727
 31
0.0
  0
LINE
  5
45F
330
1F
100
AcDbEntity
  8
0
  6
Continuous
 62
     7
370
    25
100
AcDbLine
 10
-0.175
 20
-257.0210842727
 30
0.0
 11
-0.175
 21
-273.5210842727
 31
0.0
  0
LINE
  5
460
330
1F
100
AcDbEntity
  8
0
  6
Continuous
 62
     7
370
    25
100
AcDbLine
 10
1.825
 20
-256.5210842727
 30
0.0
 11
0.325
 21
-256.5210842727
 31
0.0
  0
LINE
  5
461
330
1F
100
AcDbEntity
  8
0
  6
Continuous
 62
     7
370
    25
100
AcDbLine
 10
0.325
 20
-251.0210842727
 30
0.0
 11
1.825
 21
-251.0210842727
 31
0.0
  0
LINE
  5
462
330
1F
100
AcDbEntity
  8
0
  6
Continuous
 62
     7
370
    25
100
AcDbLine
 10
-0.175
 20
-199.8710842727
 30
0.0
 11
-0.175
 21
-250.5210842727
 31
0.0
  0
LINE
  5
463
330
1F
100
AcDbEntity
  8
0
  6
Continuous
 62
     7
370
    25
100
AcDbLine
 10
1.825
 20
-199.3710842727
 30
0.0
 11
0.325
 21
-199.3710842727
 31
0.0
  0
LINE
  5
464
330
1F
100
AcDbEntity
  8
0
  6
Continuous
 62
     7
370
    25
100
AcDbLine
 10
16.025
 20
-194.0960842727
 30
0.0
 11
4.3670218331
 21
-194.0960842727
 31
0.0
  0
LINE
  5
465
330
1F
100
AcDbEntity
  8
0
  6
Continuous
 62
     7
370
    25
100
AcDbLine
 10
16.525
 20
-180.5960842727
 30
0.0
 11
16.525
 21
-193.5960842727
 31
0.0
  0
LINE
  5
466
330
1F
100
AcDbEntity
  8
0
  6
Continuous
 62
     7
370
    25
100
AcDbLine
 10
3.025
 20
-180.0960842727
 30
0.0
 11
16.025
 21
-180.0960842727
 31
0.0
  0
LINE
  5
467
330
1F
100
AcDbEntity
  8
0
  6
Continuous
 62
     7
370
    25
100
AcDbLine
 10
2.525
 20
-193.3710842727
 30
0.0
 11
2.525
 21
-180.5960842727
 31
0.0
  0
LINE
  5
468
330
1F
100
AcDbEntity
  8
0
  6
Continuous
 62
     7
370
    25
100
AcDbLine
 10
0.325
 20
-193.8710842727
 30
0.0
 11
2.025
 21
-193.8710842727
 31
0.0
  0
LINE
  5
469
330
1F
100
AcDbEntity
  8
0
  6
Continuous
 62
     7
370
    25
100
AcDbLine
 10
-0.175
 20
-193.3710842727
 30
0.0
 11
-0.175
 21
-176.8710842727
 31
0.0
  0
LINE
  5
46A
330
1F
100
AcDbEntity
  8
0
  6
Continuous
 62
     7
370
    25
100
AcDbLine
 10
9.575
 20
-176.3710842727
 30
0.0
 11
0.325
 21
-176.3710842727
 31
0.0
  0
LINE
  5
46B
330
1F
100
AcDbEntity
  8
0
  6
Continuous
 62
     7
370
    25
100
AcDbLine
 10
0.325
 20
-175.8710842727
 30
0.0
 11
9.575
 21
-175.8710842727
 31
0.0
  0
LINE
  5
46C
330
1F
100
AcDbEntity
  8
0
  6
Continuous
 62
     7
370
    25
100
AcDbLine
 10
-0.175
 20
-175.3710842727
 30
0.0
 11
-0.175
 21
-173.8960842727
 31
0.0
  0
LINE
  5
46D
330
1F
100
AcDbEntity
  8
0
  6
Continuous
 62
     7
370
    25
100
AcDbLine
 10
92.0
 20
-173.3960842727
 30
0.0
 11
0.325
 21
-173.3960842727
 31
0.0
  0
LINE
  5
46E
330
1F
100
AcDbEntity
  8
0
  6
Continuous
 62
     7
370
    25
100
AcDbLine
 10
92.5
 20
-175.3710842727
 30
0.0
 11
92.5
 21
-173.8960842727
 31
0.0
  0
LINE
  5
46F
330
1F
100
AcDbEntity
  8
0
  6
Continuous
 62
     7
370
    25
100
AcDbLine
 10
82.75
 20
-175.8710842727
 30
0.0
 11
92.0
 21
-175.8710842727
 31
0.0
  0
LINE
  5
470
330
1F
100
AcDbEntity
  8
0
  6
Continuous
 62
     7
370
    25
100
AcDbLine
 10
92.0
 20
-176.3710842727
 30
0.0
 11
82.75
 21
-176.3710842727
 31
0.0
  0
LINE
  5
471
330
1F
100
AcDbEntity
  8
0
  6
Continuous
 62
     7
370
    25
100
AcDbLine
 10
92.5
 20
-179.5960842727
 30
0.0
 11
92.5
 21
-176.8710842727
 31
0.0
  0
LINE
  5
472
330
1F
100
AcDbEntity
  8
0
  6
Continuous
 62
     7
370
    25
100
AcDbLine
 10
79.225
 20
-180.0960842727
 30
0.0
 11
92.0
 21
-180.0960842727
 31
0.0
  0
LINE
  5
473
330
1F
100
AcDbEntity
  8
0
  6
Continuous
 62
     7
370
    25
100
AcDbLine
 10
78.725
 20
-193.5960842727
 30
0.0
 11
78.725
 21
-180.5960842727
 31
0.0
  0
LINE
  5
474
330
1F
100
AcDbEntity
  8
0
  6
Continuous
 62
     7
370
    25
100
AcDbLine
 10
92.225
 20
-194.0960842727
 30
0.0
 11
79.225
 21
-194.0960842727
 31
0.0
  0
LINE
  5
475
330
1F
100
AcDbEntity
  8
0
  6
Continuous
 62
     7
370
    25
100
AcDbLine
 10
92.725
 20
-181.9381061058
 30
0.0
 11
92.725
 21
-193.5960842727
 31
0.0
  0
LINE
  5
476
330
1F
100
AcDbEntity
  8
0
  6
Continuous
 62
     7
370
    25
100
AcDbLine
 10
97.775
 20
-193.5960842727
 30
0.0
 11
97.775
 21
-181.9381061058
 31
0.0
  0
LINE
  5
477
330
1F
100
AcDbEntity
  8
0
  6
Continuous
 62
     7
370
    25
100
AcDbLine
 10
111.275
 20
-194.0960842727
 30
0.0
 11
98.275
 21
-194.0960842727
 31
0.0
  0
LINE
  5
478
330
1F
100
AcDbEntity
  8
0
  6
Continuous
 62
     7
370
    25
100
AcDbLine
 10
111.775
 20
-180.5960842727
 30
0.0
 11
111.775
 21
-193.5960842727
 31
0.0
  0
LINE
  5
479
330
1F
100
AcDbEntity
  8
0
  6
Continuous
 62
     7
370
    25
100
AcDbLine
 10
98.5
 20
-180.0960842727
 30
0.0
 11
111.275
 21
-180.0960842727
 31
0.0
  0
LINE
  5
47A
330
1F
100
AcDbEntity
  8
0
  6
Continuous
 62
     7
370
    25
100
AcDbLine
 10
98.0
 20
-176.8710842727
 30
0.0
 11
98.0
 21
-179.5960842727
 31
0.0
  0
LINE
  5
47B
330
1F
100
AcDbEntity
  8
0
  6
Continuous
 62
     7
370
    25
100
AcDbLine
 10
107.75
 20
-176.3710842727
 30
0.0
 11
98.5
 21
-176.3710842727
 31
0.0
  0
LINE
  5
47C
330
1F
100
AcDbEntity
  8
0
  6
Continuous
 62
     7
370
    25
100
AcDbLine
 10
98.5
 20
-175.8710842727
 30
0.0
 11
107.75
 21
-175.8710842727
 31
0.0
  0
LINE
  5
47D
330
1F
100
AcDbEntity
  8
0
  6
Continuous
 62
     7
370
    25
100
AcDbLine
 10
98.0
 20
-173.8960842727
 30
0.0
 11
98.0
 21
-175.3710842727
 31
0.0
  0
LINE
  5
47E
330
1F
100
AcDbEntity
  8
0
  6
Continuous
 62
     7
370
    25
100
AcDbLine
 10
206.3
 20
-173.3960842727
 30
0.0
 11
98.5
 21
-173.3960842727
 31
0.0
  0
LINE
  5
47F
330
1F
100
AcDbEntity
  8
0
  6
Continuous
 62
     7
370
    25
100
AcDbLine
 10
206.8
 20
-175.3710842727
 30
0.0
 11
206.8
 21
-173.8960842727
 31
0.0
  0
LINE
  5
480
330
1F
100
AcDbEntity
  8
0
  6
Continuous
 62
     7
370
    25
100
AcDbLine
 10
197.05
 20
-175.8710842727
 30
0.0
 11
206.3
 21
-175.8710842727
 31
0.0
  0
LINE
  5
481
330
1F
100
AcDbEntity
  8
0
  6
Continuous
 62
     7
370
    25
100
AcDbLine
 10
206.3
 20
-176.3710842727
 30
0.0
 11
197.05
 21
-176.3710842727
 31
0.0
  0
LINE
  5
482
330
1F
100
AcDbEntity
  8
0
  6
Continuous
 62
     7
370
    25
100
AcDbLine
 10
206.8
 20
-179.5960842727
 30
0.0
 11
206.8
 21
-176.8710842727
 31
0.0
  0
LINE
  5
483
330
1F
100
AcDbEntity
  8
0
  6
Continuous
 62
     7
370
    25
100
AcDbLine
 10
193.525
 20
-180.0960842727
 30
0.0
 11
206.3
 21
-180.0960842727
 31
0.0
  0
LINE
  5
484
330
1F
100
AcDbEntity
  8
0
  6
Continuous
 62
     7
370
    25
100
AcDbLine
 10
193.025
 20
-193.5960842727
 30
0.0
 11
193.025
 21
-180.5960842727
 31
0.0
  0
LINE
  5
485
330
1F
100
AcDbEntity
  8
0
  6
Continuous
 62
     7
370
    25
100
AcDbLine
 10
206.525
 20
-194.0960842727
 30
0.0
 11
193.525
 21
-194.0960842727
 31
0.0
  0
LINE
  5
486
330
1F
100
AcDbEntity
  8
0
  6
Continuous
 62
     7
370
    25
100
AcDbLine
 10
207.025
 20
-181.9381061058
 30
0.0
 11
207.025
 21
-193.5960842727
 31
0.0
  0
LINE
  5
487
330
1F
100
AcDbEntity
  8
0
  6
Continuous
 62
     7
370
    25
100
AcDbLine
 10
212.075
 20
-193.5960842727
 30
0.0
 11
212.075
 21
-181.9381061058
 31
0.0
  0
LINE
  5
488
330
1F
100
AcDbEntity
  8
0
  6
Continuous
 62
     7
370
    25
100
AcDbLine
 10
225.575
 20
-194.0960842727
 30
0.0
 11
212.575
 21
-194.0960842727
 31
0.0
  0
LINE
  5
489
330
1F
100
AcDbEntity
  8
0
  6
Continuous
 62
     7
370
    25
100
AcDbLine
 10
226.075
 20
-180.5960842727
 30
0.0
 11
226.075
 21
-193.5960842727
 31
0.0
  0
LINE
  5
48A
330
1F
100
AcDbEntity
  8
0
  6
Continuous
 62
     7
370
    25
100
AcDbLine
 10
212.8
 20
-180.0960842727
 30
0.0
 11
225.575
 21
-180.0960842727
 31
0.0
  0
LINE
  5
48B
330
1F
100
AcDbEntity
  8
0
  6
Continuous
 62
     7
370
    25
100
AcDbLine
 10
212.3
 20
-176.8710842727
 30
0.0
 11
212.3
 21
-179.5960842727
 31
0.0
  0
LINE
  5
48C
330
1F
100
AcDbEntity
  8
0
  6
Continuous
 62
     7
370
    25
100
AcDbLine
 10
222.05
 20
-176.3710842727
 30
0.0
 11
212.8
 21
-176.3710842727
 31
0.0
  0
LINE
  5
48D
330
1F
100
AcDbEntity
  8
0
  6
Continuous
 62
     7
370
    25
100
AcDbLine
 10
212.8
 20
-175.8710842727
 30
0.0
 11
222.05
 21
-175.8710842727
 31
0.0
  0
LINE
  5
48E
330
1F
100
AcDbEntity
  8
0
  6
Continuous
 62
     7
370
    25
100
AcDbLine
 10
212.3
 20
-173.8960842727
 30
0.0
 11
212.3
 21
-175.3710842727
 31
0.0
  0
LINE
  5
48F
330
1F
100
AcDbEntity
  8
0
  6
Continuous
 62
     7
370
    25
100
AcDbLine
 10
304.475
 20
-173.3960842727
 30
0.0
 11
212.8
 21
-173.3960842727
 31
0.0
  0
LINE
  5
490
330
1F
100
AcDbEntity
  8
0
  6
Continuous
 62
     7
370
    25
100
AcDbLine
 10
304.975
 20
-175.3710842727
 30
0.0
 11
304.975
 21
-173.8960842727
 31
0.0
  0
LINE
  5
491
330
1F
100
AcDbEntity
  8
0
  6
Continuous
 62
     7
370
    25
100
AcDbLine
 10
295.225
 20
-175.8710842727
 30
0.0
 11
304.475
 21
-175.8710842727
 31
0.0
  0
LINE
  5
492
330
1F
100
AcDbEntity
  8
0
  6
Continuous
 62
     7
370
    25
100
AcDbLine
 10
304.475
 20
-176.3710842727
 30
0.0
 11
295.225
 21
-176.3710842727
 31
0.0
  0
LINE
  5
493
330
1F
100
AcDbEntity
  8
0
  6
Continuous
 62
     7
370
    25
100
AcDbLine
 10
304.975
 20
-193.3710842727
 30
0.0
 11
304.975
 21
-176.8710842727
 31
0.0
  0
LINE
  5
494
330
1F
100
AcDbEntity
  8
0
  6
Continuous
 62
     7
370
    25
100
AcDbLine
 10
302.775
 20
-193.8710842727
 30
0.0
 11
304.475
 21
-193.8710842727
 31
0.0
  0
LINE
  5
495
330
1F
100
AcDbEntity
  8
0
  6
Continuous
 62
     7
370
    25
100
AcDbLine
 10
302.275
 20
-180.5960842727
 30
0.0
 11
302.275
 21
-193.3710842727
 31
0.0
  0
LINE
  5
496
330
1F
100
AcDbEntity
  8
0
  6
Continuous
 62
     7
370
    25
100
AcDbLine
 10
288.775
 20
-180.0960842727
 30
0.0
 11
301.775
 21
-180.0960842727
 31
0.0
  0
LINE
  5
497
330
1F
100
AcDbEntity
  8
0
  6
Continuous
 62
     7
370
    25
100
AcDbLine
 10
288.275
 20
-193.5960842727
 30
0.0
 11
288.275
 21
-180.5960842727
 31
0.0
  0
LINE
  5
498
330
1F
100
AcDbEntity
  8
0
  6
Continuous
 62
     7
370
    25
100
AcDbLine
 10
300.4329781669
 20
-194.0960842727
 30
0.0
 11
288.775
 21
-194.0960842727
 31
0.0
  0
LINE
  5
499
330
1F
100
AcDbEntity
  8
0
  6
Continuous
 62
     7
370
    25
100
AcDbLine
 10
288.775
 20
-199.1460842727
 30
0.0
 11
300.4329781669
 21
-199.1460842727
 31
0.0
  0
LINE
  5
49A
330
1F
100
AcDbEntity
  8
0
  6
Continuous
 62
     7
370
    25
100
AcDbLine
 10
288.275
 20
-212.6460842727
 30
0.0
 11
288.275
 21
-199.6460842727
 31
0.0
  0
LINE
  5
49B
330
1F
100
AcDbEntity
  8
0
  6
Continuous
 62
     7
370
    25
100
AcDbLine
 10
301.775
 20
-213.1460842727
 30
0.0
 11
288.775
 21
-213.1460842727
 31
0.0
  0
LINE
  5
49C
330
1F
100
AcDbEntity
  8
0
  6
Continuous
 62
     7
370
    25
100
AcDbLine
 10
302.275
 20
-199.8710842727
 30
0.0
 11
302.275
 21
-212.6460842727
 31
0.0
  0
LINE
  5
49D
330
1F
100
AcDbEntity
  8
0
  6
Continuous
 62
     7
370
    25
100
AcDbLine
 10
304.475
 20
-199.3710842727
 30
0.0
 11
302.775
 21
-199.3710842727
 31
0.0
  0
LINE
  5
49E
330
1F
100
AcDbEntity
  8
0
  6
Continuous
 62
     7
370
    25
100
AcDbLine
 10
304.975
 20
-250.5210842727
 30
0.0
 11
304.975
 21
-199.8710842727
 31
0.0
  0
LINE
  5
49F
330
1F
100
AcDbEntity
  8
0
  6
Continuous
 62
     7
370
    25
100
AcDbLine
 10
302.775
 20
-251.0210842727
 30
0.0
 11
304.475
 21
-251.0210842727
 31
0.0
  0
LINE
  5
4A0
330
1F
100
AcDbEntity
  8
0
  6
Continuous
 62
     7
370
    25
100
AcDbLine
 10
302.275
 20
-237.7460842727
 30
0.0
 11
302.275
 21
-250.5210842727
 31
0.0
  0
LINE
  5
4A1
330
1F
100
AcDbEntity
  8
0
  6
Continuous
 62
     7
370
    25
100
AcDbLine
 10
288.775
 20
-237.2460842727
 30
0.0
 11
301.775
 21
-237.2460842727
 31
0.0
  0
LINE
  5
4A2
330
1F
100
AcDbEntity
  8
0
  6
Continuous
 62
     7
370
    25
100
AcDbLine
 10
288.275
 20
-250.7460842727
 30
0.0
 11
288.275
 21
-237.7460842727
 31
0.0
  0
LINE
  5
4A3
330
1F
100
AcDbEntity
  8
0
  6
Continuous
 62
     7
370
    25
100
AcDbLine
 10
300.4329781669
 20
-251.2460842727
 30
0.0
 11
288.775
 21
-251.2460842727
 31
0.0
  0
LINE
  5
4A4
330
1F
100
AcDbEntity
  8
0
  6
Continuous
 62
     7
370
    25
100
AcDbLine
 10
288.775
 20
-256.2960842727
 30
0.0
 11
300.4329781669
 21
-256.2960842727
 31
0.0
  0
LINE
  5
4A5
330
1F
100
AcDbEntity
  8
0
  6
Continuous
 62
     7
370
    25
100
AcDbLine
 10
288.275
 20
-269.7960842727
 30
0.0
 11
288.275
 21
-256.7960842727
 31
0.0
  0
LINE
  5
4A6
330
1F
100
AcDbEntity
  8
0
  6
Continuous
 62
     7
370
    25
100
AcDbLine
 10
301.775
 20
-270.2960842727
 30
0.0
 11
288.775
 21
-270.2960842727
 31
0.0
  0
LINE
  5
4A7
330
1F
100
AcDbEntity
  8
0
  6
Continuous
 62
     7
370
    25
100
AcDbLine
 10
302.275
 20
-257.0210842727
 30
0.0
 11
302.275
 21
-269.7960842727
 31
0.0
  0
LINE
  5
4A8
330
1F
100
AcDbEntity
  8
0
  6
Continuous
 62
     7
370
    25
100
AcDbLine
 10
304.475
 20
-256.5210842727
 30
0.0
 11
302.775
 21
-256.5210842727
 31
0.0
  0
LINE
  5
4A9
330
1F
100
AcDbEntity
  8
0
  6
Continuous
 62
     7
370
    25
100
AcDbLine
 10
304.975
 20
-257.0210842727
 30
0.0
 11
304.975
 21
-273.5210842727
 31
0.0
  0
LINE
  5
4AA
330
1F
100
AcDbEntity
  8
0
  6
Continuous
 62
     7
370
    25
100
AcDbLine
 10
78.0875
 20
-255.2960842727
 30
0.0
 11
83.8375
 21
-255.2960842727
 31
0.0
  0
LINE
  5
4AB
330
1F
100
AcDbEntity
  8
0
  6
Continuous
 62
     7
370
    25
100
AcDbLine
 10
192.3875
 20
-255.2960842727
 30
0.0
 11
198.1375
 21
-255.2960842727
 31
0.0
  0
ARC
  5
4AC
330
1F
100
AcDbEntity
  8
0
  6
Continuous
 62
     7
370
    25
100
AcDbCircle
 10
122.725
 20
-263.2960842727
 30
0.0
 40
1.25
100
AcDbArc
 50
270.0
 51
90.0
  0
ARC
  5
4AD
330
1F
100
AcDbEntity
  8
0
  6
Continuous
 62
     7
370
    25
100
AcDbCircle
 10
92.725
 20
-263.2960842727
 30
0.0
 40
1.25
100
AcDbArc
 50
90.0
 51
270.0
  0
ARC
  5
4AE
330
1F
100
AcDbEntity
  8
0
  6
Continuous
 62
     7
370
    25
100
AcDbCircle
 10
183.5
 20
-263.2960842727
 30
0.0
 40
1.25
100
AcDbArc
 50
270.0
 51
90.0
  0
ARC
  5
4AF
330
1F
100
AcDbEntity
  8
0
  6
Continuous
 62
     7
370
    25
100
AcDbCircle
 10
153.5
 20
-263.2960842727
 30
0.0
 40
1.25
100
AcDbArc
 50
90.0
 51
270.0
  0
ARC
  5
4B0
330
1F
100
AcDbEntity
  8
0
  6
Continuous
 62
     7
370
    25
100
AcDbCircle
 10
12.36825
 20
-251.7460842727
 30
0.0
 40
0.5
100
AcDbArc
 50
270.0
 51
0.0
  0
ARC
  5
4B1
330
1F
100
AcDbEntity
  8
0
  6
Continuous
 62
     7
370
    25
100
AcDbCircle
 10
12.36825
 20
-238.7460842727
 30
0.0
 40
0.499999999999007
100
AcDbArc
 50
359.9999999998
 51
90.0000000001
  0
ARC
  5
4B2
330
1F
100
AcDbEntity
  8
0
  6
Continuous
 62
     7
370
    25
100
AcDbCircle
 10
6.61825
 20
-238.7460842727
 30
0.0
 40
0.500000000002025
100
AcDbArc
 50
90.0000000002
 51
179.9999999999
  0
ARC
  5
4B3
330
1F
100
AcDbEntity
  8
0
  6
Continuous
 62
     7
370
    25
100
AcDbCircle
 10
288.775
 20
-218.6960842727
 30
0.0
 40
0.5000000000000568
100
AcDbArc
 50
90.0
 51
180.0
  0
ARC
  5
4B4
330
1F
100
AcDbEntity
  8
0
  6
Continuous
 62
     7
370
    25
100
AcDbCircle
 10
288.775
 20
-231.6960842727
 30
0.0
 40
0.4999999999999716
100
AcDbArc
 50
180.0
 51
270.0
  0
ARC
  5
4B5
330
1F
100
AcDbEntity
  8
0
  6
Continuous
 62
     7
370
    25
100
AcDbCircle
 10
301.775
 20
-231.6960842727
 30
0.0
 40
0.5
100
AcDbArc
 50
270.0
 51
0.0
  0
ARC
  5
4B6
330
1F
100
AcDbEntity
  8
0
  6
Continuous
 62
     7
370
    25
100
AcDbCircle
 10
301.775
 20
-218.6960842727
 30
0.0
 40
0.5000000000001137
100
AcDbArc
 50
0.0
 51
90.0
  0
ARC
  5
4B7
330
1F
100
AcDbEntity
  8
0
  6
Continuous
 62
     7
370
    25
100
AcDbCircle
 10
63.65
 20
-269.7960842727
 30
0.0
 40
0.4999999999960778
100
AcDbArc
 50
269.9999999996
 51
0.0000000002
  0
ARC
  5
4B8
330
1F
100
AcDbEntity
  8
0
  6
Continuous
 62
     7
370
    25
100
AcDbCircle
 10
63.65
 20
-256.7960842727
 30
0.0
 40
0.5000000000010232
100
AcDbArc
 50
0.0000000002
 51
89.9999999999
  0
ARC
  5
4B9
330
1F
100
AcDbEntity
  8
0
  6
Continuous
 62
     7
370
    25
100
AcDbCircle
 10
50.65
 20
-256.7960842727
 30
0.0
 40
0.4999999999979892
100
AcDbArc
 50
89.9999999998
 51
180.0000000001
  0
ARC
  5
4BA
330
1F
100
AcDbEntity
  8
0
  6
Continuous
 62
     7
370
    25
100
AcDbCircle
 10
50.65
 20
-269.7960842727
 30
0.0
 40
0.5000000000019966
100
AcDbArc
 50
180.0000000005
 51
269.9999999998
  0
ARC
  5
4BB
330
1F
100
AcDbEntity
  8
0
  6
Continuous
 62
     7
370
    25
100
AcDbCircle
 10
250.675
 20
-256.7960842727
 30
0.0
 40
0.4999999999980105
100
AcDbArc
 50
89.9999999998
 51
180.0000000001
  0
ARC
  5
4BC
330
1F
100
AcDbEntity
  8
0
  6
Continuous
 62
     7
370
    25
100
AcDbCircle
 10
250.675
 20
-269.7960842727
 30
0.0
 40
0.5000000000019895
100
AcDbArc
 50
180.0000000005
 51
269.9999999998
  0
ARC
  5
4BD
330
1F
100
AcDbEntity
  8
0
  6
Continuous
 62
     7
370
    25
100
AcDbCircle
 10
263.675
 20
-269.7960842727
 30
0.0
 40
0.4999999999960778
100
AcDbArc
 50
269.9999999996
 51
0.0000000002
  0
ARC
  5
4BE
330
1F
100
AcDbEntity
  8
0
  6
Continuous
 62
     7
370
    25
100
AcDbCircle
 10
263.675
 20
-256.7960842727
 30
0.0
 40
0.50000000000108
100
AcDbArc
 50
0.0000000002
 51
89.9999999999
  0
ARC
  5
4BF
330
1F
100
AcDbEntity
  8
0
  6
Continuous
 62
     7
370
    25
100
AcDbCircle
 10
7.7875
 20
-256.7960842727
 30
0.0
 40
0.4999999999979767
100
AcDbArc
 50
89.9999999998
 51
180.0000000001
  0
ARC
  5
4C0
330
1F
100
AcDbEntity
  8
0
  6
Continuous
 62
     7
370
    25
100
AcDbCircle
 10
7.7875
 20
-269.7960842727
 30
0.0
 40
0.5000000000019895
100
AcDbArc
 50
180.0000000005
 51
269.9999999998
  0
ARC
  5
4C1
330
1F
100
AcDbEntity
  8
0
  6
Continuous
 62
     7
370
    25
100
AcDbCircle
 10
20.7875
 20
-269.7960842727
 30
0.0
 40
0.4999999999960778
100
AcDbArc
 50
269.9999999996
 51
0.0000000002
  0
ARC
  5
4C2
330
1F
100
AcDbEntity
  8
0
  6
Continuous
 62
     7
370
    25
100
AcDbCircle
 10
20.7875
 20
-256.7960842727
 30
0.0
 40
0.5000000000010267
100
AcDbArc
 50
0.0000000002
 51
89.9999999999
  0
ARC
  5
4C3
330
1F
100
AcDbEntity
  8
0
  6
Continuous
 62
     7
370
    25
100
AcDbCircle
 10
117.325
 20
-180.5960842727
 30
0.0
 40
0.5
100
AcDbArc
 50
90.0
 51
180.0
  0
ARC
  5
4C4
330
1F
100
AcDbEntity
  8
0
  6
Continuous
 62
     7
370
    25
100
AcDbCircle
 10
117.325
 20
-193.5960842727
 30
0.0
 40
0.4999999999999716
100
AcDbArc
 50
180.0
 51
270.0
  0
ARC
  5
4C5
330
1F
100
AcDbEntity
  8
0
  6
Continuous
 62
     7
370
    25
100
AcDbCircle
 10
130.325
 20
-193.5960842727
 30
0.0
 40
0.4999999999999716
100
AcDbArc
 50
270.0
 51
0.0
  0
ARC
  5
4C6
330
1F
100
AcDbEntity
  8
0
  6
Continuous
 62
     7
370
    25
100
AcDbCircle
 10
130.325
 20
-180.5960842727
 30
0.0
 40
0.5
100
AcDbArc
 50
0.0
 51
90.0
  0
ARC
  5
4C7
330
1F
100
AcDbEntity
  8
0
  6
Continuous
 62
     7
370
    25
100
AcDbCircle
 10
41.125
 20
-180.5960842727
 30
0.0
 40
0.5000000000000853
100
AcDbArc
 50
90.0
 51
180.0
  0
ARC
  5
4C8
330
1F
100
AcDbEntity
  8
0
  6
Continuous
 62
     7
370
    25
100
AcDbCircle
 10
41.125
 20
-193.5960842727
 30
0.0
 40
0.5
100
AcDbArc
 50
180.0
 51
270.0
  0
ARC
  5
4C9
330
1F
100
AcDbEntity
  8
0
  6
Continuous
 62
     7
370
    25
100
AcDbCircle
 10
54.125
 20
-193.5960842727
 30
0.0
 40
0.5
100
AcDbArc
 50
270.0
 51
0.0
  0
ARC
  5
4CA
330
1F
100
AcDbEntity
  8
0
  6
Continuous
 62
     7
370
    25
100
AcDbCircle
 10
54.125
 20
-180.5960842727
 30
0.0
 40
0.5000000000000284
100
AcDbArc
 50
0.0
 51
90.0
  0
ARC
  5
4CB
330
1F
100
AcDbEntity
  8
0
  6
Continuous
 62
     7
370
    25
100
AcDbCircle
 10
22.075
 20
-180.5960842727
 30
0.0
 40
0.5
100
AcDbArc
 50
90.0
 51
180.0
  0
ARC
  5
4CC
330
1F
100
AcDbEntity
  8
0
  6
Continuous
 62
     7
370
    25
100
AcDbCircle
 10
22.075
 20
-193.5960842727
 30
0.0
 40
0.4999999999999432
100
AcDbArc
 50
180.0
 51
270.0
  0
ARC
  5
4CD
330
1F
100
AcDbEntity
  8
0
  6
Continuous
 62
     7
370
    25
100
AcDbCircle
 10
35.075
 20
-193.5960842727
 30
0.0
 40
0.4999999999999716
100
AcDbArc
 50
270.0
 51
0.0
  0
ARC
  5
4CE
330
1F
100
AcDbEntity
  8
0
  6
Continuous
 62
     7
370
    25
100
AcDbCircle
 10
35.075
 20
-180.5960842727
 30
0.0
 40
0.5000000000000071
100
AcDbArc
 50
0.0
 51
90.0
  0
ARC
  5
4CF
330
1F
100
AcDbEntity
  8
0
  6
Continuous
 62
     7
370
    25
100
AcDbCircle
 10
73.175
 20
-180.5960842727
 30
0.0
 40
0.5000000000000853
100
AcDbArc
 50
0.0
 51
90.0
  0
ARC
  5
4D0
330
1F
100
AcDbEntity
  8
0
  6
Continuous
 62
     7
370
    25
100
AcDbCircle
 10
60.175
 20
-180.5960842727
 30
0.0
 40
0.5000000000000071
100
AcDbArc
 50
90.0
 51
180.0
  0
ARC
  5
4D1
330
1F
100
AcDbEntity
  8
0
  6
Continuous
 62
     7
370
    25
100
AcDbCircle
 10
60.175
 20
-193.5960842727
 30
0.0
 40
0.4999999999999716
100
AcDbArc
 50
180.0
 51
270.0
  0
ARC
  5
4D2
330
1F
100
AcDbEntity
  8
0
  6
Continuous
 62
     7
370
    25
100
AcDbCircle
 10
73.175
 20
-193.5960842727
 30
0.0
 40
0.4999999999999716
100
AcDbArc
 50
270.0
 51
0.0
  0
ARC
  5
4D3
330
1F
100
AcDbEntity
  8
0
  6
Continuous
 62
     7
370
    25
100
AcDbCircle
 10
231.625
 20
-180.5960842727
 30
0.0
 40
0.5000000000000284
100
AcDbArc
 50
90.0
 51
180.0
  0
ARC
  5
4D4
330
1F
100
AcDbEntity
  8
0
  6
Continuous
 62
     7
370
    25
100
AcDbCircle
 10
231.625
 20
-193.5960842727
 30
0.0
 40
0.5
100
AcDbArc
 50
180.0
 51
270.0
  0
ARC
  5
4D5
330
1F
100
AcDbEntity
  8
0
  6
Continuous
 62
     7
370
    25
100
AcDbCircle
 10
244.625
 20
-193.5960842727
 30
0.0
 40
0.4999999999999716
100
AcDbArc
 50
270.0
 51
0.0
  0
ARC
  5
4D6
330
1F
100
AcDbEntity
  8
0
  6
Continuous
 62
     7
370
    25
100
AcDbCircle
 10
244.625
 20
-180.5960842727
 30
0.0
 40
0.5
100
AcDbArc
 50
0.0
 51
90.0
  0
ARC
  5
4D7
330
1F
100
AcDbEntity
  8
0
  6
Continuous
 62
     7
370
    25
100
AcDbCircle
 10
136.375
 20
-180.5960842727
 30
0.0
 40
0.5000000000000284
100
AcDbArc
 50
90.0
 51
180.0
  0
ARC
  5
4D8
330
1F
100
AcDbEntity
  8
0
  6
Continuous
 62
     7
370
    25
100
AcDbCircle
 10
136.375
 20
-193.5960842727
 30
0.0
 40
0.4999999999999716
100
AcDbArc
 50
180.0
 51
270.0
  0
ARC
  5
4D9
330
1F
100
AcDbEntity
  8
0
  6
Continuous
 62
     7
370
    25
100
AcDbCircle
 10
149.375
 20
-193.5960842727
 30
0.0
 40
0.4999999999999716
100
AcDbArc
 50
270.0
 51
0.0
  0
ARC
  5
4DA
330
1F
100
AcDbEntity
  8
0
  6
Continuous
 62
     7
370
    25
100
AcDbCircle
 10
149.375
 20
-180.5960842727
 30
0.0
 40
0.5
100
AcDbArc
 50
0.0
 51
90.0
  0
ARC
  5
4DB
330
1F
100
AcDbEntity
  8
0
  6
Continuous
 62
     7
370
    25
100
AcDbCircle
 10
155.425
 20
-180.5960842727
 30
0.0
 40
0.5000000000000284
100
AcDbArc
 50
90.0
 51
180.0
  0
ARC
  5
4DC
330
1F
100
AcDbEntity
  8
0
  6
Continuous
 62
     7
370
    25
100
AcDbCircle
 10
155.425
 20
-193.5960842727
 30
0.0
 40
0.4999999999999716
100
AcDbArc
 50
180.0
 51
270.0
  0
ARC
  5
4DD
330
1F
100
AcDbEntity
  8
0
  6
Continuous
 62
     7
370
    25
100
AcDbCircle
 10
168.425
 20
-193.5960842727
 30
0.0
 40
0.4999999999999716
100
AcDbArc
 50
270.0
 51
0.0
  0
ARC
  5
4DE
330
1F
100
AcDbEntity
  8
0
  6
Continuous
 62
     7
370
    25
100
AcDbCircle
 10
168.425
 20
-180.5960842727
 30
0.0
 40
0.5
100
AcDbArc
 50
0.0
 51
90.0
  0
ARC
  5
4DF
330
1F
100
AcDbEntity
  8
0
  6
Continuous
 62
     7
370
    25
100
AcDbCircle
 10
174.475
 20
-193.5960842727
 30
0.0
 40
0.5
100
AcDbArc
 50
180.0
 51
270.0
  0
ARC
  5
4E0
330
1F
100
AcDbEntity
  8
0
  6
Continuous
 62
     7
370
    25
100
AcDbCircle
 10
187.475
 20
-193.5960842727
 30
0.0
 40
0.4999999999999716
100
AcDbArc
 50
270.0
 51
0.0
  0
ARC
  5
4E1
330
1F
100
AcDbEntity
  8
0
  6
Continuous
 62
     7
370
    25
100
AcDbCircle
 10
187.475
 20
-180.5960842727
 30
0.0
 40
0.5
100
AcDbArc
 50
0.0
 51
90.0
  0
ARC
  5
4E2
330
1F
100
AcDbEntity
  8
0
  6
Continuous
 62
     7
370
    25
100
AcDbCircle
 10
174.475
 20
-180.5960842727
 30
0.0
 40
0.5000000000000284
100
AcDbArc
 50
90.0
 51
180.0
  0
ARC
  5
4E3
330
1F
100
AcDbEntity
  8
0
  6
Continuous
 62
     7
370
    25
100
AcDbCircle
 10
126.85
 20
-199.6460842727
 30
0.0
 40
0.5000000000000284
100
AcDbArc
 50
90.0
 51
180.0
  0
ARC
  5
4E4
330
1F
100
AcDbEntity
  8
0
  6
Continuous
 62
     7
370
    25
100
AcDbCircle
 10
126.85
 20
-212.6460842727
 30
0.0
 40
0.5
100
AcDbArc
 50
180.0
 51
270.0
  0
ARC
  5
4E5
330
1F
100
AcDbEntity
  8
0
  6
Continuous
 62
     7
370
    25
100
AcDbCircle
 10
139.85
 20
-212.6460842727
 30
0.0
 40
0.4999999999999432
100
AcDbArc
 50
270.0
 51
0.0
  0
ARC
  5
4E6
330
1F
100
AcDbEntity
  8
0
  6
Continuous
 62
     7
370
    25
100
AcDbCircle
 10
139.85
 20
-199.6460842727
 30
0.0
 40
0.5
100
AcDbArc
 50
360.0
 51
90.0
  0
ARC
  5
4E7
330
1F
100
AcDbEntity
  8
0
  6
Continuous
 62
     7
370
    25
100
AcDbCircle
 10
107.8
 20
-199.6460842727
 30
0.0
 40
0.500000000000071
100
AcDbArc
 50
90.0
 51
180.0
  0
ARC
  5
4E8
330
1F
100
AcDbEntity
  8
0
  6
Continuous
 62
     7
370
    25
100
AcDbCircle
 10
107.8
 20
-212.6460842727
 30
0.0
 40
0.5
100
AcDbArc
 50
180.0
 51
270.0
  0
ARC
  5
4E9
330
1F
100
AcDbEntity
  8
0
  6
Continuous
 62
     7
370
    25
100
AcDbCircle
 10
120.8
 20
-212.6460842727
 30
0.0
 40
0.5000000000000142
100
AcDbArc
 50
270.0
 51
0.0
  0
ARC
  5
4EA
330
1F
100
AcDbEntity
  8
0
  6
Continuous
 62
     7
370
    25
100
AcDbCircle
 10
120.8
 20
-199.6460842727
 30
0.0
 40
0.5000000000000568
100
AcDbArc
 50
0.0
 51
90.0
  0
ARC
  5
4EB
330
1F
100
AcDbEntity
  8
0
  6
Continuous
 62
     7
370
    25
100
AcDbCircle
 10
88.75
 20
-199.6460842727
 30
0.0
 40
0.5000000000000568
100
AcDbArc
 50
90.0
 51
180.0
  0
ARC
  5
4EC
330
1F
100
AcDbEntity
  8
0
  6
Continuous
 62
     7
370
    25
100
AcDbCircle
 10
88.75
 20
-212.6460842727
 30
0.0
 40
0.5
100
AcDbArc
 50
180.0
 51
270.0
  0
ARC
  5
4ED
330
1F
100
AcDbEntity
  8
0
  6
Continuous
 62
     7
370
    25
100
AcDbCircle
 10
101.75
 20
-212.6460842727
 30
0.0
 40
0.5000000000000142
100
AcDbArc
 50
270.0
 51
0.0
  0
ARC
  5
4EE
330
1F
100
AcDbEntity
  8
0
  6
Continuous
 62
     7
370
    25
100
AcDbCircle
 10
101.75
 20
-199.6460842727
 30
0.0
 40
0.5000000000000568
100
AcDbArc
 50
0.0
 51
90.0
  0
ARC
  5
4EF
330
1F
100
AcDbEntity
  8
0
  6
Continuous
 62
     7
370
    25
100
AcDbCircle
 10
7.7875
 20
-199.6460842727
 30
0.0
 40
0.5000000000000284
100
AcDbArc
 50
90.0
 51
180.0
  0
ARC
  5
4F0
330
1F
100
AcDbEntity
  8
0
  6
Continuous
 62
     7
370
    25
100
AcDbCircle
 10
7.7875
 20
-212.6460842727
 30
0.0
 40
0.5
100
AcDbArc
 50
180.0
 51
270.0
  0
ARC
  5
4F1
330
1F
100
AcDbEntity
  8
0
  6
Continuous
 62
     7
370
    25
100
AcDbCircle
 10
20.7875
 20
-212.6460842727
 30
0.0
 40
0.5000000000000036
100
AcDbArc
 50
270.0
 51
0.0
  0
ARC
  5
4F2
330
1F
100
AcDbEntity
  8
0
  6
Continuous
 62
     7
370
    25
100
AcDbCircle
 10
20.7875
 20
-199.6460842727
 30
0.0
 40
0.5000000000000604
100
AcDbArc
 50
0.0
 51
90.0
  0
ARC
  5
4F3
330
1F
100
AcDbEntity
  8
0
  6
Continuous
 62
     7
370
    25
100
AcDbCircle
 10
44.6
 20
-199.6460842727
 30
0.0
 40
0.5000000000000568
100
AcDbArc
 50
0.0
 51
90.0
  0
ARC
  5
4F4
330
1F
100
AcDbEntity
  8
0
  6
Continuous
 62
     7
370
    25
100
AcDbCircle
 10
31.6
 20
-199.6460842727
 30
0.0
 40
0.5000000000000071
100
AcDbArc
 50
90.0
 51
180.0
  0
ARC
  5
4F5
330
1F
100
AcDbEntity
  8
0
  6
Continuous
 62
     7
370
    25
100
AcDbCircle
 10
31.6
 20
-212.6460842727
 30
0.0
 40
0.4999999999999538
100
AcDbArc
 50
180.0
 51
270.0
  0
ARC
  5
4F6
330
1F
100
AcDbEntity
  8
0
  6
Continuous
 62
     7
370
    25
100
AcDbCircle
 10
44.6
 20
-212.6460842727
 30
0.0
 40
0.5
100
AcDbArc
 50
270.0
 51
0.0
  0
ARC
  5
4F7
330
1F
100
AcDbEntity
  8
0
  6
Continuous
 62
     7
370
    25
100
AcDbCircle
 10
69.7
 20
-199.6460842727
 30
0.0
 40
0.5
100
AcDbArc
 50
90.0
 51
180.0
  0
ARC
  5
4F8
330
1F
100
AcDbEntity
  8
0
  6
Continuous
 62
     7
370
    25
100
AcDbCircle
 10
69.7
 20
-212.6460842727
 30
0.0
 40
0.5
100
AcDbArc
 50
180.0
 51
270.0
  0
ARC
  5
4F9
330
1F
100
AcDbEntity
  8
0
  6
Continuous
 62
     7
370
    25
100
AcDbCircle
 10
82.7
 20
-212.6460842727
 30
0.0
 40
0.5000000000000284
100
AcDbArc
 50
270.0
 51
360.0
  0
ARC
  5
4FA
330
1F
100
AcDbEntity
  8
0
  6
Continuous
 62
     7
370
    25
100
AcDbCircle
 10
82.7
 20
-199.6460842727
 30
0.0
 40
0.5000000000000568
100
AcDbArc
 50
0.0
 51
90.0
  0
ARC
  5
4FB
330
1F
100
AcDbEntity
  8
0
  6
Continuous
 62
     7
370
    25
100
AcDbCircle
 10
50.65
 20
-199.6460842727
 30
0.0
 40
0.5000000000000568
100
AcDbArc
 50
90.0
 51
180.0
  0
ARC
  5
4FC
330
1F
100
AcDbEntity
  8
0
  6
Continuous
 62
     7
370
    25
100
AcDbCircle
 10
50.65
 20
-212.6460842727
 30
0.0
 40
0.5
100
AcDbArc
 50
180.0
 51
270.0
  0
ARC
  5
4FD
330
1F
100
AcDbEntity
  8
0
  6
Continuous
 62
     7
370
    25
100
AcDbCircle
 10
63.65
 20
-212.6460842727
 30
0.0
 40
0.5000000000000071
100
AcDbArc
 50
270.0
 51
0.0
  0
ARC
  5
4FE
330
1F
100
AcDbEntity
  8
0
  6
Continuous
 62
     7
370
    25
100
AcDbCircle
 10
63.65
 20
-199.6460842727
 30
0.0
 40
0.5000000000000568
100
AcDbArc
 50
0.0
 51
90.0
  0
ARC
  5
4FF
330
1F
100
AcDbEntity
  8
0
  6
Continuous
 62
     7
370
    25
100
AcDbCircle
 10
145.9
 20
-199.6460842727
 30
0.0
 40
0.5
100
AcDbArc
 50
90.0
 51
180.0
  0
ARC
  5
500
330
1F
100
AcDbEntity
  8
0
  6
Continuous
 62
     7
370
    25
100
AcDbCircle
 10
145.9
 20
-212.6460842727
 30
0.0
 40
0.4999999999999716
100
AcDbArc
 50
180.0
 51
270.0
  0
ARC
  5
501
330
1F
100
AcDbEntity
  8
0
  6
Continuous
 62
     7
370
    25
100
AcDbCircle
 10
158.9
 20
-212.6460842727
 30
0.0
 40
0.5
100
AcDbArc
 50
270.0
 51
0.0
  0
ARC
  5
502
330
1F
100
AcDbEntity
  8
0
  6
Continuous
 62
     7
370
    25
100
AcDbCircle
 10
158.9
 20
-199.6460842727
 30
0.0
 40
0.4999999999999432
100
AcDbArc
 50
360.0
 51
90.0
  0
ARC
  5
503
330
1F
100
AcDbEntity
  8
0
  6
Continuous
 62
     7
370
    25
100
AcDbCircle
 10
241.15
 20
-199.6460842727
 30
0.0
 40
0.5000000000000568
100
AcDbArc
 50
90.0
 51
180.0
  0
ARC
  5
504
330
1F
100
AcDbEntity
  8
0
  6
Continuous
 62
     7
370
    25
100
AcDbCircle
 10
241.15
 20
-212.6460842727
 30
0.0
 40
0.5
100
AcDbArc
 50
180.0
 51
270.0
  0
ARC
  5
505
330
1F
100
AcDbEntity
  8
0
  6
Continuous
 62
     7
370
    25
100
AcDbCircle
 10
254.15
 20
-212.6460842727
 30
0.0
 40
0.4999999999999432
100
AcDbArc
 50
270.0
 51
0.0
  0
ARC
  5
506
330
1F
100
AcDbEntity
  8
0
  6
Continuous
 62
     7
370
    25
100
AcDbCircle
 10
254.15
 20
-199.6460842727
 30
0.0
 40
0.5
100
AcDbArc
 50
360.0
 51
90.0
  0
ARC
  5
507
330
1F
100
AcDbEntity
  8
0
  6
Continuous
 62
     7
370
    25
100
AcDbCircle
 10
264.9625
 20
-199.6460842727
 30
0.0
 40
0.5000000000000568
100
AcDbArc
 50
90.0
 51
180.0
  0
ARC
  5
508
330
1F
100
AcDbEntity
  8
0
  6
Continuous
 62
     7
370
    25
100
AcDbCircle
 10
264.9625
 20
-212.6460842727
 30
0.0
 40
0.5
100
AcDbArc
 50
180.0
 51
270.0
  0
ARC
  5
509
330
1F
100
AcDbEntity
  8
0
  6
Continuous
 62
     7
370
    25
100
AcDbCircle
 10
277.9625
 20
-212.6460842727
 30
0.0
 40
0.4999999999998863
100
AcDbArc
 50
270.0
 51
0.0
  0
ARC
  5
50A
330
1F
100
AcDbEntity
  8
0
  6
Continuous
 62
     7
370
    25
100
AcDbCircle
 10
277.9625
 20
-199.6460842727
 30
0.0
 40
0.4999999999999432
100
AcDbArc
 50
360.0
 51
90.0
  0
ARC
  5
50B
330
1F
100
AcDbEntity
  8
0
  6
Continuous
 62
     7
370
    25
100
AcDbCircle
 10
184.0
 20
-212.6460842727
 30
0.0
 40
0.4999999999999432
100
AcDbArc
 50
180.0
 51
270.0
  0
ARC
  5
50C
330
1F
100
AcDbEntity
  8
0
  6
Continuous
 62
     7
370
    25
100
AcDbCircle
 10
197.0
 20
-212.6460842727
 30
0.0
 40
0.4999999999999432
100
AcDbArc
 50
270.0
 51
0.0
  0
ARC
  5
50D
330
1F
100
AcDbEntity
  8
0
  6
Continuous
 62
     7
370
    25
100
AcDbCircle
 10
197.0
 20
-199.6460842727
 30
0.0
 40
0.4999999999999716
100
AcDbArc
 50
360.0
 51
90.0
  0
ARC
  5
50E
330
1F
100
AcDbEntity
  8
0
  6
Continuous
 62
     7
370
    25
100
AcDbCircle
 10
184.0
 20
-199.6460842727
 30
0.0
 40
0.5
100
AcDbArc
 50
90.0
 51
180.0
  0
ARC
  5
50F
330
1F
100
AcDbEntity
  8
0
  6
Continuous
 62
     7
370
    25
100
AcDbCircle
 10
164.95
 20
-199.6460842727
 30
0.0
 40
0.5000000000000284
100
AcDbArc
 50
90.0
 51
180.0
  0
ARC
  5
510
330
1F
100
AcDbEntity
  8
0
  6
Continuous
 62
     7
370
    25
100
AcDbCircle
 10
164.95
 20
-212.6460842727
 30
0.0
 40
0.4999999999999716
100
AcDbArc
 50
180.0
 51
270.0
  0
ARC
  5
511
330
1F
100
AcDbEntity
  8
0
  6
Continuous
 62
     7
370
    25
100
AcDbCircle
 10
177.95
 20
-212.6460842727
 30
0.0
 40
0.4999999999999432
100
AcDbArc
 50
270.0
 51
0.0
  0
ARC
  5
512
330
1F
100
AcDbEntity
  8
0
  6
Continuous
 62
     7
370
    25
100
AcDbCircle
 10
177.95
 20
-199.6460842727
 30
0.0
 40
0.4999999999999716
100
AcDbArc
 50
360.0
 51
90.0
  0
ARC
  5
513
330
1F
100
AcDbEntity
  8
0
  6
Continuous
 62
     7
370
    25
100
AcDbCircle
 10
203.05
 20
-199.6460842727
 30
0.0
 40
0.5000000000000284
100
AcDbArc
 50
90.0
 51
180.0
  0
ARC
  5
514
330
1F
100
AcDbEntity
  8
0
  6
Continuous
 62
     7
370
    25
100
AcDbCircle
 10
203.05
 20
-212.6460842727
 30
0.0
 40
0.4999999999999432
100
AcDbArc
 50
180.0
 51
270.0
  0
ARC
  5
515
330
1F
100
AcDbEntity
  8
0
  6
Continuous
 62
     7
370
    25
100
AcDbCircle
 10
216.05
 20
-212.6460842727
 30
0.0
 40
0.4999999999999432
100
AcDbArc
 50
270.0
 51
0.0
  0
ARC
  5
516
330
1F
100
AcDbEntity
  8
0
  6
Continuous
 62
     7
370
    25
100
AcDbCircle
 10
216.05
 20
-199.6460842727
 30
0.0
 40
0.5
100
AcDbArc
 50
360.0
 51
90.0
  0
ARC
  5
517
330
1F
100
AcDbEntity
  8
0
  6
Continuous
 62
     7
370
    25
100
AcDbCircle
 10
222.1
 20
-199.6460842727
 30
0.0
 40
0.5000000000000568
100
AcDbArc
 50
90.0
 51
180.0
  0
ARC
  5
518
330
1F
100
AcDbEntity
  8
0
  6
Continuous
 62
     7
370
    25
100
AcDbCircle
 10
222.1
 20
-212.6460842727
 30
0.0
 40
0.5
100
AcDbArc
 50
180.0
 51
270.0
  0
ARC
  5
519
330
1F
100
AcDbEntity
  8
0
  6
Continuous
 62
     7
370
    25
100
AcDbCircle
 10
235.1
 20
-212.6460842727
 30
0.0
 40
0.4999999999999432
100
AcDbArc
 50
270.0
 51
0.0
  0
ARC
  5
51A
330
1F
100
AcDbEntity
  8
0
  6
Continuous
 62
     7
370
    25
100
AcDbCircle
 10
235.1
 20
-199.6460842727
 30
0.0
 40
0.5
100
AcDbArc
 50
360.0
 51
90.0
  0
ARC
  5
51B
330
1F
100
AcDbEntity
  8
0
  6
Continuous
 62
     7
370
    25
100
AcDbCircle
 10
112.5625
 20
-218.6960842727
 30
0.0
 40
0.5
100
AcDbArc
 50
90.0
 51
180.0
  0
ARC
  5
51C
330
1F
100
AcDbEntity
  8
0
  6
Continuous
 62
     7
370
    25
100
AcDbCircle
 10
112.5625
 20
-231.6960842727
 30
0.0
 40
0.4999999999999574
100
AcDbArc
 50
180.0
 51
270.0
  0
ARC
  5
51D
330
1F
100
AcDbEntity
  8
0
  6
Continuous
 62
     7
370
    25
100
AcDbCircle
 10
125.5625
 20
-231.6960842727
 30
0.0
 40
0.4999999999999716
100
AcDbArc
 50
270.0
 51
0.0
  0
ARC
  5
51E
330
1F
100
AcDbEntity
  8
0
  6
Continuous
 62
     7
370
    25
100
AcDbCircle
 10
125.5625
 20
-218.6960842727
 30
0.0
 40
0.5000000000000568
100
AcDbArc
 50
0.0
 51
90.0
  0
ARC
  5
51F
330
1F
100
AcDbEntity
  8
0
  6
Continuous
 62
     7
370
    25
100
AcDbCircle
 10
150.6625
 20
-218.6960842727
 30
0.0
 40
0.5000000000000284
100
AcDbArc
 50
90.0
 51
180.0
  0
ARC
  5
520
330
1F
100
AcDbEntity
  8
0
  6
Continuous
 62
     7
370
    25
100
AcDbCircle
 10
150.6625
 20
-231.6960842727
 30
0.0
 40
0.5
100
AcDbArc
 50
180.0
 51
270.0
  0
ARC
  5
521
330
1F
100
AcDbEntity
  8
0
  6
Continuous
 62
     7
370
    25
100
AcDbCircle
 10
163.6625
 20
-231.6960842727
 30
0.0
 40
0.4999999999999716
100
AcDbArc
 50
270.0
 51
0.0
  0
ARC
  5
522
330
1F
100
AcDbEntity
  8
0
  6
Continuous
 62
     7
370
    25
100
AcDbCircle
 10
163.6625
 20
-218.6960842727
 30
0.0
 40
0.5000000000000568
100
AcDbArc
 50
0.0
 51
90.0
  0
ARC
  5
523
330
1F
100
AcDbEntity
  8
0
  6
Continuous
 62
     7
370
    25
100
AcDbCircle
 10
131.6125
 20
-218.6960842727
 30
0.0
 40
0.5000000000000568
100
AcDbArc
 50
90.0
 51
180.0
  0
ARC
  5
524
330
1F
100
AcDbEntity
  8
0
  6
Continuous
 62
     7
370
    25
100
AcDbCircle
 10
131.6125
 20
-231.6960842727
 30
0.0
 40
0.5
100
AcDbArc
 50
180.0
 51
270.0
  0
ARC
  5
525
330
1F
100
AcDbEntity
  8
0
  6
Continuous
 62
     7
370
    25
100
AcDbCircle
 10
144.6125
 20
-231.6960842727
 30
0.0
 40
0.4999999999999716
100
AcDbArc
 50
270.0
 51
0.0
  0
ARC
  5
526
330
1F
100
AcDbEntity
  8
0
  6
Continuous
 62
     7
370
    25
100
AcDbCircle
 10
144.6125
 20
-218.6960842727
 30
0.0
 40
0.5000000000000284
100
AcDbArc
 50
0.0
 51
90.0
  0
ARC
  5
527
330
1F
100
AcDbEntity
  8
0
  6
Continuous
 62
     7
370
    25
100
AcDbCircle
 10
68.4125
 20
-218.6960842727
 30
0.0
 40
0.5000000000000568
100
AcDbArc
 50
0.0
 51
90.0
  0
ARC
  5
528
330
1F
100
AcDbEntity
  8
0
  6
Continuous
 62
     7
370
    25
100
AcDbCircle
 10
55.4125
 20
-218.6960842727
 30
0.0
 40
0.5000000000000284
100
AcDbArc
 50
90.0
 51
180.0
  0
ARC
  5
529
330
1F
100
AcDbEntity
  8
0
  6
Continuous
 62
     7
370
    25
100
AcDbCircle
 10
55.4125
 20
-231.6960842727
 30
0.0
 40
0.4999999999999858
100
AcDbArc
 50
180.0
 51
270.0
  0
ARC
  5
52A
330
1F
100
AcDbEntity
  8
0
  6
Continuous
 62
     7
370
    25
100
AcDbCircle
 10
68.4125
 20
-231.6960842727
 30
0.0
 40
0.5
100
AcDbArc
 50
270.0
 51
0.0
  0
ARC
  5
52B
330
1F
100
AcDbEntity
  8
0
  6
Continuous
 62
     7
370
    25
100
AcDbCircle
 10
93.5125
 20
-218.6960842727
 30
0.0
 40
0.5000000000000284
100
AcDbArc
 50
90.0
 51
180.0
  0
ARC
  5
52C
330
1F
100
AcDbEntity
  8
0
  6
Continuous
 62
     7
370
    25
100
AcDbCircle
 10
93.5125
 20
-231.6960842727
 30
0.0
 40
0.4999999999999716
100
AcDbArc
 50
180.0
 51
270.0
  0
ARC
  5
52D
330
1F
100
AcDbEntity
  8
0
  6
Continuous
 62
     7
370
    25
100
AcDbCircle
 10
106.5125
 20
-231.6960842727
 30
0.0
 40
0.5
100
AcDbArc
 50
270.0
 51
0.0
  0
ARC
  5
52E
330
1F
100
AcDbEntity
  8
0
  6
Continuous
 62
     7
370
    25
100
AcDbCircle
 10
106.5125
 20
-218.6960842727
 30
0.0
 40
0.5000000000000568
100
AcDbArc
 50
0.0
 51
90.0
  0
ARC
  5
52F
330
1F
100
AcDbEntity
  8
0
  6
Continuous
 62
     7
370
    25
100
AcDbCircle
 10
49.3625
 20
-218.6960842727
 30
0.0
 40
0.5000000000000284
100
AcDbArc
 50
0.0
 51
90.0
  0
ARC
  5
530
330
1F
100
AcDbEntity
  8
0
  6
Continuous
 62
     7
370
    25
100
AcDbCircle
 10
36.3625
 20
-218.6960842727
 30
0.0
 40
0.5000000000000568
100
AcDbArc
 50
90.0
 51
180.0
  0
ARC
  5
531
330
1F
100
AcDbEntity
  8
0
  6
Continuous
 62
     7
370
    25
100
AcDbCircle
 10
36.3625
 20
-231.6960842727
 30
0.0
 40
0.4999999999999858
100
AcDbArc
 50
180.0
 51
270.0
  0
ARC
  5
532
330
1F
100
AcDbEntity
  8
0
  6
Continuous
 62
     7
370
    25
100
AcDbCircle
 10
49.3625
 20
-231.6960842727
 30
0.0
 40
0.4999999999999716
100
AcDbArc
 50
270.0
 51
0.0
  0
ARC
  5
533
330
1F
100
AcDbEntity
  8
0
  6
Continuous
 62
     7
370
    25
100
AcDbCircle
 10
87.4625
 20
-218.6960842727
 30
0.0
 40
0.5000000000000568
100
AcDbArc
 50
0.0
 51
90.0
  0
ARC
  5
534
330
1F
100
AcDbEntity
  8
0
  6
Continuous
 62
     7
370
    25
100
AcDbCircle
 10
74.4625
 20
-218.6960842727
 30
0.0
 40
0.5000000000000284
100
AcDbArc
 50
90.0
 51
180.0
  0
ARC
  5
535
330
1F
100
AcDbEntity
  8
0
  6
Continuous
 62
     7
370
    25
100
AcDbCircle
 10
74.4625
 20
-231.6960842727
 30
0.0
 40
0.4999999999999716
100
AcDbArc
 50
180.0
 51
270.0
  0
ARC
  5
536
330
1F
100
AcDbEntity
  8
0
  6
Continuous
 62
     7
370
    25
100
AcDbCircle
 10
87.4625
 20
-231.6960842727
 30
0.0
 40
0.5
100
AcDbArc
 50
270.0
 51
0.0
  0
ARC
  5
537
330
1F
100
AcDbEntity
  8
0
  6
Continuous
 62
     7
370
    25
100
AcDbCircle
 10
257.81875
 20
-218.6960842727
 30
0.0
 40
0.5000000000000568
100
AcDbArc
 50
90.0
 51
180.0
  0
ARC
  5
538
330
1F
100
AcDbEntity
  8
0
  6
Continuous
 62
     7
370
    25
100
AcDbCircle
 10
257.81875
 20
-231.6960842727
 30
0.0
 40
0.5
100
AcDbArc
 50
180.0
 51
270.0
  0
ARC
  5
539
330
1F
100
AcDbEntity
  8
0
  6
Continuous
 62
     7
370
    25
100
AcDbCircle
 10
270.81875
 20
-231.6960842727
 30
0.0
 40
0.4999999999999716
100
AcDbArc
 50
270.0
 51
0.0
  0
ARC
  5
53A
330
1F
100
AcDbEntity
  8
0
  6
Continuous
 62
     7
370
    25
100
AcDbCircle
 10
270.81875
 20
-218.6960842727
 30
0.0
 40
0.5000000000000568
100
AcDbArc
 50
0.0
 51
90.0
  0
ARC
  5
53B
330
1F
100
AcDbEntity
  8
0
  6
Continuous
 62
     7
370
    25
100
AcDbCircle
 10
273.38175
 20
-232.6960842727
 30
0.0
 40
0.5
100
AcDbArc
 50
180.0
 51
270.0
  0
ARC
  5
53C
330
1F
100
AcDbEntity
  8
0
  6
Continuous
 62
     7
370
    25
100
AcDbCircle
 10
279.13175
 20
-232.6960842727
 30
0.0
 40
0.4999999999999432
100
AcDbArc
 50
270.0
 51
0.0
  0
ARC
  5
53D
330
1F
100
AcDbEntity
  8
0
  6
Continuous
 62
     7
370
    25
100
AcDbCircle
 10
279.13175
 20
-219.6960842727
 30
0.0
 40
0.5000000000009948
100
AcDbArc
 50
0.0000000002
 51
89.9999999999
  0
ARC
  5
53E
330
1F
100
AcDbEntity
  8
0
  6
Continuous
 62
     7
370
    25
100
AcDbCircle
 10
273.38175
 20
-219.6960842727
 30
0.0
 40
0.4999999999981242
100
AcDbArc
 50
89.9999999998
 51
180.0000000001
  0
ARC
  5
53F
330
1F
100
AcDbEntity
  8
0
  6
Continuous
 62
     7
370
    25
100
AcDbCircle
 10
255.25575
 20
-219.6960842727
 30
0.0
 40
0.5000000000010516
100
AcDbArc
 50
0.0000000002
 51
89.9999999999
  0
ARC
  5
540
330
1F
100
AcDbEntity
  8
0
  6
Continuous
 62
     7
370
    25
100
AcDbCircle
 10
249.50575
 20
-219.6960842727
 30
0.0
 40
0.4999999999980105
100
AcDbArc
 50
89.9999999998
 51
180.0000000001
  0
ARC
  5
541
330
1F
100
AcDbEntity
  8
0
  6
Continuous
 62
     7
370
    25
100
AcDbCircle
 10
249.50575
 20
-232.6960842727
 30
0.0
 40
0.4999999999999432
100
AcDbArc
 50
180.0
 51
270.0
  0
ARC
  5
542
330
1F
100
AcDbEntity
  8
0
  6
Continuous
 62
     7
370
    25
100
AcDbCircle
 10
255.25575
 20
-232.6960842727
 30
0.0
 40
0.4999999999999716
100
AcDbArc
 50
270.0
 51
0.0
  0
ARC
  5
543
330
1F
100
AcDbEntity
  8
0
  6
Continuous
 62
     7
370
    25
100
AcDbCircle
 10
188.7625
 20
-231.6960842727
 30
0.0
 40
0.4999999999999716
100
AcDbArc
 50
180.0
 51
270.0
  0
ARC
  5
544
330
1F
100
AcDbEntity
  8
0
  6
Continuous
 62
     7
370
    25
100
AcDbCircle
 10
201.7625
 20
-231.6960842727
 30
0.0
 40
0.4999999999999716
100
AcDbArc
 50
270.0
 51
0.0
  0
ARC
  5
545
330
1F
100
AcDbEntity
  8
0
  6
Continuous
 62
     7
370
    25
100
AcDbCircle
 10
201.7625
 20
-218.6960842727
 30
0.0
 40
0.5000000000000568
100
AcDbArc
 50
0.0
 51
90.0
  0
ARC
  5
546
330
1F
100
AcDbEntity
  8
0
  6
Continuous
 62
     7
370
    25
100
AcDbCircle
 10
188.7625
 20
-218.6960842727
 30
0.0
 40
0.5000000000000568
100
AcDbArc
 50
90.0
 51
180.0
  0
ARC
  5
547
330
1F
100
AcDbEntity
  8
0
  6
Continuous
 62
     7
370
    25
100
AcDbCircle
 10
169.7125
 20
-218.6960842727
 30
0.0
 40
0.5000000000000284
100
AcDbArc
 50
90.0
 51
180.0
  0
ARC
  5
548
330
1F
100
AcDbEntity
  8
0
  6
Continuous
 62
     7
370
    25
100
AcDbCircle
 10
169.7125
 20
-231.6960842727
 30
0.0
 40
0.4999999999999716
100
AcDbArc
 50
180.0
 51
270.0
  0
ARC
  5
549
330
1F
100
AcDbEntity
  8
0
  6
Continuous
 62
     7
370
    25
100
AcDbCircle
 10
182.7125
 20
-231.6960842727
 30
0.0
 40
0.5
100
AcDbArc
 50
270.0
 51
0.0
  0
ARC
  5
54A
330
1F
100
AcDbEntity
  8
0
  6
Continuous
 62
     7
370
    25
100
AcDbCircle
 10
182.7125
 20
-218.6960842727
 30
0.0
 40
0.5000000000000284
100
AcDbArc
 50
0.0
 51
90.0
  0
ARC
  5
54B
330
1F
100
AcDbEntity
  8
0
  6
Continuous
 62
     7
370
    25
100
AcDbCircle
 10
207.8125
 20
-218.6960842727
 30
0.0
 40
0.5000000000000284
100
AcDbArc
 50
90.0
 51
180.0
  0
ARC
  5
54C
330
1F
100
AcDbEntity
  8
0
  6
Continuous
 62
     7
370
    25
100
AcDbCircle
 10
207.8125
 20
-231.6960842727
 30
0.0
 40
0.4999999999999716
100
AcDbArc
 50
180.0
 51
270.0
  0
ARC
  5
54D
330
1F
100
AcDbEntity
  8
0
  6
Continuous
 62
     7
370
    25
100
AcDbCircle
 10
220.8125
 20
-231.6960842727
 30
0.0
 40
0.5
100
AcDbArc
 50
270.0
 51
0.0
  0
ARC
  5
54E
330
1F
100
AcDbEntity
  8
0
  6
Continuous
 62
     7
370
    25
100
AcDbCircle
 10
220.8125
 20
-218.6960842727
 30
0.0
 40
0.5000000000000284
100
AcDbArc
 50
0.0
 51
90.0
  0
ARC
  5
54F
330
1F
100
AcDbEntity
  8
0
  6
Continuous
 62
     7
370
    25
100
AcDbCircle
 10
226.8625
 20
-218.6960842727
 30
0.0
 40
0.5000000000000568
100
AcDbArc
 50
90.0
 51
180.0
  0
ARC
  5
550
330
1F
100
AcDbEntity
  8
0
  6
Continuous
 62
     7
370
    25
100
AcDbCircle
 10
226.8625
 20
-231.6960842727
 30
0.0
 40
0.4999999999999716
100
AcDbArc
 50
180.0
 51
270.0
  0
ARC
  5
551
330
1F
100
AcDbEntity
  8
0
  6
Continuous
 62
     7
370
    25
100
AcDbCircle
 10
239.8625
 20
-231.6960842727
 30
0.0
 40
0.4999999999999716
100
AcDbArc
 50
270.0
 51
0.0
  0
ARC
  5
552
330
1F
100
AcDbEntity
  8
0
  6
Continuous
 62
     7
370
    25
100
AcDbCircle
 10
122.0875
 20
-237.7460842727
 30
0.0
 40
0.5000000000000426
100
AcDbArc
 50
90.0
 51
180.0
  0
ARC
  5
553
330
1F
100
AcDbEntity
  8
0
  6
Continuous
 62
     7
370
    25
100
AcDbCircle
 10
122.0875
 20
-250.7460842727
 30
0.0
 40
0.5
100
AcDbArc
 50
180.0
 51
270.0
  0
ARC
  5
554
330
1F
100
AcDbEntity
  8
0
  6
Continuous
 62
     7
370
    25
100
AcDbCircle
 10
135.0875
 20
-250.7460842727
 30
0.0
 40
0.5
100
AcDbArc
 50
270.0
 51
0.0
  0
ARC
  5
555
330
1F
100
AcDbEntity
  8
0
  6
Continuous
 62
     7
370
    25
100
AcDbCircle
 10
135.0875
 20
-237.7460842727
 30
0.0
 40
0.5000000000000284
100
AcDbArc
 50
0.0
 51
90.0
  0
ARC
  5
556
330
1F
100
AcDbEntity
  8
0
  6
Continuous
 62
     7
370
    25
100
AcDbCircle
 10
45.8875
 20
-237.7460842727
 30
0.0
 40
0.5000000000000284
100
AcDbArc
 50
90.0
 51
180.0
  0
ARC
  5
557
330
1F
100
AcDbEntity
  8
0
  6
Continuous
 62
     7
370
    25
100
AcDbCircle
 10
45.8875
 20
-250.7460842727
 30
0.0
 40
0.5
100
AcDbArc
 50
180.0
 51
270.0
  0
ARC
  5
558
330
1F
100
AcDbEntity
  8
0
  6
Continuous
 62
     7
370
    25
100
AcDbCircle
 10
58.8875
 20
-250.7460842727
 30
0.0
 40
0.5
100
AcDbArc
 50
270.0
 51
0.0
  0
ARC
  5
559
330
1F
100
AcDbEntity
  8
0
  6
Continuous
 62
     7
370
    25
100
AcDbCircle
 10
58.8875
 20
-237.7460842727
 30
0.0
 40
0.5000000000000284
100
AcDbArc
 50
0.0
 51
90.0
  0
ARC
  5
55A
330
1F
100
AcDbEntity
  8
0
  6
Continuous
 62
     7
370
    25
100
AcDbCircle
 10
14.93125
 20
-237.7460842727
 30
0.0
 40
0.5000000000000284
100
AcDbArc
 50
90.0
 51
180.0
  0
ARC
  5
55B
330
1F
100
AcDbEntity
  8
0
  6
Continuous
 62
     7
370
    25
100
AcDbCircle
 10
14.93125
 20
-250.7460842727
 30
0.0
 40
0.5
100
AcDbArc
 50
180.0
 51
270.0
  0
ARC
  5
55C
330
1F
100
AcDbEntity
  8
0
  6
Continuous
 62
     7
370
    25
100
AcDbCircle
 10
27.93125
 20
-250.7460842727
 30
0.0
 40
0.5
100
AcDbArc
 50
270.0
 51
0.0
  0
ARC
  5
55D
330
1F
100
AcDbEntity
  8
0
  6
Continuous
 62
     7
370
    25
100
AcDbCircle
 10
27.93125
 20
-237.7460842727
 30
0.0
 40
0.5000000000000284
100
AcDbArc
 50
0.0
 51
90.0
  0
ARC
  5
55E
330
1F
100
AcDbEntity
  8
0
  6
Continuous
 62
     7
370
    25
100
AcDbCircle
 10
30.49425
 20
-238.7460842727
 30
0.0
 40
0.5000000000020179
100
AcDbArc
 50
90.0000000002
 51
179.9999999999
  0
ARC
  5
55F
330
1F
100
AcDbEntity
  8
0
  6
Continuous
 62
     7
370
    25
100
AcDbCircle
 10
30.49425
 20
-251.7460842727
 30
0.0
 40
0.5
100
AcDbArc
 50
180.0
 51
270.0
  0
ARC
  5
560
330
1F
100
AcDbEntity
  8
0
  6
Continuous
 62
     7
370
    25
100
AcDbCircle
 10
36.24425
 20
-251.7460842727
 30
0.0
 40
0.5
100
AcDbArc
 50
270.0
 51
0.0
  0
ARC
  5
561
330
1F
100
AcDbEntity
  8
0
  6
Continuous
 62
     7
370
    25
100
AcDbCircle
 10
36.24425
 20
-238.7460842727
 30
0.0
 40
0.4999999999990692
100
AcDbArc
 50
359.9999999998
 51
90.0000000001
  0
ARC
  5
562
330
1F
100
AcDbEntity
  8
0
  6
Continuous
 62
     7
370
    25
100
AcDbCircle
 10
77.9375
 20
-237.7460842727
 30
0.0
 40
0.5000000000000284
100
AcDbArc
 50
0.0
 51
90.0
  0
ARC
  5
563
330
1F
100
AcDbEntity
  8
0
  6
Continuous
 62
     7
370
    25
100
AcDbCircle
 10
64.9375
 20
-237.7460842727
 30
0.0
 40
0.5000000000000284
100
AcDbArc
 50
90.0
 51
180.0
  0
ARC
  5
564
330
1F
100
AcDbEntity
  8
0
  6
Continuous
 62
     7
370
    25
100
AcDbCircle
 10
64.9375
 20
-250.7460842727
 30
0.0
 40
0.5
100
AcDbArc
 50
180.0
 51
270.0
  0
ARC
  5
565
330
1F
100
AcDbEntity
  8
0
  6
Continuous
 62
     7
370
    25
100
AcDbCircle
 10
77.9375
 20
-250.7460842727
 30
0.0
 40
0.5
100
AcDbArc
 50
270.0
 51
0.0
  0
ARC
  5
566
330
1F
100
AcDbEntity
  8
0
  6
Continuous
 62
     7
370
    25
100
AcDbCircle
 10
103.0375
 20
-237.7460842727
 30
0.0
 40
0.5000000000000284
100
AcDbArc
 50
90.0
 51
180.0
  0
ARC
  5
567
330
1F
100
AcDbEntity
  8
0
  6
Continuous
 62
     7
370
    25
100
AcDbCircle
 10
103.0375
 20
-250.7460842727
 30
0.0
 40
0.5
100
AcDbArc
 50
180.0
 51
270.0
  0
ARC
  5
568
330
1F
100
AcDbEntity
  8
0
  6
Continuous
 62
     7
370
    25
100
AcDbCircle
 10
116.0375
 20
-250.7460842727
 30
0.0
 40
0.5
100
AcDbArc
 50
270.0
 51
0.0
  0
ARC
  5
569
330
1F
100
AcDbEntity
  8
0
  6
Continuous
 62
     7
370
    25
100
AcDbCircle
 10
116.0375
 20
-237.7460842727
 30
0.0
 40
0.5000000000000568
100
AcDbArc
 50
0.0
 51
90.0
  0
ARC
  5
56A
330
1F
100
AcDbEntity
  8
0
  6
Continuous
 62
     7
370
    25
100
AcDbCircle
 10
83.9875
 20
-237.7460842727
 30
0.0
 40
0.5000000000000284
100
AcDbArc
 50
90.0
 51
180.0
  0
ARC
  5
56B
330
1F
100
AcDbEntity
  8
0
  6
Continuous
 62
     7
370
    25
100
AcDbCircle
 10
83.9875
 20
-250.7460842727
 30
0.0
 40
0.5
100
AcDbArc
 50
180.0
 51
270.0
  0
ARC
  5
56C
330
1F
100
AcDbEntity
  8
0
  6
Continuous
 62
     7
370
    25
100
AcDbCircle
 10
96.9875
 20
-250.7460842727
 30
0.0
 40
0.5
100
AcDbArc
 50
270.0
 51
0.0
  0
ARC
  5
56D
330
1F
100
AcDbEntity
  8
0
  6
Continuous
 62
     7
370
    25
100
AcDbCircle
 10
96.9875
 20
-237.7460842727
 30
0.0
 40
0.5000000000000568
100
AcDbArc
 50
0.0
 51
90.0
  0
ARC
  5
56E
330
1F
100
AcDbEntity
  8
0
  6
Continuous
 62
     7
370
    25
100
AcDbCircle
 10
198.2875
 20
-250.7460842727
 30
0.0
 40
0.5
100
AcDbArc
 50
180.0
 51
270.0
  0
ARC
  5
56F
330
1F
100
AcDbEntity
  8
0
  6
Continuous
 62
     7
370
    25
100
AcDbCircle
 10
211.2875
 20
-250.7460842727
 30
0.0
 40
0.5
100
AcDbArc
 50
270.0
 51
0.0
  0
ARC
  5
570
330
1F
100
AcDbEntity
  8
0
  6
Continuous
 62
     7
370
    25
100
AcDbCircle
 10
211.2875
 20
-237.7460842727
 30
0.0
 40
0.5000000000000568
100
AcDbArc
 50
0.0
 51
90.0
  0
ARC
  5
571
330
1F
100
AcDbEntity
  8
0
  6
Continuous
 62
     7
370
    25
100
AcDbCircle
 10
198.2875
 20
-237.7460842727
 30
0.0
 40
0.5000000000000284
100
AcDbArc
 50
90.0
 51
180.0
  0
ARC
  5
572
330
1F
100
AcDbEntity
  8
0
  6
Continuous
 62
     7
370
    25
100
AcDbCircle
 10
179.2375
 20
-237.7460842727
 30
0.0
 40
0.5000000000000568
100
AcDbArc
 50
90.0
 51
180.0
  0
ARC
  5
573
330
1F
100
AcDbEntity
  8
0
  6
Continuous
 62
     7
370
    25
100
AcDbCircle
 10
179.2375
 20
-250.7460842727
 30
0.0
 40
0.5
100
AcDbArc
 50
180.0
 51
270.0
  0
ARC
  5
574
330
1F
100
AcDbEntity
  8
0
  6
Continuous
 62
     7
370
    25
100
AcDbCircle
 10
192.2375
 20
-250.7460842727
 30
0.0
 40
0.5
100
AcDbArc
 50
270.0
 51
0.0
  0
ARC
  5
575
330
1F
100
AcDbEntity
  8
0
  6
Continuous
 62
     7
370
    25
100
AcDbCircle
 10
192.2375
 20
-237.7460842727
 30
0.0
 40
0.5000000000000568
100
AcDbArc
 50
0.0
 51
90.0
  0
ARC
  5
576
330
1F
100
AcDbEntity
  8
0
  6
Continuous
 62
     7
370
    25
100
AcDbCircle
 10
256.53125
 20
-237.7460842727
 30
0.0
 40
0.5000000000000284
100
AcDbArc
 50
0.0
 51
90.0
  0
ARC
  5
577
330
1F
100
AcDbEntity
  8
0
  6
Continuous
 62
     7
370
    25
100
AcDbCircle
 10
243.53125
 20
-237.7460842727
 30
0.0
 40
0.5000000000000284
100
AcDbArc
 50
90.0
 51
180.0
  0
ARC
  5
578
330
1F
100
AcDbEntity
  8
0
  6
Continuous
 62
     7
370
    25
100
AcDbCircle
 10
243.53125
 20
-250.7460842727
 30
0.0
 40
0.5
100
AcDbArc
 50
180.0
 51
270.0
  0
ARC
  5
579
330
1F
100
AcDbEntity
  8
0
  6
Continuous
 62
     7
370
    25
100
AcDbCircle
 10
256.53125
 20
-250.7460842727
 30
0.0
 40
0.5
100
AcDbArc
 50
270.0
 51
0.0
  0
ARC
  5
57A
330
1F
100
AcDbEntity
  8
0
  6
Continuous
 62
     7
370
    25
100
AcDbCircle
 10
141.1375
 20
-237.7460842727
 30
0.0
 40
0.5000000000000284
100
AcDbArc
 50
90.0
 51
180.0
  0
ARC
  5
57B
330
1F
100
AcDbEntity
  8
0
  6
Continuous
 62
     7
370
    25
100
AcDbCircle
 10
141.1375
 20
-250.7460842727
 30
0.0
 40
0.5
100
AcDbArc
 50
180.0
 51
270.0
  0
ARC
  5
57C
330
1F
100
AcDbEntity
  8
0
  6
Continuous
 62
     7
370
    25
100
AcDbCircle
 10
154.1375
 20
-250.7460842727
 30
0.0
 40
0.5
100
AcDbArc
 50
270.0
 51
0.0
  0
ARC
  5
57D
330
1F
100
AcDbEntity
  8
0
  6
Continuous
 62
     7
370
    25
100
AcDbCircle
 10
154.1375
 20
-237.7460842727
 30
0.0
 40
0.5000000000000568
100
AcDbArc
 50
0.0
 51
90.0
  0
ARC
  5
57E
330
1F
100
AcDbEntity
  8
0
  6
Continuous
 62
     7
370
    25
100
AcDbCircle
 10
160.1875
 20
-237.7460842727
 30
0.0
 40
0.5000000000000284
100
AcDbArc
 50
90.0
 51
180.0
  0
ARC
  5
57F
330
1F
100
AcDbEntity
  8
0
  6
Continuous
 62
     7
370
    25
100
AcDbCircle
 10
160.1875
 20
-250.7460842727
 30
0.0
 40
0.5
100
AcDbArc
 50
180.0
 51
270.0
  0
ARC
  5
580
330
1F
100
AcDbEntity
  8
0
  6
Continuous
 62
     7
370
    25
100
AcDbCircle
 10
173.1875
 20
-250.7460842727
 30
0.0
 40
0.5
100
AcDbArc
 50
270.0
 51
0.0
  0
ARC
  5
581
330
1F
100
AcDbEntity
  8
0
  6
Continuous
 62
     7
370
    25
100
AcDbCircle
 10
173.1875
 20
-237.7460842727
 30
0.0
 40
0.5000000000000284
100
AcDbArc
 50
0.0
 51
90.0
  0
ARC
  5
582
330
1F
100
AcDbEntity
  8
0
  6
Continuous
 62
     7
370
    25
100
AcDbCircle
 10
269.725
 20
-250.7460842727
 30
0.0
 40
0.5
100
AcDbArc
 50
180.0
 51
270.0
  0
ARC
  5
583
330
1F
100
AcDbEntity
  8
0
  6
Continuous
 62
     7
370
    25
100
AcDbCircle
 10
282.725
 20
-250.7460842727
 30
0.0
 40
0.5
100
AcDbArc
 50
270.0
 51
0.0
  0
ARC
  5
584
330
1F
100
AcDbEntity
  8
0
  6
Continuous
 62
     7
370
    25
100
AcDbCircle
 10
282.725
 20
-237.7460842727
 30
0.0
 40
0.5000000000000568
100
AcDbArc
 50
0.0
 51
90.0
  0
ARC
  5
585
330
1F
100
AcDbEntity
  8
0
  6
Continuous
 62
     7
370
    25
100
AcDbCircle
 10
269.725
 20
-237.7460842727
 30
0.0
 40
0.5000000000000568
100
AcDbArc
 50
90.0
 51
180.0
  0
ARC
  5
586
330
1F
100
AcDbEntity
  8
0
  6
Continuous
 62
     7
370
    25
100
AcDbCircle
 10
217.3375
 20
-237.7460842727
 30
0.0
 40
0.5000000000000284
100
AcDbArc
 50
90.0
 51
180.0
  0
ARC
  5
587
330
1F
100
AcDbEntity
  8
0
  6
Continuous
 62
     7
370
    25
100
AcDbCircle
 10
217.3375
 20
-250.7460842727
 30
0.0
 40
0.5
100
AcDbArc
 50
180.0
 51
270.0
  0
ARC
  5
588
330
1F
100
AcDbEntity
  8
0
  6
Continuous
 62
     7
370
    25
100
AcDbCircle
 10
230.3375
 20
-250.7460842727
 30
0.0
 40
0.5
100
AcDbArc
 50
270.0
 51
0.0
  0
ARC
  5
589
330
1F
100
AcDbEntity
  8
0
  6
Continuous
 62
     7
370
    25
100
AcDbCircle
 10
230.3375
 20
-237.7460842727
 30
0.0
 40
0.5000000000000284
100
AcDbArc
 50
0.0
 51
90.0
  0
ARC
  5
58A
330
1F
100
AcDbEntity
  8
0
  6
Continuous
 62
     7
370
    25
100
AcDbCircle
 10
78.0875
 20
-268.7960842727
 30
0.0
 40
0.5000000000000142
100
AcDbArc
 50
180.0
 51
270.0
  0
ARC
  5
58B
330
1F
100
AcDbEntity
  8
0
  6
Continuous
 62
     7
370
    25
100
AcDbCircle
 10
83.8375
 20
-268.7960842727
 30
0.0
 40
0.5000000000000568
100
AcDbArc
 50
270.0
 51
360.0
  0
ARC
  5
58C
330
1F
100
AcDbEntity
  8
0
  6
Continuous
 62
     7
370
    25
100
AcDbCircle
 10
269.725
 20
-256.7960842727
 30
0.0
 40
0.4999999999980105
100
AcDbArc
 50
89.9999999998
 51
180.0000000001
  0
ARC
  5
58D
330
1F
100
AcDbEntity
  8
0
  6
Continuous
 62
     7
370
    25
100
AcDbCircle
 10
269.725
 20
-269.7960842727
 30
0.0
 40
0.5000000000021032
100
AcDbArc
 50
180.0000000005
 51
269.9999999998
  0
ARC
  5
58E
330
1F
100
AcDbEntity
  8
0
  6
Continuous
 62
     7
370
    25
100
AcDbCircle
 10
282.725
 20
-269.7960842727
 30
0.0
 40
0.4999999999960778
100
AcDbArc
 50
269.9999999996
 51
0.0000000002
  0
ARC
  5
58F
330
1F
100
AcDbEntity
  8
0
  6
Continuous
 62
     7
370
    25
100
AcDbCircle
 10
282.725
 20
-256.7960842727
 30
0.0
 40
0.50000000000108
100
AcDbArc
 50
0.0000000002
 51
89.9999999999
  0
ARC
  5
590
330
1F
100
AcDbEntity
  8
0
  6
Continuous
 62
     7
370
    25
100
AcDbCircle
 10
192.3875
 20
-268.7960842727
 30
0.0
 40
0.5000000000000568
100
AcDbArc
 50
180.0
 51
270.0
  0
ARC
  5
591
330
1F
100
AcDbEntity
  8
0
  6
Continuous
 62
     7
370
    25
100
AcDbCircle
 10
198.1375
 20
-268.7960842727
 30
0.0
 40
0.5
100
AcDbArc
 50
270.0
 51
0.0
  0
ARC
  5
592
330
1F
100
AcDbEntity
  8
0
  6
Continuous
 62
     7
370
    25
100
AcDbCircle
 10
131.6125
 20
-256.7960842727
 30
0.0
 40
0.4999999999980105
100
AcDbArc
 50
89.9999999998
 51
180.0000000001
  0
ARC
  5
593
330
1F
100
AcDbEntity
  8
0
  6
Continuous
 62
     7
370
    25
100
AcDbCircle
 10
131.6125
 20
-269.7960842727
 30
0.0
 40
0.5000000000019895
100
AcDbArc
 50
180.0000000005
 51
269.9999999998
  0
ARC
  5
594
330
1F
100
AcDbEntity
  8
0
  6
Continuous
 62
     7
370
    25
100
AcDbCircle
 10
144.6125
 20
-269.7960842727
 30
0.0
 40
0.4999999999961062
100
AcDbArc
 50
269.9999999996
 51
0.0000000002
  0
ARC
  5
595
330
1F
100
AcDbEntity
  8
0
  6
Continuous
 62
     7
370
    25
100
AcDbCircle
 10
144.6125
 20
-256.7960842727
 30
0.0
 40
0.5000000000009948
100
AcDbArc
 50
0.0000000002
 51
89.9999999999
  0
ARC
  5
596
330
1F
100
AcDbEntity
  8
0
  6
Continuous
 62
     7
370
    25
100
AcDbCircle
 10
23.16875
 20
-218.6960842727
 30
0.0
 40
0.5
100
AcDbArc
 50
0.0
 51
90.0
  0
ARC
  5
597
330
1F
100
AcDbEntity
  8
0
  6
Continuous
 62
     7
370
    25
100
AcDbCircle
 10
5.40625
 20
-218.6960842727
 30
0.0
 40
0.5000000000000284
100
AcDbArc
 50
90.0
 51
180.0
  0
ARC
  5
598
330
1F
100
AcDbEntity
  8
0
  6
Continuous
 62
     7
370
    25
100
AcDbCircle
 10
5.40625
 20
-231.6960842727
 30
0.0
 40
0.4999999999999716
100
AcDbArc
 50
180.0
 51
270.0
  0
ARC
  5
599
330
1F
100
AcDbEntity
  8
0
  6
Continuous
 62
     7
370
    25
100
AcDbCircle
 10
23.16875
 20
-231.6960842727
 30
0.0
 40
0.4999999999999432
100
AcDbArc
 50
270.0
 51
0.0
  0
ARC
  5
59A
330
1F
100
AcDbEntity
  8
0
  6
Continuous
 62
     7
370
    25
100
AcDbCircle
 10
282.725
 20
-193.5960842727
 30
0.0
 40
0.5
100
AcDbArc
 50
270.0
 51
0.0
  0
ARC
  5
59B
330
1F
100
AcDbEntity
  8
0
  6
Continuous
 62
     7
370
    25
100
AcDbCircle
 10
282.725
 20
-180.5960842727
 30
0.0
 40
0.5000000000000568
100
AcDbArc
 50
0.0
 51
90.0
  0
ARC
  5
59C
330
1F
100
AcDbEntity
  8
0
  6
Continuous
 62
     7
370
    25
100
AcDbCircle
 10
250.675
 20
-180.5960842727
 30
0.0
 40
0.5000000000000568
100
AcDbArc
 50
90.0
 51
180.0
  0
ARC
  5
59D
330
1F
100
AcDbEntity
  8
0
  6
Continuous
 62
     7
370
    25
100
AcDbCircle
 10
250.675
 20
-193.5960842727
 30
0.0
 40
0.5
100
AcDbArc
 50
180.0
 51
270.0
  0
ARC
  5
59E
330
1F
100
AcDbEntity
  8
0
  6
Continuous
 62
     7
370
    25
100
AcDbCircle
 10
250.887
 20
-194.5960842727
 30
0.0
 40
0.5000000000000568
100
AcDbArc
 50
0.0
 51
90.0
  0
ARC
  5
59F
330
1F
100
AcDbEntity
  8
0
  6
Continuous
 62
     7
370
    25
100
AcDbCircle
 10
251.887
 20
-194.5960842727
 30
0.0
 40
0.5
100
AcDbArc
 50
180.0
 51
270.0
  0
ARC
  5
5A0
330
1F
100
AcDbEntity
  8
0
  6
Continuous
 62
     7
370
    25
100
AcDbCircle
 10
257.637
 20
-194.5960842727
 30
0.0
 40
0.5
100
AcDbArc
 50
270.0
 51
0.0
  0
ARC
  5
5A1
330
1F
100
AcDbEntity
  8
0
  6
Continuous
 62
     7
370
    25
100
AcDbCircle
 10
258.637
 20
-194.5960842727
 30
0.0
 40
0.5000000000000568
100
AcDbArc
 50
90.0
 51
180.0
  0
ARC
  5
5A2
330
1F
100
AcDbEntity
  8
0
  6
Continuous
 62
     7
370
    25
100
AcDbCircle
 10
274.763
 20
-194.5960842727
 30
0.0
 40
0.5000000000000568
100
AcDbArc
 50
0.0
 51
90.0
  0
ARC
  5
5A3
330
1F
100
AcDbEntity
  8
0
  6
Continuous
 62
     7
370
    25
100
AcDbCircle
 10
275.763
 20
-194.5960842727
 30
0.0
 40
0.5
100
AcDbArc
 50
180.0
 51
270.0
  0
ARC
  5
5A4
330
1F
100
AcDbEntity
  8
0
  6
Continuous
 62
     7
370
    25
100
AcDbCircle
 10
281.513
 20
-194.5960842727
 30
0.0
 40
0.5
100
AcDbArc
 50
270.0
 51
0.0
  0
ARC
  5
5A5
330
1F
100
AcDbEntity
  8
0
  6
Continuous
 62
     7
370
    25
100
AcDbCircle
 10
282.513
 20
-194.5960842727
 30
0.0
 40
0.4999999999999432
100
AcDbArc
 50
90.0
 51
180.0
  0
ARC
  5
5A6
330
1F
100
AcDbEntity
  8
0
  6
Continuous
 62
     7
370
    25
100
AcDbCircle
 10
295.225
 20
-274.2710842727
 30
0.0
 40
0.25
100
AcDbArc
 50
90.0
 51
270.0
  0
ARC
  5
5A7
330
1F
100
AcDbEntity
  8
0
  6
Continuous
 62
     7
370
    25
100
AcDbCircle
 10
304.475
 20
-275.0210842727
 30
0.0
 40
0.5000000000000568
100
AcDbArc
 50
0.0
 51
90.0
  0
ARC
  5
5A8
330
1F
100
AcDbEntity
  8
0
  6
Continuous
 62
     7
370
    25
100
AcDbCircle
 10
304.475
 20
-276.4960842727
 30
0.0
 40
0.5000000000000568
100
AcDbArc
 50
270.0
 51
360.0
  0
ARC
  5
5A9
330
1F
100
AcDbEntity
  8
0
  6
Continuous
 62
     7
370
    25
100
AcDbCircle
 10
212.8
 20
-276.4960842727
 30
0.0
 40
0.5
100
AcDbArc
 50
180.0
 51
270.0
  0
ARC
  5
5AA
330
1F
100
AcDbEntity
  8
0
  6
Continuous
 62
     7
370
    25
100
AcDbCircle
 10
212.8
 20
-275.0210842727
 30
0.0
 40
0.5000000000001137
100
AcDbArc
 50
90.0
 51
180.0
  0
ARC
  5
5AB
330
1F
100
AcDbEntity
  8
0
  6
Continuous
 62
     7
370
    25
100
AcDbCircle
 10
222.05
 20
-274.2710842727
 30
0.0
 40
0.2500000000000568
100
AcDbArc
 50
270.0
 51
90.0
  0
ARC
  5
5AC
330
1F
100
AcDbEntity
  8
0
  6
Continuous
 62
     7
370
    25
100
AcDbCircle
 10
212.8
 20
-273.5210842727
 30
0.0
 40
0.4999999999999432
100
AcDbArc
 50
180.0
 51
270.0
  0
ARC
  5
5AD
330
1F
100
AcDbEntity
  8
0
  6
Continuous
 62
     7
370
    25
100
AcDbCircle
 10
212.8
 20
-270.7960842727
 30
0.0
 40
0.4999999999999432
100
AcDbArc
 50
90.0
 51
180.0
  0
ARC
  5
5AE
330
1F
100
AcDbEntity
  8
0
  6
Continuous
 62
     7
370
    25
100
AcDbCircle
 10
225.575
 20
-269.7960842727
 30
0.0
 40
0.4999999999960778
100
AcDbArc
 50
269.9999999995
 51
0.0000000002
  0
ARC
  5
5AF
330
1F
100
AcDbEntity
  8
0
  6
Continuous
 62
     7
370
    25
100
AcDbCircle
 10
225.575
 20
-256.7960842727
 30
0.0
 40
0.5000000000010232
100
AcDbArc
 50
0.0000000002
 51
89.9999999999
  0
ARC
  5
5B0
330
1F
100
AcDbEntity
  8
0
  6
Continuous
 62
     7
370
    25
100
AcDbCircle
 10
212.575
 20
-256.7960842727
 30
0.0
 40
0.4999999999980105
100
AcDbArc
 50
89.9999999998
 51
180.0000000001
  0
ARC
  5
5B1
330
1F
100
AcDbEntity
  8
0
  6
Continuous
 62
     7
370
    25
100
AcDbCircle
 10
211.575
 20
-268.4540624396
 30
0.0
 40
0.4999999999999716
100
AcDbArc
 50
231.4588224918
 51
359.9999999999
  0
ARC
  5
5B2
330
1F
100
AcDbEntity
  8
0
  6
Continuous
 62
     7
370
    25
100
AcDbCircle
 10
209.55
 20
-270.9960842727
 30
0.0
 40
2.750000000000057
100
AcDbArc
 50
51.4588224917
 51
180.0
  0
ARC
  5
5B3
330
1F
100
AcDbEntity
  8
0
  6
Continuous
 62
     7
370
    25
100
AcDbCircle
 10
206.3
 20
-273.5210842727
 30
0.0
 40
0.4999999999999432
100
AcDbArc
 50
270.0
 51
0.0
  0
ARC
  5
5B4
330
1F
100
AcDbEntity
  8
0
  6
Continuous
 62
     7
370
    25
100
AcDbCircle
 10
197.05
 20
-274.2710842727
 30
0.0
 40
0.25
100
AcDbArc
 50
90.0
 51
270.0
  0
ARC
  5
5B5
330
1F
100
AcDbEntity
  8
0
  6
Continuous
 62
     7
370
    25
100
AcDbCircle
 10
206.3
 20
-275.0210842727
 30
0.0
 40
0.5000000000000568
100
AcDbArc
 50
0.0
 51
90.0
  0
ARC
  5
5B6
330
1F
100
AcDbEntity
  8
0
  6
Continuous
 62
     7
370
    25
100
AcDbCircle
 10
206.3
 20
-276.4960842727
 30
0.0
 40
0.5000000000000568
100
AcDbArc
 50
270.0
 51
360.0
  0
ARC
  5
5B7
330
1F
100
AcDbEntity
  8
0
  6
Continuous
 62
     7
370
    25
100
AcDbCircle
 10
98.5
 20
-276.4960842727
 30
0.0
 40
0.5000000000000142
100
AcDbArc
 50
180.0
 51
270.0
  0
ARC
  5
5B8
330
1F
100
AcDbEntity
  8
0
  6
Continuous
 62
     7
370
    25
100
AcDbCircle
 10
98.5
 20
-275.0210842727
 30
0.0
 40
0.5000000000001137
100
AcDbArc
 50
90.0
 51
180.0
  0
ARC
  5
5B9
330
1F
100
AcDbEntity
  8
0
  6
Continuous
 62
     7
370
    25
100
AcDbCircle
 10
107.75
 20
-274.2710842727
 30
0.0
 40
0.2500000000000568
100
AcDbArc
 50
270.0
 51
90.0
  0
ARC
  5
5BA
330
1F
100
AcDbEntity
  8
0
  6
Continuous
 62
     7
370
    25
100
AcDbCircle
 10
98.5
 20
-273.5210842727
 30
0.0
 40
0.4999999999999432
100
AcDbArc
 50
180.0
 51
270.0
  0
ARC
  5
5BB
330
1F
100
AcDbEntity
  8
0
  6
Continuous
 62
     7
370
    25
100
AcDbCircle
 10
95.25
 20
-270.9960842727
 30
0.0
 40
2.75
100
AcDbArc
 50
0.0
 51
180.0
  0
ARC
  5
5BC
330
1F
100
AcDbEntity
  8
0
  6
Continuous
 62
     7
370
    25
100
AcDbCircle
 10
92.0
 20
-273.5210842727
 30
0.0
 40
0.4999999999999005
100
AcDbArc
 50
270.0
 51
0.0
  0
ARC
  5
5BD
330
1F
100
AcDbEntity
  8
0
  6
Continuous
 62
     7
370
    25
100
AcDbCircle
 10
82.75
 20
-274.2710842727
 30
0.0
 40
0.25
100
AcDbArc
 50
90.0
 51
270.0
  0
ARC
  5
5BE
330
1F
100
AcDbEntity
  8
0
  6
Continuous
 62
     7
370
    25
100
AcDbCircle
 10
92.0
 20
-275.0210842727
 30
0.0
 40
0.5000000000000568
100
AcDbArc
 50
0.0
 51
90.0
  0
ARC
  5
5BF
330
1F
100
AcDbEntity
  8
0
  6
Continuous
 62
     7
370
    25
100
AcDbCircle
 10
92.0
 20
-276.4960842727
 30
0.0
 40
0.5
100
AcDbArc
 50
270.0
 51
0.0
  0
ARC
  5
5C0
330
1F
100
AcDbEntity
  8
0
  6
Continuous
 62
     7
370
    25
100
AcDbCircle
 10
0.325
 20
-276.4960842727
 30
0.0
 40
0.5000000000000144
100
AcDbArc
 50
180.0
 51
270.0
  0
ARC
  5
5C1
330
1F
100
AcDbEntity
  8
0
  6
Continuous
 62
     7
370
    25
100
AcDbCircle
 10
0.325
 20
-275.0210842727
 30
0.0
 40
0.5000000000001137
100
AcDbArc
 50
90.0
 51
180.0
  0
ARC
  5
5C2
330
1F
100
AcDbEntity
  8
0
  6
Continuous
 62
     7
370
    25
100
AcDbCircle
 10
9.575
 20
-274.2710842727
 30
0.0
 40
0.2500000000000568
100
AcDbArc
 50
270.0
 51
90.0
  0
ARC
  5
5C3
330
1F
100
AcDbEntity
  8
0
  6
Continuous
 62
     7
370
    25
100
AcDbCircle
 10
0.325
 20
-273.5210842727
 30
0.0
 40
0.4999999999999432
100
AcDbArc
 50
180.0
 51
270.0
  0
ARC
  5
5C4
330
1F
100
AcDbEntity
  8
0
  6
Continuous
 62
     7
370
    25
100
AcDbCircle
 10
0.325
 20
-257.0210842727
 30
0.0
 40
0.5
100
AcDbArc
 50
90.0
 51
180.0
  0
ARC
  5
5C5
330
1F
100
AcDbEntity
  8
0
  6
Continuous
 62
     7
370
    25
100
AcDbCircle
 10
1.825
 20
-253.7710842727
 30
0.0
 40
2.750000000000028
100
AcDbArc
 50
270.0
 51
90.0
  0
ARC
  5
5C6
330
1F
100
AcDbEntity
  8
0
  6
Continuous
 62
     7
370
    25
100
AcDbCircle
 10
0.325
 20
-250.5210842727
 30
0.0
 40
0.4999999999999716
100
AcDbArc
 50
180.0
 51
270.0
  0
ARC
  5
5C7
330
1F
100
AcDbEntity
  8
0
  6
Continuous
 62
     7
370
    25
100
AcDbCircle
 10
0.325
 20
-199.8710842727
 30
0.0
 40
0.5000000000020464
100
AcDbArc
 50
90.0000000002
 51
179.9999999999
  0
ARC
  5
5C8
330
1F
100
AcDbEntity
  8
0
  6
Continuous
 62
     7
370
    25
100
AcDbCircle
 10
1.825
 20
-196.6210842727
 30
0.0
 40
2.750000000000256
100
AcDbArc
 50
270.0
 51
38.5411775083
  0
ARC
  5
5C9
330
1F
100
AcDbEntity
  8
0
  6
Continuous
 62
     7
370
    25
100
AcDbCircle
 10
4.3670218331
 20
-194.5960842727
 30
0.0
 40
0.4999999999997726
100
AcDbArc
 50
90.0
 51
218.5411775083
  0
ARC
  5
5CA
330
1F
100
AcDbEntity
  8
0
  6
Continuous
 62
     7
370
    25
100
AcDbCircle
 10
16.025
 20
-193.5960842727
 30
0.0
 40
0.5
100
AcDbArc
 50
270.0
 51
0.0
  0
ARC
  5
5CB
330
1F
100
AcDbEntity
  8
0
  6
Continuous
 62
     7
370
    25
100
AcDbCircle
 10
16.025
 20
-180.5960842727
 30
0.0
 40
0.5000000000000391
100
AcDbArc
 50
0.0
 51
90.0
  0
ARC
  5
5CC
330
1F
100
AcDbEntity
  8
0
  6
Continuous
 62
     7
370
    25
100
AcDbCircle
 10
3.025
 20
-180.5960842727
 30
0.0
 40
0.5000000000000284
100
AcDbArc
 50
90.0
 51
180.0
  0
ARC
  5
5CD
330
1F
100
AcDbEntity
  8
0
  6
Continuous
 62
     7
370
    25
100
AcDbCircle
 10
2.025
 20
-193.3710842727
 30
0.0
 40
0.5000000000000284
100
AcDbArc
 50
270.0
 51
360.0
  0
ARC
  5
5CE
330
1F
100
AcDbEntity
  8
0
  6
Continuous
 62
     7
370
    25
100
AcDbCircle
 10
0.325
 20
-193.3710842727
 30
0.0
 40
0.5000000000000382
100
AcDbArc
 50
180.0
 51
270.0
  0
ARC
  5
5CF
330
1F
100
AcDbEntity
  8
0
  6
Continuous
 62
     7
370
    25
100
AcDbCircle
 10
0.325
 20
-176.8710842727
 30
0.0
 40
0.5000000000019389
100
AcDbArc
 50
90.0000000002
 51
179.9999999999
  0
ARC
  5
5D0
330
1F
100
AcDbEntity
  8
0
  6
Continuous
 62
     7
370
    25
100
AcDbCircle
 10
9.575
 20
-176.1210842727
 30
0.0
 40
0.2500000000000284
100
AcDbArc
 50
270.0000000003
 51
89.9999999997
  0
ARC
  5
5D1
330
1F
100
AcDbEntity
  8
0
  6
Continuous
 62
     7
370
    25
100
AcDbCircle
 10
0.325
 20
-175.3710842727
 30
0.0
 40
0.5000000000000369
100
AcDbArc
 50
180.0
 51
270.0
  0
ARC
  5
5D2
330
1F
100
AcDbEntity
  8
0
  6
Continuous
 62
     7
370
    25
100
AcDbCircle
 10
0.325
 20
-173.8960842727
 30
0.0
 40
0.5000000000000568
100
AcDbArc
 50
90.0
 51
180.0
  0
ARC
  5
5D3
330
1F
100
AcDbEntity
  8
0
  6
Continuous
 62
     7
370
    25
100
AcDbCircle
 10
92.0
 20
-173.8960842727
 30
0.0
 40
0.5000000000000568
100
AcDbArc
 50
0.0
 51
90.0
  0
ARC
  5
5D4
330
1F
100
AcDbEntity
  8
0
  6
Continuous
 62
     7
370
    25
100
AcDbCircle
 10
92.0
 20
-175.3710842727
 30
0.0
 40
0.4999999999979963
100
AcDbArc
 50
269.9999999998
 51
0.0000000001
  0
ARC
  5
5D5
330
1F
100
AcDbEntity
  8
0
  6
Continuous
 62
     7
370
    25
100
AcDbCircle
 10
82.75
 20
-176.1210842727
 30
0.0
 40
0.25000000000054
100
AcDbArc
 50
90.0000000001
 51
269.9999999999
  0
ARC
  5
5D6
330
1F
100
AcDbEntity
  8
0
  6
Continuous
 62
     7
370
    25
100
AcDbCircle
 10
92.0
 20
-176.8710842727
 30
0.0
 40
0.4999999999999858
100
AcDbArc
 50
360.0
 51
90.0
  0
ARC
  5
5D7
330
1F
100
AcDbEntity
  8
0
  6
Continuous
 62
     7
370
    25
100
AcDbCircle
 10
92.0
 20
-179.5960842727
 30
0.0
 40
0.5000000000000142
100
AcDbArc
 50
270.0
 51
0.0
  0
ARC
  5
5D8
330
1F
100
AcDbEntity
  8
0
  6
Continuous
 62
     7
370
    25
100
AcDbCircle
 10
79.225
 20
-180.5960842727
 30
0.0
 40
0.5
100
AcDbArc
 50
90.0
 51
180.0
  0
ARC
  5
5D9
330
1F
100
AcDbEntity
  8
0
  6
Continuous
 62
     7
370
    25
100
AcDbCircle
 10
79.225
 20
-193.5960842727
 30
0.0
 40
0.4999999999999716
100
AcDbArc
 50
180.0
 51
270.0
  0
ARC
  5
5DA
330
1F
100
AcDbEntity
  8
0
  6
Continuous
 62
     7
370
    25
100
AcDbCircle
 10
92.225
 20
-193.5960842727
 30
0.0
 40
0.5000000000000142
100
AcDbArc
 50
270.0
 51
0.0
  0
ARC
  5
5DB
330
1F
100
AcDbEntity
  8
0
  6
Continuous
 62
     7
370
    25
100
AcDbCircle
 10
93.225
 20
-181.9381061058
 30
0.0
 40
0.50000000000001
100
AcDbArc
 50
51.4588224917
 51
179.9999999999
  0
ARC
  5
5DC
330
1F
100
AcDbEntity
  8
0
  6
Continuous
 62
     7
370
    25
100
AcDbCircle
 10
95.25
 20
-179.3960842727
 30
0.0
 40
2.750000000000131
100
AcDbArc
 50
231.4588224917
 51
308.5411775083
  0
ARC
  5
5DD
330
1F
100
AcDbEntity
  8
0
  6
Continuous
 62
     7
370
    25
100
AcDbCircle
 10
97.275
 20
-181.9381061058
 30
0.0
 40
0.4999999999995063
100
AcDbArc
 50
360.0
 51
128.5411775084
  0
ARC
  5
5DE
330
1F
100
AcDbEntity
  8
0
  6
Continuous
 62
     7
370
    25
100
AcDbCircle
 10
98.275
 20
-193.5960842727
 30
0.0
 40
0.4999999999999716
100
AcDbArc
 50
180.0
 51
270.0
  0
ARC
  5
5DF
330
1F
100
AcDbEntity
  8
0
  6
Continuous
 62
     7
370
    25
100
AcDbCircle
 10
111.275
 20
-193.5960842727
 30
0.0
 40
0.4999999999999858
100
AcDbArc
 50
270.0
 51
0.0
  0
ARC
  5
5E0
330
1F
100
AcDbEntity
  8
0
  6
Continuous
 62
     7
370
    25
100
AcDbCircle
 10
111.275
 20
-180.5960842727
 30
0.0
 40
0.5000000000000853
100
AcDbArc
 50
0.0
 51
90.0
  0
ARC
  5
5E1
330
1F
100
AcDbEntity
  8
0
  6
Continuous
 62
     7
370
    25
100
AcDbCircle
 10
98.5
 20
-179.5960842727
 30
0.0
 40
0.5000000000000426
100
AcDbArc
 50
180.0
 51
270.0
  0
ARC
  5
5E2
330
1F
100
AcDbEntity
  8
0
  6
Continuous
 62
     7
370
    25
100
AcDbCircle
 10
98.5
 20
-176.8710842727
 30
0.0
 40
0.4999999999999858
100
AcDbArc
 50
90.0
 51
180.0
  0
ARC
  5
5E3
330
1F
100
AcDbEntity
  8
0
  6
Continuous
 62
     7
370
    25
100
AcDbCircle
 10
107.75
 20
-176.1210842727
 30
0.0
 40
0.25000000000054
100
AcDbArc
 50
270.0000000001
 51
89.9999999999
  0
ARC
  5
5E4
330
1F
100
AcDbEntity
  8
0
  6
Continuous
 62
     7
370
    25
100
AcDbCircle
 10
98.5
 20
-175.3710842727
 30
0.0
 40
0.5000000000009948
100
AcDbArc
 50
180.0000000002
 51
269.9999999999
  0
ARC
  5
5E5
330
1F
100
AcDbEntity
  8
0
  6
Continuous
 62
     7
370
    25
100
AcDbCircle
 10
98.5
 20
-173.8960842727
 30
0.0
 40
0.5000000000000568
100
AcDbArc
 50
90.0
 51
180.0
  0
ARC
  5
5E6
330
1F
100
AcDbEntity
  8
0
  6
Continuous
 62
     7
370
    25
100
AcDbCircle
 10
206.3
 20
-173.8960842727
 30
0.0
 40
0.5000000000000568
100
AcDbArc
 50
0.0
 51
90.0
  0
ARC
  5
5E7
330
1F
100
AcDbEntity
  8
0
  6
Continuous
 62
     7
370
    25
100
AcDbCircle
 10
206.3
 20
-175.3710842727
 30
0.0
 40
0.4999999999999716
100
AcDbArc
 50
270.0
 51
0.0
  0
ARC
  5
5E8
330
1F
100
AcDbEntity
  8
0
  6
Continuous
 62
     7
370
    25
100
AcDbCircle
 10
197.05
 20
-176.1210842727
 30
0.0
 40
0.2500000000000284
100
AcDbArc
 50
90.0
 51
270.0
  0
ARC
  5
5E9
330
1F
100
AcDbEntity
  8
0
  6
Continuous
 62
     7
370
    25
100
AcDbCircle
 10
206.3
 20
-176.8710842727
 30
0.0
 40
0.5000000000000284
100
AcDbArc
 50
0.0
 51
90.0
  0
ARC
  5
5EA
330
1F
100
AcDbEntity
  8
0
  6
Continuous
 62
     7
370
    25
100
AcDbCircle
 10
206.3
 20
-179.5960842727
 30
0.0
 40
0.5000000000000568
100
AcDbArc
 50
270.0
 51
360.0
  0
ARC
  5
5EB
330
1F
100
AcDbEntity
  8
0
  6
Continuous
 62
     7
370
    25
100
AcDbCircle
 10
193.525
 20
-180.5960842727
 30
0.0
 40
0.5
100
AcDbArc
 50
90.0
 51
180.0
  0
ARC
  5
5EC
330
1F
100
AcDbEntity
  8
0
  6
Continuous
 62
     7
370
    25
100
AcDbCircle
 10
193.525
 20
-193.5960842727
 30
0.0
 40
0.4999999999999716
100
AcDbArc
 50
180.0
 51
270.0
  0
ARC
  5
5ED
330
1F
100
AcDbEntity
  8
0
  6
Continuous
 62
     7
370
    25
100
AcDbCircle
 10
206.525
 20
-193.5960842727
 30
0.0
 40
0.4999999999999716
100
AcDbArc
 50
270.0
 51
0.0
  0
ARC
  5
5EE
330
1F
100
AcDbEntity
  8
0
  6
Continuous
 62
     7
370
    25
100
AcDbCircle
 10
207.525
 20
-181.9381061058
 30
0.0
 40
0.5000000000000023
100
AcDbArc
 50
51.4588224918
 51
179.9999999999
  0
ARC
  5
5EF
330
1F
100
AcDbEntity
  8
0
  6
Continuous
 62
     7
370
    25
100
AcDbCircle
 10
209.55
 20
-179.3960842727
 30
0.0
 40
2.750000000000477
100
AcDbArc
 50
231.4588224917
 51
308.5411775083
  0
ARC
  5
5F0
330
1F
100
AcDbEntity
  8
0
  6
Continuous
 62
     7
370
    25
100
AcDbCircle
 10
211.575
 20
-181.9381061058
 30
0.0
 40
0.4999999999992042
100
AcDbArc
 50
359.9999999999
 51
128.5411775084
  0
ARC
  5
5F1
330
1F
100
AcDbEntity
  8
0
  6
Continuous
 62
     7
370
    25
100
AcDbCircle
 10
212.575
 20
-193.5960842727
 30
0.0
 40
0.4999999999999432
100
AcDbArc
 50
180.0
 51
270.0
  0
ARC
  5
5F2
330
1F
100
AcDbEntity
  8
0
  6
Continuous
 62
     7
370
    25
100
AcDbCircle
 10
225.575
 20
-193.5960842727
 30
0.0
 40
0.4999999999999716
100
AcDbArc
 50
270.0
 51
0.0
  0
ARC
  5
5F3
330
1F
100
AcDbEntity
  8
0
  6
Continuous
 62
     7
370
    25
100
AcDbCircle
 10
225.575
 20
-180.5960842727
 30
0.0
 40
0.5
100
AcDbArc
 50
0.0
 51
90.0
  0
ARC
  5
5F4
330
1F
100
AcDbEntity
  8
0
  6
Continuous
 62
     7
370
    25
100
AcDbCircle
 10
212.8
 20
-179.5960842727
 30
0.0
 40
0.5000000000000568
100
AcDbArc
 50
180.0
 51
270.0
  0
ARC
  5
5F5
330
1F
100
AcDbEntity
  8
0
  6
Continuous
 62
     7
370
    25
100
AcDbCircle
 10
212.8
 20
-176.8710842727
 30
0.0
 40
0.5000000000000284
100
AcDbArc
 50
90.0
 51
180.0
  0
ARC
  5
5F6
330
1F
100
AcDbEntity
  8
0
  6
Continuous
 62
     7
370
    25
100
AcDbCircle
 10
222.05
 20
-176.1210842727
 30
0.0
 40
0.2500000000000284
100
AcDbArc
 50
270.0
 51
90.0
  0
ARC
  5
5F7
330
1F
100
AcDbEntity
  8
0
  6
Continuous
 62
     7
370
    25
100
AcDbCircle
 10
212.8
 20
-175.3710842727
 30
0.0
 40
0.4999999999999716
100
AcDbArc
 50
180.0
 51
270.0
  0
ARC
  5
5F8
330
1F
100
AcDbEntity
  8
0
  6
Continuous
 62
     7
370
    25
100
AcDbCircle
 10
212.8
 20
-173.8960842727
 30
0.0
 40
0.5000000000000568
100
AcDbArc
 50
90.0
 51
180.0
  0
ARC
  5
5F9
330
1F
100
AcDbEntity
  8
0
  6
Continuous
 62
     7
370
    25
100
AcDbCircle
 10
304.475
 20
-173.8960842727
 30
0.0
 40
0.5000000000000568
100
AcDbArc
 50
0.0
 51
90.0
  0
ARC
  5
5FA
330
1F
100
AcDbEntity
  8
0
  6
Continuous
 62
     7
370
    25
100
AcDbCircle
 10
304.475
 20
-175.3710842727
 30
0.0
 40
0.5
100
AcDbArc
 50
270.0
 51
0.0
  0
ARC
  5
5FB
330
1F
100
AcDbEntity
  8
0
  6
Continuous
 62
     7
370
    25
100
AcDbCircle
 10
295.225
 20
-176.1210842727
 30
0.0
 40
0.2500000000000284
100
AcDbArc
 50
90.0
 51
270.0
  0
ARC
  5
5FC
330
1F
100
AcDbEntity
  8
0
  6
Continuous
 62
     7
370
    25
100
AcDbCircle
 10
304.475
 20
-176.8710842727
 30
0.0
 40
0.5000000000000284
100
AcDbArc
 50
0.0
 51
90.0
  0
ARC
  5
5FD
330
1F
100
AcDbEntity
  8
0
  6
Continuous
 62
     7
370
    25
100
AcDbCircle
 10
304.475
 20
-193.3710842727
 30
0.0
 40
0.5000000000000568
100
AcDbArc
 50
270.0
 51
360.0
  0
ARC
  5
5FE
330
1F
100
AcDbEntity
  8
0
  6
Continuous
 62
     7
370
    25
100
AcDbCircle
 10
302.775
 20
-193.3710842727
 30
0.0
 40
0.5
100
AcDbArc
 50
180.0
 51
270.0
  0
ARC
  5
5FF
330
1F
100
AcDbEntity
  8
0
  6
Continuous
 62
     7
370
    25
100
AcDbCircle
 10
301.775
 20
-180.5960842727
 30
0.0
 40
0.5000000000001137
100
AcDbArc
 50
0.0
 51
90.0
  0
ARC
  5
600
330
1F
100
AcDbEntity
  8
0
  6
Continuous
 62
     7
370
    25
100
AcDbCircle
 10
288.775
 20
-180.5960842727
 30
0.0
 40
0.5000000000000568
100
AcDbArc
 50
90.0
 51
180.0
  0
ARC
  5
601
330
1F
100
AcDbEntity
  8
0
  6
Continuous
 62
     7
370
    25
100
AcDbCircle
 10
288.775
 20
-193.5960842727
 30
0.0
 40
0.5
100
AcDbArc
 50
180.0
 51
270.0
  0
ARC
  5
602
330
1F
100
AcDbEntity
  8
0
  6
Continuous
 62
     7
370
    25
100
AcDbCircle
 10
300.4329781669
 20
-194.5960842727
 30
0.0
 40
0.5000000000000284
100
AcDbArc
 50
321.4588224918
 51
89.9999999999
  0
ARC
  5
603
330
1F
100
AcDbEntity
  8
0
  6
Continuous
 62
     7
370
    25
100
AcDbCircle
 10
302.975
 20
-196.6210842727
 30
0.0
 40
2.749999999998886
100
AcDbArc
 50
141.4588224917
 51
218.5411775083
  0
ARC
  5
604
330
1F
100
AcDbEntity
  8
0
  6
Continuous
 62
     7
370
    25
100
AcDbCircle
 10
300.4329781669
 20
-198.6460842727
 30
0.0
 40
0.4999999999998295
100
AcDbArc
 50
270.0
 51
38.5411775084
  0
ARC
  5
605
330
1F
100
AcDbEntity
  8
0
  6
Continuous
 62
     7
370
    25
100
AcDbCircle
 10
288.775
 20
-199.6460842727
 30
0.0
 40
0.5000000000000568
100
AcDbArc
 50
90.0
 51
180.0
  0
ARC
  5
606
330
1F
100
AcDbEntity
  8
0
  6
Continuous
 62
     7
370
    25
100
AcDbCircle
 10
288.775
 20
-212.6460842727
 30
0.0
 40
0.5
100
AcDbArc
 50
180.0
 51
270.0
  0
ARC
  5
607
330
1F
100
AcDbEntity
  8
0
  6
Continuous
 62
     7
370
    25
100
AcDbCircle
 10
301.775
 20
-212.6460842727
 30
0.0
 40
0.5
100
AcDbArc
 50
270.0
 51
0.0
  0
ARC
  5
608
330
1F
100
AcDbEntity
  8
0
  6
Continuous
 62
     7
370
    25
100
AcDbCircle
 10
302.775
 20
-199.8710842727
 30
0.0
 40
0.5
100
AcDbArc
 50
90.0
 51
180.0
  0
ARC
  5
609
330
1F
100
AcDbEntity
  8
0
  6
Continuous
 62
     7
370
    25
100
AcDbCircle
 10
304.475
 20
-199.8710842727
 30
0.0
 40
0.4999999999991473
100
AcDbArc
 50
359.9999999998
 51
90.0000000001
  0
ARC
  5
60A
330
1F
100
AcDbEntity
  8
0
  6
Continuous
 62
     7
370
    25
100
AcDbCircle
 10
304.475
 20
-250.5210842727
 30
0.0
 40
0.5000000000000568
100
AcDbArc
 50
270.0
 51
0.0
  0
ARC
  5
60B
330
1F
100
AcDbEntity
  8
0
  6
Continuous
 62
     7
370
    25
100
AcDbCircle
 10
302.775
 20
-250.5210842727
 30
0.0
 40
0.5
100
AcDbArc
 50
180.0
 51
270.0
  0
ARC
  5
60C
330
1F
100
AcDbEntity
  8
0
  6
Continuous
 62
     7
370
    25
100
AcDbCircle
 10
301.775
 20
-237.7460842727
 30
0.0
 40
0.5000000000001137
100
AcDbArc
 50
0.0
 51
90.0
  0
ARC
  5
60D
330
1F
100
AcDbEntity
  8
0
  6
Continuous
 62
     7
370
    25
100
AcDbCircle
 10
288.775
 20
-237.7460842727
 30
0.0
 40
0.5000000000000568
100
AcDbArc
 50
90.0
 51
180.0
  0
ARC
  5
60E
330
1F
100
AcDbEntity
  8
0
  6
Continuous
 62
     7
370
    25
100
AcDbCircle
 10
288.775
 20
-250.7460842727
 30
0.0
 40
0.5
100
AcDbArc
 50
180.0
 51
270.0
  0
ARC
  5
60F
330
1F
100
AcDbEntity
  8
0
  6
Continuous
 62
     7
370
    25
100
AcDbCircle
 10
300.4329781669
 20
-251.7460842727
 30
0.0
 40
0.5000000000000113
100
AcDbArc
 50
321.4588224918
 51
89.9999999999
  0
ARC
  5
610
330
1F
100
AcDbEntity
  8
0
  6
Continuous
 62
     7
370
    25
100
AcDbCircle
 10
302.975
 20
-253.7710842727
 30
0.0
 40
2.749999999998709
100
AcDbArc
 50
141.4588224917
 51
218.5411775083
  0
ARC
  5
611
330
1F
100
AcDbEntity
  8
0
  6
Continuous
 62
     7
370
    25
100
AcDbCircle
 10
300.4329781669
 20
-255.7960842727
 30
0.0
 40
0.4999999999999147
100
AcDbArc
 50
269.9999999999
 51
38.5411775085
  0
ARC
  5
612
330
1F
100
AcDbEntity
  8
0
  6
Continuous
 62
     7
370
    25
100
AcDbCircle
 10
288.775
 20
-256.7960842727
 30
0.0
 40
0.4999999999980105
100
AcDbArc
 50
89.9999999998
 51
180.0000000001
  0
ARC
  5
613
330
1F
100
AcDbEntity
  8
0
  6
Continuous
 62
     7
370
    25
100
AcDbCircle
 10
288.775
 20
-269.7960842727
 30
0.0
 40
0.5000000000019895
100
AcDbArc
 50
180.0000000005
 51
269.9999999998
  0
ARC
  5
614
330
1F
100
AcDbEntity
  8
0
  6
Continuous
 62
     7
370
    25
100
AcDbCircle
 10
301.775
 20
-269.7960842727
 30
0.0
 40
0.4999999999960778
100
AcDbArc
 50
269.9999999996
 51
0.0000000002
  0
ARC
  5
615
330
1F
100
AcDbEntity
  8
0
  6
Continuous
 62
     7
370
    25
100
AcDbCircle
 10
302.775
 20
-257.0210842727
 30
0.0
 40
0.5
100
AcDbArc
 50
90.0
 51
180.0
  0
ARC
  5
616
330
1F
100
AcDbEntity
  8
0
  6
Continuous
 62
     7
370
    25
100
AcDbCircle
 10
304.475
 20
-257.0210842727
 30
0.0
 40
0.5000000000000568
100
AcDbArc
 50
0.0
 51
90.0
  0
ARC
  5
617
330
1F
100
AcDbEntity
  8
0
  6
Continuous
 62
     7
370
    25
100
AcDbCircle
 10
304.475
 20
-273.5210842727
 30
0.0
 40
0.4999999999999432
100
AcDbArc
 50
270.0
 51
0.0
  0
ARC
  5
618
330
1F
100
AcDbEntity
  8
0
  6
Continuous
 62
     7
370
    25
100
AcDbCircle
 10
239.8625
 20
-218.6960842727
 30
0.0
 40
0.5000000000000568
100
AcDbArc
 50
0.0
 51
90.0
  0
ARC
  5
619
330
1F
100
AcDbEntity
  8
0
  6
Continuous
 62
     7
370
    25
100
AcDbCircle
 10
83.8375
 20
-255.7960842727
 30
0.0
 40
0.5
100
AcDbArc
 50
0.0
 51
90.0
  0
ARC
  5
61A
330
1F
100
AcDbEntity
  8
0
  6
Continuous
 62
     7
370
    25
100
AcDbCircle
 10
78.0875
 20
-255.7960842727
 30
0.0
 40
0.5000000000000142
100
AcDbArc
 50
90.0
 51
180.0
  0
ARC
  5
61B
330
1F
100
AcDbEntity
  8
0
  6
Continuous
 62
     7
370
    25
100
AcDbCircle
 10
198.1375
 20
-255.7960842727
 30
0.0
 40
0.5
100
AcDbArc
 50
0.0
 51
90.0
  0
ARC
  5
61C
330
1F
100
AcDbEntity
  8
0
  6
Continuous
 62
     7
370
    25
100
AcDbCircle
 10
192.3875
 20
-255.7960842727
 30
0.0
 40
0.5000000000000568
100
AcDbArc
 50
90.0
 51
180.0
  0
ENDSEC
  0
SECTION
  2
OBJECTS
  0
DICTIONARY
  5
C
330
0
100
AcDbDictionary
281
     1
  3
ACAD_GROUP
350
D
  3
ACAD_LAYOUT
350
1A
  3
ACAD_MLINESTYLE
350
17
  3
ACAD_PLOTSETTINGS
350
19
  3
ACAD_PLOTSTYLENAME
350
E
  3
ACAD_SCALELIST
350
47
  0
DICTIONARY
  5
D
102
{ACAD_REACTORS
330
C
102
}
330
C
100
AcDbDictionary
281
     1
  0
DICTIONARY
  5
1A
102
{ACAD_REACTORS
330
C
102
}
330
C
100
AcDbDictionary
281
     1
  3
Layout1
350
1E
  3
Layout2
350
26
  3
Model
350
22
  0
DICTIONARY
  5
17
102
{ACAD_REACTORS
330
C
102
}
330
C
100
AcDbDictionary
281
     1
  3
Standard
350
18
  0
DICTIONARY
  5
19
102
{ACAD_REACTORS
330
C
102
}
330
C
100
AcDbDictionary
281
     1
  0
ACDBDICTIONARYWDFLT
  5
E
102
{ACAD_REACTORS
330
C
102
}
330
C
100
AcDbDictionary
281
     1
  3
Normal
350
F
100
AcDbDictionaryWithDefault
340
F
  0
DICTIONARY
  5
47
102
{ACAD_REACTORS
330
C
102
}
330
C
100
AcDbDictionary
281
     1
  3
A0
350
48
  3
A1
350
49
  3
A2
350
4A
  3
A3
350
4B
  3
A4
350
4C
  3
A5
350
4D
  3
A6
350
4E
  3
A7
350
4F
  3
A8
350
50
  3
A9
350
51
  3
B0
350
52
  3
B1
350
53
  3
B2
350
54
  3
B3
350
55
  3
B4
350
56
  3
B5
350
57
  3
B6
350
58
  3
B7
350
59
  3
B8
350
5A
  3
B9
350
5B
  3
C0
350
5C
  3
C1
350
5D
  3
C2
350
5E
  3
C3
350
5F
  3
C4
350
60
  3
C5
350
61
  3
C6
350
62
  3
C7
350
63
  3
C8
350
64
  3
C9
350
65
  3
D0
350
66
  3
D1
350
67
  3
D2
350
68
  0
LAYOUT
  5
1E
102
{ACAD_REACTORS
330
1A
102
}
330
1A
100
AcDbPlotSettings
  1

  2
none_device
  4

  6

 40
0.0
 41
0.0
 42
0.0
 43
0.0
 44
0.0
 45
0.0
 46
0.0
 47
0.0
 48
0.0
 49
0.0
140
0.0
141
0.0
142
1.0
143
1.0
 70
   688
 72
     1
 73
     0
 74
     5
  7

 75
    16
147
1.0
148
0.0
149
0.0
100
AcDbLayout
  1
Layout1
 70
     1
 71
     1
 10
0.0
 20
0.0
 11
420.0
 21
297.0
 12
0.0
 22
0.0
 32
0.0
 14
1.0000000000E+20
 24
1.0000000000E+20
 34
1.0000000000E+20
 15
-1.0000000000E+20
 25
-1.0000000000E+20
 35
-1.0000000000E+20
146
0.0
 13
0.0
 23
0.0
 33
0.0
 16
1.0
 26
0.0
 36
0.0
 17
0.0
 27
1.0
 37
0.0
 76
     0
330
1B
  0
LAYOUT
  5
26
102
{ACAD_REACTORS
330
1A
102
}
330
1A
100
AcDbPlotSettings
  1

  2
none_device
  4

  6

 40
0.0
 41
0.0
 42
0.0
 43
0.0
 44
0.0
 45
0.0
 46
0.0
 47
0.0
 48
0.0
 49
0.0
140
0.0
141
0.0
142
1.0
143
1.0
 70
   688
 72
     1
 73
     0
 74
     5
  7

 75
    16
147
1.0
148
0.0
149
0.0
100
AcDbLayout
  1
Layout2
 70
     1
 71
     2
 10
0.0
 20
0.0
 11
0.0
 21
0.0
 12
0.0
 22
0.0
 32
0.0
 14
0.0
 24
0.0
 34
0.0
 15
0.0
 25
0.0
 35
0.0
146
0.0
 13
0.0
 23
0.0
 33
0.0
 16
1.0
 26
0.0
 36
0.0
 17
0.0
 27
1.0
 37
0.0
 76
     0
330
23
  0
LAYOUT
  5
22
102
{ACAD_REACTORS
330
1A
102
}
330
1A
100
AcDbPlotSettings
  1

  2
none_device
  4
ANSI_A_(11.00_x_8.50_Inches)
  6

 40
6.35
 41
19.05
 42
6.35000508
 43
19.05000254
 44
279.4
 45
215.9
 46
-4.7943721943
 47
293.0310427619
 48
0.0
 49
0.0
140
0.0
141
0.0
142
0.0356873669
143
1.0
 70
  1696
 72
     0
 73
     0
 74
     0
  7

 75
     0
147
0.0179189148
148
-1300.4909072572
149
0.0
100
AcDbLayout
  1
Model
 70
     1
 71
     0
 10
0.0
 20
0.0
 11
420.0
 21
297.0
 12
0.0
 22
0.0
 32
0.0
 14
-0.175
 24
-276.9960842727
 34
0.0
 15
304.975
 25
-173.3960842727
 35
0.0
146
0.0
 13
0.0
 23
0.0
 33
0.0
 16
1.0
 26
0.0
 36
0.0
 17
0.0
 27
1.0
 37
0.0
 76
     0
330
1F
331
29
  0
MLINESTYLE
  5
18
102
{ACAD_REACTORS
330
17
102
}
330
17
100
AcDbMlineStyle
  2
Standard
 70
     0
  3

 62
   256
 51
90.0
 52
90.0
 71
     2
 49
0.5
 62
   256
  6
BYLAYER
 49
-0.5
 62
   256
  6
BYLAYER
  0
ACDBPLACEHOLDER
  5
F
102
{ACAD_REACTORS
330
E
102
}
330
E
  0
SCALE
  5
48
102
{ACAD_REACTORS
330
47
102
}
330
47
100
AcDbScale
 70
     0
300
1:1
140
1.0
141
1.0
290
     1
  0
SCALE
  5
49
102
{ACAD_REACTORS
330
47
102
}
330
47
100
AcDbScale
 70
     0
300
1:2
140
1.0
141
2.0
290
     0
  0
SCALE
  5
4A
102
{ACAD_REACTORS
330
47
102
}
330
47
100
AcDbScale
 70
     0
300
1:4
140
1.0
141
4.0
290
     0
  0
SCALE
  5
4B
102
{ACAD_REACTORS
330
47
102
}
330
47
100
AcDbScale
 70
     0
300
1:5
140
1.0
141
5.0
290
     0
  0
SCALE
  5
4C
102
{ACAD_REACTORS
330
47
102
}
330
47
100
AcDbScale
 70
     0
300
1:8
140
1.0
141
8.0
290
     0
  0
SCALE
  5
4D
102
{ACAD_REACTORS
330
47
102
}
330
47
100
AcDbScale
 70
     0
300
1:10
140
1.0
141
10.0
290
     0
  0
SCALE
  5
4E
102
{ACAD_REACTORS
330
47
102
}
330
47
100
AcDbScale
 70
     0
300
1:16
140
1.0
141
16.0
290
     0
  0
SCALE
  5
4F
102
{ACAD_REACTORS
330
47
102
}
330
47
100
AcDbScale
 70
     0
300
1:20
140
1.0
141
20.0
290
     0
  0
SCALE
  5
50
102
{ACAD_REACTORS
330
47
102
}
330
47
100
AcDbScale
 70
     0
300
1:30
140
1.0
141
30.0
290
     0
  0
SCALE
  5
51
102
{ACAD_REACTORS
330
47
102
}
330
47
100
AcDbScale
 70
     0
300
1:40
140
1.0
141
40.0
290
     0
  0
SCALE
  5
52
102
{ACAD_REACTORS
330
47
102
}
330
47
100
AcDbScale
 70
     0
300
1:50
140
1.0
141
50.0
290
     0
  0
SCALE
  5
53
102
{ACAD_REACTORS
330
47
102
}
330
47
100
AcDbScale
 70
     0
300
1:100
140
1.0
141
100.0
290
     0
  0
SCALE
  5
54
102
{ACAD_REACTORS
330
47
102
}
330
47
100
AcDbScale
 70
     0
300
2:1
140
2.0
141
1.0
290
     0
  0
SCALE
  5
55
102
{ACAD_REACTORS
330
47
102
}
330
47
100
AcDbScale
 70
     0
300
4:1
140
4.0
141
1.0
290
     0
  0
SCALE
  5
56
102
{ACAD_REACTORS
330
47
102
}
330
47
100
AcDbScale
 70
     0
300
8:1
140
8.0
141
1.0
290
     0
  0
SCALE
  5
57
102
{ACAD_REACTORS
330
47
102
}
330
47
100
AcDbScale
 70
     0
300
10:1
140
10.0
141
1.0
290
     0
  0
SCALE
  5
58
102
{ACAD_REACTORS
330
47
102
}
330
47
100
AcDbScale
 70
     0
300
100:1
140
100.0
141
1.0
290
     0
  0
SCALE
  5
59
102
{ACAD_REACTORS
330
47
102
}
330
47
100
AcDbScale
 70
     0
300
1/128" = 1'-0"
140
0.0078125
141
12.0
290
     0
  0
SCALE
  5
5A
102
{ACAD_REACTORS
330
47
102
}
330
47
100
AcDbScale
 70
     0
300
1/64" = 1'-0"
140
0.015625
141
12.0
290
     0
  0
SCALE
  5
5B
102
{ACAD_REACTORS
330
47
102
}
330
47
100
AcDbScale
 70
     0
300
1/32" = 1'-0"
140
0.03125
141
12.0
290
     0
  0
SCALE
  5
5C
102
{ACAD_REACTORS
330
47
102
}
330
47
100
AcDbScale
 70
     0
300
1/16" = 1'-0"
140
0.0625
141
12.0
290
     0
  0
SCALE
  5
5D
102
{ACAD_REACTORS
330
47
102
}
330
47
100
AcDbScale
 70
     0
300
3/32" = 1'-0"
140
0.09375
141
12.0
290
     0
  0
SCALE
  5
5E
102
{ACAD_REACTORS
330
47
102
}
330
47
100
AcDbScale
 70
     0
300
1/8" = 1'-0"
140
0.125
141
12.0
290
     0
  0
SCALE
  5
5F
102
{ACAD_REACTORS
330
47
102
}
330
47
100
AcDbScale
 70
     0
300
3/16" = 1'-0"
140
0.1875
141
12.0
290
     0
  0
SCALE
  5
60
102
{ACAD_REACTORS
330
47
102
}
330
47
100
AcDbScale
 70
     0
300
1/4" = 1'-0"
140
0.25
141
12.0
290
     0
  0
SCALE
  5
61
102
{ACAD_REACTORS
330
47
102
}
330
47
100
AcDbScale
 70
     0
300
3/8" = 1'-0"
140
0.375
141
12.0
290
     0
  0
SCALE
  5
62
102
{ACAD_REACTORS
330
47
102
}
330
47
100
AcDbScale
 70
     0
300
1/2" = 1'-0"
140
0.5
141
12.0
290
     0
  0
SCALE
  5
63
102
{ACAD_REACTORS
330
47
102
}
330
47
100
AcDbScale
 70
     0
300
3/4" = 1'-0"
140
0.75
141
12.0
290
     0
  0
SCALE
  5
64
102
{ACAD_REACTORS
330
47
102
}
330
47
100
AcDbScale
 70
     0
300
1" = 1'-0"
140
1.0
141
12.0
290
     0
  0
SCALE
  5
65
102
{ACAD_REACTORS
330
47
102
}
330
47
100
AcDbScale
 70
     0
300
1-1/2" = 1'-0"
140
1.5
141
12.0
290
     0
  0
SCALE
  5
66
102
{ACAD_REACTORS
330
47
102
}
330
47
100
AcDbScale
 70
     0
300
3" = 1'-0"
140
3.0
141
12.0
290
     0
  0
SCALE
  5
67
102
{ACAD_REACTORS
330
47
102
}
330
47
100
AcDbScale
 70
     0
300
6" = 1'-0"
140
6.0
141
12.0
290
     0
  0
SCALE
  5
68
102
{ACAD_REACTORS
330
47
102
}
330
47
100
AcDbScale
 70
     0
300
1'-0" = 1'-0"
140
12.0
141
12.0
290
     0
  0
ENDSEC
  0
EOF
